<svg width="498" height="551" viewBox="0 0 498 551" fill="none" xmlns="http://www.w3.org/2000/svg">
<path d="M74.961 160.325C86.2626 158.064 90.7829 156.055 93.7966 155.051C105.851 149.023 107.861 133.955 107.359 127.174C107.359 118.133 106.304 101.106 105.098 90.2563C103.591 76.6946 93.7966 65.3932 79.4818 63.8864C65.167 62.3795 44.8243 65.3932 29.7558 68.4069C14.6873 71.4206 10.9199 86.4891 10.1665 94.0234C9.41306 101.558 9.41306 125.667 13.9336 142.996C17.55 156.859 31.2621 161.832 40.3035 162.585C49.3448 163.338 63.6594 162.585 74.961 160.325Z" fill="#BABABA" stroke="black" stroke-width="0.828767" stroke-linejoin="round"/>
<path d="M76.795 159.441C87.4349 157.316 91.6905 155.427 94.5277 154.483C105.876 148.817 107.768 134.652 107.296 128.277C107.296 119.778 106.242 102.641 105.108 92.4421C103.689 79.6934 94.4677 69.0695 80.991 67.653C67.5144 66.2364 48.3628 69.0695 34.1766 71.9025C19.9904 74.7356 16.4437 88.9008 15.7344 95.9834C15.025 103.066 15.0851 126.861 19.3409 143.151C22.7456 156.183 35.6548 160.857 44.1668 161.565C52.6787 162.274 66.1551 161.565 76.795 159.441Z" fill="white" stroke="black" stroke-width="0.828767" stroke-linejoin="round"/>
<path fill-rule="evenodd" clip-rule="evenodd" d="M90.6682 124.256C91.6509 124.212 92.4831 124.973 92.5272 125.956L92.7734 131.443C93.0197 136.935 88.9217 141.657 83.45 142.187L77.8905 142.726C76.9115 142.82 76.041 142.104 75.9462 141.125C75.8514 140.146 76.5681 139.275 77.5472 139.18L83.1066 138.642C86.6915 138.295 89.3764 135.201 89.215 131.603L88.9689 126.115C88.9248 125.133 89.6856 124.301 90.6682 124.256Z" fill="black"/>
<path fill-rule="evenodd" clip-rule="evenodd" d="M35.2329 103.061C34.2506 103.111 33.4139 102.355 33.3642 101.372L33.0719 95.6019C32.8231 90.6902 36.6031 86.5069 41.5148 86.2581L47.2853 85.9658C48.2677 85.916 49.1044 86.672 49.1541 87.6544C49.2039 88.6367 48.4479 89.4734 47.4655 89.5231L41.695 89.8154C38.748 89.9647 36.4799 92.4747 36.6292 95.4217L36.9215 101.192C36.9713 102.175 36.2153 103.011 35.2329 103.061Z" fill="black"/>
<path fill-rule="evenodd" clip-rule="evenodd" d="M36.2937 126.696C35.3109 126.735 34.5457 127.563 34.5847 128.546L34.8667 135.657C35.0631 140.609 39.2652 144.448 44.215 144.197L49.9064 143.909C50.8887 143.859 51.6447 143.023 51.5949 142.04C51.5452 141.058 50.7085 140.302 49.7261 140.352L44.0348 140.64C41.0649 140.791 38.5436 138.487 38.4258 135.516L38.1438 128.405C38.1048 127.422 37.2765 126.657 36.2937 126.696Z" fill="black"/>
<path fill-rule="evenodd" clip-rule="evenodd" d="M89.7184 100.614C90.6965 100.511 91.4052 99.6336 91.3014 98.6555L90.6481 92.4988C90.1484 87.7906 86.0518 84.2966 81.3237 84.5462L75.8996 84.8324C74.9173 84.8843 74.1631 85.7225 74.2149 86.7048C74.2668 87.687 75.105 88.4412 76.0873 88.3894L81.5114 88.1031C84.3483 87.9534 86.8062 90.0498 87.106 92.8747L87.7594 99.0314C87.8632 100.01 88.7403 100.718 89.7184 100.614Z" fill="black"/>
<path fill-rule="evenodd" clip-rule="evenodd" d="M52.1745 124.94C51.6188 125.752 51.8262 126.86 52.6378 127.416L53.644 125.946C52.6378 127.416 52.6384 127.416 52.639 127.417L52.6402 127.417L52.643 127.419L52.6495 127.424L52.6663 127.435L52.7154 127.467C52.755 127.493 52.8082 127.527 52.875 127.567C53.0085 127.649 53.1963 127.759 53.4376 127.888C53.9201 128.147 54.6169 128.485 55.5206 128.831C57.3295 129.524 59.9649 130.252 63.3648 130.456C66.9753 130.673 69.8616 129.636 71.8365 128.549C72.8229 128.006 73.5886 127.447 74.1152 127.016C74.379 126.801 74.5844 126.616 74.729 126.479C74.8014 126.411 74.8588 126.355 74.9008 126.313C74.9218 126.292 74.939 126.274 74.9523 126.26L74.9695 126.242L74.9759 126.236L74.9797 126.232C74.9803 126.231 74.9808 126.23 73.6835 125.01L74.9808 126.23C75.6547 125.514 75.6202 124.387 74.9037 123.713C74.1894 123.041 73.0669 123.073 72.3923 123.784L72.3776 123.799C72.3606 123.816 72.3298 123.846 72.2855 123.888C72.1967 123.972 72.0542 124.1 71.8606 124.259C71.4725 124.576 70.8852 125.006 70.1186 125.428C68.5875 126.271 66.3679 127.068 63.5785 126.901C60.5785 126.72 58.3002 126.082 56.7951 125.505C56.042 125.216 55.4818 124.943 55.1216 124.75C54.9415 124.653 54.8115 124.577 54.7326 124.528C54.6932 124.504 54.6665 124.487 54.6527 124.478L54.6423 124.471C53.8315 123.922 52.7285 124.131 52.1745 124.94ZM54.6423 124.471C54.6423 124.471 54.6423 124.471 54.6423 124.471V124.471ZM72.3898 123.786C72.3899 123.786 72.3898 123.786 72.3898 123.786V123.786Z" fill="black"/>
<path fill-rule="evenodd" clip-rule="evenodd" d="M57.9819 119.322C58.0623 120.303 58.9222 121.032 59.9025 120.952L60.8396 120.875C64.0735 120.61 66.5236 117.842 66.395 114.6L65.9902 104.387C65.9512 103.404 65.1229 102.639 64.1401 102.678C63.1573 102.717 62.3921 103.545 62.4311 104.528L62.8359 114.741C62.8888 116.076 61.88 117.216 60.5484 117.325L59.6113 117.402C58.631 117.482 57.9015 118.342 57.9819 119.322Z" fill="black"/>
<path fill-rule="evenodd" clip-rule="evenodd" d="M75.4226 110.466C76.4029 110.385 77.1321 109.525 77.0513 108.545L76.6968 104.242C76.616 103.261 75.7559 102.532 74.7756 102.613C73.7953 102.694 73.0661 103.554 73.1469 104.534L73.5014 108.838C73.5822 109.818 74.4423 110.547 75.4226 110.466Z" fill="black"/>
<path fill-rule="evenodd" clip-rule="evenodd" d="M49.5653 111.782C50.5487 111.806 51.3646 111.027 51.3878 110.044L51.4886 105.768C51.5118 104.784 50.7335 103.969 49.7501 103.945C48.7668 103.922 47.9509 104.7 47.9277 105.684L47.8269 109.96C47.8037 110.943 48.582 111.759 49.5653 111.782Z" fill="black"/>
<circle cx="109.618" cy="146.009" r="17.3288" fill="black" stroke="black" stroke-width="0.828767"/>
<circle cx="110.372" cy="146.763" r="16.5753" fill="#EDAE5F" stroke="black" stroke-width="0.828767"/>
<circle cx="111.125" cy="146.009" r="12.8082" fill="#FFDD33" stroke="black" stroke-width="0.828767"/>
<path d="M105.379 146.598L103.338 149.149C103.066 149.489 103.138 149.987 103.494 150.237L109.176 154.214C109.842 154.68 110.757 154.534 111.245 153.884L119.019 143.518C119.244 143.218 119.214 142.799 118.949 142.533L117.012 140.596C116.688 140.272 116.151 140.31 115.876 140.677L109.617 149.023L106.438 146.48C106.113 146.22 105.639 146.273 105.379 146.598Z" fill="black" stroke="black" stroke-width="0.828767" stroke-linejoin="round"/>
<path d="M412.71 172.086C398.324 169.209 392.57 166.651 388.734 165.373C373.389 157.7 370.832 138.519 371.471 129.888C371.471 118.379 372.813 96.7047 374.348 82.8943C376.266 65.6314 388.734 51.2457 406.956 49.3276C425.177 47.4095 451.072 51.2457 470.253 55.0819C489.434 58.9181 494.23 78.0991 495.189 87.6896C496.148 97.2801 496.148 127.97 490.393 150.028C485.79 167.674 468.336 174.004 456.827 174.963C445.318 175.922 427.096 174.963 412.71 172.086Z" fill="#BABABA" stroke="black" stroke-width="0.828767" stroke-linejoin="round"/>
<path d="M410.377 170.962C396.833 168.257 391.416 165.853 387.805 164.651C373.359 157.439 370.951 139.408 371.552 131.293C371.552 120.475 372.893 98.6607 374.338 85.6782C376.143 69.4501 387.881 55.9267 405.036 54.1236C422.191 52.3204 446.569 55.9267 464.627 59.5329C482.685 63.1392 487.2 81.1704 488.103 90.186C489.005 99.2016 488.929 129.49 483.512 150.226C479.178 166.815 462.745 172.765 451.91 173.667C441.075 174.568 423.921 173.667 410.377 170.962Z" fill="white" stroke="black" stroke-width="0.828767" stroke-linejoin="round"/>
<path fill-rule="evenodd" clip-rule="evenodd" d="M451.871 102.104C442.014 92.2472 427.273 89.809 415 96.3548C403.925 102.262 399.442 115.189 398.609 121.847C398.491 122.794 397.627 123.467 396.679 123.348C395.731 123.23 395.059 122.365 395.178 121.418C396.075 114.241 400.873 99.9697 413.372 93.3032C427.037 86.015 443.422 88.765 454.316 99.6587C463.125 108.467 464.069 120.955 463.457 126.157C463.345 127.106 462.486 127.784 461.537 127.673C460.589 127.561 459.911 126.702 460.022 125.753C460.563 121.157 459.663 109.896 451.871 102.104Z" fill="black"/>
<path fill-rule="evenodd" clip-rule="evenodd" d="M432.242 84.4513C417.39 83.5777 407.178 91.5945 402.403 96.0887C401.707 96.7433 400.613 96.7101 399.958 96.0147C399.304 95.3192 399.337 94.2248 400.032 93.5703C405.056 88.842 416.171 80.0416 432.445 80.9988C445.848 81.7871 454.07 89.0449 459.084 93.4713C459.828 94.1279 460.501 94.7223 461.111 95.224C461.848 95.8311 461.953 96.9209 461.346 97.6581C460.739 98.3953 459.649 98.5008 458.912 97.8937C458.23 97.3317 457.502 96.6933 456.72 96.007C451.678 91.5806 444.368 85.1645 432.242 84.4513Z" fill="black"/>
<path fill-rule="evenodd" clip-rule="evenodd" d="M435.666 101.606C430.247 99.9683 423.394 100.039 416.11 105.705C410.333 110.198 407.834 116.286 407.125 122.226C406.413 128.201 407.531 133.927 408.881 137.439C409.224 138.33 408.78 139.331 407.888 139.674C406.997 140.017 405.996 139.572 405.654 138.681C404.122 134.699 402.905 128.407 403.691 121.816C404.481 115.191 407.314 108.165 413.987 102.975C422.266 96.5357 430.313 96.3753 436.667 98.296C442.921 100.187 447.482 104.066 449.127 105.711C450.398 106.982 451.741 109.043 452.878 111.391C454.027 113.763 455.029 116.556 455.548 119.362C456.064 122.148 456.13 125.087 455.256 127.662C454.355 130.317 452.477 132.499 449.36 133.633C447.314 134.376 444.008 134.348 441.18 132.919C438.186 131.406 435.799 128.36 435.799 123.361C435.799 121.148 435.069 119.512 433.91 118.508C432.792 117.538 431.033 116.948 428.501 117.26C426.988 117.952 425.626 118.65 424.664 120.177C423.653 121.78 422.904 124.62 423.677 130.034C424.408 135.156 430.066 147.68 446.347 149.308C447.297 149.403 447.99 150.251 447.895 151.201C447.8 152.151 446.953 152.845 446.002 152.75C427.697 150.919 421.14 136.734 420.253 130.523C419.422 124.697 420.114 120.908 421.738 118.332C423.328 115.81 425.641 114.76 427.205 114.049C427.238 114.035 427.27 114.02 427.302 114.005C427.452 113.937 427.61 113.891 427.773 113.868C431.165 113.383 434.086 114.084 436.175 115.894C438.258 117.699 439.258 120.387 439.258 123.361C439.258 127.051 440.906 128.905 442.739 129.832C444.739 130.842 447.053 130.791 448.178 130.382C450.248 129.63 451.396 128.275 451.981 126.55C452.593 124.746 452.605 122.463 452.148 119.992C451.694 117.541 450.805 115.043 449.766 112.899C448.715 110.729 447.572 109.047 446.681 108.157C445.269 106.745 441.184 103.275 435.666 101.606Z" fill="black"/>
<path fill-rule="evenodd" clip-rule="evenodd" d="M422.923 110.585C419.072 112.46 415.563 116.243 415.048 123.485C414.236 134.872 420.75 143.92 424.908 148.078C425.583 148.754 425.583 149.849 424.908 150.524C424.233 151.199 423.138 151.199 422.463 150.524C417.975 146.036 410.685 136.06 411.598 123.239C412.203 114.743 416.469 109.88 421.41 107.476C426.201 105.144 431.573 105.148 434.607 106.159C440.222 108.031 447.894 113.715 447.894 124.227C447.894 125.182 447.12 125.957 446.165 125.957C445.21 125.957 444.436 125.182 444.436 124.227C444.436 115.718 438.274 111.027 433.513 109.44C431.36 108.722 426.924 108.638 422.923 110.585Z" fill="black"/>
<path fill-rule="evenodd" clip-rule="evenodd" d="M429.911 120.776C430.861 120.866 431.559 121.71 431.468 122.661C430.833 129.331 433.32 133.772 436.64 136.698C440.034 139.689 444.361 141.138 447.273 141.535C448.219 141.664 448.881 142.535 448.752 143.482C448.623 144.428 447.752 145.09 446.805 144.961C443.376 144.494 438.366 142.829 434.353 139.293C430.266 135.691 427.277 130.189 428.025 122.333C428.116 121.382 428.96 120.685 429.911 120.776Z" fill="black"/>
<path fill-rule="evenodd" clip-rule="evenodd" d="M432.723 76.4332C424.893 76.091 417.907 77.648 413.937 79.1541C413.044 79.4928 412.045 79.0435 411.707 78.1505C411.368 77.2576 411.817 76.2592 412.71 75.9204C417.098 74.2563 424.551 72.6143 432.874 72.9781C441.214 73.3426 450.541 75.728 458.514 82.2512C459.253 82.856 459.362 83.9454 458.757 84.6846C458.152 85.4237 457.063 85.5327 456.324 84.9279C449.079 79.0007 440.538 76.7748 432.723 76.4332Z" fill="black"/>
<circle cx="22.0582" cy="22.0582" r="22.0582" transform="matrix(-1 0 0 1 392.57 129.889)" fill="black" stroke="black" stroke-width="0.828767"/>
<circle cx="21.0991" cy="21.0991" r="21.0991" transform="matrix(-1 0 0 1 390.652 131.807)" fill="#EDAE5F" stroke="black" stroke-width="0.828767"/>
<circle cx="368.597" cy="151.948" r="16.3039" fill="#FFDD33" stroke="black" stroke-width="0.828767"/>
<path d="M361.748 149.545L358.146 152.38C357.804 152.649 357.76 153.151 358.05 153.475L364.355 160.508C364.898 161.113 365.823 161.179 366.445 160.657L379.522 149.686C379.81 149.445 379.876 149.029 379.678 148.711L377.617 145.396C377.375 145.007 376.845 144.922 376.493 145.217L366.138 153.904L362.806 149.671C362.549 149.344 362.075 149.287 361.748 149.545Z" fill="black" stroke="black" stroke-width="0.828767" stroke-linejoin="round"/>
<g clip-path="url(#clip0_2402_27963)">
<path d="M371.705 220.677C376.383 227.225 385.978 240.963 386.94 243.528C388.143 246.736 402.976 288.43 404.58 293.241C406.183 298.052 417.409 324.111 422.22 329.724C427.031 335.336 429.837 338.143 430.238 341.35C430.639 344.557 427.832 348.967 428.634 350.571C429.436 352.174 431.842 356.584 431.441 359.792C431.12 362.357 431.04 369.948 431.04 373.422C430.772 378.1 429.115 388.817 424.625 394.27C419.013 401.085 417.81 403.09 417.008 405.896C416.206 408.702 412.197 421.531 406.584 422.734C400.972 423.937 389.746 427.545 384.935 430.351C381.64 432.273 376.935 433.157 374.14 433.455C373.68 433.527 373.266 433.558 372.908 433.558C373.254 433.539 373.67 433.506 374.14 433.455C377.801 432.89 384.386 429.847 388.944 420.729C389.479 419.794 391.27 417.442 394.156 415.518C397.764 413.112 398.165 410.306 398.967 407.099C399.769 403.891 402.174 395.873 401.774 392.666C401.373 389.459 403.377 390.26 401.774 386.251C400.17 382.242 399.368 379.436 398.165 374.224C396.963 369.012 398.967 366.607 393.755 363.801C389.586 361.556 378.12 356.183 372.908 353.778C369.166 351.239 361.603 344.958 361.282 340.147C360.961 335.336 359.812 306.872 359.277 293.241L370.102 250.344L371.705 233.907V220.677Z" fill="white" stroke="black" stroke-width="0.801814"/>
<path d="M377.318 345.76C370.903 346.401 363.954 343.354 361.281 341.751V332.931C362.885 335.737 380.124 339.345 386.939 339.345C393.755 339.345 403.377 337.742 408.187 337.341C412.998 336.94 421.417 334.134 422.219 334.134C423.021 334.134 420.215 335.737 416.206 336.539C412.196 337.341 409.791 337.742 406.183 339.345C402.575 340.949 385.336 344.958 377.318 345.76Z" fill="#DBDBDB"/>
<path d="M359.277 413.513C361.201 426.984 369.433 432.49 373.309 433.559C380.686 432.596 385.737 426.476 387.341 423.536C388.41 421.932 390.949 418.404 392.552 417.121C394.156 415.839 394.824 410.172 394.958 407.5C394.29 391.864 390.147 360.112 378.922 358.188C367.696 356.264 362.217 373.69 360.881 382.643C359.544 387.321 357.353 400.043 359.277 413.513Z" fill="#DBDBDB" stroke="black" stroke-width="0.801814"/>
<path d="M422.222 338.142C425.108 337.501 426.097 335.47 426.231 334.534C431.042 339.746 430.24 341.751 430.24 343.354C430.24 344.637 428.636 347.898 427.834 349.368C426.498 348.299 423.184 346.08 420.618 345.76C417.411 345.359 413.001 344.156 412.6 341.751C412.199 339.345 418.614 338.944 422.222 338.142Z" fill="#DBDBDB"/>
<path d="M399.371 407.9C404.984 407.5 416.37 406.377 417.011 405.094" stroke="black" stroke-width="0.801814"/>
<path d="M291.123 186.199L281.101 182.189C271.345 185.397 248.387 191.891 234.595 192.212C220.804 192.533 204.795 185.664 198.514 182.189L190.496 187.802L181.275 190.208C169.114 194.751 143.349 204.32 137.576 206.244C131.803 208.168 124.747 215.064 121.94 218.271C127.072 221.478 129.959 233.238 130.76 238.717L141.585 285.624L139.58 385.048V401.486L135.571 433.558L118.733 557.439L117.13 578.286L111.918 629.201L105.503 727.022C104.434 753.215 101.975 808.166 100.692 818.429C99.4094 828.692 98.5541 862.262 98.2869 877.763L95.4805 938.701L92.2733 980.797L89.8678 1011.67L87.8633 1023.29C88.7987 1023.69 91.6318 1024.66 95.4805 1025.3C100.291 1026.1 105.904 1023.69 106.706 1023.29C107.347 1022.97 108.042 1020.22 108.31 1018.88C115.045 1010.86 130.627 1010.73 137.576 1011.67C146.797 1014.21 167.564 1020.49 176.865 1025.3C186.166 1030.11 199.984 1030.51 205.73 1030.11L264.663 1032.91C284.575 1032.78 325.361 1032.35 329.209 1031.71C333.058 1031.07 333.218 1028.24 332.818 1026.9C333.085 1026.77 334.742 1026.42 339.232 1026.1C343.722 1025.78 345.379 1021.15 345.647 1018.88L357.674 1008.46C363.821 1005.79 376.597 1000.28 378.521 999.639C380.926 998.837 390.548 1001.64 392.954 1002.45C394.878 1003.09 399.368 1004.32 401.373 1004.85L410.193 1010.46L404.179 979.193C403.912 975.585 403.538 966.444 404.179 958.747C404.82 951.049 402.575 895.938 401.373 869.344L392.152 728.225L384.134 639.224L378.922 557.439L368.498 485.676L359.678 419.126L361.282 343.354C360.747 329.055 359.598 299.335 359.277 294.844C358.957 290.354 366.093 263.306 369.701 250.344C370.369 245.533 371.706 235.35 371.706 233.105C371.706 230.298 372.106 223.483 371.706 221.077C371.385 219.153 365.157 212.525 362.084 209.451C355.402 206.912 340.916 201.754 336.426 201.433C331.936 201.112 319.32 197.29 313.574 195.419L291.123 186.199Z" fill="white" stroke="black" stroke-width="0.801814"/>
<path d="M269.875 278.407V302.863L272.681 351.774L286.713 360.594C294.411 359.631 318.518 360.995 329.61 361.796L341.236 353.778V302.863L340.034 278.407C330.412 274.879 289.252 276.937 269.875 278.407Z" fill="white" stroke="black" stroke-width="0.801814"/>
<path d="M269.875 302.863C275.755 302.863 282.624 301.259 287.114 301.259" stroke="black" stroke-width="0.801814"/>
<path d="M341.638 303.264L299.543 301.259" stroke="black" stroke-width="0.801814"/>
<path d="M233.793 205.442C233.793 206.378 233.953 208.81 234.595 211.055C235.236 213.3 234.862 226.156 234.595 232.303L235.397 284.02L238.604 373.823L242.613 442.779L255.442 451.599L268.271 441.977L263.861 360.192L261.055 266.38L259.05 215.064" stroke="black" stroke-width="0.801814"/>
<path d="M115.926 856.516L140.381 545.813" stroke="black" stroke-width="0.801814"/>
<path d="M151.202 183.392C149.919 183.713 150.668 185.931 151.202 187L141.18 192.613L129.152 197.424C128.217 198.359 125.945 200.872 124.342 203.438C122.337 206.645 121.535 210.654 121.535 213.059V218.271C125.705 219.554 128.351 227.091 129.152 230.699C129.687 233.506 130.997 240.161 131.959 244.33C132.921 248.5 135.834 262.371 137.171 268.785L141.18 286.024L159.22 328.521L160.824 334.534C161.626 337.741 163.791 344.797 166.036 347.363C168.797 350.519 169.23 352.899 170.007 357.176L170.045 357.386C170.686 360.914 172.718 366.607 173.653 369.012C174.455 374.759 176.139 386.492 176.459 387.454C176.78 388.416 179.266 388.389 180.469 388.256C182.607 377.164 188.166 352.334 193.298 341.751C199.712 328.521 199.311 314.89 198.509 308.876C197.868 304.065 197.44 301.259 197.307 300.457C197.574 296.314 198.189 287.628 198.509 286.024C198.83 284.421 196.772 257.56 195.703 244.33C194.233 231.768 191.213 206.003 190.892 203.438C190.571 200.872 188.353 198.359 187.284 197.424L170.446 174.572C170.179 174.171 169.484 173.37 168.842 173.37C168.04 173.37 166.036 175.374 161.225 178.581C156.414 181.789 152.806 182.991 151.202 183.392Z" fill="#F0F0F0" stroke="black" stroke-width="0.801814"/>
<path d="M135.969 245.132C133.724 230.379 125.679 221.211 121.938 218.271C126.53 221.88 129.688 231.635 130.357 236.713L141.582 286.025L151.204 308.877C147.195 298.453 138.776 263.574 135.969 245.132Z" fill="#BABABA"/>
<path d="M188.49 273.196L151.606 187.001C150.404 184.595 149.361 183.873 153.21 182.59C158.021 180.987 165.638 175.775 167.242 174.171C168.525 172.889 169.914 173.637 170.449 174.171C175.26 180.987 185.363 195.179 187.287 197.424C189.211 199.669 190.761 203.17 191.296 204.64L198.913 285.223L197.31 299.655C196.668 293.882 191.162 279.61 188.49 273.196Z" fill="#F0F0F0" stroke="black" stroke-width="0.801814"/>
<path d="M161.625 209.451V207.447H162.828V209.852L161.625 209.451Z" fill="#DBDBDB"/>
<path d="M176.457 210.253L176.056 212.258L173.25 211.857L174.453 209.852L176.457 210.253Z" fill="#DBDBDB"/>
<path d="M169.646 223.483L168.844 224.686L170.848 225.889L171.65 223.884L169.646 223.483Z" fill="#DBDBDB"/>
<path d="M172.05 221.879H170.848L172.852 214.262L174.456 215.064L172.05 221.879Z" fill="#DBDBDB"/>
<path d="M164.831 207.848L164.43 209.852L171.646 211.857L172.047 209.852L164.831 207.848Z" fill="#DBDBDB"/>
<path d="M170.447 227.091L168.844 226.29L170.046 229.497L170.447 227.091Z" fill="#DBDBDB"/>
<path d="M163.631 206.244L162.027 205.843C162.027 202.957 164.433 194.484 165.636 190.609L171.248 176.176L172.852 178.581C171.916 180.72 169.645 185.798 168.041 189.005C166.437 192.212 164.433 201.834 163.631 206.244Z" fill="#DBDBDB"/>
<path d="M178.465 199.83L182.474 191.411L184.078 193.415L180.47 200.23L177.663 209.05L175.258 207.848L178.465 199.83Z" fill="#DBDBDB"/>
<path d="M178.06 211.055L177.258 212.659C184.314 215.545 190.621 221.078 192.893 223.483L192.492 221.479C189.606 217.63 181.668 212.926 178.06 211.055Z" fill="#DBDBDB"/>
<path d="M173.255 224.686L172.453 226.289C183.999 229.497 191.697 235.644 194.102 238.317V236.312C189.291 230.86 178.199 226.289 173.255 224.686Z" fill="#DBDBDB"/>
<path d="M189.69 326.115L189.289 323.71C187.151 325.714 181.512 330.686 176.059 334.534C170.607 338.383 165.235 340.949 163.23 341.751L164.433 344.557C165.636 343.889 169.725 341.43 176.46 336.94C183.196 332.45 188.087 327.853 189.69 326.115Z" fill="#DBDBDB"/>
<path d="M167.236 268.786L165.633 269.988C167.771 273.73 173.17 283.299 179.264 294.845C185.357 306.391 188.752 317.296 189.687 321.305L191.692 320.503C190.89 315.291 184.475 300.457 180.867 293.642C177.981 288.19 170.577 274.799 167.236 268.786Z" fill="#DBDBDB"/>
<path d="M140.377 206.645C136.849 204.4 130.622 200.631 127.949 199.028L129.208 197.825C132.282 196.622 138.91 193.976 140.835 193.014C142.759 192.052 148.548 188.604 151.202 187L173.252 237.916L171.247 235.911C171.247 236.873 170.178 238.985 169.644 239.92L159.22 226.289C154.409 220.677 143.905 208.89 140.377 206.645Z" fill="#DBDBDB"/>
<path d="M126.747 200.631L124.742 203.438C128.242 204.64 137.631 209.451 147.193 219.073C156.755 228.695 164.541 240.455 167.238 245.132L169.243 244.33C167.907 242.058 164.432 236.553 161.225 232.704C157.216 227.893 148.797 217.068 142.783 212.658C137.972 209.13 130.088 203.17 126.747 200.631Z" fill="#DBDBDB"/>
<path d="M121.535 215.866V218.271C123.807 218.138 131.157 221.345 135.968 226.69C141.741 233.105 149.732 245.132 153.207 250.745L155.211 249.943C151.47 243.796 142.543 230.138 136.77 224.686C130.997 219.233 124.208 216.534 121.535 215.866Z" fill="#DBDBDB"/>
<path d="M192.497 321.305L190.492 322.507L190.893 324.913L193.299 323.71L192.497 321.305Z" fill="#DBDBDB"/>
<path d="M192.094 343.354L194.099 339.345C192.629 341.35 188.406 346.321 183.274 350.17C178.143 354.018 172.583 357.119 170.445 358.188L170.846 360.593C173.252 359.257 179.105 355.782 183.274 352.575C187.444 349.368 190.892 345.092 192.094 343.354Z" fill="#DBDBDB"/>
<path d="M163.629 268.786L162.827 267.583L152.403 272.795L153.606 274.398C154.568 274.078 160.689 270.656 163.629 268.786Z" fill="#DBDBDB"/>
<path d="M153.205 252.749C145.187 255.957 140.777 260.767 139.574 262.772L139.975 264.376C145.427 258.603 151.201 255.689 153.606 254.754L153.205 252.749Z" fill="#DBDBDB"/>
<path d="M154.41 252.348L154.811 253.952L157.217 253.15L156.415 251.547L154.41 252.348Z" fill="#DBDBDB"/>
<path d="M170.447 245.533L168.844 246.335L169.646 247.939L171.65 247.137L170.447 245.533Z" fill="#DBDBDB"/>
<path d="M180.471 260.767L178.868 262.371C180.872 265.979 183.919 268.625 186.485 272.795C189.051 276.964 191.563 282.283 192.499 284.421L188.49 273.195L180.471 260.767Z" fill="#DBDBDB"/>
<path d="M178.467 257.961L176.863 259.164L177.665 260.767L179.67 259.565L178.467 257.961Z" fill="#DBDBDB"/>
<path d="M180.871 256.358L179.668 257.159L181.272 259.565L182.474 259.164L180.871 256.358Z" fill="#DBDBDB"/>
<path d="M172.449 245.934L171.246 244.33L174.453 241.123L175.255 243.528L172.449 245.934Z" fill="#DBDBDB"/>
<path d="M174.456 260.367L167.641 265.578L168.442 266.781L175.659 261.569L174.456 260.367Z" fill="#DBDBDB"/>
<path d="M165.637 265.578L163.633 266.781L164.836 268.384L166.84 267.583L165.637 265.578Z" fill="#DBDBDB"/>
<path d="M180.87 336.94L166.438 346.963C168.362 348.566 169.645 353.511 170.046 355.783C173.119 353.644 180.068 348.807 183.276 346.562C186.483 344.317 191.026 339.479 192.897 337.341L191.695 328.12L180.87 336.94Z" fill="#DBDBDB"/>
<path d="M194.097 325.314L192.895 326.516C193.857 329.082 194.365 333.733 194.498 335.737L196.102 334.134C196.102 330.926 194.765 326.917 194.097 325.314Z" fill="#DBDBDB"/>
<path d="M176.858 263.574L170.043 268.384C174.987 276.804 185.678 295.566 188.886 303.263C192.093 310.961 194.498 317.696 195.3 320.102C196.904 318.819 198.374 316.092 198.908 314.89L198.106 305.669C196.824 296.047 183.407 273.596 176.858 263.574Z" fill="#DBDBDB"/>
<path d="M196.508 323.309L197.31 328.521C197.951 325.634 198.379 321.705 198.512 320.102L196.508 323.309Z" fill="#DBDBDB"/>
<path d="M123.541 205.041C122.258 206.645 121.938 210.788 121.938 212.659C128.753 214.262 135.568 220.677 139.577 225.087C142.785 228.615 148.13 235.377 150.402 238.317L158.019 248.339L164.434 245.934C160.959 241.257 153.449 231.181 151.204 228.294C148.397 224.686 139.177 215.465 133.564 211.055C129.074 207.527 125.011 205.576 123.541 205.041Z" fill="#DBDBDB"/>
<path d="M160.425 252.348L159.223 250.745L166.038 247.136L167.241 249.141L160.425 252.348Z" fill="#DBDBDB"/>
<path d="M174.051 247.538L176.456 245.533L180.064 254.353L178.461 255.155L174.051 247.538Z" fill="#DBDBDB"/>
<path d="M156.011 256.758L142.781 264.376C147.592 265.017 150.398 268.652 151.2 270.389L160.421 265.177L156.011 256.758Z" fill="#DBDBDB"/>
<path d="M168.841 251.146L161.625 254.754L166.436 261.97C167.104 261.569 168.601 260.687 169.242 260.366C169.884 260.046 171.915 258.362 172.85 257.56L170.846 254.754L168.841 251.146Z" fill="#DBDBDB"/>
<path d="M176.459 215.064L173.652 222.28C184.557 225.488 191.827 231.902 194.099 234.708L193.698 227.893C191.132 222.441 181.136 217.069 176.459 215.064Z" fill="#DBDBDB"/>
<path d="M164.034 212.659L163.633 214.262L166.038 220.276L168.845 221.078L170.849 214.262L164.034 212.659Z" fill="#DBDBDB"/>
<path d="M172.453 233.506V235.109C178.467 248.874 190.815 277.365 192.098 281.214C193.38 285.062 196.107 294.043 197.309 298.052L198.913 285.624L194.503 241.123C192.579 237.274 184.347 232.837 180.471 231.1L173.656 228.695L175.259 233.105L172.453 233.506Z" fill="#DBDBDB"/>
<path d="M172.45 208.649L166.035 206.244C166.035 202.395 171.381 187.001 174.053 179.784L180.468 188.604L172.45 208.649Z" fill="#DBDBDB"/>
<path d="M185.281 197.023L188.087 198.226C189.691 199.83 190.893 202.903 191.294 204.24C191.615 205.843 192.23 215.064 192.497 219.474C190.893 215.946 183.276 211.322 179.668 209.451H186.082L182.875 202.235L187.686 202.636L185.281 197.023Z" fill="#DBDBDB"/>
<path d="M161.223 191.41C159.94 194.297 159.352 201.166 159.219 204.239C157.08 199.562 152.483 189.486 151.201 186.6C149.918 183.713 151.201 182.991 152.002 182.991C157.455 181.388 163.896 176.978 166.435 174.973C167.237 174.038 168.921 172.488 169.241 173.771C169.562 175.053 168.306 177.245 167.638 178.18C166.034 181.388 162.506 188.524 161.223 191.41Z" fill="#DBDBDB"/>
<path d="M164.032 263.574L162.428 264.777L157.617 255.957L159.622 255.155L164.032 263.574Z" fill="#DBDBDB"/>
<path d="M172.05 248.74L170.848 250.344L175.258 256.758L176.861 256.357L172.05 248.74Z" fill="#DBDBDB"/>
<path d="M151.202 183.392C149.919 183.713 150.668 185.931 151.202 187L141.18 192.613L129.152 197.424C128.217 198.359 125.945 200.872 124.342 203.438C122.337 206.645 121.535 210.654 121.535 213.059V218.271C125.705 219.554 128.351 227.091 129.152 230.699C129.687 233.506 130.997 240.161 131.959 244.33C132.921 248.5 135.834 262.371 137.171 268.785L141.18 286.024L159.22 328.521L160.824 334.534C161.626 337.741 163.791 344.797 166.036 347.363C168.797 350.519 169.23 352.899 170.007 357.176L170.045 357.386C170.686 360.914 172.718 366.607 173.653 369.012C174.455 374.759 176.139 386.492 176.459 387.454C176.78 388.416 179.266 388.389 180.469 388.256C182.607 377.164 188.166 352.334 193.298 341.751C199.712 328.521 199.311 314.89 198.509 308.876C197.868 304.065 197.44 301.259 197.307 300.457C197.574 296.314 198.189 287.628 198.509 286.024C198.83 284.421 196.772 257.56 195.703 244.33C194.233 231.768 191.213 206.003 190.892 203.438C190.571 200.872 188.353 198.359 187.284 197.424L170.446 174.572C170.179 174.171 169.484 173.37 168.842 173.37C168.04 173.37 166.036 175.374 161.225 178.581C156.414 181.789 152.806 182.991 151.202 183.392Z" stroke="black" stroke-width="0.801814"/>
<path d="M188.49 273.196L151.606 187.001C150.404 184.595 149.361 183.873 153.21 182.59C158.021 180.987 165.638 175.775 167.242 174.171C168.525 172.889 169.914 173.637 170.449 174.171C175.26 180.987 185.363 195.179 187.287 197.424C189.211 199.669 190.761 203.17 191.296 204.64L198.913 285.223L197.31 299.655C196.668 293.882 191.162 279.61 188.49 273.196Z" stroke="black" stroke-width="0.801814"/>
<path d="M101.495 244.33C106.627 231.822 117.264 221.746 121.942 218.271C124.187 219.234 127.688 226.156 129.158 229.497L133.568 248.74L142.789 288.831L130.761 347.765C122.342 363.4 102.297 394.751 89.468 395.072C76.639 395.392 68.8881 381.04 66.6163 373.823C65.9481 371.151 64.3712 363.881 63.4091 356.184C62.4469 348.486 63.81 341.751 64.6118 339.345C67.6854 332.797 74.3137 318.498 76.2381 313.687C78.6435 307.674 87.8644 279.61 89.468 274.799C91.0717 269.989 95.0807 259.966 101.495 244.33Z" fill="white" stroke="black" stroke-width="0.801814"/>
<path d="M124.746 271.592C129.156 275.467 138.056 283.539 138.377 284.822" stroke="black" stroke-width="0.801814"/>
<path d="M117.531 249.542L135.973 277.205" stroke="black" stroke-width="0.801814"/>
<path d="M110.312 265.177L136.772 292.439" stroke="black" stroke-width="0.801814"/>
<path d="M150.415 371.418C149.452 376.55 145.47 380.773 143.599 382.243C123.153 381.441 118.743 359.391 115.937 354.179C108.812 340.949 113.531 319.3 117.139 310.08C120.347 307.273 126.36 304.065 132.374 305.268C146.651 308.125 151.484 331.996 152.419 345.359V351.774C152.152 356.184 151.377 366.287 150.415 371.418Z" fill="#BABABA" stroke="black" stroke-width="0.801814"/>
<path d="M139.585 365.405C138.302 369.253 135.576 376.363 134.373 379.437C138.222 381.682 142.391 381.976 143.995 381.842C145.866 379.704 149.768 374.946 150.41 373.022C151.051 371.098 151.746 363.667 152.013 360.193C154.419 342.954 149.207 315.291 138.783 308.075C130.444 302.302 121.143 306.739 117.535 309.679C128.36 311.282 135.576 328.12 138.783 337.742C141.99 347.364 141.189 360.594 139.585 365.405Z" fill="#DBDBDB"/>
<path d="M150.415 371.418C149.452 376.55 145.47 380.773 143.599 382.243C123.153 381.441 118.743 359.391 115.937 354.179C108.812 340.949 113.531 319.3 117.139 310.08C120.347 307.273 126.36 304.065 132.374 305.268C146.651 308.125 151.484 331.996 152.419 345.359V351.774C152.152 356.184 151.377 366.287 150.415 371.418Z" stroke="black" stroke-width="0.801814"/>
<path d="M67.0226 374.626L64.6172 362.598C64.6172 353.378 71.4326 343.756 75.4417 342.152C78.6489 340.869 85.598 339.747 88.6716 339.346C89.7407 338.544 92.4402 336.459 94.6852 334.535C97.4916 332.129 103.906 325.715 106.312 321.706C108.236 318.499 114.33 312.886 117.136 310.48L116.334 313.287C113.528 318.9 115.132 339.346 116.334 343.756C117.296 347.284 117.27 351.64 117.136 353.378C119.942 354.179 122.348 363.801 127.961 373.022C132.451 380.399 140.522 382.243 143.596 382.243C139.854 385.717 130.847 393.548 127.961 397.076C124.352 401.486 113.528 410.306 104.708 411.108C95.888 411.91 82.658 403.09 79.4508 399.081C76.8849 395.874 70.0963 381.441 67.0226 374.626Z" fill="white" stroke="black" stroke-width="0.801814"/>
<path d="M133.573 362.197C132.931 365.404 130.366 371.552 129.163 374.224C126.356 370.616 120.343 358.188 119.541 355.783C118.9 353.858 117.67 353.377 117.136 353.377C118.098 352.094 117.269 346.428 116.735 343.755C116.334 341.484 115.372 334.935 114.73 326.917C114.089 318.899 116.334 312.351 117.537 310.079C131.328 320.984 134.776 344.29 134.776 354.58C134.642 355.783 134.214 358.99 133.573 362.197Z" fill="#F0F0F0" stroke="black" stroke-width="0.801814"/>
<path d="M67.426 368.612C67.0251 364.87 66.9449 356.344 69.8315 352.175C73.4396 346.963 76.6469 343.355 80.656 342.152C84.6651 340.949 86.6696 342.553 88.6741 339.747" stroke="black" stroke-width="0.801814"/>
<path d="M103.506 399.081L95.4883 366.607L98.2946 346.161" stroke="black" stroke-width="0.801814"/>
<path d="M75.8438 375.828C77.4474 375.694 81.6168 375.347 85.4655 375.026C89.3142 374.705 95.0873 373.823 97.4927 373.422" stroke="black" stroke-width="0.801814"/>
<path d="M95.8867 367.008C96.2876 366.073 97.8913 363.961 101.099 362.999C105.108 361.796 111.522 360.594 115.932 354.981" stroke="black" stroke-width="0.801814"/>
<path d="M79.4518 395.473C77.4472 390.528 73.358 379.356 73.0372 374.225C72.6363 367.81 81.0554 352.175 86.6681 346.562" stroke="black" stroke-width="0.801814"/>
<path d="M124.347 353.778C118.574 350.892 116.864 345.359 116.73 342.954C113.924 336.057 115.126 321.706 114.725 320.102C114.405 318.819 116.195 312.886 117.131 310.08C117.532 308.342 118.654 304.146 119.937 301.26C121.541 297.651 125.951 294.444 130.762 294.043C134.61 293.722 138.78 295.246 140.384 296.048L149.203 299.255C150.406 299.789 153.373 301.901 155.618 306.07C157.863 310.24 156.019 314.222 154.816 315.692C159.226 316.093 160.83 320.904 161.231 324.512C161.551 327.399 158.157 329.724 156.42 330.526C156.954 331.595 157.943 334.455 157.623 337.341C157.302 340.228 154.014 342.82 152.411 343.756C152.411 348.166 150.807 351.373 148.803 352.976C146.798 354.58 138.78 354.179 135.172 354.981C131.564 355.783 131.564 357.386 124.347 353.778Z" fill="#F0F0F0" stroke="black" stroke-width="0.801814"/>
<path d="M141.585 285.624C141.585 291.076 134.903 293.642 131.562 294.043C138.618 294.364 150.004 301.126 154.815 304.467C154.548 303.932 153.933 301.5 153.612 297.652C153.211 292.841 154.815 290.034 154.013 279.21C153.211 268.385 143.59 261.169 139.581 265.98C135.572 270.791 141.585 278.809 141.585 285.624Z" fill="#F0F0F0" stroke="black" stroke-width="0.801814"/>
<path d="M130.762 340.949C136.374 341.885 148.722 343.676 153.213 343.355" stroke="black" stroke-width="0.801814"/>
<path d="M133.168 311.282C133.97 311.817 136.455 313.126 139.983 314.089C143.511 315.051 151.342 315.559 154.817 315.692" stroke="black" stroke-width="0.801814"/>
<path d="M135.57 328.12C141.317 328.922 153.531 330.526 156.417 330.526" stroke="black" stroke-width="0.801814"/>
<path d="M390.152 362.197L373.314 353.778C374.115 347.364 374.597 334.374 370.106 333.733C364.494 332.931 363.692 335.737 362.088 341.35C360.485 346.963 359.374 349.835 360.886 356.183C362.89 364.602 360.886 372.621 359.683 375.026C358.721 376.95 359.282 380.104 359.683 381.441L357.277 384.247C356.876 385.717 356.315 389.459 357.277 392.666C358.24 395.873 361.42 398.279 362.89 399.081C362.489 399.749 361.928 401.727 362.89 404.292C363.852 406.858 366.498 409.37 367.701 410.306C367.38 418.003 376.655 418.591 381.332 417.923C383.604 418.057 389.19 417.923 393.359 416.32C397.528 414.716 398.304 410.039 398.17 407.9C399.373 403.357 401.778 394.109 401.778 393.468C401.778 392.666 402.179 390.662 402.58 388.657L402.58 388.657C402.981 386.652 398.571 377.832 398.17 375.828C397.769 373.823 397.368 370.215 397.368 367.81C397.368 365.885 392.557 363.266 390.152 362.197Z" fill="#F0F0F0" stroke="black" stroke-width="0.801814"/>
<path d="M395.766 375.026C396.3 374.892 397.449 373.984 397.77 371.418" stroke="black" stroke-width="0.801814"/>
<path d="M394.16 395.873C396.165 395.74 400.494 394.671 401.777 391.463" stroke="black" stroke-width="0.801814"/>
<path d="M395.766 407.5C396.701 407.5 398.652 407.259 398.973 406.297" stroke="black" stroke-width="0.801814"/>
<path d="M359.684 381.842C360.352 383.044 362.811 385.289 367.301 384.648C371.791 384.006 380.397 380.639 384.139 379.035" stroke="black" stroke-width="0.801814"/>
<path d="M363.293 399.081L378.928 397.076L386.145 395.072" stroke="black" stroke-width="0.801814"/>
<path d="M368.102 410.306C370.641 410.573 376.28 410.948 378.525 410.306C380.77 409.665 385.875 408.97 388.147 408.703" stroke="black" stroke-width="0.801814"/>
<path d="M373.316 354.179C373.45 355.381 374.439 358.027 377.325 358.99" stroke="black" stroke-width="0.801814"/>
<path d="M379.323 360.593C376.651 360.727 370.904 362.277 369.301 367.409" stroke="black" stroke-width="0.801814"/>
<path d="M377.32 363.801C373.177 365.671 364.09 370.135 360.883 373.021" stroke="black" stroke-width="0.801814"/>
<path d="M374.117 354.179C377.592 352.041 385.262 347.524 388.149 346.562" stroke="black" stroke-width="0.801814"/>
<path d="M311.964 126.063C305.228 124.459 293.923 119.247 289.112 116.842L279.891 131.675L274.278 149.315L273.477 162.946L280.693 181.789C286.84 184.328 301.3 190.288 309.959 193.816C318.619 197.344 330.94 200.364 336.018 201.433C335.056 197.585 329.47 188.337 326.797 184.194C324.258 179.651 318.779 169.12 317.175 163.347C315.171 156.131 314.369 140.094 313.968 133.68C313.647 128.548 312.498 126.464 311.964 126.063Z" fill="#DBDBDB" stroke="black" stroke-width="0.801814"/>
<path d="M304.747 171.766C299.616 162.786 292.987 135.684 290.315 123.256L289.112 116.842L281.094 130.473L273.477 148.113V162.946L281.094 181.388L290.315 186.199C288.711 183.526 284.622 176.497 281.094 169.762C276.684 161.342 280.292 149.315 282.697 146.108C285.103 142.901 285.905 148.914 290.315 158.536C293.843 166.234 307.821 184.729 314.369 193.014C313.3 189.673 309.879 180.746 304.747 171.766Z" fill="#BABABA"/>
<path d="M306.352 123.256C300.9 122.936 295.528 120.183 293.523 118.846C299.938 122.054 302.343 119.381 302.744 117.644C303.065 121.172 305.283 122.855 306.352 123.256Z" fill="#BABABA" stroke="black" stroke-width="0.801814"/>
<path d="M289.114 116.842L287.109 103.612C287.51 104.815 288.472 108.102 289.114 111.63C289.755 115.158 292.321 118.178 293.524 119.248L289.114 116.842Z" fill="#BABABA" stroke="black" stroke-width="0.801814"/>
<path d="M290.715 115.238L283.098 92.3866C284.06 94.6317 292.853 100.806 297.129 103.612C300.337 105.884 307.072 110.748 308.355 112.031C309.638 113.314 308.355 119.247 307.553 122.054C307.286 122.722 306.43 123.818 305.148 122.856C303.865 121.893 303.009 118.446 302.742 116.842C302.742 118.045 301.78 120.45 297.931 120.45C294.083 120.45 291.517 116.976 290.715 115.238Z" fill="#DBDBDB" stroke="black" stroke-width="0.801814"/>
<path d="M159.622 108.022L157.617 96.7966L175.257 88.7784L184.478 81.1612L190.492 78.7557L191.293 91.5848L190.492 121.252L203.321 165.352L197.708 182.19L189.69 187.001L182.073 189.807L170.847 174.973C172.451 172.087 173.386 166.287 173.653 163.748C174.455 157.734 172.451 149.315 170.847 143.703C169.564 139.213 162.829 118.045 159.622 108.022Z" fill="#DBDBDB" stroke="black" stroke-width="0.801814"/>
<path d="M172.048 96.3957C171.406 95.4335 181.937 85.3039 187.282 80.3594L190.489 78.7557L191.692 90.783L190.489 119.648L203.719 165.352L198.107 182.591L191.291 185.798L181.669 189.406L179.264 185.798C181.937 182.992 187.763 176.337 189.687 172.167C192.093 166.955 186.079 146.91 184.476 138.09C182.872 129.27 187.282 121.653 187.282 115.639C187.282 109.626 185.278 101.607 183.674 99.6029C182.07 97.5984 172.849 97.5984 172.048 96.3957Z" fill="#BABABA"/>
<path d="M193.701 176.176C191.455 182.59 185.014 187.134 182.074 188.604L189.691 187.401L198.111 182.59L204.124 166.554L194.903 143.302L193.701 152.522C193.701 162.144 196.507 168.158 193.701 176.176Z" fill="#BABABA" stroke="black" stroke-width="0.801814"/>
<path d="M273.075 168.559C272.754 163.107 273.743 152.122 274.278 148.113C270.669 156.131 268.264 161.862 257.439 170.965C243.327 182.832 224.298 181.255 216.547 178.983C222.961 183.152 230.712 184.462 233.786 184.596L244.209 183.794C253.965 180.988 273.396 174.012 273.075 168.559Z" fill="#F0F0F0" stroke="black" stroke-width="0.801814"/>
<path d="M202.517 190.208C199.951 187.642 198.775 183.794 198.508 182.19L204.121 165.753C209.894 178.582 225.502 183.927 232.585 184.996H236.594L233.788 204.641C215.747 202.636 205.724 193.416 202.517 190.208Z" fill="white" stroke="black" stroke-width="0.801814"/>
<path d="M234.188 186.6V205.042C266.581 205.042 278.688 189.808 280.693 182.19L273.476 164.15V169.361C268.986 176.417 251.56 182.19 243.408 184.195L234.188 186.6Z" fill="white" stroke="black" stroke-width="0.801814"/>
<path d="M189.692 119.247C190.654 108.984 190.093 96.7963 189.692 91.9854C187.768 83.3257 191.563 64.8574 193.701 56.7057C204.927 34.6558 229.783 33.8539 232.188 33.453C234.594 33.0521 265.864 36.2593 276.689 52.2956C285.349 65.1247 284.841 84.1009 283.504 91.9854V98.4C281.901 100.966 280.431 106.151 279.896 108.423V130.873C278.159 139.961 271.477 160.541 258.648 170.162C242.612 182.19 224.17 182.19 217.355 179.383C211.902 177.138 205.996 169.093 203.724 165.351C198.646 154.26 188.73 129.51 189.692 119.247Z" fill="#F0F0F0" stroke="black" stroke-width="0.801814"/>
<path d="M202.52 159.739C206.856 159.739 206.128 154.394 206.929 151.32C206.929 157.334 214.547 168.96 220.961 170.163C223.483 170.636 222.832 165.619 222.164 163.347C223.768 165.592 227.376 166.955 228.979 167.356C231.545 167.356 234.859 164.684 236.196 163.347C235.394 165.886 235.795 171.766 240.606 170.163C245.417 168.559 252.232 162.545 255.038 155.329C255.038 161.744 259.983 165.485 263.057 165.753C259.849 169.281 252.098 174.439 248.624 176.577C231.786 184.595 222.966 180.586 217.754 179.384C213.585 178.421 207.464 170.965 204.925 167.356C203.722 164.015 202.52 159.739 202.52 159.739Z" fill="black" stroke="black" stroke-width="0.801814"/>
<path d="M232.991 133.68C231.387 134.642 228.848 135.15 227.779 135.283C226.977 134.749 225.053 133.68 223.77 133.68C222.166 133.68 219.761 135.684 212.945 137.288C209.102 138.192 207.734 137.288 206.13 140.094C204.847 142.339 207.466 149.181 209.337 152.923V143.301C213.213 143.301 221.525 143.462 223.77 144.103C226.015 144.745 230.852 144.371 232.991 144.103C237.668 143.301 247.584 142.019 249.829 143.301C252.074 144.584 252.902 151.854 253.036 155.329C253.036 152.121 255.441 139.693 254.64 138.891C252.234 136.486 247.824 137.288 241.009 135.283C237.086 134.13 234.995 132.477 232.991 133.68Z" fill="black" stroke="black" stroke-width="0.801814"/>
<path d="M230.183 157.333C226.334 157.013 221.897 157.467 220.16 157.734C221.764 163.828 226.708 165.886 228.98 166.154C234.112 165.512 237.266 160.808 238.201 158.536C237.132 158.269 234.032 157.654 230.183 157.333Z" fill="black" stroke="black" stroke-width="0.801814"/>
<path d="M215.754 151.721C216.957 153.324 220.725 156.612 226.177 156.933C231.63 157.253 233.26 157.2 234.597 156.933C238.606 156.131 241.011 153.725 245.421 150.518" stroke="black" stroke-width="0.801814"/>
<path d="M225.772 101.607C226.306 102.543 227.295 104.975 226.974 107.22C226.654 109.465 224.97 120.717 224.168 126.063" stroke="black" stroke-width="0.801814"/>
<path d="M219.762 130.472C221.098 130.606 224.172 131.194 225.775 132.477C227.78 134.081 229.784 133.68 231.789 132.477C233.793 131.274 234.996 130.072 237.402 130.472" stroke="black" stroke-width="0.801814"/>
<path d="M241.809 105.215C242.744 103.611 245.818 100.484 250.629 100.805C255.439 101.126 257.711 103.612 258.246 104.814" stroke="black" stroke-width="0.801814"/>
<path d="M203.723 104.815C204.792 103.479 207.411 100.966 212.543 101.607C217.354 102.209 220.293 105.884 220.561 107.621" stroke="black" stroke-width="0.801814"/>
<path d="M220.961 97.1975C221.602 96.2353 221.762 92.253 221.762 90.3821L220.961 93.9902V90.3821L220.159 94.792L218.956 89.9812V92.7875L218.154 89.9812C213.985 87.7361 205.459 87.1748 202.118 87.1748C197.949 90.3821 196.906 97.5984 196.906 100.806C196.906 97.9993 200.915 93.5893 203.321 92.3866C205.726 91.1839 220.159 98.4002 220.961 97.1975Z" fill="black" stroke="black" stroke-width="0.801814" stroke-linejoin="round"/>
<path d="M236.196 87.9758C235.876 90.8623 236.33 94.524 236.597 95.9939C239.003 95.7267 243.413 95.1926 245.417 94.3908C248.049 93.3379 254.638 90.3812 259.449 91.5839C263.298 92.5461 266.131 97.3302 267.066 99.602C264.26 91.183 260.251 87.976 257.845 87.1742C255.44 86.3724 249.827 87.1742 246.62 87.9756C244.286 88.5588 239.804 89.5793 238.602 87.9758L238.201 91.5844L237.8 87.9758L237.399 91.9853L236.196 87.9758Z" fill="black" stroke="black" stroke-width="0.801814" stroke-linejoin="round"/>
<path d="M193.699 139.694C192.417 136.166 191.027 124.86 190.492 119.648C191.454 125.421 197.575 137.288 200.114 144.104L204.524 166.955C201.45 159.338 194.982 143.222 193.699 139.694Z" fill="black" stroke="black" stroke-width="0.801814"/>
<path d="M275.889 127.265C277.813 125.982 278.829 117.376 279.096 113.234L279.898 110.026V113.234V131.675L276.691 142.099C275.621 145.306 272.2 153.645 267.069 161.342C261.937 169.04 251.567 174.706 247.023 176.577C250.498 170.697 257.447 158.536 257.447 156.933C257.447 154.928 262.258 142.099 263.06 139.694C263.862 137.288 273.483 128.869 275.889 127.265Z" fill="black" stroke="black" stroke-width="0.801814"/>
<path d="M259.447 79.5573C250.467 75.3879 238.6 75.6819 233.789 76.3501C260.089 70.5769 278.156 85.1701 283.902 93.1883C284.223 98.3199 281.363 104.948 279.893 107.621V116.04C279.359 114.169 278.129 110.026 277.488 108.423C276.686 106.418 277.889 99.6028 277.087 96.3956C276.285 93.1883 270.673 84.7691 259.447 79.5573Z" fill="black" stroke="black" stroke-width="0.801814"/>
<path d="M195.303 81.5619C198.911 76.9264 202.385 76.6174 204.123 75.9492L197.708 77.1519C194.021 77.4727 190.559 85.8383 189.289 89.981L190.893 97.1973C191.16 93.1882 192.795 84.7833 195.303 81.5619Z" fill="black" stroke="black" stroke-width="0.801814"/>
<path d="M189.292 91.9854C188.65 88.7782 189.024 82.3636 189.292 79.5573L198.513 77.1519C193.381 78.7555 190.227 87.7091 189.292 91.9854Z" fill="white" stroke="black" stroke-width="0.801814"/>
<path d="M187.687 106.017C186.404 101.848 188.222 94.6582 189.291 91.5846L190.093 97.9991V124.459C189.826 120.049 188.97 110.187 187.687 106.017Z" fill="#F0F0F0" stroke="black" stroke-width="0.801814"/>
<path d="M286.71 128.869C285.427 133.038 281.632 133.814 279.895 133.68V108.022L283.904 94.391L287.512 104.414L289.115 117.243C288.848 119.381 287.993 124.7 286.71 128.869Z" fill="#F0F0F0" stroke="black" stroke-width="0.801814"/>
<path d="M283.105 105.216L285.912 100.806L287.916 106.017L288.718 112.833C288.05 111.897 286.553 109.866 285.912 109.225C285.27 108.583 283.774 106.285 283.105 105.216Z" fill="black" stroke="black" stroke-width="0.801814"/>
<path d="M281.1 114.837C280.458 114.196 281.367 110.294 281.901 108.423C281.901 111.229 285.109 113.234 284.708 116.842C284.387 119.729 282.169 121.787 281.1 122.455C281.367 121.92 282.062 120.611 282.703 119.648C283.505 118.446 281.901 115.639 281.1 114.837Z" fill="black" stroke="black" stroke-width="0.801814"/>
<path d="M212.706 144.743C212.008 144.653 211.41 144.572 210.938 144.504C211.541 144.504 212.128 144.59 212.706 144.743C216.152 145.186 222.04 145.841 227.375 146.108C233.789 146.429 243.411 145.172 247.42 144.504C249.024 144.237 249.665 144.665 249.024 145.306C248.222 146.108 245.416 146.509 241.807 148.112C238.199 149.716 234.591 151.721 227.375 151.32C220.994 150.965 217.12 145.909 212.706 144.743Z" fill="black"/>
<path d="M210.938 144.504C213.744 144.905 220.96 145.787 227.375 146.108C233.789 146.429 243.411 145.172 247.42 144.504C249.024 144.237 249.665 144.665 249.024 145.306C248.222 146.108 245.416 146.509 241.807 148.112C238.199 149.716 234.591 151.721 227.375 151.32C220.158 150.919 216.149 144.504 210.938 144.504Z" stroke="black" stroke-width="0.801814"/>
<path d="M219.759 148.513C218.477 147.551 217.354 145.974 216.953 145.306C225.933 146.91 238.602 145.974 243.814 145.306C243.172 147.23 242.478 147.711 242.21 147.711L236.998 150.117C228.98 153.324 221.363 149.716 219.759 148.513Z" fill="white" stroke="black" stroke-width="0.801814"/>
<circle cx="212.545" cy="104.414" r="2.80635" fill="black" stroke="black" stroke-width="0.801814"/>
<circle cx="250.629" cy="104.013" r="3.20726" fill="black" stroke="black" stroke-width="0.801814"/>
<circle cx="212.942" cy="103.211" r="0.801814" fill="white" stroke="black" stroke-width="0.801814"/>
<circle cx="250.63" cy="102.409" r="0.801814" fill="white" stroke="black" stroke-width="0.801814"/>
<path d="M182.473 59.1116C184.076 56.8666 191.426 55.2362 194.901 54.7017L193.297 57.9089L182.473 59.1116Z" fill="#BABABA" stroke="black" stroke-width="0.801814"/>
<path d="M194.1 53.8997C193.138 54.5411 193.165 56.8397 193.298 57.9087C201.851 57.3742 223.046 56.4655 239.403 57.1069C255.76 57.7484 271.609 55.236 277.489 53.8997C266.584 36.5805 243.011 32.518 232.587 32.6516C205.726 35.057 195.303 53.0979 194.1 53.8997Z" fill="#DBDBDB" stroke="black" stroke-width="0.801814"/>
<path d="M290.716 60.7151C290.074 56.5456 285.637 54.7014 283.499 54.3005C282.537 61.3565 263.588 63.655 254.233 63.9223H183.673C182.604 64.0559 180.145 66.1674 180.466 68.7332C180.917 72.3414 183.673 73.5441 185.277 73.5441L220.557 74.7468H230.58C243.275 73.6777 270.189 71.4594 276.283 71.1386C283.9 70.7377 291.517 65.9268 290.716 60.7151Z" fill="black" stroke="#BABABA" stroke-width="0.801814"/>
<path d="M181.676 59.5126C179.751 61.1162 180.874 63.388 181.676 64.3235L208.136 65.1253L269.074 63.1207C274.419 62.9871 284.869 61.036 283.907 54.3008C282.945 47.5655 273.083 44.5454 268.272 43.8772C271.8 45.8016 275.889 51.0935 277.493 53.499C275.488 56.3053 263.461 57.1071 258.65 57.1071H226.577L193.302 57.909C190.228 57.7753 183.6 57.909 181.676 59.5126Z" fill="black" stroke="#BABABA" stroke-width="0.801814"/>
<path d="M224.97 79.5581L220.961 75.1481H230.583L224.97 79.5581Z" fill="#DBDBDB" stroke="black" stroke-width="0.801814"/>
<path d="M225.771 80.3589L223.767 82.3634L218.956 77.9535C217.753 77.1517 214.225 75.5481 209.735 75.5481C205.245 75.5481 194.501 77.9535 189.69 79.1562C185.681 80.359 181.672 86.7735 177.262 89.1789C173.734 91.1033 162.695 94.7916 157.617 96.3952L160.023 91.1835C161.493 89.0453 164.753 84.2878 166.036 82.3634C167.319 80.439 173.253 76.4834 176.059 74.7462C176.861 73.9444 178.545 70.9777 178.865 65.5254C179.186 60.0731 182.473 58.7099 184.077 58.7099C198.83 56.1441 214.546 68.3317 220.56 74.7462L225.771 80.3589Z" fill="#DBDBDB" stroke="black" stroke-width="0.801814"/>
<path d="M244.616 65.9265C239.805 67.5301 229.515 75.6819 224.971 79.5573C223.368 80.8984 224.303 81.1851 224.971 81.1608C226.709 78.889 233.952 74.5859 249.026 75.5481C267.868 76.7508 277.49 86.3726 283.905 93.188C290.319 100.003 305.554 108.422 307.959 111.63C309.884 114.196 308.226 120.182 307.157 122.855C309.429 119.113 312.77 110.347 307.959 105.215C301.946 98.8007 296.333 85.5708 294.328 81.1608C292.725 77.6328 290.186 70.3363 289.117 67.129C288.716 66.7282 285.589 65.3652 276.288 63.1201C264.661 60.3138 250.629 63.9219 244.616 65.9265Z" fill="#DBDBDB" stroke="black" stroke-width="0.801814"/>
</g>
<path d="M130.715 459.434L118.66 550.598H379.345L365.783 459.434H130.715Z" fill="url(#paint0_linear_2402_27963)"/>
<path d="M234.936 269.663L228.155 255.348C140.758 235.457 59.1372 251.581 29.2515 262.129L8.15539 351.786C5.39283 359.823 1.97731 384.183 10.4157 417.334C18.854 450.485 52.1052 477.859 67.6759 487.403L74.4568 491.17C164.868 480.32 204.046 408.293 212.333 373.635L234.936 269.663Z" fill="#151515" stroke="#151515" stroke-width="1.50685"/>
<path d="M234.936 269.662L228.155 255.347C139.251 232.744 59.1372 251.58 29.2515 262.128L8.15539 351.785C5.39283 359.822 1.97731 384.183 10.4157 417.333C18.854 450.484 52.1052 477.859 67.6759 487.402L74.4568 491.169C164.868 480.32 204.046 408.292 212.333 373.635L234.936 269.662Z" fill="#151515" stroke="#151515" stroke-width="1.50685"/>
<path d="M118.156 260.621L192.129 316.463L198.02 312.696L124.047 256.854L118.156 260.621Z" fill="#D0D5DD" stroke="#151515" stroke-width="1.50685"/>
<path d="M128.703 253.752L202.676 309.594L207.196 288.586V262.881L128.703 253.752Z" fill="#D0D5DD" stroke="#151515" stroke-width="1.50685"/>
<path fill-rule="evenodd" clip-rule="evenodd" d="M29.2536 262.881C59.6417 251.329 141.815 233.799 227.404 256.1L198.774 378.908C188.477 408.794 147.843 471.881 67.6782 485.141C52.8609 476.602 21.1166 452.292 12.6783 423.36C2.13031 387.196 4.39058 370.621 7.40428 354.045C9.81524 340.785 22.9751 287.744 29.2536 262.881ZM39.8042 274.936C59.3932 267.904 119.517 257.909 197.27 271.169L179.188 351.785C177.681 361.077 172.558 383.127 164.119 396.99C153.572 414.319 117.407 450.483 71.4482 464.045C57.8866 456.26 28.6537 431.648 20.2153 395.483C18.4574 388.954 16.2975 370.47 21.7222 348.771C23.833 340.328 26.3924 329.596 28.9832 318.732C33.0509 301.676 37.196 284.294 39.8042 274.936Z" fill="white"/>
<path fill-rule="evenodd" clip-rule="evenodd" d="M107.747 307.333C100.613 307.333 94.2786 311.899 92.0224 318.667L88.0278 330.651C88.0237 330.663 88.0216 330.676 88.0216 330.689H78.9805C78.9805 329.705 79.1393 328.726 79.4507 327.792L83.4453 315.808C86.932 305.348 96.7211 298.292 107.747 298.292H116.083C126.951 298.292 134.878 308.576 132.112 319.086L128.558 332.593L119.665 331.443L123.369 316.785C124.626 312.008 121.023 307.333 116.083 307.333H107.747Z" fill="white" stroke="black" stroke-width="1.50685"/>
<path d="M131.751 332.333C107.817 329.575 88.0121 329.789 74.6552 331.475C67.4168 332.388 61.976 337.981 60.0329 345.013L49.6215 382.692C48.3404 387.328 50.9555 392.016 55.717 392.698C67.3213 394.358 87.0297 395.366 108.97 394.674C117.688 394.399 125.148 388.486 127.75 380.16L139.105 343.824C140.764 338.514 137.278 332.97 131.751 332.333Z" fill="white" stroke="black" stroke-width="1.50685"/>
<rect x="83.8359" y="341.237" width="22.5032" height="22.5032" rx="11.2516" transform="rotate(4.70062 83.8359 341.237)" fill="#151515"/>
<rect x="90.3516" y="355.881" width="5.85615" height="21.0959" rx="2.92807" transform="rotate(14.1764 90.3516 355.881)" fill="#151515"/>
<path d="M197.27 271.169C119.516 257.909 59.393 267.904 39.8039 274.936C35.5345 290.255 27.1466 327.073 21.7219 348.771C16.2973 370.47 18.4571 388.954 20.2151 395.484C28.6534 431.648 57.8863 456.26 71.448 464.045C117.407 450.484 153.571 414.319 164.119 396.99C172.558 383.127 177.681 361.077 179.188 351.785L197.27 271.169Z" stroke="#151515" stroke-width="1.50685"/>
<defs>
<linearGradient id="paint0_linear_2402_27963" x1="249.379" y1="455.667" x2="249.379" y2="549.845" gradientUnits="userSpaceOnUse">
<stop stop-color="white" stop-opacity="0"/>
<stop offset="1" stop-color="white"/>
</linearGradient>
<clipPath id="clip0_2402_27963">
<rect width="492.74" height="536.101" fill="white" transform="translate(1.87891 14.1598)"/>
</clipPath>
</defs>
</svg>
