<svg width="498" height="551" viewBox="0 0 498 551" fill="none" xmlns="http://www.w3.org/2000/svg">
<path d="M11.2385 207.648L14.6846 204.776L22.9723 216.078L21.4654 229.639L34.2737 225.872L46.3284 231.9L40.1975 234.624C39.786 234.807 39.3143 234.797 38.9116 234.595L28.9997 229.639L18.3508 232.771C17.3217 233.074 16.3148 232.235 16.4271 231.168L17.6983 219.091L10.977 209.681C10.5185 209.04 10.6326 208.153 11.2385 207.648Z" fill="#EDAE5F" stroke="black" stroke-width="0.376712" stroke-linejoin="round"/>
<path d="M29.1638 196.783L34.274 194.228L27.4932 203.269L22.9727 204.023L27.6171 198.051C28.0315 197.519 28.56 197.085 29.1638 196.783Z" fill="#EDAE5F" stroke="black" stroke-width="0.376712" stroke-linejoin="round"/>
<path d="M40.302 205.53L34.2746 194.228L27.4938 203.269L14.6855 204.776L22.9732 216.078L21.4664 229.639L34.2746 225.872L46.3294 231.9L44.8225 218.338L53.1102 209.297L40.302 205.53Z" fill="#FFDD33" stroke="black" stroke-width="0.376712" stroke-linejoin="round"/>
<path d="M14.4569 114.98L18.4163 112.152C18.4872 112.101 18.5536 112.044 18.6147 111.982L31.552 98.8294C32.0498 98.3233 32.8332 98.2333 33.4328 98.6132L55.637 112.683C55.7279 112.741 55.8123 112.808 55.8889 112.883L89.592 146.143C90.2824 146.824 90.1587 147.971 89.339 148.489L75.2089 157.425L72.807 159.171C72.7119 159.241 72.6089 159.298 72.5003 159.344L70.0478 160.366C69.9412 160.41 69.8296 160.443 69.715 160.457C67.5817 160.711 66.0171 159.02 65.4913 158.119C57.856 143.079 51.1463 138.221 41.1973 129.891C33.5438 123.484 21.4262 120.699 15.7064 120.014C15.2877 119.964 14.9055 119.749 14.7381 119.361C14.4104 118.604 14.0937 117.44 13.8722 116.498C13.7365 115.92 13.9744 115.325 14.4569 114.98Z" fill="#1E4D95" stroke="black" stroke-width="0.678082" stroke-linejoin="round"/>
<path d="M14.5255 115.096L18.6416 112.156C18.7159 112.102 18.7853 112.043 18.8488 111.977L31.5472 98.8481C32.0458 98.3327 32.8386 98.24 33.4426 98.6266L55.4101 112.686C55.4974 112.742 55.5787 112.806 55.6527 112.879L89.5916 146.152C90.2826 146.83 90.165 147.974 89.3505 148.496L75.4394 157.425L72.608 159.167C72.4909 159.239 72.3643 159.297 72.2297 159.326C69.8003 159.838 68.1651 156.886 67.6058 155.212C67.583 155.144 67.5576 155.08 67.5262 155.015C64.0362 147.858 56.6386 138.865 43.2787 127.809C29.8592 116.703 15.7455 116.472 14.82 116.24C14.6519 116.198 14.5125 116.148 14.3973 116.092C13.9584 115.882 14.1295 115.378 14.5255 115.096Z" fill="#1E4D95" stroke="black" stroke-width="0.678082" stroke-linejoin="round"/>
<path d="M11.3516 104.672C11.3516 103.963 13.7513 102.493 15.1073 101.759C15.2254 101.695 15.3345 101.617 15.4324 101.525L52.0819 67.1107C52.7075 66.5232 53.6968 66.5761 54.2562 67.227L78.6807 95.6483L110.897 131.776C111.013 131.907 111.109 132.056 111.154 132.225C111.283 132.718 111.38 133.597 111.073 134.519C110.703 135.629 109.222 136.678 108.528 137.064L78.6807 156.962C76.4595 158.443 74.2075 156.807 73.3591 155.805C67.1121 147.938 51.8416 132.668 41.4299 125.264C31.0181 117.86 18.2927 111.382 15.2849 110.456C13.5695 109.928 12.4577 109.369 11.8489 108.98C11.5123 108.764 11.3516 108.381 11.3516 107.981V104.672Z" fill="#476DA4" stroke="black" stroke-width="0.678082" stroke-linejoin="round"/>
<path d="M11.3516 104.672C11.3516 103.963 13.7513 102.493 15.1073 101.759C15.2254 101.695 15.3345 101.617 15.4324 101.525L52.0819 67.1107C52.7075 66.5232 53.6968 66.5761 54.2562 67.227L78.6807 95.6483L110.897 131.776C111.013 131.907 111.109 132.056 111.154 132.225C111.283 132.718 111.38 133.597 111.073 134.519C110.703 135.629 109.222 136.678 108.528 137.064C99.5041 143.079 83.2156 154.093 80.9944 155.574C78.7732 157.054 76.2898 155.188 75.4415 154.185C69.1945 146.319 53.4612 130.817 43.0495 123.413C32.6377 116.009 19.6809 108.836 16.6731 107.911C14.2668 107.171 12.8714 106.302 12.5084 106.06C11.8143 105.597 11.3516 105.135 11.3516 104.672Z" fill="#476DA4" stroke="black" stroke-width="0.678082" stroke-linejoin="round"/>
<path d="M13.2508 94.2689L16.4436 91.7147L52.3584 67.0234C52.9883 66.5903 53.8427 66.6975 54.3461 67.2728L79.2864 95.776C79.3465 95.8448 79.4099 95.9056 79.4815 95.9623C89.9296 104.244 110.94 120.917 112.232 122.024C113.851 123.413 115.239 124.338 115.471 125.032C115.656 125.587 115.394 127.115 115.239 127.809C115.054 129.104 113.928 130.045 113.388 130.354C104.673 136.215 86.5956 148.354 84.0042 150.02C81.4825 151.641 79.0483 150.326 78.0665 149.402C78.0136 149.352 77.9618 149.306 77.9036 149.263C68.4628 142.22 49.1056 127.709 46.522 125.495C43.2828 122.718 12.973 100.275 12.2789 98.8872C11.7775 97.8843 12.3703 95.9256 12.8307 94.8168C12.9204 94.6008 13.0681 94.415 13.2508 94.2689Z" fill="#6E8EBD" stroke="black" stroke-width="0.678082" stroke-linejoin="round"/>
<path d="M13.4227 94.1309L16.4431 91.7147L52.3577 67.0234C52.9877 66.5903 53.8421 66.6975 54.3454 67.2728L79.2867 95.7771C79.3462 95.8451 79.4118 95.9077 79.4825 95.9639L112.231 122.024L115.089 124.474C115.336 124.686 115.524 124.973 115.534 125.299C115.575 126.591 114.601 127.427 113.967 127.753C113.89 127.792 113.817 127.831 113.746 127.879C105.068 133.689 87.2786 145.585 84.6977 147.244C82.1064 148.91 79.299 147.321 78.2193 146.318L48.3724 122.95C37.7293 114.852 16.0729 98.3782 14.5921 97.2676C13.5427 96.4805 13.1285 95.6469 13.0037 95.0634C12.9261 94.7003 13.1328 94.3629 13.4227 94.1309Z" fill="#6E8EBD" stroke="black" stroke-width="0.678082" stroke-linejoin="round"/>
<path d="M88.4894 137.152L85.623 136.306L98.1907 128.271L101.057 129.963C101.763 130.808 101.057 131.725 100.616 132.077C98.4112 133.487 93.6928 136.476 92.4581 137.152C91.2234 137.829 89.2978 137.434 88.4894 137.152Z" fill="black" stroke="black" stroke-width="0.678082" stroke-linejoin="round"/>
<path d="M88.441 137.148L85.623 136.292L95.8112 129.659L98.846 131.157C100.363 132.013 98.846 132.94 98.4124 133.296C96.2447 134.723 93.5568 136.463 92.3429 137.148C91.129 137.832 89.2359 137.433 88.441 137.148Z" fill="#6E8EBD" stroke="black" stroke-width="0.678082" stroke-linejoin="round"/>
<path d="M18.5233 86.8549L32.1742 78.0628L56.2244 64.6034C56.8911 64.2303 57.7316 64.4152 58.1801 65.0337L79.1841 93.9971C79.3092 94.1696 79.4694 94.3136 79.6542 94.4196L109.221 111.38C111.303 112.306 115.56 114.249 115.931 114.619C116.393 115.082 116.393 116.008 116.393 117.627C116.393 118.923 115.776 119.555 115.468 119.71C106.136 125.957 86.9628 138.775 84.9268 140.07C82.8907 141.366 80.685 140.919 79.8366 140.533C73.5896 137.757 58.319 130.121 47.2132 121.792C33.3309 111.38 19.4488 95.4156 17.1351 92.4078C15.2841 90.0015 17.2893 87.7032 18.5233 86.8549Z" fill="#95ABCB" stroke="black" stroke-width="0.678082" stroke-linejoin="round"/>
<path d="M18.9863 86.8553L32.4058 78.2945L56.4388 64.4039C57.1115 64.0151 57.9696 64.2015 58.4203 64.8345L79.177 93.9823C79.3069 94.1646 79.4757 94.3157 79.6713 94.4246L115.524 114.393C115.789 114.541 116.035 114.76 116.073 115.061C116.154 115.709 115.58 116.101 115.005 116.471C105.905 122.332 87.1483 134.472 84.9272 136.137C82.706 137.803 80.454 137.449 79.6056 137.063C73.2815 134.286 58.0418 126.697 47.6763 118.553C34.7195 108.373 20.3745 92.6396 18.9863 90.3259C17.8757 88.4749 18.5235 87.2409 18.9863 86.8553Z" fill="#95ABCB" stroke="black" stroke-width="0.678082" stroke-linejoin="round"/>
<path d="M88.166 128.039L85.1582 127.114L98.3464 118.322L101.354 120.173C102.095 121.098 101.354 122.101 100.891 122.486C98.5778 124.029 93.6264 127.299 92.3307 128.039C91.035 128.78 89.0144 128.348 88.166 128.039Z" fill="black" stroke="black" stroke-width="0.678082" stroke-linejoin="round"/>
<path d="M88.166 128.039L85.1582 127.113L96.0327 119.941L99.2719 121.561C100.891 122.486 99.2719 123.489 98.8091 123.874C96.4954 125.417 93.6264 127.299 92.3307 128.039C91.035 128.779 89.0144 128.347 88.166 128.039Z" fill="#95ABCB" stroke="black" stroke-width="0.678082" stroke-linejoin="round"/>
<path d="M61.7938 64.8747C60.4981 62.8386 58.6317 63.1008 57.8605 63.4864L32.8723 79.2197C31.1756 80.2994 27.3194 82.7365 25.4685 83.8471C23.6175 84.9577 23.4632 86.4693 23.6175 87.0863C25.9312 94.2588 34.4919 106.522 46.2919 116.471C58.0918 126.419 69.6604 128.502 74.5192 129.659C78.4063 130.584 81.229 129.582 82.1545 128.965C92.412 122.178 113.019 108.558 113.39 108.373C113.76 108.187 114.007 107.524 114.084 107.216C113.775 106.367 113.112 104.532 112.927 103.976C112.742 103.421 112.387 103.282 112.233 103.282C110.305 103.359 104.783 102.773 98.1191 99.8118C91.4556 96.8502 85.6251 93.0249 83.5427 91.4824C68.2722 78.5256 63.4134 67.4198 61.7938 64.8747Z" fill="white" stroke="black" stroke-width="0.828767"/>
<path d="M26.3945 87.7809C25.8392 86.8554 26.1631 85.5443 26.3945 85.0045C26.5684 84.5986 26.8436 84.3236 27.0719 84.0955L27.0884 84.0789L33.7982 79.6829L57.8608 63.4869C60.4522 62.5614 61.8713 64.4895 62.2569 65.5692C64.478 70.3818 69.9693 77.6006 72.4372 80.6084C74.2111 82.7679 78.8693 87.9197 83.3117 91.2515C88.8646 95.4162 95.5744 98.8867 100.896 100.969C105.153 102.635 110.228 103.206 112.233 103.283C112.788 103.468 112.464 103.977 112.233 104.208L102.516 111.149C95.6515 115.777 81.6921 125.171 80.7666 125.726C79.8411 126.281 78.9929 126.42 78.6845 126.42C73.9799 126.497 61.563 124.476 49.5317 115.777C34.4925 104.902 27.0886 88.9378 26.3945 87.7809Z" fill="white" stroke="black" stroke-width="0.828767"/>
<path d="M57.3958 79.2201C54.4342 78.8499 51.92 75.9809 50.9174 74.3613C50.9174 74.3613 50.4546 73.8986 49.5292 74.3613L48.1409 75.0554L39.3488 80.6083C38.6084 81.3487 39.3488 82.6136 39.8116 83.1534C40.2743 84.3103 41.2461 87.2718 41.4312 89.8632C41.6625 93.1024 38.6547 94.9534 37.4978 95.8789C36.5723 96.6193 36.8037 97.8841 37.0351 98.4239C38.886 102.126 49.0664 111.612 52.9997 114.389C56.933 117.165 64.3369 121.561 67.8075 122.255C71.2781 122.949 72.4349 121.098 75.9055 119.71C79.3761 118.322 83.7721 118.785 85.8545 118.785C87.5203 118.785 89.1708 118.013 89.7878 117.628C92.4871 115.777 98.0246 111.982 98.5799 111.612C99.1352 111.242 98.657 110.687 98.3485 110.455C97.5002 110.301 95.6646 109.715 95.1093 108.604C94.4152 107.216 97.423 105.365 98.3485 104.44C99.0889 103.699 98.657 103.051 98.3485 102.82L94.1838 100.969C83.6333 95.9714 75.4427 88.3978 72.6663 85.2358C70.8153 83.2305 66.9745 79.035 66.4193 78.2946C65.864 77.5542 64.4912 77.8319 63.8742 78.0633C62.9487 78.6031 60.3573 79.5903 57.3958 79.2201Z" fill="black" stroke="black" stroke-width="0.828767"/>
<path d="M56.4723 80.6076C53.5107 80.2374 50.9965 77.3684 49.9939 75.7488C49.9939 75.7488 49.5311 75.286 48.6056 75.7488L47.2174 76.4429L40.2762 81.0703C39.5358 81.8107 39.3507 82.6128 39.8135 83.1526C40.2762 84.3095 41.248 87.271 41.4331 89.8624C41.6645 93.1016 38.6566 94.9526 37.4998 95.8781C36.5743 96.6185 36.8057 97.8833 37.037 98.4231C38.888 102.125 49.0683 111.611 53.0017 114.388C56.935 117.164 64.3389 121.56 67.8094 122.254C71.28 122.949 72.4369 121.098 75.9074 119.709C79.378 118.321 83.7741 118.784 85.8564 118.784C87.5223 118.784 89.1727 118.013 89.7897 117.627C92.4891 115.776 96.407 113.138 96.9623 112.768C97.5176 112.398 97.2708 112.074 96.9623 111.843C96.1139 111.688 94.7794 110.943 94.6486 110.223C94.1858 107.678 96.0368 106.521 96.9623 105.596C97.7027 104.855 97.2708 104.439 96.9623 104.207L92.7976 102.356C82.247 97.3589 74.5192 89.7853 71.7428 86.6232C69.8918 84.618 66.051 80.4225 65.4957 79.6821C64.9405 78.9417 63.5677 79.2193 62.9507 79.4507C62.0252 79.9906 59.4338 80.9778 56.4723 80.6076Z" fill="white" stroke="black" stroke-width="0.828767"/>
<path d="M79.8412 96.3414C75.0287 91.899 68.4269 90.6342 65.7275 90.5571C63.645 90.4976 60.4221 90.5571 56.7041 92.6394C50.9199 95.8789 47.4483 105.596 54.6217 111.843C61.7414 118.043 73.5942 115.777 79.1471 112.075C84.7 108.373 85.8569 101.894 79.8412 96.3414Z" fill="black" stroke="black" stroke-width="0.828767"/>
<path d="M79.8417 96.3409C75.1561 91.9301 68.5875 90.6332 65.9594 90.5566C63.9318 90.4976 60.9557 90.3381 57.3357 92.4057C51.7042 95.6223 47.9546 104.473 55.3155 110.223C62.7196 116.008 74.1151 114.101 79.3783 110.223C83.7745 106.984 85.6986 101.854 79.8417 96.3409Z" fill="white" stroke="black" stroke-width="0.828767"/>
<path d="M26.3934 85.0039L23.8483 86.3921C23.6632 87.5027 23.7712 87.7804 23.8483 87.7804C26.3934 95.8784 36.5737 108.835 47.9109 117.859C56.9807 125.077 69.12 128.579 74.0559 129.427C76.8324 130.168 79.2232 129.89 80.0716 129.659L78.6834 126.419C73.9788 126.497 61.5619 124.476 49.5305 115.776C34.4914 104.902 27.0875 88.9372 26.3934 87.7804C25.8381 86.8549 26.162 85.5438 26.3934 85.0039Z" fill="white" stroke="black" stroke-width="0.828767"/>
<path d="M106.446 75.9799C100.486 64.8045 89.9415 64.3342 85.1598 65.5682C80.995 66.6429 77.7561 69.8099 76.3678 71.3524C71.2776 78.525 71.0744 84.7743 75.2109 91.9445C78.6814 97.9602 85.6225 101.199 90.9441 101.662C96.3119 101.477 100.045 99.117 101.587 97.9602C105.598 95.3379 111.999 86.3916 106.446 75.9799Z" fill="#EDAE5F" stroke="black" stroke-width="0.828767"/>
<path d="M105.712 74.5802C110.506 83.0712 108.76 92.6387 100.597 97.7452C92.9779 102.048 81.7388 96.572 78.1193 90.1616C72.6659 81.7642 74.9958 71.2591 82.6152 66.9564C90.2346 62.6538 100.917 66.0892 105.712 74.5802Z" fill="#FFDD33" stroke="black" stroke-width="0.828767"/>
<path d="M102.063 76.4221C105.455 82.4286 104.205 89.2048 98.4079 92.8299C92.9975 95.8851 85.0304 92.0208 82.47 87.4861C78.6108 81.5466 80.2758 74.1059 85.6862 71.0506C91.0966 67.9954 98.6708 70.4156 102.063 76.4221Z" fill="black" stroke="black" stroke-width="0.828767"/>
<path d="M100.757 77.5828C103.939 83.2174 102.82 89.5437 97.4653 92.8974C92.4654 95.7208 85.0529 92.0611 82.651 87.8072C79.0362 82.2324 80.5359 75.2874 85.5357 72.464C90.5355 69.6406 97.5751 71.9481 100.757 77.5828Z" fill="#FFDD33" stroke="black" stroke-width="0.828767"/>
<path d="M33.9231 42.8585C26.5652 37.6929 19.7369 40.7765 17.1045 43.0913C14.8118 45.1075 13.7763 48.1517 13.3918 49.5737C12.4685 55.7481 14.3439 59.7707 19.2628 62.9848C23.3896 65.6814 28.8239 65.5067 32.3422 64.0932C35.682 62.2547 37.2891 59.5631 37.8949 58.3359C39.5937 55.3892 40.7783 47.6712 33.9231 42.8585Z" fill="#DBDBDB" stroke="black" stroke-width="0.828767"/>
<path d="M33.01 42.2085C38.7693 46.0479 40.7316 52.6665 37.2 58.518C33.7547 63.6861 24.8814 63.8226 20.5336 60.9239C14.3874 57.3549 12.494 49.9554 15.9393 44.7873C19.3845 39.6192 27.2507 38.3691 33.01 42.2085Z" fill="#DBDBDB" stroke="black" stroke-width="0.828767"/>
<path d="M31.2885 44.5445C35.3626 47.2605 36.7441 51.9523 34.2357 56.1069C31.7893 59.7766 25.5049 59.8844 22.4293 57.8339C18.0808 55.3102 16.749 50.0644 19.1954 46.3946C21.6418 42.7248 27.2144 41.8285 31.2885 44.5445Z" fill="black" stroke="black" stroke-width="0.828767"/>
<path d="M30.8355 45.6989C34.6574 48.2467 35.9777 52.6116 33.6621 56.4526C31.4014 59.8439 25.5337 59.9034 22.6485 57.9798C18.5717 55.6088 17.2943 50.7299 19.555 47.3386C21.8158 43.9473 27.0136 43.1511 30.8355 45.6989Z" fill="#DBDBDB" stroke="black" stroke-width="0.828767"/>
<path d="M483.473 129.13L480.301 130.187L483.314 137.721L490.095 141.489L484.821 146.009V154.297L488.312 153.133C488.927 152.928 489.342 152.352 489.342 151.704V145.256L493.68 141.46C494.486 140.754 494.32 139.457 493.362 138.978L487.835 136.215L485.349 129.999C485.053 129.259 484.23 128.877 483.473 129.13Z" fill="#EDAE5F" stroke="black" stroke-width="0.376712" stroke-linejoin="round"/>
<path d="M475.026 133.954L470.506 136.214L475.78 135.461L477.287 133.954H475.026Z" fill="#EDAE5F" stroke="black" stroke-width="0.376712" stroke-linejoin="round"/>
<path d="M475.78 135.461L470.506 136.215L473.52 142.995L472.766 150.53L478.794 149.776L484.821 154.297V146.009L490.095 141.489L483.314 137.721L480.3 130.187L475.78 135.461Z" fill="#FFDD33" stroke="black" stroke-width="0.376712" stroke-linejoin="round"/>
<path d="M346.943 46.5571L342.422 44.2968L340.916 39.0228L336.395 43.5434H331.121L333.381 48.8173L331.121 54.8447L337.148 53.3379L341.669 56.3516L342.422 50.3242L346.943 46.5571Z" fill="#FFDD33" stroke="black" stroke-width="0.376712" stroke-linejoin="round"/>
<path d="M330.024 53.1977L331.122 54.8448L333.382 48.8174L331.122 43.5434H336.396L340.916 39.0228L338.73 38.4763C338.217 38.348 337.673 38.4984 337.299 38.8727L334.135 42.0365H328.861L331.122 48.0639L329.848 51.8853C329.701 52.3265 329.766 52.8108 330.024 53.1977Z" fill="#EDAE5F" stroke="black" stroke-width="0.376712" stroke-linejoin="round"/>
<path d="M417.013 231.899L423.04 240.187L432.081 252.995C435.095 257.516 439.615 256.049 442.629 253.749C452.172 246.466 472.314 230.995 476.533 227.379C480.3 224.15 480.3 220.836 478.04 218.338C473.268 213.064 462.972 201.612 459.958 197.995C456.944 194.379 453.679 195.986 452.424 197.242C441.625 205.529 419.424 222.708 417.013 225.118C414.602 227.529 416.008 230.644 417.013 231.899Z" fill="#DBDBDB" stroke="black" stroke-width="0.828767" stroke-linejoin="round"/>
<path d="M465.43 224L467.267 226.205C467.805 226.851 468.768 226.932 469.406 226.385L472.391 223.826C473.017 223.289 473.096 222.35 472.568 221.717L470.731 219.512C470.193 218.866 469.23 218.785 468.592 219.332L465.607 221.891C464.981 222.428 464.902 223.367 465.43 224Z" fill="white" stroke="black" stroke-width="0.828767" stroke-linejoin="round"/>
<path d="M421.763 228.56L422.973 230.011C423.498 230.642 424.431 230.736 425.072 230.223L426.485 229.093C427.144 228.565 427.242 227.6 426.702 226.951L425.492 225.5C424.967 224.87 424.034 224.775 423.393 225.288L421.98 226.419C421.321 226.946 421.223 227.912 421.763 228.56Z" fill="#BABABA" stroke="black" stroke-width="0.828767" stroke-linejoin="round"/>
<path d="M435.435 247.424L436.565 248.837C437.074 249.474 437.999 249.59 438.65 249.098L454.2 237.354C454.878 236.842 454.999 235.873 454.469 235.21L453.339 233.797C452.829 233.16 451.905 233.044 451.254 233.536L435.703 245.281C435.026 245.792 434.904 246.762 435.435 247.424Z" fill="white" stroke="black" stroke-width="0.828767" stroke-linejoin="round"/>
<path d="M439.333 44.8619L401.897 37.7986C400.249 37.3277 395.964 36.8097 392.009 38.5049C388.053 40.2001 385.652 45.8037 384.945 48.3936C376.234 74.2926 358.669 126.514 358.104 128.21C357.398 130.329 353.101 139.841 355.985 144.455C358.811 148.976 363.755 151.048 365.874 151.519L394.127 157.169C397.659 157.876 404.016 159.995 410.373 158.582C415.459 157.452 418.614 151.519 419.556 148.693L436.508 98.5434L449.222 61.1076C449.692 59.2241 450.21 54.7506 448.515 51.9253C446.82 49.0999 443.571 46.2745 439.333 44.8619Z" fill="#DBDBDB" stroke="black" stroke-width="0.828767" stroke-linejoin="round"/>
<path d="M444.279 62.5205C443.101 66.2876 440.606 74.2456 440.041 75.9408C439.475 77.636 439.335 78.7663 440.041 78.7662C441.454 79.4726 441.925 77.3536 442.16 76.6473L446.398 63.9332C446.634 62.7559 447.528 61.6729 446.398 61.1078C445.268 60.5427 444.72 61.1078 444.279 62.5205Z" fill="#BABABA" stroke="black" stroke-width="0.828767" stroke-linejoin="round"/>
<path d="M437.446 82.7125C436.269 86.4796 433.542 94.0228 432.977 95.718C432.412 97.4132 431.943 98.7329 432.977 99.2497C434.39 99.9561 434.861 97.1306 435.096 96.4243L439.565 84.1251C439.8 82.9478 440.564 81.5912 439.565 81.092C438.566 80.5927 437.887 81.2998 437.446 82.7125Z" fill="#BABABA" stroke="black" stroke-width="0.828767" stroke-linejoin="round"/>
<path d="M358.105 133.861C355.279 141.206 359.988 144.691 362.343 145.162C371.054 146.81 389.042 150.389 394.128 151.519C399.213 152.649 402.368 152.932 403.31 152.932C408.396 152.367 411.08 147.046 411.786 144.456L435.802 72.4095L441.452 56.1638C443.571 49.1004 439.333 47.6877 436.508 46.9814C435.063 46.6203 433.918 47.6877 433.683 48.3941C431.987 52.3496 429.209 52.3967 428.032 51.9258C420.262 50.5131 404.158 47.5465 401.898 46.9814C399.072 46.2751 399.779 44.1561 400.485 42.7434C401.05 41.6133 400.72 40.8598 400.485 40.6244C395.964 38.9292 394.205 40.0285 392.715 40.6244C389.183 42.0371 387.771 47.2168 387.064 49.1004L358.105 133.861Z" fill="#012965" stroke="black" stroke-width="0.828767" stroke-linejoin="round"/>
<rect width="12.4258" height="2.61596" transform="matrix(-0.98005 -0.198753 -0.291772 0.956488 411.596 75.4138)" fill="white"/>
<path d="M406.023 76.9412L403.46 76.4212L399.834 88.3064L401.635 91.3285L406.023 76.9412Z" fill="white"/>
<path d="M412.334 90.8413L409.007 92.8235L401.636 91.3287L399.836 88.3066L412.334 90.8413Z" fill="#F0F0F0" fill-opacity="0.941176"/>
<path d="M415.686 70.9286L417.486 73.9507L412.334 90.8401L409.007 92.8223L415.686 70.9286Z" fill="white"/>
<path d="M417.484 73.9525L415.684 70.9304L398.378 67.4209L395.051 69.4031L417.484 73.9525Z" fill="#F0F0F0" fill-opacity="0.941176"/>
<path d="M398.379 67.4189L395.052 69.4012L389.9 86.2906L391.7 89.3127L398.379 67.4189Z" fill="white"/>
<g clip-path="url(#clip0_2402_28016)">
<path d="M443.938 419.554C443.296 423.082 442.601 425.835 442.334 426.77C440.597 427.438 434.877 428.775 425.897 428.775C414.672 428.775 410.662 419.554 408.658 412.739C406.653 405.923 405.852 386.279 405.852 382.27C405.852 379.062 407.722 376.122 408.658 375.053C415.393 368.639 422.957 364.897 425.897 363.828C446.744 365.432 449.55 384.541 448.348 393.896C448.214 396.569 447.867 402.395 447.546 404.32C447.145 406.725 444.74 415.144 443.938 419.554Z" fill="#DBDBDB" stroke="black" stroke-width="0.801814"/>
<path d="M372.174 251.173C371.212 248.286 365.626 239.814 362.953 235.938C362.953 236.74 362.713 238.745 361.75 240.348C360.788 241.952 359.479 245.56 358.944 247.164C357.073 255.583 353.091 273.463 352.129 277.633C350.926 282.844 348.521 287.254 346.115 291.664C344.191 295.192 344.244 297.411 344.511 298.079V350.197L341.705 375.053C343.175 376.523 346.436 380.024 347.719 382.269C349.322 385.076 350.124 392.292 351.728 396.702C353.331 401.112 354.534 402.315 358.944 404.72C363.354 407.126 364.557 408.729 369.769 411.936C373.938 414.502 377.119 415.678 378.188 415.946C378.455 416.881 379.07 419.393 379.39 421.959C379.791 425.166 383.399 427.171 389.814 428.775C396.228 430.378 410.661 434.387 417.877 434.788C425.094 435.189 433.914 433.585 436.72 432.383C438.965 431.421 441.13 428.507 441.932 427.171C438.725 427.171 436.72 428.374 429.103 428.775C421.486 429.175 415.071 427.171 411.463 419.554C407.855 411.936 405.85 398.707 405.85 393.094C405.85 387.481 405.048 381.067 405.85 378.661C406.652 376.256 413.868 370.242 417.076 367.837C419.641 365.912 424.025 364.362 425.896 363.828L419.882 364.629C416.675 362.892 410.1 358.455 409.458 354.607C408.817 350.758 404.113 348.46 401.841 347.791L390.616 314.917L380.593 280.439C380.192 278.835 379.15 274.506 378.188 270.015C376.985 264.403 373.377 254.781 372.174 251.173Z" fill="white" stroke="black" stroke-width="0.801814"/>
<path d="M351.727 397.103C351.593 395.365 351.727 391.009 353.33 387.481C354.934 383.953 353.998 381.735 353.33 381.066" stroke="black" stroke-width="0.801814"/>
<path d="M362.551 372.648C364.555 370.643 371.611 365.512 383.799 361.021" stroke="black" stroke-width="0.801814"/>
<path d="M346.918 366.634C348.388 367.436 351.328 369.2 351.328 369.842C351.328 370.643 351.328 373.049 354.134 374.252C356.379 375.214 358.812 375.989 359.747 376.256" stroke="black" stroke-width="0.801814"/>
<path d="M365.758 371.044C367.762 371.712 372.092 373.369 373.375 374.652C374.979 376.256 378.988 379.864 383.398 380.666C387.808 381.468 389.411 376.657 392.218 376.657C395.024 376.657 398.231 386.278 399.835 386.278C401.439 386.278 403.844 377.859 406.65 377.058" stroke="black" stroke-width="0.801814"/>
<path d="M378.188 415.144C378.455 413.674 378.429 410.092 376.184 407.527C373.377 404.319 370.571 395.9 370.972 387.882C371.373 379.864 371.774 379.463 370.17 375.454" stroke="black" stroke-width="0.801814"/>
<path d="M359.343 344.985C352.929 344.023 346.782 345.921 344.51 346.99V337.368C345.312 342.179 352.127 339.773 357.339 341.778C361.508 343.381 368.698 345.386 371.771 346.188C370.301 346.188 365.758 345.947 359.343 344.985Z" fill="#DBDBDB" stroke="black" stroke-width="0.801814"/>
<path d="M349.724 353.805C346.196 353.805 344.78 352.201 344.512 351.4L342.508 368.639C344.913 367.169 351.167 363.507 356.94 360.621C362.714 357.734 371.908 354.34 375.783 353.003C372.977 353.404 354.134 353.805 349.724 353.805Z" fill="#DBDBDB" stroke="black" stroke-width="0.801814"/>
<path d="M387.811 351.8L400.64 353.003" stroke="black" stroke-width="0.801814"/>
<path d="M379.79 276.831C380.324 282.042 380.992 296.555 379.389 312.912" stroke="black" stroke-width="0.801814"/>
<path d="M398.233 349.395C396.094 349.261 390.696 348.994 386.205 348.994C380.593 348.994 364.957 350.197 360.547 350.197C356.137 350.197 350.124 348.994 361.349 348.593C372.575 348.192 372.975 348.994 378.588 348.593" stroke="black" stroke-width="0.801814"/>
<path d="M419.48 397.905C414.028 397.584 408.388 393.763 406.25 391.892C406.25 398.948 407.854 408.195 408.655 411.937C416.674 412.338 420.282 407.527 423.489 403.117C426.055 399.589 430.438 397.638 432.309 397.103C430.304 397.504 424.932 398.226 419.48 397.905Z" fill="#BABABA" stroke="black" stroke-width="0.801814"/>
<path d="M418.278 397.504C413.788 397.184 408.656 393.629 406.651 391.892C406.384 389.753 405.85 384.916 405.85 382.671C405.85 379.864 406.251 378.261 407.052 376.657C407.854 375.054 414.269 370.243 416.674 368.639C419.08 367.035 421.886 364.63 424.692 363.828C427.499 363.026 433.913 358.616 435.918 357.414C437.922 356.211 441.931 354.607 447.945 353.004C452.756 351.721 459.304 351.4 461.977 351.4L470.797 350.598C488.436 349.796 490.04 353.004 492.846 353.805C495.653 354.607 495.252 359.017 494.851 360.22C494.45 361.423 492.446 362.625 484.828 363.427C478.735 364.069 473.469 363.694 471.598 363.427C471.866 364.63 472.32 367.516 471.999 369.441C471.598 371.846 471.999 373.049 471.999 376.256C471.999 379.464 467.589 381.869 464.783 383.072C461.977 384.274 455.161 388.684 452.756 389.887C450.35 391.09 449.548 393.094 447.544 393.896C445.94 394.538 436.719 396.302 432.309 397.103C429.503 397.371 422.768 397.825 418.278 397.504Z" fill="#F0F0F0" stroke="black" stroke-width="0.801814"/>
<path d="M412.264 388.283C411.302 391.49 411.863 394.43 412.264 395.499C416.674 398.707 428.3 397.504 430.305 397.103C432.309 396.702 445.138 394.698 447.143 393.896C448.746 393.255 451.285 390.956 452.354 389.887C455.428 388.417 462.698 384.835 467.188 382.27C472.801 379.062 471.598 376.657 471.999 374.652C472.32 373.049 471.865 366.768 471.598 363.828C471.331 363.026 469.834 361.342 465.985 361.022C462.137 360.701 461.442 366.501 461.575 369.44C461.442 367.837 461.255 364.389 461.575 363.427C461.976 362.224 458.368 361.022 457.165 360.22C455.963 359.418 453.156 361.823 452.354 363.427C451.553 365.031 444.737 377.459 443.534 379.062C442.572 380.345 442.332 378.795 442.332 377.86C442.332 375.989 442.572 371.285 443.534 367.436C444.497 363.587 442.064 362.091 440.728 361.823C433.913 361.422 429.102 378.261 428.3 380.666C427.498 383.071 423.89 384.274 423.89 382.27C423.89 380.265 423.489 376.256 423.89 374.251C424.291 372.247 423.489 369.841 418.678 369.44C413.867 369.04 413.466 384.274 412.264 388.283Z" fill="#BABABA" stroke="black" stroke-width="0.801814"/>
<path d="M451.955 368.238C451.955 365.352 452.757 363.828 453.158 363.427C451.554 363.427 451.154 365.833 449.951 368.238C448.748 370.644 447.144 373.851 445.14 377.058C441.381 383.072 443.993 383.072 441.131 389.085C442.2 388.417 444.579 386.6 445.541 384.675C446.744 382.27 448.748 379.865 449.55 377.459C450.352 375.054 451.955 371.846 451.955 368.238Z" fill="black" stroke="black" stroke-width="0.801814"/>
<path d="M471.598 363.427C469.728 361.957 465.344 359.659 462.778 362.225C462.378 363.027 461.576 365.592 461.576 369.441C461.576 374.252 460.774 380.266 460.373 381.067" stroke="black" stroke-width="0.801814"/>
<path d="M414.669 361.423C410.527 360.22 400.798 357.574 395.025 356.612C389.252 355.65 386.74 355.142 386.205 355.008" stroke="black" stroke-width="0.801814"/>
<path d="M417.879 376.657C418.814 376.925 420.846 377.219 421.487 376.256" stroke="black" stroke-width="0.801814"/>
<path d="M437.523 370.644C437.657 370.911 438.405 371.285 440.33 370.644" stroke="black" stroke-width="0.801814"/>
<path d="M455.16 369.441C455.962 369.708 457.886 370.082 459.169 369.441" stroke="black" stroke-width="0.801814"/>
<path d="M464.381 370.243C465.183 370.51 467.348 370.884 469.593 370.243" stroke="black" stroke-width="0.801814"/>
<path d="M429.503 385.878C428.541 390.368 425.627 392.292 424.291 392.693C427.498 388.283 427.498 385.878 428.3 382.27C428.942 379.383 431.775 374.118 433.111 371.846C432.309 374.653 430.465 381.388 429.503 385.878Z" fill="black" stroke="black" stroke-width="0.801814"/>
<path d="M461.976 363.427C461.041 362.224 458.608 359.979 456.363 360.621C453.557 361.422 451.552 363.828 450.751 365.833C449.949 367.837 447.543 373.851 445.94 375.855C444.657 377.459 443.267 379.463 442.732 380.265" stroke="black" stroke-width="0.801814"/>
<path d="M442.333 377.86C442.333 375.722 442.493 370.964 443.135 369.04C443.937 366.634 444.738 361.823 440.729 361.823C436.72 361.823 434.315 365.031 433.513 367.035C432.711 369.04 430.306 375.855 429.103 377.86C428.141 379.463 427.9 381.201 427.9 381.869" stroke="black" stroke-width="0.801814"/>
<path d="M423.889 382.27C423.756 381.869 423.569 380.265 423.889 377.058C424.29 373.049 424.691 369.04 419.479 369.441C415.31 369.761 414 375.454 413.867 378.261L412.664 388.684" stroke="black" stroke-width="0.801814"/>
<path d="M55.4584 324.138C53.8548 327.987 51.0484 336.7 49.8457 340.575C47.6595 347.391 36.2148 377.86 36.2148 381.067C36.2148 384.274 37.4176 392.693 40.2239 397.103C43.0303 401.513 44.6339 411.937 44.6339 413.941C44.6339 415.545 45.4357 417.817 45.8366 418.752C52.2511 419.153 65.9622 419.875 69.4901 419.554C73.9001 419.153 78.711 415.144 84.3237 413.139C88.8139 411.536 92.8764 406.057 94.3464 403.518C95.95 404.159 96.8855 403.785 97.1527 403.518C99.3978 401.914 102.097 393.495 103.166 389.486L116.396 379.864C117.198 379.196 118.802 376.978 118.802 373.45C118.802 369.922 115.06 365.031 113.189 363.026C118 360.781 121.608 354.072 122.811 350.999L125.216 302.89C124.949 292.199 124.575 269.294 125.216 263.2C125.858 257.106 123.345 241.15 122.009 233.934L113.991 208.677C112.654 209.479 109.661 211.243 108.378 211.884C106.775 212.686 95.5491 225.114 90.7382 232.731C86.8895 238.825 77.9092 261.997 73.9001 272.822C68.4211 288.324 57.062 320.289 55.4584 324.138Z" fill="white" stroke="black" stroke-width="0.801814"/>
<path d="M59.4675 348.994C56.2602 348.352 48.2421 352.736 44.6339 355.007C41.8275 361.155 36.2148 374.973 36.2148 381.066C36.2148 388.684 38.2194 392.292 41.0257 397.905C43.8321 403.517 43.8321 409.531 44.6339 412.337C45.4357 415.144 57.4629 416.747 66.2829 413.54C75.1028 410.333 77.5083 400.711 77.9092 397.905C78.3101 395.098 80.3146 374.652 80.3146 370.643C80.3146 366.634 75.9047 360.62 73.4992 357.814C71.0938 355.007 67.8865 350.998 67.0847 350.597C66.2829 350.197 63.4765 349.796 59.4675 348.994Z" fill="#DBDBDB" stroke="black" stroke-width="0.801814"/>
<path d="M49.4479 391.891C48.8064 390.288 47.8443 385.076 47.4434 382.67C47.4434 356.05 56.7979 349.395 61.4751 349.395C63.0787 349.662 66.5265 350.277 67.4887 350.598C68.6914 350.999 77.9123 364.229 79.115 366.634C80.0772 368.558 80.3178 373.049 80.3178 375.053C79.7832 380.799 78.5538 393.415 77.9123 397.905C77.2709 402.395 74.4378 406.725 73.1014 408.328C63.8806 409.932 59.0697 402.716 57.0651 400.711C55.0606 398.707 50.2497 393.896 49.4479 391.891Z" fill="#BABABA" stroke="black" stroke-width="0.801814"/>
<path d="M113.994 363.827L101.967 355.007" stroke="black" stroke-width="0.801814"/>
<path d="M55.457 344.183C60.5352 344.851 68.8473 346.188 72.696 346.188C76.5447 346.188 81.6496 345.653 82.3178 345.386" stroke="black" stroke-width="0.801814"/>
<path d="M103.968 339.773C101.964 339.506 96.351 338.971 89.9364 338.971C83.5219 338.971 73.0983 339.773 63.4766 338.169" stroke="black" stroke-width="0.801814"/>
<path d="M115.593 347.792C120.404 348.112 122.141 349.261 122.408 349.796L123.21 342.58C122.676 342.58 121.126 342.9 119.201 344.183C117.277 345.466 109.312 344.718 105.57 344.183C106.907 345.252 110.782 347.471 115.593 347.792Z" fill="#DBDBDB" stroke="black" stroke-width="0.801814"/>
<path d="M122.812 338.17C121.476 336.967 118.082 333.599 115.195 329.751C111.587 324.94 107.578 318.525 104.771 315.719" stroke="black" stroke-width="0.801814"/>
<path d="M87.5332 345.787C90.2059 346.188 96.5937 347.39 100.763 348.994C105.975 350.999 109.984 353.805 115.597 353.805" stroke="black" stroke-width="0.801814"/>
<path d="M124.816 314.516C123.079 306.498 119.203 289.419 117.6 285.25" stroke="black" stroke-width="0.801814"/>
<path d="M116.396 280.439C112.12 270.951 103.327 251.654 102.365 250.371C101.162 248.767 106.775 263.943 110.784 270.416" stroke="black" stroke-width="0.801814"/>
<path d="M115.595 266.407C115.061 259.191 114.072 243.796 114.393 239.947" stroke="black" stroke-width="0.801814"/>
<path d="M116.394 284.047C113.721 282.176 107.975 277.232 106.371 272.421" stroke="black" stroke-width="0.801814"/>
<path d="M94.75 275.628C98.2245 279.236 105.655 287.094 107.579 289.66C109.984 292.867 113.593 298.881 116.399 301.286" stroke="black" stroke-width="0.801814"/>
<path d="M20.579 343.782C21.5412 344.745 22.8508 348.46 23.3854 350.197C23.3854 350.598 23.3052 351.48 22.9844 351.8C22.5835 352.201 20.579 357.814 19.7772 359.017C18.9753 360.22 17.3718 363.828 18.1735 367.035C18.9753 370.242 28.998 375.855 32.2053 377.058C35.4126 378.26 34.6107 379.864 36.2144 380.666C37.4973 381.307 40.4907 381.735 41.8271 381.869C48.9098 382.67 64.0373 384.194 67.886 383.873C72.6969 383.472 76.3051 379.062 78.7105 377.058C81.116 375.053 79.5123 368.639 78.3096 365.431C77.1069 362.224 72.296 357.012 68.2869 354.206C64.2779 351.4 62.2733 349.796 60.2688 348.593C58.2643 347.39 57.4624 346.589 54.2552 343.782C51.0479 340.976 42.6289 336.566 38.2189 335.363C33.8089 334.161 28.1962 332.557 23.7862 329.35C19.3763 326.143 10.1554 325.341 8.15091 325.742C6.14637 326.143 2.1373 329.35 4.54274 332.557C6.4671 335.123 13.8972 339.506 17.3718 341.377C18.0399 341.778 19.6168 342.82 20.579 343.782Z" fill="#F0F0F0" stroke="black" stroke-width="0.801814"/>
<path d="M29.3997 349.796C28.4376 349.154 25.257 350.063 23.787 350.598C21.7825 352.602 21.7825 355.409 19.778 359.017C18.1743 361.904 17.7734 365.298 17.7734 366.634C19.0563 370.804 28.9988 375.588 33.8097 377.459C34.077 378.127 34.9323 379.704 36.2152 380.666C37.4981 381.628 44.2333 382.403 47.4406 382.671C54.7905 383.071 69.8914 383.633 71.495 382.671C73.4995 381.468 74.3014 376.256 74.3014 375.053C74.3014 374.091 74.8359 369.841 75.1032 367.837C76.0386 365.432 76.7068 360.3 71.8959 359.017C65.8823 357.413 65.8823 365.031 65.0805 367.837C64.439 370.082 61.8732 370.911 60.6705 371.044C59.8687 370.911 58.3452 370.323 58.666 369.04C59.0669 367.436 57.8642 362.224 57.8642 360.621C57.8642 359.017 57.4633 355.409 56.2605 353.805C55.0578 352.202 51.0487 351.801 49.4451 353.003C47.8415 354.206 48.2424 359.017 47.8415 361.422C47.4406 363.828 46.2379 365.432 45.436 368.238C44.7946 370.483 45.1688 373.182 45.436 374.251L45.0351 373.049C44.7679 370.911 44.2333 366.394 44.2333 365.432V356.211C44.6342 354.874 44.554 351.961 41.0261 350.999C36.6161 349.796 35.0124 353.003 34.6115 355.409C34.2106 357.814 34.6115 361.823 34.2106 365.031C33.8899 367.596 32.7406 368.505 32.2061 368.639C31.9388 367.57 31.4043 365.111 31.4043 363.828C31.4043 362.224 32.607 355.81 32.607 353.805C32.607 351.801 30.6025 350.598 29.3997 349.796Z" fill="#BABABA" stroke="black" stroke-width="0.801814"/>
<path d="M8.15217 330.553C5.26564 329.591 4.27674 330.419 4.1431 330.954C3.34129 333.76 12.1612 338.571 14.9676 339.774C17.2127 340.736 20.1794 343.114 21.3821 344.183L23.7876 350.598C24.429 349.636 27.7966 349.663 29.4003 349.796C30.603 348.326 32.1264 344.905 28.5984 342.981C24.1885 340.575 26.193 338.17 21.783 335.364C17.373 332.557 11.7603 331.755 8.15217 330.553Z" fill="#BABABA" stroke="black" stroke-width="0.801814"/>
<path d="M33.8074 343.782C33.4065 344.317 32.1236 345.065 30.1992 343.782" stroke="black" stroke-width="0.801814"/>
<path d="M31.002 346.188C31.9374 346.188 34.2894 346.749 36.2137 348.994" stroke="black" stroke-width="0.801814"/>
<path d="M24.1855 358.215C24.8537 358.616 26.6712 359.258 28.5955 358.616" stroke="black" stroke-width="0.801814"/>
<path d="M37.0156 359.819C37.5502 360.086 39.1003 360.46 41.0247 359.819" stroke="black" stroke-width="0.801814"/>
<path d="M50.248 361.422C50.7826 361.556 52.4129 361.743 54.658 361.422" stroke="black" stroke-width="0.801814"/>
<path d="M67.8848 366.634C68.152 366.901 69.2479 367.356 71.4929 367.035" stroke="black" stroke-width="0.801814"/>
<path d="M58.6641 369.44C58.7977 371.178 59.3055 375.053 60.2677 376.657" stroke="black" stroke-width="0.801814"/>
<path d="M31.0033 369.039C30.8696 367.837 30.6825 365.11 31.0033 363.828" stroke="black" stroke-width="0.801814"/>
<path d="M304.02 199.456L270.745 183.821C232.579 208.837 200.052 190.235 188.559 177.807L169.315 185.424L113.99 208.677C114.658 211.216 116.877 218.78 120.405 228.722C123.933 238.665 125.082 256.919 125.216 264.804V288.858L124.013 336.165L117.999 402.315L113.99 425.969L101.963 524.993L93.5439 589.138L88.733 638.049L74.3004 781.974L68.2868 876.989L61.8722 984.031L59.4668 1015.7C65.2131 1016.37 77.4274 1017.95 80.314 1018.91C83.2005 1019.87 84.7239 1018.51 85.1249 1017.71L88.733 1014.5C97.1521 1010.89 107.576 1014.9 111.585 1015.7C115.594 1016.5 124.414 1022.52 128.824 1022.52C133.234 1022.52 137.243 1023.72 141.252 1027.33C144.459 1030.22 148.201 1031.74 149.671 1032.14C166.349 1035.35 196.978 1034.55 210.208 1033.74C218.36 1032.54 238.111 1029.73 251.902 1028.13C269.141 1026.13 283.975 1036.15 291.993 1038.96C300.011 1041.76 309.232 1041.36 313.642 1040.16C317.17 1039.2 320.725 1038.96 322.061 1038.96C328.476 1040.24 332.217 1038.42 333.286 1037.35L332.485 1012.09L348.922 1001.67C349.189 1001.4 350.766 1000.79 354.935 1000.47C360.147 1000.07 365.359 1002.87 367.364 1003.68C368.967 1004.32 373.644 1006.08 375.783 1006.88C374.313 1001.94 371.373 991.488 371.373 989.243V970.802C371.373 968.236 368.7 945.411 367.364 934.319L365.359 871.377L362.152 722.239L359.345 610.386L351.327 524.993C346.917 487.441 338.097 411.215 338.097 406.725C338.097 402.235 341.037 379.731 342.507 369.04L344.512 350.197C344.378 333.626 344.191 299.603 344.512 296.075C344.913 291.665 349.724 286.052 351.327 280.038C352.931 274.025 357.341 251.173 359.345 245.16C361.35 239.146 363.354 238.745 362.954 235.538C362.553 232.331 351.327 218.7 349.724 217.497C348.441 216.535 332.351 210.147 324.466 207.073L304.02 199.456Z" fill="white" stroke="black" stroke-width="0.801814"/>
<path d="M254.707 306.098V283.647C280.686 281.081 313.106 283.647 326.069 285.25L325.668 309.706L323.663 360.22L311.235 368.238C299.047 366.314 274.886 366.1 264.329 366.234L254.707 357.013V306.098Z" fill="white" stroke="black" stroke-width="0.801814"/>
<path d="M254.707 306.899H259.117" stroke="black" stroke-width="0.801814"/>
<path d="M266.734 306.899L325.668 308.904" stroke="black" stroke-width="0.801814"/>
<path d="M223.036 205.871L220.63 264.804L219.428 331.355V446.415L231.856 456.839L244.685 446.415V340.976L247.491 216.294L247.892 205.871" stroke="black" stroke-width="0.801814"/>
<path d="M161.292 121.68C159.047 113.02 157.951 101.768 157.684 97.2246C158.646 91.7722 162.094 88.5383 163.697 87.6028L186.95 75.1747L188.553 90.8101L195.77 152.951V158.964L188.553 177.406L170.112 185.424L159.287 169.388C168.909 164.176 164.098 132.504 161.292 121.68Z" fill="#DBDBDB" stroke="black" stroke-width="0.801814"/>
<path d="M183.341 156.158C182.058 169.629 179.065 179.143 177.729 182.217L188.954 177.406L195.769 160.568V152.951C194.968 151.08 193.204 146.857 192.562 144.933C191.76 142.527 189.355 130.099 189.355 126.892C189.355 123.685 188.954 114.865 189.355 106.045C189.676 98.9887 187.618 92.4139 186.548 90.0084L183.341 95.6211V120.477C183.876 126.758 184.624 142.688 183.341 156.158Z" fill="#BABABA"/>
<path d="M165.702 90.0088C159.929 90.6503 157.684 95.4879 157.684 97.6261C157.684 88.8061 168.909 87.2025 175.324 83.9952C180.455 81.4294 184.945 77.3134 186.549 75.5762C184.625 77.8213 186.549 89.8752 187.752 95.6215C186.95 95.087 185.266 94.0179 184.945 94.0179C184.625 94.0179 184.01 96.1561 183.743 97.2252C183.743 96.1561 183.422 93.2161 182.139 90.0088C180.856 86.8016 175.457 91.3452 172.918 94.0179L176.125 87.2025C175.056 87.8707 171.475 89.3674 165.702 90.0088Z" fill="#BABABA"/>
<path d="M186.948 75.9768C183.874 78.115 176.444 85.2779 171.312 96.824" stroke="black" stroke-width="0.801814"/>
<path d="M302.011 127.293C293.993 120.879 288.647 120.611 285.975 120.478C280.201 121.119 271.007 145.334 267.132 157.361L266.33 167.785L270.74 183.42L304.015 199.456L324.462 207.074C320.319 196.917 312.033 178.609 309.628 165.379C306.897 150.359 310.029 133.708 302.011 127.293Z" fill="#DBDBDB" stroke="black" stroke-width="0.801814"/>
<path d="M269.939 166.181C270.259 174.52 275.952 183.954 278.358 187.028L270.741 183.821L265.93 168.987C265.93 165.646 266.731 156.72 269.939 147.739C273.146 138.759 279.828 126.09 282.768 120.878C283.57 127.293 285.414 141.645 286.376 147.739C287.579 155.356 303.214 191.037 300.007 193.443C296.8 195.848 286.777 172.996 281.966 164.176C277.155 155.356 275.15 142.527 273.547 144.131C271.943 145.735 269.538 155.757 269.939 166.181Z" fill="#BABABA"/>
<path d="M316.043 198.654L309.629 165.78" stroke="black" stroke-width="0.801814"/>
<path d="M302.011 127.694C300.729 125.77 294.528 122.349 291.588 120.879C293.592 121.279 295.196 119.275 297.201 118.874C299.205 118.473 300.007 120.077 300.408 122.482C300.729 124.407 301.611 126.759 302.011 127.694Z" fill="#BABABA" stroke="black" stroke-width="0.801814"/>
<path d="M285.575 119.676C285.895 120.959 289.985 121.012 291.989 120.878C289.744 120.878 288.381 118.74 287.98 117.671L283.971 98.4276L283.169 94.0176L281.565 91.6122L280.764 101.234C281.726 99.6303 283.303 99.2294 283.971 99.2294L284.773 102.437C284.906 107.648 285.254 118.393 285.575 119.676Z" fill="black" stroke="black" stroke-width="0.801814"/>
<path d="M287.981 117.671L282.77 93.6167C285.175 98.8285 293.594 105.243 300.009 108.049C306.423 110.856 306.423 118.874 305.621 120.477C304.98 121.76 302.949 125.556 302.013 127.293C299.608 125.689 301.211 122.482 299.207 120.077C297.202 117.671 295.599 120.077 292.391 120.477C289.825 120.798 288.382 118.74 287.981 117.671Z" fill="#DBDBDB" stroke="black" stroke-width="0.801814"/>
<path d="M195.768 160.969V150.946C217.577 173.076 252.429 163.641 267.129 156.158L266.327 167.784C265.525 169.521 263.2 173.637 260.314 176.203C257.427 178.769 244.946 182.885 239.066 184.622L225.435 183.419C203.625 178.609 196.569 166.448 195.768 160.969Z" fill="#F0F0F0" stroke="black" stroke-width="0.801814"/>
<path d="M225.839 183.82C204.671 179.651 196.706 166.581 195.37 160.568L188.955 177.406C189.276 193.763 212.074 201.861 223.433 203.866L239.469 204.267L239.068 184.622L225.839 183.82Z" fill="white" stroke="black" stroke-width="0.801814"/>
<path d="M223.831 185.825L223.029 205.87L239.867 204.668C261.677 201.46 269.267 189.7 270.336 184.221L266.327 168.185C265.258 170.19 262.398 174.76 259.512 177.005C256.625 179.25 244.946 183.286 239.466 185.023L223.831 185.825Z" fill="white" stroke="black" stroke-width="0.801814"/>
<path d="M233.057 37.489C184.307 42.6206 182.543 78.1143 187.755 95.2197C189.221 100.031 189.359 104.842 189.359 108.049C189.359 111.256 187.755 115.666 190.561 135.31C193.368 154.955 209.003 179.41 229.449 178.608C249.896 177.807 258.315 165.379 267.535 156.158C276.756 146.937 278.761 124.085 278.761 121.279C278.761 119.034 279.295 109.92 279.563 105.643C284.374 80.787 281.808 32.3574 233.057 37.489Z" fill="#F0F0F0" stroke="black" stroke-width="0.801814"/>
<path d="M194.168 128.495C190.64 122.722 189.49 112.459 189.357 108.049C188.154 127.292 190.96 140.923 194.569 150.144C197.455 157.521 205.928 166.849 209.803 170.59C209.402 167.383 208.039 158.804 205.794 150.144C202.988 139.32 198.578 135.712 194.168 128.495Z" fill="black" stroke="black" stroke-width="0.801814"/>
<path d="M271.542 132.504C276.994 127.373 279.159 117.003 279.56 112.459C279.293 117.003 278.678 126.892 278.358 130.099C277.957 134.108 272.745 149.343 267.934 155.757C264.085 160.889 254.036 169.121 249.492 172.595C250.428 169.254 252.86 160.648 255.105 152.951C257.911 143.329 264.727 138.919 271.542 132.504Z" fill="black" stroke="black" stroke-width="0.801814"/>
<path d="M235.459 70.7644C235.977 70.6185 236.593 70.4751 237.291 70.3452C264.914 64.464 278.294 81.6639 281.563 91.2106L280.761 101.634C279.158 89.607 271.541 80.787 259.914 73.9716C251.741 69.1804 242.35 69.4043 237.291 70.3452C236.687 70.4738 236.077 70.6134 235.459 70.7644Z" fill="#BABABA"/>
<path d="M270.339 81.589C268.735 79.6646 268.067 76.5108 267.934 75.1744C275.31 78.3817 279.827 86.9344 281.164 90.8098L283.168 93.6162L283.569 98.828L281.164 100.432C280.201 101.073 279.56 108.851 279.56 112.058C279.56 107.247 277.475 96.3423 277.154 92.8144C276.754 88.4044 272.344 83.9944 270.339 81.589Z" fill="black" stroke="black" stroke-width="0.801814"/>
<path d="M192.563 81.5889C190.318 85.4377 189.222 91.7453 188.955 94.418V98.0261L187.752 93.6162C187.752 92.0125 188.474 87.2818 191.36 81.188C194.247 75.0943 198.977 70.6308 200.982 69.1608L208.853 68.4112C209.036 68.3879 209.219 68.3704 209.401 68.359L208.853 68.4112C202.558 69.2121 195.29 76.9145 192.563 81.5889Z" fill="black" stroke="black" stroke-width="0.801814"/>
<path d="M192.164 90.8098C191.844 93.0548 190.427 100.298 189.759 103.639L188.957 95.6206C189.091 95.2197 189.679 92.7341 190.962 85.9989C192.244 79.2636 196.842 75.4416 198.98 74.3726C192.565 79.5844 192.565 88.0034 192.164 90.8098Z" fill="black" stroke="black" stroke-width="0.801814"/>
<path d="M195.369 70.3637C192.483 71.0052 188.019 74.6401 186.148 76.3773C185.507 80.2261 186.683 88.4046 187.351 92.0127C189.596 79.8251 197.908 71.7001 201.784 69.161C200.848 69.2946 198.256 69.7223 195.369 70.3637Z" fill="white" stroke="black" stroke-width="0.801814"/>
<path d="M184.145 126.09C184.787 127.693 188.154 129.431 189.758 130.099C188.956 128.094 188.956 112.86 189.357 108.45C189.678 104.922 188.689 98.6945 188.154 96.0218C186.951 95.0864 184.466 93.5362 184.145 94.8191C183.825 96.102 184.012 104.708 184.145 108.851C183.878 113.929 183.504 124.486 184.145 126.09Z" fill="#F0F0F0" stroke="black" stroke-width="0.801814"/>
<path d="M186.55 104.441C186.99 105.688 185.347 107.916 184.545 108.851L184.145 98.0266C185.748 97.6256 188.154 100.432 188.154 102.837C188.154 105.243 184.145 97.6255 186.55 104.441Z" fill="white" stroke="black" stroke-width="0.801814"/>
<path d="M185.749 123.283C185.428 125.849 185.882 127.56 186.149 128.094C184.225 127.453 183.744 125.689 183.744 124.887V114.864C183.744 115.265 186.149 120.076 185.749 123.283Z" fill="white" stroke="black" stroke-width="0.801814"/>
<path d="M283.97 128.896C283.008 133.707 279.025 135.177 277.154 135.311L278.357 126.892C278.892 119.141 280.041 103.238 280.362 101.634C280.682 100.031 282.901 99.3626 283.97 99.229C284.772 102.837 286.295 110.454 285.974 112.058C285.573 114.063 285.172 122.883 283.97 128.896Z" fill="#F0F0F0" stroke="black" stroke-width="0.801814"/>
<path d="M281.566 109.252C280.925 108.29 283.17 104.575 284.372 102.837L285.43 115.179C285.523 115.694 285.575 116.256 285.575 116.869L285.43 115.179C284.796 111.656 282.266 110.301 281.566 109.252Z" fill="white" stroke="black" stroke-width="0.801814"/>
<path d="M278.762 121.279C279.824 120.148 282.158 117.115 281.394 115.635C280.629 114.155 280.472 113.569 280.365 113.261" stroke="black" stroke-width="0.801814"/>
<path d="M188.934 120.076C187.871 118.945 185.537 115.913 186.302 114.433C187.067 112.952 187.224 112.366 187.33 112.058" stroke="black" stroke-width="0.801814"/>
<path d="M209.804 170.591L209.002 150.545C210.606 154.822 211.407 164.176 219.426 164.176C223.961 164.176 224.236 160.701 223.836 158.563C227.043 157.922 232.655 158.296 235.061 158.563C233.457 161.37 234.66 165.379 240.273 165.379C245.885 165.379 250.162 157.361 252.3 153.752L249.494 172.996C247.249 175.241 234.66 177.673 228.646 178.609C216.459 177.646 211.006 172.862 209.804 170.591Z" fill="black" stroke="black" stroke-width="0.801814"/>
<path d="M238.266 128.094C236.663 127.774 233.589 128.495 232.253 128.896C231.718 129.03 230.248 129.056 228.644 128.094C227.041 127.132 225.571 127.159 225.036 127.292C224.368 127.56 222.47 128.816 218.622 130.099C213.811 131.702 211.806 130.5 208.599 131.702C205.392 132.905 206.194 136.112 206.595 138.117C206.915 139.72 207.797 146.536 208.198 149.743L209 136.914L229.847 138.117H233.455C235.593 138.117 240.431 138.197 242.676 138.518C244.921 138.838 250.828 138.919 253.501 138.919L252.699 151.748C253.367 148.808 255.218 142.987 255.505 142.126C256.708 138.518 257.109 136.112 256.307 135.311C255.505 134.509 252.699 134.509 248.69 133.707C244.681 132.905 240.271 128.495 238.266 128.094Z" fill="black" stroke="black" stroke-width="0.801814"/>
<path d="M231.05 151.347C227.522 151.026 221.829 152.015 219.424 152.549C220.707 157.04 225.838 159.766 228.244 160.568C234.658 159.285 238.133 155.757 239.068 154.153C237.866 153.351 234.578 151.667 231.05 151.347Z" fill="black" stroke="black" stroke-width="0.801814"/>
<path d="M217.418 146.536C218.621 147.739 221.248 149.788 225.035 150.545C229.044 151.347 235.058 151.748 238.666 150.545C240.86 149.814 243.611 147.605 244.68 146.536" stroke="black" stroke-width="0.801814"/>
<path d="M221.028 138.518C218.141 137.877 212.208 137.984 210.203 138.117C211.005 138.518 213.41 138.919 216.618 140.923C220.467 143.329 225.438 145.333 233.055 145.333C241.474 145.333 244.681 142.527 247.487 141.324C249.918 140.282 251.497 139.721 251.897 139.32C249.492 139.32 244.28 140.122 238.668 140.523C233.055 140.923 224.636 139.32 221.028 138.518Z" fill="black" stroke="black" stroke-width="0.801814"/>
<path d="M217.819 141.324C216.536 140.362 215.948 138.785 215.814 138.117C216.349 138.117 217.819 138.117 220.224 138.518C221.806 138.781 229.846 140.522 233.454 140.522C236.341 140.522 242.408 140.255 245.081 140.121C244.813 140.923 244.118 142.607 243.477 142.928C242.675 143.329 239.869 144.531 232.653 144.932C225.436 145.333 219.423 142.527 217.819 141.324Z" fill="white" stroke="black" stroke-width="0.801814"/>
<path d="M222.23 123.685C223.567 123.417 226.159 122.883 227.442 124.486C229.046 126.491 229.634 127.693 231.852 127.694C234.07 127.694 235.059 124.887 237.465 124.486C239.87 124.086 240.672 124.887 241.073 125.689" stroke="black" stroke-width="0.801814"/>
<path d="M227.042 124.486C226.24 123.952 224.316 123.043 223.033 123.684C221.75 124.326 225.171 124.486 227.042 124.486Z" fill="white" stroke="black" stroke-width="0.801814"/>
<path d="M236.264 125.689C236.665 124.887 240.674 124.326 240.674 125.288C240.674 126.25 237.734 126.09 236.264 125.689Z" fill="white" stroke="black" stroke-width="0.801814"/>
<path d="M229.047 94.8187C229.582 96.0214 230.651 98.9882 230.651 101.233C230.651 103.478 228.245 113.26 227.443 118.071" stroke="black" stroke-width="0.801814"/>
<path d="M227.442 86.8007L226.239 91.6116C220.894 90.1416 209.161 87.2819 204.991 87.6026C200.822 87.9234 198.978 92.5472 198.577 94.819C197.775 91.6117 201.784 83.9946 207.397 83.1927C211.887 82.5513 220.894 83.9943 224.636 85.1971L225.838 88.0034L227.442 86.8007Z" fill="black" stroke="black" stroke-width="0.801814"/>
<path d="M240.272 85.9991C240.272 87.6027 240.139 89.4735 240.272 90.8098C246.286 90.4089 258.473 90.008 262.322 90.008C266.171 90.008 268.469 95.888 269.138 98.828C269.138 96.6898 268.576 91.772 266.331 89.2062C263.525 85.9989 257.511 85.1973 252.299 84.7964C248.13 84.4756 245.751 84.6627 245.083 84.7964L244.281 88.0036L242.277 84.7964V88.8054L240.272 85.9991Z" fill="black" stroke="black" stroke-width="0.801814"/>
<path d="M242.676 101.233C244.012 99.4962 248.689 96.4226 252.698 96.8235C257.884 97.3422 260.85 100.031 261.118 101.233" stroke="black" stroke-width="0.801814"/>
<path d="M223.834 100.432C222.497 98.6945 218.702 95.22 214.212 95.22C209.722 95.22 206.728 97.6254 205.793 98.8281" stroke="black" stroke-width="0.801814"/>
<circle cx="215.016" cy="98.4272" r="3.20726" fill="black" stroke="black" stroke-width="0.801814"/>
<circle cx="252.699" cy="100.031" r="3.20726" fill="black" stroke="black" stroke-width="0.801814"/>
<circle cx="216.216" cy="97.2247" r="1.20272" fill="white" stroke="black" stroke-width="0.801814"/>
<circle cx="253.902" cy="98.828" r="1.20272" fill="white" stroke="black" stroke-width="0.801814"/>
<path d="M235.062 31.0753C211.008 31.0753 198.446 44.038 194.57 50.7198L277.157 53.1252C277.478 51.5216 275.687 49.7843 274.752 49.1161C263.206 35.0042 243.08 31.3426 235.062 31.0753Z" fill="#DBDBDB" stroke="black" stroke-width="0.801814"/>
<path d="M245.485 59.5397C233.858 59.9406 183.344 57.1343 183.344 57.1343C180.778 63.2281 185.749 65.5533 188.556 65.9542L227.845 67.9588L236.264 68.3597C251.498 69.1615 282.368 70.7651 283.972 70.7651C285.976 70.7651 290.787 68.3597 291.589 64.3506C292.23 61.1433 288.382 58.7379 286.377 57.9361C282.849 58.5775 257.111 59.1388 245.485 59.5397Z" fill="black" stroke="#BABABA" stroke-width="0.801814"/>
<path d="M186.954 51.1204C183.426 51.4411 183.079 54.9958 183.346 56.7331L220.23 59.1385C229.718 59.6731 252.462 60.662 267.537 60.3412C282.611 60.0205 286.112 58.3367 285.978 57.5349C285.978 51.4411 278.227 49.3831 274.352 49.1158C276.597 50.3987 277.158 52.3231 277.158 53.1249C273.016 52.9913 263.367 52.6438 257.915 52.3231C252.462 52.0024 232.658 51.1204 223.437 50.7195C212.746 50.7195 190.482 50.7997 186.954 51.1204Z" fill="black" stroke="#BABABA" stroke-width="0.801814"/>
<path d="M231.052 72.7697L227.443 67.9589L235.862 68.3598L231.052 72.7697Z" fill="#BABABA" stroke="black" stroke-width="0.801814"/>
<path d="M193.769 51.5215C214.295 49.9178 227.712 65.0187 231.855 72.7696L231.053 74.7741L229.85 74.7741C229.048 71.5669 225.039 68.7604 221.431 67.9586C217.823 67.1568 205.796 68.7604 200.183 69.5623C194.57 70.3641 191.764 71.5668 187.755 74.7741C183.746 77.9814 175.728 85.1976 164.502 88.8058C159.723 90.342 158.355 95.6212 158.088 97.6258C158.088 91.532 159.424 88.1376 160.092 87.2022C163.433 82.5249 171.238 72.2884 175.728 68.7604C181.341 64.3505 177.732 61.5441 181.341 56.7332C184.227 52.8845 190.829 51.6551 193.769 51.5215Z" fill="#DBDBDB" stroke="black" stroke-width="0.801814"/>
<path d="M230.248 71.166L231.451 73.9724C234.658 68.3597 244.681 68.7606 253.501 69.9633C266.633 71.7541 276.753 79.986 281.163 90.8105C285.573 101.635 302.411 108.049 304.817 112.059C306.741 115.266 305.886 119.275 305.218 120.878C306.02 119.409 307.543 115.667 307.222 112.459C306.821 108.45 301.61 100.833 296.398 90.0086C292.228 81.349 290.919 70.8987 290.785 66.756C287.711 63.5488 278.036 57.2946 263.924 57.9361C249.812 58.5775 235.593 67.0233 230.248 71.166Z" fill="#DBDBDB" stroke="black" stroke-width="0.801814"/>
<path d="M177.734 197.05L158.892 169.388C153.546 172.194 142.374 177.967 140.45 178.609C138.526 179.25 138.846 181.816 139.247 183.019C135.719 185.264 121.207 190.101 114.391 192.24C109.58 195.447 108.11 205.069 107.977 209.479L122.008 247.164L126.418 269.214C126.552 275.227 127.14 288.137 128.423 291.665C129.706 295.193 132.966 304.36 134.436 308.503L145.261 339.773C146.998 344.451 150.633 354.848 151.275 359.017C152.076 364.229 154.482 367.436 154.482 369.441C154.482 371.044 155.284 380.265 155.685 384.675H160.095C164.104 373.182 173.244 347.31 177.734 335.764C182.225 324.218 182.011 308.503 181.343 302.088L180.541 243.957L177.734 197.05Z" fill="#F0F0F0" stroke="black" stroke-width="0.801814"/>
<path d="M139.648 178.609C138.686 178.929 139.248 181.682 139.648 183.019L150.072 209.078C157.556 229.791 173.004 273.062 174.928 280.439C176.853 287.816 180.274 303.291 181.744 310.106L178.136 197.05L159.293 169.388C153.146 172.328 140.611 178.288 139.648 178.609Z" fill="#F0F0F0" stroke="black" stroke-width="0.801814"/>
<path d="M162.1 351.801C157.61 355.329 153.013 357.28 151.275 357.814L151.676 359.819C158.091 357.814 164.906 351.801 166.51 350.598C167.793 349.636 172.924 344.852 175.33 342.58L175.731 339.372C173.058 342.045 166.59 348.273 162.1 351.801Z" fill="#DBDBDB"/>
<path d="M145.662 340.976L146.464 342.981C149.03 342.339 157.689 336.299 161.698 333.359L172.523 325.341L172.122 323.336C170.117 324.673 165.066 328.147 160.897 331.354C156.727 334.562 149.003 339.105 145.662 340.976Z" fill="#DBDBDB"/>
<path d="M113.188 193.042L111.584 195.447C118.8 199.055 120.805 202.262 125.616 207.073C129.464 210.922 136.574 219.635 139.647 223.511L152.877 243.155L154.882 242.353C150.873 236.206 142.454 223.43 140.85 221.506L134.837 214.29C131.362 210.548 123.932 202.503 122.008 200.258C120.083 198.013 115.326 194.512 113.188 193.042Z" fill="#DBDBDB"/>
<path d="M120.805 217.497C115.032 211.082 110.114 209.478 108.377 209.478L109.179 211.884C110.782 212.017 115.112 213.568 119.602 218.699C124.093 223.831 134.57 240.883 139.247 248.767L141.251 247.965C136.841 240.482 126.578 223.911 120.805 217.497Z" fill="#DBDBDB"/>
<path d="M151.674 267.61L150.07 268.813C164.182 292.867 171.185 313.581 172.922 320.931L174.526 320.129C170.677 302.489 157.688 277.766 151.674 267.61Z" fill="#DBDBDB"/>
<path d="M157.286 244.758L156.484 242.754L160.493 239.546L161.295 241.952L157.286 244.758Z" fill="#DBDBDB"/>
<path d="M165.707 259.993L164.104 260.795L170.117 271.619L174.928 282.043L171.721 270.817L165.707 259.993Z" fill="#DBDBDB"/>
<path d="M166.109 255.182L164.906 255.984L165.708 257.989L166.911 257.588L166.109 255.182Z" fill="#DBDBDB"/>
<path d="M138.445 250.772C129.785 253.979 126.017 257.454 125.215 258.79L125.616 260.795C128.182 257.267 135.772 253.712 139.247 252.376L138.445 250.772Z" fill="#DBDBDB"/>
<path d="M146.866 266.007C135.32 271.138 128.691 277.232 126.82 279.638L127.221 282.444C132.032 276.029 142.99 269.749 147.667 267.61L146.866 266.007Z" fill="#DBDBDB"/>
<path d="M163.703 256.786L162.1 257.988L162.901 259.191L164.906 258.389L163.703 256.786Z" fill="#DBDBDB"/>
<path d="M141.651 249.569L140.047 250.371L140.849 251.975L142.452 251.173L141.651 249.569Z" fill="#DBDBDB"/>
<path d="M155.684 243.556L153.68 244.759L154.482 246.763L156.486 245.56L155.684 243.556Z" fill="#DBDBDB"/>
<path d="M150.071 264.804L148.066 265.605L148.868 267.61L151.274 266.407L150.071 264.804Z" fill="#DBDBDB"/>
<path d="M132.833 207.875C129.947 204.668 120.94 195.581 116.797 191.438C119.683 190.796 132.967 185.825 139.248 183.42L159.293 235.939L157.289 235.538L155.284 238.745C150.874 228.722 136.441 211.884 132.833 207.875Z" fill="#DBDBDB"/>
<path d="M159.693 338.571C155.845 341.137 150.071 344.451 147.666 345.787L150.472 355.008C154.882 353.003 160.896 348.994 164.504 346.188C167.391 343.943 172.656 339.373 174.928 337.368L173.725 328.147C170.651 330.553 163.542 336.005 159.693 338.571Z" fill="#DBDBDB"/>
<path d="M149.672 201.861C150.634 194.805 157.556 179.41 160.897 172.595L162.1 174.199C155.365 187.99 152.077 198.654 151.276 202.262L149.672 201.861Z" fill="#DBDBDB"/>
<path d="M164.104 207.073L162.5 206.271C165.066 199.857 169.449 191.304 171.32 187.829L172.523 189.834C170.278 192.721 165.975 202.529 164.104 207.073Z" fill="#DBDBDB"/>
<path d="M150.872 203.465H149.268L148.867 205.069L150.07 205.87L150.872 203.465Z" fill="#DBDBDB"/>
<path d="M156.088 220.303L155.688 222.308L156.89 223.11L158.093 221.506L156.088 220.303Z" fill="#DBDBDB"/>
<path d="M159.291 221.907L158.088 223.51C168.03 227.359 176.129 234.201 178.935 237.141V234.736C174.445 229.604 163.968 224.045 159.291 221.907Z" fill="#DBDBDB"/>
<path d="M164.905 208.276L164.104 209.88C170.518 213.407 176.398 218.566 178.536 221.105V218.699C174.367 214.53 167.712 210.013 164.905 208.276Z" fill="#DBDBDB"/>
<path d="M166.908 207.073L178.535 216.294L177.733 197.05L175.728 194.645L173.323 193.843L174.926 199.456H170.917L172.521 205.068L166.908 207.073Z" fill="#DBDBDB"/>
<path d="M146.863 191.839C147.825 194.404 146.997 197.986 146.462 199.456C144.324 194.511 139.887 184.221 139.246 182.618C138.605 181.014 139.513 179.277 140.048 178.609L157.287 170.59C157.42 170.991 157.608 172.114 157.287 173.397C156.966 174.68 155.015 176.07 154.08 176.604C153.946 176.871 153.759 177.807 154.08 179.41C154.48 181.415 151.674 181.816 150.471 183.019C149.269 184.221 150.872 186.627 149.67 188.23C148.467 189.834 145.661 188.631 146.863 191.839Z" fill="#DBDBDB"/>
<path d="M160.897 261.597L154.082 266.007L160.497 277.633C163.169 282.31 169.076 293.348 171.321 300.084C173.566 306.819 175.998 314.917 176.934 318.124L181.344 310.908C180.943 308.102 179.66 300.725 177.736 293.669C175.811 286.613 165.708 269.347 160.897 261.597Z" fill="#DBDBDB"/>
<path d="M178.537 324.138L179.339 329.751C179.98 328.468 180.675 323.069 180.943 320.53L178.537 324.138Z" fill="#DBDBDB"/>
<path d="M177.332 319.905V321.733C178.294 321.091 180.406 317.724 181.341 316.12V312.512C180.379 314.757 178.267 318.376 177.332 319.905Z" fill="#DBDBDB"/>
<path d="M175.329 321.332L173.324 322.535L173.725 324.539L175.73 323.336L175.329 321.332Z" fill="#DBDBDB"/>
<path d="M176.531 325.341L174.928 327.345L175.73 336.566L177.333 335.364L176.531 325.341Z" fill="#DBDBDB"/>
<path d="M162.499 244.357L158.891 246.362L163.702 254.38L165.706 253.578L162.499 244.357Z" fill="#DBDBDB"/>
<path d="M110.381 198.253C109.74 199.536 108.778 203.332 108.377 205.069C118.801 210.281 126.819 221.907 130.427 226.718C133.313 230.566 140.45 242.487 143.657 247.966L150.472 245.159C145.661 237.81 135.398 222.308 132.832 219.101C129.625 215.091 118.801 203.465 115.593 200.659C113.027 198.414 111.05 198.12 110.381 198.253Z" fill="#DBDBDB"/>
<path d="M144.059 253.578L142.455 254.38L147.667 262.799L148.87 261.998L144.059 253.578Z" fill="#DBDBDB"/>
<path d="M144.86 250.371L144.059 249.168L151.275 245.961L152.077 247.565L144.86 250.371Z" fill="#DBDBDB"/>
<path d="M159.292 259.592L152.477 264.002L153.278 264.804L160.094 260.795L159.292 259.592Z" fill="#DBDBDB"/>
<path d="M146.063 263.2L141.252 254.38C131.63 258.229 127.087 262.933 126.018 264.804L126.418 269.214L126.819 275.628C132.592 269.535 142.054 264.804 146.063 263.2Z" fill="#DBDBDB"/>
<path d="M153.683 249.569L146.867 252.777L152.079 261.196L158.493 256.786L153.683 249.569Z" fill="#DBDBDB"/>
<path d="M157.687 247.164L156.484 247.966L160.894 255.984L162.498 255.182L157.687 247.164Z" fill="#DBDBDB"/>
<path d="M163.303 212.285L160.096 219.1C170.359 223.911 176.934 229.657 178.938 231.929V224.312C177.014 220.784 167.713 214.824 163.303 212.285Z" fill="#DBDBDB"/>
<path d="M160.095 205.069L153.279 203.064C155.204 196.329 160.763 182.35 163.302 176.203L169.316 185.424C167.712 188.311 162.5 199.723 160.095 205.069Z" fill="#DBDBDB"/>
<path d="M153.279 217.898V298.881" stroke="black" stroke-width="0.801814"/>
<path d="M150.876 208.677L150.475 209.88L153.281 217.497L155.285 217.898L158.092 210.682L150.876 208.677Z" fill="#DBDBDB"/>
<path d="M152.88 204.267L152.078 206.271L158.894 208.276L159.695 206.672L152.88 204.267Z" fill="#DBDBDB"/>
<path d="M162.098 211.884L160.093 211.082L157.287 218.299L158.891 218.7L162.098 211.884Z" fill="#DBDBDB"/>
<path d="M161.698 207.073L160.896 209.078L162.901 209.479L163.703 207.875L161.698 207.073Z" fill="#DBDBDB"/>
<path d="M177.734 197.05L158.892 169.388C153.546 172.194 142.374 177.967 140.45 178.609C138.526 179.25 138.846 181.816 139.247 183.019C135.719 185.264 121.207 190.101 114.391 192.24C109.58 195.447 108.11 205.069 107.977 209.479L122.008 247.164L126.418 269.214C126.552 275.227 127.14 288.137 128.423 291.665C129.706 295.193 132.966 304.36 134.436 308.503L145.261 339.773C146.998 344.451 150.633 354.848 151.275 359.017C152.076 364.229 154.482 367.436 154.482 369.441C154.482 371.044 155.284 380.265 155.685 384.675H160.095C164.104 373.182 173.244 347.31 177.734 335.764C182.225 324.218 182.011 308.503 181.343 302.088L180.541 243.957L177.734 197.05Z" stroke="black" stroke-width="0.801814"/>
<path d="M139.648 178.609C138.686 178.929 139.248 181.682 139.648 183.019L150.072 209.078C157.556 229.791 173.004 273.062 174.928 280.439C176.853 287.816 180.274 303.291 181.744 310.106L178.136 197.05L159.293 169.388C153.146 172.328 140.611 178.288 139.648 178.609Z" stroke="black" stroke-width="0.801814"/>
</g>
<path d="M108.862 459.434L97.5605 550.598H354.478L344.684 459.434H108.862Z" fill="url(#paint0_linear_2402_28016)"/>
<defs>
<linearGradient id="paint0_linear_2402_28016" x1="226.019" y1="455.667" x2="226.019" y2="549.845" gradientUnits="userSpaceOnUse">
<stop stop-color="white" stop-opacity="0"/>
<stop offset="1" stop-color="white"/>
</linearGradient>
<clipPath id="clip0_2402_28016">
<rect width="492.74" height="536.101" fill="white" transform="translate(3.38281 14.1598)"/>
</clipPath>
</defs>
</svg>
