<svg width="498" height="552" viewBox="0 0 498 552" fill="none" xmlns="http://www.w3.org/2000/svg">
<path d="M101.704 4.60707C100.925 3.38298 99.8025 3.54062 99.3388 3.77246L84.3158 13.2313C83.2958 13.8805 80.9774 15.3457 79.8646 16.0134C78.7518 16.6811 78.6591 17.5899 78.7518 17.9608C80.1428 22.2729 85.2896 29.6453 92.3837 35.6267C99.4779 41.608 106.433 42.8599 109.354 43.5554C111.691 44.1118 113.388 43.5091 113.944 43.1381C120.111 39.0578 132.501 30.8694 132.723 30.7581C132.946 30.6468 133.094 30.2481 133.14 30.0626C132.955 29.5526 132.556 28.449 132.445 28.1152C132.334 27.7813 132.12 27.6979 132.028 27.6979C130.868 27.7442 127.549 27.3919 123.542 25.6114C119.536 23.8309 116.031 21.5311 114.779 20.6037C105.598 12.814 102.677 6.13718 101.704 4.60707Z" fill="#DBDBDB" stroke="black" stroke-width="0.527397"/>
<path d="M80.4226 18.3774C80.0888 17.821 80.2835 17.0327 80.4226 16.7082C80.5272 16.4642 80.6926 16.2988 80.8298 16.1617L80.8398 16.1518L84.8737 13.5088L99.3403 3.77175C100.898 3.21535 101.751 4.37452 101.983 5.02366C103.319 7.91697 106.62 12.2569 108.104 14.0653C109.17 15.3635 111.971 18.4609 114.641 20.4639C117.98 22.9677 122.014 25.0543 125.213 26.3062C127.773 27.3077 130.824 27.6508 132.029 27.6972C132.363 27.8085 132.168 28.1145 132.029 28.2536L126.187 32.4266C122.06 35.2087 113.668 40.8562 113.111 41.19C112.555 41.5239 112.045 41.6073 111.86 41.6073C109.031 41.6537 101.566 40.4389 94.3328 35.2087C85.2912 28.6709 80.8399 19.0729 80.4226 18.3774Z" fill="white" stroke="black" stroke-width="0.527397"/>
<path d="M99.0607 13.2313C97.2802 13.0087 95.7686 11.2839 95.1658 10.3102C95.1658 10.3102 94.8876 10.032 94.3312 10.3102L93.4966 10.7275L88.2107 14.0659C87.7656 14.511 88.2107 15.2715 88.489 15.596C88.7672 16.2915 89.3514 18.072 89.4627 19.63C89.6018 21.5774 87.7934 22.6902 87.0979 23.2466C86.5415 23.6917 86.6806 24.4521 86.8197 24.7767C87.9325 27.0023 94.053 32.7055 96.4177 34.3747C98.7824 36.0439 103.234 38.6868 105.32 39.1042C107.407 39.5215 108.102 38.4086 110.189 37.574C112.275 36.7394 114.918 37.0176 116.17 37.0176C117.172 37.0176 118.164 36.554 118.535 36.3221C120.158 35.2093 123.487 32.9281 123.821 32.7055C124.155 32.4829 123.867 32.1491 123.682 32.01C123.172 31.9172 122.068 31.5649 121.734 30.8972C121.317 30.0626 123.125 28.9498 123.682 28.3933C124.127 27.9482 123.867 27.5587 123.682 27.4196L121.178 26.3068C114.835 23.3022 109.911 18.749 108.241 16.8479C107.129 15.6424 104.819 13.12 104.486 12.6749C104.152 12.2298 103.326 12.3967 102.955 12.5358C102.399 12.8604 100.841 13.4539 99.0607 13.2313Z" fill="black" stroke="black" stroke-width="0.527397"/>
<path d="M98.5043 14.0659C96.7238 13.8433 95.2122 12.1185 94.6094 11.1448C94.6094 11.1448 94.3312 10.8666 93.7748 11.1448L92.9402 11.5621L88.7672 14.3441C88.322 14.7892 88.2107 15.2714 88.489 15.596C88.7672 16.2915 89.3514 18.072 89.4627 19.6299C89.6018 21.5774 87.7934 22.6902 87.0979 23.2466C86.5415 23.6917 86.6806 24.4521 86.8197 24.7767C87.9325 27.0023 94.053 32.7055 96.4177 34.3747C98.7824 36.0439 103.234 38.6868 105.32 39.1041C107.407 39.5214 108.102 38.4086 110.189 37.574C112.275 36.7394 114.918 37.0176 116.17 37.0176C117.172 37.0176 118.164 36.5539 118.535 36.3221C120.158 35.2093 122.513 33.6235 122.847 33.401C123.181 33.1784 123.032 32.9837 122.847 32.8446C122.337 32.7518 121.535 32.3037 121.456 31.8709C121.178 30.3408 122.291 29.6452 122.847 29.0888C123.292 28.6437 123.032 28.3933 122.847 28.2542L120.343 27.1414C114 24.1368 109.354 19.5836 107.685 17.6825C106.572 16.477 104.263 13.9546 103.929 13.5095C103.595 13.0644 102.77 13.2313 102.399 13.3704C101.843 13.695 100.285 14.2885 98.5043 14.0659Z" fill="white" stroke="black" stroke-width="0.527397"/>
<path d="M112.557 23.5254C109.663 20.8546 105.694 20.0942 104.072 20.0479C102.82 20.0121 100.882 20.0478 98.6466 21.2998C95.1691 23.2474 93.082 29.0895 97.3947 32.8452C101.675 36.5727 108.801 35.2099 112.139 32.9843C115.478 30.7587 116.173 26.8638 112.557 23.5254Z" fill="black" stroke="black" stroke-width="0.527397"/>
<path d="M112.554 23.5246C109.737 20.8728 105.788 20.0931 104.208 20.047C102.989 20.0116 101.2 19.9157 99.0236 21.1587C95.638 23.0925 93.3837 28.4134 97.8091 31.8707C102.26 35.3482 109.111 34.2021 112.276 31.8707C114.919 29.9232 116.075 26.8393 112.554 23.5246Z" fill="white" stroke="black" stroke-width="0.527397"/>
<path d="M80.4216 16.7086L78.8915 17.5432C78.7802 18.2109 78.8452 18.3778 78.8915 18.3778C80.4216 23.2464 86.5421 31.0361 93.3581 36.461C98.8108 40.801 106.109 42.906 109.077 43.4161C110.746 43.8612 112.183 43.6943 112.693 43.5552L111.859 41.6078C109.03 41.6541 101.565 40.4393 94.3318 35.2091C85.2902 28.6713 80.8389 19.0733 80.4216 18.3778C80.0878 17.8214 80.2825 17.0332 80.4216 16.7086Z" fill="#BABABA" stroke="black" stroke-width="0.527397"/>
<path d="M41.7429 35.8753C38.4709 33.6672 35.4983 35.0763 34.3614 36.1138C33.3713 37.0175 32.9414 38.3623 32.7841 38.9897C32.4288 41.7077 33.2847 43.4585 35.4701 44.8296C37.3036 45.9799 39.6878 45.8592 41.2209 45.2102C42.6722 44.376 43.3559 43.1814 43.6119 42.6377C44.3338 41.3304 44.7914 37.9326 41.7429 35.8753Z" fill="#EDAE5F" stroke="black" stroke-width="0.376712"/>
<path d="M41.3343 35.5964C43.8938 37.2352 44.8089 40.1249 43.3059 42.7223C41.8353 45.019 37.941 45.1508 36.0088 43.9135C33.2817 42.3965 32.3905 39.1634 33.8611 36.8667C35.3318 34.57 38.7749 33.9575 41.3343 35.5964Z" fill="#FFDD33" stroke="black" stroke-width="0.376712"/>
<path d="M40.5999 36.637C42.4104 37.7963 43.0549 39.8449 41.9874 41.6891C40.9431 43.3199 38.1851 43.4181 36.8183 42.5429C34.8889 41.4702 34.2617 39.1781 35.306 37.5472C36.3502 35.9164 38.7893 35.4777 40.5999 36.637Z" fill="black" stroke="black" stroke-width="0.376712"/>
<path d="M40.4084 37.1475C42.1069 38.235 42.7219 40.1405 41.7365 41.8455C40.7715 43.3526 38.196 43.4262 36.9139 42.6052C35.1049 41.5973 34.5046 39.4658 35.4696 37.9587C36.4346 36.4516 38.71 36.06 40.4084 37.1475Z" fill="#FFDD33" stroke="black" stroke-width="0.376712"/>
<path d="M33.0183 216.854C31.8599 216.633 31.2485 216.072 31.0876 215.819C29.6533 211.131 33.1562 196.237 35.6385 194.513C36.3005 194.292 37.2474 194.329 37.6382 194.375C38.9713 194.766 41.8995 195.63 42.9476 195.961C43.9957 196.292 45.223 196.88 45.7057 197.133C47.3606 198.167 49.8429 202.787 47.8433 209.269C45.8436 215.751 42.5338 217.75 41.4995 218.026C40.4652 218.302 34.4663 217.13 33.0183 216.854Z" fill="white" stroke="black" stroke-width="0.376712"/>
<path d="M41.4334 204.166C42.2609 198.098 39.3419 195.156 37.7789 194.444C36.455 194.223 35.7563 194.444 35.5724 194.582C30.8836 202.084 30.5848 211.82 31.0215 215.751C31.187 216.026 31.4582 216.233 31.5731 216.302C36.4688 217.543 40.3991 211.751 41.4334 204.166Z" fill="white" stroke="black" stroke-width="0.376712"/>
<path d="M32.5374 215.406C34.8543 214.965 36.2149 213.016 36.6057 212.097C38.8811 208.925 39.4328 204.925 39.2949 200.857C39.1845 197.603 36.8585 195.341 35.7093 194.582C32.6753 192.21 28.1014 191.41 26.1937 191.342C26.1937 191.342 18.2555 189.261 16.9454 189.192C15.6353 189.123 12.3885 189.944 11.6714 192.206C10.9543 194.467 12.2881 195.364 12.8857 196.099C12.3111 196.168 10.7482 196.83 9.92071 198.651C9.09327 200.471 9.30013 202.788 10.7481 203.891C9.71384 204.121 7.7004 205.436 7.92105 208.856C8.19686 213.131 17.3677 213.407 18.333 213.545C19.1053 213.655 19.781 214.441 19.85 214.993C16.9454 221.589 16.2995 226.986 20.7125 229.124C24.2429 230.834 25.4473 229.147 25.4703 228.089C26.0219 221.332 26.9936 220.564 27.4349 219.13C27.9865 217.337 29.6414 215.958 32.5374 215.406Z" fill="#F0F0F0" stroke="black" stroke-width="0.376712"/>
<path d="M43.7073 200.374C43.8728 201.422 44.7876 202.465 45.2243 202.856C45.7069 202.856 46.7412 202.236 46.0517 200.098C45.4133 198.119 44.3509 198.167 43.9142 198.374C43.7763 198.604 43.5418 199.326 43.7073 200.374Z" fill="white" stroke="black" stroke-width="0.376712"/>
<path d="M44.4656 202.788C43.0314 201.685 43.0406 199.662 43.2244 198.789C43.3899 198.292 44.2128 198.26 44.6035 198.306C46.3274 199.065 46.5342 201.409 46.1205 202.237C45.7895 202.899 44.9023 202.903 44.4656 202.788Z" fill="white" stroke="black" stroke-width="0.376712"/>
<path d="M18.2637 213.545C19.0451 213.683 20.8563 214.069 21.8492 214.51" stroke="black" stroke-width="0.376712"/>
<path d="M10.748 203.89C13.4602 204.419 19.1879 205.49 20.4015 205.545" stroke="black" stroke-width="0.376712"/>
<path d="M12.8164 196.1C14.3334 196.537 17.7259 197.465 19.1601 197.686" stroke="black" stroke-width="0.376712"/>
<path d="M23.7257 167.343L19.9586 145.493C18.7029 137.708 16.0408 120.63 15.438 114.603C14.8353 108.576 18.7029 107.069 20.712 107.069L90.7807 98.7812L102.836 97.2743C107.055 96.6716 109.616 98.1127 110.37 102.548C112.63 115.859 117.102 144.307 117.904 151.521C118.657 158.302 115.644 159.055 112.63 159.809C87.7668 164.078 36.6846 172.767 31.26 173.37C25.8353 173.973 23.9769 169.603 23.7257 167.343Z" fill="#BABABA" fill-opacity="0.48"/>
<path d="M94.547 92.0007C71.1909 88.7358 22.9717 82.0554 16.9443 81.4527C10.9169 80.85 8.26561 83.713 7.90337 87.4802C6.64761 100.54 3.98539 127.713 3.38265 134.946C2.77992 142.179 7.14978 143.987 9.41005 143.987L90.0267 155.288C95.3008 155.288 96.8073 149.512 96.8073 147.001C98.063 132.686 100.574 102.85 100.574 98.0281C100.574 93.2062 96.5562 92.0007 94.547 92.0007Z" fill="white" stroke="black" stroke-width="0.828767"/>
<path d="M94.5464 92.0004C71.1903 88.7355 24.4781 82.0552 18.4507 81.4525C12.4233 80.8497 9.77204 83.7127 9.4098 87.48C8.15404 100.539 5.49172 127.713 4.88908 134.946C4.38688 140.973 7.14921 142.48 10.9167 143.233L90.0262 154.535C95.3004 154.535 96.8067 149.512 96.8067 147C98.0624 132.685 100.574 102.85 100.574 98.0278C100.574 93.2058 96.5556 92.0004 94.5464 92.0004Z" fill="white" stroke="black" stroke-width="0.828767"/>
<path d="M85.1123 110.677C84.2054 110.946 82.0645 109.28 81.1657 108.692C79.981 108.912 77.3861 109.658 76.7782 109.207C76.1703 108.756 76.786 105.914 77.1699 104.55C76.6469 103.455 75.6743 100.849 75.7478 100.432C75.8653 99.7651 78.5419 99.2059 80.2823 99.0832C81.0338 98.0699 82.7037 96.0729 83.3704 96.1905C84.0371 96.3081 85.1519 99.0826 85.6259 100.455C86.8025 101.092 89.2293 101.95 89.1558 102.367C89.0823 102.783 86.9746 104.99 85.9207 106.093C85.8146 107.506 86.0192 110.407 85.1123 110.677Z" fill="#FFDD33" stroke="black" stroke-width="0.828767"/>
<path d="M20.3367 88.7556C17.8795 88.7098 17.4914 90.1738 17.2982 91.2701C17.1051 92.3663 16.6508 94.2027 16.5557 95.4777C16.4606 96.7527 17.4147 97.1911 18.0779 97.4157L58.1531 103.536C60.7251 103.667 61.3157 102.157 61.417 101.583L62.1519 97.4157C62.5193 95.3321 61.3294 94.2073 60.1575 94.1083C53.8012 93.3641 22.7939 88.8014 20.3367 88.7556Z" fill="#F0F0F0" stroke="black" stroke-width="0.828767"/>
<path d="M18.7467 104.511C16.2896 104.466 15.9015 105.93 15.7083 107.026C15.5151 108.122 12.5194 132.164 12.4243 133.439C12.3292 134.714 13.2834 135.153 13.9466 135.377L44.3889 140.666C46.9609 140.797 47.5515 139.287 47.6527 138.713L50.849 111.59C51.2164 109.506 49.7025 108.281 48.5306 108.182C42.1743 107.438 21.2039 104.557 18.7467 104.511Z" fill="#BABABA" stroke="black" stroke-width="0.828767"/>
<path d="M57.5235 122.893C56.8232 122.886 56.446 123.524 56.3886 123.812C56.3313 124.101 56.3356 123.893 56.3059 124.229C56.2761 124.564 56.594 125.133 57.0637 125.207L76.4032 127.803C77.8121 128.024 78.0305 126.925 78.0606 126.774L78.0606 126.774L78.1434 126.357C78.2525 125.808 77.8496 125.399 76.9002 125.303C75.0899 125.119 58.2238 122.901 57.5235 122.893Z" fill="#BABABA" stroke="black" stroke-width="0.828767"/>
<path d="M57.564 116.872C56.8343 116.86 56.4466 117.496 56.3892 117.785C56.3319 118.074 56.3347 117.866 56.3065 118.202C56.2783 118.537 56.6142 119.109 57.1041 119.186L86.0928 123.292C87.5625 123.522 87.7809 122.423 87.811 122.272L87.811 122.272L87.8938 121.855C88.0029 121.306 87.5797 120.895 86.5898 120.792C84.7023 120.596 58.2936 116.884 57.564 116.872Z" fill="#BABABA" stroke="black" stroke-width="0.828767"/>
<path d="M57.527 130.845C54.7928 130.751 54.3901 132.212 54.1969 133.308C54.0038 134.405 53.5348 136.238 53.4543 137.516C53.3737 138.794 54.4438 139.252 55.186 139.491L80.667 143.985C83.5305 144.167 84.1576 142.664 84.2589 142.089L84.9863 137.965C85.3538 135.881 84.0078 134.729 82.7023 134.606C75.617 133.733 60.2612 130.94 57.527 130.845Z" fill="#DBDBDB" stroke="black" stroke-width="0.828767"/>
<path d="M342.553 154.571C341.968 153.927 341.32 154.135 341.07 154.319L333.152 161.449C332.615 161.938 331.394 163.041 330.804 163.55C330.214 164.059 330.252 164.606 330.345 164.816C331.608 167.224 335.406 171.058 340.213 173.87C345.021 176.682 349.262 176.711 351.061 176.824C352.5 176.914 353.442 176.384 353.733 176.108C356.963 173.064 363.453 166.954 363.573 166.865C363.694 166.777 363.741 166.526 363.749 166.411C363.587 166.129 363.238 165.517 363.139 165.331C363.039 165.145 362.904 165.117 362.849 165.127C362.168 165.273 360.169 165.404 357.617 164.76C355.066 164.117 352.758 163.115 351.922 162.695C345.696 159.026 343.286 155.376 342.553 154.571Z" fill="#DBDBDB" stroke="black" stroke-width="0.376712"/>
<path d="M331.373 164.892C331.119 164.597 331.154 164.111 331.203 163.905C331.24 163.75 331.321 163.635 331.388 163.54L331.393 163.533L333.508 161.558L341.068 154.32C341.933 153.831 342.556 154.43 342.759 154.79C343.845 156.365 346.241 158.594 347.304 159.512C348.067 160.17 350.04 161.716 351.825 162.627C354.055 163.767 356.654 164.588 358.674 165.002C360.291 165.332 362.13 165.223 362.848 165.127C363.057 165.159 362.973 165.36 362.905 165.457L359.876 168.522C357.72 170.589 353.334 174.788 353.039 175.042C352.744 175.296 352.451 175.398 352.341 175.417C350.673 175.733 346.134 175.778 341.321 173.425C335.305 170.482 331.691 165.261 331.373 164.892Z" fill="white" stroke="black" stroke-width="0.376712"/>
<path d="M341.875 159.942C340.799 159.993 339.728 159.127 339.272 158.613C339.272 158.613 339.079 158.477 338.779 158.698L338.328 159.03L335.543 161.545C335.325 161.854 335.666 162.258 335.864 162.422C336.1 162.805 336.627 163.798 336.852 164.708C337.134 165.846 336.178 166.689 335.824 167.089C335.54 167.409 335.7 167.844 335.815 168.022C336.701 169.225 340.904 171.972 342.473 172.717C344.043 173.463 347.175 174.091 348.452 174.125C349.728 174.158 349.796 173.908 350.945 173.201C352.094 172.494 353.685 172.389 354.426 172.261C355.018 172.158 355.558 171.783 355.753 171.608C356.599 170.783 358.335 169.094 358.51 168.928C358.684 168.762 358.48 168.594 358.356 168.531C358.045 168.528 357.356 168.433 357.091 168.072C356.759 167.621 357.714 166.778 357.986 166.392C358.204 166.083 358.011 165.879 357.887 165.816L356.292 165.414C352.234 164.286 348.856 162.096 347.674 161.142C346.893 160.543 345.269 159.288 345.026 159.058C344.783 158.829 344.312 159.012 344.107 159.133C343.811 159.382 342.95 159.892 341.875 159.942Z" fill="#BABABA"/>
<path d="M350.906 164.65C348.921 163.366 346.496 163.323 345.532 163.461C344.788 163.568 343.645 163.787 342.451 164.756C340.594 166.264 339.957 169.932 342.891 171.713C345.804 173.479 349.879 171.945 351.626 170.287C353.373 168.629 353.386 166.255 350.906 164.65Z" fill="black"/>
<path d="M350.908 164.649C348.97 163.369 346.555 163.312 345.616 163.446C344.891 163.55 343.823 163.676 342.663 164.634C340.859 166.123 340.07 169.501 343.04 171.093C346.029 172.695 349.963 171.316 351.596 169.614C352.96 168.192 353.329 166.25 350.908 164.649Z" fill="white"/>
<path d="M481.428 161.626C476.058 151.557 466.557 151.133 462.249 152.245C458.497 153.213 455.578 156.067 454.327 157.457C449.741 163.919 449.558 169.55 453.285 176.01C456.412 181.43 462.666 184.349 467.461 184.766C472.297 184.599 475.661 182.473 477.05 181.43C480.664 179.068 486.431 171.007 481.428 161.626Z" fill="#EDAE5F" stroke="black" stroke-width="0.376712"/>
<path d="M480.765 160.366C485.085 168.017 483.512 176.637 476.157 181.238C469.292 185.115 459.165 180.181 455.904 174.405C450.991 166.839 453.09 157.374 459.955 153.497C466.82 149.621 476.445 152.716 480.765 160.366Z" fill="#FFDD33" stroke="black" stroke-width="0.376712"/>
<path d="M477.48 162.025C480.536 167.437 479.41 173.542 474.187 176.808C469.312 179.561 462.133 176.079 459.827 171.993C456.349 166.642 457.85 159.938 462.724 157.185C467.599 154.432 474.424 156.613 477.48 162.025Z" fill="black" stroke="black" stroke-width="0.376712"/>
<path d="M476.301 163.072C479.168 168.148 478.16 173.848 473.335 176.87C468.83 179.414 462.152 176.117 459.988 172.284C456.731 167.261 458.082 161.004 462.587 158.46C467.091 155.916 473.434 157.995 476.301 163.072Z" fill="#FFDD33" stroke="black" stroke-width="0.376712"/>
<path d="M326.771 31.0661C322.773 28.3676 319.14 30.0895 317.751 31.3575C316.54 32.4619 316.015 34.1053 315.823 34.872C315.389 38.1937 316.435 40.3333 319.105 42.009C321.346 43.4148 324.26 43.2673 326.133 42.4741C327.907 41.4547 328.743 39.9947 329.055 39.3303C329.938 37.7327 330.497 33.5802 326.771 31.0661Z" fill="#EDAE5F" stroke="black" stroke-width="0.376712"/>
<path d="M326.274 30.7267C329.402 32.7295 330.521 36.261 328.684 39.4352C326.887 42.242 322.127 42.4031 319.766 40.891C316.433 39.0371 315.344 35.086 317.142 32.2792C318.939 29.4724 323.147 28.7239 326.274 30.7267Z" fill="#FFDD33" stroke="black" stroke-width="0.376712"/>
<path d="M325.378 31.9968C327.591 33.4135 328.378 35.917 327.074 38.1708C325.798 40.1638 322.427 40.2839 320.757 39.2142C318.399 37.9033 317.632 35.1021 318.908 33.1091C320.185 31.116 323.165 30.58 325.378 31.9968Z" fill="black" stroke="black" stroke-width="0.376712"/>
<path d="M325.141 32.6216C327.217 33.9507 327.969 36.2794 326.764 38.363C325.585 40.2048 322.438 40.2948 320.871 39.2914C318.66 38.0597 317.926 35.4548 319.106 33.613C320.285 31.7712 323.066 31.2926 325.141 32.6216Z" fill="#FFDD33" stroke="black" stroke-width="0.376712"/>
<path d="M371.052 13.6441C359.599 15.4523 359.749 21.9317 359.75 27.2057C361.006 50.813 363.668 99.5345 364.271 105.562C364.874 111.589 371.554 114.101 374.819 114.603L484.819 115.356C490.847 113.548 495.367 107.571 495.367 104.808V21.9317C495.367 9.87688 483.776 5.68717 476.531 6.1098C446.394 7.86779 382.504 11.8359 371.052 13.6441Z" fill="#BABABA" fill-opacity="0.48"/>
<path d="M362.765 25.7812C351.312 27.5894 350.709 34.7398 350.71 40.0138C350.71 64.8768 348.599 111.589 349.202 117.617C349.805 123.644 356.485 126.155 359.75 126.658L471.258 130.425C483.312 128.918 484.819 119.626 484.819 116.863V32.4795C484.819 18.918 473.016 17.7446 467.491 18.2469C437.354 20.0049 374.217 23.973 362.765 25.7812Z" fill="white" stroke="black" stroke-width="0.828767"/>
<path d="M462.133 28.713H459.201L460.708 30.2199L464.475 35.4938L471.256 37.7541L466.735 45.2884V53.576H468.837C469.729 53.576 470.426 52.8063 470.337 51.9192L469.749 46.0418L474.034 38.697C474.533 37.8411 474.084 36.7447 473.128 36.484L466.735 34.7404L463.411 29.4212C463.136 28.9807 462.653 28.713 462.133 28.713Z" fill="#EDAE5F" stroke="black" stroke-width="0.828767"/>
<path d="M466.736 53.576C465.229 54.3295 460.959 52.0692 459.201 51.3158C457.192 52.0692 452.873 54.1788 451.667 53.576C450.462 52.9733 450.662 47.7998 450.914 45.2884C449.658 43.5304 447.146 39.261 447.146 38.5075C447.146 37.3021 451.667 35.4938 454.681 34.7404C455.685 32.7313 457.996 28.713 459.201 28.713C460.407 28.713 463.22 33.2336 464.475 35.4938C466.736 36.2473 471.256 37.0007 471.256 37.7541C471.256 38.5075 468.242 43.0281 466.736 45.2883L466.736 45.2884C466.987 47.7998 468.242 52.8226 466.736 53.576Z" fill="#FFDD33" stroke="black" stroke-width="0.828767"/>
<path d="M455.435 54.3295C454.832 54.3295 452.673 53.8272 451.668 53.5761C453.069 53.9083 453.677 53.8272 453.928 53.5761L459.202 51.3158L460.709 52.0692C459.202 52.8226 456.038 54.3295 455.435 54.3295Z" fill="#EDAE5F" stroke="black" stroke-width="0.828767"/>
<path d="M361.144 33.0846C356.821 33.7641 356.594 36.4513 356.594 38.4334C356.594 40.4154 356.365 43.776 356.593 46.0412C356.821 48.3064 358.629 48.7799 359.862 48.9687L431.327 46.0413C435.877 45.475 436.446 42.6453 436.446 41.6071V34.0728C436.446 30.3056 434.012 28.7012 431.926 28.8899C420.55 29.5506 365.467 32.405 361.144 33.0846Z" fill="#F0F0F0" stroke="black" stroke-width="0.828767"/>
<path d="M359.13 62.3919C354.807 63.0715 354.579 65.7587 354.579 67.7407C354.58 69.7227 353.497 113.091 353.725 115.356C353.952 117.621 355.761 118.095 356.993 118.284L412.491 118.284C417.042 117.717 417.611 114.888 417.611 113.85V64.8769C417.611 61.1097 414.577 59.4291 412.491 59.6179C401.115 60.2786 363.453 61.7123 359.13 62.3919Z" fill="#BABABA" stroke="black" stroke-width="0.828767"/>
<path d="M426.806 81.7906C425.714 81.9696 425.324 83.1913 425.324 83.7133C425.324 84.2352 425.267 83.8702 425.324 84.4667C425.382 85.0632 426.052 85.9736 426.806 85.9736L457.696 85.2201C459.956 85.2201 459.956 83.2335 459.956 82.9599V82.9598L459.956 82.2064C459.956 81.2144 459.203 80.6083 457.696 80.6996C454.823 80.8736 427.898 81.6117 426.806 81.7906Z" fill="#BABABA" stroke="black" stroke-width="0.828767"/>
<path d="M426.806 71.2426C425.714 71.4216 425.324 72.6433 425.324 73.1653C425.324 73.6872 425.267 73.3222 425.324 73.9187C425.382 74.5152 426.052 75.4256 426.806 75.4256L471.258 74.6721C473.518 74.6721 473.518 72.6856 473.518 72.4119V72.4118L473.518 71.6584C473.518 70.6664 472.765 70.0603 471.258 70.1516C468.385 70.3256 427.897 71.0637 426.806 71.2426Z" fill="#BABABA" stroke="black" stroke-width="0.828767"/>
<path d="M428.088 96.2966C423.765 96.9762 423.537 99.6634 423.537 101.645C423.538 103.627 423.309 106.988 423.536 109.253C423.764 111.518 425.573 111.992 426.805 112.181L468.092 112.181C472.642 111.614 473.211 108.785 473.211 107.747V100.289C473.211 96.5215 470.777 94.917 468.691 95.1058C457.315 95.7665 432.411 95.6171 428.088 96.2966Z" fill="#DBDBDB" stroke="black" stroke-width="0.828767"/>
<path d="M334.891 79.1927C332.48 78.5899 330.872 79.4438 330.37 79.9461C328.863 82.4575 325.398 88.9872 323.589 95.0146C321.329 102.549 319.822 111.59 319.822 115.357C319.822 118.371 320.827 119.626 321.329 119.878C327.357 121.887 339.713 125.905 340.918 125.905C342.124 125.905 342.927 124.398 343.178 123.645L353.726 88.9872C353.726 87.179 352.722 85.7223 352.22 85.2201L334.891 79.1927Z" fill="white" stroke="black" stroke-width="0.828767"/>
<path d="M334.891 117.617C333.083 116.412 331.644 116.11 329.617 116.11C325.849 116.11 325.85 122.138 330.37 122.891C333.987 123.494 334.89 122.891 335.644 122.138C336.397 121.384 337.15 119.124 334.891 117.617Z" fill="white" stroke="black" stroke-width="0.828767"/>
<path d="M333.697 118.91C332.266 117.876 331.127 117.617 329.523 117.617C326.54 117.617 326.919 121.742 330.369 122.891C332.63 123.645 333.697 123.434 334.294 122.787C334.889 122.141 335.486 120.202 333.697 118.91Z" fill="white" stroke="black" stroke-width="0.828767"/>
<path d="M342.425 111.59C341.219 117.015 340.918 123.896 340.918 125.905C342.123 125.905 342.927 124.9 343.178 124.398C343.178 122.891 343.932 114.604 346.192 105.563C348 98.3297 351.466 91.4986 352.973 88.9872H353.726C353.726 87.7817 352.722 86.4758 352.219 85.9735C348.452 89.7406 343.764 105.563 342.425 111.59Z" fill="white" stroke="black" stroke-width="0.828767"/>
<path d="M363.52 88.2338C361.712 88.8365 355.735 88.9872 352.972 88.9872C352.219 89.4895 349.959 93.0557 346.945 103.302C343.931 113.549 343.178 121.133 343.178 123.645C345.187 124.9 350.561 128.015 355.986 130.426C362.767 133.439 373.315 136.453 380.096 137.206C383.863 137.625 389.137 137.206 392.904 133.439C395.917 130.426 394.662 126.156 393.657 124.398C397.424 122.891 398.931 119.124 398.931 116.864C398.931 115.056 397.927 112.595 397.424 111.59C398.429 111.339 400.739 110.083 401.945 107.069C403.452 103.302 403.452 97.2749 396.671 93.5077C391.246 90.494 385.872 90.2429 383.863 90.494C383.863 89.7406 384.616 89.7406 386.876 84.4666C388.685 80.2475 388.634 76.6813 388.383 75.4256C385.37 66.3845 379.342 67.1379 377.835 67.8913C376.328 68.6447 374.822 72.4119 371.808 79.9461C369.397 85.9735 365.278 87.9826 363.52 88.2338Z" fill="#F0F0F0" stroke="black" stroke-width="0.828767"/>
<path d="M397.423 111.59L392.149 113.097C390.894 113.599 388.232 114.754 387.629 115.357" stroke="black" stroke-width="0.828767"/>
<path d="M393.658 124.398L386.877 125.905C386.124 126.156 384.466 126.809 383.863 127.412" stroke="black" stroke-width="0.828767"/>
<path d="M386.876 97.2748C386.682 97.1973 386.497 97.1174 386.321 97.0353C389.335 95.5284 394.41 97.2748 394.41 98.0283C394.41 98.7817 390.643 98.7817 386.876 97.2748Z" fill="#F0F0F0"/>
<path d="M383.862 90.494C382.857 92.0009 382.094 95.3622 386.876 97.2748C390.643 98.7817 394.41 98.7817 394.41 98.0283C394.41 97.2748 389.335 95.5284 386.321 97.0353" stroke="black" stroke-width="0.828767"/>
<g clip-path="url(#clip0_2402_27883)">
<path d="M271.716 192.429C265.301 189.543 259.689 186.416 257.684 185.213C221.122 200.287 188.194 187.218 176.3 178.799C174.696 177.596 170.687 180.402 169.084 181.605C167.801 182.567 163.204 183.609 161.066 184.01C152.112 186.817 131.398 193.632 120.173 198.443C108.948 203.254 102.399 208.198 100.529 210.069C99.8871 228.992 107.478 331.277 111.353 380.054C111.353 383.662 111.754 415.334 109.749 432.974C108.146 447.086 105.072 501.93 103.736 527.588C102.8 539.348 100.609 566.235 99.3258 579.706C98.0429 593.176 97.4549 617.658 97.3213 628.215L95.3167 683.541L90.1049 755.704L84.0913 825.061C83.9577 835.752 83.7706 858.577 84.0913 864.35C84.4121 870.123 82.8886 892.413 82.0868 902.837L77.6768 981.415L76.875 1012.28L77.2759 1023.91H80.4832C80.6168 1022.84 81.1246 1020.38 82.0868 1019.1C83.2895 1017.5 90.1049 1015.49 94.9158 1015.09C99.7267 1014.69 100.529 1014.69 104.939 1015.49C109.348 1016.29 121.376 1020.7 123.781 1021.91C126.187 1023.11 124.984 1021.1 132.2 1021.91C137.973 1022.55 142.624 1026.98 144.227 1029.12V1035.14C144.227 1038.02 145.297 1039.01 145.831 1039.15C154.811 1040.75 172.558 1037.14 180.309 1035.14C185.922 1033.67 199.793 1030.65 210.377 1030.33C223.607 1029.92 228.418 1033.53 236.035 1035.14C243.652 1036.74 248.463 1037.54 258.887 1037.94C267.226 1038.26 270.38 1034.87 270.914 1033.13V1025.11C271.048 1024.85 274.843 1024.15 288.955 1023.51C306.595 1022.71 310.203 1027.52 319.023 1029.52C326.079 1031.13 328.11 1028.86 328.244 1027.52L330.649 1012.28C331.611 1010.68 338.267 1007.61 341.474 1006.27L349.492 1002.26C362.962 1000.66 367.132 1004.27 367.533 1006.27L376.353 1008.68L386.776 1016.29V1004.27C386.776 1000.66 383.97 982.617 382.767 978.608C381.805 975.401 383.168 968.719 383.97 965.779V941.725L373.947 821.453L366.731 689.153L364.325 617.391L354.303 527.588L340.271 402.906C345.082 388.072 345.884 360.409 345.884 351.189V309.093V292.255C347.487 284.905 350.935 268.842 351.897 263.39C352.86 257.938 355.506 242.409 356.708 235.326C356.174 234.792 354.624 233.162 352.699 230.916C350.775 228.671 341.474 220.092 337.064 216.083L319.023 208.065C316.136 206.782 305.526 204.59 300.581 203.655C293.632 201.116 278.13 195.316 271.716 192.429Z" fill="white" stroke="black" stroke-width="0.801814"/>
<path d="M217.592 202.853C217.592 204.323 217.832 207.744 218.795 209.668C219.997 212.074 221.2 219.691 220.799 225.303C220.478 229.794 223.071 259.514 224.407 273.813L228.015 321.12L232.425 376.045L233.227 438.185L248.462 447.406L260.088 437.383L257.683 392.081L253.673 312.3L243.25 210.871" stroke="black" stroke-width="0.801814"/>
<path d="M181.913 415.333C182.047 424.421 182.234 447.005 181.913 464.645C181.592 482.285 187.392 512.62 190.332 525.583L204.364 596.544L226.414 1031.53" stroke="black" stroke-width="0.801814"/>
<path d="M171.888 388.874L166.676 527.187V749.289" stroke="black" stroke-width="0.801814"/>
<path d="M261.693 298.269L260.09 275.016C285.748 274.054 314.88 275.951 326.24 277.021V301.877L325.037 353.193L316.618 360.409C310.203 358.164 285.614 357.068 274.122 356.801L265.703 349.585L261.693 298.269Z" fill="white" stroke="black" stroke-width="0.801814"/>
<path d="M261.693 297.467H266.905" stroke="black" stroke-width="0.801814"/>
<path d="M274.123 297.467C289.758 298.536 322.072 300.834 326.241 301.476" stroke="black" stroke-width="0.801814"/>
<path d="M146.235 120.267C144.952 114.814 145.166 105.433 145.433 101.424C145.589 95.0095 147.102 91.8023 147.839 91.0005L172.695 79.3741C170.45 81.2985 170.69 88.9959 171.091 92.6041L170.69 94.2077V125.879C170.156 136.303 168.686 159.556 167.082 169.177C165.479 178.799 162.138 183.075 160.668 184.011C158.423 182.728 153.585 175.726 151.447 172.385C151.981 170.647 153.211 165.008 153.852 156.348C154.654 145.524 147.839 127.082 146.235 120.267Z" fill="#DBDBDB" stroke="black" stroke-width="0.801814"/>
<path d="M169.486 181.204C167.882 182.487 162.938 183.877 160.666 184.412C166.76 179.28 168.551 160.09 168.684 151.136L170.689 95.0094L171.491 93.0048L173.495 92.203L183.518 145.524L184.72 161.961L176.301 178.799C174.297 177.596 171.491 179.601 169.486 181.204Z" fill="#BABABA" stroke="black" stroke-width="0.801814"/>
<path d="M275.325 122.671C272.118 121.068 270.781 117.994 270.514 116.658C270.514 120.506 268.376 125.478 267.307 127.482C266.344 138.387 257.818 154.477 253.676 161.158V166.37L254.478 168.776L257.685 185.213C264.099 190.024 288.688 199.512 300.181 203.655C300.315 202.986 300.502 201.41 300.181 200.447C299.78 199.245 294.969 185.614 293.366 177.997C291.762 170.379 287.753 142.717 288.555 136.302C289.196 131.171 286.149 128.284 284.546 127.482C282.808 126.547 278.532 124.275 275.325 122.671Z" fill="#DBDBDB" stroke="black" stroke-width="0.801814"/>
<path d="M268.908 99.4187L267.705 85.387C269.309 87.926 273.318 93.8862 276.525 97.4142C280.534 101.824 288.151 107.036 288.953 110.243C289.755 113.45 287.75 120.667 286.949 121.87C286.307 122.832 284.81 123.874 284.142 124.275V127.081C281.87 125.879 276.926 123.313 275.322 122.671C273.318 121.87 271.313 119.464 270.912 117.46C270.511 115.455 271.313 108.239 270.912 105.432C270.592 103.187 269.442 100.488 268.908 99.4187Z" fill="#DBDBDB" stroke="black" stroke-width="0.801814"/>
<path d="M280.537 185.614C275.325 174.789 268.644 141.781 266.906 131.491C266.265 135.981 261.561 146.726 259.289 151.536C259.69 157.55 262.496 172.544 270.514 184.411C278.533 196.278 285.749 196.438 280.537 185.614Z" fill="#BABABA"/>
<path d="M284.145 124.275C282.809 123.206 280.216 120.667 280.537 119.063" stroke="black" stroke-width="0.801814"/>
<path d="M184.316 162.362L183.113 145.523C209.172 173.186 236.568 164.901 253.272 160.357V171.582C246.216 177.035 230.287 180.001 223.204 180.803C209.092 179.841 191.399 168.108 184.316 162.362Z" fill="#F0F0F0" stroke="black" stroke-width="0.801814"/>
<path d="M181.112 163.564C182.074 160.998 183.383 159.288 183.918 158.753L184.319 162.361C197.789 173.907 213.986 179.467 220.401 180.803L223.207 181.204V202.452H217.594C213.986 201.65 199.152 196.438 189.531 190.826C181.833 186.335 177.504 181.471 176.301 179.6C177.504 175.324 180.149 166.13 181.112 163.564Z" fill="white" stroke="black" stroke-width="0.801814"/>
<path d="M221.2 181.204L217.592 202.051C237.236 204.055 253.941 194.835 258.083 190.425C257.148 184.411 255.197 173.105 254.876 171.181C254.555 169.257 253.941 167.439 253.673 166.771V171.582C246.617 177.034 229.084 180.268 221.2 181.204Z" fill="white" stroke="black" stroke-width="0.801814"/>
<path d="M183.115 145.122C180.87 141.274 178.705 132.293 177.903 128.284L173.493 102.225C172.958 91.1337 171.088 72.1577 177.903 58.9274C183.256 48.5367 195.543 30.0622 228.016 34.0713C260.49 38.0804 264.499 77.77 265.702 80.5764C266.664 82.8215 267.706 92.7372 268.107 97.4145V119.464C268.107 128.685 262.093 145.924 257.684 153.942C253.274 161.961 245.255 169.177 237.237 173.186C230.887 176.361 219.998 174.121 215.588 173.186C200.354 167.974 185.921 149.933 183.115 145.122Z" fill="#F0F0F0" stroke="black" stroke-width="0.801814"/>
<path d="M171.087 111.046C171.087 107.197 170.552 98.7511 170.285 95.0093C179.105 99.0183 177.101 105.032 177.101 105.834V117.46L177.902 129.888C172.771 131.171 170.686 127.75 170.285 125.879C170.552 122.538 171.087 114.894 171.087 111.046Z" fill="#F0F0F0" stroke="black" stroke-width="0.801814"/>
<path d="M173.091 101.824C173.412 100.221 171.621 98.4835 170.686 97.8153V107.838C171.354 106.502 172.77 103.428 173.091 101.824Z" fill="black" stroke="black" stroke-width="0.801814"/>
<path d="M175.898 107.036C174.829 108.774 172.851 112.409 173.492 113.05C174.294 113.852 175.898 114.253 175.898 107.036Z" fill="black" stroke="black" stroke-width="0.801814"/>
<path d="M172.69 120.667C172.369 119.385 171.354 118.396 171.086 118.262L170.686 125.879C171.086 122.672 173.091 122.271 172.69 120.667Z" fill="black" stroke="black" stroke-width="0.801814"/>
<path d="M244.051 68.1484C244.753 68.2278 245.514 68.3663 246.318 68.5712C256.255 70.5137 262.742 73.1396 266.101 80.9775C268.078 85.5917 268.372 100.488 268.105 107.437C268.692 80.7261 254.997 70.7825 246.318 68.5712C245.582 68.4271 244.826 68.2868 244.051 68.1484Z" fill="black" stroke="black" stroke-width="0.801814"/>
<path d="M178.302 103.027C177.66 99.4992 173.491 95.9445 171.486 94.6081C179.825 76.6476 188.859 69.7519 192.334 68.5491L203.68 67.2884C205.829 66.7412 208.067 66.4702 210.374 66.5446L203.68 67.2884C194.256 69.6886 186.555 77.4029 182.311 84.5855C178.141 91.6414 177.901 99.8199 178.302 103.027Z" fill="black" stroke="black" stroke-width="0.801814"/>
<path d="M181.11 79.3737C177.903 83.5431 173.626 91.2673 171.889 94.6082C171.622 93.8063 171.007 91.0802 170.686 86.59C170.366 82.0999 171.622 80.1755 172.29 79.7746C180.526 72.4891 189.439 69.2966 193.006 68.5751C193.05 68.565 193.094 68.5563 193.137 68.5492C193.094 68.5575 193.05 68.5661 193.006 68.5751C190.532 69.1355 185.048 74.2546 181.11 79.3737Z" fill="white" stroke="black" stroke-width="0.801814"/>
<path d="M184.318 121.87C180.469 117.059 178.037 107.972 177.903 103.829C176.62 108.319 177.235 115.188 177.101 118.262C177.77 124.676 179.908 139.109 183.115 145.524C186.322 151.938 198.082 161.827 203.561 165.97C199.552 143.519 189.129 127.884 184.318 121.87Z" fill="black" stroke="black" stroke-width="0.801814"/>
<path d="M268.509 115.054C268.55 115.344 268.575 115.706 268.573 116.131C268.971 126.117 264.316 140.292 259.288 150.735C255.118 159.395 250.067 164.232 248.062 165.569C249.399 160.49 250.067 154.744 252.873 146.325C255.618 138.092 259.689 132.694 264.5 126.681C267.753 122.614 268.562 118.451 268.573 116.131C268.558 115.766 268.537 115.407 268.509 115.054Z" fill="black" stroke="black" stroke-width="0.801814"/>
<path d="M203.558 165.97L202.355 149.533C204.36 153.542 209.652 161.8 214.784 162.762C219.915 163.725 220.396 158.887 219.995 156.348L226.009 158.753L230.82 156.348C230.285 158.486 230.74 162.762 236.833 162.762C242.927 162.762 246.589 153.408 247.658 148.731V165.97C246.589 166.905 243.007 169.578 237.234 172.785C230.018 176.794 220.797 174.389 214.784 172.785C209.973 171.502 205.295 167.707 203.558 165.97Z" fill="black" stroke="black" stroke-width="0.801814"/>
<path d="M269.31 122.672C270.112 118.396 271.475 108.239 270.513 101.825C269.444 104.765 267.707 113.05 269.31 122.672Z" stroke="black" stroke-width="0.801814"/>
<path d="M269.253 122.173C269.253 125.049 267.688 127.445 266.906 128.284C267.297 125.049 268.158 117.643 268.471 113.905C268.862 109.231 268.079 101.659 268.471 100.221C268.862 98.783 270.426 100.604 270.035 102.76C269.644 104.917 269.644 106.355 269.253 107.074C268.862 107.793 270.817 114.264 269.253 116.781C267.688 119.297 269.253 118.578 269.253 122.173Z" fill="#F0F0F0" stroke="black" stroke-width="0.801814"/>
<path d="M227.213 150.335C224.326 150.335 219.595 150.335 216.789 151.136C218.794 154.745 223.204 157.15 225.208 157.551C230.34 156.589 232.959 154.344 234.429 152.339C232.825 151.671 230.099 150.335 227.213 150.335Z" fill="black" stroke="black" stroke-width="0.801814"/>
<path d="M213.18 144.722C214.516 146.325 218.391 149.613 223.202 149.934C229.216 150.335 233.626 149.934 236.432 147.929C238.677 146.325 239.506 145.39 239.64 145.123" stroke="black" stroke-width="0.801814"/>
<path d="M215.587 137.906C209.493 137.585 207.568 137.906 207.568 138.307C210.375 138.307 219.195 143.519 225.208 143.519C231.222 143.519 232.024 143.92 236.033 142.316C239.24 141.033 242.447 139.376 243.65 138.708C242.982 138.842 240.683 138.708 236.835 138.708C232.024 138.708 223.204 138.307 215.587 137.906Z" fill="black" stroke="black" stroke-width="0.801814"/>
<path d="M218.396 141.915C214.868 140.953 213.184 138.842 212.783 137.906L238.441 139.109C238.441 139.911 236.918 141.755 234.031 142.717C230.423 143.92 222.806 143.118 218.396 141.915Z" fill="white" stroke="black" stroke-width="0.801814"/>
<path d="M225.208 122.672C224.807 122.137 223.364 121.228 220.798 121.87C218.232 122.511 222.669 122.672 225.208 122.672Z" fill="white" stroke="black" stroke-width="0.801814"/>
<path d="M219.195 122.271C220.532 121.736 223.766 121.148 226.011 123.073C228.817 125.478 230.421 125.478 233.227 123.474C234.611 122.485 235.232 122.271 236.835 122.271" stroke="black" stroke-width="0.801814"/>
<path d="M236.434 127.482C234.51 126.2 231.089 125.745 229.619 125.879C222.254 124.275 217.592 128.284 212.781 129.086C207.97 129.888 203.159 130.289 201.555 134.298C200.272 137.505 202.357 145.256 203.56 148.731C203.56 145.256 204.201 137.906 206.767 136.303C209.333 134.699 222.536 135.1 228.817 135.501C232.96 135.902 241.806 137.024 244.052 138.307C246.297 139.59 247.125 144.722 247.259 147.127C247.793 144.588 248.862 138.868 248.862 136.303C248.862 133.095 245.277 133.913 242.849 132.294C240.443 130.69 238.84 129.086 236.434 127.482Z" fill="black" stroke="black" stroke-width="0.801814"/>
<path d="M234.431 93.0049C233.629 93.9403 232.025 96.2121 232.025 97.8158C232.025 99.4194 234.431 111.179 235.233 117.059" stroke="black" stroke-width="0.801814"/>
<path d="M199.551 98.8517C200.447 97.0265 203.546 93.4673 208.772 93.8323C213.997 94.1974 217.096 98.2434 217.993 100.221" stroke="black" stroke-width="0.801814"/>
<path d="M255.678 100.456C254.742 98.6307 251.508 95.0723 246.056 95.4365C243.651 95.5972 240.176 97.0413 239.241 99.0186" stroke="black" stroke-width="0.801814"/>
<path d="M236.834 88.9956L235.23 84.5856L237.235 86.9911V82.982L238.839 86.1893V81.7793L240.442 86.1893V82.5811C240.843 82.1802 244.852 82.982 252.069 82.982C260.781 82.982 261.958 91.5347 261.289 95.4101C259.686 84.5856 250.866 88.5947 246.055 88.9956C242.206 89.3163 238.304 89.1293 236.834 88.9956Z" fill="black" stroke="black" stroke-width="0.801814"/>
<path d="M222.402 88.9959C223.043 88.3544 223.738 84.9868 224.005 83.3832L222.001 86.9912L222.402 83.3832L221.199 86.9912V82.9823C217.858 81.9132 209.332 80.1759 201.955 81.7795C194.579 83.3832 191.665 91.0004 191.131 94.6086C195.541 84.185 207.167 86.9913 211.176 87.7932C215.185 88.595 221.6 89.7977 222.402 88.9959Z" fill="black" stroke="black" stroke-width="0.801814"/>
<circle cx="209.172" cy="97.0135" r="3.20726" fill="black" stroke="black" stroke-width="0.801814"/>
<circle cx="246.459" cy="98.2164" r="2.80635" fill="black" stroke="black" stroke-width="0.801814"/>
<circle cx="209.574" cy="95.8109" r="1.20272" fill="white" stroke="black" stroke-width="0.801814"/>
<circle cx="247.257" cy="97.4146" r="1.20272" fill="white" stroke="black" stroke-width="0.801814"/>
<path d="M221.602 31.2647C197.226 30.944 184.184 43.6928 180.709 50.1073C185.841 49.1452 224.007 49.172 242.449 49.3056L260.089 51.31C246.939 34.3115 228.951 30.8638 221.602 31.2647Z" fill="#DBDBDB" stroke="black" stroke-width="0.801814"/>
<path d="M169.483 60.9319C166.276 62.5355 166.008 68.2819 166.276 70.9546C174.935 68.7096 208.638 66.5446 224.407 65.7427H235.633L275.322 69.3509C279.812 61.6534 273.986 59.1945 270.511 58.9273C259.286 57.3237 240.844 57.3236 229.619 57.3237H229.615C217.157 57.3239 176.699 57.3243 169.483 60.9319Z" fill="black" stroke="#BABABA" stroke-width="0.801814"/>
<path d="M172.688 52.1119C168.518 54.3569 168.545 59.1946 169.079 61.3327C186.719 54.5175 252.468 58.1253 258.883 58.1253C265.297 58.1253 272.914 60.5307 272.113 56.1207C271.471 52.5927 263.025 50.3745 258.883 49.7064L260.486 51.7107C256.477 51.3099 247.256 49.7065 240.842 49.7064C236.623 49.7064 220.128 49.4392 211.175 49.7064C200.083 49.5728 176.857 49.8668 172.688 52.1119Z" fill="black" stroke="#BABABA" stroke-width="0.801814"/>
<path d="M227.213 71.3555C225.93 71.3555 225.609 67.6137 225.609 65.7428C226.892 65.422 232.024 65.6091 234.429 65.7428C232.558 67.6137 228.496 71.3555 227.213 71.3555Z" fill="#DBDBDB" stroke="black" stroke-width="0.801814"/>
<path d="M228.416 70.1527L226.812 71.3554C220.798 62.9362 200.753 66.8902 199.149 66.9455C187.523 67.3464 176.698 76.9682 172.289 79.7745C167.879 82.5809 150.64 89.3963 148.234 90.9999C146.798 91.9571 146.017 95.6514 145.658 98.6868C145.568 99.7101 145.489 100.66 145.428 101.424C145.462 100.677 145.535 99.72 145.658 98.6868C145.961 95.2308 146.383 90.9405 146.63 90.1981C147.031 88.9954 155.45 77.3691 157.856 75.3646C159.78 73.7609 163.736 70.1528 165.473 68.5491C163.549 55.7201 178.569 50.9091 186.32 50.1073C214.544 48.5037 226.144 62.8027 228.416 70.1527Z" fill="#DBDBDB" stroke="black" stroke-width="0.801814"/>
<path d="M234.83 65.3421C234.189 66.3043 229.485 69.7521 227.213 71.3557C227.881 71.2221 230.019 70.4737 233.226 68.5494C236.434 66.625 241.875 67.7476 244.452 68.1485C262.493 70.9548 263.295 75.7657 267.304 84.9866C271.313 94.2074 286.547 106.235 288.552 109.843C290.155 112.729 287.884 119.331 286.547 122.271C288.819 119.866 293.042 114.012 291.759 109.843C290.155 104.631 285.344 95.0093 282.939 91.4011C280.534 87.7929 276.925 75.3648 276.124 73.3603C275.322 71.3557 277.727 66.1439 276.925 62.9367C276.124 59.7294 269.709 56.5222 259.285 55.7204C248.862 54.9185 235.632 64.1394 234.83 65.3421Z" fill="#DBDBDB" stroke="black" stroke-width="0.801814"/>
<path d="M363.122 247.353C362.802 245.108 358.98 238.801 357.109 235.727L345.482 292.255V359.206L349.892 364.017C351.763 366.156 355.986 371.234 357.911 374.441C359.835 377.648 364.86 382.726 367.131 384.865C370.472 388.072 377.796 394.727 380.361 395.689C383.569 396.892 401.609 396.892 403.614 396.09C405.619 395.288 408.826 379.653 409.628 366.022C410.269 355.117 404.549 337.157 401.609 329.539C394.126 316.042 379.159 288.887 379.159 288.246C379.159 287.444 376.753 283.034 375.55 280.228C374.348 277.421 372.744 269.804 372.343 267.8C372.022 266.196 366.597 257.51 363.924 253.367C363.791 252.298 363.443 249.598 363.122 247.353Z" fill="white" stroke="black" stroke-width="0.801814"/>
<path d="M363.924 253.367V266.196" stroke="black" stroke-width="0.801814"/>
<path d="M357.91 368.829C357.91 372.357 359.781 376.713 360.717 378.45C371.3 389.355 378.757 394.754 381.163 396.09C387.043 396.491 399.765 397.053 403.614 396.09C408.424 394.888 413.636 388.874 416.844 383.662C420.051 378.45 426.064 362.013 426.465 352.792C426.786 345.416 425.53 335.286 424.862 331.143C426.866 330.342 432.88 321.121 434.083 319.918C435.045 318.956 435.553 317.646 435.686 317.112L421.654 311.499C418.314 310.296 409.306 305.646 400.005 296.665C390.704 287.685 385.172 277.155 383.568 273.012C382.499 276.085 379.639 284.237 376.753 292.255C373.145 302.278 370.338 299.873 370.338 303.08C370.338 305.646 373.011 309.227 374.347 310.697L372.744 314.706C371.006 317.379 367.372 323.526 366.73 326.733C366.089 329.941 368.334 335.553 369.536 337.959C368.601 339.429 366.49 342.93 365.527 345.175C364.565 347.42 362.721 351.991 361.919 353.995L359.514 356.801C358.979 359.341 357.91 365.301 357.91 368.829Z" fill="white" stroke="black" stroke-width="0.801814"/>
<path d="M389.983 336.756C390.304 336.114 398.135 332.479 402.01 330.742L412.835 336.355C408.665 336.355 403.079 334.484 400.807 333.549C391.186 337.157 389.582 337.558 389.983 336.756Z" fill="#DBDBDB"/>
<path d="M387.978 337.157L376.352 318.715C378.891 328.07 385.492 346.939 391.586 347.58C399.203 348.382 414.839 346.378 411.631 344.774C408.424 343.17 395.194 339.963 391.586 339.161C388.7 338.52 387.978 337.558 387.978 337.157Z" fill="#DBDBDB"/>
<path d="M399.204 268.201C390.865 266.597 385.306 270.205 383.568 272.21C392.549 294.34 412.434 307.356 421.254 311.098L435.686 316.711C436.087 315.508 436.648 311.819 435.686 306.688C434.484 300.273 428.47 293.859 426.866 291.854C425.583 290.251 418.581 280.495 415.24 275.818C413.369 273.947 407.543 269.804 399.204 268.201Z" fill="#BABABA" stroke="black" stroke-width="0.801814"/>
<path d="M417.645 287.043C417.003 282.553 415.239 277.422 414.438 275.417L425.262 289.449C426.197 290.919 429.031 295.142 432.879 300.273C436.728 305.405 436.354 313.37 435.686 316.71L421.654 311.098C422.857 305.886 418.447 292.656 417.645 287.043Z" fill="#DBDBDB" stroke="black" stroke-width="0.801814"/>
<path d="M369.539 337.959L376.755 353.594" stroke="black" stroke-width="0.801814"/>
<path d="M377.555 377.649C379.826 381.257 386.695 389.596 395.996 394.086" stroke="black" stroke-width="0.801814"/>
<path d="M375.951 311.9C381.965 316.577 395.435 326.733 401.208 329.941C408.425 333.95 412.033 336.355 414.037 336.355C416.042 336.355 418.046 335.954 419.65 335.152C421.254 334.351 420.452 334.351 421.655 333.148C422.617 332.186 423.392 331.945 423.659 331.945" stroke="black" stroke-width="0.801814"/>
<path d="M382.768 258.98C383.089 263.149 383.704 269.27 383.971 271.809C386.537 284.959 402.413 298.937 410.03 304.282C410.431 303.614 411.794 301.316 414.039 297.467C416.284 293.618 416.044 285.974 415.643 282.633C415.242 278.891 414.44 271.087 414.44 269.804C414.44 268.201 414.841 263.39 414.039 261.385C413.237 259.381 412.837 256.574 413.237 254.169C413.638 251.763 420.454 239.335 422.458 235.326C424.463 231.317 424.062 227.308 424.062 225.704C424.062 224.422 424.329 223.299 424.463 222.898C426.387 219.691 425.799 217.018 425.265 216.083C424.596 215.548 423.501 213.838 424.463 211.272C425.666 208.065 424.463 205.258 424.062 204.857C423.661 204.456 416.044 201.249 415.643 199.645C415.322 198.363 415.509 192.162 415.643 189.222C416.979 186.015 419.652 179.199 419.652 177.596C419.652 175.992 420.454 169.444 420.855 166.37C421.79 163.029 423.821 155.546 424.463 152.338C425.104 149.131 424.463 147.26 424.062 146.726C416.445 145.122 414.44 155.546 413.237 158.753C412.275 161.319 409.362 170.78 408.026 175.19L404.417 190.425C403.215 189.89 400.489 188.741 399.206 188.42C397.602 188.019 395.598 190.024 393.593 192.028C391.989 193.632 390.252 195.102 389.584 195.637C389.985 187.218 385.976 186.416 383.971 185.614C381.967 184.812 379.962 189.222 379.16 190.826C378.358 192.429 377.156 192.429 375.953 195.236C374.75 198.042 375.953 199.645 375.151 203.655C374.349 207.664 372.345 210.47 373.147 220.894C373.949 231.317 379.16 243.745 379.962 246.953C380.764 250.16 382.368 253.768 382.768 258.98Z" fill="#F0F0F0" stroke="black" stroke-width="0.801814"/>
<path d="M403.214 232.921C402.814 233.188 402.012 234.124 402.012 235.727" stroke="black" stroke-width="0.801814"/>
<path d="M404.016 190.425C406.154 191.761 410.751 194.755 412.034 196.038" stroke="black" stroke-width="0.801814"/>
<path d="M408.828 173.587C410.432 174.121 413.88 175.511 414.842 176.794" stroke="black" stroke-width="0.801814"/>
<path d="M408.426 175.19C409.094 175.057 411.072 175.03 413.638 175.992" stroke="black" stroke-width="0.801814"/>
<path d="M412.436 162.762C413.237 163.029 415.162 163.644 416.445 163.965" stroke="black" stroke-width="0.801814"/>
<path d="M389.184 196.438C388.649 197.107 387.099 198.924 385.175 200.848C383.25 202.773 381.166 205.392 380.364 206.461L378.359 209.668" stroke="black" stroke-width="0.801814"/>
<path d="M377.959 204.056C378.36 204.323 379.643 204.777 381.567 204.457" stroke="black" stroke-width="0.801814"/>
<path d="M377.957 210.069C377.022 212.341 375.312 217.205 375.953 218.488C376.755 220.092 379.561 221.696 382.367 219.691" stroke="black" stroke-width="0.801814"/>
<path d="M379.963 227.709C381.166 224.903 383.651 219.13 383.972 218.488C384.373 217.686 385.175 216.484 387.58 212.876C389.504 209.989 394.529 204.457 396.801 202.051C397.736 201.383 400.249 200.367 402.815 201.65C405.38 202.933 411.1 205.125 413.639 206.06" stroke="black" stroke-width="0.801814"/>
<path d="M379.963 227.709C380.765 229.045 383.731 231.077 389.184 228.511C389.05 227.976 389.264 226.346 391.188 224.101C393.113 221.856 394.128 220.493 394.396 220.092" stroke="black" stroke-width="0.801814"/>
<path d="M401.612 231.317C400.543 231.451 398.084 231.237 396.801 229.313C395.197 226.907 393.193 222.497 394.797 219.29C396.4 216.083 404.418 212.876 406.824 212.876C408.748 212.876 413.773 216.083 416.045 217.686" stroke="black" stroke-width="0.801814"/>
<path d="M412.838 229.714C411.368 229.714 408.107 229.473 406.824 228.511" stroke="black" stroke-width="0.801814"/>
<path d="M409.63 232.52C408.561 232.253 406.182 230.676 405.22 226.506C404.552 226.774 402.815 227.228 401.211 226.907" stroke="black" stroke-width="0.801814"/>
<path d="M402.812 231.317C403.347 231.05 404.416 230.114 404.416 228.511" stroke="black" stroke-width="0.801814"/>
<path d="M386.375 246.151L396.398 229.313" stroke="black" stroke-width="0.801814"/>
<path d="M389.985 227.308C390.306 225.705 392.658 222.631 393.994 221.295C393.674 225.785 395.464 228.511 396.4 229.313L390.169 239.048C390.106 239.151 390.044 239.247 389.985 239.336L390.169 239.048C390.974 237.741 392.08 235.313 391.188 234.124C389.985 232.52 389.264 230.917 389.985 227.308Z" fill="#BABABA"/>
<path d="M90.9059 220.493C91.8681 218.889 97.7214 213.143 100.528 210.47C107.584 211.432 113.09 219.424 114.96 223.299C117.847 226.827 131.932 259.782 138.614 275.818L140.218 285.44C136.476 296.398 126.988 322.002 118.97 336.756C108.947 355.198 85.2932 377.247 73.6669 364.018C64.3659 353.434 62.3079 344.106 62.4415 340.765C62.5752 332.48 62.9226 314.866 63.2433 310.697C63.5641 306.527 64.1788 301.476 64.4461 299.471C67.2524 287.043 73.1057 261.385 74.0678 258.178C75.2706 254.169 81.2842 239.736 81.6851 238.935C82.086 238.133 89.7032 222.497 90.9059 220.493Z" fill="white" stroke="black" stroke-width="0.801814"/>
<path d="M102.536 197.24L128.194 184.812C126.59 183.85 129.931 181.738 131.802 180.803C135.677 178.665 143.749 174.228 145.032 173.587C146.315 172.945 149.843 172.517 151.446 172.384L161.068 184.01L170.69 198.844L181.113 258.579L182.316 293.057C182.984 302.545 184.321 322.644 184.321 327.134C184.321 332.747 181.915 345.977 180.712 349.184C179.51 352.391 175.501 360.008 172.694 368.027C170.449 374.441 164.008 384.597 161.068 388.874C159.865 388.072 159.865 384.464 159.865 379.252C159.865 375.082 158.262 365.487 157.46 361.211L140.622 286.642L138.617 275.417L133.405 261.786C128.595 250.962 117.85 227.549 113.36 220.493C108.87 213.437 102.669 210.604 100.13 210.069C96.9229 201.73 100.397 198.042 102.536 197.24Z" fill="#F0F0F0" stroke="black" stroke-width="0.801814"/>
<path d="M145.033 173.587C146.958 172.945 149.844 172.517 151.047 172.384L160.669 183.609C164.838 190.344 169.088 196.572 170.691 198.844L181.115 258.98L182.318 293.859L172.696 263.39C166.682 250.561 153.533 223.139 149.042 216.083C143.43 207.263 128.195 184.812 127.794 183.609C127.474 182.647 130.333 181.605 131.803 181.204C135.412 178.932 143.109 174.228 145.033 173.587Z" fill="#F0F0F0" stroke="black" stroke-width="0.801814"/>
<path d="M143.828 199.646H142.625L151.044 172.785L152.648 174.789L143.828 199.646Z" fill="#DBDBDB"/>
<path d="M159.063 203.654L157.459 203.254L163.072 188.019L164.274 190.424L159.063 203.654Z" fill="#DBDBDB"/>
<path d="M160.264 206.06L159.863 207.263C163.071 208.546 170.554 214.212 173.895 216.885L173.093 214.479C171.81 212.555 164.006 208.065 160.264 206.06Z" fill="#DBDBDB"/>
<path d="M155.055 218.087L154.654 219.29C166.842 224.101 174.165 229.58 176.303 231.718L175.902 229.713C171.091 224.261 160 219.691 155.055 218.087Z" fill="#DBDBDB"/>
<path d="M134.609 209.267C124.666 200.287 113.628 195.637 109.352 194.434L118.172 189.623L128.194 184.812C132.738 191.761 142.547 206.702 145.433 210.871C148.32 215.04 153.585 224.635 155.857 228.912H154.253C154.574 230.836 153.318 232.654 152.65 233.322C150.779 229.045 144.551 218.248 134.609 209.267Z" fill="#DBDBDB"/>
<path d="M158.662 234.926L153.852 238.935L155.455 240.538L159.865 237.331L158.662 234.926Z" fill="#DBDBDB"/>
<path d="M164.676 256.174L162.672 257.376L168.285 265.795L170.69 264.593L164.676 256.174Z" fill="#DBDBDB"/>
<path d="M138.617 246.552C133.806 248.797 131.535 253.635 131 255.773L131.802 257.376C133.405 251.924 137.548 248.69 139.419 247.755L138.617 246.552Z" fill="#DBDBDB"/>
<path d="M147.036 261.786C140.621 264.993 137.949 269.804 137.414 271.809L138.617 274.214C140.541 267.479 146.1 264.459 148.639 263.791L147.036 261.786Z" fill="#DBDBDB"/>
<path d="M151.846 260.182L152.648 261.786C155.534 258.899 158.661 257.109 159.864 256.574L159.062 254.971C157.138 255.612 153.449 258.712 151.846 260.182Z" fill="#DBDBDB"/>
<path d="M160.666 254.169L161.869 255.773L163.472 254.971L161.869 253.367L160.666 254.169Z" fill="#DBDBDB"/>
<path d="M166.682 250.962L163.475 252.966L164.677 254.57L167.885 253.367L166.682 250.962Z" fill="#DBDBDB"/>
<path d="M150.242 260.583L148.639 261.385L149.44 262.989L151.445 261.786L150.242 260.583Z" fill="#DBDBDB"/>
<path d="M151.044 263.39L150.242 263.791C150.777 264.593 151.926 266.677 152.247 268.602C152.567 270.526 155.588 275.283 157.058 277.422L157.459 273.813L153.049 266.998L151.044 263.39Z" fill="#DBDBDB"/>
<path d="M141.825 245.349L139.82 245.75L140.622 247.353L142.627 246.952L141.825 245.349Z" fill="#DBDBDB"/>
<path d="M153.049 239.335L151.445 240.538L152.247 242.543L154.252 241.34L153.049 239.335Z" fill="#DBDBDB"/>
<path d="M149.443 241.34L143.83 244.146L145.033 245.349L150.646 243.344L149.443 241.34Z" fill="#DBDBDB"/>
<path d="M155.856 242.944L153.852 244.547L159.063 251.764L160.667 250.962L155.856 242.944Z" fill="#DBDBDB"/>
<path d="M144.229 248.957L142.625 249.759L147.436 258.178L149.04 257.777L144.229 248.957Z" fill="#DBDBDB"/>
<path d="M146.235 201.65L145.434 203.254L153.452 205.659L154.654 204.055L146.235 201.65Z" fill="#DBDBDB"/>
<path d="M143.427 201.249L141.422 200.447L141.021 202.853L142.625 203.254L143.427 201.249Z" fill="#DBDBDB"/>
<path d="M157.06 204.857L156.258 206.06L158.262 207.263L159.465 205.258L157.06 204.857Z" fill="#DBDBDB"/>
<path d="M157.859 208.866L155.453 208.465L152.246 214.88L154.251 215.281L157.859 208.866Z" fill="#DBDBDB"/>
<path d="M151.846 216.484L151.445 218.088L153.45 218.889L154.252 217.286L151.846 216.484Z" fill="#DBDBDB"/>
<path d="M157.46 225.704C156.819 226.346 155.589 226.239 155.055 226.105L161.068 238.533L172.695 263.39L180.713 258.98L177.105 235.326C173.577 231.157 165.746 226.373 162.271 224.502L157.059 222.096C157.46 223.032 158.102 225.063 157.46 225.704Z" fill="#DBDBDB"/>
<path d="M138.618 191.627C139.901 195.155 138.084 196.572 137.015 196.839L136.213 196.438L128.195 184.411C127.874 182.807 130.734 181.605 132.204 181.204C135.545 179.199 142.387 175.11 143.028 174.789C143.67 174.469 145.701 173.587 146.637 173.186C146.904 173.587 147.358 174.629 147.037 175.591C146.637 176.794 145.835 177.596 144.231 177.997C142.627 178.397 145.033 179.6 144.632 181.605C144.311 183.208 141.826 183.877 140.623 184.01C141.024 184.545 141.745 185.935 141.425 187.217C141.024 188.821 137.015 187.217 138.618 191.627Z" fill="#DBDBDB"/>
<path d="M117.369 202.452C108.71 197 104.674 196.438 103.738 196.839L106.545 195.236C106.812 195.236 109.271 196.118 116.968 199.646C126.59 204.056 139.018 216.083 141.824 220.092C144.07 223.299 149.709 233.188 152.248 237.732L150.644 238.935C148.105 234.257 142.466 224.181 140.221 221.295C137.414 217.687 128.194 209.267 117.369 202.452Z" fill="#DBDBDB"/>
<path d="M159.866 258.178C158.583 258.499 155.055 261.519 153.451 262.989L159.465 271.408L165.879 267.399L159.866 258.178Z" fill="#DBDBDB"/>
<path d="M148.642 240.137L143.43 242.944C142.093 240.806 139.1 236.048 137.817 234.124C136.213 231.718 131.803 226.106 125.389 218.889C118.974 211.673 110.555 206.06 106.947 205.659C104.061 205.339 100.666 205.526 99.3299 205.659C98.6885 202.773 99.8645 199.913 100.533 198.844C102.136 198.577 106.867 198.844 112.961 202.051C120.578 206.06 133.808 217.286 139.02 224.502C143.189 230.275 147.172 237.331 148.642 240.137Z" fill="#DBDBDB"/>
<path d="M105.742 207.664C103.176 207.343 100.664 208.065 99.7285 208.465C100.049 209.748 100.397 210.069 100.53 210.069C101.813 209.107 104.539 209.134 105.742 209.267C112.157 211.272 120.977 218.889 126.99 226.907C131.801 233.322 137.013 241.607 139.017 244.948L141.022 244.547C139.285 241.607 134.046 233.402 126.99 224.101C118.17 212.474 108.949 208.065 105.742 207.664Z" fill="#DBDBDB"/>
<path d="M151.847 245.349L146.234 248.556L150.644 256.975L156.658 252.966L151.847 245.349Z" fill="#DBDBDB"/>
<path d="M137.012 253.367C134.766 255.292 133.136 258.445 132.602 259.782L136.611 269.404C136.611 268.735 137.172 266.677 139.417 263.791C141.662 260.904 145.163 259.114 146.633 258.579L141.422 250.561C140.887 250.695 139.257 251.443 137.012 253.367Z" fill="#DBDBDB"/>
<path d="M161.869 250.16L157.059 242.142L160.667 238.533L165.478 248.556L161.869 250.16Z" fill="#DBDBDB"/>
<path d="M168.685 198.844L167.884 195.235V194.834L170.69 198.844L173.095 212.474C172.454 211.191 165.879 206.862 162.672 204.857L167.483 204.055L165.077 198.844H168.685Z" fill="#DBDBDB"/>
<path d="M159.063 209.668L157.059 215.281C165.718 218.488 172.694 224.636 175.5 227.308L174.298 220.493C170.77 215.682 162.671 211.272 159.063 209.668Z" fill="#DBDBDB"/>
<path d="M144.232 205.659L143.43 207.263L147.439 212.876L150.245 214.078L152.651 208.065L144.232 205.659Z" fill="#DBDBDB"/>
<path d="M155.055 202.452L147.037 200.447L154.654 176.794L160.668 184.411L155.055 202.452Z" fill="#DBDBDB"/>
<path d="M102.536 197.24L128.194 184.812C126.59 183.85 129.931 181.738 131.802 180.803C135.677 178.665 143.749 174.228 145.032 173.587C146.315 172.945 149.843 172.517 151.446 172.384L161.068 184.01L170.69 198.844L181.113 258.579L182.316 293.057C182.984 302.545 184.321 322.644 184.321 327.134C184.321 332.747 181.915 345.977 180.712 349.184C179.51 352.391 175.501 360.008 172.694 368.027C170.449 374.441 164.008 384.597 161.068 388.874C159.865 388.072 159.865 384.464 159.865 379.252C159.865 375.082 158.262 365.487 157.46 361.211L140.622 286.642L138.617 275.417L133.405 261.786C128.595 250.962 117.85 227.549 113.36 220.493C108.87 213.437 102.669 210.604 100.13 210.069C96.9229 201.73 100.397 198.042 102.536 197.24Z" stroke="black" stroke-width="0.801814"/>
<path d="M145.033 173.587C146.958 172.945 149.844 172.517 151.047 172.384L160.669 183.609C164.838 190.344 169.088 196.572 170.691 198.844L181.115 258.98L182.318 293.859L172.696 263.39C166.682 250.561 153.533 223.139 149.042 216.083C143.43 207.263 128.195 184.812 127.794 183.609C127.474 182.647 130.333 181.605 131.803 181.204C135.412 178.932 143.109 174.228 145.033 173.587Z" stroke="black" stroke-width="0.801814"/>
<path d="M197.544 248.958L190.729 253.769L202.756 266.998L210.774 281.431C212.378 279.828 213.58 278.304 215.184 277.021C216.787 275.738 218.525 274.482 219.193 274.215C224.405 274.215 232.022 271.408 236.833 268.602C241.644 265.796 247.256 261.386 251.666 258.179C255.194 255.613 259.016 254.704 260.486 254.57C260.754 256.441 262.17 260.103 265.698 259.782C270.108 259.381 271.712 257.377 273.315 254.57C274.598 252.325 273.85 248.289 273.315 246.552C277.485 245.269 278.794 237.732 278.928 234.124C281.173 233.162 281.734 229.714 281.734 228.11C281.334 225.037 280.291 218.168 279.329 215.281C278.126 211.673 273.716 211.272 270.509 211.673C267.302 212.074 258.081 214.079 256.477 212.876C255.194 211.914 255.408 209.268 255.675 208.065C256.745 205.927 259.123 201.33 260.085 200.047C261.288 198.443 265.698 193.632 267.302 192.029C268.905 190.425 271.311 187.218 276.523 182.407C281.734 177.596 280.933 172.384 278.928 170.781C277.324 169.498 271.044 174.523 268.104 177.195C266.099 178.933 261.208 183.049 257.68 185.614C253.27 188.822 249.662 192.831 246.054 197.241C242.446 201.651 238.436 205.259 235.63 207.664C233.385 209.589 230.953 213.544 230.017 215.281L219.193 227.309L197.544 248.958Z" fill="#F0F0F0" stroke="black" stroke-width="0.801814"/>
<path d="M214.78 269.004C209.328 268.683 206.896 272.077 206.361 273.815L210.771 281.432C212.375 279.507 217.052 275.552 219.19 273.815C221.997 273.547 228.972 272.451 234.425 270.206C239.877 267.961 248.724 260.451 252.466 256.976C252.867 251.364 247.655 247.755 241.641 250.562C238.008 252.258 233.222 255.774 227.609 260.985C221.997 266.197 221.596 269.405 214.78 269.004Z" fill="#DBDBDB"/>
<path d="M260.885 254.571C262.488 254.704 265.776 255.212 266.097 256.174C266.497 257.377 265.295 257.377 264.493 256.575C263.851 255.934 263.557 255.506 262.889 255.372" stroke="black" stroke-width="0.801814"/>
<path d="M263.695 239.336C271.393 238.695 272.783 242.543 272.515 244.548C272.195 243.586 269.442 243.078 268.105 242.944C268.105 240.378 265.165 239.47 263.695 239.336Z" fill="black" stroke="black" stroke-width="0.801814"/>
<path d="M258.484 224.102C259.019 224.369 261.611 224.743 267.705 224.102C272.753 223.57 275.949 225.387 277.429 226.861C277.793 227.122 278.017 227.411 278.129 227.71C277.968 227.458 277.735 227.167 277.429 226.861C276.491 226.19 274.62 225.705 271.313 225.705C264.899 225.705 260.89 226.106 258.484 224.102Z" fill="black" stroke="black" stroke-width="0.801814"/>
<path d="M256.48 239.737C258.084 240.271 260.49 241.741 264.9 242.543C268.642 243.223 271.715 242.944 272.918 246.552" stroke="black" stroke-width="0.801814"/>
<path d="M258.081 240.138C258.882 239.603 262.571 239.416 264.495 239.737C266.901 240.138 267.702 240.94 267.702 242.944C265.698 242.142 263.292 242.142 257.68 240.138" stroke="black" stroke-width="0.801814"/>
<path d="M257.68 223.701C258.482 224.235 260.646 225.384 262.891 225.705C265.137 226.026 269.974 225.839 273.315 225.705C276.522 225.705 278.928 227.549 278.928 230.115C278.928 232.681 278.928 233.59 278.928 234.124" stroke="black" stroke-width="0.801814"/>
<path d="M241.643 215.281C242.712 215.281 245.09 215.281 246.053 215.281" stroke="black" stroke-width="0.801814"/>
<path d="M242.848 224.502C243.382 224.502 244.772 224.502 246.055 224.502" stroke="black" stroke-width="0.801814"/>
<path d="M244.449 236.529C244.984 236.529 246.374 236.529 247.656 236.529" stroke="black" stroke-width="0.801814"/>
<path d="M245.252 246.953C245.786 246.953 247.176 246.953 248.459 246.953" stroke="black" stroke-width="0.801814"/>
<path d="M115.358 400.099C115.091 398.362 115.038 393.605 116.962 388.473C119.367 382.058 122.976 372.437 120.971 374.441C118.966 376.446 117.941 380.455 116.962 386.068" stroke="black" stroke-width="0.801814"/>
<path d="M72.4621 313.103C67.972 317.914 64.1767 325.531 62.8404 328.738C62.7067 331.544 62.4395 337.798 62.4395 340.364C62.4395 342.93 63.7758 347.848 64.444 349.986C69.2549 361.211 76.4712 367.626 80.8812 374.842C84.4092 380.615 88.4984 382.059 90.1021 382.059C107.742 384.063 108.544 379.653 115.359 376.446C122.175 373.239 130.594 367.225 139.815 364.018C149.035 360.811 162.265 360.009 168.279 358.806C174.293 357.603 175.896 355.198 177.5 353.193C179.103 351.189 181.509 349.184 183.513 345.175C185.117 341.968 184.716 331.544 184.315 326.733C190.409 328.016 195.942 325.664 197.946 324.328L218.793 309.094C219.435 300.755 213.982 287.979 211.176 282.634L202.356 266.597L190.329 253.768C180.707 259.247 160.982 270.526 159.058 271.809C157.134 273.092 157.187 276.085 157.454 277.422C153.98 280.095 146.79 285.6 145.828 286.242C144.866 286.883 141.418 286.776 139.815 286.643L116.963 297.467C116.027 297.734 113.595 298.269 111.35 298.269C108.544 298.269 93.3093 297.467 88.4984 298.269C83.6875 299.071 78.0748 307.089 72.4621 313.103Z" fill="white" stroke="black" stroke-width="0.801814"/>
<path d="M173.492 299.873C171.888 296.666 164.004 284.371 160.262 278.625C171.086 297.066 165.474 300.675 167.478 325.13C169.483 349.585 180.307 344.774 180.307 338.36C180.307 331.945 179.104 327.135 179.505 321.121C179.906 315.107 175.496 303.882 173.492 299.873Z" fill="#DBDBDB"/>
<path d="M183.914 330.742C183.646 326.065 183.433 316.55 184.716 315.909C187.923 314.305 187.121 325.931 196.743 322.323" stroke="black" stroke-width="0.801814"/>
<path d="M116.16 307.089C118.566 306.688 124.178 305.726 127.386 305.085C130.593 304.443 139.947 301.076 144.224 299.472L163.868 293.458C164.67 292.79 166.354 290.893 166.674 288.647C166.995 286.402 168.946 286.108 169.882 286.242C178.301 281.698 196.582 271.489 202.355 266.998" stroke="black" stroke-width="0.801814"/>
<path d="M74.8672 325.13C75.0008 325.13 75.9095 325.13 78.4754 325.13C81.6826 325.13 80.079 325.531 88.8989 323.526C95.9549 321.923 106.539 319.116 110.949 317.913" stroke="black" stroke-width="0.801814"/>
<path d="M88.0977 370.432C90.6367 366.557 96.9176 355.519 101.729 342.369C107.742 325.932 114.558 308.292 117.364 303.08" stroke="black" stroke-width="0.801814"/>
<path d="M104.935 345.977C102.69 349.505 94.1106 366.691 90.1016 374.842C90.5025 382.059 107.741 366.022 112.151 360.009C116.561 353.995 119.368 341.968 117.764 338.761C116.161 335.553 107.741 341.567 104.935 345.977Z" fill="#DBDBDB"/>
<path d="M93.7091 305.084C93.1745 305.218 91.5442 305.966 89.2991 307.891C86.4928 310.296 83.2855 312.301 80.0782 313.103C76.871 313.904 72.461 317.513 70.8574 320.319C69.2537 323.125 65.6456 329.139 66.0465 333.549C66.4474 337.959 68.0511 341.567 68.0511 344.774C68.0511 347.982 70.4565 347.18 70.0556 343.972C69.6547 340.765 69.2538 339.963 68.8529 334.351C68.452 328.738 68.452 327.134 70.0556 323.927C71.3385 321.361 73.7974 318.047 74.8665 316.711" stroke="black" stroke-width="0.801814"/>
<path d="M86.8939 311.9C83.9539 313.103 77.5127 316.711 75.2676 321.522" stroke="black" stroke-width="0.801814"/>
<path d="M116.163 297.868C115.227 297.868 112.795 298.028 110.55 298.67C108.305 299.311 103.467 301.075 101.329 301.877C97.1865 302.412 88.3398 303.561 86.0947 303.882C83.2883 304.282 83.6893 301.877 88.901 301.476C93.0705 301.155 97.3201 301.342 98.9238 301.476" stroke="black" stroke-width="0.801814"/>
</g>
<path d="M106.602 459.434L100.574 551.352H357.492L347.698 459.434H106.602Z" fill="url(#paint0_linear_2402_27883)"/>
<defs>
<linearGradient id="paint0_linear_2402_27883" x1="226.019" y1="455.667" x2="226.019" y2="549.845" gradientUnits="userSpaceOnUse">
<stop stop-color="white" stop-opacity="0"/>
<stop offset="1" stop-color="white"/>
</linearGradient>
<clipPath id="clip0_2402_27883">
<rect width="492.74" height="536.101" fill="white" transform="translate(3.38281 15.1516)"/>
</clipPath>
</defs>
</svg>
