<svg width="150" height="150" viewBox="0 0 150 150" fill="none" xmlns="http://www.w3.org/2000/svg">
<g clip-path="url(#clip0_731_61508)">
<path d="M67.7023 52.6329C72.3531 49.9512 78.0812 49.9411 82.7444 52.6063L139.632 85.1195C142.736 86.8938 142.756 91.3588 139.667 93.1569L82.777 126.275C78.0695 129.016 72.2475 129.008 67.5445 126.255L11.1616 93.2447C8.08726 91.4447 8.10015 87.0007 11.1849 85.222L67.7023 52.6329Z" fill="#FFDD33"/>
<mask id="path-2-outside-1_731_61508" maskUnits="userSpaceOnUse" x="5.54297" y="6.75879" width="140" height="113" fill="black">
<rect fill="white" x="5.54297" y="6.75879" width="140" height="113"/>
<path fill-rule="evenodd" clip-rule="evenodd" d="M65.2785 29.3724C64.8023 28.535 65.0962 27.4694 65.9343 26.9945L97.7161 8.98525C98.5545 8.51021 99.6185 8.80689 100.09 9.64719L114.281 34.9331C114.749 35.7669 114.458 36.8227 113.628 37.2982L100.966 44.5574L106.705 47.8382L117.571 41.5723C118.287 41.1597 119.168 41.1581 119.885 41.568L143.622 55.1317C144.399 55.5752 144.403 56.6915 143.631 57.1411L133.397 63.0991L141.057 67.4787C142.497 68.3021 143.273 69.7037 143.384 71.149H143.397V71.4611C143.397 71.4925 143.397 71.524 143.397 71.5554V78.0946C143.413 79.665 142.646 81.2418 141.093 82.1448L82.8592 116.003C78.1483 118.742 72.3208 118.732 67.614 115.975L9.84154 82.1411C8.06689 81.1018 7.32069 79.1831 7.60003 77.4048V72.2347C7.31923 70.4467 8.07496 68.5201 9.86428 67.4896L67.7155 34.1735C67.7891 34.1311 67.863 34.0893 67.9372 34.0482L65.2785 29.3724Z"/>
</mask>
<path fill-rule="evenodd" clip-rule="evenodd" d="M65.2785 29.3724C64.8023 28.535 65.0962 27.4694 65.9343 26.9945L97.7161 8.98525C98.5545 8.51021 99.6185 8.80689 100.09 9.64719L114.281 34.9331C114.749 35.7669 114.458 36.8227 113.628 37.2982L100.966 44.5574L106.705 47.8382L117.571 41.5723C118.287 41.1597 119.168 41.1581 119.885 41.568L143.622 55.1317C144.399 55.5752 144.403 56.6915 143.631 57.1411L133.397 63.0991L141.057 67.4787C142.497 68.3021 143.273 69.7037 143.384 71.149H143.397V71.4611C143.397 71.4925 143.397 71.524 143.397 71.5554V78.0946C143.413 79.665 142.646 81.2418 141.093 82.1448L82.8592 116.003C78.1483 118.742 72.3208 118.732 67.614 115.975L9.84154 82.1411C8.06689 81.1018 7.32069 79.1831 7.60003 77.4048V72.2347C7.31923 70.4467 8.07496 68.5201 9.86428 67.4896L67.7155 34.1735C67.7891 34.1311 67.863 34.0893 67.9372 34.0482L65.2785 29.3724Z" fill="white"/>
<path d="M65.9343 26.9945L66.5065 28.0043L66.5065 28.0043L65.9343 26.9945ZM65.2785 29.3724L66.2874 28.7987L66.2874 28.7987L65.2785 29.3724ZM97.7161 8.98525L97.1439 7.97544L97.1439 7.97545L97.7161 8.98525ZM100.09 9.64719L99.0779 10.2152L99.0779 10.2152L100.09 9.64719ZM114.281 34.9331L115.294 34.3651L115.294 34.3651L114.281 34.9331ZM113.628 37.2982L114.206 38.3051L114.206 38.3051L113.628 37.2982ZM100.966 44.5574L100.389 43.5505L98.6302 44.5588L100.39 45.565L100.966 44.5574ZM106.705 47.8382L106.128 48.8458L106.707 49.1766L107.284 48.8437L106.705 47.8382ZM117.571 41.5723L118.151 42.5777L118.151 42.5777L117.571 41.5723ZM119.885 41.568L120.461 40.5603L120.461 40.5603L119.885 41.568ZM143.622 55.1317L144.198 54.1239L144.198 54.1239L143.622 55.1317ZM143.631 57.1411L143.047 56.138L143.047 56.138L143.631 57.1411ZM133.397 63.0991L132.813 62.0961L131.074 63.1082L132.821 64.1067L133.397 63.0991ZM141.057 67.4787L140.481 68.4863L140.481 68.4863L141.057 67.4787ZM143.384 71.149L142.226 71.2373L142.308 72.3097H143.384V71.149ZM143.397 71.149H144.558V69.9884H143.397V71.149ZM143.397 71.4611L142.236 71.4611L142.237 71.473L143.397 71.4611ZM143.397 71.5554L142.236 71.5435V71.5554H143.397ZM143.397 78.0946H142.236L142.237 78.1062L143.397 78.0946ZM141.093 82.1448L140.509 81.1414L140.509 81.1414L141.093 82.1448ZM82.8592 116.003L83.4426 117.007L83.4426 117.007L82.8592 116.003ZM67.614 115.975L68.2006 114.973L68.2006 114.973L67.614 115.975ZM9.84154 82.1411L10.4281 81.1395L10.4281 81.1395L9.84154 82.1411ZM7.60003 77.4048L8.74663 77.5849L8.76069 77.4954V77.4048H7.60003ZM7.60003 72.2347H8.76069V72.1441L8.74663 72.0546L7.60003 72.2347ZM9.86428 67.4896L10.4435 68.4954L10.4435 68.4954L9.86428 67.4896ZM67.7155 34.1735L68.2947 35.1793L68.2947 35.1792L67.7155 34.1735ZM67.9372 34.0482L68.4995 35.0636L69.5264 34.495L68.9462 33.4745L67.9372 34.0482ZM65.3621 25.9847C63.9657 26.776 63.4762 28.5509 64.2695 29.9461L66.2874 28.7987C66.1285 28.5191 66.2267 28.1629 66.5065 28.0043L65.3621 25.9847ZM97.1439 7.97545L65.3621 25.9847L66.5065 28.0043L98.2884 9.99506L97.1439 7.97545ZM101.102 9.07914C100.316 7.67824 98.5416 7.18345 97.1439 7.97544L98.2883 9.99506C98.5673 9.83697 98.921 9.93555 99.0779 10.2152L101.102 9.07914ZM115.294 34.3651L101.102 9.07914L99.0779 10.2152L113.269 35.5012L115.294 34.3651ZM114.206 38.3051C115.588 37.5129 116.073 35.7542 115.294 34.3651L113.269 35.5012C113.425 35.7796 113.328 36.1326 113.051 36.2913L114.206 38.3051ZM101.543 45.5643L114.206 38.3051L113.051 36.2913L100.389 43.5505L101.543 45.5643ZM107.281 46.8306L101.542 43.5498L100.39 45.565L106.128 48.8458L107.281 46.8306ZM116.992 40.5668L106.125 46.8328L107.284 48.8437L118.151 42.5777L116.992 40.5668ZM120.461 40.5603C119.386 39.9458 118.065 39.948 116.992 40.5668L118.151 42.5777C118.509 42.3714 118.95 42.3704 119.309 42.5758L120.461 40.5603ZM144.198 54.1239L120.461 40.5603L119.309 42.5758L143.047 56.1394L144.198 54.1239ZM144.215 58.1441C145.761 57.2442 145.749 55.0103 144.198 54.1239L143.047 56.1394C143.052 56.1426 143.053 56.1439 143.051 56.1424C143.05 56.1409 143.048 56.1389 143.047 56.137C143.045 56.1337 143.047 56.1344 143.047 56.1393C143.047 56.1442 143.045 56.1448 143.047 56.1411C143.049 56.139 143.05 56.1369 143.052 56.1353C143.053 56.1336 143.053 56.1348 143.047 56.138L144.215 58.1441ZM133.981 64.1022L144.215 58.1441L143.047 56.138L132.813 62.0961L133.981 64.1022ZM141.633 66.4711L133.973 62.0915L132.821 64.1067L140.481 68.4863L141.633 66.4711ZM144.541 71.0608C144.403 69.2575 143.429 67.4982 141.633 66.4711L140.481 68.4863C141.565 69.1061 142.143 70.1498 142.226 71.2373L144.541 71.0608ZM143.397 69.9884H143.384V72.3097H143.397V69.9884ZM144.558 71.4611V71.149H142.236V71.4611H144.558ZM144.558 71.5672C144.558 71.5279 144.558 71.4886 144.558 71.4493L142.237 71.473C142.237 71.4965 142.237 71.52 142.237 71.5435L144.558 71.5672ZM144.558 78.0946V71.5554H142.236V78.0946H144.558ZM141.676 83.1482C143.617 82.0199 144.577 80.0393 144.558 78.0831L142.237 78.1062C142.248 79.2908 141.675 80.4638 140.509 81.1414L141.676 83.1482ZM83.4426 117.007L141.676 83.1482L140.509 81.1414L82.2758 115L83.4426 117.007ZM67.0275 116.977C72.095 119.944 78.3694 119.956 83.4426 117.007L82.2758 115C77.9271 117.528 72.5467 117.519 68.2006 114.973L67.0275 116.977ZM9.255 83.1426L67.0275 116.977L68.2006 114.973L10.4281 81.1395L9.255 83.1426ZM6.45343 77.2247C6.10609 79.4359 7.03562 81.8429 9.255 83.1426L10.4281 81.1395C9.09817 80.3607 8.53528 78.9304 8.74663 77.5849L6.45343 77.2247ZM6.43937 72.2347V77.4048H8.76069V72.2347H6.43937ZM9.28505 66.4838C7.04545 67.7736 6.10436 70.1921 6.45342 72.4147L8.74663 72.0546C8.53411 70.7014 9.10448 69.2666 10.4435 68.4954L9.28505 66.4838ZM67.1363 33.1677L9.28505 66.4838L10.4435 68.4954L68.2947 35.1793L67.1363 33.1677ZM67.375 33.0328C67.2951 33.0771 67.2155 33.122 67.1362 33.1677L68.2947 35.1792C68.3627 35.1401 68.431 35.1016 68.4995 35.0636L67.375 33.0328ZM64.2695 29.9461L66.9283 34.6219L68.9462 33.4745L66.2874 28.7987L64.2695 29.9461Z" fill="#1D2939" mask="url(#path-2-outside-1_731_61508)"/>
<mask id="mask0_731_61508" style="mask-type:alpha" maskUnits="userSpaceOnUse" x="7" y="31" width="69" height="88">
<rect x="7.54297" y="31.918" width="67.8986" height="86.4691" fill="#D0D8DC"/>
</mask>
<g mask="url(#mask0_731_61508)">
<path d="M67.6605 40.808C72.3146 38.1277 78.0481 38.1203 82.7151 40.7886L141.002 74.1132C144.107 75.8883 144.126 80.3499 141.038 82.1458L82.8042 116.004C78.0932 118.743 72.2658 118.733 67.559 115.976L9.7865 82.1421C6.71168 80.3413 6.72427 75.9008 9.80924 74.1242L67.6605 40.808Z" fill="#D0D5DD"/>
<path d="M67.6603 34.1743C72.3145 31.494 78.048 31.4866 82.715 34.1549L141.002 67.4795C144.106 69.2546 144.126 73.7162 141.038 75.512L82.8041 109.371C78.0931 112.11 72.2657 112.099 67.5589 109.342L9.7864 75.5083C6.71157 73.7076 6.72416 69.2671 9.80914 67.4905L67.6603 34.1743Z" fill="#D0D5DD"/>
<rect x="7.54492" y="71.1504" width="135.797" height="6.96395" fill="#D0D5DD"/>
</g>
<path d="M141.144 67.1281L82.8852 33.8308C78.1323 31.1144 72.2941 31.1247 67.5539 33.858L9.67346 67.233C6.39592 69.1229 6.38222 73.8446 9.64875 75.7571L67.3935 109.564C72.1869 112.371 78.1209 112.379 82.9189 109.586L141.182 75.6678C144.464 73.7574 144.443 69.0132 141.144 67.1281Z" fill="white" stroke="#1D2939" stroke-width="0.580329"/>
<path d="M59.5157 102.668L72.4143 102.47C74.205 102.442 75.9541 101.926 77.4727 100.977C83.292 97.5132 83.7465 89.2566 78.3426 85.1749L41.2299 57.143C37.5178 54.3392 32.4903 54.0227 28.4559 56.3387L19.4398 61.5146L9.52005 67.6057C6.52735 69.4433 6.57965 73.81 9.61551 75.5754L53.5025 101.097C55.3267 102.157 57.4057 102.701 59.5157 102.668Z" fill="#D0D5DD"/>
<path d="M143.764 54.8812L120.027 41.3175C119.22 40.8564 118.228 40.8582 117.424 41.3223L86.1198 59.3727C85.1574 59.9276 85.1514 61.3133 86.1088 61.8776L109.615 75.7329C110.43 76.2133 111.441 76.2161 112.258 75.7404L143.775 57.3929C144.74 56.831 144.734 55.4356 143.764 54.8812Z" fill="white" stroke="#1D2939" stroke-width="0.580329"/>
<path d="M134.142 49.4116L133.997 49.3291L133.853 49.4123L99.6708 69.1225L99.2487 69.3658L99.6642 69.6208L109.399 75.5946C110.219 76.0981 111.25 76.1102 112.082 75.6261L143.573 57.2937C144.538 56.7315 144.531 55.3351 143.56 54.7813L134.142 49.4116Z" fill="#FFDD33" stroke="#1D2939" stroke-width="0.580329"/>
<path d="M103.628 58.3836L101.365 57.0905C100.558 56.6294 99.5669 56.6312 98.762 57.0953L95.01 59.2588C94.0476 59.8137 94.0416 61.1993 94.999 61.7637L97.2313 63.0795C98.0463 63.5598 99.0572 63.5627 99.8744 63.087L103.639 60.8953C104.604 60.3334 104.598 58.9379 103.628 58.3836Z" fill="#FFDD33" stroke="#1D2939" stroke-width="0.580329"/>
<path d="M79.4478 54.8799L65.0252 29.5154C64.4696 28.5384 64.8125 27.2952 65.7903 26.7412L97.5721 8.73189C98.5502 8.17767 99.7915 8.5238 100.342 9.50414L114.533 34.7901C115.079 35.7628 114.739 36.9946 113.771 37.5494L82.2207 55.6372C81.2458 56.1961 80.0033 55.8567 79.4478 54.8799Z" fill="#FFDD33" stroke="#1D2939" stroke-width="0.580329"/>
<path d="M72.4773 33.6062L71.4413 31.7843C70.8858 30.8073 71.2287 29.5641 72.2065 29.0101L75.123 27.3574C76.101 26.8032 77.3424 27.1493 77.8926 28.1297L78.9101 29.9428C79.4561 30.9155 79.1159 32.1473 78.1483 32.702L75.2502 34.3635C74.2753 34.9224 73.0328 34.583 72.4773 33.6062Z" fill="#FFDD33" stroke="#1D2939" stroke-width="0.580329"/>
<path d="M87.0488 14.7979V52.8094" stroke="black" stroke-width="0.580329"/>
<path d="M93.1426 11.0254V49.3271" stroke="black" stroke-width="0.580329"/>
<path d="M98.9453 8.7041V45.8452" stroke="black" stroke-width="0.580329"/>
<path d="M104.748 17.1191L104.748 42.6536" stroke="black" stroke-width="0.580329"/>
<path d="M109.971 26.6943L109.971 40.0419" stroke="black" stroke-width="0.580329"/>
<mask id="path-20-outside-2_731_61508" maskUnits="userSpaceOnUse" x="17.5293" y="41.7041" width="81" height="61" fill="black">
<rect fill="white" x="17.5293" y="41.7041" width="81" height="61"/>
<path fill-rule="evenodd" clip-rule="evenodd" d="M32.7162 44.7965C37.39 42.0415 43.1885 42.0047 47.9029 44.7001L69.9365 57.2976C70.6538 57.7077 71.3363 58.1758 71.977 58.6973L95.2776 77.6609C96.3219 78.5108 96.881 79.6855 96.9759 80.8855L97.2036 80.9553V87.9119C97.5879 89.7278 96.8868 91.741 95.0837 92.8401L83.6165 99.8299C78.8678 102.724 72.9059 102.775 68.1022 99.9619L20.8279 72.276C19.0956 71.2615 18.341 69.4054 18.569 67.6603V56.8716L18.7504 56.9272C18.267 55.04 18.9773 52.8949 20.8843 51.7709L32.7162 44.7965Z"/>
</mask>
<path fill-rule="evenodd" clip-rule="evenodd" d="M32.7162 44.7965C37.39 42.0415 43.1885 42.0047 47.9029 44.7001L69.9365 57.2976C70.6538 57.7077 71.3363 58.1758 71.977 58.6973L95.2776 77.6609C96.3219 78.5108 96.881 79.6855 96.9759 80.8855L97.2036 80.9553V87.9119C97.5879 89.7278 96.8868 91.741 95.0837 92.8401L83.6165 99.8299C78.8678 102.724 72.9059 102.775 68.1022 99.9619L20.8279 72.276C19.0956 71.2615 18.341 69.4054 18.569 67.6603V56.8716L18.7504 56.9272C18.267 55.04 18.9773 52.8949 20.8843 51.7709L32.7162 44.7965Z" fill="white"/>
<path d="M47.9029 44.7001L48.1909 44.1963L48.1909 44.1963L47.9029 44.7001ZM32.7162 44.7965L32.4215 44.2965L32.4215 44.2965L32.7162 44.7965ZM69.9365 57.2976L70.2246 56.7938L70.2246 56.7938L69.9365 57.2976ZM71.977 58.6973L72.3433 58.2472L72.3433 58.2472L71.977 58.6973ZM95.2776 77.6609L94.9113 78.111L94.9113 78.111L95.2776 77.6609ZM96.9759 80.8855L96.3974 80.9313L96.4285 81.3248L96.806 81.4404L96.9759 80.8855ZM97.2036 80.9553H97.7839V80.5261L97.3735 80.4004L97.2036 80.9553ZM97.2036 87.9119H96.6233V87.9727L96.6358 88.0321L97.2036 87.9119ZM95.0837 92.8401L95.3857 93.3356L95.3857 93.3356L95.0837 92.8401ZM83.6165 99.8299L83.9185 100.325L83.9185 100.325L83.6165 99.8299ZM68.1022 99.9619L68.3955 99.4611L68.3955 99.4611L68.1022 99.9619ZM20.8279 72.276L21.1211 71.7753L21.1211 71.7753L20.8279 72.276ZM18.569 67.6603L19.1444 67.7355L19.1493 67.698V67.6603H18.569ZM18.569 56.8716L18.7389 56.3167L17.9886 56.0869V56.8716H18.569ZM18.7504 56.9272L18.5805 57.4821L19.5692 57.7849L19.3126 56.7831L18.7504 56.9272ZM20.8843 51.7709L21.179 52.2708L21.179 52.2708L20.8843 51.7709ZM48.1909 44.1963C43.2959 41.3976 37.2749 41.4356 32.4215 44.2965L33.0109 45.2964C37.505 42.6474 43.0811 42.6118 47.6148 45.2039L48.1909 44.1963ZM70.2246 56.7938L48.1909 44.1963L47.6148 45.2039L69.6485 57.8014L70.2246 56.7938ZM72.3433 58.2472C71.678 57.7057 70.9694 57.2196 70.2246 56.7938L69.6485 57.8014C70.3383 58.1958 70.9945 58.6459 71.6107 59.1474L72.3433 58.2472ZM95.644 77.2108L72.3433 58.2472L71.6107 59.1474L94.9113 78.111L95.644 77.2108ZM97.5544 80.8398C97.4477 79.4894 96.8172 78.1657 95.644 77.2108L94.9113 78.111C95.8267 78.856 96.3144 79.8816 96.3974 80.9313L97.5544 80.8398ZM96.806 81.4404L97.0337 81.5101L97.3735 80.4004L97.1459 80.3306L96.806 81.4404ZM96.6233 80.9553V87.9119H97.7839V80.9553H96.6233ZM95.3857 93.3356C97.4161 92.0981 98.2024 89.8283 97.7714 87.7918L96.6358 88.0321C96.9735 89.6273 96.3575 91.384 94.7816 92.3446L95.3857 93.3356ZM83.9185 100.325L95.3857 93.3356L94.7816 92.3446L83.3144 99.3344L83.9185 100.325ZM67.8089 100.463C72.7967 103.384 78.9872 103.331 83.9185 100.325L83.3144 99.3344C78.7483 102.118 73.0151 102.167 68.3955 99.4611L67.8089 100.463ZM20.5346 72.7768L67.8089 100.463L68.3955 99.4611L21.1211 71.7753L20.5346 72.7768ZM17.9935 67.5852C17.7378 69.543 18.5854 71.6353 20.5346 72.7768L21.1211 71.7753C19.6057 70.8878 18.9443 69.2678 19.1444 67.7355L17.9935 67.5852ZM19.1493 67.6603V56.8716H17.9886V67.6603H19.1493ZM18.399 57.4265L18.5805 57.4821L18.9204 56.3723L18.7389 56.3167L18.399 57.4265ZM20.5896 51.2709C18.4418 52.537 17.6461 54.9549 18.1882 57.0712L19.3126 56.7831C18.8879 55.1251 19.5128 53.2529 21.179 52.2708L20.5896 51.2709ZM32.4215 44.2965L20.5896 51.2709L21.179 52.2708L33.0109 45.2964L32.4215 44.2965Z" fill="#1D2939" mask="url(#path-20-outside-2_731_61508)"/>
<mask id="mask1_731_61508" style="mask-type:alpha" maskUnits="userSpaceOnUse" x="17" y="41" width="59" height="63">
<rect x="17.4082" y="41.2031" width="58.0329" height="62.0953" fill="#D9D9D9"/>
</mask>
<g mask="url(#mask1_731_61508)">
<path fill-rule="evenodd" clip-rule="evenodd" d="M32.7162 44.7965C37.39 42.0415 43.1885 42.0047 47.9029 44.7001L69.9365 57.2976C70.6538 57.7077 71.3363 58.1758 71.977 58.6973L95.2776 77.6609C96.3219 78.5108 96.881 79.6855 96.9759 80.8855L97.2036 80.9553V87.9119C97.5879 89.7278 96.8868 91.741 95.0837 92.8401L83.6165 99.8299C78.8678 102.724 72.9059 102.775 68.1022 99.9619L20.8279 72.276C19.0956 71.2615 18.341 69.4054 18.569 67.6603V56.8716L18.7504 56.9272C18.267 55.04 18.9773 52.8949 20.8843 51.7709L32.7162 44.7965Z" fill="#D0D5DD"/>
</g>
<path d="M83.1695 92.3614L95.1736 85.2058C98.1407 83.4371 98.4146 79.2468 95.7029 77.1046L72.2269 58.5584C71.625 58.0828 70.9883 57.6529 70.3222 57.2722L48.1011 44.572C43.3236 41.8415 37.4517 41.8671 32.7012 44.639L20.7151 51.633C17.4571 53.5341 17.4556 58.2376 20.7124 60.1443L43.4457 73.4538C44.0803 73.8253 44.6863 74.2435 45.2587 74.7049L65.6228 91.1207C70.6371 95.1629 77.6393 95.658 83.1695 92.3614Z" fill="white" stroke="#1D2939" stroke-width="0.580329"/>
<path d="M66.6628 57.033L48.3709 46.5785C46.828 45.6966 44.9327 45.7 43.3938 46.5873L25.2209 57.0662C24.0667 57.7317 24.0619 59.3944 25.2122 60.0678L43.3427 70.6825C44.8989 71.5936 46.8252 71.5962 48.3828 70.6895L66.676 60.0401C67.8316 59.3674 67.8242 57.6968 66.6628 57.033Z" fill="#D0D5DD" stroke="#1D2939" stroke-width="0.580329"/>
<path d="M57.0885 76.7563L59.0548 75.6116C59.9634 75.0827 60.0699 73.8126 59.2621 73.139C57.8847 71.9905 55.9368 71.8224 54.3837 72.7179L52.4067 73.8578C51.5077 74.3762 51.3904 75.6264 52.1771 76.3036C53.5505 77.4859 55.523 77.6677 57.0885 76.7563Z" fill="white" stroke="#1D2939" stroke-width="0.580329"/>
<path d="M62.8913 81.3989L64.8575 80.2542C65.7661 79.7253 65.8726 78.4552 65.0649 77.7816C63.6875 76.6331 61.7395 76.4649 60.1864 77.3605L58.2095 78.5004C57.3105 79.0188 57.1931 80.2689 57.9799 80.9462C59.3532 82.1285 61.3257 82.3103 62.8913 81.3989Z" fill="white" stroke="#1D2939" stroke-width="0.580329"/>
<path d="M68.1139 86.6215L70.0802 85.4769C70.9888 84.9479 71.0953 83.6778 70.2875 83.0043C68.9101 81.8558 66.9622 81.6876 65.4091 82.5831L63.4321 83.7231C62.5331 84.2415 62.4157 85.4916 63.2025 86.1689C64.5759 87.3511 66.5484 87.5329 68.1139 86.6215Z" fill="white" stroke="#1D2939" stroke-width="0.580329"/>
<path d="M75.6588 91.2641L77.6251 90.1195C78.5337 89.5905 78.6402 88.3204 77.8324 87.6468C76.455 86.4983 74.5071 86.3302 72.954 87.2257L70.9771 88.3657C70.078 88.8841 69.9607 90.1342 70.7474 90.8115C72.1208 91.9937 74.0933 92.1755 75.6588 91.2641Z" fill="#FFDD33" stroke="#1D2939" stroke-width="0.580329"/>
<path d="M65.2116 72.1137L67.1778 70.9691C68.0864 70.4401 68.1929 69.17 67.3852 68.4965C66.0078 67.3479 64.0598 67.1798 62.5067 68.0753L60.5298 69.2153C59.6308 69.7337 59.5134 70.9838 60.3002 71.6611C61.6735 72.8433 63.646 73.0251 65.2116 72.1137Z" fill="white" stroke="#1D2939" stroke-width="0.580329"/>
<path d="M71.0163 76.7563L72.9825 75.6116C73.8911 75.0827 73.9976 73.8126 73.1899 73.139C71.8125 71.9905 69.8645 71.8224 68.3114 72.7179L66.3345 73.8578C65.4355 74.3762 65.3181 75.6264 66.1049 76.3036C67.4782 77.4859 69.4507 77.6677 71.0163 76.7563Z" fill="white" stroke="#1D2939" stroke-width="0.580329"/>
<path d="M76.2389 81.979L78.2052 80.8343C79.1138 80.3053 79.2203 79.0352 78.4125 78.3617C77.0351 77.2132 75.0872 77.045 73.5341 77.9406L71.5571 79.0805C70.6581 79.5989 70.5407 80.849 71.3275 81.5263C72.7009 82.7085 74.6734 82.8903 76.2389 81.979Z" fill="white" stroke="#1D2939" stroke-width="0.580329"/>
<path d="M83.7819 86.6215L85.7481 85.4769C86.6567 84.9479 86.7633 83.6778 85.9555 83.0043C84.5781 81.8558 82.6301 81.6876 81.0771 82.5831L79.1001 83.7231C78.2011 84.2415 78.0837 85.4916 78.8705 86.1689C80.2438 87.3511 82.2163 87.5329 83.7819 86.6215Z" fill="#FFDD33" stroke="#1D2939" stroke-width="0.580329"/>
<path d="M72.7565 67.4711L74.7227 66.3265C75.6314 65.7975 75.7379 64.5274 74.9301 63.8539C73.5527 62.7054 71.6047 62.5372 70.0517 63.4327L68.0747 64.5727C67.1757 65.0911 67.0583 66.3412 67.8451 67.0185C69.2185 68.2007 71.1909 68.3825 72.7565 67.4711Z" fill="white" stroke="#1D2939" stroke-width="0.580329"/>
<path d="M78.5592 72.1137L80.5255 70.9691C81.4341 70.4401 81.5406 69.17 80.7328 68.4965C79.3554 67.3479 77.4075 67.1798 75.8544 68.0753L73.8774 69.2153C72.9784 69.7337 72.8611 70.9838 73.6478 71.6611C75.0212 72.8433 76.9937 73.0251 78.5592 72.1137Z" fill="white" stroke="#1D2939" stroke-width="0.580329"/>
<path d="M83.7819 77.3364L85.7481 76.1917C86.6567 75.6628 86.7633 74.3927 85.9555 73.7191C84.5781 72.5706 82.6301 72.4024 81.0771 73.298L79.1001 74.4379C78.2011 74.9563 78.0837 76.2064 78.8705 76.8837C80.2438 78.066 82.2163 78.2478 83.7819 77.3364Z" fill="white" stroke="#1D2939" stroke-width="0.580329"/>
<path d="M91.3268 81.979L93.2931 80.8343C94.2017 80.3053 94.3082 79.0352 93.5004 78.3617C92.123 77.2132 90.1751 77.045 88.622 77.9406L86.645 79.0805C85.746 79.5989 85.6286 80.849 86.4154 81.5263C87.7888 82.7085 89.7612 82.8903 91.3268 81.979Z" fill="#D0D5DD" stroke="#1D2939" stroke-width="0.580329"/>
<path d="M23.3802 55.0964L39.4935 45.7245C39.7352 45.584 39.7695 45.2488 39.5614 45.062C39.3401 44.8633 39.016 44.8293 38.7584 44.9778L22.6154 54.2862C22.4338 54.3909 22.3627 54.6171 22.4519 54.8068C22.6164 55.1569 23.0459 55.2909 23.3802 55.0964Z" fill="white" stroke="#1D2939" stroke-width="0.580329"/>
<path d="M57.6574 49.4053L57.1621 49.6176L71.3802 57.7422C71.3802 57.7422 94.5934 76.0226 96.0442 77.1832C97.495 78.3439 97.495 81.2455 97.495 81.2455V77.706C97.495 76.2772 96.8371 74.928 95.7114 74.0481L74.159 57.2026C72.8892 56.2101 71.5356 55.3297 70.1135 54.5712L60.6676 49.5334C59.7356 49.0363 58.6283 48.9892 57.6574 49.4053Z" fill="#D0D5DD" stroke="#1D2939" stroke-width="0.580329" stroke-linecap="round" stroke-linejoin="round"/>
</g>
<defs>
<clipPath id="clip0_731_61508">
<rect width="150" height="150" fill="white"/>
</clipPath>
</defs>
</svg>
