<svg width="150" height="150" viewBox="0 0 150 150" fill="none" xmlns="http://www.w3.org/2000/svg">
<g clip-path="url(#clip0_731_61507)">
<g clip-path="url(#clip1_731_61507)">
<path d="M67.7043 52.6339C72.3551 49.9522 78.0832 49.942 82.7463 52.6072L139.634 85.1205C142.738 86.8947 142.758 91.3598 139.669 93.1578L82.779 126.276C78.0714 129.017 72.2494 129.009 67.5464 126.256L11.1636 93.2456C8.08921 91.4457 8.1021 87.0017 11.1868 85.223L67.7043 52.6339Z" fill="#FFDD33"/>
<mask id="path-2-outside-1_731_61507" maskUnits="userSpaceOnUse" x="5.54297" y="15.2949" width="140" height="104" fill="black">
<rect fill="white" x="5.54297" y="15.2949" width="140" height="104"/>
<path fill-rule="evenodd" clip-rule="evenodd" d="M59.6339 20.2771C58.7159 18.4491 56.8452 17.2949 54.8006 17.2949L18.8164 17.2949C18.1063 17.2949 17.5386 17.7247 17.29 18.3006L17.12 17.992L14.2954 22.6347C13.9854 23.1542 14.0906 24.0472 14.2957 24.4627L29.049 54.4889C29.049 54.4889 29.2732 55.1586 29.8441 55.9857L9.86428 67.4919C8.07496 68.5224 7.31923 70.449 7.60003 72.237V77.4077C7.32069 79.186 8.0669 81.1046 9.84154 82.1439L67.614 115.978C72.3208 118.734 78.1483 118.745 82.8592 116.006L141.093 82.1476C142.646 81.2447 143.413 79.6679 143.397 78.0975V71.5583C143.397 71.5265 143.397 71.4947 143.397 71.4629V71.1519H143.384C143.274 69.7063 142.497 68.3045 141.057 67.481L127.342 59.6399L137.59 47.6985C138.347 46.8162 137.989 45.4506 136.896 45.0547L133.716 43.9025L135.279 41.85C135.983 40.9251 135.546 39.5826 134.432 39.2512L131.112 38.2632L132.715 35.8691C133.362 34.9031 132.844 33.5897 131.712 33.3266L100.916 26.1685C98.7371 25.662 96.4699 26.5509 95.2144 28.4039L88.9305 37.6784L82.7701 34.1563C78.5553 31.7466 73.4706 31.5191 69.0966 33.472C68.2466 31.8315 66.624 30.7476 64.8058 30.5752L59.6339 20.2771Z"/>
</mask>
<path fill-rule="evenodd" clip-rule="evenodd" d="M59.6339 20.2771C58.7159 18.4491 56.8452 17.2949 54.8006 17.2949L18.8164 17.2949C18.1063 17.2949 17.5386 17.7247 17.29 18.3006L17.12 17.992L14.2954 22.6347C13.9854 23.1542 14.0906 24.0472 14.2957 24.4627L29.049 54.4889C29.049 54.4889 29.2732 55.1586 29.8441 55.9857L9.86428 67.4919C8.07496 68.5224 7.31923 70.449 7.60003 72.237V77.4077C7.32069 79.186 8.0669 81.1046 9.84154 82.1439L67.614 115.978C72.3208 118.734 78.1483 118.745 82.8592 116.006L141.093 82.1476C142.646 81.2447 143.413 79.6679 143.397 78.0975V71.5583C143.397 71.5265 143.397 71.4947 143.397 71.4629V71.1519H143.384C143.274 69.7063 142.497 68.3045 141.057 67.481L127.342 59.6399L137.59 47.6985C138.347 46.8162 137.989 45.4506 136.896 45.0547L133.716 43.9025L135.279 41.85C135.983 40.9251 135.546 39.5826 134.432 39.2512L131.112 38.2632L132.715 35.8691C133.362 34.9031 132.844 33.5897 131.712 33.3266L100.916 26.1685C98.7371 25.662 96.4699 26.5509 95.2144 28.4039L88.9305 37.6784L82.7701 34.1563C78.5553 31.7466 73.4706 31.5191 69.0966 33.472C68.2466 31.8315 66.624 30.7476 64.8058 30.5752L59.6339 20.2771Z" fill="white"/>
<path d="M54.8006 17.2949L54.8006 18.4556L54.8006 17.2949ZM59.6339 20.2771L58.5967 20.798L58.5967 20.798L59.6339 20.2771ZM18.8164 17.2949L18.8164 18.4556L18.8164 17.2949ZM17.29 18.3006L16.2735 18.8608C16.4873 19.2488 16.9033 19.4812 17.3458 19.4599C17.7883 19.4386 18.1801 19.1673 18.3556 18.7606L17.29 18.3006ZM17.12 17.992L18.1365 17.4318C17.9366 17.0692 17.5588 16.8405 17.1448 16.8316C16.7309 16.8228 16.3436 17.0351 16.1284 17.3888L17.12 17.992ZM14.2954 22.6347L13.3038 22.0314L13.2988 22.0399L14.2954 22.6347ZM14.2957 24.4627L15.3374 23.9509L15.3365 23.9492L14.2957 24.4627ZM29.049 54.4889L30.1497 54.1206C30.1333 54.0715 30.1136 54.0235 30.0908 53.9771L29.049 54.4889ZM29.8441 55.9857L30.4234 56.9915C30.7044 56.8296 30.9049 56.5576 30.9763 56.2413C31.0477 55.9249 30.9835 55.5931 30.7993 55.3263L29.8441 55.9857ZM9.86428 67.4919L9.28505 66.4861L9.28505 66.4861L9.86428 67.4919ZM7.60003 72.237H8.76069C8.76069 72.1767 8.75599 72.1165 8.74663 72.0569L7.60003 72.237ZM7.60003 77.4077L8.74663 77.5878C8.75598 77.5282 8.76069 77.468 8.76069 77.4077H7.60003ZM9.84154 82.1439L10.4281 81.1424L10.4281 81.1424L9.84154 82.1439ZM67.614 115.978L67.0275 116.979L67.0275 116.979L67.614 115.978ZM82.8592 116.006L83.4426 117.009L83.4426 117.009L82.8592 116.006ZM141.093 82.1476L140.509 81.1443L140.509 81.1443L141.093 82.1476ZM143.397 78.0975H142.236L142.237 78.1091L143.397 78.0975ZM143.397 71.5583L142.236 71.5466V71.5583H143.397ZM143.397 71.4629H142.236L142.237 71.4746L143.397 71.4629ZM143.397 71.1519H144.558C144.558 70.5109 144.038 69.9913 143.397 69.9913V71.1519ZM143.384 71.1519L142.226 71.24C142.273 71.8451 142.777 72.3126 143.384 72.3126V71.1519ZM141.057 67.481L141.633 66.4734L141.633 66.4734L141.057 67.481ZM127.342 59.6399L126.462 58.8841C126.236 59.1468 126.14 59.4964 126.199 59.8375C126.258 60.1787 126.466 60.4757 126.766 60.6475L127.342 59.6399ZM137.59 47.6985L136.709 46.9426L136.709 46.9426L137.59 47.6985ZM136.896 45.0547L136.501 46.146L136.501 46.146L136.896 45.0547ZM133.716 43.9025L132.793 43.1993C132.569 43.4931 132.498 43.8758 132.603 44.2301C132.707 44.5844 132.974 44.8679 133.321 44.9937L133.716 43.9025ZM135.279 41.85L134.356 41.1468L134.356 41.1468L135.279 41.85ZM134.432 39.2512L134.763 38.1388L134.763 38.1388L134.432 39.2512ZM131.112 38.2632L130.148 37.6174C129.942 37.9239 129.895 38.3096 130.02 38.6565C130.145 39.0035 130.428 39.2704 130.781 39.3756L131.112 38.2632ZM132.715 35.8691L131.751 35.2234L131.751 35.2234L132.715 35.8691ZM131.712 33.3266L131.975 32.1961L131.975 32.1961L131.712 33.3266ZM100.916 26.1685L100.653 27.299L100.653 27.299L100.916 26.1685ZM95.2144 28.4039L94.2535 27.7529L94.2535 27.7529L95.2144 28.4039ZM88.9305 37.6784L88.3544 38.686C88.8812 38.9872 89.551 38.8318 89.8914 38.3295L88.9305 37.6784ZM82.7701 34.1563L83.3462 33.1487L83.3462 33.1487L82.7701 34.1563ZM69.0966 33.472L68.0661 34.006C68.349 34.5519 69.0084 34.7825 69.5698 34.5318L69.0966 33.472ZM64.8058 30.5752L63.7686 31.0961C63.9479 31.4532 64.2984 31.6929 64.6962 31.7307L64.8058 30.5752ZM54.8006 18.4556C56.406 18.4556 57.8755 19.362 58.5967 20.798L60.6711 19.7562C59.5562 17.5363 57.2843 16.1343 54.8006 16.1343L54.8006 18.4556ZM18.8164 18.4556L54.8006 18.4556L54.8006 16.1343L18.8164 16.1343L18.8164 18.4556ZM18.3556 18.7606C18.435 18.5767 18.6047 18.4556 18.8164 18.4556V16.1343C17.6079 16.1343 16.6422 16.8728 16.2244 17.8406L18.3556 18.7606ZM16.1035 18.5523L16.2735 18.8608L18.3065 17.7404L18.1365 17.4318L16.1035 18.5523ZM15.287 23.2379L18.1115 18.5953L16.1284 17.3888L13.3039 22.0314L15.287 23.2379ZM15.3365 23.9492C15.3379 23.9518 15.3328 23.9418 15.3244 23.9167C15.3162 23.8925 15.3069 23.8599 15.2978 23.8197C15.2794 23.738 15.266 23.6415 15.2622 23.5427C15.2583 23.443 15.2649 23.3579 15.2767 23.2944C15.2891 23.2282 15.302 23.2128 15.2921 23.2295L13.2988 22.0399C12.9809 22.5725 12.9252 23.1838 12.9426 23.6326C12.9604 24.0903 13.0625 24.5866 13.2549 24.9763L15.3365 23.9492ZM30.0908 53.9771L15.3374 23.9509L13.254 24.9746L28.0073 55.0008L30.0908 53.9771ZM30.7993 55.3263C30.5561 54.9739 30.388 54.6568 30.2827 54.4331C30.2303 54.3216 30.1941 54.2346 30.1723 54.1797C30.1615 54.1523 30.1543 54.133 30.1506 54.1228C30.1488 54.1177 30.1478 54.1149 30.1476 54.1145C30.1476 54.1142 30.1477 54.1146 30.148 54.1157C30.1482 54.1162 30.1484 54.1168 30.1487 54.1176C30.1489 54.118 30.149 54.1185 30.1492 54.119C30.1493 54.1192 30.1493 54.1195 30.1494 54.1197C30.1495 54.1199 30.1495 54.1201 30.1496 54.1201C30.1496 54.1204 30.1497 54.1206 29.049 54.4889C27.9484 54.8573 27.9485 54.8575 27.9485 54.8577C27.9486 54.8578 27.9486 54.858 27.9487 54.8582C27.9488 54.8585 27.9489 54.8588 27.949 54.8591C27.9492 54.8598 27.9495 54.8605 27.9497 54.8612C27.9502 54.8627 27.9508 54.8643 27.9514 54.8661C27.9526 54.8697 27.9541 54.8739 27.9558 54.8788C27.9592 54.8886 27.9636 54.901 27.969 54.9158C27.9797 54.9455 27.9945 54.985 28.0136 55.0332C28.0518 55.1297 28.1073 55.2619 28.1822 55.4212C28.3318 55.7391 28.5613 56.1704 28.889 56.6451L30.7993 55.3263ZM10.4435 68.4977L30.4234 56.9915L29.2649 54.9799L9.28505 66.4861L10.4435 68.4977ZM8.74663 72.0569C8.53411 70.7037 9.10447 69.2689 10.4435 68.4977L9.28505 66.4861C7.04545 67.7759 6.10436 70.1944 6.45342 72.417L8.74663 72.0569ZM8.76069 77.4077V72.237H6.43937V77.4077H8.76069ZM10.4281 81.1424C9.09817 80.3635 8.53528 78.9333 8.74663 77.5878L6.45343 77.2276C6.10609 79.4388 7.03562 81.8457 9.255 83.1455L10.4281 81.1424ZM68.2006 114.976L10.4281 81.1424L9.255 83.1455L67.0275 116.979L68.2006 114.976ZM82.2758 115.003C77.9271 117.531 72.5467 117.522 68.2006 114.976L67.0275 116.979C72.095 119.947 78.3694 119.959 83.4426 117.009L82.2758 115.003ZM140.509 81.1443L82.2758 115.003L83.4426 117.009L141.676 83.151L140.509 81.1443ZM142.237 78.1091C142.248 79.2936 141.675 80.4666 140.509 81.1443L141.676 83.151C143.617 82.0228 144.577 80.0422 144.558 78.0859L142.237 78.1091ZM142.236 71.5583V78.0975H144.558V71.5583H142.236ZM142.237 71.4746C142.237 71.4986 142.237 71.5226 142.237 71.5466L144.558 71.57C144.558 71.5304 144.558 71.4908 144.558 71.4512L142.237 71.4746ZM142.236 71.1519V71.4629H144.558V71.1519H142.236ZM143.384 72.3126H143.397V69.9913H143.384V72.3126ZM140.481 68.4886C141.565 69.1084 142.144 70.1524 142.226 71.24L144.541 71.0638C144.404 69.2603 143.43 67.5006 141.633 66.4734L140.481 68.4886ZM126.766 60.6475L140.481 68.4886L141.633 66.4734L127.918 58.6323L126.766 60.6475ZM136.709 46.9426L126.462 58.8841L128.223 60.3958L138.471 48.4543L136.709 46.9426ZM136.501 46.146C136.829 46.2649 136.938 46.6756 136.709 46.9426L138.471 48.4543C139.756 46.9569 139.148 44.6362 137.292 43.9635L136.501 46.146ZM133.321 44.9937L136.501 46.146L137.292 43.9635L134.112 42.8112L133.321 44.9937ZM134.356 41.1468L132.793 43.1993L134.64 44.6056L136.203 42.5532L134.356 41.1468ZM134.101 40.3637C134.436 40.4632 134.569 40.8669 134.356 41.1468L136.203 42.5532C137.398 40.9833 136.656 38.702 134.763 38.1388L134.101 40.3637ZM130.781 39.3756L134.101 40.3637L134.763 38.1388L131.443 37.1507L130.781 39.3756ZM132.077 38.9089L133.679 36.5148L131.751 35.2234L130.148 37.6174L132.077 38.9089ZM133.679 36.5148C134.777 34.8751 133.898 32.6432 131.975 32.1961L131.449 34.4572C131.789 34.5362 131.946 34.931 131.751 35.2234L133.679 36.5148ZM131.975 32.1961L101.179 25.038L100.653 27.299L131.449 34.4572L131.975 32.1961ZM101.179 25.038C98.5318 24.4227 95.7782 25.5025 94.2535 27.7529L96.1753 29.0549C97.1616 27.5992 98.9425 26.9013 100.653 27.299L101.179 25.038ZM94.2535 27.7529L87.9696 37.0274L89.8914 38.3295L96.1753 29.0549L94.2535 27.7529ZM82.194 35.1639L88.3544 38.686L89.5066 36.6708L83.3462 33.1487L82.194 35.1639ZM69.5698 34.5318C73.6076 32.7291 78.3024 32.9389 82.194 35.1639L83.3462 33.1487C78.8082 30.5542 73.3336 30.3092 68.6235 32.4122L69.5698 34.5318ZM64.6962 31.7307C66.1238 31.866 67.3985 32.7175 68.0661 34.006L70.1272 32.9381C69.0948 30.9456 67.1242 29.6291 64.9153 29.4197L64.6962 31.7307ZM58.5967 20.798L63.7686 31.0961L65.843 30.0543L60.6711 19.7562L58.5967 20.798Z" fill="#1D2939" mask="url(#path-2-outside-1_731_61507)"/>
<mask id="mask0_731_61507" style="mask-type:alpha" maskUnits="userSpaceOnUse" x="7" y="31" width="69" height="88">
<rect x="7.54297" y="31.9189" width="67.8986" height="86.4691" fill="#D0D8DC"/>
</mask>
<g mask="url(#mask0_731_61507)">
<path d="M67.6605 40.809C72.3146 38.1287 78.0481 38.1213 82.7151 40.7896L141.002 74.1142C144.107 75.8893 144.126 80.3509 141.038 82.1467L82.8042 116.005C78.0932 118.744 72.2658 118.734 67.559 115.977L9.7865 82.143C6.71168 80.3423 6.72427 75.9018 9.80924 74.1252L67.6605 40.809Z" fill="#D0D5DD"/>
<path d="M67.6603 34.1753C72.3145 31.495 78.048 31.4876 82.715 34.1558L141.002 67.4805C144.106 69.2556 144.126 73.7171 141.038 75.513L82.8041 109.371C78.0931 112.111 72.2657 112.1 67.5589 109.343L9.7864 75.5093C6.71157 73.7086 6.72416 69.268 9.80914 67.4914L67.6603 34.1753Z" fill="#D0D5DD"/>
<rect x="7.54492" y="71.1514" width="135.797" height="6.96395" fill="#D0D5DD"/>
</g>
<path d="M141.144 67.1291L82.8852 33.8318C78.1323 31.1153 72.2941 31.1257 67.5539 33.859L9.67346 67.234C6.39592 69.1239 6.38222 73.8456 9.64875 75.758L67.3935 109.565C72.1869 112.372 78.1209 112.38 82.9189 109.587L141.182 75.6687C144.464 73.7584 144.443 69.0142 141.144 67.1291Z" fill="white" stroke="#1D2939" stroke-width="0.580329"/>
<path d="M44.1057 95.4651H71.0911H94.0141L101.849 86.7601L86.4698 60.3551H71.4434C68.5527 60.3551 65.7143 59.584 63.221 58.1213L45.2664 47.5879L30.1778 55.4223L9.75438 67.3722C6.68952 69.1655 6.69051 73.5956 9.75617 75.3875L44.1057 95.4651Z" fill="#D0D5DD"/>
<mask id="path-10-inside-2_731_61507" fill="white">
<path fill-rule="evenodd" clip-rule="evenodd" d="M128.514 69.498C129.789 72.0247 134.391 72.6653 139.053 70.8985C143.716 69.1317 146.738 65.6017 146.018 62.8646L146.034 62.8583L144.752 59.4741L144.75 59.4748C143.621 56.7829 138.901 56.0618 134.118 57.8743C129.335 59.6868 126.279 63.3551 127.217 66.1191L127.216 66.1197L127.243 66.1921C127.247 66.2021 127.251 66.2121 127.254 66.2221C127.258 66.2321 127.262 66.2421 127.266 66.2521L128.36 69.139C128.367 69.1582 128.374 69.1773 128.381 69.1963C128.388 69.2154 128.396 69.2343 128.403 69.2532L128.498 69.5039L128.514 69.498Z"/>
</mask>
<path fill-rule="evenodd" clip-rule="evenodd" d="M128.514 69.498C129.789 72.0247 134.391 72.6653 139.053 70.8985C143.716 69.1317 146.738 65.6017 146.018 62.8646L146.034 62.8583L144.752 59.4741L144.75 59.4748C143.621 56.7829 138.901 56.0618 134.118 57.8743C129.335 59.6868 126.279 63.3551 127.217 66.1191L127.216 66.1197L127.243 66.1921C127.247 66.2021 127.251 66.2121 127.254 66.2221C127.258 66.2321 127.262 66.2421 127.266 66.2521L128.36 69.139C128.367 69.1582 128.374 69.1773 128.381 69.1963C128.388 69.2154 128.396 69.2343 128.403 69.2532L128.498 69.5039L128.514 69.498Z" fill="#1D2939"/>
<path d="M128.514 69.498L129.032 69.2366L128.797 68.7702L128.308 68.9553L128.514 69.498ZM146.018 62.8646L145.812 62.3219L145.324 62.507L145.457 63.0122L146.018 62.8646ZM146.034 62.8583L146.24 63.4009L146.783 63.1953L146.577 62.6526L146.034 62.8583ZM144.752 59.4741L145.295 59.2684L145.089 58.7257L144.546 58.9314L144.752 59.4741ZM144.75 59.4748L144.215 59.6992L144.432 60.2161L144.956 60.0175L144.75 59.4748ZM127.217 66.1191L127.423 66.6618L127.947 66.4632L127.767 65.9325L127.217 66.1191ZM127.216 66.1197L127.01 65.577L126.467 65.7827L126.673 66.3254L127.216 66.1197ZM127.243 66.1921L127.788 65.992L127.786 65.9864L127.243 66.1921ZM127.266 66.2521L127.809 66.0464L127.806 66.0409L127.266 66.2521ZM128.36 69.139L128.907 68.9439L128.903 68.9334L128.36 69.139ZM128.403 69.2532L128.946 69.0475L128.942 69.037L128.403 69.2532ZM128.498 69.5039L127.956 69.7096L128.161 70.2522L128.704 70.0466L128.498 69.5039ZM127.996 69.7594C128.756 71.2659 130.451 72.1159 132.436 72.3835C134.439 72.6535 136.853 72.353 139.259 71.4412L138.848 70.3559C136.592 71.2108 134.373 71.4735 132.591 71.2332C130.79 70.9905 129.547 70.2569 129.032 69.2366L127.996 69.7594ZM139.259 71.4412C141.665 70.5294 143.672 69.1546 144.993 67.6247C146.302 66.109 147.008 64.3488 146.579 62.717L145.457 63.0122C145.747 64.1174 145.302 65.4909 144.115 66.8661C142.939 68.2272 141.104 69.5009 138.848 70.3559L139.259 71.4412ZM145.829 62.3156L145.812 62.3219L146.223 63.4073L146.24 63.4009L145.829 62.3156ZM144.209 59.6797L145.492 63.0639L146.577 62.6526L145.295 59.2684L144.209 59.6797ZM144.956 60.0175L144.958 60.0167L144.546 58.9314L144.544 58.9321L144.956 60.0175ZM145.285 59.2504C144.609 57.6378 142.906 56.7163 140.891 56.4116C138.857 56.104 136.38 56.3964 133.913 57.3316L134.324 58.417C136.639 57.5397 138.913 57.2863 140.718 57.5592C142.54 57.8348 143.762 58.6199 144.215 59.6992L145.285 59.2504ZM133.913 57.3316C131.445 58.2669 129.396 59.6895 128.077 61.2677C126.77 62.8315 126.105 64.6499 126.668 66.3057L127.767 65.9325C127.39 64.8242 127.785 63.4265 128.967 62.0121C130.138 60.612 132.009 59.2942 134.324 58.417L133.913 57.3316ZM127.421 66.6624L127.423 66.6618L127.012 65.5764L127.01 65.577L127.421 66.6624ZM127.786 65.9864L127.758 65.9141L126.673 66.3254L126.7 66.3977L127.786 65.9864ZM126.698 66.3922C126.703 66.4041 126.707 66.4159 126.712 66.4278L127.797 66.0165C127.794 66.0083 127.791 66.0002 127.788 65.992L126.698 66.3922ZM126.712 66.4278C126.716 66.4396 126.721 66.4515 126.725 66.4633L127.806 66.0409C127.803 66.0328 127.8 66.0247 127.797 66.0165L126.712 66.4278ZM128.903 68.9334L127.809 66.0464L126.723 66.4577L127.817 69.3447L128.903 68.9334ZM127.813 69.3341C127.821 69.3568 127.83 69.3794 127.838 69.402L128.924 68.9907C128.918 68.9751 128.912 68.9596 128.906 68.944L127.813 69.3341ZM127.838 69.402C127.847 69.4245 127.856 69.447 127.865 69.4693L128.942 69.037C128.936 69.0217 128.93 69.0062 128.924 68.9907L127.838 69.402ZM129.041 69.2983L128.946 69.0475L127.86 69.4588L127.956 69.7096L129.041 69.2983ZM128.308 68.9553L128.293 68.9612L128.704 70.0466L128.719 70.0407L128.308 68.9553Z" fill="#1D2939" mask="url(#path-10-inside-2_731_61507)"/>
<path d="M130.725 71.3568L129.598 68.3828L130.124 68.535L131.271 71.5603L130.725 71.3568Z" fill="#FFDD33"/>
<path d="M144.519 59.6795C144.992 60.9281 144.555 62.4467 143.345 63.9188C142.14 65.3837 140.206 66.7502 137.824 67.6532C135.441 68.5561 133.087 68.8145 131.214 68.5157C129.332 68.2156 127.998 67.3681 127.525 66.1195C127.052 64.8708 127.489 63.3522 128.7 61.8801C129.904 60.4152 131.838 59.0487 134.221 58.1458C136.603 57.2428 138.957 56.9845 140.83 57.2832C142.712 57.5834 144.046 58.4308 144.519 59.6795Z" fill="#FFDD33" stroke="#1D2939" stroke-width="0.580329"/>
<path d="M142.366 60.4952C142.711 61.4041 142.398 62.5238 141.493 63.6254C140.594 64.7199 139.146 65.7446 137.358 66.4221C135.57 67.0997 133.807 67.2917 132.409 67.0681C131.001 66.8429 130.024 66.2118 129.68 65.3029C129.336 64.394 129.648 63.2743 130.553 62.1727C131.453 61.0782 132.9 60.0535 134.688 59.376C136.476 58.6984 138.239 58.5063 139.638 58.73C141.046 58.9551 142.022 59.5862 142.366 60.4952Z" fill="#D0D5DD" stroke="#1D2939" stroke-width="0.580329"/>
<path d="M141.911 60.8433C142.239 61.7095 141.94 62.7797 141.071 63.8361C140.208 64.8853 138.818 65.8685 137.101 66.5192C135.383 67.17 133.691 67.355 132.349 67.1415C130.998 66.9266 130.065 66.3229 129.737 65.4567C129.409 64.5905 129.707 63.5203 130.576 62.4639C131.44 61.4147 132.83 60.4315 134.547 59.7807C136.264 59.13 137.957 58.945 139.299 59.1585C140.65 59.3734 141.582 59.9771 141.911 60.8433Z" fill="#FFDD33" stroke="#1D2939" stroke-width="0.580329"/>
<mask id="path-16-inside-3_731_61507" fill="white">
<path fill-rule="evenodd" clip-rule="evenodd" d="M93.3354 18.5461C93.3473 18.5261 93.3589 18.5058 93.3704 18.4854C93.3819 18.465 93.3931 18.4445 93.4041 18.4239L94.9012 15.7619C94.9106 15.7459 94.9198 15.7298 94.9289 15.7135C94.938 15.6973 94.947 15.681 94.9558 15.6647L94.9821 15.6179L94.9809 15.6172C96.3223 13.0245 93.8483 8.94056 89.3901 6.4334C84.932 3.92625 80.1571 3.93363 78.6384 6.42656L78.6363 6.42539L76.8624 9.57984L76.8782 9.58873C75.7576 12.1874 78.218 16.1293 82.5634 18.573C86.9088 21.0168 91.5552 21.0716 93.1937 18.7642L93.2082 18.7723L93.3354 18.5461Z"/>
</mask>
<path fill-rule="evenodd" clip-rule="evenodd" d="M93.3354 18.5461C93.3473 18.5261 93.3589 18.5058 93.3704 18.4854C93.3819 18.465 93.3931 18.4445 93.4041 18.4239L94.9012 15.7619C94.9106 15.7459 94.9198 15.7298 94.9289 15.7135C94.938 15.6973 94.947 15.681 94.9558 15.6647L94.9821 15.6179L94.9809 15.6172C96.3223 13.0245 93.8483 8.94056 89.3901 6.4334C84.932 3.92625 80.1571 3.93363 78.6384 6.42656L78.6363 6.42539L76.8624 9.57984L76.8782 9.58873C75.7576 12.1874 78.218 16.1293 82.5634 18.573C86.9088 21.0168 91.5552 21.0716 93.1937 18.7642L93.2082 18.7723L93.3354 18.5461Z" fill="#1D2939"/>
<path d="M93.3354 18.5461L92.8359 18.2504L92.8295 18.2617L93.3354 18.5461ZM93.4041 18.4239L92.8982 18.1394L92.8921 18.1508L93.4041 18.4239ZM94.9012 15.7619L94.4004 15.4684L94.3953 15.4774L94.9012 15.7619ZM94.9558 15.6647L94.4499 15.3802L94.445 15.3893L94.9558 15.6647ZM94.9821 15.6179L95.488 15.9023L95.7724 15.3965L95.2666 15.1121L94.9821 15.6179ZM94.9809 15.6172L94.4655 15.3505L94.208 15.8483L94.6965 16.123L94.9809 15.6172ZM78.6384 6.42656L78.354 6.93239L78.8425 7.20711L79.134 6.72848L78.6384 6.42656ZM78.6363 6.42539L78.9208 5.91956L78.415 5.63509L78.1305 6.14092L78.6363 6.42539ZM76.8624 9.57984L76.3565 9.29537L76.0721 9.8012L76.5779 10.0857L76.8624 9.57984ZM76.8782 9.58873L77.4111 9.81851L77.6179 9.33891L77.1626 9.0829L76.8782 9.58873ZM93.1937 18.7642L93.4782 18.2584L93.0229 18.0024L92.7206 18.4282L93.1937 18.7642ZM93.2082 18.7723L92.9237 19.2782L93.4295 19.5626L93.714 19.0568L93.2082 18.7723ZM93.8347 18.8418C93.8488 18.818 93.8627 18.794 93.8762 18.7699L92.8646 18.2009C92.8552 18.2176 92.8457 18.2341 92.836 18.2505L93.8347 18.8418ZM93.8762 18.7699C93.8898 18.7457 93.9031 18.7214 93.9162 18.697L92.8921 18.1508C92.8831 18.1676 92.8739 18.1843 92.8646 18.2009L93.8762 18.7699ZM94.3953 15.4774L92.8983 18.1394L93.9099 18.7084L95.407 16.0463L94.3953 15.4774ZM95.4019 16.0553C95.413 16.0363 95.424 16.0172 95.4347 15.998L94.4231 15.4291C94.4156 15.4423 94.4081 15.4554 94.4005 15.4685L95.4019 16.0553ZM95.4347 15.998C95.4455 15.9788 95.4562 15.9595 95.4666 15.9401L94.445 15.3893C94.4378 15.4026 94.4305 15.4158 94.4231 15.4291L95.4347 15.998ZM94.4763 15.3334L94.45 15.3802L95.4616 15.9492L95.488 15.9023L94.4763 15.3334ZM94.6965 16.123L94.6977 16.1237L95.2666 15.1121L95.2654 15.1114L94.6965 16.123ZM95.4963 15.8839C96.2999 14.3308 95.9149 12.4334 94.8562 10.6918C93.7878 8.93413 91.975 7.22125 89.6746 5.92758L89.1057 6.93923C91.2634 8.15271 92.9166 9.7354 93.8644 11.2947C94.822 12.87 95.0033 14.311 94.4655 15.3505L95.4963 15.8839ZM89.6746 5.92758C87.3742 4.6339 84.9689 3.97455 82.912 3.97462C80.8738 3.97469 79.0526 4.63128 78.1428 6.12464L79.134 6.72848C79.743 5.72891 81.0685 5.13534 82.912 5.13528C84.7367 5.13522 86.9479 5.72576 89.1057 6.93923L89.6746 5.92758ZM78.3519 6.93121L78.354 6.93239L78.9229 5.92073L78.9208 5.91956L78.3519 6.93121ZM77.3682 9.8643L79.1422 6.70985L78.1305 6.14092L76.3565 9.29537L77.3682 9.8643ZM77.1626 9.0829L77.1468 9.07401L76.5779 10.0857L76.5937 10.0946L77.1626 9.0829ZM76.3453 9.35895C75.6772 10.9083 76.1124 12.7541 77.1801 14.4484C78.2577 16.1585 80.0363 17.8177 82.2789 19.0789L82.8479 18.0672C80.7451 16.8847 79.1208 15.351 78.162 13.8296C77.1933 12.2923 76.9586 10.8679 77.4111 9.81851L76.3453 9.35895ZM82.2789 19.0789C84.5216 20.3401 86.8632 20.998 88.8843 21.0306C90.8867 21.0628 92.69 20.4759 93.6669 19.1002L92.7206 18.4282C92.0589 19.3599 90.7198 19.8993 88.903 19.87C87.1049 19.8411 84.9506 19.2498 82.8479 18.0672L82.2789 19.0789ZM93.4926 18.2665L93.4782 18.2584L92.9092 19.27L92.9237 19.2782L93.4926 18.2665ZM92.8295 18.2617L92.7023 18.4879L93.714 19.0568L93.8412 18.8306L92.8295 18.2617Z" fill="#1D2939" mask="url(#path-16-inside-3_731_61507)"/>
<path d="M76.8688 12.4772L78.4277 9.70508L78.6488 10.2069L77.063 13.0268L76.8688 12.4772Z" fill="#FFDD33"/>
<path d="M94.6756 15.5711C94.021 16.7349 92.5755 17.3735 90.6698 17.3889C88.7733 17.4043 86.4846 16.797 84.2637 15.548C82.0428 14.299 80.335 12.6588 79.363 11.0303C78.3863 9.3938 78.1811 7.8269 78.8356 6.66303C79.4901 5.49917 80.9357 4.86061 82.8414 4.84516C84.7379 4.82978 87.0266 5.43709 89.2475 6.68608C91.4684 7.93506 93.1762 9.57525 94.1481 11.2038C95.1249 12.8403 95.3301 14.4072 94.6756 15.5711Z" fill="#FFDD33" stroke="#1D2939" stroke-width="0.580329"/>
<path d="M92.6692 14.4425C92.1927 15.2898 91.133 15.7678 89.7073 15.78C88.2909 15.792 86.5763 15.3386 84.9098 14.4013C83.2433 13.4641 81.9651 12.2346 81.2397 11.0179C80.5095 9.79341 80.3675 8.63955 80.844 7.79232C81.3204 6.94509 82.3802 6.46705 83.8058 6.45491C85.2223 6.44284 86.9368 6.89632 88.6034 7.83354C90.2699 8.77076 91.548 10.0003 92.2735 11.2169C93.0037 12.4415 93.1456 13.5953 92.6692 14.4425Z" fill="#D0D5DD" stroke="#1D2939" stroke-width="0.580329"/>
<path d="M92.1098 14.3165C91.6557 15.1239 90.6432 15.5813 89.2752 15.5919C87.9165 15.6024 86.2706 15.1665 84.67 14.2663C83.0694 13.3661 81.8419 12.1862 81.1451 11.0197C80.4435 9.8453 80.3084 8.74247 80.7625 7.93507C81.2166 7.12768 82.2291 6.67024 83.5971 6.65968C84.9558 6.64919 86.6017 7.08512 88.2023 7.98528C89.8029 8.88544 91.0304 10.0654 91.7272 11.2318C92.4287 12.4063 92.5638 13.5091 92.1098 14.3165Z" fill="#FFDD33" stroke="#1D2939" stroke-width="0.580329"/>
<mask id="path-22-inside-4_731_61507" fill="white">
<path fill-rule="evenodd" clip-rule="evenodd" d="M34.5725 72.5357C33.6968 75.2269 36.5114 78.9245 41.0645 80.9558C45.6177 82.9872 50.2494 82.6116 51.6672 80.1622L51.683 80.1692L53.1575 76.8642L53.1555 76.8633C54.2511 74.1576 51.4098 70.3202 46.7389 68.2363C42.068 66.1525 37.3143 66.6016 36.0328 69.2242L36.0313 69.2236L36.004 69.2848C35.998 69.2977 35.9921 69.3106 35.9864 69.3235C35.9806 69.3365 35.9749 69.3495 35.9693 69.3625L34.6989 72.2101C34.6962 72.2161 34.6935 72.222 34.6908 72.228C34.6882 72.234 34.6855 72.24 34.6829 72.246L34.5568 72.5286L34.5725 72.5357Z"/>
</mask>
<path fill-rule="evenodd" clip-rule="evenodd" d="M34.5725 72.5357C33.6968 75.2269 36.5114 78.9245 41.0645 80.9558C45.6177 82.9872 50.2494 82.6116 51.6672 80.1622L51.683 80.1692L53.1575 76.8642L53.1555 76.8633C54.2511 74.1576 51.4098 70.3202 46.7389 68.2363C42.068 66.1525 37.3143 66.6016 36.0328 69.2242L36.0313 69.2236L36.004 69.2848C35.998 69.2977 35.9921 69.3106 35.9864 69.3235C35.9806 69.3365 35.9749 69.3495 35.9693 69.3625L34.6989 72.2101C34.6962 72.2161 34.6935 72.222 34.6908 72.228C34.6882 72.234 34.6855 72.24 34.6829 72.246L34.5568 72.5286L34.5725 72.5357Z" fill="#1D2939"/>
<path d="M34.5725 72.5357L35.1244 72.7152L35.286 72.2185L34.809 72.0057L34.5725 72.5357ZM51.6672 80.1622L51.9036 79.6322L51.4266 79.4194L51.1649 79.8715L51.6672 80.1622ZM51.683 80.1692L51.4466 80.6992L51.9766 80.9357L52.213 80.4057L51.683 80.1692ZM53.1575 76.8642L53.6875 77.1006L53.924 76.5706L53.394 76.3342L53.1575 76.8642ZM53.1555 76.8633L52.6176 76.6455L52.4073 77.1649L52.9191 77.3933L53.1555 76.8633ZM36.0328 69.2242L35.7963 69.7542L36.3081 69.9825L36.5542 69.479L36.0328 69.2242ZM36.0313 69.2236L36.2677 68.6936L35.7377 68.4571L35.5013 68.9871L36.0313 69.2236ZM36.004 69.2848L36.5307 69.5284L36.5339 69.5213L36.004 69.2848ZM35.9693 69.3625L36.4993 69.5989L36.5024 69.5917L35.9693 69.3625ZM34.6989 72.2101L35.2274 72.4499L35.2289 72.4466L34.6989 72.2101ZM34.6829 72.246L35.2129 72.4824L35.2143 72.4791L34.6829 72.246ZM34.5568 72.5286L34.0268 72.2922L33.7904 72.8222L34.3203 73.0586L34.5568 72.5286ZM34.0207 72.3561C33.4986 73.9606 34.1026 75.7584 35.3224 77.3467C36.5537 78.9499 38.4782 80.4375 40.8281 81.4858L41.301 80.4259C39.0977 79.4429 37.3384 78.066 36.243 76.6397C35.1362 75.1986 34.7708 73.802 35.1244 72.7152L34.0207 72.3561ZM40.8281 81.4858C43.178 82.5342 45.5706 82.9726 47.5861 82.8179C49.5829 82.6647 51.3242 81.9132 52.1694 80.4529L51.1649 79.8715C50.5924 80.8605 49.309 81.5216 47.4972 81.6607C45.7041 81.7983 43.5043 81.4088 41.301 80.4259L40.8281 81.4858ZM51.9195 79.6393L51.9036 79.6322L51.4307 80.6921L51.4466 80.6992L51.9195 79.6393ZM52.6276 76.6277L51.153 79.9328L52.213 80.4057L53.6875 77.1006L52.6276 76.6277ZM52.9191 77.3933L52.9211 77.3942L53.394 76.3342L53.392 76.3333L52.9191 77.3933ZM53.6934 77.0811C54.3497 75.4603 53.7908 73.6068 52.5755 71.9706C51.3491 70.3194 49.3855 68.7816 46.9753 67.7063L46.5025 68.7663C48.7632 69.7749 50.5558 71.1978 51.6438 72.6627C52.743 74.1426 53.0569 75.5606 52.6176 76.6455L53.6934 77.0811ZM46.9753 67.7063C44.5652 66.6311 42.1092 66.1971 40.0611 66.3875C38.0318 66.5761 36.2791 67.3984 35.5114 68.9694L36.5542 69.479C37.068 68.4274 38.3329 67.7138 40.1685 67.5432C41.9854 67.3743 44.2417 67.7577 46.5025 68.7663L46.9753 67.7063ZM35.7948 69.7535L35.7963 69.7542L36.2692 68.6943L36.2677 68.6936L35.7948 69.7535ZM36.5339 69.5213L36.5613 69.46L35.5013 68.9871L35.474 69.0484L36.5339 69.5213ZM35.4772 69.0412C35.4702 69.0565 35.4632 69.0718 35.4564 69.0871L36.5163 69.56C36.5211 69.5494 36.5258 69.5389 36.5307 69.5284L35.4772 69.0412ZM35.4564 69.0871C35.4495 69.1024 35.4428 69.1178 35.4362 69.1332L36.5024 69.5917C36.507 69.5811 36.5116 69.5705 36.5163 69.56L35.4564 69.0871ZM35.2289 72.4466L36.4993 69.5989L35.4393 69.126L34.1689 71.9737L35.2289 72.4466ZM34.1704 71.9704C34.1672 71.9774 34.164 71.9845 34.1608 71.9916L35.2208 72.4645C35.223 72.4596 35.2252 72.4547 35.2274 72.4499L34.1704 71.9704ZM34.1608 71.9916C34.1577 71.9987 34.1546 72.0057 34.1514 72.0128L35.2143 72.4791C35.2165 72.4742 35.2186 72.4693 35.2208 72.4645L34.1608 71.9916ZM35.0868 72.7651L35.2129 72.4824L34.1529 72.0095L34.0268 72.2922L35.0868 72.7651ZM34.809 72.0057L34.7932 71.9987L34.3203 73.0586L34.3361 73.0656L34.809 72.0057Z" fill="#1D2939" mask="url(#path-22-inside-4_731_61507)"/>
<path d="M34.8312 75.4132L36.127 72.5088L36.3935 72.988L35.0754 75.9425L34.8312 75.4132Z" fill="#FFDD33"/>
<path d="M52.8476 76.8469C52.3036 78.0663 50.9233 78.8359 49.0272 79.0276C47.1403 79.2184 44.8052 78.8255 42.4783 77.7873C40.1514 76.7492 38.2991 75.2741 37.1806 73.7425C36.0567 72.2034 35.7073 70.6622 36.2514 69.4427C36.7954 68.2233 38.1756 67.4537 40.0718 67.262C41.9587 67.0712 44.2937 67.4642 46.6207 68.5023C48.9476 69.5404 50.7999 71.0155 51.9184 72.5472C53.0423 74.0863 53.3917 75.6275 52.8476 76.8469Z" fill="#FFDD33" stroke="#1D2939" stroke-width="0.580329"/>
<path d="M50.7438 75.9081C50.3477 76.7957 49.3368 77.3698 47.9184 77.5138C46.5091 77.6569 44.76 77.364 43.0138 76.585C41.2677 75.806 39.8813 74.7 39.0464 73.5557C38.2061 72.404 37.9579 71.2682 38.3539 70.3805C38.75 69.4929 39.7609 68.9188 41.1793 68.7748C42.5886 68.6317 44.3378 68.9246 46.0839 69.7036C47.83 70.4826 49.2164 71.5886 50.0513 72.7329C50.8917 73.8846 51.1398 75.0204 50.7438 75.9081Z" fill="#D0D5DD" stroke="#1D2939" stroke-width="0.580329"/>
<path d="M50.1753 75.8352C49.7979 76.6812 48.832 77.2303 47.4708 77.3674C46.119 77.5036 44.4398 77.2218 42.7627 76.4736C41.0857 75.7254 39.7543 74.6641 38.9526 73.5671C38.1453 72.4626 37.9088 71.377 38.2862 70.5311C38.6636 69.6851 39.6295 69.136 40.9906 68.9989C42.3425 68.8627 44.0217 69.1445 45.6987 69.8927C47.3758 70.6409 48.7071 71.7022 49.5089 72.7992C50.3161 73.9037 50.5527 74.9893 50.1753 75.8352Z" fill="#FFDD33" stroke="#1D2939" stroke-width="0.580329"/>
<mask id="path-28-inside-5_731_61507" fill="white">
<path fill-rule="evenodd" clip-rule="evenodd" d="M4.08738 50.4222C5.59203 52.8192 10.2342 53.0285 14.7116 50.8353C19.189 48.6421 21.8692 44.846 20.8977 42.1879L20.9135 42.1802L19.3814 39.0525C19.3775 39.0444 19.3736 39.0364 19.3697 39.0283C19.3658 39.0203 19.3618 39.0123 19.3578 39.0043L19.3215 38.9301L19.3198 38.9309C17.9452 36.3557 13.1784 36.0772 8.58511 38.3272C3.9918 40.5772 1.2899 44.5141 2.48189 47.1787L2.48007 47.1796L3.90871 50.0962C3.91472 50.1089 3.92082 50.1215 3.92701 50.1342C3.9332 50.1468 3.93947 50.1594 3.94582 50.1719L4.07209 50.4297L4.08738 50.4222Z"/>
</mask>
<path fill-rule="evenodd" clip-rule="evenodd" d="M4.08738 50.4222C5.59203 52.8192 10.2342 53.0285 14.7116 50.8353C19.189 48.6421 21.8692 44.846 20.8977 42.1879L20.9135 42.1802L19.3814 39.0525C19.3775 39.0444 19.3736 39.0364 19.3697 39.0283C19.3658 39.0203 19.3618 39.0123 19.3578 39.0043L19.3215 38.9301L19.3198 38.9309C17.9452 36.3557 13.1784 36.0772 8.58511 38.3272C3.9918 40.5772 1.2899 44.5141 2.48189 47.1787L2.48007 47.1796L3.90871 50.0962C3.91472 50.1089 3.92082 50.1215 3.92701 50.1342C3.9332 50.1468 3.93947 50.1594 3.94582 50.1719L4.07209 50.4297L4.08738 50.4222Z" fill="#1D2939"/>
<path d="M4.08738 50.4222L4.57889 50.1137L4.30119 49.6713L3.83209 49.9011L4.08738 50.4222ZM20.8977 42.1879L20.6424 41.6667L20.1733 41.8965L20.3526 42.3871L20.8977 42.1879ZM20.9135 42.1802L21.1688 42.7013L21.6899 42.446L21.4346 41.9249L20.9135 42.1802ZM19.3814 39.0525L18.8581 39.3033L18.8602 39.3078L19.3814 39.0525ZM19.3578 39.0043L18.8366 39.2596L18.8388 39.264L19.3578 39.0043ZM19.3215 38.9301L19.8426 38.6748L19.5873 38.1536L19.0662 38.4089L19.3215 38.9301ZM19.3198 38.9309L18.8079 39.2042L19.0718 39.6986L19.5751 39.452L19.3198 38.9309ZM2.48189 47.1787L2.73717 47.6999L3.24048 47.4534L3.01163 46.9418L2.48189 47.1787ZM2.48007 47.1796L2.22479 46.6585L1.70362 46.9137L1.95891 47.4349L2.48007 47.1796ZM3.90871 50.0962L4.43329 49.8479L4.42987 49.8409L3.90871 50.0962ZM3.94582 50.1719L4.46703 49.9166L4.46351 49.9097L3.94582 50.1719ZM4.07209 50.4297L3.55092 50.685L3.80621 51.2062L4.32737 50.9509L4.07209 50.4297ZM3.59586 50.7308C4.49294 52.1599 6.26003 52.8484 8.26108 52.9299C10.2808 53.0123 12.6561 52.4884 14.9669 51.3565L14.4563 50.3141C12.2897 51.3754 10.1052 51.8435 8.30836 51.7702C6.4928 51.6962 5.18647 51.0816 4.57889 50.1137L3.59586 50.7308ZM14.9669 51.3565C17.2776 50.2246 19.1476 48.669 20.3206 47.0227C21.4828 45.3917 22.022 43.5735 21.4427 41.9887L20.3526 42.3871C20.7449 43.4605 20.4298 44.8694 19.3754 46.3492C18.3318 47.8138 16.6229 49.2528 14.4563 50.3141L14.9669 51.3565ZM20.6582 41.659L20.6424 41.6667L21.153 42.7091L21.1688 42.7013L20.6582 41.659ZM18.8602 39.3078L20.3923 42.4355L21.4346 41.9249L19.9026 38.7972L18.8602 39.3078ZM19.9047 38.8016C19.9002 38.7921 19.8955 38.7826 19.8909 38.773L18.8485 39.2836C18.8518 39.2902 18.8549 39.2967 18.8581 39.3033L19.9047 38.8016ZM19.8909 38.773C19.8862 38.7635 19.8815 38.754 19.8768 38.7446L18.8388 39.264C18.8421 39.2705 18.8453 39.2771 18.8485 39.2836L19.8909 38.773ZM18.8003 39.1854L18.8366 39.2596L19.879 38.749L19.8426 38.6748L18.8003 39.1854ZM19.5751 39.452L19.5767 39.4512L19.0662 38.4089L19.0646 38.4097L19.5751 39.452ZM19.8318 38.6576C19.0083 37.115 17.2273 36.356 15.1924 36.2402C13.1389 36.1234 10.6999 36.6451 8.32983 37.806L8.8404 38.8484C11.0636 37.7594 13.3047 37.2953 15.1265 37.399C16.967 37.5037 18.2567 38.1716 18.8079 39.2042L19.8318 38.6576ZM8.32983 37.806C5.9597 38.967 4.0525 40.5742 2.88603 42.2684C1.73021 43.9471 1.2381 45.8195 1.95214 47.4157L3.01163 46.9418C2.53369 45.8733 2.79654 44.445 3.842 42.9266C4.87681 41.4236 6.61721 39.9374 8.8404 38.8484L8.32983 37.806ZM2.73536 47.7008L2.73717 47.6999L2.2266 46.6576L2.22479 46.6585L2.73536 47.7008ZM4.42987 49.8409L3.00123 46.9243L1.95891 47.4349L3.38754 50.3515L4.42987 49.8409ZM3.38416 50.3444C3.39129 50.3595 3.39851 50.3745 3.40585 50.3895L4.44817 49.8789C4.44312 49.8686 4.43815 49.8582 4.43325 49.8479L3.38416 50.3444ZM3.40585 50.3895C3.41318 50.4044 3.42061 50.4193 3.42813 50.4342L4.46351 49.9097C4.45834 49.8995 4.45322 49.8892 4.44817 49.8789L3.40585 50.3895ZM4.59325 50.1744L4.46698 49.9167L3.42466 50.4272L3.55092 50.685L4.59325 50.1744ZM3.83209 49.9011L3.8168 49.9085L4.32737 50.9509L4.34266 50.9434L3.83209 49.9011Z" fill="#1D2939" mask="url(#path-28-inside-5_731_61507)"/>
<path d="M6.4635 52.0681L5.06445 49.2119L5.60313 49.3144L7.0263 52.2198L6.4635 52.0681Z" fill="#FFDD33"/>
<path d="M19.1088 39.1561C19.6962 40.3553 19.4023 41.908 18.3342 43.4864C17.2713 45.0571 15.4732 46.5977 13.1849 47.7186C10.8967 48.8394 8.57723 49.3158 6.68469 49.1928C4.78288 49.0692 3.37594 48.3495 2.78855 47.1504C2.20116 45.9512 2.49503 44.3985 3.56311 42.8201C4.62599 41.2494 6.42416 39.7088 8.7124 38.588C11.0006 37.4671 13.3201 36.9907 15.2126 37.1137C17.1144 37.2374 18.5214 37.957 19.1088 39.1561Z" fill="#FFDD33" stroke="#1D2939" stroke-width="0.580329"/>
<path d="M17.0418 40.1694C17.4694 41.0424 17.2621 42.1863 16.4636 43.3674C15.6702 44.5409 14.3244 45.6958 12.6073 46.5369C10.8902 47.378 9.15267 47.7334 7.7392 47.6409C6.31653 47.5479 5.28566 47.0104 4.85807 46.1375C4.43048 45.2646 4.63775 44.1206 5.43628 42.9395C6.22965 41.7661 7.57553 40.6111 9.29259 39.77C11.0097 38.9289 12.7472 38.5735 14.1607 38.666C15.5834 38.7591 16.6142 39.2965 17.0418 40.1694Z" fill="#D0D5DD" stroke="#1D2939" stroke-width="0.580329"/>
<path d="M16.6215 40.5578C17.029 41.3897 16.8315 42.4831 16.0644 43.6158C15.3025 44.7408 14.01 45.8492 12.3609 46.657C10.7117 47.4648 9.04374 47.8066 7.68785 47.719C6.32265 47.6307 5.33772 47.1166 4.93024 46.2847C4.52275 45.4528 4.72023 44.3594 5.48737 43.2267C6.24928 42.1017 7.54175 40.9934 9.19091 40.1855C10.8401 39.3777 12.508 39.0359 13.8639 39.1236C15.2291 39.2118 16.2141 39.726 16.6215 40.5578Z" fill="#FFDD33" stroke="#1D2939" stroke-width="0.580329"/>
<path d="M72.4434 59.1819L56.7592 28.0969C55.8725 26.3396 54.1419 25.1637 52.1823 24.9871L16.1292 21.7371C14.6131 21.6004 13.5324 23.1741 14.2037 24.5409L29.5251 55.7359C30.4067 57.5309 32.1647 58.7331 34.1567 58.9029L70.5366 62.0054C72.0586 62.1352 73.1317 60.5461 72.4434 59.1819Z" fill="white" stroke="#1D2939" stroke-width="0.580329"/>
<path d="M70.4296 59.054L55.4951 29.4548C54.6084 27.6975 52.8778 26.5216 50.9182 26.345L18.8745 23.4564C17.3584 23.3197 16.2777 24.8934 16.949 26.2603L30.5541 53.9607C31.4357 55.7558 33.1937 56.9579 35.1857 57.1278L69.7404 60.0746C70.2905 60.1215 70.6784 59.5471 70.4296 59.054Z" fill="#D0D5DD" stroke="#1D2939" stroke-width="0.580329"/>
<path d="M17.1211 17.9912L14.2966 22.6338C13.9865 23.1533 14.0918 24.0463 14.2968 24.4619L29.0502 54.4881C29.0502 54.4881 29.7804 56.6699 31.9622 58.0206C31.9622 57.1635 32.1332 56.541 32.4174 56.0028C33.9508 53.9686 35.1114 53.9686 36.9493 53.9686L17.1211 17.9912Z" fill="#D0D5DD"/>
<path d="M14.2966 22.6338L14.0487 22.483L14.0474 22.4851L14.2966 22.6338ZM17.1211 17.9912L17.3752 17.8512C17.3253 17.7605 17.2308 17.7033 17.1273 17.7011C17.0238 17.6989 16.927 17.752 16.8732 17.8404L17.1211 17.9912ZM36.9493 53.9686V54.2588H37.4405L37.2034 53.8286L36.9493 53.9686ZM31.9622 58.0206L31.8095 58.2673L32.2524 58.5415V58.0206H31.9622ZM29.0502 54.4881L29.3253 54.396L29.3192 54.3776L29.3106 54.3601L29.0502 54.4881ZM14.2968 24.4619L14.5573 24.334L14.557 24.3335L14.2968 24.4619ZM32.4174 56.0028L32.1857 55.8281L32.1717 55.8467L32.1608 55.8673L32.4174 56.0028ZM14.5445 22.7847L17.369 18.142L16.8732 17.8404L14.0487 22.483L14.5445 22.7847ZM16.867 18.1313L36.6951 54.1087L37.2034 53.8286L17.3752 17.8512L16.867 18.1313ZM32.115 57.7739C31.071 57.1276 30.3717 56.2807 29.9327 55.5919C29.7135 55.248 29.5604 54.9453 29.4625 54.7301C29.4137 54.6225 29.3787 54.537 29.3563 54.4793C29.345 54.4505 29.337 54.4286 29.3319 54.4145C29.3293 54.4074 29.3275 54.4023 29.3264 54.3992C29.3259 54.3976 29.3255 54.3966 29.3254 54.396C29.3253 54.3958 29.3252 54.3956 29.3252 54.3956C29.3252 54.3956 29.3252 54.3957 29.3252 54.3957C29.3253 54.3958 29.3253 54.3958 29.3253 54.3958C29.3253 54.3959 29.3253 54.396 29.0502 54.4881C28.775 54.5802 28.7751 54.5803 28.7751 54.5804C28.7751 54.5805 28.7751 54.5806 28.7752 54.5807C28.7752 54.5809 28.7753 54.5811 28.7754 54.5814C28.7756 54.5819 28.7758 54.5825 28.7761 54.5833C28.7766 54.5849 28.7773 54.587 28.7782 54.5896C28.7801 54.5948 28.7826 54.6021 28.786 54.6113C28.7926 54.6298 28.8024 54.6562 28.8154 54.6897C28.8414 54.7566 28.8805 54.8521 28.9342 54.9702C29.0415 55.2062 29.2072 55.5334 29.4433 55.9038C29.9149 56.6436 30.6716 57.5629 31.8095 58.2673L32.115 57.7739ZM29.3106 54.3601L14.5573 24.334L14.0364 24.5899L28.7898 54.6161L29.3106 54.3601ZM14.557 24.3335C14.477 24.1712 14.4055 23.8864 14.3935 23.5756C14.3814 23.2626 14.4315 22.9741 14.5457 22.7826L14.0474 22.4851C13.8517 22.8131 13.7994 23.2308 13.8136 23.5981C13.8279 23.9676 13.9116 24.337 14.0366 24.5903L14.557 24.3335ZM36.9493 53.6784C36.0419 53.6784 35.2391 53.6753 34.4715 53.9496C33.6902 54.2288 32.9742 54.7821 32.1857 55.8281L32.6491 56.1775C33.394 55.1894 34.025 54.7255 34.6668 54.4961C35.3224 54.2619 36.0189 54.2588 36.9493 54.2588V53.6784ZM32.1608 55.8673C31.8528 56.4508 31.6721 57.1203 31.6721 58.0206H32.2524C32.2524 57.2066 32.4137 56.6313 32.674 56.1383L32.1608 55.8673Z" fill="#1D2939"/>
<path d="M75.5635 51.35L59.8924 20.1462C58.9251 18.2201 56.9539 17.0039 54.7995 17.0039L18.8153 17.0039C17.3707 17.0039 16.428 18.5184 17.0651 19.8157L32.3762 50.9897C33.3344 52.9407 35.319 54.1774 37.4916 54.1774L73.8211 54.1774C75.2733 54.1774 76.2156 52.6484 75.5635 51.35Z" fill="white" stroke="#1D2939" stroke-width="0.580329"/>
<path d="M70.611 35.8228L69.3804 33.3887C68.4104 31.4701 66.4433 30.2601 64.2944 30.2601L55.2644 30.2601C53.8226 30.2601 52.8798 31.7692 53.5114 33.0661L54.6726 35.4502C55.6274 37.4105 57.6169 38.6548 59.7963 38.6548L68.8709 38.6548C70.3255 38.6548 71.2676 37.1215 70.611 35.8228Z" fill="white" stroke="#1D2939" stroke-width="0.580329"/>
<path d="M60.8784 34.1659L60.7823 33.9759C60.2644 32.9515 59.2142 32.3054 58.0669 32.3054C57.2278 32.3053 56.6792 33.1835 57.0467 33.9381L57.1267 34.1024C57.637 35.1501 58.7002 35.8151 59.865 35.8152C60.712 35.8152 61.2608 34.9222 60.8784 34.1659Z" fill="#FFDD33" stroke="#1D2939" stroke-width="0.580329"/>
<path d="M61.6134 81.0501L101.024 35.6351C102.57 33.8538 105.053 33.208 107.269 34.011L136.995 44.7816C138.278 45.2465 138.699 46.8505 137.81 47.8868L98.7659 93.3839C97.2237 95.181 94.7306 95.8378 92.5046 95.0335L62.4228 84.1641C61.1342 83.6985 60.715 82.0855 61.6134 81.0501Z" fill="#FFDD33" stroke="#1D2939" stroke-width="0.580329"/>
<path d="M104.986 83.4473L104.981 83.4534L104.977 83.4593L98.1238 92.0811C96.7653 93.7903 94.472 94.4503 92.4144 93.7241L63.3717 83.4748C62.0916 83.023 61.6534 81.4351 62.5203 80.3893L98.3993 37.1064C99.8467 35.3603 102.192 34.638 104.369 35.2675L125.658 41.422C129.426 42.5114 130.984 46.9956 128.706 50.1906L104.986 83.4473Z" fill="#1D2939" stroke="#1D2939" stroke-width="0.580329"/>
<path d="M61.3788 79.5775L98.0723 31.9404C99.5115 30.072 101.953 29.2823 104.212 29.9547L134.516 38.9725C135.824 39.3617 136.338 40.9385 135.51 42.0249L99.1876 89.7225C97.7529 91.6066 95.3024 92.4077 93.0332 91.7347L62.3684 82.6389C61.0549 82.2493 60.5423 80.6635 61.3788 79.5775Z" fill="#FFDD33" stroke="#1D2939" stroke-width="0.580329"/>
<path d="M104.125 80.2432L104.125 80.2432L104.122 80.2478L98.5617 88.5883C97.3124 90.4622 94.9846 91.3 92.829 90.6516L62.8804 81.6432C61.5678 81.2484 61.0615 79.6595 61.9034 78.5769L97.5394 32.7497C98.9028 30.9965 101.161 30.1943 103.323 30.6948L123.772 35.4265C127.602 36.3126 129.398 40.7205 127.28 44.0334L104.125 80.2432Z" fill="#1D2939" stroke="#1D2939" stroke-width="0.580329"/>
<path d="M61.2451 78.0217L94.9735 28.2412C96.2965 26.2886 98.6855 25.352 100.981 25.8857L131.777 33.0438C133.106 33.3528 133.715 34.8954 132.955 36.0301L99.6009 85.8485C98.2834 87.8163 95.8862 88.765 93.5803 88.2312L62.4191 81.0172C61.0843 80.7082 60.4762 79.1565 61.2451 78.0217Z" fill="#FFDD33" stroke="#1D2939" stroke-width="0.580329"/>
<path d="M99.9567 31.2726C97.9619 32.1869 96.2857 31.6536 95.697 31.2726L66.502 74.182C66.8829 74.182 68.476 74.8054 69.2033 76.2599C70.046 77.9454 69.7228 79.4807 69.2033 80.208L91.8528 85.1951C91.9567 84.4678 93.1411 82.5769 94.5541 81.6626C95.9671 80.7483 98.5022 80.866 99.645 81.247L126.347 40.935C125.896 40.7965 124.396 39.8886 124.061 38.1298C123.645 35.948 124.788 35.0129 125.204 33.9739L102.762 28.5713C102.658 29.0908 101.952 30.3583 99.9567 31.2726Z" fill="#FFDD33" stroke="#1D2939" stroke-width="0.580329"/>
<path d="M109.37 58.0469C109.062 59.7533 107.467 61.1293 104.992 61.9234C102.531 62.7131 99.2744 62.8974 95.8107 62.2721C92.347 61.6467 89.3604 60.3353 87.3308 58.7348C85.29 57.1254 84.2767 55.2784 84.5848 53.5721C84.8929 51.8658 86.488 50.4897 88.9628 49.6956C91.4239 48.9059 94.6806 48.7216 98.1443 49.347C101.608 49.9723 104.595 51.2838 106.624 52.8843C108.665 54.4936 109.678 56.3406 109.37 58.0469Z" fill="#FFDD33" stroke="#1D2939" stroke-width="0.580329"/>
<path d="M112.735 42.4707C112.635 43.0436 112.093 43.5524 111.151 43.8616C110.222 44.1663 108.978 44.2474 107.644 44.0156C106.309 43.7838 105.165 43.2878 104.394 42.6878C103.611 42.079 103.272 41.417 103.371 40.8441C103.471 40.2712 104.014 39.7625 104.956 39.4533C105.884 39.1485 107.128 39.0674 108.463 39.2992C109.797 39.5311 110.941 40.027 111.712 40.627C112.495 41.2358 112.834 41.8979 112.735 42.4707Z" stroke="#1D2939" stroke-width="0.580329"/>
<path d="M90.4719 72.3283C90.3548 72.9109 89.787 73.4145 88.82 73.7039C87.8667 73.9891 86.5987 74.0381 85.2474 73.7664C83.8961 73.4947 82.7456 72.9594 81.9766 72.328C81.1966 71.6874 80.8676 71.0034 80.9847 70.4209C81.1018 69.8384 81.6696 69.3347 82.6365 69.0454C83.5898 68.7602 84.8579 68.7112 86.2092 68.9829C87.5605 69.2546 88.711 69.7898 89.48 70.4213C90.26 71.0619 90.589 71.7458 90.4719 72.3283Z" stroke="#1D2939" stroke-width="0.580329"/>
</g>
</g>
<defs>
<clipPath id="clip0_731_61507">
<rect width="150" height="150" fill="white"/>
</clipPath>
<clipPath id="clip1_731_61507">
<rect width="150.886" height="150.886" fill="white"/>
</clipPath>
</defs>
</svg>
