<svg width="111" height="32" viewBox="0 0 111 32" fill="none" xmlns="http://www.w3.org/2000/svg">
<rect width="17.338" height="3.6501" transform="matrix(-1 0 0 1 24.6387 7.2998)" fill="#0063F5"/>
<path d="M17.7939 10.9502H14.1438V28.2882L17.7939 31.9383V10.9502Z" fill="#0063F5"/>
<path d="M31.9385 28.2881L28.2884 31.9382L17.7943 31.9382L14.1442 28.2881L31.9385 28.2881Z" fill="#0052CC"/>
<path d="M28.2881 0L31.9382 3.65011V28.2883L28.2881 31.9384V0Z" fill="#0063F5"/>
<path d="M31.9385 3.65039L28.2884 0.000285701L3.65016 0.000285407L5.57303e-05 3.65039L31.9385 3.65039Z" fill="#0052CC"/>
<path d="M3.65039 0L0.000285745 3.65011V28.2883L3.65039 31.9384V0Z" fill="#0063F5"/>
<path d="M51.135 23.5737H52.909V31.7864H51.135V30.6038C50.4671 31.5346 49.5089 32 48.2606 32C47.1327 32 46.1691 31.5839 45.3697 30.7516C44.5703 29.9085 44.1706 28.8846 44.1706 27.6801C44.1706 26.4646 44.5703 25.4407 45.3697 24.6085C46.1691 23.7763 47.1327 23.3602 48.2606 23.3602C49.5089 23.3602 50.4671 23.8201 51.135 24.7399V23.5737ZM46.6837 29.569C47.1765 30.0618 47.7952 30.3081 48.5398 30.3081C49.2844 30.3081 49.9031 30.0618 50.3959 29.569C50.8887 29.0653 51.135 28.4356 51.135 27.6801C51.135 26.9245 50.8887 26.3003 50.3959 25.8076C49.9031 25.3039 49.2844 25.052 48.5398 25.052C47.7952 25.052 47.1765 25.3039 46.6837 25.8076C46.191 26.3003 45.9446 26.9245 45.9446 27.6801C45.9446 28.4356 46.191 29.0653 46.6837 29.569Z" fill="#0063F5"/>
<path d="M63.945 23.3602C64.8758 23.3602 65.6259 23.6613 66.1953 24.2636C66.7647 24.8658 67.0494 25.6762 67.0494 26.6945V31.7864H65.2754V26.8095C65.2754 26.2401 65.1331 25.8021 64.8484 25.4955C64.5637 25.1779 64.1749 25.0191 63.6822 25.0191C63.1347 25.0191 62.6966 25.1998 62.3681 25.5612C62.0506 25.9225 61.8918 26.4646 61.8918 27.1873V31.7864H60.1178V26.8095C60.1178 26.2401 59.981 25.8021 59.7072 25.4955C59.4444 25.1779 59.0666 25.0191 58.5739 25.0191C58.0373 25.0191 57.5993 25.2053 57.2598 25.5776C56.9204 25.939 56.7506 26.4755 56.7506 27.1873V31.7864H54.9767V23.5737H56.7506V24.5592C57.2762 23.7599 58.0592 23.3602 59.0995 23.3602C60.1507 23.3602 60.9282 23.7927 61.4319 24.6578C61.9794 23.7927 62.8171 23.3602 63.945 23.3602Z" fill="#0063F5"/>
<path d="M75.4524 23.5737H77.2264V31.7864H75.4524V30.6038C74.7845 31.5346 73.8263 32 72.578 32C71.4501 32 70.4865 31.5839 69.6871 30.7516C68.8877 29.9085 68.488 28.8846 68.488 27.6801C68.488 26.4646 68.8877 25.4407 69.6871 24.6085C70.4865 23.7763 71.4501 23.3602 72.578 23.3602C73.8263 23.3602 74.7845 23.8201 75.4524 24.7399V23.5737ZM71.0011 29.569C71.4939 30.0618 72.1126 30.3081 72.8572 30.3081C73.6018 30.3081 74.2205 30.0618 74.7133 29.569C75.2061 29.0653 75.4524 28.4356 75.4524 27.6801C75.4524 26.9245 75.2061 26.3003 74.7133 25.8076C74.2205 25.3039 73.6018 25.052 72.8572 25.052C72.1126 25.052 71.4939 25.3039 71.0011 25.8076C70.5084 26.3003 70.262 26.9245 70.262 27.6801C70.262 28.4356 70.5084 29.0653 71.0011 29.569Z" fill="#0063F5"/>
<path d="M88.7551 23.5737H90.6276L88.0489 31.7864H86.3078L84.5995 26.2511L82.8748 31.7864H81.1337L78.5549 23.5737H80.4274L82.0207 29.2405L83.7454 23.5737H85.4372L87.1454 29.2405L88.7551 23.5737Z" fill="#0063F5"/>
<path d="M98.1177 23.5737H99.8916V31.7864H98.1177V30.6038C97.4497 31.5346 96.4915 32 95.2432 32C94.1153 32 93.1517 31.5839 92.3523 30.7516C91.553 29.9085 91.1533 28.8846 91.1533 27.6801C91.1533 26.4646 91.553 25.4407 92.3523 24.6085C93.1517 23.7763 94.1153 23.3602 95.2432 23.3602C96.4915 23.3602 97.4497 23.8201 98.1177 24.7399V23.5737ZM93.6664 29.569C94.1591 30.0618 94.7778 30.3081 95.5224 30.3081C96.2671 30.3081 96.8858 30.0618 97.3785 29.569C97.8713 29.0653 98.1177 28.4356 98.1177 27.6801C98.1177 26.9245 97.8713 26.3003 97.3785 25.8076C96.8858 25.3039 96.2671 25.052 95.5224 25.052C94.7778 25.052 94.1591 25.3039 93.6664 25.8076C93.1736 26.3003 92.9272 26.9245 92.9272 27.6801C92.9272 28.4356 93.1736 29.0653 93.6664 29.569Z" fill="#0063F5"/>
<path d="M101.922 31.7864V20.3038L103.747 19.7715V31.7777L101.922 31.7864Z" fill="#0063F5"/>
<path d="M45.0095 20.3798V22.1631H41.8406V31.7278H39.9907V22.1631H36.8057V20.3798H45.0095Z" fill="#0063F5"/>
<path d="M101.921 3.65039H103.746V5.17127L101.921 5.70357V3.65039Z" fill="#0063F5"/>
<path d="M98.5752 3.65039H100.4V5.17127L98.5752 5.70357V3.65039Z" fill="#0063F5"/>
<path fill-rule="evenodd" clip-rule="evenodd" d="M101.921 12.3192V7.5284L103.746 6.99609V12.3192C103.746 13.4951 102.793 14.4484 101.617 14.4484H98.6989C98.1342 14.4484 97.5927 14.2241 97.1933 13.8248L96.333 12.9644L97.6235 11.6739L98.4839 12.5342C98.5409 12.5913 98.6183 12.6233 98.6989 12.6233H101.617C101.785 12.6233 101.921 12.4872 101.921 12.3192Z" fill="#0063F5"/>
<path fill-rule="evenodd" clip-rule="evenodd" d="M52.0358 14.7528V13.5361H53.8608V14.7528C53.8608 16.6007 52.3628 18.0988 50.5149 18.0988H47.7013L47.1689 16.2737H50.5149C51.3548 16.2737 52.0358 15.5928 52.0358 14.7528Z" fill="#0063F5"/>
<path fill-rule="evenodd" clip-rule="evenodd" d="M43.2147 14.0804V0H45.0398V14.0804C45.0398 16.2995 43.2409 18.0984 41.0218 18.0984C39.6618 18.0984 38.3941 17.4105 37.6529 16.2702L37.5242 16.0721C36.7851 14.9351 36.6044 13.5233 37.0332 12.2368L37.9678 9.73361H39.8689L38.7646 12.814C38.5115 13.5732 38.6182 14.4065 39.0544 15.0775L39.1831 15.2756C39.5877 15.8979 40.2795 16.2734 41.0218 16.2734C42.2329 16.2734 43.2147 15.2916 43.2147 14.0804Z" fill="#0063F5"/>
<path fill-rule="evenodd" clip-rule="evenodd" d="M91.2281 11.6836L90.4044 12.5314C90.3471 12.5904 90.2684 12.6236 90.1862 12.6236H52.7961V14.4487H90.1862C90.7616 14.4487 91.3125 14.2158 91.7134 13.8032L92.5371 12.9553L91.2281 11.6836Z" fill="#0063F5"/>
<rect x="98.5752" width="5.17098" height="1.82505" fill="#0063F5"/>
<path fill-rule="evenodd" clip-rule="evenodd" d="M48.6746 0V1.59692C48.6746 1.91876 48.9484 2.12788 49.2221 2.12788C49.4959 2.12788 49.7696 1.91876 49.7696 1.59692V0.418241L51.2753 0V1.59692C51.2753 2.73712 50.3183 3.66143 49.2221 3.66143C48.126 3.66143 47.1689 2.73712 47.1689 1.59692V0H48.6746Z" fill="#0063F5"/>
<path fill-rule="evenodd" clip-rule="evenodd" d="M51.2606 0L51.2606 1.59827C51.2606 1.92011 51.5251 2.12923 51.8081 2.12923C52.091 2.12923 52.3556 1.92011 52.3556 1.59827L52.3556 0.418241L53.8613 0L53.8613 1.59827C53.8613 2.73847 52.9042 3.66278 51.8081 3.66278C50.7119 3.66278 49.7549 2.73847 49.7549 1.59827L49.7549 0.418241L51.2606 0Z" fill="#0063F5"/>
<path fill-rule="evenodd" clip-rule="evenodd" d="M91.1221 10.0373C91.1221 8.18943 92.6201 6.69141 94.468 6.69141C96.3159 6.69141 97.8139 8.18943 97.8139 10.0373V11.1019C97.8139 12.9499 96.3159 14.4479 94.468 14.4479C92.6201 14.4479 91.1221 12.9499 91.1221 11.1019V10.0373ZM94.468 8.51646C93.628 8.51646 92.9471 9.19738 92.9471 10.0373V11.1019C92.9471 11.9419 93.628 12.6228 94.468 12.6228C95.308 12.6228 95.9889 11.9419 95.9889 11.1019V10.0373C95.9889 9.19738 95.308 8.51646 94.468 8.51646Z" fill="#0063F5"/>
<path fill-rule="evenodd" clip-rule="evenodd" d="M47.1689 10.0373C47.1689 8.18943 48.667 6.69141 50.5149 6.69141C52.3628 6.69141 53.8608 8.18943 53.8608 10.0373V14.4479H50.5149C48.667 14.4479 47.1689 12.9499 47.1689 11.1019V10.0373ZM50.5149 8.51646C49.6749 8.51646 48.994 9.19738 48.994 10.0373V11.1019C48.994 11.9419 49.6749 12.6228 50.5149 12.6228H52.0358V10.0373C52.0358 9.19738 51.3548 8.51646 50.5149 8.51646Z" fill="#0063F5"/>
<path fill-rule="evenodd" clip-rule="evenodd" d="M41.6118 2.81362C41.6118 4.16595 40.5156 5.26223 39.1632 5.26223C37.8109 5.26223 36.7146 4.16595 36.7146 2.81362C36.7146 1.46129 37.8109 0.365011 39.1632 0.365011C40.5156 0.365011 41.6118 1.46129 41.6118 2.81362ZM41.9769 2.81362C41.9769 4.36754 40.7172 5.62725 39.1632 5.62725C37.6093 5.62725 36.3496 4.36754 36.3496 2.81362C36.3496 1.2597 37.6093 0 39.1632 0C40.7172 0 41.9769 1.2597 41.9769 2.81362ZM39.2429 3.14517L39.7831 4.07595H40.2431L39.6627 3.08312C39.8136 3.02229 39.9352 2.92495 40.0277 2.79111C40.1226 2.65484 40.1701 2.50519 40.1701 2.34215C40.1701 2.11341 40.0898 1.91996 39.9291 1.76178C39.771 1.60118 39.5775 1.52088 39.3488 1.52088H38.3267V4.07595H38.7465V3.14517H39.2429ZM38.7465 2.76921V1.91509H39.3488C39.4607 1.91509 39.5556 1.95646 39.6335 2.03919C39.7114 2.12193 39.7503 2.22291 39.7503 2.34215C39.7503 2.46139 39.7114 2.56237 39.6335 2.64511C39.5556 2.72785 39.4607 2.76921 39.3488 2.76921H38.7465Z" fill="#0063F5"/>
<path fill-rule="evenodd" clip-rule="evenodd" d="M110.203 21.3683C110.203 22.7206 109.106 23.8169 107.754 23.8169C106.402 23.8169 105.305 22.7206 105.305 21.3683C105.305 20.016 106.402 18.9197 107.754 18.9197C109.106 18.9197 110.203 20.016 110.203 21.3683ZM110.568 21.3683C110.568 22.9222 109.308 24.1819 107.754 24.1819C106.2 24.1819 104.94 22.9222 104.94 21.3683C104.94 19.8144 106.2 18.5547 107.754 18.5547C109.308 18.5547 110.568 19.8144 110.568 21.3683ZM107.834 21.7L108.374 22.6308H108.834L108.254 21.638C108.404 21.5771 108.526 21.4798 108.619 21.346C108.714 21.2097 108.761 21.06 108.761 20.897C108.761 20.6683 108.681 20.4748 108.52 20.3166C108.362 20.156 108.168 20.0757 107.94 20.0757H106.918V22.6308H107.337V21.7H107.834ZM107.337 21.3241V20.4699H107.94C108.052 20.4699 108.147 20.5113 108.224 20.594C108.302 20.6768 108.341 20.7778 108.341 20.897C108.341 21.0162 108.302 21.1172 108.224 21.2C108.147 21.2827 108.052 21.3241 107.94 21.3241H107.337Z" fill="#0063F5"/>
</svg>
