<svg width="260" height="279" viewBox="0 0 260 279" fill="none" xmlns="http://www.w3.org/2000/svg">
<path d="M117.165 108.873C125.179 104.252 135.05 104.234 143.085 108.827L241.111 164.853C246.46 167.91 246.494 175.604 241.172 178.702L143.141 235.771C135.029 240.493 124.997 240.479 116.893 235.735L19.7365 178.853C14.4389 175.752 14.4611 168.094 19.7766 165.029L117.165 108.873Z" fill="#FFDD33"/>
<mask id="path-2-outside-1_730_57066" maskUnits="userSpaceOnUse" x="11.5078" y="71.5918" width="239" height="153" fill="black">
<rect fill="white" x="11.5078" y="71.5918" width="239" height="153"/>
<path fill-rule="evenodd" clip-rule="evenodd" d="M117.195 77.0647C125.215 72.4461 135.094 72.4334 143.136 77.0312L243.573 134.455C246.055 135.874 247.393 138.29 247.583 140.781H247.605V141.248C247.607 141.348 247.607 141.449 247.605 141.549V152.682C247.655 155.411 246.334 158.161 243.635 159.73L143.29 218.073C135.172 222.793 125.13 222.775 117.02 218.025L17.4686 159.723C14.4127 157.934 13.1265 154.631 13.6052 151.568V142.644C13.124 139.565 14.4266 136.248 17.5078 134.474L117.195 77.0647Z"/>
</mask>
<path fill-rule="evenodd" clip-rule="evenodd" d="M117.195 77.0647C125.215 72.4461 135.094 72.4334 143.136 77.0312L243.573 134.455C246.055 135.874 247.393 138.29 247.583 140.781H247.605V141.248C247.607 141.348 247.607 141.449 247.605 141.549V152.682C247.655 155.411 246.334 158.161 243.635 159.73L143.29 218.073C135.172 222.793 125.13 222.775 117.02 218.025L17.4686 159.723C14.4127 157.934 13.1265 154.631 13.6052 151.568V142.644C13.124 139.565 14.4266 136.248 17.5078 134.474L117.195 77.0647Z" fill="white"/>
<path d="M143.136 77.0312L144.129 75.295V75.295L143.136 77.0312ZM117.195 77.0647L116.197 75.3316V75.3316L117.195 77.0647ZM243.573 134.455L244.566 132.719L243.573 134.455ZM247.583 140.781L245.589 140.932C245.668 141.975 246.537 142.781 247.583 142.781V140.781ZM247.605 140.781H249.605C249.605 139.676 248.71 138.781 247.605 138.781V140.781ZM247.605 141.248H245.605C245.605 141.261 245.605 141.273 245.606 141.285L247.605 141.248ZM247.605 141.549L245.606 141.512C245.605 141.524 245.605 141.536 245.605 141.549H247.605ZM247.605 152.682H245.605C245.605 152.694 245.605 152.707 245.606 152.719L247.605 152.682ZM243.635 159.73L244.641 161.459H244.641L243.635 159.73ZM143.29 218.073L142.284 216.344L143.29 218.073ZM117.02 218.025L118.031 216.299L117.02 218.025ZM17.4686 159.723L16.4579 161.449H16.4579L17.4686 159.723ZM13.6052 151.568L15.5812 151.877C15.5971 151.775 15.6052 151.672 15.6052 151.568H13.6052ZM13.6052 142.644H15.6052C15.6052 142.541 15.5972 142.437 15.5812 142.335L13.6052 142.644ZM17.5078 134.474L18.5059 136.207H18.5059L17.5078 134.474ZM144.129 75.295C135.471 70.3448 124.833 70.3579 116.197 75.3316L118.193 78.7979C125.596 74.5344 134.718 74.522 142.143 78.7675L144.129 75.295ZM244.566 132.719L144.129 75.295L142.143 78.7675L242.581 136.191L244.566 132.719ZM249.577 140.629C249.341 137.521 247.662 134.489 244.566 132.719L242.581 136.191C244.449 137.259 245.446 139.058 245.589 140.932L249.577 140.629ZM247.583 142.781H247.605V138.781H247.583V142.781ZM245.605 140.781V141.248H249.605V140.781H245.605ZM249.605 141.586C249.607 141.461 249.607 141.336 249.605 141.211L245.606 141.285C245.607 141.361 245.607 141.436 245.606 141.512L249.605 141.586ZM245.605 141.549V152.682H249.605V141.549H245.605ZM244.641 161.459C248.013 159.498 249.667 156.044 249.605 152.645L245.606 152.719C245.643 154.778 244.655 156.824 242.63 158.001L244.641 161.459ZM144.295 219.802L244.641 161.459L242.63 158.001L142.284 216.344L144.295 219.802ZM116.009 219.751C124.741 224.865 135.553 224.885 144.295 219.802L142.284 216.344C134.791 220.701 125.52 220.685 118.031 216.299L116.009 219.751ZM16.4579 161.449L116.009 219.751L118.031 216.299L18.4793 157.998L16.4579 161.449ZM11.6292 151.26C11.034 155.068 12.6362 159.211 16.4579 161.449L18.4793 157.998C16.1892 156.656 15.219 154.194 15.5812 151.877L11.6292 151.26ZM15.6052 151.568V142.644H11.6052V151.568H15.6052ZM16.5097 132.741C12.6531 134.962 11.031 139.125 11.6291 142.953L15.5812 142.335C15.217 140.005 16.2 137.535 18.5059 136.207L16.5097 132.741ZM116.197 75.3316L16.5097 132.741L18.5059 136.207L118.193 78.7979L116.197 75.3316Z" fill="#1D2939" mask="url(#path-2-outside-1_730_57066)"/>
<mask id="mask0_730_57066" style="mask-type:alpha" maskUnits="userSpaceOnUse" x="13" y="73" width="118" height="150">
<rect x="13.5" y="73.1768" width="117" height="149" fill="#D0D8DC"/>
</mask>
<g mask="url(#mask0_730_57066)">
<path d="M117.091 88.496C125.111 83.8774 134.99 83.8647 143.032 88.4625L243.469 145.886C248.819 148.945 248.854 156.633 243.531 159.728L143.186 218.071C135.068 222.791 125.026 222.772 116.916 218.023L17.3646 159.721C12.0662 156.618 12.0879 148.966 17.4038 145.905L117.091 88.496Z" fill="#D0D5DD"/>
<path d="M117.09 77.0645C125.11 72.4459 134.99 72.4331 143.032 77.031L243.469 134.455C248.819 137.513 248.854 145.201 243.531 148.296L143.186 206.64C135.068 211.359 125.026 211.341 116.916 206.591L17.3644 148.29C12.066 145.187 12.0877 137.535 17.4036 134.474L117.09 77.0645Z" fill="#D0D5DD"/>
<rect x="13.502" y="140.78" width="234" height="12" fill="#D0D5DD"/>
</g>
<path d="M143.322 76.4741C135.132 71.7932 125.072 71.8111 116.904 76.5209L17.1666 134.031C11.5189 137.288 11.4953 145.424 17.1241 148.72L116.627 206.975C124.887 211.811 135.112 211.825 143.38 207.012L243.777 148.566C249.431 145.274 249.395 137.099 243.712 133.851L143.322 76.4741Z" fill="white" stroke="#1D2939"/>
<path fill-rule="evenodd" clip-rule="evenodd" d="M98.2187 69.8503L106.776 77.5522C107.086 77.8314 107.298 78.1968 107.388 78.5946C107.628 79.0626 107.747 79.603 107.705 80.1779L104.016 129.771C103.712 133.854 100.69 137.218 96.6616 137.956L71.9562 142.479C71.7891 142.51 71.6235 142.526 71.4605 142.529L71.4412 142.533C70.8461 142.641 70.234 142.474 69.7762 142.078L60.2807 133.878C59.791 133.455 59.5361 132.821 59.5967 132.177L64.3534 81.5823C64.7349 77.5253 67.7945 74.2308 71.8122 73.5509L96.547 69.365C97.1491 69.2631 97.7648 69.4418 98.2187 69.8503Z" fill="#D0D5DD"/>
<path d="M106.776 77.5522L107.111 77.1806L107.111 77.1806L106.776 77.5522ZM98.2187 69.8503L98.5532 69.4787V69.4787L98.2187 69.8503ZM107.388 78.5946L106.901 78.7057C106.91 78.7461 106.924 78.7851 106.943 78.822L107.388 78.5946ZM107.705 80.1779L107.206 80.1408V80.1408L107.705 80.1779ZM104.016 129.771L103.517 129.733L104.016 129.771ZM96.6616 137.956L96.7516 138.448H96.7516L96.6616 137.956ZM71.9562 142.479L71.8661 141.988H71.8661L71.9562 142.479ZM71.4605 142.529L71.4516 142.029C71.4246 142.03 71.3976 142.032 71.371 142.037L71.4605 142.529ZM71.4412 142.533L71.5307 143.025H71.5307L71.4412 142.533ZM69.7762 142.078L69.4494 142.457H69.4494L69.7762 142.078ZM60.2807 133.878L60.6075 133.499H60.6075L60.2807 133.878ZM59.5967 132.177L59.0989 132.13L59.5967 132.177ZM64.3534 81.5823L64.8513 81.6291L64.3534 81.5823ZM71.8122 73.5509L71.7288 73.0579L71.8122 73.5509ZM96.547 69.365L96.4636 68.872V68.872L96.547 69.365ZM107.111 77.1806L98.5532 69.4787L97.8842 70.222L106.442 77.9239L107.111 77.1806ZM107.876 78.4835C107.763 77.9864 107.499 77.5295 107.111 77.1806L106.442 77.9239C106.674 78.1332 106.833 78.4072 106.901 78.7057L107.876 78.4835ZM108.203 80.215C108.253 79.5464 108.113 78.9147 107.834 78.3671L106.943 78.822C107.142 79.2106 107.242 79.6597 107.206 80.1408L108.203 80.215ZM104.514 129.808L108.203 80.215L107.206 80.1408L103.517 129.733L104.514 129.808ZM96.7516 138.448C101.004 137.669 104.194 134.118 104.514 129.808L103.517 129.733C103.23 133.59 100.376 136.767 96.5715 137.464L96.7516 138.448ZM72.0462 142.971L96.7516 138.448L96.5715 137.464L71.8661 141.988L72.0462 142.971ZM71.4694 143.029C71.6596 143.026 71.8524 143.007 72.0462 142.971L71.8661 141.988C71.7258 142.013 71.5874 142.027 71.4516 142.029L71.4694 143.029ZM71.5307 143.025L71.55 143.021L71.371 142.037L71.3518 142.041L71.5307 143.025ZM69.4494 142.457C70.0217 142.951 70.7868 143.16 71.5307 143.025L71.3518 142.041C70.9055 142.122 70.4464 141.997 70.103 141.7L69.4494 142.457ZM59.9539 134.256L69.4494 142.457L70.103 141.7L60.6075 133.499L59.9539 134.256ZM59.0989 132.13C59.0232 132.935 59.3417 133.728 59.9539 134.256L60.6075 133.499C60.2402 133.182 60.0491 132.707 60.0945 132.224L59.0989 132.13ZM63.8556 81.5355L59.0989 132.13L60.0945 132.224L64.8513 81.6291L63.8556 81.5355ZM71.7288 73.0579C67.4879 73.7756 64.2583 77.2531 63.8556 81.5355L64.8513 81.6291C65.2115 77.7975 68.1011 74.686 71.8956 74.0439L71.7288 73.0579ZM96.4636 68.872L71.7288 73.0579L71.8956 74.0439L96.6305 69.858L96.4636 68.872ZM98.5532 69.4787C97.9858 68.9681 97.2162 68.7446 96.4636 68.872L96.6305 69.858C97.082 69.7815 97.5438 69.9156 97.8842 70.222L98.5532 69.4787Z" fill="black"/>
<path fill-rule="evenodd" clip-rule="evenodd" d="M106.669 131.442L107 131.704L107.195 131.672C107.318 131.718 107.445 131.76 107.574 131.797C113.001 133.349 121.228 133.585 130.5 131.73L182.781 121.565C183.916 121.344 185.016 120.92 185.939 120.223C194.311 113.897 192.531 106.287 190 104.23C192.167 103.73 196.7 101.33 197.5 95.7305C198.3 90.1305 195.833 87.7305 194.5 87.2305C196.667 87.0638 201.2 85.0305 202 78.2305C202.8 71.4305 199 69.3971 197 69.2305C198.833 68.5638 202.5 65.5305 202.5 58.7305C202.5 54.9543 200.855 52.9564 198.936 51.9834L199 51.7041L189 43.7041L160.089 48.2472C164.414 37.2424 164.641 25.3708 164 19.7305C163.878 17.2904 162.756 13.0106 159.496 10.7351L159.5 10.7041L149 2.2041L132 46.7041L108.5 70.2041L95 122.204L105.173 130.258C105.582 130.738 106.081 131.142 106.669 131.442Z" fill="#D0D5DD"/>
<path d="M107 131.704L106.69 132.096C106.8 132.183 106.942 132.22 107.081 132.198L107 131.704ZM106.669 131.442L106.979 131.05C106.953 131.029 106.925 131.011 106.895 130.996L106.669 131.442ZM107.195 131.672L107.369 131.204C107.288 131.173 107.2 131.165 107.114 131.179L107.195 131.672ZM107.574 131.797L107.437 132.277H107.437L107.574 131.797ZM130.5 131.73L130.405 131.24L130.402 131.24L130.5 131.73ZM182.781 121.565L182.877 122.056L182.781 121.565ZM185.939 120.223L185.637 119.824L185.939 120.223ZM190 104.23L189.888 103.743C189.701 103.786 189.556 103.931 189.513 104.118C189.47 104.304 189.536 104.498 189.685 104.619L190 104.23ZM194.5 87.2305L194.462 86.7319C194.228 86.7499 194.038 86.928 194.005 87.1602C193.972 87.3924 194.105 87.6163 194.324 87.6986L194.5 87.2305ZM197 69.2305L196.829 68.7606C196.608 68.8408 196.473 69.0639 196.504 69.2967C196.536 69.5295 196.724 69.7092 196.958 69.7287L197 69.2305ZM198.936 51.9834L198.449 51.8715C198.397 52.0954 198.505 52.3255 198.71 52.4294L198.936 51.9834ZM199 51.7041L199.487 51.816C199.53 51.6288 199.462 51.4336 199.312 51.3137L199 51.7041ZM189 43.7041L189.312 43.3137C189.203 43.2259 189.061 43.1884 188.922 43.2102L189 43.7041ZM160.089 48.2472L159.624 48.0643C159.558 48.2311 159.587 48.4203 159.699 48.5601C159.812 48.6999 159.99 48.769 160.167 48.7411L160.089 48.2472ZM164 19.7305L163.501 19.7554C163.501 19.766 163.502 19.7765 163.503 19.7869L164 19.7305ZM159.496 10.7351L159.001 10.6644C158.974 10.8512 159.055 11.0371 159.209 11.1451L159.496 10.7351ZM159.5 10.7041L159.995 10.7748C160.02 10.6006 159.951 10.4262 159.815 10.3155L159.5 10.7041ZM149 2.2041L149.315 1.81548C149.19 1.71469 149.025 1.67966 148.87 1.72125C148.715 1.76285 148.59 1.87603 148.533 2.02567L149 2.2041ZM132 46.7041L132.354 47.0577C132.403 47.0079 132.442 46.9482 132.467 46.8825L132 46.7041ZM108.5 70.2041L108.146 69.8505C108.083 69.9135 108.038 69.9922 108.016 70.0785L108.5 70.2041ZM95 122.204L94.516 122.078C94.4663 122.27 94.5344 122.473 94.6896 122.596L95 122.204ZM105.173 130.258L105.554 129.934C105.532 129.909 105.509 129.886 105.483 129.866L105.173 130.258ZM107.31 131.312L106.979 131.05L106.358 131.834L106.69 132.096L107.31 131.312ZM107.114 131.179L106.919 131.211L107.081 132.198L107.276 132.166L107.114 131.179ZM107.021 132.141C107.156 132.191 107.295 132.237 107.437 132.277L107.712 131.316C107.594 131.282 107.48 131.245 107.369 131.204L107.021 132.141ZM107.437 132.277C112.961 133.857 121.273 134.086 130.598 132.221L130.402 131.24C121.182 133.084 113.04 132.84 107.712 131.316L107.437 132.277ZM130.595 132.221L182.877 122.056L182.686 121.074L130.405 131.24L130.595 132.221ZM182.877 122.056C184.068 121.824 185.243 121.375 186.24 120.622L185.637 119.824C184.789 120.465 183.765 120.864 182.686 121.074L182.877 122.056ZM186.24 120.622C194.801 114.153 193.162 106.155 190.315 103.842L189.685 104.619C191.9 106.418 193.82 113.641 185.637 119.824L186.24 120.622ZM190.112 104.718C192.403 104.189 197.156 101.674 197.995 95.8012L197.005 95.6598C196.244 100.987 191.93 103.272 189.888 103.743L190.112 104.718ZM197.995 95.8012C198.819 90.0308 196.282 87.3649 194.676 86.7623L194.324 87.6986C195.384 88.0961 197.781 90.2301 197.005 95.6598L197.995 95.8012ZM194.538 87.729C196.923 87.5456 201.666 85.3458 202.497 78.2889L201.503 78.1721C200.734 84.7151 196.41 86.5821 194.462 86.7319L194.538 87.729ZM202.497 78.2889C202.908 74.789 202.143 72.4379 200.941 70.9312C199.748 69.4351 198.166 68.8259 197.042 68.7322L196.958 69.7287C197.834 69.8017 199.152 70.2925 200.159 71.5547C201.157 72.8064 201.892 74.872 201.503 78.1721L202.497 78.2889ZM197.171 69.7004C199.214 68.9575 203 65.7278 203 58.7305H202C202 65.3331 198.453 68.1701 196.829 68.7606L197.171 69.7004ZM203 58.7305C203 56.7686 202.572 55.2332 201.867 54.0499C201.162 52.8657 200.195 52.0614 199.162 51.5374L198.71 52.4294C199.596 52.8785 200.411 53.5595 201.008 54.5616C201.605 55.5645 202 56.9162 202 58.7305H203ZM198.513 51.5922L198.449 51.8715L199.423 52.0953L199.487 51.816L198.513 51.5922ZM188.688 44.0945L198.688 52.0945L199.312 51.3137L189.312 43.3137L188.688 44.0945ZM160.167 48.7411L189.078 44.198L188.922 43.2102L160.012 47.7533L160.167 48.7411ZM160.555 48.4301C164.916 37.332 165.145 25.3749 164.497 19.674L163.503 19.7869C164.137 25.3667 163.912 37.1527 159.624 48.0643L160.555 48.4301ZM164.499 19.7055C164.374 17.1969 163.226 12.7287 159.782 10.3251L159.209 11.1451C162.286 13.2924 163.382 17.3839 163.501 19.7554L164.499 19.7055ZM159.005 10.6334L159.001 10.6644L159.991 10.8058L159.995 10.7748L159.005 10.6334ZM148.685 2.59272L159.185 11.0927L159.815 10.3155L149.315 1.81548L148.685 2.59272ZM132.467 46.8825L149.467 2.38254L148.533 2.02567L131.533 46.5257L132.467 46.8825ZM108.854 70.5577L132.354 47.0577L131.646 46.3505L108.146 69.8505L108.854 70.5577ZM95.484 122.33L108.984 70.3297L108.016 70.0785L94.516 122.078L95.484 122.33ZM105.483 129.866L95.3104 121.812L94.6896 122.596L104.862 130.65L105.483 129.866ZM104.792 130.582C105.242 131.111 105.793 131.557 106.442 131.887L106.895 130.996C106.369 130.728 105.922 130.366 105.554 129.934L104.792 130.582Z" fill="black"/>
<path d="M88 129.204L60.5 134.204L71 142.704C78.6667 141.371 94 138.604 96 138.204C98 137.804 100.5 136.204 101.5 134.704L92.5 126.704C90.9 128.704 88.8333 129.037 88 129.204Z" fill="#151515" stroke="#151515"/>
<path d="M103.5 132.204L94 124.204L93.5 125.204L103 133.204L103.5 132.204Z" fill="#151515" stroke="#151515"/>
<path d="M102 73.2032L93.9207 116.742C93.3582 119.773 94.6102 122.922 97.5744 123.769C103.001 125.321 111.228 125.558 120.5 123.703L172.781 113.537C173.916 113.317 175.016 112.893 175.939 112.196C184.311 105.869 182.531 98.2593 180 96.2031C182.167 95.7031 186.7 93.3031 187.5 87.7031C188.3 82.1031 185.833 79.7031 184.5 79.2031C186.667 79.0365 191.2 77.0031 192 70.2031C192.8 63.4031 189 61.3698 187 61.2031C188.833 60.5365 192.5 57.5031 192.5 50.7031C192.5 43.9031 187.167 42.8698 184.5 43.2031L145 49.7031C154.2 36.903 154.833 19.0364 154 11.7031C153.833 8.36982 151.8 1.60322 145 1.20322C138.2 0.803223 136.167 5.03656 136 7.20322C136 29.2032 130.5 35.2032 127 41.2032C123.5 47.2032 110 62.2032 106 65.7032C102.8 68.5032 102 71.8699 102 73.2032Z" fill="white" stroke="#151515"/>
<path d="M94.599 68.5192L69.9796 73.6636C67.0105 74.284 64.7788 76.7461 64.4521 79.7617L58.9332 130.706C58.7171 132.701 60.4823 134.341 62.456 133.98L87.1614 129.456C91.1895 128.719 94.2119 125.355 94.5157 121.271L98.2044 71.6783C98.3524 69.6883 96.5524 68.1111 94.599 68.5192Z" fill="white" stroke="#151515"/>
<path d="M178.5 110.204L188.5 117.704L189.5 116.704L179.5 109.204L178.5 110.204Z" fill="#151515" stroke="#151515"/>
<path d="M180 96.2041L190 104.204L192.5 103.204L182.5 95.2041L180 96.2041Z" fill="#151515" stroke="#151515"/>
<path d="M191 63.2041C189.8 62.0041 188.167 61.3708 187.5 61.2041L189.5 59.7041L199 67.7041L197 69.2041L191 63.2041Z" fill="#151515" stroke="#151515"/>
<path d="M195.5 87.2041L184.5 79.2041L187.5 78.2041L198 85.7041L195.5 87.2041Z" fill="#151515" stroke="#151515"/>
<path d="M107 131.704L96.5 123.204C102.1 126.004 112.833 125.037 117.5 124.204C136 120.704 173.2 113.604 174 113.204L177 111.704L187 119.204C185.5 120.204 184 121.204 182 121.704L123.5 132.704C114.3 133.504 108.667 132.371 107 131.704Z" fill="#151515" stroke="#151515"/>
</svg>
