<svg preserveAspectRatio="none" width="100%" height="100%" overflow="visible" style="display: block;" viewBox="0 0 22.0926 23.9777" fill="none" xmlns="http://www.w3.org/2000/svg">
<g id="Group">
<path id="Vector" d="M12.0094 23.9344C11.5219 23.8219 11.0625 23.461 10.7063 22.9172C10.3688 22.4016 10.2047 21.9141 9.87188 20.4235C9.64219 19.411 9.51563 19.1157 9.12188 18.6657C8.96719 18.4875 8.32969 17.7094 7.70625 16.9407C7.0875 16.1719 6.40313 15.3657 6.1875 15.15L5.79375 14.7563L3.57656 14.7422L1.35938 14.7282L1.05469 14.5828C0.665625 14.4 0.328125 14.0625 0.145313 13.6735L0 13.3688V8.28285V3.19691L0.126563 2.92972C0.389063 2.36253 0.951563 1.95003 1.575 1.86097C1.73906 1.83753 2.83594 1.8141 4.0125 1.8141H6.15469L6.55781 1.69691C6.78281 1.63128 7.57031 1.38285 8.31094 1.1391C10.2047 0.515659 11.1609 0.262534 12.2109 0.0937838C12.9984 -0.0280912 16.2703 -0.0327787 16.8188 0.0890963C17.7891 0.309409 18.375 0.618784 19.0078 1.2516C19.7156 1.95941 20.0297 2.66722 20.1375 3.80628C20.1844 4.26566 20.2031 4.34535 20.3438 4.56097C20.8406 5.32035 21.0375 6.0516 21.0188 7.04066C21.0094 7.53285 21.0188 7.57035 21.1547 7.86097C21.4781 8.5266 21.6141 9.52503 21.4781 10.2047L21.4078 10.5563L21.5625 10.8375C21.9563 11.55 22.125 12.2813 22.0875 13.111C22.0453 14.0953 21.7453 14.7469 20.9813 15.5016C20.4797 15.9985 20.1094 16.2375 19.5469 16.4297C19.1719 16.5516 19.1719 16.5563 17.5453 16.5703C16.6453 16.5797 15.9141 16.6032 15.9141 16.6266C15.9141 16.6453 15.9563 16.7672 16.0125 16.8938C16.35 17.6625 16.5188 18.375 16.5563 19.1907C16.6359 20.9578 16.1672 22.336 15.2063 23.1235C14.9203 23.3578 14.4422 23.6016 13.9922 23.7516C13.3875 23.9485 12.4406 24.0375 12.0094 23.9344ZM13.5422 21.975C14.2547 21.7266 14.5828 21.1547 14.6953 19.9782C14.7844 19.0125 14.6719 18.5063 14.0203 17.0063C13.5703 15.9657 13.4391 15.5532 13.3641 14.9766L13.3359 14.7563L16.0922 14.7422L18.8438 14.7282L19.1484 14.5828C19.5 14.4141 19.9031 14.0344 20.0625 13.7203C20.2078 13.4297 20.2922 13.0032 20.2547 12.7032C20.2172 12.4032 20.0016 11.7938 19.8375 11.5313C19.7063 11.3203 19.4391 11.0953 19.3266 11.0953C19.2 11.0953 19.2 11.0391 19.3172 10.8657C19.5844 10.4578 19.7344 9.75472 19.6594 9.2391C19.6031 8.84066 19.4625 8.51722 19.1813 8.14691L18.9563 7.84691L19.0641 7.56097C19.2234 7.14378 19.2141 6.51097 19.0406 6.06566C18.8906 5.68128 18.6891 5.3766 18.45 5.1891L18.2719 5.04378L18.2953 4.42503C18.3188 3.75472 18.2672 3.43597 18.0609 3.00003C17.8266 2.49847 17.2359 2.08597 16.5234 1.92191C15.9891 1.80472 13.4578 1.80472 12.6094 1.9266C11.6578 2.06253 10.3078 2.41878 8.625 2.98128C6.94688 3.54378 6.6 3.63285 5.94375 3.67503L5.50781 3.70316V8.31566V12.9235H5.83125C6.00469 12.9235 6.22031 12.9469 6.30938 12.975C6.825 13.1532 7.71094 13.9735 8.61563 15.1219C9.62813 16.4063 9.97031 16.8282 10.3828 17.3063C11.1984 18.2485 11.3344 18.5625 11.7844 20.5032C12 21.4219 12.1125 21.7453 12.3 21.9703L12.4359 22.1391L12.8531 22.1016C13.0781 22.0828 13.3922 22.0266 13.5422 21.975ZM3.24375 5.34847C3.3375 5.26878 3.45469 5.1516 3.50625 5.08597C3.60938 4.94535 3.66094 4.61722 3.61406 4.36878C3.57656 4.16722 3.29531 3.8391 3.08438 3.75003C2.70469 3.59066 2.21719 3.74535 1.96875 4.1016C1.84688 4.27503 1.82813 4.35003 1.82813 4.60316C1.82813 4.85628 1.84688 4.9266 1.96875 5.10003C2.27344 5.53597 2.86875 5.64847 3.24375 5.34847Z" fill="var(--fill-0, #D0D5DD)"/>
</g>
</svg>
