<svg preserveAspectRatio="none" width="100%" height="100%" overflow="visible" style="display: block;" viewBox="0 0 22.8893 22.8893" fill="none" xmlns="http://www.w3.org/2000/svg">
<g id="Frame" clip-path="url(#clip0_4429_93199)">
<g id="Vector">
</g>
<path id="Vector_2" d="M10.4472 2.14648C8.60808 2.14648 6.81026 2.69185 5.28109 3.71361C3.75191 4.73537 2.56007 6.18764 1.85627 7.88676C1.15247 9.58589 0.96832 11.4556 1.32711 13.2593C1.68591 15.0631 2.57153 16.72 3.87199 18.0205C5.17244 19.3209 6.82932 20.2065 8.6331 20.5653C10.4369 20.9241 12.3066 20.74 14.0057 20.0362C15.7048 19.3324 17.1571 18.1405 18.1788 16.6114C19.2006 15.0822 19.746 13.2844 19.746 11.4452C19.7412 8.98051 18.76 6.61808 17.0172 4.87525C15.2744 3.13242 12.9119 2.15121 10.4472 2.14648V2.14648ZM14.8731 9.81796L9.63356 14.825C9.4981 14.9524 9.31882 15.0228 9.13286 15.0217C9.04196 15.023 8.95171 15.0063 8.8673 14.9725C8.7829 14.9388 8.70602 14.8886 8.6411 14.825L6.02135 12.3215C5.94869 12.2581 5.88959 12.1806 5.84762 12.0938C5.80565 12.007 5.78166 11.9126 5.7771 11.8163C5.77255 11.72 5.78751 11.6237 5.8211 11.5333C5.85469 11.4429 5.90621 11.3603 5.97256 11.2903C6.03891 11.2203 6.11873 11.1645 6.20721 11.1262C6.29569 11.0878 6.39101 11.0678 6.48744 11.0672C6.58387 11.0666 6.67941 11.0856 6.76833 11.1229C6.85725 11.1602 6.93771 11.2151 7.00487 11.2843L9.13286 13.3139L13.8895 8.78079C14.0286 8.65945 14.2092 8.59657 14.3936 8.60529C14.5779 8.61401 14.7518 8.69367 14.8788 8.8276C15.0058 8.96153 15.0761 9.13937 15.0751 9.32394C15.074 9.5085 15.0016 9.68552 14.8731 9.81796Z" fill="var(--fill-0, #12B76A)"/>
</g>
<defs>
<clipPath id="clip0_4429_93199">
<rect width="22.8893" height="22.8893" fill="white"/>
</clipPath>
</defs>
</svg>
