<svg preserveAspectRatio="none" width="100%" height="100%" overflow="visible" style="display: block;" viewBox="0 0 22.8893 22.8893" fill="none" xmlns="http://www.w3.org/2000/svg">
<g id="Frame" clip-path="url(#clip0_4429_93207)">
<g id="Vector">
</g>
<path id="Vector_2" d="M11.4446 19.3128C11.4446 19.3128 2.50351 14.3058 2.50351 8.22583C2.50351 7.151 2.8759 6.10938 3.55733 5.27817C4.23876 4.44696 5.18712 3.87752 6.24107 3.66673C7.29503 3.45594 8.38945 3.61682 9.33816 4.12201C10.2869 4.62719 11.0312 5.44546 11.4446 6.4376V6.4376C11.858 5.44546 12.6024 4.62719 13.5511 4.12201C14.4998 3.61682 15.5942 3.45594 16.6482 3.66673C17.7021 3.87752 18.6505 4.44696 19.3319 5.27817C20.0134 6.10938 20.3857 7.151 20.3857 8.22583C20.3857 14.3058 11.4446 19.3128 11.4446 19.3128Z" stroke="var(--stroke-0, #98A2B3)" stroke-width="1.43058" stroke-linecap="round" stroke-linejoin="round"/>
</g>
<defs>
<clipPath id="clip0_4429_93207">
<rect width="22.8893" height="22.8893" fill="white"/>
</clipPath>
</defs>
</svg>
