<svg preserveAspectRatio="none" width="100%" height="100%" overflow="visible" style="display: block;" viewBox="0 0 44.1852 47.9554" fill="none" xmlns="http://www.w3.org/2000/svg">
<g id="Group">
<path id="Vector" d="M24.0188 47.8688C23.0438 47.6438 22.125 46.9219 21.4125 45.8344C20.7375 44.8032 20.4094 43.8282 19.7438 40.8469C19.2844 38.8219 19.0313 38.2313 18.2438 37.3313C17.9344 36.9751 16.6594 35.4188 15.4125 33.8813C14.175 32.3438 12.8063 30.7313 12.375 30.3001L11.5875 29.5126L7.15313 29.4844L2.71875 29.4563L2.10938 29.1657C1.33125 28.8001 0.65625 28.1251 0.290625 27.3469L0 26.7376V16.5657V6.39382L0.253125 5.85944C0.778125 4.72507 1.90313 3.90007 3.15 3.72194C3.47813 3.67507 5.67188 3.62819 8.025 3.62819H12.3094L13.1156 3.39382C13.5656 3.26257 15.1406 2.76569 16.6219 2.27819C20.4094 1.03132 22.3219 0.525068 24.4219 0.187568C25.9969 -0.0561824 32.5406 -0.0655574 33.6375 0.178193C35.5781 0.618818 36.75 1.23757 38.0156 2.50319C39.4313 3.91882 40.0594 5.33444 40.275 7.61257C40.3688 8.53132 40.4063 8.69069 40.6875 9.12194C41.6813 10.6407 42.075 12.1032 42.0375 14.0813C42.0188 15.0657 42.0375 15.1407 42.3094 15.7219C42.9563 17.0532 43.2281 19.0501 42.9563 20.4094L42.8156 21.1126L43.125 21.6751C43.9125 23.1001 44.25 24.5626 44.175 26.2219C44.0906 28.1907 43.4906 29.4938 41.9625 31.0032C40.9594 31.9969 40.2188 32.4751 39.0938 32.8594C38.3438 33.1032 38.3438 33.1126 35.0906 33.1407C33.2906 33.1594 31.8281 33.2063 31.8281 33.2532C31.8281 33.2907 31.9125 33.5344 32.025 33.7876C32.7 35.3251 33.0375 36.7501 33.1125 38.3813C33.2719 41.9157 32.3344 44.6719 30.4125 46.2469C29.8406 46.7157 28.8844 47.2032 27.9844 47.5032C26.775 47.8969 24.8813 48.0751 24.0188 47.8688ZM27.0844 43.9501C28.5094 43.4532 29.1656 42.3094 29.3906 39.9563C29.5688 38.0251 29.3438 37.0126 28.0406 34.0126C27.1406 31.9313 26.8781 31.1063 26.7281 29.9532L26.6719 29.5126L32.1844 29.4844L37.6875 29.4563L38.2969 29.1657C39 28.8282 39.8063 28.0688 40.125 27.4407C40.4156 26.8594 40.5844 26.0063 40.5094 25.4063C40.4344 24.8063 40.0031 23.5876 39.675 23.0626C39.4125 22.6407 38.8781 22.1907 38.6531 22.1907C38.4 22.1907 38.4 22.0782 38.6344 21.7313C39.1688 20.9157 39.4688 19.5094 39.3188 18.4782C39.2063 17.6813 38.925 17.0344 38.3625 16.2938L37.9125 15.6938L38.1281 15.1219C38.4469 14.2876 38.4281 13.0219 38.0813 12.1313C37.7813 11.3626 37.3781 10.7532 36.9 10.3782L36.5438 10.0876L36.5906 8.85007C36.6375 7.50944 36.5344 6.87194 36.1219 6.00007C35.6531 4.99694 34.4719 4.17194 33.0469 3.84382C31.9781 3.60944 26.9156 3.60944 25.2188 3.85319C23.3156 4.12507 20.6156 4.83757 17.25 5.96257C13.8938 7.08757 13.2 7.26569 11.8875 7.35007L11.0156 7.40632V16.6313V25.8469H11.6625C12.0094 25.8469 12.4406 25.8938 12.6188 25.9501C13.65 26.3063 15.4219 27.9469 17.2313 30.2438C19.2563 32.8126 19.9406 33.6563 20.7656 34.6126C22.3969 36.4969 22.6688 37.1251 23.5688 41.0063C24 42.8438 24.225 43.4907 24.6 43.9407L24.8719 44.2782L25.7063 44.2032C26.1563 44.1657 26.7844 44.0532 27.0844 43.9501ZM6.4875 10.6969C6.675 10.5376 6.90938 10.3032 7.0125 10.1719C7.21875 9.89069 7.32188 9.23444 7.22813 8.73757C7.15313 8.33444 6.59063 7.67819 6.16875 7.50007C5.40938 7.18132 4.43438 7.49069 3.9375 8.20319C3.69375 8.55007 3.65625 8.70007 3.65625 9.20632C3.65625 9.71257 3.69375 9.85319 3.9375 10.2001C4.54688 11.0719 5.7375 11.2969 6.4875 10.6969Z" fill="var(--fill-0, #039855)"/>
</g>
</svg>
