<svg preserveAspectRatio="none" width="100%" height="100%" overflow="visible" style="display: block;" viewBox="0 0 22.8893 22.8893" fill="none" xmlns="http://www.w3.org/2000/svg">
<g id="Frame" clip-path="url(#clip0_4429_93182)">
<g id="Vector">
</g>
<path id="Vector_2" d="M10.4472 2.14648C8.60808 2.14648 6.81026 2.69185 5.28109 3.71361C3.75191 4.73537 2.56007 6.18764 1.85627 7.88676C1.15247 9.58589 0.96832 11.4556 1.32711 13.2593C1.68591 15.0631 2.57153 16.72 3.87199 18.0205C5.17244 19.3209 6.82932 20.2065 8.6331 20.5653C10.4369 20.9241 12.3066 20.74 14.0057 20.0362C15.7048 19.3324 17.1571 18.1405 18.1788 16.6114C19.2006 15.0822 19.746 13.2844 19.746 11.4452C19.7412 8.98051 18.76 6.61808 17.0172 4.87525C15.2744 3.13242 12.9119 2.15121 10.4472 2.14648V2.14648ZM13.818 13.7968C13.9523 13.9324 14.0277 14.1155 14.0277 14.3064C14.0277 14.4973 13.9523 14.6804 13.818 14.816C13.6813 14.9482 13.4985 15.0221 13.3084 15.0221C13.1182 15.0221 12.9354 14.9482 12.7987 14.816L10.4472 12.4556L8.09569 14.816C7.95897 14.9482 7.77623 15.0221 7.58604 15.0221C7.39586 15.0221 7.21312 14.9482 7.0764 14.816C6.94208 14.6804 6.86673 14.4973 6.86673 14.3064C6.86673 14.1155 6.94208 13.9324 7.0764 13.7968L9.43686 11.4452L7.0764 9.09373C6.96234 8.95475 6.90405 8.77832 6.91287 8.59874C6.92169 8.41917 6.99699 8.24929 7.12412 8.12216C7.25125 7.99503 7.42113 7.91973 7.6007 7.91091C7.78028 7.90209 7.95671 7.96038 8.09569 8.07444L10.4472 10.4349L12.7987 8.07444C12.9377 7.96038 13.1141 7.90209 13.2937 7.91091C13.4733 7.91973 13.6432 7.99503 13.7703 8.12216C13.8974 8.24929 13.9727 8.41917 13.9815 8.59874C13.9904 8.77832 13.9321 8.95475 13.818 9.09373L11.4575 11.4452L13.818 13.7968Z" fill="var(--fill-0, #F04438)"/>
</g>
<defs>
<clipPath id="clip0_4429_93182">
<rect width="22.8893" height="22.8893" fill="white"/>
</clipPath>
</defs>
</svg>
