<svg preserveAspectRatio="none" width="100%" height="100%" overflow="visible" style="display: block;" viewBox="0 0 22.8893 22.8893" fill="none" xmlns="http://www.w3.org/2000/svg">
<g id="Frame" clip-path="url(#clip0_4429_93262)">
<g id="Vector">
</g>
<path id="Vector_2" d="M10.4472 2.14453C8.60808 2.14453 6.81026 2.68989 5.28109 3.71165C3.75191 4.73342 2.56007 6.18568 1.85627 7.88481C1.15247 9.58394 0.96832 11.4536 1.32711 13.2574C1.68591 15.0612 2.57153 16.7181 3.87199 18.0185C5.17244 19.319 6.82932 20.2046 8.6331 20.5634C10.4369 20.9222 12.3066 20.738 14.0057 20.0342C15.7048 19.3304 17.1571 18.1386 18.1788 16.6094C19.2006 15.0802 19.746 13.2824 19.746 11.4433C19.7412 8.97856 18.76 6.61613 17.0172 4.8733C15.2744 3.13046 12.9119 2.14926 10.4472 2.14453V2.14453ZM13.818 13.7948C13.9523 13.9304 14.0277 14.1136 14.0277 14.3044C14.0277 14.4953 13.9523 14.6785 13.818 14.8141C13.6813 14.9463 13.4985 15.0202 13.3084 15.0202C13.1182 15.0202 12.9354 14.9463 12.7987 14.8141L10.4472 12.4536L8.09569 14.8141C7.95897 14.9463 7.77623 15.0202 7.58604 15.0202C7.39586 15.0202 7.21312 14.9463 7.0764 14.8141C6.94208 14.6785 6.86673 14.4953 6.86673 14.3044C6.86673 14.1136 6.94208 13.9304 7.0764 13.7948L9.43686 11.4433L7.0764 9.09178C6.96234 8.9528 6.90405 8.77636 6.91287 8.59679C6.92169 8.41721 6.99699 8.24734 7.12412 8.12021C7.25125 7.99308 7.42113 7.91778 7.6007 7.90896C7.78028 7.90014 7.95671 7.95843 8.09569 8.07249L10.4472 10.4329L12.7987 8.07249C12.9377 7.95843 13.1141 7.90014 13.2937 7.90896C13.4733 7.91778 13.6432 7.99308 13.7703 8.12021C13.8974 8.24734 13.9727 8.41721 13.9815 8.59679C13.9904 8.77636 13.9321 8.9528 13.818 9.09178L11.4575 11.4433L13.818 13.7948Z" fill="var(--fill-0, #F04438)"/>
</g>
<defs>
<clipPath id="clip0_4429_93262">
<rect width="22.8893" height="22.8893" fill="white"/>
</clipPath>
</defs>
</svg>
