<svg preserveAspectRatio="none" width="100%" height="100%" overflow="visible" style="display: block;" viewBox="0 0 87.7421 13.9766" fill="none" xmlns="http://www.w3.org/2000/svg">
<g id="Frame 25">
<path id="Star" d="M11.7093 8.69435C11.5188 8.87898 11.4313 9.14599 11.4747 9.40785L12.1286 13.0268C12.1838 13.3335 12.0543 13.644 11.7976 13.8212C11.546 14.0051 11.2114 14.0272 10.937 13.8801L7.67918 12.1809C7.56591 12.1206 7.44013 12.0882 7.3114 12.0846H7.11206C7.04292 12.0949 6.97525 12.1169 6.91346 12.1508L3.65492 13.858C3.49383 13.9389 3.31141 13.9676 3.13267 13.9389C2.69722 13.8565 2.40667 13.4417 2.47802 13.004L3.13267 9.38504C3.17607 9.12098 3.08854 8.8525 2.89803 8.66493L0.241909 6.09046C0.0197689 5.87494 -0.0574652 5.55129 0.0440424 5.25927C0.142608 4.96799 0.39417 4.75541 0.697958 4.7076L4.3537 4.17726C4.63175 4.14857 4.87595 3.97939 5.001 3.7293L6.61188 0.426626C6.65013 0.35307 6.69941 0.285398 6.75899 0.228024L6.82519 0.176535C6.85977 0.138286 6.89949 0.106657 6.94362 0.0809119L7.0238 0.0514894L7.14884 0H7.45851C7.73509 0.0286869 7.97856 0.194189 8.10581 0.441338L9.73802 3.7293C9.85571 3.96983 10.0845 4.1368 10.3485 4.17726L14.0043 4.7076C14.3132 4.75173 14.5714 4.96505 14.6736 5.25927C14.77 5.55423 14.6869 5.87788 14.4603 6.09046L11.7093 8.69435Z" fill="var(--fill-0, #FBBC04)"/>
<path id="Star_2" d="M29.7599 8.69435C29.5694 8.87898 29.4818 9.14599 29.5252 9.40785L30.1791 13.0268C30.2343 13.3335 30.1049 13.644 29.8481 13.8212C29.5966 14.0051 29.2619 14.0272 28.9875 13.8801L25.7297 12.1809C25.6164 12.1206 25.4907 12.0882 25.3619 12.0846H25.1626C25.0935 12.0949 25.0258 12.1169 24.964 12.1508L21.7055 13.858C21.5444 13.9389 21.362 13.9676 21.1832 13.9389C20.7478 13.8565 20.4572 13.4417 20.5286 13.004L21.1832 9.38504C21.2266 9.12098 21.1391 8.8525 20.9486 8.66493L18.2925 6.09046C18.0703 5.87494 17.9931 5.55129 18.0946 5.25927C18.1932 4.96799 18.4447 4.75541 18.7485 4.7076L22.4042 4.17726C22.6823 4.14857 22.9265 3.97939 23.0515 3.7293L24.6624 0.426626C24.7007 0.35307 24.75 0.285398 24.8095 0.228024L24.8757 0.176535C24.9103 0.138286 24.95 0.106657 24.9942 0.0809119L25.0743 0.0514894L25.1994 0H25.5091C25.7856 0.0286869 26.0291 0.194189 26.1564 0.441338L27.7886 3.7293C27.9063 3.96983 28.135 4.1368 28.3991 4.17726L32.0548 4.7076C32.3638 4.75173 32.6219 4.96505 32.7242 5.25927C32.8205 5.55423 32.7374 5.87788 32.5109 6.09046L29.7599 8.69435Z" fill="var(--fill-0, #FBBC04)"/>
<path id="Star_3" d="M47.8104 8.69435C47.6199 8.87898 47.5324 9.14599 47.5758 9.40785L48.2297 13.0268C48.2849 13.3335 48.1554 13.644 47.8987 13.8212C47.6471 14.0051 47.3124 14.0272 47.0381 13.8801L43.7803 12.1809C43.667 12.1206 43.5412 12.0882 43.4125 12.0846H43.2131C43.144 12.0949 43.0763 12.1169 43.0145 12.1508L39.756 13.858C39.5949 13.9389 39.4125 13.9676 39.2338 13.9389C38.7983 13.8565 38.5078 13.4417 38.5791 13.004L39.2338 9.38504C39.2772 9.12098 39.1896 8.8525 38.9991 8.66493L36.343 6.09046C36.1209 5.87494 36.0436 5.55129 36.1451 5.25927C36.2437 4.96799 36.4953 4.75541 36.799 4.7076L40.4548 4.17726C40.7328 4.14857 40.977 3.97939 41.1021 3.7293L42.713 0.426626C42.7512 0.35307 42.8005 0.285398 42.8601 0.228024L42.9263 0.176535C42.9609 0.138286 43.0006 0.106657 43.0447 0.0809119L43.1249 0.0514894L43.2499 0H43.5596C43.8362 0.0286869 44.0796 0.194189 44.2069 0.441338L45.8391 3.7293C45.9568 3.96983 46.1856 4.1368 46.4496 4.17726L50.1054 4.7076C50.4143 4.75173 50.6725 4.96505 50.7747 5.25927C50.8711 5.55423 50.788 5.87788 50.5614 6.09046L47.8104 8.69435Z" fill="var(--fill-0, #FBBC04)"/>
<path id="Star_4" d="M65.8608 8.69435C65.6703 8.87898 65.5828 9.14599 65.6262 9.40785L66.2801 13.0268C66.3353 13.3335 66.2058 13.644 65.9491 13.8212C65.6975 14.0051 65.3628 14.0272 65.0885 13.8801L61.8307 12.1809C61.7174 12.1206 61.5916 12.0882 61.4629 12.0846H61.2636C61.1944 12.0949 61.1267 12.1169 61.065 12.1508L57.8064 13.858C57.6453 13.9389 57.4629 13.9676 57.2842 13.9389C56.8487 13.8565 56.5582 13.4417 56.6295 13.004L57.2842 9.38505C57.3276 9.12098 57.24 8.8525 57.0495 8.66493L54.3934 6.09046C54.1713 5.87494 54.094 5.55129 54.1955 5.25927C54.2941 4.96799 54.5457 4.75541 54.8495 4.7076L58.5052 4.17726C58.7832 4.14857 59.0274 3.97939 59.1525 3.7293L60.7634 0.426626C60.8016 0.35307 60.8509 0.285398 60.9105 0.228024L60.9767 0.176535C61.0113 0.138286 61.051 0.106657 61.0951 0.0809119L61.1753 0.0514894L61.3003 0H61.61C61.8866 0.0286869 62.1301 0.194189 62.2573 0.441338L63.8895 3.7293C64.0072 3.96983 64.236 4.1368 64.5 4.17726L68.1558 4.7076C68.4647 4.75174 68.7229 4.96505 68.8251 5.25927C68.9215 5.55423 68.8384 5.87788 68.6118 6.09046L65.8608 8.69435Z" fill="var(--fill-0, #FBBC04)"/>
<path id="Star_5" d="M83.9115 8.69435C83.721 8.87898 83.6335 9.14599 83.6769 9.40785L84.3308 13.0268C84.3859 13.3335 84.2565 13.644 83.9998 13.8212C83.7482 14.0051 83.4135 14.0272 83.1392 13.8801L79.8814 12.1809C79.7681 12.1206 79.6423 12.0882 79.5136 12.0846H79.3142C79.2451 12.0949 79.1774 12.1169 79.1156 12.1508L75.8571 13.858C75.696 13.9389 75.5136 13.9676 75.3348 13.9389C74.8994 13.8565 74.6088 13.4417 74.6802 13.004L75.3348 9.38504C75.3782 9.12098 75.2907 8.8525 75.1002 8.66493L72.4441 6.09046C72.2219 5.87494 72.1447 5.55129 72.2462 5.25927C72.3448 4.96799 72.5963 4.75541 72.9001 4.7076L76.5559 4.17726C76.8339 4.14857 77.0781 3.97939 77.2032 3.7293L78.8141 0.426626C78.8523 0.35307 78.9016 0.285398 78.9612 0.228024L79.0274 0.176535C79.0619 0.138286 79.1017 0.106657 79.1458 0.0809119L79.226 0.0514894L79.351 0H79.6607C79.9373 0.0286869 80.1807 0.194189 80.308 0.441338L81.9402 3.7293C82.0579 3.96983 82.2866 4.1368 82.5507 4.17726L86.2065 4.7076C86.5154 4.75173 86.7736 4.96505 86.8758 5.25927C86.9722 5.55423 86.8891 5.87788 86.6625 6.09046L83.9115 8.69435Z" fill="var(--fill-0, #FBBC04)"/>
</g>
</svg>
