<svg preserveAspectRatio="none" width="100%" height="100%" overflow="visible" style="display: block;" viewBox="0 0 436.676 127.786" fill="none" xmlns="http://www.w3.org/2000/svg">
<g id="Group 5827">
<g id="tamawal">
<path d="M168.195 100.959H160.062V116.701C160.062 118.057 160.368 119.041 160.98 119.653C161.592 120.221 162.488 120.549 163.669 120.637C164.894 120.68 166.402 120.659 168.195 120.571V126.934C162.773 127.589 158.881 127.13 156.52 125.556C154.158 123.938 152.978 120.987 152.978 116.701V100.959H146.943V94.1373H152.978V87.0533L160.062 84.9544V94.1373H168.195V100.959Z" fill="var(--fill-0, white)"/>
<path d="M199.249 94.1373H206.333V126.934H199.249V122.211C196.582 125.928 192.756 127.786 187.771 127.786C183.267 127.786 179.419 126.125 176.227 122.801C173.034 119.434 171.438 115.346 171.438 110.535C171.438 105.682 173.034 101.593 176.227 98.2696C179.419 94.9463 183.267 93.2846 187.771 93.2846C192.756 93.2846 196.582 95.1212 199.249 98.7944V94.1373ZM181.474 118.079C183.442 120.046 185.912 121.03 188.886 121.03C191.859 121.03 194.33 120.046 196.298 118.079C198.266 116.067 199.249 113.553 199.249 110.535C199.249 107.518 198.266 105.026 196.298 103.058C194.33 101.046 191.859 100.041 188.886 100.041C185.912 100.041 183.442 101.046 181.474 103.058C179.506 105.026 178.522 107.518 178.522 110.535C178.522 113.553 179.506 116.067 181.474 118.079Z" fill="var(--fill-0, white)"/>
<path d="M250.404 93.2846C254.121 93.2846 257.116 94.4871 259.39 96.8922C261.664 99.2973 262.801 102.533 262.801 106.6V126.934H255.717V107.059C255.717 104.785 255.148 103.036 254.012 101.812C252.875 100.544 251.322 99.9095 249.354 99.9095C247.168 99.9095 245.419 100.631 244.107 102.074C242.839 103.517 242.205 105.682 242.205 108.568V126.934H235.121V107.059C235.121 104.785 234.574 103.036 233.481 101.812C232.432 100.544 230.923 99.9095 228.955 99.9095C226.812 99.9095 225.063 100.653 223.708 102.14C222.352 103.583 221.674 105.725 221.674 108.568V126.934H214.59V94.1373H221.674V98.0729C223.773 94.8807 226.9 93.2846 231.054 93.2846C235.252 93.2846 238.357 95.0119 240.368 98.4664C242.555 95.0119 245.9 93.2846 250.404 93.2846Z" fill="var(--fill-0, white)"/>
<path d="M296.357 94.1373H303.441V126.934H296.357V122.211C293.69 125.928 289.863 127.786 284.878 127.786C280.374 127.786 276.526 126.125 273.334 122.801C270.142 119.434 268.546 115.346 268.546 110.535C268.546 105.682 270.142 101.593 273.334 98.2696C276.526 94.9463 280.374 93.2846 284.878 93.2846C289.863 93.2846 293.69 95.1212 296.357 98.7944V94.1373ZM278.582 118.079C280.549 120.046 283.02 121.03 285.993 121.03C288.967 121.03 291.438 120.046 293.405 118.079C295.373 116.067 296.357 113.553 296.357 110.535C296.357 107.518 295.373 105.026 293.405 103.058C291.438 101.046 288.967 100.041 285.993 100.041C283.02 100.041 280.549 101.046 278.582 103.058C276.614 105.026 275.63 107.518 275.63 110.535C275.63 113.553 276.614 116.067 278.582 118.079Z" fill="var(--fill-0, white)"/>
<path d="M349.479 94.1373H356.957L346.659 126.934H339.706L332.884 104.829L325.997 126.934H319.044L308.746 94.1373H316.224L322.586 116.767L329.474 94.1373H336.23L343.051 116.767L349.479 94.1373Z" fill="var(--fill-0, white)"/>
<path d="M386.867 94.1373H393.951V126.934H386.867V122.211C384.2 125.928 380.373 127.786 375.388 127.786C370.884 127.786 367.036 126.125 363.844 122.801C360.652 119.434 359.056 115.346 359.056 110.535C359.056 105.682 360.652 101.593 363.844 98.2696C367.036 94.9463 370.884 93.2846 375.388 93.2846C380.373 93.2846 384.2 95.1212 386.867 98.7944V94.1373ZM369.092 118.079C371.059 120.046 373.53 121.03 376.503 121.03C379.477 121.03 381.948 120.046 383.915 118.079C385.883 116.067 386.867 113.553 386.867 110.535C386.867 107.518 385.883 105.026 383.915 103.058C381.948 101.046 379.477 100.041 376.503 100.041C373.53 100.041 371.059 101.046 369.092 103.058C367.124 105.026 366.14 107.518 366.14 110.535C366.14 113.553 367.124 116.067 369.092 118.079Z" fill="var(--fill-0, white)"/>
<path d="M402.059 126.934V81.0794L409.347 78.9538V126.899L402.059 126.934Z" fill="var(--fill-0, white)"/>
</g>
<g id="Group 5703">
<path id="Rectangle 95" d="M402.058 14.5761H409.346V20.6495L402.058 22.7751V14.5761Z" fill="var(--fill-0, white)"/>
<path id="Rectangle 138" d="M388.696 14.5761H395.984V20.6495L388.696 22.7751V14.5761Z" fill="var(--fill-0, white)"/>
<path id="Vector 13 (Stroke)" fill-rule="evenodd" clip-rule="evenodd" d="M402.057 49.1953V30.0642L409.345 27.9385V49.1953C409.345 53.8912 405.538 57.698 400.842 57.698H389.19C386.935 57.698 384.772 56.8022 383.177 55.2076L379.742 51.772L384.895 46.6186L388.331 50.0542C388.559 50.282 388.868 50.41 389.19 50.41H400.842C401.513 50.41 402.057 49.8662 402.057 49.1953Z" fill="var(--fill-0, white)"/>
<path id="Vector 14 (Stroke)" fill-rule="evenodd" clip-rule="evenodd" d="M207.709 58.9137V54.055H214.997V58.9137C214.997 66.293 209.015 72.2752 201.635 72.2752H190.4L188.274 64.9871H201.635C204.989 64.9871 207.709 62.268 207.709 58.9137Z" fill="var(--fill-0, white)"/>
<path id="Vector 8 (Stroke)" fill-rule="evenodd" clip-rule="evenodd" d="M172.483 56.2299V0.00192868H179.771V56.2299C179.771 65.0914 172.588 72.2751 163.726 72.2751C158.295 72.2751 153.233 69.5279 150.273 64.9744L149.759 64.1834C146.808 59.6429 146.086 54.0052 147.798 48.8678L151.53 38.8715H159.122L154.712 51.1725C153.702 54.2045 154.128 57.5318 155.87 60.2115L156.384 61.0025C157.999 63.4877 160.762 64.9871 163.726 64.9871C168.562 64.9871 172.483 61.0664 172.483 56.2299Z" fill="var(--fill-0, white)"/>
<path id="Vector 18 (Stroke)" fill-rule="evenodd" clip-rule="evenodd" d="M359.36 46.6564L356.07 50.0421C355.842 50.2775 355.527 50.4104 355.199 50.4104H205.888V57.6984H355.199C357.497 57.6984 359.697 56.7686 361.298 55.1206L364.587 51.735L359.36 46.6564Z" fill="var(--fill-0, white)"/>
<rect id="Rectangle 97" x="388.696" y="0.00163154" width="20.6495" height="7.28805" fill="var(--fill-0, white)"/>
<path id="Rectangle 41 (Stroke)" fill-rule="evenodd" clip-rule="evenodd" d="M194.286 0.00163154V6.37868C194.286 7.66389 195.38 8.49898 196.473 8.49898C197.566 8.49898 198.659 7.66389 198.659 6.37868V1.67181L204.672 0.00163154V6.37868C204.672 10.9319 200.85 14.623 196.473 14.623C192.096 14.623 188.274 10.9319 188.274 6.37868V0.00163154H194.286Z" fill="var(--fill-0, white)"/>
<path id="Rectangle 41 (Stroke)_2" fill-rule="evenodd" clip-rule="evenodd" d="M204.612 0.00163154L204.611 6.38406C204.611 7.66927 205.668 8.50436 206.798 8.50436C207.928 8.50436 208.984 7.66927 208.984 6.38406L208.985 1.67181L214.997 0.00163154L214.997 6.38406C214.997 10.9373 211.175 14.6284 206.798 14.6284C202.421 14.6284 198.599 10.9373 198.599 6.38406L198.599 1.67181L204.612 0.00163154Z" fill="var(--fill-0, white)"/>
<path id="Rectangle 111 (Stroke)" fill-rule="evenodd" clip-rule="evenodd" d="M358.936 40.0844C358.936 32.7051 364.918 26.723 372.297 26.723C379.677 26.723 385.659 32.7051 385.659 40.0844V44.3358C385.659 51.7151 379.677 57.6972 372.297 57.6972C364.918 57.6972 358.936 51.7151 358.936 44.3358V40.0844ZM372.297 34.0111C368.943 34.0111 366.224 36.7302 366.224 40.0844V44.3358C366.224 47.69 368.943 50.4092 372.297 50.4092C375.652 50.4092 378.371 47.69 378.371 44.3358V40.0844C378.371 36.7302 375.652 34.0111 372.297 34.0111Z" fill="var(--fill-0, white)"/>
<path id="Rectangle 27 (Stroke)" fill-rule="evenodd" clip-rule="evenodd" d="M188.274 40.0844C188.274 32.7051 194.256 26.723 201.635 26.723C209.015 26.723 214.997 32.7051 214.997 40.0844V57.6972H201.635C194.256 57.6972 188.274 51.7151 188.274 44.3358V40.0844ZM201.635 34.0111C198.281 34.0111 195.562 36.7302 195.562 40.0844V44.3358C195.562 47.69 198.281 50.4092 201.635 50.4092H207.709V40.0844C207.709 36.7302 204.989 34.0111 201.635 34.0111Z" fill="var(--fill-0, white)"/>
</g>
<g id="Group 5704">
<rect id="Rectangle 156" width="69.2365" height="14.5761" transform="matrix(-1 0 0 1 98.3887 29.152)" fill="var(--fill-0, white)"/>
<path id="Rectangle 152" d="M71.059 43.7301H56.4829V112.967L71.059 127.543V43.7301Z" fill="var(--fill-0, white)"/>
<path id="Rectangle 157" d="M127.541 112.966L112.965 127.542L71.0585 127.542L56.4824 112.966L127.541 112.966Z" fill="var(--fill-0, #F8FAFC)"/>
<path id="Rectangle 144" d="M112.965 0.00195874L127.541 14.5781V112.967L112.965 127.543V0.00195874Z" fill="var(--fill-0, white)"/>
<path id="Rectangle 150" d="M127.541 14.5761L112.965 6.96437e-07L14.5762 -4.76837e-07L9.93013e-05 14.5761L127.541 14.5761Z" fill="var(--fill-0, #F8FAFC)"/>
<path id="Rectangle 149" d="M14.5761 0.00195874L-4.76837e-07 14.5781V112.967L14.5761 127.543V0.00195874Z" fill="var(--fill-0, white)"/>
</g>
<path id="Union" d="M156.39 0.00195874C162.595 0.00195874 167.626 5.03216 167.626 11.2373C167.626 17.4426 162.595 22.4736 156.39 22.4736C150.185 22.4734 145.155 17.4425 145.155 11.2373C145.155 5.03229 150.185 0.00217401 156.39 0.00195874ZM156.39 1.45997C150.99 1.46018 146.613 5.83731 146.613 11.2373C146.613 16.6375 150.99 21.0154 156.39 21.0156C161.79 21.0156 166.168 16.6376 166.168 11.2373C166.168 5.83718 161.79 1.45997 156.39 1.45997ZM157.129 6.0752C158.043 6.0752 158.816 6.39577 159.448 7.03711C160.089 7.66875 160.41 8.44204 160.41 9.35547C160.409 10.0062 160.22 10.6035 159.841 11.1475C159.472 11.6819 158.986 12.0715 158.383 12.3145L160.701 16.2783H158.865L156.707 12.5615H154.725V16.2783H153.048V6.0752H157.129ZM154.725 11.0606H157.129C157.576 11.0606 157.956 10.8949 158.267 10.5645C158.578 10.2342 158.733 9.83126 158.733 9.35547C158.733 8.87947 158.578 8.47585 158.267 8.14551C157.956 7.81512 157.576 7.64942 157.129 7.64942H154.725V11.0606Z" fill="var(--fill-0, white)"/>
<path id="Union_2" d="M425.44 74.0962C431.645 74.0962 436.676 79.1264 436.676 85.3316C436.676 91.5369 431.645 96.5679 425.44 96.5679C419.235 96.5677 414.205 91.5368 414.205 85.3316C414.205 79.1265 419.235 74.0964 425.44 74.0962ZM425.44 75.5542C420.04 75.5544 415.663 79.9316 415.663 85.3316C415.663 90.7317 420.04 95.1097 425.44 95.1099C430.84 95.1099 435.218 90.7319 435.218 85.3316C435.218 79.9314 430.84 75.5542 425.44 75.5542ZM426.181 80.1694C427.095 80.1694 427.868 80.49 428.499 81.1314C429.141 81.7629 429.461 82.5355 429.461 83.4487C429.461 84.0997 429.272 84.6976 428.893 85.2417C428.524 85.7762 428.037 86.1648 427.435 86.4077L429.752 90.3726H427.916L425.759 86.6558H423.777V90.3726H422.1V80.1694H426.181ZM423.777 85.1548H426.181C426.628 85.1548 427.008 84.9891 427.319 84.6587C427.63 84.3284 427.785 83.9248 427.785 83.4487C427.785 82.9727 427.63 82.5691 427.319 82.2388C427.008 81.9084 426.628 81.7437 426.181 81.7437H423.777V85.1548Z" fill="var(--fill-0, white)"/>
</g>
</svg>
