<svg preserveAspectRatio="none" width="100%" height="100%" overflow="visible" style="display: block;" viewBox="0 0 22.8893 22.8893" fill="none" xmlns="http://www.w3.org/2000/svg">
<g id="Frame" clip-path="url(#clip0_4429_93203)">
<g id="Vector">
</g>
<path id="Vector_2" d="M10.4394 2.14453C8.60027 2.14453 6.80245 2.68989 5.27327 3.71165C3.7441 4.73342 2.55226 6.18568 1.84846 7.88481C1.14465 9.58394 0.960508 11.4536 1.3193 13.2574C1.6781 15.0612 2.56372 16.7181 3.86417 18.0185C5.16463 19.319 6.82151 20.2046 8.62529 20.5634C10.4291 20.9222 12.2987 20.738 13.9979 20.0342C15.697 19.3304 17.1493 18.1386 18.171 16.6094C19.1928 15.0802 19.7381 13.2824 19.7381 11.4433C19.7334 8.97856 18.7522 6.61613 17.0094 4.8733C15.2666 3.13046 12.9041 2.14926 10.4394 2.14453V2.14453ZM14.8652 9.81601L9.62575 14.823C9.49029 14.9505 9.31101 15.0209 9.12505 15.0197C9.03415 15.021 8.9439 15.0043 8.85949 14.9706C8.77509 14.9368 8.69821 14.8867 8.63328 14.823L6.01354 12.3195C5.94087 12.2561 5.88178 12.1787 5.83981 12.0919C5.79783 12.0051 5.77385 11.9107 5.76929 11.8143C5.76473 11.718 5.7797 11.6218 5.81329 11.5314C5.84688 11.441 5.8984 11.3583 5.96475 11.2883C6.0311 11.2184 6.11092 11.1625 6.1994 11.1242C6.28788 11.0859 6.3832 11.0658 6.47963 11.0653C6.57605 11.0647 6.6716 11.0836 6.76052 11.1209C6.84944 11.1583 6.9299 11.2132 6.99706 11.2824L9.12505 13.312L13.8817 8.77884C14.0208 8.6575 14.2014 8.59462 14.3858 8.60334C14.5701 8.61206 14.744 8.69171 14.871 8.82564C14.998 8.95957 15.0683 9.13741 15.0672 9.32198C15.0662 9.50655 14.9938 9.68356 14.8652 9.81601Z" fill="var(--fill-0, #12B76A)"/>
</g>
<defs>
<clipPath id="clip0_4429_93203">
<rect width="22.8893" height="22.8893" fill="white"/>
</clipPath>
</defs>
</svg>
