<svg preserveAspectRatio="none" width="100%" height="100%" overflow="visible" style="display: block;" viewBox="0 0 19.0744 19.0744" fill="none" xmlns="http://www.w3.org/2000/svg">
<g id="Frame" clip-path="url(#clip0_4429_93247)">
<g id="Vector">
</g>
<path id="Vector_2" d="M9.53719 16.6901C13.4876 16.6901 16.6901 13.4876 16.6901 9.53719C16.6901 5.58676 13.4876 2.3843 9.53719 2.3843C5.58676 2.3843 2.3843 5.58676 2.3843 9.53719C2.3843 13.4876 5.58676 16.6901 9.53719 16.6901Z" stroke="var(--stroke-0, #667085)" stroke-width="1.43058" stroke-linecap="round" stroke-linejoin="round"/>
<path id="Vector_3" d="M8.94112 8.94112H9.53719V13.1136H10.1333" stroke="var(--stroke-0, #667085)" stroke-width="1.43058" stroke-linecap="round" stroke-linejoin="round"/>
<path id="Vector_4" d="M9.38817 7.15289C9.88198 7.15289 10.2823 6.75259 10.2823 6.25878C10.2823 5.76498 9.88198 5.36467 9.38817 5.36467C8.89437 5.36467 8.49406 5.76498 8.49406 6.25878C8.49406 6.75259 8.89437 7.15289 9.38817 7.15289Z" fill="var(--fill-0, #667085)"/>
</g>
<defs>
<clipPath id="clip0_4429_93247">
<rect width="19.0744" height="19.0744" fill="white"/>
</clipPath>
</defs>
</svg>
