<svg width="130" height="42" viewBox="0 0 130 42" fill="none" xmlns="http://www.w3.org/2000/svg">
<g clip-path="url(#clip0_2257_80060)">
<mask id="mask0_2257_80060" style="mask-type:alpha" maskUnits="userSpaceOnUse" x="1" y="1" width="128" height="40">
<rect x="1" y="1" width="128" height="40" fill="#C4C4C4"/>
</mask>
<g mask="url(#mask0_2257_80060)">
<path d="M125 41H5C2.8 41 1 39.2 1 37V5C1 2.8 2.8 1 5 1H125C127.2 1 129 2.8 129 5V37C129 39.2 127.2 41 125 41Z" fill="black"/>
<path d="M27.998 20.799C27.998 17.699 30.5981 16.199 30.6981 16.099C29.1981 13.999 26.9981 13.699 26.1981 13.599C24.2981 13.399 22.398 14.699 21.498 14.699C20.498 14.699 18.9981 13.599 17.3981 13.599C15.2981 13.599 13.3981 14.799 12.2981 16.699C10.0981 20.499 11.6981 26.099 13.7981 29.199C14.8981 30.699 16.0981 32.399 17.6981 32.299C19.2981 32.199 19.8981 31.299 21.7981 31.299C23.6981 31.299 24.1981 32.299 25.8981 32.299C27.5981 32.299 28.6981 30.799 29.6981 29.299C30.8981 27.599 31.3981 25.899 31.3981 25.799C31.298 25.699 27.998 24.499 27.998 20.799Z" fill="white"/>
<path d="M24.9001 11.6016C25.7001 10.5016 26.3001 9.10156 26.2001 7.60156C25.0001 7.70156 23.4001 8.40156 22.6001 9.50156C21.8001 10.4016 21.1001 11.9016 21.3001 13.3016C22.6001 13.4016 24.0001 12.6016 24.9001 11.6016Z" fill="white"/>
<path d="M50.8 32.0992H48.6L47.4 28.2992H43.2L42.1 32.0992H40L44.2 19.1992H46.8L50.8 32.0992ZM47 26.6992L45.9 23.2992C45.8 22.9992 45.6 22.0992 45.2 20.8992C45.1 21.3992 44.9 22.2992 44.6 23.2992L43.5 26.6992H47Z" fill="white"/>
<path d="M61.5 27.3992C61.5 28.9992 61.1 30.1992 60.2 31.1992C59.4 31.9992 58.5 32.3992 57.3 32.3992C56.1 32.3992 55.2 31.9992 54.7 31.0992V35.9992H52.6V25.9992C52.6 24.9992 52.6 23.9992 52.5 22.8992H54.3L54.4 24.3992C55.1 23.2992 56.1 22.6992 57.5 22.6992C58.6 22.6992 59.5 23.0992 60.2 23.9992C61.1 24.7992 61.5 25.8992 61.5 27.3992ZM59.4 27.3992C59.4 26.4992 59.2 25.6992 58.8 25.1992C58.4 24.5992 57.8 24.2992 57 24.2992C56.5 24.2992 56 24.4992 55.6 24.7992C55.2 25.0992 54.9 25.5992 54.8 26.0992C54.7 26.3992 54.7 26.5992 54.7 26.6992V28.2992C54.7 28.9992 54.9 29.4992 55.3 29.9992C55.7 30.4992 56.3 30.6992 56.9 30.6992C57.7 30.6992 58.3 30.3992 58.7 29.7992C59.2 29.1992 59.4 28.3992 59.4 27.3992Z" fill="white"/>
<path d="M72.1992 27.3992C72.1992 28.9992 71.7992 30.1992 70.8992 31.1992C70.0992 31.9992 69.1992 32.3992 67.9992 32.3992C66.7992 32.3992 65.8992 31.9992 65.3992 31.0992V35.9992H63.2992V25.9992C63.2992 24.9992 63.2992 23.9992 63.1992 22.8992H64.9992L65.0992 24.3992C65.7992 23.2992 66.7992 22.6992 68.1992 22.6992C69.2992 22.6992 70.1992 23.0992 70.8992 23.9992C71.7992 24.7992 72.1992 25.8992 72.1992 27.3992ZM70.0992 27.3992C70.0992 26.4992 69.8992 25.6992 69.4992 25.1992C69.0992 24.5992 68.4992 24.2992 67.6992 24.2992C67.1992 24.2992 66.6992 24.4992 66.2992 24.7992C65.8992 25.0992 65.5992 25.5992 65.4992 26.0992C65.3992 26.3992 65.3992 26.5992 65.3992 26.6992V28.2992C65.3992 28.9992 65.5992 29.4992 65.9992 29.9992C66.3992 30.4992 66.9992 30.6992 67.5992 30.6992C68.3992 30.6992 68.9992 30.3992 69.3992 29.7992C69.8992 29.1992 70.0992 28.3992 70.0992 27.3992Z" fill="white"/>
<path d="M84.2008 28.5016C84.2008 29.6016 83.8008 30.5016 83.1008 31.2016C82.3008 32.0016 81.1008 32.3016 79.6008 32.3016C78.2008 32.3016 77.1008 32.0016 76.3008 31.5016L76.8008 29.8016C77.7008 30.3016 78.7008 30.6016 79.8008 30.6016C80.6008 30.6016 81.2008 30.4016 81.6008 30.1016C82.0008 29.7016 82.2008 29.3016 82.2008 28.7016C82.2008 28.2016 82.0008 27.7016 81.7008 27.4016C81.3008 27.0016 80.7008 26.7016 79.9008 26.4016C77.6008 25.6016 76.5008 24.3016 76.5008 22.7016C76.5008 21.6016 76.9008 20.8016 77.7008 20.1016C78.5008 19.4016 79.5008 19.1016 80.9008 19.1016C82.1008 19.1016 83.0008 19.3016 83.8008 19.7016L83.3008 21.4016C82.6008 21.0016 81.8008 20.8016 80.8008 20.8016C80.1008 20.8016 79.5008 21.0016 79.1008 21.3016C78.8008 21.6016 78.6008 22.0016 78.6008 22.5016C78.6008 23.0016 78.8008 23.4016 79.2008 23.8016C79.5008 24.1016 80.2008 24.4016 81.1008 24.8016C82.2008 25.2016 83.0008 25.8016 83.6008 26.4016C83.9008 26.9016 84.2008 27.6016 84.2008 28.5016Z" fill="white"/>
<path d="M91.0008 24.4H88.7008V28.9C88.7008 30 89.1008 30.6 89.9008 30.6C90.3008 30.6 90.6008 30.6 90.8008 30.5L90.9008 32.1C90.5008 32.3 90.0008 32.3 89.3008 32.3C88.5008 32.3 87.8008 32.1 87.4008 31.6C86.9008 31.1 86.7008 30.3 86.7008 29.1V24.4H85.3008V22.8H86.7008V21.1L88.7008 20.5V22.8H91.0008V24.4Z" fill="white"/>
<path d="M101.299 27.4016C101.299 28.8016 100.899 30.0016 100.099 30.9016C99.1992 31.8016 98.0992 32.3016 96.6992 32.3016C95.2992 32.3016 94.1992 31.8016 93.3992 30.9016C92.5992 30.0016 92.1992 28.9016 92.1992 27.5016C92.1992 26.1016 92.5992 24.9016 93.4992 24.0016C94.2992 23.1016 95.4992 22.6016 96.8992 22.6016C98.2992 22.6016 99.3992 23.1016 100.199 24.0016C100.899 24.9016 101.299 26.0016 101.299 27.4016ZM99.0992 27.5016C99.0992 26.6016 98.8992 25.9016 98.4992 25.3016C98.0992 24.6016 97.3992 24.2016 96.5992 24.2016C95.7992 24.2016 95.0992 24.6016 94.6992 25.3016C94.2992 25.9016 94.0992 26.7016 94.0992 27.5016C94.0992 28.4016 94.2992 29.1016 94.6992 29.7016C95.0992 30.4016 95.7992 30.8016 96.5992 30.8016C97.3992 30.8016 97.9992 30.4016 98.4992 29.7016C98.8992 29.1016 99.0992 28.3016 99.0992 27.5016Z" fill="white"/>
<path d="M107.998 24.6C107.798 24.6 107.598 24.5 107.298 24.5C106.598 24.5 105.998 24.8 105.598 25.3C105.298 25.8 105.098 26.4 105.098 27.1V32H102.998V25.6C102.998 24.5 102.998 23.6 102.898 22.7H104.698L104.798 24.5H104.898C105.098 23.9 105.498 23.4 105.898 23C106.398 22.7 106.898 22.5 107.398 22.5C107.598 22.5 107.798 22.5 107.898 22.5V24.6H107.998Z" fill="white"/>
<path d="M117.198 27.0016C117.198 27.4016 117.198 27.7016 117.098 27.9016H110.898C110.898 28.8016 111.198 29.5016 111.798 30.0016C112.298 30.4016 112.998 30.7016 113.798 30.7016C114.698 30.7016 115.598 30.6016 116.298 30.3016L116.598 31.7016C115.698 32.1016 114.698 32.3016 113.498 32.3016C112.098 32.3016 110.898 31.9016 110.098 31.0016C109.298 30.2016 108.898 29.0016 108.898 27.6016C108.898 26.2016 109.298 25.0016 109.998 24.1016C110.798 23.1016 111.898 22.6016 113.298 22.6016C114.598 22.6016 115.698 23.1016 116.298 24.1016C116.998 24.9016 117.198 25.9016 117.198 27.0016ZM115.298 26.5016C115.298 25.9016 115.198 25.4016 114.898 24.9016C114.498 24.3016 113.998 24.0016 113.298 24.0016C112.598 24.0016 112.098 24.3016 111.698 24.8016C111.398 25.2016 111.198 25.8016 111.098 26.4016H115.298V26.5016Z" fill="white"/>
<path d="M46.3992 11.3008C46.3992 12.4008 46.0992 13.3008 45.3992 13.9008C44.7992 14.4008 43.8992 14.7008 42.6992 14.7008C42.0992 14.7008 41.5992 14.7008 41.1992 14.6008V8.40078C41.6992 8.30078 42.2992 8.30078 42.9992 8.30078C44.0992 8.30078 44.8992 8.50078 45.4992 9.00078C45.9992 9.50078 46.3992 10.3008 46.3992 11.3008ZM45.2992 11.3008C45.2992 10.6008 45.0992 10.0008 44.6992 9.60078C44.2992 9.20078 43.6992 9.00078 42.9992 9.00078C42.6992 9.00078 42.3992 9.00078 42.1992 9.10078V13.8008C42.2992 13.8008 42.5992 13.8008 42.8992 13.8008C43.6992 13.8008 44.2992 13.6008 44.6992 13.2008C45.0992 12.8008 45.2992 12.1008 45.2992 11.3008Z" fill="white"/>
<path d="M52 12.2984C52 12.9984 51.8 13.5984 51.4 13.9984C51 14.4984 50.4 14.6984 49.7 14.6984C49 14.6984 48.5 14.4984 48.1 13.9984C47.7 13.5984 47.5 12.9984 47.5 12.2984C47.5 11.5984 47.7 10.9984 48.1 10.5984C48.5 10.0984 49.1 9.89844 49.8 9.89844C50.5 9.89844 51 10.0984 51.4 10.5984C51.8 10.9984 52 11.5984 52 12.2984ZM51 12.2984C51 11.8984 50.9 11.4984 50.7 11.1984C50.5 10.7984 50.2 10.6984 49.8 10.6984C49.4 10.6984 49.1 10.8984 48.9 11.1984C48.7 11.4984 48.6 11.8984 48.6 12.2984C48.6 12.6984 48.7 13.0984 48.9 13.3984C49.1 13.7984 49.4 13.8984 49.8 13.8984C50.2 13.8984 50.5 13.6984 50.7 13.2984C50.9 13.0984 51 12.6984 51 12.2984Z" fill="white"/>
<path d="M59.7 10L58.3 14.6H57.4L56.8 12.6C56.6 12.1 56.5 11.6 56.4 11.1C56.3 11.6 56.2 12.1 56 12.6L55.4 14.6H54.5L53 10H54L54.5 12.2C54.6 12.7 54.7 13.2 54.8 13.7C54.9 13.3 55 12.8 55.2 12.2L55.8 10H56.6L57.2 12.1C57.4 12.6 57.5 13.1 57.6 13.6C57.7 13.1 57.8 12.6 57.9 12.1L58.5 10H59.7Z" fill="white"/>
<path d="M64.9 14.6008H63.9V12.0008C63.9 11.2008 63.6 10.8008 63 10.8008C62.7 10.8008 62.5 10.9008 62.3 11.1008C62.1 11.3008 62 11.6008 62 11.9008V14.6008H61V11.3008C61 10.9008 61 10.5008 61 10.0008H61.9V10.7008C62 10.5008 62.2 10.3008 62.4 10.1008C62.7 9.90078 63 9.80078 63.3 9.80078C63.7 9.80078 64.1 9.90078 64.4 10.2008C64.8 10.5008 64.9 11.0008 64.9 11.7008V14.6008Z" fill="white"/>
<path d="M67.6992 14.5984H66.6992V7.89844H67.6992V14.5984Z" fill="white"/>
<path d="M73.6992 12.2984C73.6992 12.9984 73.4992 13.5984 73.0992 13.9984C72.6992 14.4984 72.0992 14.6984 71.3992 14.6984C70.6992 14.6984 70.1992 14.4984 69.7992 13.9984C69.3992 13.5984 69.1992 12.9984 69.1992 12.2984C69.1992 11.5984 69.3992 10.9984 69.7992 10.5984C70.1992 10.1984 70.7992 9.89844 71.4992 9.89844C72.1992 9.89844 72.6992 10.0984 73.0992 10.5984C73.4992 10.9984 73.6992 11.5984 73.6992 12.2984ZM72.6992 12.2984C72.6992 11.8984 72.5992 11.4984 72.3992 11.1984C72.1992 10.7984 71.8992 10.6984 71.4992 10.6984C71.0992 10.6984 70.7992 10.8984 70.5992 11.1984C70.3992 11.4984 70.2992 11.8984 70.2992 12.2984C70.2992 12.6984 70.3992 13.0984 70.5992 13.3984C70.7992 13.7984 71.0992 13.8984 71.4992 13.8984C71.8992 13.8984 72.1992 13.6984 72.3992 13.2984C72.5992 13.0984 72.6992 12.6984 72.6992 12.2984Z" fill="white"/>
<path d="M78.5984 14.5984H77.6984L77.5984 14.0984C77.2984 14.4984 76.7984 14.6984 76.2984 14.6984C75.8984 14.6984 75.4984 14.5984 75.2984 14.2984C75.0984 13.9984 74.8984 13.6984 74.8984 13.3984C74.8984 12.7984 75.0984 12.3984 75.5984 12.0984C76.0984 11.7984 76.6984 11.6984 77.5984 11.6984V11.5984C77.5984 10.9984 77.2984 10.6984 76.6984 10.6984C76.1984 10.6984 75.8984 10.7984 75.4984 10.9984L75.2984 10.2984C75.6984 9.99844 76.1984 9.89844 76.8984 9.89844C78.0984 9.89844 78.6984 10.4984 78.6984 11.7984V13.4984C78.5984 13.9984 78.5984 14.2984 78.5984 14.5984ZM77.5984 12.9984V12.2984C76.4984 12.2984 75.8984 12.5984 75.8984 13.1984C75.8984 13.3984 75.9984 13.5984 76.0984 13.6984C76.1984 13.7984 76.3984 13.8984 76.5984 13.8984C76.7984 13.8984 76.9984 13.7984 77.1984 13.6984C77.3984 13.5984 77.4984 13.3984 77.5984 13.1984C77.5984 13.1984 77.5984 13.0984 77.5984 12.9984Z" fill="white"/>
<path d="M84.4016 14.6H83.5016V13.9C83.2016 14.5 82.7016 14.7 82.0016 14.7C81.4016 14.7 81.0016 14.5 80.6016 14.1C80.2016 13.7 80.1016 13.1 80.1016 12.4C80.1016 11.7 80.3016 11.1 80.7016 10.6C81.1016 10.2 81.6016 10 82.1016 10C82.7016 10 83.1016 10.2 83.4016 10.6V8H84.4016V13.4C84.4016 13.8 84.4016 14.2 84.4016 14.6ZM83.4016 12.7V11.9C83.4016 11.8 83.4016 11.7 83.4016 11.6C83.3016 11.4 83.2016 11.2 83.0016 11C82.8016 10.8 82.6016 10.8 82.3016 10.8C81.9016 10.8 81.6016 11 81.4016 11.3C81.2016 11.6 81.1016 12 81.1016 12.5C81.1016 13 81.2016 13.3 81.4016 13.6C81.6016 13.9 81.9016 14.1 82.3016 14.1C82.6016 14.1 82.9016 14 83.1016 13.7C83.3016 13.3 83.4016 13 83.4016 12.7Z" fill="white"/>
<path d="M93.1016 12.2984C93.1016 12.9984 92.9016 13.5984 92.5016 13.9984C92.1016 14.4984 91.5016 14.6984 90.8016 14.6984C90.1016 14.6984 89.6016 14.4984 89.2016 13.9984C88.8016 13.5984 88.6016 12.9984 88.6016 12.2984C88.6016 11.5984 88.8016 10.9984 89.2016 10.5984C89.6016 10.0984 90.2016 9.89844 90.9016 9.89844C91.6016 9.89844 92.1016 10.0984 92.5016 10.5984C92.9016 10.9984 93.1016 11.5984 93.1016 12.2984ZM92.0016 12.2984C92.0016 11.8984 91.9016 11.4984 91.7016 11.1984C91.5016 10.7984 91.2016 10.6984 90.8016 10.6984C90.4016 10.6984 90.1016 10.8984 89.9016 11.1984C89.7016 11.4984 89.6016 11.8984 89.6016 12.2984C89.6016 12.6984 89.7016 13.0984 89.9016 13.3984C90.1016 13.7984 90.4016 13.8984 90.8016 13.8984C91.2016 13.8984 91.5016 13.6984 91.7016 13.2984C91.9016 13.0984 92.0016 12.6984 92.0016 12.2984Z" fill="white"/>
<path d="M98.5992 14.6008H97.5992V12.0008C97.5992 11.2008 97.2992 10.8008 96.6992 10.8008C96.3992 10.8008 96.1992 10.9008 95.9992 11.1008C95.7992 11.3008 95.6992 11.6008 95.6992 11.9008V14.6008H94.6992V11.3008C94.6992 10.9008 94.6992 10.5008 94.6992 10.0008H95.5992V10.7008C95.6992 10.5008 95.8992 10.3008 96.0992 10.1008C96.3992 9.90078 96.6992 9.80078 96.9992 9.80078C97.3992 9.80078 97.7992 9.90078 98.0992 10.2008C98.4992 10.5008 98.5992 11.0008 98.5992 11.7008V14.6008Z" fill="white"/>
<path d="M105.399 10.7984H104.299V12.9984C104.299 13.5984 104.499 13.7984 104.899 13.7984C105.099 13.7984 105.199 13.7984 105.399 13.7984V14.5984C105.199 14.6984 104.899 14.6984 104.599 14.6984C104.199 14.6984 103.899 14.5984 103.699 14.2984C103.499 14.0984 103.399 13.5984 103.399 13.0984V10.7984H102.699V9.99844H103.399V9.19844L104.399 8.89844V9.99844H105.499V10.7984H105.399Z" fill="white"/>
<path d="M110.798 14.5984H109.798V11.9984C109.798 11.1984 109.498 10.7984 108.898 10.7984C108.398 10.7984 108.098 10.9984 107.898 11.4984C107.898 11.5984 107.898 11.6984 107.898 11.8984V14.5984H106.898V7.89844H107.898V10.6984C108.198 10.1984 108.698 9.89844 109.298 9.89844C109.698 9.89844 110.098 9.99844 110.298 10.2984C110.598 10.5984 110.798 11.1984 110.798 11.7984V14.5984Z" fill="white"/>
<path d="M116.301 12.1C116.301 12.3 116.301 12.4 116.301 12.6H113.301C113.301 13.1 113.501 13.4 113.701 13.6C114.001 13.8 114.301 13.9 114.701 13.9C115.201 13.9 115.601 13.8 115.901 13.7L116.101 14.4C115.701 14.6 115.201 14.7 114.601 14.7C113.901 14.7 113.301 14.5 112.901 14.1C112.501 13.7 112.301 13.1 112.301 12.4C112.301 11.7 112.501 11.1 112.901 10.7C113.301 10.2 113.801 10 114.501 10C115.201 10 115.701 10.2 116.001 10.7C116.201 11 116.301 11.5 116.301 12.1ZM115.401 11.8C115.401 11.5 115.301 11.2 115.201 11C115.001 10.7 114.801 10.6 114.401 10.6C114.101 10.6 113.801 10.7 113.601 11C113.401 11.2 113.301 11.5 113.301 11.8H115.401Z" fill="white"/>
</g>
</g>
<rect x="0.5" y="0.5" width="129" height="41" rx="6.5" stroke="#16448F"/>
<defs>
<clipPath id="clip0_2257_80060">
<rect x="1" y="1" width="128" height="40" rx="6" fill="white"/>
</clipPath>
</defs>
</svg>
