<svg preserveAspectRatio="none" width="100%" height="100%" overflow="visible" style="display: block;" viewBox="0 0 63.669 55.8589" fill="none" xmlns="http://www.w3.org/2000/svg">
<g id="Group 6428">
<path id="Vector 9694" d="M36.7491 15.8662H44.6241C45.1074 15.8662 45.4991 15.4745 45.4991 14.9912V7.11621" stroke="var(--stroke-0, #0063F5)" stroke-width="3.5" stroke-linecap="round"/>
<path id="Vector 9695" d="M19.2491 33.3662L24.0174 31.7768C24.3153 31.6775 24.5371 31.4262 24.5987 31.1183L26.2491 22.8662" stroke="var(--stroke-0, #0063F5)" stroke-width="3.5" stroke-linecap="round"/>
<path id="Ellipse 1486" d="M36.7402 46.825C37.5806 46.3477 37.8749 45.2794 37.3975 44.439C36.9202 43.5986 35.852 43.3043 35.0116 43.7817L35.8759 45.3033L36.7402 46.825ZM12.9752 43.5138L14.2126 42.2764C7.91127 35.9751 8.56061 24.453 16.5068 16.5068L15.2693 15.2693L14.0319 14.0319C5.11203 22.9518 3.70707 36.7206 11.7377 44.7513L12.9752 43.5138ZM15.2693 15.2693L16.5068 16.5068C24.453 8.56061 35.9751 7.91127 42.2764 14.2126L43.5138 12.9752L44.7513 11.7377C36.7206 3.70707 22.9518 5.11203 14.0319 14.0319L15.2693 15.2693ZM35.8759 45.3033L35.0116 43.7817C27.7103 47.9287 19.2955 47.3593 14.2126 42.2764L12.9752 43.5138L11.7377 44.7513C18.1912 51.2047 28.4134 51.5546 36.7402 46.825L35.8759 45.3033ZM43.5138 12.9752L42.2764 14.2126C42.9114 14.8475 43.4734 15.5302 43.9639 16.2525L45.4117 15.2693L46.8594 14.2862C46.2461 13.3831 45.5435 12.5299 44.7513 11.7377L43.5138 12.9752Z" fill="var(--stroke-0, #0063F5)"/>
<g id="24h">
<path d="M32.8752 26.9542L32.9592 26.4712C33.5892 23.4892 35.5002 21.9982 38.6922 21.9982C39.5742 21.9982 40.3092 22.1242 40.8552 22.3342C41.4012 22.5442 41.8212 22.8382 42.0942 23.2162C42.3672 23.5942 42.5142 24.0142 42.5562 24.5182C42.5982 25.0222 42.5562 25.5682 42.4302 26.1562C42.3042 26.7232 42.1572 27.2062 42.0102 27.6052C41.8422 28.0252 41.6532 28.4032 41.4012 28.7602C41.1492 29.1172 40.8342 29.4742 40.4562 29.8102C40.0782 30.1672 39.6162 30.5662 39.0702 30.9862C38.1882 31.7002 37.4322 32.3092 36.8232 32.7922C36.2142 33.2752 35.7732 33.7162 35.5212 34.1362H40.7922L40.2252 36.8662H30.7332C30.9012 35.9842 31.1952 35.2072 31.5732 34.4932C31.9512 33.8002 32.3502 33.1702 32.8122 32.6242C33.2742 32.0782 33.7362 31.6162 34.2192 31.1962C34.6812 30.7972 35.1012 30.4612 35.4792 30.1672C36.2352 29.6212 36.8232 29.1382 37.2432 28.7602C37.6632 28.3822 37.9992 28.0462 38.2302 27.7522C38.4402 27.4582 38.5872 27.2062 38.6712 26.9542C38.7552 26.7232 38.8182 26.4712 38.8812 26.1772C39.0072 25.5892 39.0282 25.1272 38.9442 24.7702C38.8602 24.4132 38.5662 24.2242 38.0622 24.2242C37.7262 24.2242 37.4322 24.3292 37.2222 24.4972C37.0122 24.6652 36.8232 24.8962 36.6972 25.1692C36.5502 25.4422 36.4452 25.7362 36.3612 26.0512C36.2772 26.3872 36.1932 26.6812 36.1512 26.9542H32.8752Z" fill="#038B7D"/>
<path d="M42.5463 31.2592L49.2453 22.2922H53.0253L51.1563 31.2592H52.5423L51.9753 33.9892H50.5893L50.0013 36.8662H46.7253L47.3133 33.9892H41.9793L42.5463 31.2592ZM48.9093 26.2822H48.8673L45.3393 31.2592H47.8803L48.9093 26.2822Z" fill="#038B7D"/>
<path d="M55.8925 21.8722H59.2945L58.2865 26.7442H58.3285C58.7065 26.1982 59.1475 25.7992 59.6305 25.5682C60.1135 25.3372 60.6595 25.2112 61.2475 25.2112C62.2135 25.2112 62.8855 25.4632 63.2845 25.9672C63.6835 26.4712 63.7675 27.2692 63.5575 28.3612L61.7935 36.8662H58.3915L59.9875 29.1172C60.0715 28.7182 60.0505 28.4032 59.9245 28.1722C59.7985 27.9412 59.5885 27.8152 59.2735 27.8152C58.9375 27.8152 58.6225 27.9622 58.3285 28.2142C58.0345 28.4662 57.8245 28.8862 57.7195 29.4322L56.1865 36.8662H52.7845L55.8925 21.8722Z" fill="#038B7D"/>
</g>
<circle id="Ellipse 1487" cx="40.6866" cy="42.5537" r="2.1875" fill="var(--fill-0, #0063F5)"/>
</g>
</svg>
