<svg width="45" height="45" viewBox="0 0 45 45" fill="none" xmlns="http://www.w3.org/2000/svg">
<rect x="0.5" y="0.5" width="44" height="44" rx="22" stroke="white" stroke-opacity="0.24"/>
<path d="M18.6087 28.4783H16V20.6522H18.6087V28.4783ZM17.3049 19.6087C16.5833 19.6087 16 19.0238 16 18.3038C16 17.5838 16.5843 17 17.3049 17C18.0238 17 18.6087 17.5849 18.6087 18.3038C18.6087 19.0238 18.0238 19.6087 17.3049 19.6087ZM28 28.4783H25.492V24.6696C25.492 23.7612 25.4748 22.593 24.1882 22.593C22.8823 22.593 22.6814 23.5823 22.6814 24.6038V28.4783H20.1739V20.6464H22.5812V21.7165H22.6151C22.9501 21.1009 23.7687 20.4518 24.9896 20.4518C27.5304 20.4518 28 22.0739 28 24.1828V28.4783Z" fill="white"/>
</svg>
