<svg preserveAspectRatio="none" width="100%" height="100%" overflow="visible" style="display: block;" viewBox="0 0 44.625 45.5006" fill="none" xmlns="http://www.w3.org/2000/svg">
<g id="Group 6435">
<g id="1d">
<path d="M15.5041 24.6896H12.6481L13.1101 22.4636H13.5511C14.2231 22.4636 14.7691 22.4006 15.2311 22.2326C15.6931 22.0856 16.0711 21.8966 16.3651 21.6656C16.6591 21.4346 16.9111 21.1826 17.0791 20.9096C17.2471 20.6366 17.3941 20.3846 17.4991 20.1326H19.9771L16.8901 35.0006H13.3621L15.5041 24.6896Z" fill="#038B7D"/>
<path d="M27.9053 29.3936C27.9893 28.8896 28.0733 28.4276 28.1573 27.9866C28.2203 27.5666 28.2413 27.1886 28.2413 26.8526C28.2203 26.5376 28.1573 26.2856 28.0313 26.0966C27.9053 25.9286 27.6953 25.8236 27.4013 25.8236C27.0653 25.8236 26.8133 25.9076 26.6033 26.0756C26.3933 26.2436 26.2253 26.4746 26.0783 26.7686C25.9313 27.0626 25.8053 27.4196 25.7003 27.8396C25.5953 28.2596 25.4903 28.7426 25.3853 29.2466C25.2803 29.7086 25.1963 30.1706 25.1333 30.5906C25.0493 31.0106 25.0283 31.3886 25.0493 31.7246C25.0703 32.0606 25.1543 32.3126 25.2803 32.5226C25.4063 32.7326 25.6373 32.8166 25.9733 32.8166C26.4773 32.8166 26.8553 32.5226 27.1283 31.9346C27.4013 31.3466 27.6533 30.5066 27.9053 29.3936ZM27.0863 33.6146H27.0443C26.9393 33.8246 26.8133 34.0136 26.6453 34.2026C26.4773 34.4126 26.2883 34.5806 26.0573 34.7486C25.8263 34.9166 25.5533 35.0426 25.2593 35.1476C24.9653 35.2526 24.6293 35.2946 24.2513 35.2946C23.3693 35.2946 22.7183 35.0636 22.2773 34.5596C21.8363 34.0766 21.6263 33.2576 21.6263 32.1236C21.6263 31.3676 21.7313 30.4646 21.9623 29.4146C22.1303 28.5326 22.3403 27.7346 22.5923 26.9786C22.8233 26.2436 23.1173 25.6136 23.4743 25.0676C23.8103 24.5216 24.2303 24.1016 24.7343 23.8076C25.2173 23.5136 25.8053 23.3456 26.5193 23.3456C26.7503 23.3456 26.9813 23.3876 27.2123 23.4296C27.4433 23.4716 27.6533 23.5556 27.8633 23.6606C28.0523 23.7866 28.2203 23.9336 28.3883 24.1436C28.5353 24.3536 28.6613 24.5846 28.7453 24.8786H28.7873L29.7953 20.0066H33.1973L30.0893 35.0006H26.8133L27.0863 33.6146Z" fill="#038B7D"/>
</g>
<path id="Rectangle 3211" d="M8.2781 11.3908C9.07062 8.2927 11.8619 6.12559 15.0597 6.12559H35.6089C40.1787 6.12559 43.5231 10.4332 42.3905 14.8604L36.3469 38.4854C35.5544 41.5835 32.7631 43.7506 29.5653 43.7506H9.01611C4.44632 43.7506 1.10195 39.443 2.23449 35.0158L8.2781 11.3908Z" stroke="var(--stroke-1, #0063F5)" stroke-width="3.5"/>
<path id="Line 329" d="M33.25 15.7506C34.2165 15.7506 35 14.9671 35 14.0006C35 13.0341 34.2165 12.2506 33.25 12.2506V14.0006V15.7506ZM8.75 14.0006V15.7506H33.25V14.0006V12.2506H8.75V14.0006Z" fill="var(--stroke-0, #0063F5)"/>
<path id="Line 330" d="M22.0851 2.17614C22.3202 1.23868 21.7509 0.28811 20.8134 0.0529879C19.8759 -0.182133 18.9254 0.387227 18.6902 1.32469L20.3877 1.75041L22.0851 2.17614ZM19.5099 5.25007L21.2074 5.6758L22.0851 2.17614L20.3877 1.75041L18.6902 1.32469L17.8125 4.82435L19.5099 5.25007Z" fill="var(--stroke-0, #0063F5)"/>
<path id="Line 331" d="M34.3351 2.17614C34.5702 1.23868 34.0009 0.28811 33.0634 0.0529879C32.1259 -0.182133 31.1754 0.387227 30.9402 1.32469L32.6377 1.75041L34.3351 2.17614ZM31.7599 5.25007L33.4574 5.6758L34.3351 2.17614L32.6377 1.75041L30.9402 1.32469L30.0625 4.82435L31.7599 5.25007Z" fill="var(--stroke-0, #0063F5)"/>
</g>
</svg>
