<svg width="40" height="40" viewBox="0 0 40 40" fill="none" xmlns="http://www.w3.org/2000/svg">
<path d="M14.5127 21.385H12.4727L12.8027 19.795H13.1177C13.5977 19.795 13.9877 19.75 14.3177 19.63C14.6477 19.525 14.9177 19.39 15.1277 19.225C15.3377 19.06 15.5177 18.88 15.6377 18.685C15.7577 18.49 15.8627 18.31 15.9377 18.13H17.7077L15.5027 28.75H12.9827L14.5127 21.385Z" fill="#038B7D"/>
<path d="M23.3706 24.745C23.4306 24.385 23.4906 24.055 23.5506 23.74C23.5956 23.44 23.6106 23.17 23.6106 22.93C23.5956 22.705 23.5506 22.525 23.4606 22.39C23.3706 22.27 23.2206 22.195 23.0106 22.195C22.7706 22.195 22.5906 22.255 22.4406 22.375C22.2906 22.495 22.1706 22.66 22.0656 22.87C21.9606 23.08 21.8706 23.335 21.7956 23.635C21.7206 23.935 21.6456 24.28 21.5706 24.64C21.4956 24.97 21.4356 25.3 21.3906 25.6C21.3306 25.9 21.3156 26.17 21.3306 26.41C21.3456 26.65 21.4056 26.83 21.4956 26.98C21.5856 27.13 21.7506 27.19 21.9906 27.19C22.3506 27.19 22.6206 26.98 22.8156 26.56C23.0106 26.14 23.1906 25.54 23.3706 24.745ZM22.7856 27.76H22.7556C22.6806 27.91 22.5906 28.045 22.4706 28.18C22.3506 28.33 22.2156 28.45 22.0506 28.57C21.8856 28.69 21.6906 28.78 21.4806 28.855C21.2706 28.93 21.0306 28.96 20.7606 28.96C20.1306 28.96 19.6656 28.795 19.3506 28.435C19.0356 28.09 18.8856 27.505 18.8856 26.695C18.8856 26.155 18.9606 25.51 19.1256 24.76C19.2456 24.13 19.3956 23.56 19.5756 23.02C19.7406 22.495 19.9506 22.045 20.2056 21.655C20.4456 21.265 20.7456 20.965 21.1056 20.755C21.4506 20.545 21.8706 20.425 22.3806 20.425C22.5456 20.425 22.7106 20.455 22.8756 20.485C23.0406 20.515 23.1906 20.575 23.3406 20.65C23.4756 20.74 23.5956 20.845 23.7156 20.995C23.8206 21.145 23.9106 21.31 23.9706 21.52H24.0006L24.7206 18.04H27.1506L24.9306 28.75H22.5906L22.7856 27.76Z" fill="#038B7D"/>
<path d="M9.35043 11.8858C9.91652 9.67294 11.9103 8.125 14.1944 8.125H28.8724C32.1366 8.125 34.5254 11.2019 33.7164 14.3642L29.3996 31.2392C28.8335 33.4521 26.8397 35 24.5556 35H9.87758C6.61344 35 4.2246 31.9231 5.03357 28.7608L9.35043 11.8858Z" stroke="#0063F5" stroke-width="2.5"/>
<path d="M27.1875 15C27.8779 15 28.4375 14.4404 28.4375 13.75C28.4375 13.0596 27.8779 12.5 27.1875 12.5V13.75V15ZM9.6875 13.75V15H27.1875V13.75V12.5H9.6875V13.75Z" fill="#0063F5"/>
<path d="M19.2126 5.30421C19.3805 4.63459 18.9738 3.95562 18.3042 3.78767C17.6346 3.61973 16.9556 4.02642 16.7877 4.69603L18.0001 5.00012L19.2126 5.30421ZM17.3732 7.49988L18.5856 7.80397L19.2126 5.30421L18.0001 5.00012L16.7877 4.69603L16.1607 7.19579L17.3732 7.49988Z" fill="#0063F5"/>
<path d="M27.9626 5.30421C28.1305 4.63459 27.7238 3.95562 27.0542 3.78767C26.3846 3.61973 25.7056 4.02642 25.5377 4.69603L26.7501 5.00012L27.9626 5.30421ZM26.1232 7.49988L27.3356 7.80397L27.9626 5.30421L26.7501 5.00012L25.5377 4.69603L24.9107 7.19579L26.1232 7.49988Z" fill="#0063F5"/>
</svg>
