<svg preserveAspectRatio="none" width="100%" height="100%" overflow="visible" style="display: block;" viewBox="0 0 63.5379 49.8144" fill="none" xmlns="http://www.w3.org/2000/svg">
<g id="Group 6431">
<ellipse id="Ellipse 1486" cx="25.2033" cy="24.3325" rx="15.8081" ry="18.6032" transform="rotate(45 25.2033 24.3325)" stroke="var(--stroke-0, #0063F5)" stroke-width="3.5"/>
<path id="Line 328" d="M10.432 35.9809C10.432 35.9809 9.62502 35.8756 6.12502 39.3756C2.62502 42.8756 1.75001 48.0644 1.75001 48.0644L30.6219 48.0644C41.9969 48.0644 48.6867 42.6703 49.8719 33.1884C50.6026 27.3434 51.4168 26.2485 53.374 26.2485C55.3312 26.2485 57.4116 25.1707 58.2866 23.4207C59.1616 21.6707 60.0366 16.4127 54.249 14.8728C46.9116 12.9206 44.0417 21.5829 42.875 25.3745C41.4167 29.7495 37.625 36.2009 30.6219 39.3134C22.7469 42.8134 17.5 42.8143 10.432 35.9809Z" stroke="var(--stroke-0, #0063F5)" stroke-width="3.5" stroke-linejoin="round"/>
<path id="6" d="M30.2135 29.568C30.7175 29.568 31.0955 29.358 31.3685 28.896C31.6415 28.434 31.8725 27.804 32.0405 26.985C32.2295 26.061 32.2925 25.41 32.2085 24.99C32.1245 24.57 31.8095 24.36 31.2635 24.36C30.9905 24.36 30.7595 24.423 30.5705 24.549C30.3605 24.675 30.1925 24.843 30.0665 25.053C29.9405 25.263 29.8145 25.515 29.7305 25.809C29.6465 26.103 29.5625 26.397 29.4995 26.733C29.2895 27.615 29.2265 28.308 29.3105 28.812C29.3945 29.316 29.6885 29.568 30.2135 29.568ZM33.2375 20.433C33.2795 20.223 33.3005 20.034 33.3215 19.845C33.3215 19.656 33.3005 19.488 33.2585 19.32C33.1535 19.026 32.9015 18.858 32.5025 18.858C32.2085 18.858 31.9355 18.942 31.7255 19.068C31.5155 19.194 31.3055 19.425 31.1375 19.74C30.9485 20.055 30.7805 20.475 30.6125 21.021C30.4445 21.567 30.2975 22.26 30.1295 23.058H30.1715C30.4865 22.617 30.8855 22.281 31.3895 22.071C31.8935 21.861 32.4605 21.756 33.0905 21.756C34.2245 21.756 35.0225 22.113 35.5055 22.827C35.9675 23.541 36.0305 24.717 35.6945 26.376C35.5265 27.132 35.3165 27.825 35.0435 28.476C34.7705 29.148 34.4135 29.715 33.9515 30.198C33.4895 30.702 32.9015 31.08 32.2085 31.374C31.5155 31.668 30.6755 31.794 29.7095 31.794C28.6175 31.794 27.7775 31.626 27.1895 31.29C26.6015 30.954 26.2235 30.471 26.0135 29.841C25.8035 29.211 25.7195 28.455 25.8035 27.573C25.8875 26.691 26.0345 25.683 26.2865 24.549C26.5385 23.331 26.8115 22.218 27.1055 21.231C27.3995 20.265 27.7775 19.425 28.2815 18.732C28.7645 18.06 29.3945 17.535 30.1505 17.178C30.9065 16.821 31.8935 16.632 33.1115 16.632C34.4345 16.632 35.4215 16.947 36.0725 17.535C36.7025 18.123 36.8915 19.089 36.6395 20.433H33.2375Z" fill="var(--fill-0, #D92D20)"/>
<path id="Vector 9695" d="M18.3699 27.125L21.6899 25.1338C22.2065 24.8239 22.2628 24.0968 21.8 23.7112L17.4966 20.125" stroke="var(--stroke-0, #D92D20)" stroke-width="3.5" stroke-linecap="round"/>
<path id="Vector 9696" d="M51.2875 14C51.3808 12.4018 52.2115 8.76438 54.7875 7" stroke="var(--stroke-0, #0063F5)" stroke-width="3.5" stroke-linecap="round" stroke-linejoin="round"/>
<path id="Vector 9697" d="M56.5375 15.75C57.1208 14.3437 58.9875 11.325 61.7875 10.5" stroke="var(--stroke-0, #0063F5)" stroke-width="3.5" stroke-linecap="round" stroke-linejoin="round"/>
</g>
</svg>
