<svg preserveAspectRatio="none" width="100%" height="100%" overflow="visible" style="display: block;" viewBox="0 0 56.6041 51.123" fill="none" xmlns="http://www.w3.org/2000/svg">
<g id="Group 6429">
<ellipse id="Ellipse 1434" cx="32.2716" cy="26.7905" rx="15.8081" ry="18.6032" transform="rotate(45 32.2716 26.7905)" stroke="var(--stroke-0, #0063F5)" stroke-width="3.5"/>
<circle id="Ellipse 1435" cx="3.9375" cy="21.4379" r="2.1875" fill="var(--fill-0, #0063F5)"/>
<path id="Line 284" d="M5.25 11.3754C4.2835 11.3754 3.5 12.1589 3.5 13.1254C3.5 14.0919 4.2835 14.8754 5.25 14.8754V13.1254V11.3754ZM5.25 13.1254V14.8754H24.5V13.1254V11.3754H5.25V13.1254Z" fill="var(--stroke-0, #0063F5)"/>
<path id="Line 288" d="M29.75 1.75041L40.25 1.75041" stroke="var(--stroke-0, #0063F5)" stroke-width="3.5" stroke-linecap="round"/>
<path id="Line 291" d="M49 7.00041L54.25 12.2504" stroke="var(--stroke-0, #0063F5)" stroke-width="3.5" stroke-linecap="round"/>
<path id="Line 289" d="M35 1.75041L33.25 8.75041" stroke="var(--stroke-0, #0063F5)" stroke-width="3.5" stroke-linecap="round"/>
<path id="Line 290" d="M50.75 10.5004L47.25 14.0004" stroke="var(--stroke-0, #0063F5)" stroke-width="3.5" stroke-linecap="round"/>
<path id="Line 285" d="M8.75 19.2504C7.7835 19.2504 7 20.0339 7 21.0004C7 21.9669 7.7835 22.7504 8.75 22.7504V21.0004V19.2504ZM8.75 21.0004V22.7504H17.5V21.0004V19.2504H8.75V21.0004Z" fill="var(--stroke-0, #0063F5)"/>
<path id="Line 286" d="M1.75 28.0004C0.783502 28.0004 8.44939e-08 28.7839 0 29.7504C-8.44939e-08 30.7169 0.783502 31.5004 1.75 31.5004L1.75 29.7504L1.75 28.0004ZM1.75 29.7504L1.75 31.5004L14 31.5004L14 29.7504L14 28.0004L1.75 28.0004L1.75 29.7504Z" fill="var(--stroke-0, #0063F5)"/>
<path id="Line 287" d="M8.75 36.7504C7.7835 36.7504 7 37.5339 7 38.5004C7 39.4669 7.7835 40.2504 8.75 40.2504L8.75 38.5004L8.75 36.7504ZM8.75 38.5004L8.75 40.2504L17.5 40.2504L17.5 38.5004L17.5 36.7504L8.75 36.7504L8.75 38.5004Z" fill="var(--stroke-0, #0063F5)"/>
<path id="Vector 9658" d="M36.1176 17.5004H30.6171C30.2115 17.5004 29.859 17.7792 29.7656 18.1739L27.3798 28.2539C27.2497 28.8034 27.6666 29.3304 28.2313 29.3304H31.5973C32.1688 29.3304 32.5868 29.8692 32.4449 30.4227L31.0685 35.7908C30.8286 36.7264 32.0584 37.3036 32.6248 36.5213L40.12 26.1685C40.5389 25.59 40.1255 24.7804 39.4113 24.7804H35.8657C35.2516 24.7804 34.8286 24.1644 35.049 23.5913L36.9343 18.6895C37.1548 18.1164 36.7317 17.5004 36.1176 17.5004Z" fill="var(--fill-0, #038B7D)"/>
</g>
</svg>
