<svg width="20" height="20" viewBox="0 0 20 20" fill="none" xmlns="http://www.w3.org/2000/svg">
<path d="M11.526 13.8066C11.6981 13.8857 11.892 13.9037 12.0758 13.8578C12.2595 13.8119 12.4221 13.7048 12.5368 13.5541L12.8327 13.1666C12.9879 12.9596 13.1892 12.7916 13.4207 12.6759C13.6521 12.5602 13.9073 12.5 14.166 12.5H16.666C17.108 12.5 17.532 12.6756 17.8445 12.9881C18.1571 13.3007 18.3327 13.7246 18.3327 14.1666V16.6666C18.3327 17.1087 18.1571 17.5326 17.8445 17.8451C17.532 18.1577 17.108 18.3333 16.666 18.3333C12.6878 18.3333 8.87246 16.7529 6.05941 13.9399C3.24637 11.1268 1.66602 7.31154 1.66602 3.33329C1.66602 2.89127 1.84161 2.46734 2.15417 2.15478C2.46673 1.84222 2.89065 1.66663 3.33268 1.66663H5.83268C6.27471 1.66663 6.69863 1.84222 7.01119 2.15478C7.32375 2.46734 7.49935 2.89127 7.49935 3.33329V5.83329C7.49935 6.09203 7.43911 6.34722 7.32339 6.57865C7.20768 6.81007 7.03968 7.01138 6.83268 7.16663L6.44268 7.45913C6.2897 7.57594 6.18187 7.74211 6.13751 7.92942C6.09315 8.11672 6.115 8.31361 6.19935 8.48663C7.33825 10.7998 9.21137 12.6706 11.526 13.8066Z" stroke="white" stroke-width="1.66667" stroke-linecap="round" stroke-linejoin="round"/>
</svg>
