<svg preserveAspectRatio="none" width="100%" height="100%" overflow="visible" style="display: block;" viewBox="0 0 52.5004 45.5006" fill="none" xmlns="http://www.w3.org/2000/svg">
<g id="Group 6437">
<g id="5d">
<path d="M14.1181 30.6326L13.9921 31.1786C13.9501 31.4306 13.9081 31.6826 13.9081 31.8926C13.8871 32.1236 13.9081 32.3336 13.9711 32.5016C14.0131 32.6696 14.1181 32.8166 14.2651 32.9216C14.3911 33.0266 14.6011 33.0686 14.8741 33.0686C15.4411 33.0686 15.8611 32.7956 16.1551 32.2496C16.4281 31.7036 16.6801 30.9056 16.8901 29.8766C17.0581 28.9946 17.1001 28.3436 16.9951 27.9236C16.8691 27.5036 16.5961 27.2936 16.1341 27.2936C15.7981 27.2936 15.5041 27.3986 15.2311 27.5666C14.9371 27.7346 14.7271 28.0496 14.5801 28.4696H11.3041L13.4461 20.4266H21.7831L21.2161 23.1566H15.5881L14.8321 25.9496L14.8741 25.9916C15.1261 25.6136 15.5251 25.3406 16.0501 25.1306C16.5751 24.9206 17.0791 24.8156 17.5621 24.8156C18.9061 24.8156 19.8091 25.2356 20.2711 26.0546C20.7331 26.8736 20.7751 28.1756 20.3971 29.9816C19.9981 31.8716 19.3261 33.2366 18.3601 34.0556C17.3941 34.8956 16.0711 35.2946 14.4331 35.2946C12.8371 35.2946 11.7241 34.9376 11.1151 34.2236C10.4851 33.5096 10.3171 32.5016 10.5901 31.1786L10.7161 30.6326H14.1181Z" fill="#D92D20"/>
<path d="M27.9053 29.3936C27.9893 28.8896 28.0733 28.4276 28.1573 27.9866C28.2203 27.5666 28.2413 27.1886 28.2413 26.8526C28.2203 26.5376 28.1573 26.2856 28.0313 26.0966C27.9053 25.9286 27.6953 25.8236 27.4013 25.8236C27.0653 25.8236 26.8133 25.9076 26.6033 26.0756C26.3933 26.2436 26.2253 26.4746 26.0783 26.7686C25.9313 27.0626 25.8053 27.4196 25.7003 27.8396C25.5953 28.2596 25.4903 28.7426 25.3853 29.2466C25.2803 29.7086 25.1963 30.1706 25.1333 30.5906C25.0493 31.0106 25.0283 31.3886 25.0493 31.7246C25.0703 32.0606 25.1543 32.3126 25.2803 32.5226C25.4063 32.7326 25.6373 32.8166 25.9733 32.8166C26.4773 32.8166 26.8553 32.5226 27.1283 31.9346C27.4013 31.3466 27.6533 30.5066 27.9053 29.3936ZM27.0863 33.6146H27.0443C26.9393 33.8246 26.8133 34.0136 26.6453 34.2026C26.4773 34.4126 26.2883 34.5806 26.0573 34.7486C25.8263 34.9166 25.5533 35.0426 25.2593 35.1476C24.9653 35.2526 24.6293 35.2946 24.2513 35.2946C23.3693 35.2946 22.7183 35.0636 22.2773 34.5596C21.8363 34.0766 21.6263 33.2576 21.6263 32.1236C21.6263 31.3676 21.7313 30.4646 21.9623 29.4146C22.1303 28.5326 22.3403 27.7346 22.5923 26.9786C22.8233 26.2436 23.1173 25.6136 23.4743 25.0676C23.8103 24.5216 24.2303 24.1016 24.7343 23.8076C25.2173 23.5136 25.8053 23.3456 26.5193 23.3456C26.7503 23.3456 26.9813 23.3876 27.2123 23.4296C27.4433 23.4716 27.6533 23.5556 27.8633 23.6606C28.0523 23.7866 28.2203 23.9336 28.3883 24.1436C28.5353 24.3536 28.6613 24.5846 28.7453 24.8786H28.7873L29.7953 20.0066H33.1973L30.0893 35.0006H26.8133L27.0863 33.6146Z" fill="#D92D20"/>
</g>
<path id="Rectangle 3211" d="M8.2781 11.3908C9.07062 8.2927 11.8619 6.12559 15.0597 6.12559H35.6089C40.1787 6.12559 43.5231 10.4332 42.3905 14.8604L36.3469 38.4854C35.5544 41.5835 32.7631 43.7506 29.5653 43.7506H9.01611C4.44632 43.7506 1.10195 39.443 2.23449 35.0158L8.2781 11.3908Z" stroke="var(--stroke-1, #EDAE5F)" stroke-width="3.5"/>
<path id="Line 329" d="M33.25 15.7504C34.2165 15.7504 35 14.9669 35 14.0004C35 13.0339 34.2165 12.2504 33.25 12.2504V14.0004V15.7504ZM8.75 14.0004V15.7504H33.25V14.0004V12.2504H8.75V14.0004Z" fill="var(--stroke-0, #EDAE5F)"/>
<path id="Line 332" d="M42 41.2826L47.8896 17.5011" stroke="var(--stroke-0, #EDAE5F)" stroke-width="3.5" stroke-linecap="round"/>
<path id="Line 333" d="M49 35.0004L50.75 28.0004" stroke="var(--stroke-0, #EDAE5F)" stroke-width="3.5" stroke-linecap="round"/>
<path id="Line 330" d="M22.0851 2.17614C22.3202 1.23868 21.7509 0.28811 20.8134 0.0529879C19.8759 -0.182133 18.9254 0.387227 18.6902 1.32469L20.3877 1.75041L22.0851 2.17614ZM19.5099 5.25007L21.2074 5.6758L22.0851 2.17614L20.3877 1.75041L18.6902 1.32469L17.8125 4.82435L19.5099 5.25007Z" fill="var(--stroke-0, #EDAE5F)"/>
<path id="Line 331" d="M34.3351 2.17614C34.5702 1.23868 34.0009 0.28811 33.0634 0.0529879C32.1259 -0.182133 31.1754 0.387227 30.9402 1.32469L32.6377 1.75041L34.3351 2.17614ZM31.7599 5.25007L33.4574 5.6758L34.3351 2.17614L32.6377 1.75041L30.9402 1.32469L30.0625 4.82435L31.7599 5.25007Z" fill="var(--stroke-0, #EDAE5F)"/>
</g>
</svg>
