<svg width="16" height="16" viewBox="0 0 16 16" fill="none" xmlns="http://www.w3.org/2000/svg">
<g clip-path="url(#clip0_2385_13956)">
<path d="M14 3H2C1.86739 3 1.74021 3.05268 1.64645 3.14645C1.55268 3.24021 1.5 3.36739 1.5 3.5V12C1.5 12.2652 1.60536 12.5196 1.79289 12.7071C1.98043 12.8946 2.23478 13 2.5 13H13.5C13.7652 13 14.0196 12.8946 14.2071 12.7071C14.3946 12.5196 14.5 12.2652 14.5 12V3.5C14.5 3.36739 14.4473 3.24021 14.3536 3.14645C14.2598 3.05268 14.1326 3 14 3ZM6.16875 8L2.5 11.3625V4.6375L6.16875 8ZM6.90625 8.68125L7.6625 9.36875C7.75467 9.45307 7.87507 9.49984 8 9.49984C8.12493 9.49984 8.24533 9.45307 8.3375 9.36875L9.09375 8.68125L12.7125 12H3.2875L6.90625 8.68125ZM9.83125 8L13.5 4.6375V11.3625L9.83125 8Z" fill="white" fill-opacity="0.64"/>
</g>
<defs>
<clipPath id="clip0_2385_13956">
<rect width="16" height="16" fill="white"/>
</clipPath>
</defs>
</svg>
