<svg preserveAspectRatio="none" width="100%" height="100%" overflow="visible" style="display: block;" viewBox="0 0 49.6401 45.5006" fill="none" xmlns="http://www.w3.org/2000/svg">
<g id="Group 6436">
<g id="3d">
<path d="M14.2021 30.6326C14.1181 30.9686 14.0761 31.2836 14.0551 31.5776C14.0131 31.8716 14.0341 32.1446 14.0971 32.3546C14.1391 32.5646 14.2441 32.7536 14.3911 32.8796C14.5171 33.0056 14.7271 33.0686 15.0001 33.0686C15.4411 33.0686 15.7981 32.9216 16.0921 32.6066C16.3861 32.3126 16.6171 31.7246 16.7851 30.8846C16.8691 30.4436 16.9321 30.0446 16.9321 29.7086C16.9321 29.2466 16.8061 28.9316 16.5751 28.7636C16.3441 28.5956 15.9661 28.5116 15.4411 28.5116H14.6011L15.0631 26.2856H16.0291C16.6171 26.2856 17.0371 26.0966 17.3311 25.7186C17.6251 25.3406 17.8351 24.7946 18.0031 24.0596C18.1081 23.4716 18.1081 23.0516 17.9821 22.7786C17.8561 22.5056 17.5831 22.3586 17.1841 22.3586C16.7851 22.3586 16.4281 22.5056 16.1131 22.7996C15.7771 23.0936 15.5251 23.6606 15.3571 24.5006H12.2071C12.5011 23.0306 13.1101 21.9386 14.0341 21.2246C14.9161 20.5106 16.2181 20.1326 17.8981 20.1326C19.3681 20.1326 20.3761 20.4686 20.9431 21.0986C21.5101 21.7496 21.6571 22.7996 21.3631 24.2276C21.1951 24.9836 20.8801 25.6346 20.4181 26.1806C19.9351 26.7266 19.3471 27.0626 18.6331 27.2096L18.6121 27.2516C19.4521 27.4616 19.9981 27.8396 20.2711 28.4066C20.5231 28.9736 20.5441 29.7716 20.3341 30.8216C20.1661 31.6196 19.8931 32.3126 19.5361 32.8796C19.1581 33.4466 18.7381 33.9086 18.2551 34.2656C17.7511 34.6226 17.2051 34.8746 16.5961 35.0426C15.9871 35.2106 15.3571 35.2946 14.7271 35.2946C13.9711 35.2946 13.3201 35.2316 12.7531 35.1056C12.1651 34.9796 11.7031 34.7276 11.3461 34.3916C10.9891 34.0556 10.7581 33.5726 10.6531 32.9636C10.5481 32.3756 10.5901 31.5986 10.8001 30.6326H14.2021Z" fill="#0063F5"/>
<path d="M27.9053 29.3936C27.9893 28.8896 28.0733 28.4276 28.1573 27.9866C28.2203 27.5666 28.2413 27.1886 28.2413 26.8526C28.2203 26.5376 28.1573 26.2856 28.0313 26.0966C27.9053 25.9286 27.6953 25.8236 27.4013 25.8236C27.0653 25.8236 26.8133 25.9076 26.6033 26.0756C26.3933 26.2436 26.2253 26.4746 26.0783 26.7686C25.9313 27.0626 25.8053 27.4196 25.7003 27.8396C25.5953 28.2596 25.4903 28.7426 25.3853 29.2466C25.2803 29.7086 25.1963 30.1706 25.1333 30.5906C25.0493 31.0106 25.0283 31.3886 25.0493 31.7246C25.0703 32.0606 25.1543 32.3126 25.2803 32.5226C25.4063 32.7326 25.6373 32.8166 25.9733 32.8166C26.4773 32.8166 26.8553 32.5226 27.1283 31.9346C27.4013 31.3466 27.6533 30.5066 27.9053 29.3936ZM27.0863 33.6146H27.0443C26.9393 33.8246 26.8133 34.0136 26.6453 34.2026C26.4773 34.4126 26.2883 34.5806 26.0573 34.7486C25.8263 34.9166 25.5533 35.0426 25.2593 35.1476C24.9653 35.2526 24.6293 35.2946 24.2513 35.2946C23.3693 35.2946 22.7183 35.0636 22.2773 34.5596C21.8363 34.0766 21.6263 33.2576 21.6263 32.1236C21.6263 31.3676 21.7313 30.4646 21.9623 29.4146C22.1303 28.5326 22.3403 27.7346 22.5923 26.9786C22.8233 26.2436 23.1173 25.6136 23.4743 25.0676C23.8103 24.5216 24.2303 24.1016 24.7343 23.8076C25.2173 23.5136 25.8053 23.3456 26.5193 23.3456C26.7503 23.3456 26.9813 23.3876 27.2123 23.4296C27.4433 23.4716 27.6533 23.5556 27.8633 23.6606C28.0523 23.7866 28.2203 23.9336 28.3883 24.1436C28.5353 24.3536 28.6613 24.5846 28.7453 24.8786H28.7873L29.7953 20.0066H33.1973L30.0893 35.0006H26.8133L27.0863 33.6146Z" fill="#0063F5"/>
</g>
<path id="Rectangle 3211" d="M8.2781 11.3908C9.07062 8.2927 11.8619 6.12559 15.0597 6.12559H35.6089C40.1787 6.12559 43.5231 10.4332 42.3905 14.8604L36.3469 38.4854C35.5544 41.5835 32.7631 43.7506 29.5653 43.7506H9.01611C4.44632 43.7506 1.10195 39.443 2.23449 35.0158L8.2781 11.3908Z" stroke="var(--stroke-1, #3587FF)" stroke-width="3.5"/>
<path id="Line 329" d="M33.25 15.7504C34.2165 15.7504 35 14.9669 35 14.0004C35 13.0339 34.2165 12.2504 33.25 12.2504V14.0004V15.7504ZM8.75 14.0004V15.7504H33.25V14.0004V12.2504H8.75V14.0004Z" fill="var(--stroke-0, #3587FF)"/>
<path id="Line 332" d="M42 41.2826L47.8896 17.5011" stroke="var(--stroke-0, #3587FF)" stroke-width="3.5" stroke-linecap="round"/>
<path id="Line 330" d="M22.0851 2.17614C22.3202 1.23868 21.7509 0.28811 20.8134 0.0529879C19.8759 -0.182133 18.9254 0.387227 18.6902 1.32469L20.3877 1.75041L22.0851 2.17614ZM19.5099 5.25007L21.2074 5.6758L22.0851 2.17614L20.3877 1.75041L18.6902 1.32469L17.8125 4.82435L19.5099 5.25007Z" fill="var(--stroke-0, #3587FF)"/>
<path id="Line 331" d="M34.3351 2.17614C34.5702 1.23868 34.0009 0.28811 33.0634 0.0529879C32.1259 -0.182133 31.1754 0.387227 30.9402 1.32469L32.6377 1.75041L34.3351 2.17614ZM31.7599 5.25007L33.4574 5.6758L34.3351 2.17614L32.6377 1.75041L30.9402 1.32469L30.0625 4.82435L31.7599 5.25007Z" fill="var(--stroke-0, #3587FF)"/>
</g>
</svg>
