<svg width="16" height="16" viewBox="0 0 16 16" fill="none" xmlns="http://www.w3.org/2000/svg">
<g clip-path="url(#clip0_2385_13959)">
<path d="M13.6696 9.75397L10.7818 8.52251C10.6328 8.45573 10.4692 8.42803 10.3066 8.44204C10.1439 8.45604 9.98745 8.51129 9.85205 8.60256L8.30657 9.63082C7.36465 9.17335 6.60203 8.41506 6.1392 7.47577V7.47577L7.16131 5.91181C7.25197 5.77628 7.30734 5.62024 7.3224 5.45788C7.33745 5.29551 7.31171 5.13195 7.24751 4.98206L6.00989 2.09429C5.92353 1.89929 5.7773 1.73688 5.59242 1.63059C5.40753 1.52431 5.19359 1.47968 4.98162 1.50318C4.15014 1.61211 3.3865 2.01927 2.83268 2.64897C2.27886 3.27867 1.97255 4.08806 1.9707 4.92665C1.9707 9.81554 5.94832 13.7932 10.8372 13.7932C11.6758 13.7913 12.4852 13.485 13.1149 12.9312C13.7446 12.3774 14.1518 11.6137 14.2607 10.7822C14.2842 10.5703 14.2396 10.3563 14.1333 10.1714C14.027 9.98656 13.8646 9.84033 13.6696 9.75397Z" fill="white" fill-opacity="0.64"/>
</g>
<defs>
<clipPath id="clip0_2385_13959">
<rect width="15.7627" height="15.7627" fill="white"/>
</clipPath>
</defs>
</svg>
