<svg preserveAspectRatio="none" width="100%" height="100%" overflow="visible" style="display: block;" viewBox="0 0 214.39 199.433" fill="none" xmlns="http://www.w3.org/2000/svg">
<g id="Group 5891">
<path id="Vector 4408" d="M60.1372 128.915L65.4979 127.453L71.1021 149.14L65.4979 151.333L61.599 148.409C61.1117 146.297 59.8935 141.099 58.9188 137.2C57.9441 133.301 59.3249 130.052 60.1372 128.915Z" fill="var(--fill-0, #585858)" stroke="var(--stroke-0, black)"/>
<path id="Vector 4407" d="M76.4628 146.703L123.491 148.409H125.928L126.903 153.038C123.589 149.14 116.1 152.226 112.77 154.257C103.104 158.48 82.1649 167.561 75.732 170.095C69.2991 172.629 58.4312 175.862 53.8014 177.162C40.8869 181.791 4.82379 183.741 5.31113 176.431C5.701 170.583 18.7942 164.247 25.292 161.811L57.9438 148.409C62.4273 147.239 64.6854 149.871 65.254 151.333C64.1981 147.028 61.9888 137.98 61.599 136.225C61.1116 134.032 61.1116 128.428 65.254 127.453C68.5679 126.673 71.1833 129.078 72.0767 130.377L76.4628 146.703Z" fill="var(--fill-0, #D9D9D9)" stroke="var(--stroke-0, black)"/>
<path id="Vector 4410" d="M69.3944 156.447C64.716 157.032 37.23 166.438 24.0719 171.068L76.7045 146.457L123.733 148.406L124.464 151.574C122.125 150.794 109.194 155.635 103.021 158.153C93.7614 157.341 74.0729 155.863 69.3944 156.447Z" fill="var(--fill-0, #585858)"/>
<path id="Vector 4409" d="M21.15 172.533C15.107 175.262 12.784 178.868 12.3779 180.33C7.30955 179.745 5.55513 177.65 5.31146 176.675C4.72665 172.192 14.6521 166.685 19.688 164.492L31.6278 159.375C39.2628 155.963 55.2637 148.945 58.1878 148.166C61.1118 147.386 64.1171 149.79 65.2542 151.09L61.8428 138.906L74.27 139.394L76.463 146.704C60.5433 154.176 27.193 169.804 21.15 172.533Z" fill="url(#paint0_linear_4266_56607)" stroke="var(--stroke-0, black)"/>
<path id="Vector 4392" d="M186.112 39.4857L87.1817 34.125C67.8831 34.9047 61.109 56.3802 60.1344 67.0204V138.659L115.691 141.34L208.128 137.67C211.347 137.542 213.89 134.896 213.89 131.674V67.0204C210.186 43.6281 193.828 38.9172 186.112 39.4857Z" fill="var(--fill-0, white)" stroke="var(--stroke-0, black)"/>
<path id="Vector 4391" d="M60.1344 67.5077V138.903L115.447 141.34C115.529 117.947 115.642 71.407 115.447 67.5083C115.204 62.6349 111.061 34.1252 87.4254 34.125C67.9074 34.1248 61.109 56.7863 60.1344 67.5077Z" stroke="var(--stroke-0, black)"/>
<path id="Vector 4415" d="M60.3805 67.5103V138.418L88.8898 139.88L89.6208 34.6149C69.1526 32.4218 61.0302 56.8701 60.3805 67.5103Z" fill="url(#paint1_linear_4266_56607)"/>
<rect id="Rectangle 2925" x="130.314" y="138.906" width="16.5695" height="59.9427" fill="url(#paint2_linear_4266_56607)"/>
<rect id="Rectangle 2926" width="15.5949" height="59.9427" transform="matrix(-1 0 0 1 162.478 138.906)" fill="url(#paint3_linear_4266_56607)"/>
<path id="Vector 4406" d="M125.44 126.232L130.313 125.258C124.27 127.987 123.734 135.329 124.221 138.66L127.145 153.28C125.781 151.33 123.328 151.493 122.272 151.818C114.474 155.717 94.8832 165.025 78.8985 171.068C58.9176 178.621 42.1044 181.546 39.9113 182.033C37.7183 182.52 3.36085 185.444 0.680484 178.621C-1.46381 173.163 16.1943 165.138 25.2915 161.808C12.6206 167.007 -7.06789 178.134 15.5447 181.058C38.1572 183.982 67.8524 173.829 79.8735 168.387C92.6255 162.864 118.471 151.672 119.835 151.087C121.2 150.502 123.328 150.843 124.221 151.087C123.247 148 121.249 140.658 121.054 135.979C120.859 131.301 123.896 127.532 125.44 126.232Z" fill="var(--fill-0, #D9D9D9)" stroke="var(--stroke-0, black)"/>
<path id="Vector 4405" d="M89.8641 183.007L138.827 159.979C141.392 158.772 142.763 155.935 142.114 153.175L138.355 137.197C137.461 132.243 134.358 123.016 129.095 125.745C123.832 128.474 123.816 136.629 124.465 140.365L127.146 153.279C126.171 151.135 123.816 151.249 122.76 151.574C122.11 152.142 112.769 156.691 80.6049 170.336C40.3994 187.393 15.0578 183.007 8.235 182.032C2.7768 181.253 0.92491 179.271 0.68124 178.377L4.09241 193.485C3.76752 195.84 9.35568 200.161 34.3075 198.602C59.2592 197.042 81.7418 187.555 89.8641 183.007Z" fill="var(--fill-0, white)" stroke="var(--stroke-0, black)"/>
<path id="Vector 4393" d="M65.2516 67.9981V132.571L110.818 134.033V82.6184C110.818 76.3804 110.168 66.861 109.843 62.881C108.544 55.4085 102.094 40.7558 86.6945 41.9254C71.2946 43.095 65.9826 59.7945 65.2516 67.9981Z" fill="var(--fill-0, #A7A7A7)" stroke="var(--stroke-0, black)"/>
<path id="Vector 4395" d="M92.0565 69.7026V129.645L111.063 130.864L110.332 69.7026C109.942 55.6672 103.509 48.0972 100.341 46.0666C94.2982 50.94 92.0565 61.6615 92.0565 69.7026Z" fill="url(#paint4_linear_4266_56607)"/>
<path id="Vector 4414" d="M88.6465 69.4614L88.6464 129.891L82.7982 130.622C82.3109 115.677 83.7497 82.9102 83.5294 69.4614C83.286 54.5975 89.1338 45.9879 92.3015 42.4141C94.2509 42.9014 95.7129 43.3887 97.4186 44.3634C89.2313 51.1862 88.6465 63.6133 88.6465 69.4614Z" fill="url(#paint5_linear_4266_56607)"/>
<path id="Vector 4394" d="M92.0576 129.891L65.4976 132.571L110.82 133.789V130.622L92.0576 129.891Z" fill="var(--fill-0, #585858)" stroke="var(--stroke-0, black)"/>
<path id="Vector 4396" d="M55.5797 67.0234L110.406 71.4974L110.658 85.3934V121.018L65.0828 119.412L55.5797 67.0234Z" fill="var(--fill-0, white)" stroke="var(--stroke-0, black)"/>
<path id="Vector 4397" d="M76.7796 84.3242L65.0835 119.413L110.912 121.018L110.659 98.5316L102.852 85.7862L76.7796 84.3242Z" fill="var(--fill-0, white)" stroke="var(--stroke-0, black)"/>
<path id="Vector 4398" d="M89.9362 104.789L55.7516 66.957L110.405 71.4942L110.657 85.1375L97.4899 104.789H89.9362Z" fill="var(--fill-0, white)" stroke="var(--stroke-0, black)"/>
<path id="Rectangle 2929" d="M110.152 71.2425L93.9826 69.7266V120.005L110.658 120.763V84.3805L110.152 71.2425Z" fill="url(#paint6_linear_4266_56607)"/>
<path id="Vector 4404" d="M144.447 0.5V76.5249H151.27V22.4303L167.352 19.5062V6.34807L151.27 0.5H146.153H144.447Z" fill="var(--fill-0, #FFDD33)" stroke="var(--stroke-0, black)"/>
<path id="Vector 4403" d="M144.447 0.5V76.2813H145.909V0.5H144.447Z" fill="var(--fill-0, #B89F25)" stroke="var(--stroke-0, black)"/>
<path id="Vector 4399" d="M144.69 104.547H152.487C155.167 103.491 160.012 97.9679 160.284 90.9014C160.607 82.5231 154.68 77.662 151.999 76.2812H144.69C141.847 77.4996 136.21 82.1293 136.405 90.9014C136.6 99.6735 142.009 103.653 144.69 104.547Z" fill="var(--fill-0, #B89F25)" stroke="var(--stroke-0, black)"/>
<path id="Vector 4400" d="M141.277 91.3888C142.252 100.941 149.156 104.141 152.486 104.547C156.628 103.816 161.014 97.9679 161.014 90.1704C161.014 81.7859 155.653 77.0123 151.755 76.2812C148.831 76.2812 140.059 79.449 141.277 91.3888Z" fill="var(--fill-0, #FFDD33)" stroke="var(--stroke-0, black)"/>
<path id="Vector 4401" d="M152.731 80.668H149.564C146.884 81.8863 143.824 86.0287 144.446 91.6331C145.015 96.7502 148.021 99.0244 149.564 99.9179H154.437C156.305 99.0244 160.188 95.6293 159.798 89.1964C159.408 82.7635 154.924 80.8304 152.731 80.668Z" fill="var(--fill-0, #B89F25)" stroke="var(--stroke-0, black)"/>
<path id="Vector 4402" d="M152.488 80.668C147.225 82.0325 146.787 88.4654 147.371 91.3894C148.541 97.2375 152.732 99.5118 154.682 99.9179C156.712 98.5371 160.578 94.3135 159.799 88.4654C159.019 82.6173 154.6 80.8304 152.488 80.668Z" fill="var(--fill-0, #FFDD33)" stroke="var(--stroke-0, black)"/>
</g>
<defs>
<linearGradient id="paint0_linear_4266_56607" x1="40.8749" y1="138.906" x2="40.8749" y2="180.33" gradientUnits="userSpaceOnUse">
<stop stop-color="#767676"/>
<stop offset="1" stop-color="#767676" stop-opacity="0"/>
</linearGradient>
<linearGradient id="paint1_linear_4266_56607" x1="60.1368" y1="87.2475" x2="89.3772" y2="87.2475" gradientUnits="userSpaceOnUse">
<stop stop-color="#C9C9C9"/>
<stop offset="1" stop-color="#A5A5A5" stop-opacity="0"/>
</linearGradient>
<linearGradient id="paint2_linear_4266_56607" x1="138.599" y1="138.906" x2="138.599" y2="198.849" gradientUnits="userSpaceOnUse">
<stop stop-color="#5E5E5E"/>
<stop offset="1" stop-color="#5E5E5E" stop-opacity="0"/>
</linearGradient>
<linearGradient id="paint3_linear_4266_56607" x1="7.79743" y1="0" x2="7.79743" y2="59.9427" gradientUnits="userSpaceOnUse">
<stop stop-color="#8B8B8B"/>
<stop offset="1" stop-color="#8B8B8B" stop-opacity="0"/>
</linearGradient>
<linearGradient id="paint4_linear_4266_56607" x1="101.56" y1="46.0666" x2="101.56" y2="130.864" gradientUnits="userSpaceOnUse">
<stop stop-color="#585858" stop-opacity="0"/>
<stop offset="1" stop-color="#585858"/>
</linearGradient>
<linearGradient id="paint5_linear_4266_56607" x1="90.0577" y1="42.4141" x2="90.0577" y2="130.622" gradientUnits="userSpaceOnUse">
<stop stop-color="#8F8F8F" stop-opacity="0"/>
<stop offset="1" stop-color="#A4A4A4"/>
</linearGradient>
<linearGradient id="paint6_linear_4266_56607" x1="110.658" y1="97.8106" x2="97.0127" y2="98.4938" gradientUnits="userSpaceOnUse">
<stop stop-color="#929292" stop-opacity="0.74"/>
<stop offset="1" stop-color="#9C9C9C" stop-opacity="0"/>
</linearGradient>
</defs>
</svg>
