<svg preserveAspectRatio="none" width="100%" height="100%" overflow="visible" style="display: block;" viewBox="0 0 22.9379 17.0361" fill="none" xmlns="http://www.w3.org/2000/svg">
<g id="Group 5484">
<g id="Union">
<mask id="path-1-inside-1_4429_93025" fill="white">
<path d="M11.4688 0C17.7245 0 22.8067 2.87049 22.9316 6.43848H22.9375V10.8652H22.9141C22.5511 14.3078 17.5669 17.0361 11.4688 17.0361C5.37061 17.0361 0.386394 14.3078 0.0234375 10.8652H0V6.43848H0.00585938C0.130809 2.87051 5.21312 5.39694e-05 11.4688 0Z"/>
</mask>
<path d="M11.4688 0C17.7245 0 22.8067 2.87049 22.9316 6.43848H22.9375V10.8652H22.9141C22.5511 14.3078 17.5669 17.0361 11.4688 17.0361C5.37061 17.0361 0.386394 14.3078 0.0234375 10.8652H0V6.43848H0.00585938C0.130809 2.87051 5.21312 5.39694e-05 11.4688 0Z" fill="var(--fill-0, #1D2939)"/>
<path d="M11.4688 0V-0.709821H11.4687L11.4688 0ZM22.9316 6.43848L22.2223 6.46332L22.2462 7.1483H22.9316V6.43848ZM22.9375 6.43848H23.6473V5.72865H22.9375V6.43848ZM22.9375 10.8652V11.5751H23.6473V10.8652H22.9375ZM22.9141 10.8652V10.1554H22.2752L22.2082 10.7908L22.9141 10.8652ZM11.4688 17.0361L11.4687 17.746H11.4688V17.0361ZM0.0234375 10.8652L0.729346 10.7908L0.662355 10.1554H0.0234375V10.8652ZM0 10.8652H-0.709821V11.5751H0V10.8652ZM0 6.43848V5.72865H-0.709821V6.43848H0ZM0.00585938 6.43848V7.1483H0.691258L0.715246 6.46332L0.00585938 6.43848ZM11.4688 0V0.709821C14.4965 0.709821 17.2068 1.40591 19.1512 2.49987C21.1154 3.60504 22.1721 5.03245 22.2223 6.46332L22.9316 6.43848L23.641 6.41363C23.5662 4.27651 22.0193 2.48468 19.8473 1.26262C17.6553 0.0293333 14.6967 -0.709821 11.4688 -0.709821V0ZM22.9316 6.43848V7.1483H22.9375V6.43848V5.72865H22.9316V6.43848ZM22.9375 6.43848H22.2277V10.8652H22.9375H23.6473V6.43848H22.9375ZM22.9375 10.8652V10.1554H22.9141V10.8652V11.5751H22.9375V10.8652ZM22.9141 10.8652L22.2082 10.7908C22.0616 12.1811 20.9578 13.5592 19.004 14.6175C17.0703 15.6649 14.4197 16.3263 11.4688 16.3263V17.0361V17.746C14.616 17.746 17.5065 17.0432 19.6802 15.8658C21.8338 14.6992 23.4036 12.992 23.62 10.9397L22.9141 10.8652ZM11.4688 17.0361L11.4688 16.3263C8.51787 16.3263 5.86718 15.6649 3.93347 14.6175C1.97972 13.5592 0.875924 12.1811 0.729346 10.7908L0.0234375 10.8652L-0.682471 10.9397C-0.466093 12.992 1.1037 14.6992 3.25733 15.8658C5.43101 17.0432 8.32149 17.7459 11.4687 17.746L11.4688 17.0361ZM0.0234375 10.8652V10.1554H0V10.8652V11.5751H0.0234375V10.8652ZM0 10.8652H0.709821V6.43848H0H-0.709821V10.8652H0ZM0 6.43848V7.1483H0.00585938V6.43848V5.72865H0V6.43848ZM0.00585938 6.43848L0.715246 6.46332C0.765354 5.03247 1.82208 3.60508 3.78636 2.4999C5.7307 1.40594 8.44101 0.709848 11.4688 0.709821L11.4688 0L11.4687 -0.709821C8.24086 -0.709794 5.2822 0.0293684 3.09024 1.26265C0.918219 2.4847 -0.628686 4.27652 -0.703527 6.41363L0.00585938 6.43848Z" fill="var(--stroke-0, #1D2939)" mask="url(#path-1-inside-1_4429_93025)"/>
</g>
<path id="Vector 1010" d="M1.74381 13.9505V10.0605L2.28037 10.4629V14.42L1.74381 13.9505Z" fill="var(--fill-0, #FFDD33)"/>
<path id="Ellipse 923" d="M11.4688 0.354492C14.5853 0.354492 17.3897 1.07996 19.4023 2.2334C21.4247 3.39247 22.583 4.94007 22.583 6.57324C22.5828 8.20633 21.4247 9.7541 19.4023 10.9131C17.3897 12.0665 14.5853 12.791 11.4688 12.791C8.35226 12.791 5.54776 12.0665 3.53516 10.9131C1.51294 9.75411 0.354684 8.20629 0.354492 6.57324C0.354492 4.94014 1.51299 3.39245 3.53516 2.2334C5.54776 1.07998 8.35226 0.35452 11.4688 0.354492Z" fill="var(--fill-0, #FFDD33)" stroke="var(--stroke-0, #1D2939)" stroke-width="0.709821"/>
<path id="Ellipse 924" d="M11.4693 1.96417C13.8078 1.96422 15.9079 2.50934 17.4107 3.37139C18.9229 4.23901 19.766 5.38387 19.7661 6.57256C19.7661 7.76141 18.9232 8.90702 17.4107 9.77471C15.9079 10.6368 13.8078 11.1809 11.4693 11.181C9.13078 11.181 7.0307 10.6367 5.52787 9.77471C4.01523 8.907 3.17142 7.76147 3.17142 6.57256C3.17155 5.38375 4.01535 4.23904 5.52787 3.37139C7.03071 2.50932 9.13068 1.96417 11.4693 1.96417Z" fill="var(--fill-0, #D0D5DD)" stroke="var(--stroke-0, #1D2939)" stroke-width="0.709821"/>
<path id="Ellipse 925" d="M11.1333 2.36658C13.3795 2.36658 15.3962 2.88944 16.8384 3.71522C18.2901 4.54658 19.0951 5.64101 19.0952 6.77381C19.0952 7.90675 18.2904 9.00195 16.8384 9.83338C15.3962 10.6592 13.3795 11.181 11.1333 11.181C8.88734 11.181 6.87138 10.6591 5.42923 9.83338C3.97712 9.00193 3.17142 7.90682 3.17142 6.77381C3.17153 5.64091 3.97729 4.54661 5.42923 3.71522C6.87139 2.88947 8.88729 2.36662 11.1333 2.36658Z" fill="var(--fill-0, #FFDD33)" stroke="var(--stroke-0, #1D2939)" stroke-width="0.709821"/>
</g>
</svg>
