<svg preserveAspectRatio="none" width="100%" height="100%" overflow="visible" style="display: block;" viewBox="0 0 98.7135 100.171" fill="none" xmlns="http://www.w3.org/2000/svg">
<g id="Group 5694">
<path id="Rectangle 2698" d="M2.77163 72.9577C1.67283 74.2241 2.18551 76.1974 3.76151 76.7669L40.5557 90.0616C43.2784 91.0453 46.3283 90.2413 48.2146 88.0432L95.9697 32.3947C97.0572 31.1274 96.5431 29.165 94.974 28.5961L58.6156 15.4221C55.9049 14.4399 52.8666 15.2304 50.9759 17.4092L2.77163 72.9577Z" fill="var(--fill-0, #FFDD33)" stroke="var(--stroke-0, #1D2939)" stroke-width="0.709821"/>
<path id="Rectangle 2700" d="M3.88093 72.1485C2.82071 73.4275 3.35677 75.3701 4.92228 75.9228L40.4457 88.4589C42.9625 89.347 45.7676 88.5397 47.4292 86.4491L55.8108 75.9042L55.8173 75.8965L55.8227 75.8896L84.8354 35.2116C87.6222 31.3038 85.7156 25.8189 81.1071 24.4863L55.0687 16.9585C52.4052 16.1884 49.5362 17.0721 47.7658 19.2079L3.88093 72.1485Z" fill="var(--fill-0, #1D2939)" stroke="var(--stroke-0, #1D2939)" stroke-width="0.709821"/>
<path id="Rectangle 2697" d="M2.48364 71.1568C1.4606 72.4851 2.08755 74.4252 3.69408 74.9017L41.2013 86.0269C43.9768 86.8502 46.9745 85.8695 48.7294 83.5651L93.1562 25.2251C94.168 23.8965 93.5402 21.9675 91.9406 21.4911L54.8755 10.4609C52.1121 9.63855 49.1251 10.605 47.3648 12.8903L2.48364 71.1568Z" fill="var(--fill-0, #FFDD33)" stroke="var(--stroke-0, #1D2939)" stroke-width="0.709821"/>
<path id="Rectangle 2699" d="M3.12458 69.9316C2.09485 71.2558 2.71442 73.1996 4.3199 73.6825L40.9513 84.701C43.5879 85.494 46.435 84.4693 47.963 82.1773L54.7643 71.976L54.7673 71.9706L83.0888 27.6808C85.6799 23.6286 83.4827 18.2373 78.7987 17.1534L53.7874 11.3656C51.1423 10.7536 48.3806 11.7349 46.713 13.879L3.12458 69.9316Z" fill="var(--fill-0, #1D2939)" stroke="var(--stroke-0, #1D2939)" stroke-width="0.709821"/>
<path id="Rectangle 2693" d="M2.322 69.2532C1.38165 70.6413 2.12542 72.5396 3.75796 72.9176L41.8724 81.7411C44.6927 82.3941 47.6253 81.2329 49.2368 78.826L90.0333 17.8921C90.9624 16.5044 90.2185 14.6171 88.5929 14.239L50.9255 5.48337C48.1172 4.8306 45.1946 5.97688 43.5765 8.36509L2.322 69.2532Z" fill="var(--fill-0, #FFDD33)" stroke="var(--stroke-0, #1D2939)" stroke-width="0.709821"/>
<path id="Vector 3722" d="M49.6722 12.0729C47.2322 13.1912 45.182 12.5388 44.4619 12.0729L8.75244 64.5569C9.2184 64.5569 11.167 65.3193 12.0565 67.0985C13.0873 69.16 12.6919 71.0379 12.0565 71.9275L39.7599 78.0273C39.887 77.1378 41.3357 74.8249 43.064 73.7066C44.7923 72.5883 47.893 72.7323 49.2909 73.1983L81.9504 23.8913C81.3998 23.7219 79.5644 22.6114 79.1547 20.4601C78.6464 17.7915 80.0442 16.6477 80.5526 15.3769L53.1033 8.76879C52.9762 9.40419 52.1121 10.9546 49.6722 12.0729Z" fill="var(--fill-0, #FFDD33)" stroke="var(--stroke-0, #1D2939)" stroke-width="0.709821"/>
<path id="Ellipse 1234" d="M47.4543 34.1797C51.6907 34.9445 55.3437 36.5488 57.8262 38.5063C60.3224 40.4748 61.5621 42.7347 61.1853 44.8218C60.8083 46.9087 58.8568 48.5917 55.83 49.5629C52.8198 50.5288 48.8364 50.7543 44.6 49.9895C40.3635 49.2246 36.7105 47.6204 34.2281 45.6628C31.7321 43.6945 30.4922 41.4353 30.8688 39.3484C31.2456 37.2613 33.1973 35.5775 36.2243 34.6062C39.2345 33.6404 43.2179 33.4148 47.4543 34.1797Z" fill="var(--fill-0, #FFDD33)" stroke="var(--stroke-0, #1D2939)" stroke-width="0.709821"/>
<path id="Ellipse 1235" d="M60.0744 21.8898C61.7066 22.1733 63.1059 22.7801 64.0494 23.514C65.0065 24.2586 65.4216 25.0686 65.3 25.7692C65.1783 26.4698 64.5142 27.0922 63.3621 27.4704C62.2263 27.8431 60.7044 27.9424 59.0722 27.6588C57.44 27.3753 56.0407 26.7686 55.0972 26.0346C54.1401 25.29 53.7248 24.4801 53.8465 23.7795C53.9684 23.0789 54.6324 22.4564 55.7845 22.0782C56.9202 21.7055 58.4422 21.6063 60.0744 21.8898Z" stroke="var(--stroke-0, #1D2939)" stroke-width="0.709821"/>
<path id="Ellipse 1236" d="M32.8558 58.1965C34.5084 58.5288 35.9155 59.1837 36.856 59.956C37.81 60.7395 38.2126 61.5763 38.0694 62.2888C37.9261 63.0013 37.2314 63.6175 36.0487 63.9714C34.8828 64.3202 33.3319 64.3804 31.6793 64.0482C30.0264 63.7158 28.6187 63.0608 27.6781 62.2884C26.7241 61.505 26.3214 60.6681 26.4647 59.9557C26.6079 59.2432 27.3027 58.627 28.4854 58.2731C29.6514 57.9242 31.2029 57.8642 32.8558 58.1965Z" stroke="var(--stroke-0, #1D2939)" stroke-width="0.709821"/>
</g>
</svg>
