<svg preserveAspectRatio="none" width="100%" height="100%" overflow="visible" style="display: block;" viewBox="0 0 78.4131 55.7614" fill="none" xmlns="http://www.w3.org/2000/svg">
<g id="Group 5693">
<path id="Rectangle 2689" d="M72.9909 51.9438C73.8327 53.6124 72.5201 55.5564 70.6586 55.3977L26.1609 51.6025C23.7247 51.3947 21.5745 49.9246 20.496 47.7292L1.75539 9.57272C0.93476 7.90097 2.25663 5.97633 4.11089 6.14344L48.2083 10.1188C50.6052 10.3349 52.722 11.7736 53.8065 13.923L72.9909 51.9438Z" fill="var(--fill-0, white)" stroke="var(--stroke-0, #1D2939)" stroke-width="0.709821"/>
<path id="Rectangle 2696" d="M70.5278 51.7872C70.8322 52.3903 70.3572 53.0931 69.6843 53.0358L27.4193 49.4312C24.983 49.2234 22.8328 47.7533 21.7544 45.5579L5.11393 11.6759C4.29308 10.0041 5.61426 8.0797 7.46845 8.24657L46.6628 11.7801C49.0595 11.9962 51.1765 13.4341 52.261 15.5833L70.5278 51.7872Z" fill="var(--fill-0, #D0D5DD)" stroke="var(--stroke-0, #1D2939)" stroke-width="0.709821"/>
<g id="Vector 3721">
<path d="M5.3253 1.56272L1.87054 7.2413C1.49133 7.8767 1.62003 8.96895 1.87085 9.47727L19.9162 46.2034C19.9162 46.2034 20.8093 48.872 23.478 50.5241C23.478 49.4757 23.6872 48.7144 24.0348 48.056C25.9103 45.568 27.3299 45.568 29.5778 45.568L5.3253 1.56272Z" fill="var(--fill-0, #D0D5DD)"/>
<path d="M1.87054 7.2413L1.56733 7.05682L1.56578 7.05941L1.87054 7.2413ZM5.3253 1.56272L5.63613 1.39142C5.57502 1.28054 5.45947 1.21061 5.3329 1.2079C5.20633 1.20518 5.08789 1.2701 5.02209 1.37826L5.3253 1.56272ZM29.5778 45.568V45.9229H30.1787L29.8887 45.3966L29.5778 45.568ZM23.478 50.5241L23.2912 50.8258L23.8329 51.1612V50.5241H23.478ZM19.9162 46.2034L20.2528 46.0907L20.2452 46.0682L20.2347 46.0468L19.9162 46.2034ZM1.87085 9.47727L2.18938 9.32076L2.18912 9.32022L1.87085 9.47727ZM24.0348 48.056L23.7514 47.8424L23.7342 47.8651L23.7209 47.8903L24.0348 48.056ZM1.87054 7.2413L2.17375 7.42576L5.6285 1.74719L5.3253 1.56272L5.02209 1.37826L1.56734 7.05683L1.87054 7.2413ZM5.3253 1.56272L5.01447 1.73403L29.267 45.7393L29.5778 45.568L29.8887 45.3966L5.63613 1.39142L5.3253 1.56272ZM23.478 50.5241L23.6648 50.2223C22.3879 49.4319 21.5326 48.3959 20.9956 47.5534C20.7275 47.1328 20.5402 46.7626 20.4206 46.4993C20.3608 46.3677 20.318 46.2631 20.2906 46.1926C20.2768 46.1573 20.267 46.1306 20.2607 46.1133C20.2576 46.1047 20.2554 46.0984 20.2541 46.0946C20.2534 46.0927 20.253 46.0914 20.2528 46.0908C20.2527 46.0904 20.2526 46.0903 20.2526 46.0903C20.2526 46.0903 20.2526 46.0903 20.2526 46.0904C20.2526 46.0904 20.2527 46.0905 20.2527 46.0905C20.2527 46.0906 20.2528 46.0907 19.9162 46.2034C19.5796 46.316 19.5797 46.3161 19.5797 46.3163C19.5797 46.3163 19.5798 46.3165 19.5798 46.3166C19.5799 46.3168 19.58 46.3171 19.5801 46.3174C19.5803 46.3181 19.5806 46.3189 19.5809 46.3198C19.5816 46.3217 19.5825 46.3243 19.5836 46.3275C19.5858 46.3339 19.5889 46.3428 19.593 46.3541C19.6012 46.3767 19.6131 46.409 19.629 46.4499C19.6608 46.5318 19.7087 46.6485 19.7743 46.793C19.9055 47.0817 20.1083 47.4819 20.3971 47.935C20.9738 48.8398 21.8994 49.9642 23.2912 50.8258L23.478 50.5241ZM19.9162 46.2034L20.2347 46.0468L2.18938 9.32076L1.87085 9.47727L1.55231 9.63378L19.5977 46.3599L19.9162 46.2034ZM1.87085 9.47727L2.18912 9.32022C2.09117 9.1217 2.00381 8.77329 1.98908 8.39319C1.97424 8.0104 2.0355 7.65743 2.1753 7.42318L1.87054 7.2413L1.56578 7.05941C1.32637 7.46057 1.26238 7.97142 1.27979 8.42068C1.29731 8.87264 1.39971 9.32451 1.55257 9.63431L1.87085 9.47727ZM29.5778 45.568V45.213C28.468 45.213 27.4861 45.2093 26.5472 45.5447C25.5916 45.8862 24.7158 46.5629 23.7514 47.8424L24.0348 48.056L24.3182 48.2697C25.2292 47.0611 26.0011 46.4937 26.7861 46.2132C27.5879 45.9267 28.4398 45.9229 29.5778 45.9229V45.568ZM24.0348 48.056L23.7209 47.8903C23.3441 48.6039 23.1231 49.4229 23.1231 50.5241H23.478H23.8329C23.8329 49.5284 24.0302 48.8248 24.3486 48.2217L24.0348 48.056Z" fill="var(--stroke-0, #1D2939)"/>
</g>
<path id="Rectangle 2690" d="M76.809 42.3647C77.6065 43.9527 76.454 45.8228 74.6778 45.8228L30.242 45.8234C27.5846 45.8234 25.1566 44.3104 23.9846 41.924L5.25734 3.79409C4.47811 2.20741 5.63122 0.354744 7.39809 0.354628L51.412 0.355193C54.047 0.355254 56.4575 1.84276 57.6406 4.1986L76.809 42.3647Z" fill="var(--fill-0, white)" stroke="var(--stroke-0, #1D2939)" stroke-width="0.709821"/>
<path id="Rectangle 2691" d="M70.7523 23.3726C71.5554 24.961 70.4029 26.8365 68.624 26.8366L57.5239 26.8362C54.8583 26.836 52.4246 25.3147 51.2569 22.9171L49.8366 20.0009C49.0641 18.4147 50.2177 16.5683 51.9812 16.5683L63.0256 16.5691C65.654 16.5691 68.0602 18.0492 69.2467 20.3958L70.7523 23.3726Z" fill="var(--fill-0, white)" stroke="var(--stroke-0, #1D2939)" stroke-width="0.709821"/>
<path id="Rectangle 2692" d="M58.8453 21.3457C59.313 22.2707 58.6424 23.3633 57.6065 23.3634C56.182 23.3633 54.8812 22.5499 54.257 21.2687L54.1594 21.0674C53.7098 20.1444 54.3807 19.0703 55.4069 19.0703C56.8102 19.0704 58.095 19.861 58.7285 21.1139L58.8453 21.3457Z" fill="var(--fill-0, #FFDD33)" stroke="var(--stroke-0, #1D2939)" stroke-width="0.709821"/>
</g>
</svg>
