<svg preserveAspectRatio="none" width="100%" height="100%" overflow="visible" style="display: block;" viewBox="0 0 169.007 126.081" fill="none" xmlns="http://www.w3.org/2000/svg">
<g id="Union">
<mask id="path-1-outside-1_4429_93133" maskUnits="userSpaceOnUse" x="-0.580708" y="-0.580357" width="170" height="127" fill="black">
<rect fill="white" x="-0.580708" y="-0.580357" width="170" height="127"/>
<path fill-rule="evenodd" clip-rule="evenodd" d="M65.1316 5.06722C64.0088 2.83141 61.7207 1.41964 59.2199 1.41964H15.2063C14.3378 1.41964 13.6434 1.94536 13.3394 2.64974L13.1314 2.27231L9.67661 7.95089C9.2974 8.58629 9.4261 9.67854 9.67691 10.1869L27.7223 46.9129C27.7223 46.9129 27.9967 47.733 28.6959 48.7454L4.25858 62.8187C2.07094 64.0786 1.14643 66.4336 1.48864 68.6197V74.9496C1.1482 77.1239 2.06106 79.4692 4.23076 80.7398L74.8944 122.123C80.6514 125.495 87.7791 125.508 93.5413 122.158L164.769 80.7444C166.68 79.6331 167.618 77.6875 167.587 75.7549V67.8269C167.588 67.765 167.588 67.7031 167.587 67.6412V67.2951H167.571C167.436 65.5271 166.487 63.8126 164.725 62.8053L147.948 53.2135L160.483 38.6074C161.409 37.5283 160.97 35.8579 159.634 35.3738L155.744 33.9644L157.656 31.4539C158.518 30.3227 157.983 28.6806 156.62 28.2753L152.559 27.0667L154.52 24.1385C155.311 22.9569 154.677 21.3505 153.293 21.0287L115.625 12.2733C112.96 11.6538 110.187 12.7411 108.651 15.0075L100.965 26.3517L93.4323 22.0448C88.2767 19.0971 82.057 18.8191 76.7068 21.2082C75.6674 19.2007 73.6821 17.8741 71.4576 17.6632L65.1316 5.06722Z"/>
</mask>
<path fill-rule="evenodd" clip-rule="evenodd" d="M65.1316 5.06722C64.0088 2.83141 61.7207 1.41964 59.2199 1.41964H15.2063C14.3378 1.41964 13.6434 1.94536 13.3394 2.64974L13.1314 2.27231L9.67661 7.95089C9.2974 8.58629 9.4261 9.67854 9.67691 10.1869L27.7223 46.9129C27.7223 46.9129 27.9967 47.733 28.6959 48.7454L4.25858 62.8187C2.07094 64.0786 1.14643 66.4336 1.48864 68.6197V74.9496C1.1482 77.1239 2.06106 79.4692 4.23076 80.7398L74.8944 122.123C80.6514 125.495 87.7791 125.508 93.5413 122.158L164.769 80.7444C166.68 79.6331 167.618 77.6875 167.587 75.7549V67.8269C167.588 67.765 167.588 67.7031 167.587 67.6412V67.2951H167.571C167.436 65.5271 166.487 63.8126 164.725 62.8053L147.948 53.2135L160.483 38.6074C161.409 37.5283 160.97 35.8579 159.634 35.3738L155.744 33.9644L157.656 31.4539C158.518 30.3227 157.983 28.6806 156.62 28.2753L152.559 27.0667L154.52 24.1385C155.311 22.9569 154.677 21.3505 153.293 21.0287L115.625 12.2733C112.96 11.6538 110.187 12.7411 108.651 15.0075L100.965 26.3517L93.4323 22.0448C88.2767 19.0971 82.057 18.8191 76.7068 21.2082C75.6674 19.2007 73.6821 17.8741 71.4576 17.6632L65.1316 5.06722Z" fill="white"/>
<path d="M65.1316 5.06722L63.863 5.70436V5.70436L65.1316 5.06722ZM13.3394 2.64974L12.0961 3.33497C12.3576 3.80951 12.8664 4.0938 13.4076 4.06774C13.9488 4.04169 14.428 3.70985 14.6428 3.21239L13.3394 2.64974ZM13.1314 2.27231L14.3747 1.58708C14.1302 1.14357 13.6681 0.863846 13.1618 0.852997C12.6555 0.842147 12.1817 1.10182 11.9185 1.53445L13.1314 2.27231ZM9.67661 7.95089L8.46374 7.213L8.45756 7.22335L9.67661 7.95089ZM9.67691 10.1869L10.9511 9.56081L10.95 9.55868L9.67691 10.1869ZM27.7223 46.9129L29.0685 46.4624C29.0484 46.4023 29.0243 46.3437 28.9964 46.2869L27.7223 46.9129ZM28.6959 48.7454L29.4044 49.9756C29.7482 49.7776 29.9935 49.4448 30.0808 49.0579C30.1681 48.6709 30.0895 48.265 29.8641 47.9386L28.6959 48.7454ZM4.25858 62.8187L4.96705 64.0489H4.96706L4.25858 62.8187ZM1.48864 68.6197H2.90828C2.90828 68.5462 2.90257 68.4728 2.8912 68.4001L1.48864 68.6197ZM1.48864 74.9496L2.89119 75.1692C2.90257 75.0966 2.90828 75.0231 2.90828 74.9496H1.48864ZM4.23076 80.7398L3.51333 81.9649H3.51333L4.23076 80.7398ZM74.8944 122.123L75.6118 120.898V120.898L74.8944 122.123ZM93.5413 122.158L92.8277 120.931V120.931L93.5413 122.158ZM164.769 80.7444L164.055 79.5171L164.055 79.5171L164.769 80.7444ZM167.587 75.7549H166.167C166.167 75.7626 166.167 75.7702 166.167 75.7778L167.587 75.7549ZM167.587 67.8269L166.167 67.8042C166.167 67.8118 166.167 67.8194 166.167 67.8269H167.587ZM167.587 67.6412H166.167C166.167 67.6487 166.167 67.6563 166.167 67.6639L167.587 67.6412ZM167.587 67.2951H169.007C169.007 66.5111 168.371 65.8755 167.587 65.8755V67.2951ZM167.571 67.2951L166.155 67.4029C166.212 68.143 166.829 68.7147 167.571 68.7147V67.2951ZM164.725 62.8053L165.429 61.5729V61.5729L164.725 62.8053ZM147.948 53.2135L146.871 52.289C146.595 52.6103 146.477 53.038 146.549 53.4552C146.621 53.8725 146.876 54.2358 147.244 54.446L147.948 53.2135ZM160.483 38.6074L159.405 37.6829V37.6829L160.483 38.6074ZM159.634 35.3738L159.151 36.7085V36.7085L159.634 35.3738ZM155.744 33.9644L154.615 33.1043C154.341 33.4636 154.255 33.9318 154.382 34.3651C154.51 34.7984 154.836 35.1452 155.261 35.2991L155.744 33.9644ZM157.656 31.4539L158.786 32.314V32.314L157.656 31.4539ZM156.62 28.2753L156.215 29.636V29.636L156.62 28.2753ZM152.559 27.0667L151.38 26.2769C151.129 26.6518 151.071 27.1235 151.224 27.5479C151.377 27.9723 151.722 28.2988 152.154 28.4274L152.559 27.0667ZM154.52 24.1385L153.34 23.3487V23.3487L154.52 24.1385ZM153.293 21.0287L153.614 19.6459V19.6459L153.293 21.0287ZM115.625 12.2733L115.304 13.6561V13.6561L115.625 12.2733ZM108.651 15.0075L107.476 14.2112V14.2112L108.651 15.0075ZM100.965 26.3517L100.261 27.5841C100.905 27.9525 101.724 27.7624 102.141 27.148L100.965 26.3517ZM93.4323 22.0448L94.1369 20.8123H94.1369L93.4323 22.0448ZM76.7068 21.2082L75.4461 21.8609C75.792 22.5289 76.5988 22.8112 77.2856 22.5045L76.7068 21.2082ZM71.4576 17.6632L70.1889 18.3003C70.4083 18.7371 70.837 19.0304 71.3236 19.0765L71.4576 17.6632ZM59.2199 1.41964V2.83929C61.1836 2.83929 62.9809 3.94798 63.863 5.70436L65.1316 5.06722L66.4003 4.43009C65.0366 1.71484 62.2578 0 59.2199 0V1.41964ZM15.2063 1.41964V2.83929H59.2199V1.41964V0H15.2063V1.41964ZM13.3394 2.64974L14.6428 3.21239C14.7399 2.98743 14.9474 2.83929 15.2063 2.83929V1.41964V0C13.7282 0 12.547 0.903295 12.036 2.0871L13.3394 2.64974ZM13.1314 2.27231L11.888 2.95754L12.0961 3.33497L13.3394 2.64974L14.5827 1.96451L14.3747 1.58708L13.1314 2.27231ZM9.67661 7.95089L10.8894 8.68875L14.3442 3.01018L13.1314 2.27231L11.9185 1.53445L8.46378 7.21302L9.67661 7.95089ZM9.67691 10.1869L10.95 9.55868C10.9516 9.56191 10.9454 9.54964 10.9351 9.51897C10.9252 9.48933 10.9137 9.44951 10.9027 9.40037C10.8801 9.30044 10.8638 9.18242 10.8591 9.06154C10.8543 8.93953 10.8623 8.8355 10.8769 8.75778C10.892 8.67684 10.9078 8.65805 10.8957 8.67842L9.67661 7.95089L8.45756 7.22335C8.06873 7.87487 8.00064 8.62255 8.02192 9.17151C8.04362 9.73127 8.16859 10.3383 8.40382 10.815L9.67691 10.1869ZM27.7223 46.9129L28.9964 46.2869L10.9511 9.56081L9.67691 10.1869L8.40277 10.8129L26.4481 47.539L27.7223 46.9129ZM28.6959 48.7454L29.8641 47.9386C29.5662 47.5073 29.3603 47.119 29.2314 46.8451C29.1672 46.7086 29.1228 46.6021 29.0962 46.5349C29.083 46.5013 29.0742 46.4777 29.0696 46.4651C29.0674 46.4589 29.0662 46.4554 29.066 46.4549C29.0659 46.4547 29.0661 46.4551 29.0665 46.4564C29.0667 46.457 29.067 46.4578 29.0673 46.4588C29.0675 46.4593 29.0677 46.4599 29.0679 46.4605C29.068 46.4608 29.0681 46.4611 29.0682 46.4614C29.0682 46.4615 29.0683 46.4618 29.0683 46.4619C29.0684 46.4621 29.0685 46.4624 27.7223 46.9129C26.376 47.3635 26.3761 47.3638 26.3762 47.364C26.3762 47.3641 26.3763 47.3644 26.3764 47.3646C26.3765 47.3649 26.3766 47.3653 26.3768 47.3657C26.377 47.3665 26.3773 47.3674 26.3776 47.3683C26.3782 47.3701 26.3789 47.3721 26.3797 47.3743C26.3812 47.3787 26.383 47.3839 26.385 47.3899C26.3892 47.4019 26.3946 47.417 26.4012 47.4352C26.4144 47.4715 26.4325 47.5198 26.4559 47.5789C26.5026 47.6971 26.5705 47.8589 26.6624 48.054C26.8455 48.4432 27.1265 48.9711 27.5278 49.5522L28.6959 48.7454ZM4.25858 62.8187L4.96706 64.0489L29.4044 49.9756L28.6959 48.7454L27.9875 47.5152L3.5501 61.5885L4.25858 62.8187ZM1.48864 68.6197L2.8912 68.4001C2.63219 66.7456 3.32992 64.9918 4.96705 64.0489L4.25858 62.8187L3.5501 61.5885C0.811954 63.1654 -0.339337 66.1217 0.086076 68.8393L1.48864 68.6197ZM1.48864 74.9496H2.90828V68.6197H1.48864H0.0689954V74.9496H1.48864ZM4.23076 80.7398L4.94818 79.5148C3.32221 78.5626 2.63363 76.8143 2.89119 75.1692L1.48864 74.9496L0.0860827 74.73C-0.33722 77.4336 0.799922 80.3758 3.51333 81.9649L4.23076 80.7398ZM74.8944 122.123L75.6118 120.898L4.94818 79.5148L4.23076 80.7398L3.51333 81.9649L74.1769 123.348L74.8944 122.123ZM93.5413 122.158L92.8277 120.931C87.5086 124.023 80.9276 124.012 75.6118 120.898L74.8944 122.123L74.1769 123.348C80.3752 126.978 88.0497 126.993 94.2549 123.385L93.5413 122.158ZM164.769 80.7444L164.055 79.5171L92.8277 120.931L93.5413 122.158L94.2549 123.385L165.482 81.9716L164.769 80.7444ZM167.587 75.7549L166.167 75.7778C166.191 77.2358 165.489 78.6833 164.055 79.5171L164.769 80.7444L165.482 81.9717C167.871 80.583 169.045 78.1391 169.006 75.732L167.587 75.7549ZM167.587 67.8269H166.167V75.7549H167.587H169.007V67.8269H167.587ZM167.587 67.6412L166.167 67.6639C166.168 67.7107 166.168 67.7574 166.167 67.8042L167.587 67.8269L169.006 67.8497C169.008 67.7726 169.008 67.6955 169.006 67.6184L167.587 67.6412ZM167.587 67.2951H166.167V67.6412H167.587H169.007V67.2951H167.587ZM167.571 67.2951V68.7147H167.587V67.2951V65.8755H167.571V67.2951ZM164.725 62.8053L164.02 64.0377C165.346 64.7959 166.054 66.0727 166.155 67.4029L167.571 67.2951L168.986 67.1873C168.818 64.9814 167.627 62.8293 165.429 61.5729L164.725 62.8053ZM147.948 53.2135L147.244 54.446L164.02 64.0378L164.725 62.8053L165.429 61.5729L148.653 51.9811L147.948 53.2135ZM160.483 38.6074L159.405 37.6829L146.871 52.289L147.948 53.2135L149.026 54.138L161.56 39.5319L160.483 38.6074ZM159.634 35.3738L159.151 36.7085C159.552 36.854 159.685 37.3563 159.405 37.6829L160.483 38.6074L161.56 39.5319C163.132 37.7004 162.389 34.8619 160.118 34.039L159.634 35.3738ZM155.744 33.9644L155.261 35.2991L159.151 36.7085L159.634 35.3738L160.118 34.039L156.228 32.6296L155.744 33.9644ZM157.656 31.4539L156.527 30.5938L154.615 33.1043L155.744 33.9644L156.874 34.8245L158.786 32.314L157.656 31.4539ZM156.62 28.2753L156.215 29.636C156.625 29.7578 156.787 30.2515 156.527 30.5938L157.656 31.4539L158.786 32.314C160.248 30.3938 159.34 27.6035 157.025 26.9146L156.62 28.2753ZM152.559 27.0667L152.154 28.4274L156.215 29.636L156.62 28.2753L157.025 26.9146L152.964 25.7061L152.559 27.0667ZM152.559 27.0667L153.739 27.8566L155.699 24.9283L154.52 24.1385L153.34 23.3487L151.38 26.2769L152.559 27.0667ZM154.52 24.1385L155.699 24.9283C157.042 22.9227 155.967 20.1928 153.614 19.6459L153.293 21.0287L152.971 22.4115C153.387 22.5082 153.58 22.9911 153.34 23.3487L154.52 24.1385ZM153.293 21.0287L153.614 19.6459L115.947 10.8906L115.625 12.2733L115.304 13.6561L152.971 22.4115L153.293 21.0287ZM115.625 12.2733L115.947 10.8906C112.709 10.138 109.341 11.4588 107.476 14.2112L108.651 15.0075L109.827 15.8039C111.033 14.0234 113.211 13.1697 115.304 13.6561L115.625 12.2733ZM108.651 15.0075L107.476 14.2112L99.79 25.5554L100.965 26.3517L102.141 27.148L109.827 15.8039L108.651 15.0075ZM93.4323 22.0448L92.7277 23.2772L100.261 27.5841L100.965 26.3517L101.67 25.1192L94.1369 20.8123L93.4323 22.0448ZM76.7068 21.2082L77.2856 22.5045C82.2245 20.299 87.9673 20.5556 92.7277 23.2772L93.4323 22.0448L94.1369 20.8123C88.586 17.6387 81.8894 17.3392 76.1279 19.9119L76.7068 21.2082ZM71.4576 17.6632L71.3236 19.0765C73.0702 19.2421 74.6297 20.2841 75.4461 21.8609L76.7068 21.2082L77.9675 20.5554C76.705 18.1172 74.2941 16.5061 71.5916 16.2499L71.4576 17.6632ZM65.1316 5.06722L63.863 5.70436L70.1889 18.3003L71.4576 17.6632L72.7262 17.0261L66.4003 4.43009L65.1316 5.06722Z" fill="var(--stroke-0, #1D2939)" mask="url(#path-1-outside-1_4429_93133)"/>
</g>
</svg>
