<svg width="112" height="33" viewBox="0 0 112 33" fill="none" xmlns="http://www.w3.org/2000/svg">
<rect width="17.5543" height="3.69564" transform="matrix(-1 0 0 1 24.9482 7.69916)" fill="white"/>
<path d="M18.0195 11.3964H14.3239V28.9507L18.0195 32.6464V11.3964Z" fill="white"/>
<path d="M32.3369 28.9498L28.6413 32.6454L18.0163 32.6454L14.3207 28.9498L32.3369 28.9498Z" fill="#F0F0F0"/>
<path d="M28.6436 0.30835L32.3392 4.00399V28.9496L28.6436 32.6452V0.30835Z" fill="white"/>
<path d="M32.3369 4.00458L28.6413 0.308935L3.69569 0.308935L4.57764e-05 4.00458L32.3369 4.00458Z" fill="#F0F0F0"/>
<path d="M3.69922 0.30835L0.00357604 4.00399V28.9496L3.69922 32.6452V0.30835Z" fill="white"/>
<path d="M51.7738 24.1752H53.5699V32.4904H51.7738V31.293C51.0975 32.2354 50.1274 32.7065 48.8635 32.7065C47.7215 32.7065 46.7458 32.2852 45.9365 31.4426C45.1272 30.5889 44.7225 29.5523 44.7225 28.3328C44.7225 27.1021 45.1272 26.0655 45.9365 25.2229C46.7458 24.3803 47.7215 23.959 48.8635 23.959C50.1274 23.959 51.0975 24.4246 51.7738 25.3559V24.1752ZM47.2669 30.2452C47.7658 30.7442 48.3923 30.9936 49.1462 30.9936C49.9001 30.9936 50.5265 30.7442 51.0254 30.2452C51.5243 29.7352 51.7738 29.0978 51.7738 28.3328C51.7738 27.5678 51.5243 26.9358 51.0254 26.4369C50.5265 25.9269 49.9001 25.6719 49.1462 25.6719C48.3923 25.6719 47.7658 25.9269 47.2669 26.4369C46.768 26.9358 46.5186 27.5678 46.5186 28.3328C46.5186 29.0978 46.768 29.7352 47.2669 30.2452Z" fill="white"/>
<path d="M64.7435 23.959C65.6859 23.959 66.4454 24.2638 67.0219 24.8736C67.5984 25.4834 67.8867 26.3038 67.8867 27.3349V32.4904H66.0906V27.4513C66.0906 26.8748 65.9465 26.4313 65.6582 26.1209C65.3699 25.7994 64.9764 25.6386 64.4774 25.6386C63.9231 25.6386 63.4796 25.8216 63.147 26.1874C62.8255 26.5533 62.6647 27.1021 62.6647 27.8338V32.4904H60.8687V27.4513C60.8687 26.8748 60.7301 26.4313 60.4529 26.1209C60.1868 25.7994 59.8043 25.6386 59.3054 25.6386C58.7621 25.6386 58.3187 25.8271 57.975 26.2041C57.6313 26.5699 57.4594 27.1132 57.4594 27.8338V32.4904H55.6633V24.1752H57.4594V25.173C57.9916 24.3636 58.7843 23.959 59.8376 23.959C60.9019 23.959 61.6891 24.3969 62.1991 25.2728C62.7534 24.3969 63.6016 23.959 64.7435 23.959Z" fill="white"/>
<path d="M76.3946 24.1752H78.1906V32.4904H76.3946V31.293C75.7183 32.2354 74.7481 32.7065 73.4842 32.7065C72.3423 32.7065 71.3666 32.2852 70.5573 31.4426C69.7479 30.5889 69.3433 29.5523 69.3433 28.3328C69.3433 27.1021 69.7479 26.0655 70.5573 25.2229C71.3666 24.3803 72.3423 23.959 73.4842 23.959C74.7481 23.959 75.7183 24.4246 76.3946 25.3559V24.1752ZM71.8877 30.2452C72.3866 30.7442 73.013 30.9936 73.767 30.9936C74.5209 30.9936 75.1473 30.7442 75.6462 30.2452C76.1451 29.7352 76.3946 29.0978 76.3946 28.3328C76.3946 27.5678 76.1451 26.9358 75.6462 26.4369C75.1473 25.9269 74.5209 25.6719 73.767 25.6719C73.013 25.6719 72.3866 25.9269 71.8877 26.4369C71.3888 26.9358 71.1394 27.5678 71.1394 28.3328C71.1394 29.0978 71.3888 29.7352 71.8877 30.2452Z" fill="white"/>
<path d="M89.8632 24.1752H91.7591L89.1481 32.4904H87.3853L85.6557 26.8859L83.9095 32.4904H82.1467L79.5358 24.1752H81.4316L83.0448 29.9126L84.791 24.1752H86.5039L88.2335 29.9126L89.8632 24.1752Z" fill="white"/>
<path d="M99.3426 24.1752H101.139V32.4904H99.3426V31.293C98.6663 32.2354 97.6961 32.7065 96.4322 32.7065C95.2903 32.7065 94.3146 32.2852 93.5053 31.4426C92.6959 30.5889 92.2913 29.5523 92.2913 28.3328C92.2913 27.1021 92.6959 26.0655 93.5053 25.2229C94.3146 24.3803 95.2903 23.959 96.4322 23.959C97.6961 23.959 98.6663 24.4246 99.3426 25.3559V24.1752ZM94.8357 30.2452C95.3346 30.7442 95.961 30.9936 96.715 30.9936C97.4689 30.9936 98.0953 30.7442 98.5942 30.2452C99.0931 29.7352 99.3426 29.0978 99.3426 28.3328C99.3426 27.5678 99.0931 26.9358 98.5942 26.4369C98.0953 25.9269 97.4689 25.6719 96.715 25.6719C95.961 25.6719 95.3346 25.9269 94.8357 26.4369C94.3368 26.9358 94.0874 27.5678 94.0874 28.3328C94.0874 29.0978 94.3368 29.7352 94.8357 30.2452Z" fill="white"/>
<path d="M103.194 32.4904V20.8644L105.042 20.3255V32.4815L103.194 32.4904Z" fill="white"/>
<path d="M45.5718 20.9414V22.7469H42.3634V32.4309H40.4904V22.7469H37.2656V20.9414H45.5718Z" fill="white"/>
<path d="M103.194 4.00153H105.042V5.54138L103.194 6.08033V4.00153Z" fill="white"/>
<path d="M99.8047 4.00153H101.653V5.54138L99.8047 6.08033V4.00153Z" fill="white"/>
<path fill-rule="evenodd" clip-rule="evenodd" d="M103.194 12.7809V7.93037L105.042 7.39142V12.7809C105.042 13.9715 104.077 14.9367 102.886 14.9367H99.9316C99.3598 14.9367 98.8115 14.7096 98.4072 14.3053L97.5361 13.4342L98.8427 12.1276L99.7138 12.9987C99.7716 13.0564 99.8499 13.0889 99.9316 13.0889H102.886C103.056 13.0889 103.194 12.951 103.194 12.7809Z" fill="white"/>
<path fill-rule="evenodd" clip-rule="evenodd" d="M52.6873 15.2415V14.0096H54.5351V15.2415C54.5351 17.1125 53.0184 18.6292 51.1474 18.6292H48.2987L47.7598 16.7814H51.1474C51.9979 16.7814 52.6873 16.092 52.6873 15.2415Z" fill="white"/>
<path fill-rule="evenodd" clip-rule="evenodd" d="M43.7547 14.5637V0.307556H45.6025V14.5637C45.6025 16.8104 43.7811 18.6318 41.5344 18.6318C40.1574 18.6318 38.8739 17.9352 38.1235 16.7807L37.9931 16.5802C37.2448 15.429 37.0619 13.9996 37.496 12.6971L38.4422 10.1626H40.3671L39.249 13.2814C38.9928 14.0501 39.1008 14.8937 39.5424 15.5731L39.6728 15.7737C40.0823 16.4038 40.7828 16.784 41.5344 16.784C42.7606 16.784 43.7547 15.7899 43.7547 14.5637Z" fill="white"/>
<path fill-rule="evenodd" clip-rule="evenodd" d="M92.3661 12.1353L91.5321 12.9937C91.4741 13.0534 91.3944 13.0871 91.3112 13.0871H53.4546V14.9349H91.3112C91.8938 14.9349 92.4515 14.6992 92.8574 14.2813L93.6914 13.4229L92.3661 12.1353Z" fill="white"/>
<rect x="99.8047" y="0.307556" width="5.23549" height="1.84782" fill="white"/>
<path fill-rule="evenodd" clip-rule="evenodd" d="M49.2842 0.307556V1.9244C49.2842 2.25025 49.5614 2.46198 49.8386 2.46198C50.1157 2.46198 50.3929 2.25025 50.3929 1.9244V0.731015L51.9174 0.307556V1.9244C51.9174 3.07882 50.9484 4.01467 49.8386 4.01467C48.7287 4.01467 47.7598 3.07882 47.7598 1.9244V0.307556H49.2842Z" fill="white"/>
<path fill-rule="evenodd" clip-rule="evenodd" d="M51.8995 0.307556L51.8995 1.92577C51.8995 2.25162 52.1673 2.46335 52.4538 2.46335C52.7403 2.46335 53.0081 2.25162 53.0081 1.92577L53.0082 0.731015L54.5326 0.307556L54.5326 1.92577C54.5326 3.08019 53.5636 4.01603 52.4538 4.01603C51.344 4.01603 50.375 3.08019 50.375 1.92577L50.3751 0.731015L51.8995 0.307556Z" fill="white"/>
<path fill-rule="evenodd" clip-rule="evenodd" d="M92.2598 10.4698C92.2598 8.5988 93.7765 7.08209 95.6474 7.08209C97.5184 7.08209 99.0351 8.5988 99.0351 10.4698V11.5477C99.0351 13.4186 97.5184 14.9353 95.6474 14.9353C93.7765 14.9353 92.2598 13.4186 92.2598 11.5477V10.4698ZM95.6474 8.92991C94.797 8.92991 94.1076 9.61933 94.1076 10.4698V11.5477C94.1076 12.3981 94.797 13.0875 95.6474 13.0875C96.4979 13.0875 97.1873 12.3981 97.1873 11.5477V10.4698C97.1873 9.61933 96.4979 8.92991 95.6474 8.92991Z" fill="white"/>
<path fill-rule="evenodd" clip-rule="evenodd" d="M47.7598 10.4698C47.7598 8.5988 49.2765 7.08209 51.1474 7.08209C53.0184 7.08209 54.5351 8.5988 54.5351 10.4698V14.9353H51.1474C49.2765 14.9353 47.7598 13.4186 47.7598 11.5477V10.4698ZM51.1474 8.92991C50.297 8.92991 49.6076 9.61933 49.6076 10.4698V11.5477C49.6076 12.3981 50.297 13.0875 51.1474 13.0875H52.6873V10.4698C52.6873 9.61933 51.9979 8.92991 51.1474 8.92991Z" fill="white"/>
<path d="M39.5811 0.3078C41.1516 0.307814 42.4248 1.58101 42.4248 3.15155C42.4248 4.72205 41.1516 5.99529 39.5811 5.9953C38.0105 5.9953 36.7374 4.72205 36.7373 3.15155C36.7373 1.58101 38.0105 0.3078 39.5811 0.3078ZM39.5811 0.676941C38.2143 0.676941 37.1064 1.78475 37.1064 3.15155C37.1065 4.51831 38.2143 5.62616 39.5811 5.62616C40.9478 5.62615 42.0556 4.5183 42.0557 3.15155C42.0557 1.78476 40.9478 0.676955 39.5811 0.676941ZM39.7695 1.83905C40.0007 1.83906 40.1966 1.9199 40.3564 2.08221C40.5187 2.24205 40.5996 2.43801 40.5996 2.66913C40.5996 2.83364 40.5517 2.98471 40.4561 3.12225C40.3626 3.25752 40.2394 3.35667 40.0869 3.41815L40.6729 4.42108H40.208L39.6621 3.48065H39.1611V4.42108H38.7363V1.83905H39.7695ZM39.1611 3.10077H39.7695C39.8826 3.10075 39.9789 3.0584 40.0576 2.97479C40.136 2.89129 40.1748 2.78937 40.1748 2.66913C40.1748 2.54866 40.1363 2.44609 40.0576 2.36249C39.9789 2.27888 39.8826 2.2375 39.7695 2.23749H39.1611V3.10077Z" fill="white"/>
<path d="M108.909 19.0614C110.48 19.0614 111.753 20.3346 111.753 21.9052C111.753 23.4757 110.48 24.7489 108.909 24.7489C107.339 24.7489 106.065 23.4757 106.065 21.9052C106.065 20.3346 107.339 19.0614 108.909 19.0614ZM108.909 19.4305C107.542 19.4305 106.435 20.5384 106.435 21.9052C106.435 23.2719 107.542 24.3798 108.909 24.3798C110.276 24.3797 111.384 23.2719 111.384 21.9052C111.384 20.5384 110.276 19.4306 108.909 19.4305ZM109.096 20.5956C109.327 20.5956 109.522 20.6766 109.682 20.8387C109.844 20.9986 109.926 21.1945 109.926 21.4257C109.926 21.5903 109.877 21.7411 109.781 21.8788C109.688 22.014 109.565 22.1132 109.413 22.1747L109.999 23.1776H109.534L108.988 22.2372H108.486V23.1776H108.062V20.5956H109.096ZM108.486 21.8573H109.096C109.209 21.8572 109.304 21.8148 109.383 21.7313C109.461 21.6478 109.501 21.5461 109.501 21.4257C109.501 21.3051 109.462 21.2026 109.383 21.119C109.304 21.0357 109.209 20.9941 109.096 20.994H108.486V21.8573Z" fill="white"/>
</svg>
