<svg width="112" height="33" viewBox="0 0 112 33" fill="none" xmlns="http://www.w3.org/2000/svg">
<rect width="17.5543" height="3.69564" transform="matrix(-1 0 0 1 24.9473 7.69916)" fill="#0063F5"/>
<path d="M18.0176 11.3964H14.3219V28.9507L18.0176 32.6464V11.3964Z" fill="#0063F5"/>
<path d="M32.3359 28.9498L28.6403 32.6454L18.0153 32.6454L14.3197 28.9498L32.3359 28.9498Z" fill="#004FC6"/>
<path d="M28.6426 0.30835L32.3382 4.00399V28.9496L28.6426 32.6452V0.30835Z" fill="#0063F5"/>
<path d="M32.3359 4.00458L28.6403 0.308935L3.69471 0.308935L-0.000929952 4.00458L32.3359 4.00458Z" fill="#004FC6"/>
<path d="M3.69727 0.30835L0.00162292 4.00399V28.9496L3.69727 32.6452V0.30835Z" fill="#0063F5"/>
<path d="M51.7718 24.1752H53.5679V32.4904H51.7718V31.293C51.0955 32.2354 50.1254 32.7065 48.8615 32.7065C47.7195 32.7065 46.7439 32.2852 45.9346 31.4426C45.1252 30.5889 44.7205 29.5523 44.7205 28.3328C44.7205 27.1021 45.1252 26.0655 45.9346 25.2229C46.7439 24.3803 47.7195 23.959 48.8615 23.959C50.1254 23.959 51.0955 24.4246 51.7718 25.3559V24.1752ZM47.265 30.2452C47.7639 30.7442 48.3903 30.9936 49.1442 30.9936C49.8981 30.9936 50.5245 30.7442 51.0235 30.2452C51.5224 29.7352 51.7718 29.0978 51.7718 28.3328C51.7718 27.5678 51.5224 26.9358 51.0235 26.4369C50.5245 25.9269 49.8981 25.6719 49.1442 25.6719C48.3903 25.6719 47.7639 25.9269 47.265 26.4369C46.7661 26.9358 46.5166 27.5678 46.5166 28.3328C46.5166 29.0978 46.7661 29.7352 47.265 30.2452Z" fill="#0063F5"/>
<path d="M64.7416 23.959C65.684 23.959 66.4434 24.2638 67.0199 24.8736C67.5965 25.4834 67.8847 26.3038 67.8847 27.3349V32.4904H66.0886V27.4513C66.0886 26.8748 65.9445 26.4313 65.6563 26.1209C65.368 25.7994 64.9744 25.6386 64.4755 25.6386C63.9211 25.6386 63.4777 25.8216 63.1451 26.1874C62.8235 26.5533 62.6628 27.1021 62.6628 27.8338V32.4904H60.8667V27.4513C60.8667 26.8748 60.7281 26.4313 60.4509 26.1209C60.1849 25.7994 59.8024 25.6386 59.3034 25.6386C58.7602 25.6386 58.3167 25.8271 57.973 26.2041C57.6293 26.5699 57.4575 27.1132 57.4575 27.8338V32.4904H55.6614V24.1752H57.4575V25.173C57.9896 24.3636 58.7824 23.959 59.8356 23.959C60.9 23.959 61.6871 24.3969 62.1971 25.2728C62.7515 24.3969 63.5996 23.959 64.7416 23.959Z" fill="#0063F5"/>
<path d="M76.3926 24.1752H78.1887V32.4904H76.3926V31.293C75.7163 32.2354 74.7462 32.7065 73.4823 32.7065C72.3403 32.7065 71.3647 32.2852 70.5553 31.4426C69.746 30.5889 69.3413 29.5523 69.3413 28.3328C69.3413 27.1021 69.746 26.0655 70.5553 25.2229C71.3647 24.3803 72.3403 23.959 73.4823 23.959C74.7462 23.959 75.7163 24.4246 76.3926 25.3559V24.1752ZM71.8858 30.2452C72.3847 30.7442 73.0111 30.9936 73.765 30.9936C74.5189 30.9936 75.1453 30.7442 75.6442 30.2452C76.1431 29.7352 76.3926 29.0978 76.3926 28.3328C76.3926 27.5678 76.1431 26.9358 75.6442 26.4369C75.1453 25.9269 74.5189 25.6719 73.765 25.6719C73.0111 25.6719 72.3847 25.9269 71.8858 26.4369C71.3869 26.9358 71.1374 27.5678 71.1374 28.3328C71.1374 29.0978 71.3869 29.7352 71.8858 30.2452Z" fill="#0063F5"/>
<path d="M89.8613 24.1752H91.7571L89.1462 32.4904H87.3834L85.6538 26.8859L83.9076 32.4904H82.1448L79.5338 24.1752H81.4297L83.0428 29.9126L84.789 24.1752H86.5019L88.2315 29.9126L89.8613 24.1752Z" fill="#0063F5"/>
<path d="M99.3406 24.1752H101.137V32.4904H99.3406V31.293C98.6643 32.2354 97.6942 32.7065 96.4303 32.7065C95.2883 32.7065 94.3127 32.2852 93.5033 31.4426C92.694 30.5889 92.2893 29.5523 92.2893 28.3328C92.2893 27.1021 92.694 26.0655 93.5033 25.2229C94.3127 24.3803 95.2883 23.959 96.4303 23.959C97.6942 23.959 98.6643 24.4246 99.3406 25.3559V24.1752ZM94.8338 30.2452C95.3327 30.7442 95.9591 30.9936 96.713 30.9936C97.4669 30.9936 98.0933 30.7442 98.5922 30.2452C99.0911 29.7352 99.3406 29.0978 99.3406 28.3328C99.3406 27.5678 99.0911 26.9358 98.5922 26.4369C98.0933 25.9269 97.4669 25.6719 96.713 25.6719C95.9591 25.6719 95.3327 25.9269 94.8338 26.4369C94.3349 26.9358 94.0854 27.5678 94.0854 28.3328C94.0854 29.0978 94.3349 29.7352 94.8338 30.2452Z" fill="#0063F5"/>
<path d="M103.192 32.4904V20.8644L105.04 20.3255V32.4815L103.192 32.4904Z" fill="#0063F5"/>
<path d="M45.5699 20.9414V22.7469H42.3614V32.4309H40.4884V22.7469H37.2637V20.9414H45.5699Z" fill="#0063F5"/>
<path d="M103.193 4.00153H105.041V5.54138L103.193 6.08033V4.00153Z" fill="#0063F5"/>
<path d="M99.8047 4.00153H101.653V5.54138L99.8047 6.08033V4.00153Z" fill="#0063F5"/>
<path fill-rule="evenodd" clip-rule="evenodd" d="M103.193 12.7809V7.93037L105.041 7.39142V12.7809C105.041 13.9715 104.076 14.9367 102.885 14.9367H99.9306C99.3589 14.9367 98.8105 14.7096 98.4062 14.3053L97.5352 13.4342L98.8418 12.1276L99.7128 12.9987C99.7706 13.0564 99.8489 13.0889 99.9306 13.0889H102.885C103.055 13.0889 103.193 12.951 103.193 12.7809Z" fill="#0063F5"/>
<path fill-rule="evenodd" clip-rule="evenodd" d="M52.6873 15.2415V14.0096H54.5351V15.2415C54.5351 17.1125 53.0184 18.6292 51.1474 18.6292H48.2987L47.7598 16.7814H51.1474C51.9979 16.7814 52.6873 16.092 52.6873 15.2415Z" fill="#0063F5"/>
<path fill-rule="evenodd" clip-rule="evenodd" d="M43.7537 14.5637V0.307556H45.6015V14.5637C45.6015 16.8104 43.7801 18.6318 41.5334 18.6318C40.1564 18.6318 38.8729 17.9352 38.1225 16.7807L37.9921 16.5802C37.2439 15.429 37.0609 13.9996 37.4951 12.6971L38.4413 10.1626H40.3661L39.2481 13.2814C38.9918 14.0501 39.0998 14.8937 39.5414 15.5731L39.6718 15.7737C40.0814 16.4038 40.7819 16.784 41.5334 16.784C42.7596 16.784 43.7537 15.7899 43.7537 14.5637Z" fill="#0063F5"/>
<path fill-rule="evenodd" clip-rule="evenodd" d="M92.3661 12.1353L91.5321 12.9937C91.4741 13.0534 91.3944 13.0871 91.3112 13.0871H53.4546V14.9349H91.3112C91.8938 14.9349 92.4515 14.6992 92.8574 14.2813L93.6914 13.4229L92.3661 12.1353Z" fill="#0063F5"/>
<rect x="99.8047" y="0.307556" width="5.23549" height="1.84782" fill="#0063F5"/>
<path fill-rule="evenodd" clip-rule="evenodd" d="M49.2842 0.307556V1.9244C49.2842 2.25025 49.5614 2.46198 49.8386 2.46198C50.1157 2.46198 50.3929 2.25025 50.3929 1.9244V0.731015L51.9174 0.307556V1.9244C51.9174 3.07882 50.9484 4.01467 49.8386 4.01467C48.7287 4.01467 47.7598 3.07882 47.7598 1.9244V0.307556H49.2842Z" fill="#0063F5"/>
<path fill-rule="evenodd" clip-rule="evenodd" d="M51.8995 0.307556L51.8995 1.92577C51.8995 2.25162 52.1673 2.46335 52.4538 2.46335C52.7403 2.46335 53.0081 2.25162 53.0081 1.92577L53.0082 0.731015L54.5326 0.307556L54.5326 1.92577C54.5326 3.08019 53.5636 4.01603 52.4538 4.01603C51.344 4.01603 50.375 3.08019 50.375 1.92577L50.3751 0.731015L51.8995 0.307556Z" fill="#0063F5"/>
<path fill-rule="evenodd" clip-rule="evenodd" d="M92.2598 10.4698C92.2598 8.5988 93.7765 7.08209 95.6474 7.08209C97.5184 7.08209 99.0351 8.5988 99.0351 10.4698V11.5477C99.0351 13.4186 97.5184 14.9353 95.6474 14.9353C93.7765 14.9353 92.2598 13.4186 92.2598 11.5477V10.4698ZM95.6474 8.92991C94.797 8.92991 94.1076 9.61933 94.1076 10.4698V11.5477C94.1076 12.3981 94.797 13.0875 95.6474 13.0875C96.4979 13.0875 97.1873 12.3981 97.1873 11.5477V10.4698C97.1873 9.61933 96.4979 8.92991 95.6474 8.92991Z" fill="#0063F5"/>
<path fill-rule="evenodd" clip-rule="evenodd" d="M47.7598 10.4698C47.7598 8.5988 49.2765 7.08209 51.1474 7.08209C53.0184 7.08209 54.5351 8.5988 54.5351 10.4698V14.9353H51.1474C49.2765 14.9353 47.7598 13.4186 47.7598 11.5477V10.4698ZM51.1474 8.92991C50.297 8.92991 49.6076 9.61933 49.6076 10.4698V11.5477C49.6076 12.3981 50.297 13.0875 51.1474 13.0875H52.6873V10.4698C52.6873 9.61933 51.9979 8.92991 51.1474 8.92991Z" fill="#0063F5"/>
<path d="M39.5801 0.3078C41.1506 0.307814 42.4238 1.58101 42.4238 3.15155C42.4238 4.72205 41.1506 5.99529 39.5801 5.9953C38.0096 5.9953 36.7364 4.72205 36.7363 3.15155C36.7363 1.58101 38.0095 0.3078 39.5801 0.3078ZM39.5801 0.676941C38.2133 0.676941 37.1055 1.78475 37.1055 3.15155C37.1055 4.51831 38.2133 5.62616 39.5801 5.62616C40.9468 5.62615 42.0546 4.5183 42.0547 3.15155C42.0547 1.78476 40.9469 0.676955 39.5801 0.676941ZM39.7686 1.83905C39.9997 1.83906 40.1956 1.9199 40.3555 2.08221C40.5177 2.24205 40.5986 2.43801 40.5986 2.66913C40.5986 2.83364 40.5507 2.98471 40.4551 3.12225C40.3616 3.25752 40.2384 3.35667 40.0859 3.41815L40.6719 4.42108H40.207L39.6611 3.48065H39.1602V4.42108H38.7354V1.83905H39.7686ZM39.1602 3.10077H39.7686C39.8817 3.10075 39.978 3.0584 40.0566 2.97479C40.1351 2.89129 40.1738 2.78937 40.1738 2.66913C40.1738 2.54866 40.1353 2.44609 40.0566 2.36249C39.978 2.27888 39.8817 2.2375 39.7686 2.23749H39.1602V3.10077Z" fill="#0063F5"/>
<path d="M108.908 19.0614C110.479 19.0614 111.752 20.3346 111.752 21.9052C111.752 23.4757 110.479 24.7489 108.908 24.7489C107.338 24.7489 106.064 23.4757 106.064 21.9052C106.064 20.3346 107.338 19.0614 108.908 19.0614ZM108.908 19.4305C107.541 19.4305 106.434 20.5384 106.434 21.9052C106.434 23.2719 107.541 24.3798 108.908 24.3798C110.275 24.3797 111.383 23.2719 111.383 21.9052C111.383 20.5384 110.275 19.4306 108.908 19.4305ZM109.095 20.5956C109.326 20.5956 109.521 20.6766 109.681 20.8387C109.843 20.9986 109.925 21.1945 109.925 21.4257C109.925 21.5903 109.876 21.7411 109.78 21.8788C109.687 22.014 109.565 22.1132 109.412 22.1747L109.998 23.1776H109.533L108.987 22.2372H108.485V23.1776H108.062V20.5956H109.095ZM108.485 21.8573H109.095C109.208 21.8572 109.303 21.8148 109.382 21.7313C109.46 21.6478 109.5 21.5461 109.5 21.4257C109.5 21.3051 109.461 21.2026 109.382 21.119C109.303 21.0357 109.208 20.9941 109.095 20.994H108.485V21.8573Z" fill="#0063F5"/>
</svg>
