<svg width="188" height="194" viewBox="0 0 188 194" fill="none" xmlns="http://www.w3.org/2000/svg">
<path d="M82.8116 85.8781C88.5001 82.598 95.5064 82.5856 101.21 85.8455L170.791 125.614C174.588 127.784 174.612 133.245 170.834 135.444L101.25 175.953C95.492 179.305 88.3709 179.295 82.6185 175.927L13.6547 135.552C9.89428 133.35 9.91005 127.915 13.6831 125.739L82.8116 85.8781Z" fill="#FFDD33"/>
<mask id="path-2-outside-1_10160_1100" maskUnits="userSpaceOnUse" x="7.23035" y="58.8348" width="170" height="109" fill="black">
<rect fill="white" x="7.23035" y="58.8348" width="170" height="109"/>
<path d="M82.827 63.2997C88.5197 60.0214 95.5328 60.0126 101.241 63.2762L172.533 104.037C174.295 105.044 175.243 106.758 175.378 108.526H175.395V108.911C175.396 108.932 175.395 108.953 175.395 108.974V117.025C175.413 118.945 174.475 120.872 172.577 121.975L101.349 163.39C95.5874 166.74 88.4599 166.726 82.703 163.354L12.0389 121.972C9.8759 120.705 8.96491 118.37 9.29675 116.201V109.828C8.96444 107.648 9.88718 105.305 12.0673 104.05L82.827 63.2997Z"/>
</mask>
<path d="M82.827 63.2997C88.5197 60.0214 95.5328 60.0126 101.241 63.2762L172.533 104.037C174.295 105.044 175.243 106.758 175.378 108.526H175.395V108.911C175.396 108.932 175.395 108.953 175.395 108.974V117.025C175.413 118.945 174.475 120.872 172.577 121.975L101.349 163.39C95.5874 166.74 88.4599 166.726 82.703 163.354L12.0389 121.972C9.8759 120.705 8.96491 118.37 9.29675 116.201V109.828C8.96444 107.648 9.88718 105.305 12.0673 104.05L82.827 63.2997Z" fill="white"/>
<path d="M82.827 63.2997L82.1186 62.0695L82.1186 62.0695L82.827 63.2997ZM101.241 63.2762L101.946 62.0438L101.946 62.0438L101.241 63.2762ZM172.533 104.037L171.828 105.269L171.828 105.269L172.533 104.037ZM175.378 108.526L173.962 108.634L174.062 109.946H175.378V108.526ZM175.395 108.526H176.815V107.107H175.395V108.526ZM175.395 108.911H173.976L173.976 108.924L175.395 108.911ZM175.395 108.974L173.976 108.972V108.974H175.395ZM175.395 117.025H173.976L173.976 117.039L175.395 117.025ZM172.577 121.975L171.863 120.748V120.748L172.577 121.975ZM101.349 163.39L102.063 164.617L102.063 164.617L101.349 163.39ZM82.703 163.354L83.4204 162.129L83.4204 162.129L82.703 163.354ZM12.0389 121.972L11.3215 123.197L11.3215 123.197L12.0389 121.972ZM9.29675 116.201L10.7001 116.416L10.7164 116.309V116.201H9.29675ZM9.29675 109.828H10.7164V109.72L10.7002 109.614L9.29675 109.828ZM12.0673 104.05L11.3588 102.819L11.3588 102.819L12.0673 104.05ZM82.827 63.2997L83.5355 64.5299C88.7904 61.5037 95.2656 61.4951 100.536 64.5087L101.241 63.2762L101.946 62.0438C95.8 58.5301 88.249 58.5391 82.1186 62.0695L82.827 63.2997ZM101.241 63.2762L100.536 64.5087L171.828 105.269L172.533 104.037L173.238 102.805L101.946 62.0438L101.241 63.2762ZM172.533 104.037L171.828 105.269C173.154 106.027 173.861 107.303 173.962 108.634L175.378 108.526L176.793 108.418C176.625 106.213 175.436 104.061 173.238 102.805L172.533 104.037ZM175.378 108.526V109.946H175.395V108.526V107.107H175.378V108.526ZM175.395 108.526H173.976V108.911H175.395H176.815V108.526H175.395ZM175.395 108.911L173.976 108.924C173.976 108.935 173.976 108.939 173.976 108.972L175.395 108.974L176.815 108.977C176.815 108.967 176.815 108.929 176.815 108.898L175.395 108.911ZM175.395 108.974H173.976V117.025H175.395H176.815V108.974H175.395ZM175.395 117.025L173.976 117.039C173.989 118.487 173.288 119.92 171.863 120.748L172.577 121.975L173.291 123.203C175.663 121.824 176.837 119.403 176.815 117.012L175.395 117.025ZM172.577 121.975L171.863 120.748L100.636 162.162L101.349 163.39L102.063 164.617L173.291 123.203L172.577 121.975ZM101.349 163.39L100.636 162.162C95.317 165.255 88.7362 165.242 83.4204 162.129L82.703 163.354L81.9856 164.579C88.1836 168.209 95.8579 168.224 102.063 164.617L101.349 163.39ZM82.703 163.354L83.4204 162.129L12.7564 120.747L12.0389 121.972L11.3215 123.197L81.9856 164.579L82.703 163.354ZM12.0389 121.972L12.7564 120.747C11.1365 119.798 10.4488 118.058 10.7001 116.416L9.29675 116.201L7.89344 115.986C7.48102 118.682 8.61535 121.612 11.3215 123.197L12.0389 121.972ZM9.29675 116.201H10.7164V109.828H9.29675H7.87711V116.201H9.29675ZM9.29675 109.828L10.7002 109.614C10.4485 107.963 11.1453 106.219 12.7757 105.28L12.0673 104.05L11.3588 102.819C8.62905 104.391 7.48042 107.334 7.89333 110.042L9.29675 109.828ZM12.0673 104.05L12.7757 105.28L83.5355 64.5299L82.827 63.2997L82.1186 62.0695L11.3588 102.819L12.0673 104.05Z" fill="#1D2939" mask="url(#path-2-outside-1_10160_1100)"/>
<mask id="mask0_10160_1100" style="mask-type:alpha" maskUnits="userSpaceOnUse" x="9" y="60" width="84" height="107">
<rect x="9.22791" y="60.5399" width="83.0491" height="105.763" fill="#D0D8DC"/>
</mask>
<g mask="url(#mask0_10160_1100)">
<path d="M82.7587 71.414C88.4513 68.1357 95.4642 68.1266 101.173 71.3903L172.465 112.151C176.263 114.322 176.287 119.779 172.509 121.976L101.282 163.389C95.5194 166.739 88.3916 166.726 82.6346 163.355L11.971 121.971C8.21004 119.769 8.22546 114.337 11.9988 112.164L82.7587 71.414Z" fill="#D0D5DD"/>
<path d="M82.7586 63.3C88.4513 60.0216 95.4642 60.0126 101.172 63.2762L172.465 104.037C176.262 106.208 176.287 111.665 172.509 113.862L101.281 155.275C95.5193 158.625 88.3916 158.612 82.6346 155.241L11.971 113.857C8.21003 111.655 8.22544 106.223 11.9988 104.05L82.7586 63.3Z" fill="#D0D5DD"/>
<rect x="9.22925" y="108.526" width="166.098" height="8.51786" fill="#D0D5DD"/>
</g>
<path d="M172.64 103.608C176.674 105.914 176.699 111.717 172.686 114.053L101.423 155.539C95.5539 158.956 88.2953 158.946 82.4323 155.513L11.8031 114.162C7.80773 111.823 7.82464 106.048 11.8335 103.736L82.629 62.9144C88.4269 59.5712 95.568 59.5579 101.381 62.8804L172.64 103.608Z" fill="white" stroke="#1D2939" stroke-width="0.709821"/>
<path d="M68.7035 131.792L104.567 125.575C104.854 125.525 105.147 125.52 105.436 125.56C108.321 125.953 109.861 122.27 107.554 120.493L62.2773 85.6071C57.8491 82.1951 51.8307 81.6996 46.904 84.3414L23.7792 96.7411L11.7147 104.149C8.0384 106.407 8.12267 111.777 11.868 113.918L40.2261 130.129C42.3716 131.355 44.8001 132 47.2714 132H66.2789C67.0916 132 67.9028 131.93 68.7035 131.792Z" fill="#D0D5DD"/>
<path d="M44.5648 38.0119C37.067 42.9097 33.0333 52.0849 32.2961 56.663C31.5725 56.7392 31.7567 65.2995 33.3253 73.3815C35.8856 86.5734 42.1925 107.897 45.0262 116.91C51.6244 131.06 63.3486 133.005 68.386 132.208C81.6435 130.945 110.005 128.144 117.392 127.047C126.625 125.675 130.056 120.991 138.244 112.214C144.793 105.192 141.313 88.9447 138.754 81.6986L126.977 41.2375C123.002 31.2806 114.523 28.4491 103.593 28.8686C94.8496 29.2042 67.5424 32.444 55.6835 33.9369C54.8618 33.7131 49.9059 34.5229 44.5648 38.0119Z" fill="#003788" stroke="black" stroke-width="0.134718"/>
<path d="M59.5951 115.649L50.5491 125.115C52.236 127.492 55.9307 129.692 57.5671 130.495C62.9709 132.799 68.5595 132.353 70.6783 131.841L119.684 126.68C125.431 126.181 134.048 117.186 137.638 112.751C135.547 114.62 130.277 115.898 127.903 116.303C112.123 118.874 78.8616 123.783 72.0592 122.85C65.2567 121.917 60.9155 117.661 59.5951 115.649Z" fill="black" stroke="black" stroke-width="0.134718"/>
<path d="M116.873 127.17L129.609 116.118C134.531 114.855 137.264 113.228 138.015 112.573C135.628 115.374 129.967 121.534 126.425 123.77C122.882 126.005 118.581 126.968 116.873 127.17Z" fill="#003788" stroke="black" stroke-width="0.134718"/>
<path d="M41.0489 53.2781L32.6021 67.8021C31.832 64.5312 31.8792 59.2542 31.9991 57.0246C33.7407 46.7849 40.3523 40.5594 43.4404 38.7266C39.9757 41.6987 40.4024 49.666 41.0489 53.2781Z" fill="#3587FF" stroke="black" stroke-width="0.134718"/>
<path d="M55.4044 110.028L46.5696 119.604L45.1154 117.164L54.1995 107.428C54.4211 108.522 55.0951 109.617 55.4044 110.028Z" fill="black" stroke="black" stroke-width="0.134718"/>
<path d="M44.5669 38.0115C41.3069 40.3517 40.202 45.1886 40.874 51.5693C41.546 57.9499 42.5467 61.6356 44.1153 69.7176C46.6756 82.9094 50.8366 97.5423 54.5664 108.323C61.1646 122.473 72.7987 123.562 77.8361 122.766C91.0936 121.503 109.381 119.031 116.767 117.934C126.001 116.562 134.265 116.091 138.246 112.213C145.124 105.513 141.315 88.9443 138.756 81.6982L126.979 41.2371C123.004 31.2802 114.525 28.4487 103.596 28.8682C94.8516 29.2038 69.4332 31.9168 57.5744 33.4096C53.0045 33.9849 48.0625 35.5022 44.5669 38.0115Z" fill="#0063F5" stroke="black" stroke-width="0.134718"/>
<path d="M51.2445 40.9994C48.3487 43.085 47.3686 47.3977 47.9678 53.0875C48.5671 58.7773 49.4575 62.0641 50.8539 69.2712C53.1332 81.0352 56.8354 94.0845 60.153 103.699C66.0204 116.319 76.358 117.294 80.8335 116.585C92.6128 115.463 108.86 113.266 115.423 112.29C123.627 111.07 130.97 110.652 134.505 107.196C140.615 101.224 137.225 86.4483 134.949 79.9862L124.471 43.9034C120.936 35.0237 113.401 32.496 103.69 32.8663C95.9207 33.1626 73.3368 35.5732 62.8004 36.9003C58.7401 37.4118 54.3496 38.763 51.2445 40.9994Z" fill="white" stroke="black" stroke-width="0.134718"/>
<path d="M115.034 13.7541C115.834 15.3541 117.034 15.4208 117.534 15.2541C118.734 14.8542 119.034 13.4208 119.034 12.7541L117.534 1.75395C117.534 1.25391 116.334 -0.0458537 113.534 0.754146C110.734 1.55415 110.367 2.75415 110.534 3.25415C111.7 6.08748 114.234 12.1541 115.034 13.7541Z" fill="#FAD932" stroke="black"/>
<path d="M124.374 12.8851C123.976 14.0192 124.505 14.6291 124.82 14.7923C125.574 15.184 126.405 14.6583 126.727 14.3465L131.33 8.47874C131.572 8.24488 131.637 7.0583 129.942 6.08206C128.247 5.10582 127.497 5.49018 127.333 5.80439C126.512 7.69209 124.771 11.751 124.374 12.8851Z" fill="#FAD932" stroke="black"/>
<path d="M110.406 20.8999C111.694 21.3219 112.461 20.881 112.683 20.6078C113.096 19.8207 112.613 18.9039 112.152 18.4737C110.692 17.1114 107.631 14.5025 106.95 14.0027C106.098 13.3779 105.37 13.7159 104.038 15.3549C102.972 16.6662 103.462 17.5494 103.841 17.8271C105.492 18.6755 109.118 20.4779 110.406 20.8999Z" fill="#FAD932" stroke="black"/>
<path d="M62.5338 39.5257C57.3338 40.3257 54.3671 41.859 53.5338 42.5257C50.7338 44.1256 50.3671 47.1924 50.5338 48.5259C50.8671 50.8592 51.9338 57.1259 53.5338 63.5259C55.1338 69.9259 59.5338 71.5259 61.5338 71.5259C65.8671 71.3592 75.7338 70.5259 80.5338 68.5259C85.3338 66.5259 85.2005 60.6925 84.5338 58.0259C83.8671 54.3592 82.1338 46.1257 80.5338 42.5257C78.9338 38.9257 74.5338 38.359 72.5338 38.5257C71.3671 38.5257 67.7338 38.7257 62.5338 39.5257Z" fill="#1EB180" stroke="black"/>
<path d="M62.1534 53.6174C62.9056 53.3451 65.0282 54.7036 65.9955 55.4169C67.9355 52.942 71.9694 47.83 72.5855 47.1815C73.3555 46.371 75.2361 45.6901 76.8572 47.2302C78.1542 48.4622 78.0785 49.6241 77.8786 50.051C75.2253 53.4932 69.7047 60.6678 68.8487 61.8286C67.9927 62.9893 66.9249 62.8796 66.498 62.6797C65.3173 61.8664 62.5376 59.9658 60.8646 58.8699C59.1915 57.774 59.6865 56.1059 60.1432 55.4088C60.4998 54.9251 61.4012 53.8898 62.1534 53.6174Z" fill="white" stroke="black"/>
<path d="M77.2722 90.4572C76.1734 91.7236 76.6861 93.6969 78.262 94.2664L115.056 107.561C117.779 108.545 120.829 107.741 122.715 105.543L170.47 49.8942C171.558 48.6269 171.044 46.6645 169.475 46.0956L133.116 32.9216C130.405 31.9394 127.367 32.7299 125.476 34.9087L77.2722 90.4572Z" fill="#FFDD33" stroke="#202A39" stroke-width="0.709821"/>
<path d="M78.381 89.6494C77.3208 90.9284 77.8569 92.871 79.4224 93.4237L114.946 105.96C117.463 106.848 120.268 106.041 121.929 103.95L130.311 93.4051L130.317 93.3974L130.323 93.3905L159.335 52.7125C162.122 48.8047 160.216 43.3198 155.607 41.9872L129.569 34.4594C126.905 33.6894 124.036 34.5731 122.266 36.7088L78.381 89.6494Z" fill="#202A39" stroke="#202A39" stroke-width="0.709821"/>
<path d="M76.9842 88.6571C75.9611 89.9854 76.5881 91.9254 78.1946 92.402L115.702 103.527C118.477 104.35 121.475 103.37 123.23 101.065L167.657 42.7254C168.669 41.3968 168.041 39.4677 166.441 38.9914L129.376 27.9612C126.613 27.1388 123.626 28.1053 121.865 30.3906L76.9842 88.6571Z" fill="#FFDD33" stroke="#202A39" stroke-width="0.709821"/>
<path d="M77.6249 87.4319C76.5952 88.7561 77.2148 90.6999 78.8202 91.1828L115.452 102.201C118.088 102.994 120.935 101.97 122.463 99.6775L129.265 89.4763L129.268 89.4709L157.589 45.1811C160.18 41.1289 157.983 35.7375 153.299 34.6537L128.288 28.8659C125.643 28.2539 122.881 29.2352 121.213 31.3793L77.6249 87.4319Z" fill="#202A39" stroke="#202A39" stroke-width="0.709821"/>
<path d="M76.8226 86.7535C75.8822 88.1415 76.626 90.0399 78.2585 90.4178L116.373 99.2414C119.193 99.8943 122.126 98.7331 123.737 96.3263L164.534 35.3924C165.463 34.0047 164.719 32.1174 163.093 31.7392L125.426 22.9836C122.618 22.3308 119.695 23.4771 118.077 25.8653L76.8226 86.7535Z" fill="#FFDD33" stroke="#202A39" stroke-width="0.709821"/>
<path d="M124.172 29.5731C121.732 30.6914 119.682 30.0391 118.962 29.5731L83.2527 82.0571C83.7186 82.0571 85.6672 82.8196 86.5568 84.5987C87.5875 86.6603 87.1922 88.5382 86.5568 89.4277L114.26 95.5276C114.387 94.638 115.836 92.3252 117.564 91.2069C119.293 90.0886 122.393 90.2326 123.791 90.6985L156.451 41.3915C155.9 41.2221 154.065 40.1116 153.655 37.9604C153.147 35.2917 154.544 34.148 155.053 32.8772L127.604 26.269C127.476 26.9044 126.612 28.4548 124.172 29.5731Z" fill="#FFDD33" stroke="#202A39" stroke-width="0.709821"/>
<path d="M121.955 51.6799C126.191 52.4448 129.844 54.049 132.327 56.0066C134.823 57.975 136.062 60.2349 135.686 62.322C135.309 64.4089 133.357 66.0919 130.33 67.0632C127.32 68.029 123.337 68.2546 119.1 67.4897C114.864 66.7249 111.211 65.1207 108.728 63.1631C106.232 61.1948 104.993 58.9356 105.369 56.8486C105.746 54.7615 107.698 53.0778 110.725 52.1065C113.735 51.1406 117.718 50.9151 121.955 51.6799Z" fill="#FFDD33" stroke="#202A39" stroke-width="0.709821"/>
<path d="M134.575 39.3901C136.207 39.6737 137.606 40.2804 138.55 41.0144C139.507 41.7589 139.922 42.5689 139.8 43.2695C139.679 43.9701 139.014 44.5925 137.862 44.9707C136.727 45.3435 135.205 45.4427 133.572 45.1592C131.94 44.8756 130.541 44.2689 129.597 43.535C128.64 42.7904 128.225 41.9804 128.347 41.2798C128.469 40.5793 129.133 39.9567 130.285 39.5786C131.42 39.2059 132.942 39.1066 134.575 39.3901Z" stroke="#202A39" stroke-width="0.709821"/>
<path d="M107.356 75.6968C109.009 76.0291 110.416 76.684 111.356 77.4563C112.31 78.2397 112.713 79.0766 112.57 79.7891C112.427 80.5016 111.732 81.1178 110.549 81.4716C109.383 81.8204 107.832 81.8806 106.18 81.5484C104.527 81.2161 103.119 80.5611 102.178 79.7887C101.224 79.0052 100.822 78.1684 100.965 77.4559C101.108 76.7434 101.803 76.1272 102.986 75.7733C104.152 75.4245 105.703 75.3644 107.356 75.6968Z" stroke="#202A39" stroke-width="0.709821"/>
</svg>
