<svg width="14" height="16" viewBox="0 0 14 16" fill="none" xmlns="http://www.w3.org/2000/svg">
<g clip-path="url(#clip0_2277_926)">
<path d="M6.54099 2.9978C5.34871 2.99916 4.20566 3.47338 3.36259 4.31645C2.51953 5.15952 2.0453 6.30257 2.04395 7.49485C2.04395 11.3429 6.13217 14.2506 6.30592 14.3733C6.37555 14.4196 6.45733 14.4444 6.54099 14.4444C6.62464 14.4444 6.70643 14.4196 6.77606 14.3733C6.94981 14.2506 11.038 11.3429 11.038 7.49485C11.0367 6.30257 10.5625 5.15952 9.71939 4.31645C8.87632 3.47338 7.73326 2.99916 6.54099 2.9978ZM6.54099 5.85956C6.86442 5.85956 7.18058 5.95547 7.44951 6.13515C7.71843 6.31484 7.92803 6.57024 8.0518 6.86905C8.17557 7.16786 8.20795 7.49666 8.14486 7.81388C8.08176 8.13109 7.92601 8.42247 7.69731 8.65117C7.46861 8.87987 7.17723 9.03562 6.86002 9.09871C6.5428 9.16181 6.214 9.12943 5.91519 9.00566C5.61638 8.88189 5.36098 8.67229 5.1813 8.40336C5.00161 8.13444 4.9057 7.81828 4.9057 7.49485C4.9057 7.06114 5.07799 6.6452 5.38467 6.33852C5.69134 6.03185 6.10728 5.85956 6.54099 5.85956Z" fill="white" fill-opacity="0.64"/>
</g>
<defs>
<clipPath id="clip0_2277_926">
<rect width="13.0823" height="13.0823" fill="white" transform="translate(0 2.18018)"/>
</clipPath>
</defs>
</svg>
