<svg width="130" height="42" viewBox="0 0 130 42" fill="none" xmlns="http://www.w3.org/2000/svg">
<g clip-path="url(#clip0_2257_80088)">
<mask id="mask0_2257_80088" style="mask-type:alpha" maskUnits="userSpaceOnUse" x="1" y="1" width="128" height="40">
<rect x="1" y="1" width="128" height="40" fill="#C4C4C4"/>
</mask>
<g mask="url(#mask0_2257_80088)">
<path d="M125 41H5C2.8 41 1 39.2 1 37V5C1 2.8 2.8 1 5 1H125C127.2 1 129 2.8 129 5V37C129 39.2 127.2 41 125 41Z" fill="black"/>
<path fill-rule="evenodd" clip-rule="evenodd" d="M10.8008 20.6V10.1C10.8008 9.5 11.3008 9 11.8008 9C12.3008 9 12.5008 9.1 12.8008 9.3L32.1008 19.9C32.5008 20.1 32.7008 20.4 32.7008 20.7C32.7008 21 32.5008 21.3 32.1008 21.5L12.8008 32.1C12.6008 32.2 12.3008 32.4 11.8008 32.4C11.3008 32.4 10.8008 31.9 10.8008 31.3V20.6Z" fill="url(#paint0_linear_2257_80088)"/>
<path fill-rule="evenodd" clip-rule="evenodd" d="M23.3016 20.7L11.6016 9C11.7016 9 11.7016 9 11.8016 9C12.3016 9 12.5016 9.1 12.8016 9.3L27.0016 17.1L23.3016 20.7Z" fill="url(#paint1_linear_2257_80088)"/>
<path fill-rule="evenodd" clip-rule="evenodd" d="M26.9008 24.1984L23.3008 20.5984L27.0008 16.8984L32.1008 19.6984C32.5008 19.8984 32.7008 20.1984 32.7008 20.4984C32.7008 20.7984 32.5008 21.0984 32.1008 21.2984L26.9008 24.1984Z" fill="url(#paint2_linear_2257_80088)"/>
<path fill-rule="evenodd" clip-rule="evenodd" d="M11.6992 32.2016L23.2992 20.6016L26.8992 24.2016L12.7992 31.9016C12.4992 32.1016 12.2992 32.2016 11.6992 32.2016C11.7992 32.2016 11.7992 32.2016 11.6992 32.2016Z" fill="url(#paint3_linear_2257_80088)"/>
<path fill-rule="evenodd" clip-rule="evenodd" d="M72.0984 34.9C71.5984 34.5 71.1984 33.8 70.9984 33.4L72.5984 32.7C72.6984 32.9 72.8984 33.2 73.0984 33.5C73.4984 33.9 74.0984 34.3 74.6984 34.3C75.2984 34.3 75.9984 34 76.3984 33.5C76.6984 33 76.8984 32.5 76.8984 31.8V31.2C75.6984 32.7 73.1984 32.5 71.7984 30.9C70.2984 29.3 70.2984 26.6 71.7984 25C73.2984 23.5 75.4984 23.3 76.7984 24.7V24H78.4984V31.5C78.4984 33.4 77.7984 34.5 76.8984 35.2C76.2984 35.7 75.3984 35.9 74.5984 35.9C73.6984 35.8 72.7984 35.5 72.0984 34.9ZM113.998 35.3L115.698 31.3L112.698 24.4H114.398L116.498 29.3L118.598 24.4H120.298L115.698 35.3H113.998ZM105.898 31.5C105.398 31 105.198 30.3 105.198 29.6C105.198 29 105.398 28.4 105.798 28C106.498 27.3 107.498 27 108.598 27C109.298 27 109.898 27.1 110.398 27.4C110.398 26.2 109.398 25.7 108.598 25.7C107.898 25.7 107.198 26.1 106.898 26.8L105.398 26.2C105.698 25.5 106.498 24.2 108.498 24.2C109.498 24.2 110.498 24.5 111.098 25.2C111.698 25.9 111.898 26.7 111.898 27.8V32H110.198V31.3C109.998 31.6 109.598 31.8 109.298 32C108.898 32.2 108.398 32.3 107.898 32.3C107.298 32.2 106.398 32 105.898 31.5ZM52.5984 27.9C52.5984 25.9 54.0984 23.7 56.7984 23.7C59.3984 23.7 60.9984 25.9 60.9984 27.9C60.9984 29.9 59.4984 32.1 56.7984 32.1C54.0984 32.1 52.5984 29.9 52.5984 27.9ZM61.5984 27.9C61.5984 25.9 63.0984 23.7 65.7984 23.7C68.3984 23.7 69.9984 25.9 69.9984 27.9C69.9984 29.9 68.4984 32.1 65.7984 32.1C63.1984 32.1 61.5984 29.9 61.5984 27.9ZM41.2984 30.1C38.7984 27.6 38.8984 23.5 41.3984 20.9C42.6984 19.6 44.2984 19 45.9984 19C47.5984 19 49.1984 19.6 50.3984 20.8L49.1984 22.1C47.3984 20.3 44.4984 20.4 42.7984 22.2C40.9984 24.1 40.9984 27 42.7984 28.9C44.5984 30.8 47.5984 30.9 49.3984 29C49.9984 28.4 50.1984 27.6 50.2984 26.8H46.0984V25H51.9984C52.0984 25.4 52.0984 25.9 52.0984 26.4C52.0984 27.9 51.4984 29.4 50.4984 30.4C49.3984 31.5 47.7984 32.1 46.1984 32.1C44.3984 32 42.5984 31.4 41.2984 30.1ZM83.5984 30.8C82.0984 29.2 82.0984 26.5 83.5984 24.8C85.0984 23.2 87.5984 23.2 88.9984 24.8C89.4984 25.3 89.7984 26 90.0984 26.7L84.5984 29C84.8984 29.7 85.5984 30.3 86.5984 30.3C87.4984 30.3 88.0984 30 88.6984 29.1L90.1984 30.1C89.9984 30.3 89.7984 30.5 89.6984 30.7C87.9984 32.4 85.0984 32.4 83.5984 30.8ZM93.9984 32V20.9H97.5984C99.6984 20.9 101.398 22.4 101.398 24.2C101.398 26 99.8984 27.5 97.9984 27.5H95.7984V31.9H93.9984V32ZM102.398 32V20.9H104.098V32H102.398ZM79.7984 31.8V19.4H81.5984V31.8H79.7984ZM110.298 28.7C109.898 28.4 109.298 28.3 108.698 28.3C107.498 28.3 106.798 28.9 106.798 29.6C106.798 30.3 107.498 30.7 108.198 30.7C109.198 30.7 110.298 29.9 110.298 28.7ZM59.0984 27.9C59.0984 26.7 58.2984 25.4 56.7984 25.4C55.2984 25.4 54.4984 26.7 54.4984 27.9C54.4984 29.1 55.2984 30.4 56.7984 30.4C58.1984 30.4 59.0984 29.1 59.0984 27.9ZM68.0984 27.9C68.0984 26.7 67.2984 25.4 65.7984 25.4C64.2984 25.4 63.4984 26.7 63.4984 27.9C63.4984 29.1 64.2984 30.4 65.7984 30.4C67.2984 30.4 68.0984 29.1 68.0984 27.9ZM76.9984 28.6C76.9984 28.5 76.9984 28.4 77.0984 28.3C77.0984 28.2 77.0984 28 77.0984 27.9C77.0984 27.8 77.0984 27.6 77.0984 27.5V27.4C77.0984 27.3 76.9984 27.1 76.9984 27C76.6984 26 75.7984 25.3 74.8984 25.3C73.6984 25.3 72.6984 26.5 72.6984 27.8C72.6984 29.2 73.6984 30.3 74.9984 30.3C75.7984 30.4 76.5984 29.7 76.9984 28.6ZM84.2984 27.7L87.9984 26.1C87.5984 25.4 86.9984 25.2 86.4984 25.2C84.9984 25.3 84.0984 26.9 84.2984 27.7ZM99.5984 24.3C99.5984 23.3 98.7984 22.6 97.6984 22.6H95.6984V26.1H97.7984C98.7984 26.1 99.5984 25.3 99.5984 24.3Z" fill="white"/>
<path fill-rule="evenodd" clip-rule="evenodd" d="M115.299 33.2992H115.199V33.1992H115.299H115.199V33.2992H115.299Z" fill="white"/>
<path fill-rule="evenodd" clip-rule="evenodd" d="M115.501 33.2992C115.501 33.1992 115.501 33.1992 115.501 33.2992C115.401 33.1992 115.401 33.1992 115.501 33.2992C115.401 33.2992 115.401 33.2992 115.501 33.2992ZM115.501 33.1992C115.501 33.2992 115.501 33.2992 115.501 33.1992C115.401 33.2992 115.501 33.2992 115.501 33.1992C115.501 33.1992 115.401 33.1992 115.501 33.1992Z" fill="white"/>
<path fill-rule="evenodd" clip-rule="evenodd" d="M115.6 33.1992H115.5H115.6V33.2992V33.1992Z" fill="white"/>
<path d="M39.8984 11.0992C39.8984 9.29922 41.1984 8.19922 42.7984 8.19922C43.8984 8.19922 44.5984 8.69922 45.0984 9.39922L44.2984 9.89922C43.9984 9.49922 43.4984 9.19922 42.7984 9.19922C41.6984 9.19922 40.8984 9.99922 40.8984 11.1992C40.8984 12.3992 41.6984 13.1992 42.7984 13.1992C43.3984 13.1992 43.8984 12.8992 44.0984 12.6992V11.7992H42.4984V10.8992H45.1984V12.9992C44.6984 13.5992 43.8984 13.9992 42.8984 13.9992C41.1984 13.9992 39.8984 12.7992 39.8984 11.0992Z" fill="white"/>
<path d="M46.3984 13.9008V8.30078H50.1984V9.20078H47.2984V10.6008H50.0984V11.5008H47.2984V13.1008H50.1984V14.0008L46.3984 13.9008Z" fill="white"/>
<path d="M53.0008 13.9008V9.20078H51.3008V8.30078H55.7008V9.20078H54.0008V13.9008H53.0008Z" fill="white"/>
<path d="M59.1016 13.9008V8.30078H60.1016V13.9008H59.1016Z" fill="white"/>
<path d="M62.8016 13.9008V9.20078H61.1016V8.30078H65.5016V9.20078H63.8016V13.9008H62.8016Z" fill="white"/>
<path d="M68.6992 11.0992C68.6992 9.39922 69.8992 8.19922 71.5992 8.19922C73.2992 8.19922 74.4992 9.39922 74.4992 11.0992C74.4992 12.7992 73.2992 13.9992 71.5992 13.9992C69.8992 13.9992 68.6992 12.6992 68.6992 11.0992ZM73.3992 11.0992C73.3992 9.89922 72.6992 9.09922 71.4992 9.09922C70.3992 9.09922 69.5992 9.99922 69.5992 11.0992C69.5992 12.2992 70.2992 13.0992 71.4992 13.0992C72.6992 13.0992 73.3992 12.1992 73.3992 11.0992Z" fill="white"/>
<path d="M79.5016 13.9008L76.6016 9.90078V13.9008H75.6016V8.30078H76.6016L79.5016 12.2008V8.30078H80.5016V13.9008H79.5016Z" fill="white"/>
</g>
</g>
<rect x="0.5" y="0.5" width="129" height="41" rx="6.5" stroke="#16448F"/>
<defs>
<linearGradient id="paint0_linear_2257_80088" x1="17.2682" y1="7.5736" x2="22.8664" y2="30.5645" gradientUnits="userSpaceOnUse">
<stop stop-color="#006884"/>
<stop offset="1" stop-color="#8AD1D0"/>
</linearGradient>
<linearGradient id="paint1_linear_2257_80088" x1="10.4423" y1="10.8438" x2="25.6983" y2="19.0913" gradientUnits="userSpaceOnUse">
<stop stop-color="#24BBB6"/>
<stop offset="1" stop-color="#DBE692"/>
</linearGradient>
<linearGradient id="paint2_linear_2257_80088" x1="27.9952" y1="24.6185" x2="27.9952" y2="16.6701" gradientUnits="userSpaceOnUse">
<stop stop-color="#FCC072"/>
<stop offset="1" stop-color="#F58A5B"/>
</linearGradient>
<linearGradient id="paint3_linear_2257_80088" x1="13.3939" y1="34.2707" x2="25.4456" y2="22.0055" gradientUnits="userSpaceOnUse">
<stop stop-color="#712B8F"/>
<stop offset="1" stop-color="#EA1D27"/>
</linearGradient>
<clipPath id="clip0_2257_80088">
<rect x="1" y="1" width="128" height="40" rx="6" fill="white"/>
</clipPath>
</defs>
</svg>
