<svg preserveAspectRatio="none" width="100%" height="100%" overflow="visible" style="display: block;" viewBox="0 0 144.813 141.57" fill="none" xmlns="http://www.w3.org/2000/svg">
<g id="Group 5494">
<path id="Rectangle 2375" d="M64.7648 43.7062C69.3921 41.038 75.0913 41.0279 79.731 43.6797L136.332 76.0291C139.42 77.7944 139.44 82.237 136.367 84.0259L79.7634 116.978C75.0796 119.704 69.287 119.696 64.6077 116.957L8.50894 84.1133C5.45006 82.3225 5.46287 77.9009 8.53208 76.1311L64.7648 43.7062Z" fill="var(--fill-0, #FFDD33)"/>
<g id="Union">
<mask id="path-2-outside-1_4429_93744" maskUnits="userSpaceOnUse" x="2.90975" y="3.92517" width="139" height="107" fill="black">
<rect fill="white" x="2.90975" y="3.92517" width="139" height="107"/>
<path d="M87.5088 17.1888L76.0957 23.8314C76.0989 23.8323 76.1023 23.8325 76.1055 23.8334L87.5088 17.1957L87.4736 29.2582L97.8984 23.2474L118.111 34.5111L107.065 40.9398L107.072 40.9437L118.111 34.5179L118.074 47.2338L137.749 58.4828C139.182 59.302 139.953 60.6964 140.062 62.1342H140.077V69.0707C140.084 70.6246 139.321 72.1812 137.784 73.0746L79.8447 106.762C75.1575 109.487 69.3588 109.477 64.6758 106.735L7.19433 73.0707C5.43494 72.0402 4.69399 70.1414 4.96386 68.3773V63.1967C4.69233 61.4228 5.44258 59.5154 7.21679 58.4935L27.7432 46.6713L28.0371 28.9437L43.4023 37.6527L43.4189 37.6439L28.0361 28.9261L41.8906 20.9379L53.2217 27.2523L53.4424 13.932L70.2783 23.473C70.2871 23.4718 70.2959 23.4713 70.3047 23.4701L53.4424 13.9135L67.2959 5.92517L87.5088 17.1888Z"/>
</mask>
<path d="M87.5088 17.1888L76.0957 23.8314C76.0989 23.8323 76.1023 23.8325 76.1055 23.8334L87.5088 17.1957L87.4736 29.2582L97.8984 23.2474L118.111 34.5111L107.065 40.9398L107.072 40.9437L118.111 34.5179L118.074 47.2338L137.749 58.4828C139.182 59.302 139.953 60.6964 140.062 62.1342H140.077V69.0707C140.084 70.6246 139.321 72.1812 137.784 73.0746L79.8447 106.762C75.1575 109.487 69.3588 109.477 64.6758 106.735L7.19433 73.0707C5.43494 72.0402 4.69399 70.1414 4.96386 68.3773V63.1967C4.69233 61.4228 5.44258 59.5154 7.21679 58.4935L27.7432 46.6713L28.0371 28.9437L43.4023 37.6527L43.4189 37.6439L28.0361 28.9261L41.8906 20.9379L53.2217 27.2523L53.4424 13.932L70.2783 23.473C70.2871 23.4718 70.2959 23.4713 70.3047 23.4701L53.4424 13.9135L67.2959 5.92517L87.5088 17.1888Z" fill="var(--fill-0, white)"/>
<path d="M87.5088 17.1888L88.0897 18.1869C88.4483 17.9782 88.6674 17.593 88.6635 17.178C88.6597 16.7631 88.4334 16.3821 88.0709 16.1801L87.5088 17.1888ZM76.0957 23.8314L75.5148 22.8333C75.1107 23.0685 74.8883 23.5242 74.9515 23.9874C75.0146 24.4507 75.3509 24.8302 75.8032 24.9486L76.0957 23.8314ZM76.1055 23.8334L75.8123 24.9503C76.1079 25.0279 76.4222 24.9852 76.6864 24.8314L76.1055 23.8334ZM87.5088 17.1957L88.6636 17.199C88.6648 16.7851 88.4444 16.4022 88.0859 16.1954C87.7274 15.9886 87.2856 15.9894 86.9278 16.1976L87.5088 17.1957ZM87.4736 29.2582L86.3188 29.2548C86.3176 29.6679 86.5371 30.0501 86.8945 30.2573C87.2518 30.4644 87.6926 30.4649 88.0505 30.2586L87.4736 29.2582ZM97.8984 23.2474L98.4606 22.2387C98.1059 22.041 97.6734 22.0442 97.3216 22.247L97.8984 23.2474ZM118.111 34.5111L118.692 35.5092C119.051 35.3004 119.27 34.9153 119.266 34.5003C119.262 34.0853 119.036 33.7044 118.673 33.5023L118.111 34.5111ZM107.065 40.9398L106.485 39.9417C106.128 40.1494 105.909 40.5316 105.911 40.9444C105.912 41.3572 106.134 41.7377 106.492 41.9425L107.065 40.9398ZM107.072 40.9437L106.499 41.9464C106.857 42.1509 107.297 42.1491 107.653 41.9418L107.072 40.9437ZM118.111 34.5179L119.266 34.5213C119.267 34.1074 119.047 33.7245 118.688 33.5177C118.33 33.3108 117.888 33.3117 117.53 33.5199L118.111 34.5179ZM118.074 47.2338L116.919 47.2304C116.918 47.6459 117.14 48.03 117.501 48.2363L118.074 47.2338ZM137.749 58.4828L138.322 57.4803L138.322 57.4803L137.749 58.4828ZM140.062 62.1342L138.911 62.2221C138.957 62.824 139.459 63.289 140.062 63.289V62.1342ZM140.077 62.1342H141.232C141.232 61.4964 140.715 60.9793 140.077 60.9793V62.1342ZM140.077 69.0707H138.922L138.922 69.0759L140.077 69.0707ZM137.784 73.0746L138.365 74.0729V74.0729L137.784 73.0746ZM79.8447 106.762L79.2643 105.764V105.764L79.8447 106.762ZM64.6758 106.735L64.0922 107.731L64.0922 107.731L64.6758 106.735ZM7.19433 73.0707L6.61069 74.0671L6.61073 74.0672L7.19433 73.0707ZM4.96386 68.3773L6.10539 68.552C6.11423 68.4942 6.11867 68.4358 6.11867 68.3773H4.96386ZM4.96386 63.1967H6.11867C6.11867 63.1382 6.11423 63.0797 6.10538 63.0219L4.96386 63.1967ZM7.21679 58.4935L7.79314 59.4942L7.79315 59.4942L7.21679 58.4935ZM27.7432 46.6713L28.3195 47.672C28.6715 47.4692 28.8911 47.0965 28.8978 46.6904L27.7432 46.6713ZM28.0371 28.9437L28.6065 27.9391C28.252 27.7381 27.8178 27.7389 27.464 27.9411C27.1102 28.1434 26.8892 28.5171 26.8825 28.9246L28.0371 28.9437ZM43.4023 37.6527L42.8329 38.6574C43.1759 38.8517 43.5943 38.8578 43.9427 38.6733L43.4023 37.6527ZM43.4189 37.6439L43.9593 38.6645C44.3321 38.4672 44.5676 38.0823 44.5736 37.6605C44.5797 37.2387 44.3553 36.8472 43.9883 36.6392L43.4189 37.6439ZM28.0361 28.9261L27.4593 27.9257C27.1003 28.1327 26.8798 28.5161 26.8813 28.9304C26.8829 29.3448 27.1063 29.7265 27.4668 29.9308L28.0361 28.9261ZM41.8906 20.9379L42.4528 19.9291C42.0981 19.7314 41.6656 19.7346 41.3138 19.9374L41.8906 20.9379ZM53.2217 27.2523L52.6595 28.2611C53.0142 28.4587 53.4466 28.4556 53.7984 28.2528C54.1502 28.05 54.3696 27.6774 54.3763 27.2714L53.2217 27.2523ZM53.4424 13.932L54.0117 12.9273C53.6572 12.7264 53.223 12.7272 52.8693 12.9295C52.5155 13.1317 52.2945 13.5054 52.2877 13.9129L53.4424 13.932ZM70.2783 23.473L69.709 24.4777C69.9282 24.602 70.1821 24.6511 70.4318 24.6176L70.2783 23.473ZM70.3047 23.4701L70.4562 24.6149C70.9482 24.5498 71.3436 24.1776 71.4383 23.6905C71.533 23.2033 71.3058 22.7101 70.8741 22.4654L70.3047 23.4701ZM53.4424 13.9135L52.8655 12.913C52.5066 13.12 52.286 13.5034 52.2876 13.9178C52.2891 14.3321 52.5125 14.7138 52.873 14.9181L53.4424 13.9135ZM67.2959 5.92517L67.858 4.91641C67.5033 4.71874 67.0708 4.72191 66.719 4.92476L67.2959 5.92517ZM87.5088 17.1888L86.9279 16.1908L75.5148 22.8333L76.0957 23.8314L76.6766 24.8295L88.0897 18.1869L87.5088 17.1888ZM76.0957 23.8314L75.8032 24.9486C75.8363 24.9572 75.8635 24.9628 75.8802 24.966C75.8887 24.9677 75.8957 24.9689 75.9001 24.9697C75.9023 24.9701 75.9041 24.9704 75.9053 24.9706C75.9064 24.9708 75.9074 24.9709 75.9074 24.9709C75.9083 24.9711 75.9056 24.9706 75.9023 24.9701C75.8987 24.9694 75.8925 24.9683 75.8847 24.9668C75.8695 24.9639 75.8438 24.9586 75.8123 24.9503L76.1055 23.8334L76.3987 22.7164C76.3655 22.7077 76.3382 22.7021 76.3214 22.6988C76.3128 22.6972 76.3057 22.6959 76.3013 22.6952C76.299 22.6948 76.2972 22.6944 76.2959 22.6942C76.2948 22.694 76.2938 22.6939 76.2937 22.6939C76.2927 22.6937 76.2955 22.6941 76.2986 22.6947C76.3022 22.6953 76.3084 22.6964 76.3161 22.6979C76.3312 22.7008 76.3567 22.706 76.3882 22.7143L76.0957 23.8314ZM76.1055 23.8334L76.6864 24.8314L88.0897 18.1937L87.5088 17.1957L86.9278 16.1976L75.5245 22.8353L76.1055 23.8334ZM87.5088 17.1957L86.354 17.1923L86.3188 29.2548L87.4736 29.2582L88.6284 29.2615L88.6636 17.199L87.5088 17.1957ZM87.4736 29.2582L88.0505 30.2586L98.4753 24.2479L97.8984 23.2474L97.3216 22.247L86.8968 28.2577L87.4736 29.2582ZM97.8984 23.2474L97.3363 24.2562L117.549 35.5199L118.111 34.5111L118.673 33.5023L98.4606 22.2387L97.8984 23.2474ZM118.111 34.5111L117.53 33.513L106.485 39.9417L107.065 40.9398L107.646 41.9379L118.692 35.5092L118.111 34.5111ZM107.065 40.9398L106.492 41.9425L106.499 41.9464L107.072 40.9437L107.645 39.9411L107.638 39.9372L107.065 40.9398ZM107.072 40.9437L107.653 41.9418L118.692 35.516L118.111 34.5179L117.53 33.5199L106.491 39.9457L107.072 40.9437ZM118.111 34.5179L116.957 34.5146L116.919 47.2304L118.074 47.2338L119.229 47.2371L119.266 34.5213L118.111 34.5179ZM118.074 47.2338L117.501 48.2363L137.176 59.4853L137.749 58.4828L138.322 57.4803L118.647 46.2312L118.074 47.2338ZM137.749 58.4828L137.176 59.4853C138.253 60.1015 138.828 61.1396 138.911 62.2221L140.062 62.1342L141.214 62.0462C141.077 60.2532 140.11 58.5025 138.322 57.4803L137.749 58.4828ZM140.062 62.1342V63.289H140.077V62.1342V60.9793H140.062V62.1342ZM140.077 62.1342H138.922V69.0707H140.077H141.232V62.1342H140.077ZM140.077 69.0707L138.922 69.0759C138.928 70.2478 138.357 71.4057 137.204 72.0763L137.784 73.0746L138.365 74.0729C140.285 72.9566 141.241 71.0014 141.232 69.0655L140.077 69.0707ZM137.784 73.0746L137.204 72.0763L79.2643 105.764L79.8447 106.762L80.4252 107.76L138.365 74.0729L137.784 73.0746ZM79.8447 106.762L79.2643 105.764C74.9374 108.28 69.5834 108.271 65.2594 105.738L64.6758 106.735L64.0922 107.731C69.1342 110.684 75.3777 110.695 80.4252 107.76L79.8447 106.762ZM64.6758 106.735L65.2594 105.738L7.77793 72.0742L7.19433 73.0707L6.61073 74.0672L64.0922 107.731L64.6758 106.735ZM7.19433 73.0707L7.77798 72.0742C6.46028 71.3024 5.90106 69.8876 6.10539 68.552L4.96386 68.3773L3.82233 68.2027C3.48692 70.3952 4.40959 72.7779 6.61069 74.0671L7.19433 73.0707ZM4.96386 68.3773H6.11867V63.1967H4.96386H3.80905V68.3773H4.96386ZM4.96386 63.1967L6.10538 63.0219C5.89968 61.6782 6.46633 60.2584 7.79314 59.4942L7.21679 58.4935L6.64044 57.4928C4.41883 58.7724 3.48497 61.1675 3.82235 63.3714L4.96386 63.1967ZM7.21679 58.4935L7.79315 59.4942L28.3195 47.672L27.7432 46.6713L27.1668 45.6706L6.64044 57.4928L7.21679 58.4935ZM27.7432 46.6713L28.8978 46.6904L29.1918 28.9629L28.0371 28.9437L26.8825 28.9246L26.5885 46.6521L27.7432 46.6713ZM28.0371 28.9437L27.4677 29.9484L42.8329 38.6574L43.4023 37.6527L43.9718 36.6481L28.6065 27.9391L28.0371 28.9437ZM43.4023 37.6527L43.9427 38.6733L43.9593 38.6645L43.4189 37.6439L42.8786 36.6233L42.862 36.6321L43.4023 37.6527ZM43.4189 37.6439L43.9883 36.6392L28.6055 27.9215L28.0361 28.9261L27.4668 29.9308L42.8496 38.6486L43.4189 37.6439ZM28.0361 28.9261L28.613 29.9266L42.4675 21.9383L41.8906 20.9379L41.3138 19.9374L27.4593 27.9257L28.0361 28.9261ZM41.8906 20.9379L41.3285 21.9466L52.6595 28.2611L53.2217 27.2523L53.7838 26.2436L42.4528 19.9291L41.8906 20.9379ZM53.2217 27.2523L54.3763 27.2714L54.597 13.9511L53.4424 13.932L52.2877 13.9129L52.067 27.2332L53.2217 27.2523ZM53.4424 13.932L52.873 14.9367L69.709 24.4777L70.2783 23.473L70.8477 22.4683L54.0117 12.9273L53.4424 13.932ZM70.2783 23.473L70.4318 24.6176C70.4216 24.619 70.4138 24.6198 70.4098 24.6203C70.4063 24.6206 70.4038 24.6209 70.4065 24.6206C70.4077 24.6205 70.4145 24.6198 70.422 24.619C70.43 24.6182 70.4419 24.6168 70.4562 24.6149L70.3047 23.4701L70.1532 22.3253C70.163 22.324 70.1706 22.3231 70.1742 22.3227C70.1773 22.3224 70.1797 22.3222 70.1765 22.3225C70.1748 22.3226 70.1679 22.3233 70.16 22.3242C70.1516 22.3251 70.1394 22.3265 70.1248 22.3285L70.2783 23.473ZM70.3047 23.4701L70.8741 22.4654L54.0118 12.9088L53.4424 13.9135L52.873 14.9181L69.7353 24.4748L70.3047 23.4701ZM53.4424 13.9135L54.0192 14.9139L67.8728 6.92558L67.2959 5.92517L66.719 4.92476L52.8655 12.913L53.4424 13.9135ZM67.2959 5.92517L66.7338 6.93393L86.9467 18.1976L87.5088 17.1888L88.0709 16.1801L67.858 4.91641L67.2959 5.92517Z" fill="var(--stroke-0, #1D2939)" mask="url(#path-2-outside-1_4429_93744)"/>
</g>
<g id="Mask group">
<mask id="mask0_4429_93744" style="mask-type:alpha" maskUnits="userSpaceOnUse" x="4" y="23" width="69" height="87">
<rect id="Rectangle 2401" x="4.90794" y="23.0962" width="67.5564" height="86.0334" fill="var(--fill-0, #D0D8DC)"/>
</mask>
<g mask="url(#mask0_4429_93744)">
<path id="Rectangle 2372" d="M64.7217 31.9405C69.3524 29.2737 75.0571 29.2663 79.7005 31.9212L137.693 65.0779C140.783 66.844 140.802 71.2831 137.729 73.07L79.7891 106.758C75.1019 109.483 69.3039 109.472 64.6208 106.73L7.13939 73.0663C4.08005 71.2746 4.09259 66.8565 7.16202 65.0888L64.7217 31.9405Z" fill="var(--fill-0, #D0D5DD)"/>
<path id="Rectangle 2373" d="M64.7216 25.341C69.3523 22.6742 75.0569 22.6668 79.7004 25.3217L137.693 58.4784C140.782 60.2445 140.802 64.6836 137.729 66.4705L79.789 100.158C75.1018 102.884 69.3037 102.873 64.6207 100.13L7.13928 66.4668C4.07995 64.6751 4.09248 60.257 7.16191 58.4893L64.7216 25.341Z" fill="var(--fill-0, #D0D5DD)"/>
<rect id="Rectangle 2374" x="4.90907" y="62.1297" width="135.113" height="6.92886" fill="var(--fill-0, #D0D5DD)"/>
</g>
</g>
<path id="Rectangle 2376" d="M137.833 58.1296C141.115 60.0052 141.136 64.7258 137.871 66.6266L79.9011 100.373C75.1274 103.152 69.2236 103.144 64.4545 100.352L7.00046 66.7148C3.7506 64.812 3.76393 60.1141 7.02481 58.2338L64.6134 25.0271C69.3297 22.3076 75.1387 22.2976 79.8676 25.0003L137.833 58.1296Z" fill="var(--fill-0, white)" stroke="var(--stroke-0, #1D2939)" stroke-width="0.577405"/>
<path id="Vector 988" d="M52.8326 93.2509H78.5271L65.8964 77.0836H103.644L52.8326 27.138L28.0042 46.4811L6.9783 58.403C3.88095 60.1592 3.85137 64.6117 6.92512 66.4089L52.8326 93.2509Z" fill="var(--fill-0, #D0D5DD)"/>
<g id="Group 5478">
<path id="Rectangle 2388" d="M67.2962 5.92517L87.5085 17.1887L73.5539 25.3123L53.4422 13.9136L67.2962 5.92517Z" fill="var(--fill-0, white)" stroke="var(--stroke-0, #1D2939)" stroke-width="0.577405" stroke-linejoin="round"/>
<path id="Rectangle 2399" d="M67.2677 8.94853L84.5894 18.4757L87.1877 17.0322L67.2677 6.35019L67.2677 8.94853Z" fill="var(--fill-0, #D0D5DD)"/>
<path id="Rectangle 2391" d="M67.1814 9.10536L84.7675 18.8755L73.1965 25.2808L56.0156 15.5257L67.1814 9.10536Z" fill="var(--fill-0, #FFDD33)" stroke="var(--stroke-0, #1D2939)" stroke-width="0.577405" stroke-linejoin="round"/>
<path id="Rectangle 2389" d="M52.8642 48.9638L73.5544 60.3567L73.5544 25.3303L53.4428 13.9316L52.8642 48.9638Z" fill="var(--fill-0, #D0D5DD)" stroke="var(--stroke-0, #1D2939)" stroke-width="0.577405" stroke-linejoin="round"/>
<path id="Rectangle 2390" d="M87.4078 52.5038L87.5085 17.1868L73.5539 25.3105L73.5539 60.3371L87.4078 52.5038Z" fill="var(--fill-0, white)" stroke="var(--stroke-0, #1D2939)" stroke-width="0.577405" stroke-linejoin="round"/>
<path id="Rectangle 2393" d="M78.4014 31.1799L78.4177 25.4058L76.1531 26.7242L76.1531 32.3347L78.4014 31.1799Z" fill="var(--fill-0, white)" stroke="var(--stroke-0, #1D2939)" stroke-width="0.577405" stroke-linejoin="round"/>
<path id="Rectangle 2395" d="M80.7103 30.025L80.7273 23.9623L78.4617 25.4058L78.4619 31.1799L80.7103 30.025Z" fill="var(--fill-0, white)" stroke="var(--stroke-0, #1D2939)" stroke-width="0.577405" stroke-linejoin="round"/>
<path id="Rectangle 2397" d="M84.7814 27.4267L84.7985 21.364L82.5329 22.8075L82.5331 28.5815L84.7814 27.4267Z" fill="var(--fill-0, #FFDD33)" stroke="var(--stroke-0, #1D2939)" stroke-width="0.577405" stroke-linejoin="round"/>
<path id="Rectangle 2398" d="M84.7814 45.9037L84.7985 39.841L82.5329 41.2845L82.5331 47.0585L84.7814 45.9037Z" fill="var(--fill-0, white)" stroke="var(--stroke-0, #1D2939)" stroke-width="0.577405" stroke-linejoin="round"/>
<path id="Rectangle 2394" d="M78.4022 36.9109L78.4175 31.1798L76.1541 32.3347L76.1538 38.1821L78.4022 36.9109Z" fill="var(--fill-0, white)" stroke="var(--stroke-0, #1D2939)" stroke-width="0.577405" stroke-linejoin="round"/>
<path id="Rectangle 2396" d="M80.7118 35.5103L80.7271 30.025L78.4637 31.1799L78.4637 36.8711L80.7118 35.5103Z" fill="var(--fill-0, white)" stroke="var(--stroke-0, #1D2939)" stroke-width="0.577405" stroke-linejoin="round"/>
<path id="Rectangle 2392" d="M80.1236 56.5985L80.144 49.4401C80.1476 48.1645 78.763 47.3665 77.6601 48.0086C76.7466 48.5404 76.1849 49.517 76.1849 50.5735L76.1849 58.8255L80.1236 56.5985Z" fill="var(--fill-0, #D0D5DD)" stroke="var(--stroke-0, #1D2939)" stroke-width="0.577405" stroke-linejoin="round"/>
<path id="Rectangle 2400" d="M78.5274 57.4519L78.5474 49.6962C78.5494 48.9229 77.7008 48.4471 77.0415 48.8519C76.5152 49.175 76.1946 49.7479 76.1946 50.3651L76.1946 58.8282L78.5274 57.4519Z" fill="var(--fill-0, #1D2939)" stroke="var(--stroke-0, #1D2939)" stroke-width="0.577405" stroke-linejoin="round"/>
<path id="Vector 989" d="M53.41 31.7573L73.6192 43.0167L87.4769 35.2217" stroke="var(--stroke-0, #1D2939)" stroke-width="0.577405" stroke-linecap="round"/>
</g>
<g id="Group 5479">
<path id="Rectangle 2388_2" d="M41.8904 20.9377L62.1026 32.2012L48.148 40.3249L28.0364 28.9262L41.8904 20.9377Z" fill="var(--fill-0, white)" stroke="var(--stroke-0, #1D2939)" stroke-width="0.577405" stroke-linejoin="round"/>
<path id="Rectangle 2399_2" d="M41.8619 23.9611L59.1836 33.4882L61.7819 32.0447L41.8618 21.3627L41.8619 23.9611Z" fill="var(--fill-0, #D0D5DD)"/>
<path id="Rectangle 2391_2" d="M41.7756 24.1179L59.3617 33.888L47.7907 40.2934L30.6098 30.5383L41.7756 24.1179Z" fill="var(--fill-0, #FFDD33)" stroke="var(--stroke-0, #1D2939)" stroke-width="0.577405" stroke-linejoin="round"/>
<path id="Rectangle 2389_2" d="M27.4583 63.9763L48.1486 75.3692L48.1486 40.3428L28.037 28.9441L27.4583 63.9763Z" fill="var(--fill-0, #D0D5DD)" stroke="var(--stroke-0, #1D2939)" stroke-width="0.577405" stroke-linejoin="round"/>
<path id="Rectangle 2390_2" d="M62.002 67.5164L62.1026 32.1994L48.148 40.323L48.148 75.3496L62.002 67.5164Z" fill="var(--fill-0, white)" stroke="var(--stroke-0, #1D2939)" stroke-width="0.577405" stroke-linejoin="round"/>
<path id="Rectangle 2393_2" d="M52.9956 46.1924L53.0119 40.4184L50.7472 41.7367L50.7472 47.3472L52.9956 46.1924Z" fill="var(--fill-0, white)" stroke="var(--stroke-0, #1D2939)" stroke-width="0.577405" stroke-linejoin="round"/>
<path id="Rectangle 2395_2" d="M55.3044 45.0376L55.3215 38.9749L53.0559 40.4183L53.0561 46.1924L55.3044 45.0376Z" fill="var(--fill-0, white)" stroke="var(--stroke-0, #1D2939)" stroke-width="0.577405" stroke-linejoin="round"/>
<path id="Rectangle 2397_2" d="M59.3756 42.4393L59.3927 36.3765L57.1271 37.82L57.1273 43.5941L59.3756 42.4393Z" fill="var(--fill-0, #FFDD33)" stroke="var(--stroke-0, #1D2939)" stroke-width="0.577405" stroke-linejoin="round"/>
<path id="Rectangle 2398_2" d="M59.3756 60.9162L59.3927 54.8535L57.1271 56.297L57.1273 62.071L59.3756 60.9162Z" fill="var(--fill-0, white)" stroke="var(--stroke-0, #1D2939)" stroke-width="0.577405" stroke-linejoin="round"/>
<path id="Rectangle 2394_2" d="M52.9963 51.9234L53.0116 46.1923L50.7482 47.3472L50.748 53.1946L52.9963 51.9234Z" fill="var(--fill-0, white)" stroke="var(--stroke-0, #1D2939)" stroke-width="0.577405" stroke-linejoin="round"/>
<path id="Rectangle 2396_2" d="M55.306 50.5229L55.3213 45.0375L53.0578 46.1924L53.0578 51.8836L55.306 50.5229Z" fill="var(--fill-0, white)" stroke="var(--stroke-0, #1D2939)" stroke-width="0.577405" stroke-linejoin="round"/>
<path id="Rectangle 2392_2" d="M54.7177 71.611L54.7381 64.4526C54.7418 63.177 53.3572 62.379 52.2543 63.0211C51.3408 63.5529 50.7791 64.5296 50.7791 65.5861L50.7791 73.838L54.7177 71.611Z" fill="var(--fill-0, #D0D5DD)" stroke="var(--stroke-0, #1D2939)" stroke-width="0.577405" stroke-linejoin="round"/>
<path id="Rectangle 2400_2" d="M53.1215 72.4644L53.1415 64.7088C53.1435 63.9354 52.295 63.4597 51.6356 63.8645C51.1094 64.1876 50.7888 64.7604 50.7888 65.3777L50.7888 73.8408L53.1215 72.4644Z" fill="var(--fill-0, #1D2939)" stroke="var(--stroke-0, #1D2939)" stroke-width="0.577405" stroke-linejoin="round"/>
<path id="Vector 989_2" d="M28.0042 46.7698L48.2133 58.0292L62.0711 50.2343" stroke="var(--stroke-0, #1D2939)" stroke-width="0.577405" stroke-linecap="round"/>
</g>
<g id="Group 5477">
<path id="Rectangle 2388_3" d="M97.8987 23.2473L118.111 34.5108L104.156 42.6345L84.0447 31.2358L97.8987 23.2473Z" fill="var(--fill-0, white)" stroke="var(--stroke-0, #1D2939)" stroke-width="0.577405" stroke-linejoin="round"/>
<path id="Rectangle 2399_3" d="M97.8702 26.2707L115.192 35.7979L117.79 34.3544L97.8702 23.6723L97.8702 26.2707Z" fill="var(--fill-0, #D0D5DD)"/>
<path id="Rectangle 2391_3" d="M97.7839 26.4275L115.37 36.1977L103.799 42.603L86.6181 32.8479L97.7839 26.4275Z" fill="var(--fill-0, #FFDD33)" stroke="var(--stroke-0, #1D2939)" stroke-width="0.577405" stroke-linejoin="round"/>
<path id="Rectangle 2389_3" d="M83.4666 66.2859L104.157 77.6788L104.157 42.6524L84.0453 31.2537L83.4666 66.2859Z" fill="var(--fill-0, #D0D5DD)" stroke="var(--stroke-0, #1D2939)" stroke-width="0.577405" stroke-linejoin="round"/>
<path id="Rectangle 2390_3" d="M118.01 69.826L118.111 34.509L104.156 42.6327L104.156 77.6592L118.01 69.826Z" fill="var(--fill-0, white)" stroke="var(--stroke-0, #1D2939)" stroke-width="0.577405" stroke-linejoin="round"/>
<path id="Rectangle 2393_3" d="M109.004 48.502L109.02 42.728L106.756 44.0464L106.756 49.6569L109.004 48.502Z" fill="var(--fill-0, white)" stroke="var(--stroke-0, #1D2939)" stroke-width="0.577405" stroke-linejoin="round"/>
<path id="Rectangle 2395_3" d="M111.313 47.3472L111.33 41.2845L109.064 42.728L109.064 48.502L111.313 47.3472Z" fill="var(--fill-0, white)" stroke="var(--stroke-0, #1D2939)" stroke-width="0.577405" stroke-linejoin="round"/>
<path id="Rectangle 2397_3" d="M115.384 44.7489L115.401 38.6861L113.135 40.1296L113.136 45.9037L115.384 44.7489Z" fill="var(--fill-0, #FFDD33)" stroke="var(--stroke-0, #1D2939)" stroke-width="0.577405" stroke-linejoin="round"/>
<path id="Rectangle 2398_3" d="M115.384 63.2258L115.401 57.1631L113.135 58.6066L113.136 64.3807L115.384 63.2258Z" fill="var(--fill-0, white)" stroke="var(--stroke-0, #1D2939)" stroke-width="0.577405" stroke-linejoin="round"/>
<path id="Rectangle 2394_3" d="M109.005 54.233L109.02 48.502L106.757 49.6568L106.756 55.5043L109.005 54.233Z" fill="var(--fill-0, white)" stroke="var(--stroke-0, #1D2939)" stroke-width="0.577405" stroke-linejoin="round"/>
<path id="Rectangle 2396_3" d="M111.314 52.8325L111.33 47.3472L109.066 48.502L109.066 54.1932L111.314 52.8325Z" fill="var(--fill-0, white)" stroke="var(--stroke-0, #1D2939)" stroke-width="0.577405" stroke-linejoin="round"/>
<path id="Rectangle 2392_3" d="M110.726 73.9206L110.746 66.7622C110.75 65.4866 109.366 64.6887 108.263 65.3307C107.349 65.8625 106.787 66.8392 106.787 67.8957L106.787 76.1476L110.726 73.9206Z" fill="var(--fill-0, #D0D5DD)" stroke="var(--stroke-0, #1D2939)" stroke-width="0.577405" stroke-linejoin="round"/>
<path id="Rectangle 2400_3" d="M109.13 74.774L109.15 67.0184C109.152 66.245 108.303 65.7693 107.644 66.1741C107.118 66.4972 106.797 67.07 106.797 67.6873L106.797 76.1504L109.13 74.774Z" fill="var(--fill-0, #1D2939)" stroke="var(--stroke-0, #1D2939)" stroke-width="0.577405" stroke-linejoin="round"/>
<path id="Vector 989_3" d="M84.0125 49.0794L104.222 60.3388L118.079 52.5439" stroke="var(--stroke-0, #1D2939)" stroke-width="0.577405" stroke-linecap="round"/>
</g>
<g id="Group 5476">
<path id="Rectangle 2388_4" d="M72.4929 38.2599L92.7051 49.5234L78.7505 57.647L58.6389 46.2483L72.4929 38.2599Z" fill="var(--fill-0, white)" stroke="var(--stroke-0, #1D2939)" stroke-width="0.577405" stroke-linejoin="round"/>
<path id="Rectangle 2399_4" d="M72.4644 41.2832L89.7861 50.8104L92.3844 49.3669L72.4643 38.6849L72.4644 41.2832Z" fill="var(--fill-0, #D0D5DD)"/>
<path id="Rectangle 2391_4" d="M72.3781 41.4401L89.9642 51.2102L78.3932 57.6155L61.2122 47.8604L72.3781 41.4401Z" fill="var(--fill-0, #FFDD33)" stroke="var(--stroke-0, #1D2939)" stroke-width="0.577405" stroke-linejoin="round"/>
<path id="Rectangle 2389_4" d="M58.0608 81.2985L78.7511 92.6914L78.7511 57.6649L58.6395 46.2663L58.0608 81.2985Z" fill="var(--fill-0, #D0D5DD)" stroke="var(--stroke-0, #1D2939)" stroke-width="0.577405" stroke-linejoin="round"/>
<path id="Rectangle 2390_4" d="M92.6045 84.8385L92.7051 49.5215L78.7505 57.6452L78.7505 92.6718L92.6045 84.8385Z" fill="var(--fill-0, white)" stroke="var(--stroke-0, #1D2939)" stroke-width="0.577405" stroke-linejoin="round"/>
<path id="Rectangle 2393_4" d="M83.598 63.5146L83.6144 57.7405L81.3497 59.0589L81.3497 64.6694L83.598 63.5146Z" fill="var(--fill-0, white)" stroke="var(--stroke-0, #1D2939)" stroke-width="0.577405" stroke-linejoin="round"/>
<path id="Rectangle 2395_4" d="M85.9069 62.3597L85.924 56.297L83.6584 57.7405L83.6586 63.5146L85.9069 62.3597Z" fill="var(--fill-0, white)" stroke="var(--stroke-0, #1D2939)" stroke-width="0.577405" stroke-linejoin="round"/>
<path id="Rectangle 2397_4" d="M89.9781 59.7614L89.9951 53.6987L87.7296 55.1422L87.7297 60.9162L89.9781 59.7614Z" fill="var(--fill-0, #FFDD33)" stroke="var(--stroke-0, #1D2939)" stroke-width="0.577405" stroke-linejoin="round"/>
<path id="Rectangle 2398_4" d="M89.9781 78.2384L89.9951 72.1757L87.7296 73.6192L87.7297 79.3932L89.9781 78.2384Z" fill="var(--fill-0, white)" stroke="var(--stroke-0, #1D2939)" stroke-width="0.577405" stroke-linejoin="round"/>
<path id="Rectangle 2394_4" d="M83.5988 69.2455L83.6141 63.5145L81.3507 64.6694L81.3505 70.5168L83.5988 69.2455Z" fill="var(--fill-0, white)" stroke="var(--stroke-0, #1D2939)" stroke-width="0.577405" stroke-linejoin="round"/>
<path id="Rectangle 2396_4" d="M85.9084 67.845L85.9237 62.3597L83.6603 63.5145L83.6603 69.2058L85.9084 67.845Z" fill="var(--fill-0, white)" stroke="var(--stroke-0, #1D2939)" stroke-width="0.577405" stroke-linejoin="round"/>
<path id="Rectangle 2392_4" d="M85.3202 88.9331L85.3406 81.7748C85.3443 80.4991 83.9597 79.7012 82.8567 80.3433C81.9433 80.8751 81.3815 81.8517 81.3815 82.9082L81.3815 91.1602L85.3202 88.9331Z" fill="var(--fill-0, #D0D5DD)" stroke="var(--stroke-0, #1D2939)" stroke-width="0.577405" stroke-linejoin="round"/>
<path id="Rectangle 2400_4" d="M83.724 89.7866L83.744 82.0309C83.746 81.2575 82.8975 80.7818 82.2381 81.1866C81.7119 81.5097 81.3913 82.0826 81.3913 82.6998L81.3913 91.1629L83.724 89.7866Z" fill="var(--fill-0, #1D2939)" stroke="var(--stroke-0, #1D2939)" stroke-width="0.577405" stroke-linejoin="round"/>
<path id="Vector 989_4" d="M58.6066 64.092L78.8158 75.3514L92.6735 67.5564" stroke="var(--stroke-0, #1D2939)" stroke-width="0.577405" stroke-linecap="round"/>
</g>
</g>
</svg>
