<svg preserveAspectRatio="none" width="100%" height="100%" overflow="visible" style="display: block;" viewBox="0 0 63.785 45.3572" fill="none" xmlns="http://www.w3.org/2000/svg">
<g id="Group 5693">
<path id="Rectangle 2689" d="M59.3744 42.2518C60.0592 43.6092 58.9915 45.1903 57.4772 45.0611L21.2806 41.9738C19.2987 41.8048 17.5492 40.6091 16.672 38.8231L1.42816 7.78578C0.760255 6.4259 1.83537 4.85955 3.34369 4.99524L39.2156 8.22935C41.1653 8.40519 42.8869 9.57541 43.7691 11.3238L59.3744 42.2518Z" fill="var(--fill-0, white)" stroke="var(--stroke-0, #1D2939)" stroke-width="0.577405"/>
<path id="Rectangle 2696" d="M57.3701 42.1245C57.6175 42.615 57.2323 43.1859 56.6852 43.1395L22.3044 40.208C20.3225 40.039 18.5731 38.8423 17.6959 37.0563L4.15972 9.49603C3.49176 8.13604 4.56674 6.56951 6.07525 6.70548L37.9574 9.5801C39.9071 9.75588 41.6287 10.9261 42.5108 12.6745L57.3701 42.1245Z" fill="var(--fill-0, #D0D5DD)" stroke="var(--stroke-0, #1D2939)" stroke-width="0.577405"/>
<g id="Vector 3721">
<path d="M4.33143 1.27045L1.52115 5.8897C1.21268 6.40656 1.31737 7.29506 1.5214 7.70855L16.2004 37.5834C16.2004 37.5834 16.9269 39.7543 19.0978 41.0981C19.0978 40.2453 19.2679 39.626 19.5507 39.0905C21.0763 37.0666 22.2311 37.0666 24.0597 37.0666L4.33143 1.27045Z" fill="var(--fill-0, #D0D5DD)"/>
<path d="M1.52115 5.8897L1.2745 5.73964L1.27324 5.74174L1.52115 5.8897ZM4.33143 1.27045L4.58427 1.1311C4.53456 1.04091 4.44057 0.984024 4.33761 0.981818C4.23465 0.979611 4.13831 1.03242 4.08478 1.1204L4.33143 1.27045ZM24.0597 37.0666V37.3553H24.5484L24.3125 36.9272L24.0597 37.0666ZM19.0978 41.0981L18.9458 41.3436L19.3865 41.6164V41.0981H19.0978ZM16.2004 37.5834L16.4742 37.4918L16.468 37.4735L16.4595 37.4561L16.2004 37.5834ZM1.5214 7.70855L1.78051 7.58123L1.7803 7.5808L1.5214 7.70855ZM19.5507 39.0905L19.3201 38.9167L19.3062 38.9352L19.2954 38.9557L19.5507 39.0905ZM1.52115 5.8897L1.76779 6.03975L4.57807 1.42051L4.33143 1.27045L4.08478 1.1204L1.27451 5.73964L1.52115 5.8897ZM4.33143 1.27045L4.07858 1.4098L23.8068 37.2059L24.0597 37.0666L24.3125 36.9272L4.58427 1.1311L4.33143 1.27045ZM19.0978 41.0981L19.2497 40.8526C18.2111 40.2097 17.5153 39.367 17.0785 38.6817C16.8604 38.3395 16.708 38.0384 16.6107 37.8242C16.562 37.7172 16.5273 37.6321 16.5049 37.5747C16.4938 37.546 16.4858 37.5243 16.4807 37.5102C16.4781 37.5032 16.4764 37.4981 16.4753 37.495C16.4747 37.4934 16.4744 37.4924 16.4742 37.4918C16.4741 37.4916 16.4741 37.4914 16.4741 37.4914C16.4741 37.4914 16.4741 37.4915 16.4741 37.4915C16.4741 37.4916 16.4741 37.4916 16.4741 37.4916C16.4742 37.4917 16.4742 37.4918 16.2004 37.5834C15.9266 37.6751 15.9267 37.6752 15.9267 37.6753C15.9267 37.6753 15.9268 37.6754 15.9268 37.6755C15.9269 37.6757 15.9269 37.676 15.927 37.6762C15.9272 37.6767 15.9274 37.6774 15.9277 37.6782C15.9282 37.6797 15.9289 37.6818 15.9298 37.6844C15.9316 37.6896 15.9342 37.6969 15.9375 37.7061C15.9441 37.7245 15.9538 37.7507 15.9668 37.784C15.9927 37.8506 16.0316 37.9456 16.085 38.0631C16.1917 38.2979 16.3567 38.6235 16.5916 38.992C17.0607 39.7281 17.8136 40.6427 18.9458 41.3436L19.0978 41.0981ZM16.2004 37.5834L16.4595 37.4561L1.78051 7.58123L1.5214 7.70855L1.26229 7.83587L15.9413 37.7107L16.2004 37.5834ZM1.5214 7.70855L1.7803 7.5808C1.70062 7.41932 1.62956 7.1359 1.61757 6.82671C1.6055 6.51532 1.65534 6.2282 1.76906 6.03765L1.52115 5.8897L1.27324 5.74174C1.07849 6.06806 1.02644 6.48362 1.0406 6.84907C1.05485 7.21672 1.13815 7.58429 1.2625 7.8363L1.5214 7.70855ZM24.0597 37.0666V36.7779C23.1569 36.7779 22.3582 36.7748 21.5944 37.0477C20.8171 37.3255 20.1047 37.8759 19.3201 38.9167L19.5507 39.0905L19.7812 39.2643C20.5223 38.2812 21.1502 37.8196 21.7887 37.5914C22.441 37.3584 23.134 37.3553 24.0597 37.3553V37.0666ZM19.5507 39.0905L19.2954 38.9557C18.9889 39.5362 18.8091 40.2024 18.8091 41.0981H19.0978H19.3865C19.3865 40.2882 19.547 39.7158 19.806 39.2253L19.5507 39.0905Z" fill="var(--stroke-0, #1D2939)"/>
</g>
<path id="Rectangle 2690" d="M62.4803 34.4613C63.1291 35.7531 62.1911 37.2744 60.7462 37.2744L24.5999 37.2747C22.4383 37.2747 20.4635 36.0442 19.5101 34.1031L4.27677 3.08639C3.64287 1.79575 4.58038 0.289262 6.01756 0.289036L41.8211 0.288802C43.9645 0.28892 45.9255 1.49893 46.8879 3.41524L62.4803 34.4613Z" fill="var(--fill-0, white)" stroke="var(--stroke-0, #1D2939)" stroke-width="0.577405"/>
<path id="Rectangle 2691" d="M57.5527 19.0128C58.206 20.3049 57.2687 21.8307 55.8215 21.8308L46.7927 21.8307C44.6243 21.8307 42.6443 20.5927 41.6943 18.6424L40.5391 16.2701C39.9107 14.9798 40.8492 13.4777 42.2838 13.4777L51.2676 13.4782C53.4057 13.4782 55.3636 14.682 56.3287 16.5909L57.5527 19.0128Z" fill="var(--fill-0, white)" stroke="var(--stroke-0, #1D2939)" stroke-width="0.577405"/>
<path id="Rectangle 2692" d="M47.8677 17.364C48.2481 18.1164 47.7019 19.0053 46.8591 19.0053C45.7004 19.005 44.6423 18.3434 44.1347 17.3013L44.0553 17.1373C43.6899 16.3865 44.2358 15.5126 45.0705 15.5127C46.212 15.5127 47.2566 16.1562 47.7719 17.1754L47.8677 17.364Z" fill="var(--fill-0, #FFDD33)" stroke="var(--stroke-0, #1D2939)" stroke-width="0.577405"/>
</g>
</svg>
