<svg preserveAspectRatio="none" width="100%" height="100%" overflow="visible" style="display: block;" viewBox="0 0 18.6594 13.8555" fill="none" xmlns="http://www.w3.org/2000/svg">
<g id="Group 5486">
<g id="Union">
<mask id="path-1-inside-1_4429_93529" fill="white">
<path d="M9.33008 0C14.4187 3.74838e-05 18.5526 2.33498 18.6543 5.2373H18.6592V8.83887H18.6396C18.3423 11.6381 14.2883 13.8555 9.3291 13.8555C4.37002 13.8554 0.315815 11.6381 0.0185547 8.83887H0V5.2373H0.00585938C0.107594 2.33496 4.24142 0 9.33008 0Z"/>
</mask>
<path d="M9.33008 0C14.4187 3.74838e-05 18.5526 2.33498 18.6543 5.2373H18.6592V8.83887H18.6396C18.3423 11.6381 14.2883 13.8555 9.3291 13.8555C4.37002 13.8554 0.315815 11.6381 0.0185547 8.83887H0V5.2373H0.00585938C0.107594 2.33496 4.24142 0 9.33008 0Z" fill="var(--fill-0, #1D2939)"/>
<path d="M9.33008 0L9.33008 -0.577405H9.33008V0ZM18.6543 5.2373L18.0772 5.25753L18.0968 5.81471H18.6543V5.2373ZM18.6592 5.2373H19.2366V4.6599H18.6592V5.2373ZM18.6592 8.83887V9.41627H19.2366V8.83887H18.6592ZM18.6396 8.83887V8.26146H18.1203L18.0655 8.77788L18.6396 8.83887ZM9.3291 13.8555L9.32909 14.4329H9.3291V13.8555ZM0.0185547 8.83887L0.592731 8.77789L0.537889 8.26146H0.0185547V8.83887ZM0 8.83887H-0.577405V9.41627H0V8.83887ZM0 5.2373V4.6599H-0.577405V5.2373H0ZM0.00585938 5.2373V5.81471H0.56338L0.58291 5.25753L0.00585938 5.2373ZM9.33008 0L9.33007 0.577405C11.793 0.577423 13.9976 1.14365 15.5791 2.03351C17.1769 2.9325 18.0365 4.0936 18.0772 5.25753L18.6543 5.2373L19.2313 5.21708C19.1704 3.47869 17.9122 2.02115 16.1454 1.02708C14.3624 0.0238757 11.9558 -0.577386 9.33008 -0.577405L9.33008 0ZM18.6543 5.2373V5.81471H18.6592V5.2373V4.6599H18.6543V5.2373ZM18.6592 5.2373H18.0818V8.83887H18.6592H19.2366V5.2373H18.6592ZM18.6592 8.83887V8.26146H18.6396V8.83887V9.41627H18.6592V8.83887ZM18.6396 8.83887L18.0655 8.77788C17.9454 9.90838 17.047 11.0288 15.4577 11.8891C13.8847 12.7405 11.7289 13.2781 9.3291 13.2781V13.8555V14.4329C11.8885 14.4329 14.2393 13.8617 16.0074 12.9047C17.7593 11.9564 19.0366 10.5686 19.2138 8.89985L18.6396 8.83887ZM9.3291 13.8555L9.32911 13.2781C6.92939 13.278 4.77353 12.7405 3.2005 11.889C1.61114 11.0288 0.71278 9.90836 0.592731 8.77789L0.0185547 8.83887L-0.555622 8.89984C-0.378411 10.5686 0.898961 11.9564 2.65079 12.9046C4.41895 13.8617 6.76974 14.4328 9.32909 14.4329L9.3291 13.8555ZM0.0185547 8.83887V8.26146H0V8.83887V9.41627H0.0185547V8.83887ZM0 8.83887H0.577405V5.2373H0H-0.577405V8.83887H0ZM0 5.2373V5.81471H0.00585938V5.2373V4.6599H0V5.2373ZM0.00585938 5.2373L0.58291 5.25753C0.62371 4.09358 1.48327 2.93248 3.08101 2.03349C4.66255 1.14363 6.86715 0.577405 9.33008 0.577405V0V-0.577405C6.70435 -0.577405 4.29771 0.0238513 2.51473 1.02705C0.747969 2.02114 -0.510256 3.47868 -0.571191 5.21708L0.00585938 5.2373Z" fill="var(--stroke-0, #1D2939)" mask="url(#path-1-inside-1_4429_93529)"/>
</g>
<path id="Vector 1010" d="M1.41788 11.3466V8.18222L1.85434 8.50957V11.7285L1.41788 11.3466Z" fill="var(--fill-0, #FFDD33)"/>
<path id="Ellipse 923" d="M9.32964 0.289062C11.8648 0.289062 14.1466 0.878138 15.7837 1.81641C17.4287 2.75925 18.3707 4.0182 18.3707 5.34668C18.3707 6.67516 17.4287 7.93411 15.7837 8.87695C14.1466 9.81522 11.8648 10.4043 9.32964 10.4043C6.79459 10.4042 4.51363 9.81518 2.87652 8.87695C1.23135 7.9341 0.289605 6.67523 0.289605 5.34668C0.289606 4.01813 1.23135 2.75926 2.87652 1.81641C4.51363 0.878177 6.79459 0.289111 9.32964 0.289062Z" fill="var(--fill-0, #FFDD33)" stroke="var(--stroke-0, #1D2939)" stroke-width="0.577405"/>
<path id="Ellipse 924" d="M9.33017 1.5984C11.2325 1.59841 12.9407 2.04069 14.1632 2.74195C15.3936 3.44775 16.0791 4.37939 16.0792 5.34644C16.0792 6.31352 15.3935 7.2451 14.1632 7.95094C12.9407 8.6522 11.2325 9.09545 9.33017 9.09547C7.42781 9.09547 5.71966 8.65221 4.49716 7.95094C3.26671 7.24509 2.58115 6.31356 2.58115 5.34644C2.58123 4.37939 3.26679 3.44775 4.49716 2.74195C5.71965 2.04073 7.42789 1.5984 9.33017 1.5984Z" fill="var(--fill-0, #D0D5DD)" stroke="var(--stroke-0, #1D2939)" stroke-width="0.577405"/>
<path id="Ellipse 925" d="M9.05743 1.9246C10.8842 1.92467 12.524 2.34872 13.6971 3.0203C14.8783 3.69665 15.533 4.58791 15.533 5.50956C15.5328 6.43107 14.8781 7.3216 13.6971 7.99784C12.524 8.66946 10.8843 9.09446 9.05743 9.09452C7.23037 9.09452 5.58997 8.66954 4.41681 7.99784C3.23576 7.3216 2.58106 6.43107 2.58087 5.50956C2.58087 4.58791 3.23558 3.69665 4.41681 3.0203C5.58996 2.34864 7.23041 1.9246 9.05743 1.9246Z" fill="var(--fill-0, #FFDD33)" stroke="var(--stroke-0, #1D2939)" stroke-width="0.577405"/>
</g>
</svg>
