<svg preserveAspectRatio="none" width="100%" height="100%" overflow="visible" style="display: block;" viewBox="0 0 144.527 142.669" fill="none" xmlns="http://www.w3.org/2000/svg">
<g id="Group 5497">
<path id="Rectangle 2377" d="M64.4761 44.8057C69.1034 42.1375 74.8026 42.1274 79.4423 44.7792L136.043 77.1286C139.132 78.8939 139.151 83.3365 136.078 85.1254L79.4747 118.077C74.7909 120.804 68.9983 120.796 64.319 118.056L8.22024 85.2128C5.16136 83.422 5.17417 79.0004 8.24337 77.2306L64.4761 44.8057Z" fill="var(--fill-0, #FFDD33)"/>
<g id="Union">
<mask id="path-2-outside-1_4429_93276" maskUnits="userSpaceOnUse" x="2.61885" y="-0.844983" width="140" height="112" fill="black">
<rect fill="white" x="2.61885" y="-0.844983" width="140" height="112"/>
<path fill-rule="evenodd" clip-rule="evenodd" d="M62.0634 21.6648C61.5897 20.8316 61.8821 19.7714 62.7159 19.2989L94.3377 1.38034C95.1718 0.907692 96.2304 1.20288 96.6996 2.03894L110.819 27.1975C111.285 28.027 110.995 29.0775 110.17 29.5506L97.5723 36.7727L103.282 40.037L114.093 33.8031C114.805 33.3927 115.681 33.3911 116.395 33.7989L140.013 47.2942C140.785 47.7355 140.79 48.8462 140.021 49.2935L129.839 55.221L137.46 59.5779C138.893 60.3971 139.665 61.7913 139.775 63.2292H139.788V63.5402C139.789 63.5715 139.789 63.6028 139.788 63.6341V70.1401C139.804 71.7025 139.041 73.2712 137.496 74.1695L79.5556 107.857C74.8684 110.583 69.0703 110.572 64.3872 107.829L6.90584 74.1658C5.14011 73.1317 4.39767 71.2227 4.67563 69.4534V64.31C4.39622 62.531 5.14814 60.6141 6.92847 59.5888L64.4882 26.4405C64.5613 26.3984 64.6347 26.357 64.7083 26.3162L62.0634 21.6648Z"/>
</mask>
<path fill-rule="evenodd" clip-rule="evenodd" d="M62.0634 21.6648C61.5897 20.8316 61.8821 19.7714 62.7159 19.2989L94.3377 1.38034C95.1718 0.907692 96.2304 1.20288 96.6996 2.03894L110.819 27.1975C111.285 28.027 110.995 29.0775 110.17 29.5506L97.5723 36.7727L103.282 40.037L114.093 33.8031C114.805 33.3927 115.681 33.3911 116.395 33.7989L140.013 47.2942C140.785 47.7355 140.79 48.8462 140.021 49.2935L129.839 55.221L137.46 59.5779C138.893 60.3971 139.665 61.7913 139.775 63.2292H139.788V63.5402C139.789 63.5715 139.789 63.6028 139.788 63.6341V70.1401C139.804 71.7025 139.041 73.2712 137.496 74.1695L79.5556 107.857C74.8684 110.583 69.0703 110.572 64.3872 107.829L6.90584 74.1658C5.14011 73.1317 4.39767 71.2227 4.67563 69.4534V64.31C4.39622 62.531 5.14814 60.6141 6.92847 59.5888L64.4882 26.4405C64.5613 26.3984 64.6347 26.357 64.7083 26.3162L62.0634 21.6648Z" fill="white"/>
<path d="M62.7159 19.2989L63.2853 20.3036V20.3036L62.7159 19.2989ZM62.0634 21.6648L63.0673 21.0939V21.0939L62.0634 21.6648ZM94.3377 1.38034L93.7683 0.37562V0.375621L94.3377 1.38034ZM96.6996 2.03894L97.7067 1.47375V1.47375L96.6996 2.03894ZM110.819 27.1975L111.826 26.6323V26.6323L110.819 27.1975ZM110.17 29.5506L110.744 30.5525V30.5525L110.17 29.5506ZM97.5723 36.7727L96.998 35.7708L95.2481 36.774L96.9991 37.7752L97.5723 36.7727ZM103.282 40.037L102.709 41.0395L103.284 41.3686L103.859 41.0374L103.282 40.037ZM114.093 33.8031L114.67 34.8036L114.67 34.8036L114.093 33.8031ZM116.395 33.7989L115.822 34.8016V34.8016L116.395 33.7989ZM140.013 47.2942L139.44 48.2969V48.2969L140.013 47.2942ZM140.021 49.2935L139.44 48.2955V48.2955L140.021 49.2935ZM129.839 55.221L129.258 54.2229L127.529 55.23L129.266 56.2235L129.839 55.221ZM137.46 59.5779L136.887 60.5804V60.5804L137.46 59.5779ZM139.775 63.2292L138.624 63.3171L138.705 64.384H139.775V63.2292ZM139.788 63.2292H140.943V62.0744H139.788V63.2292ZM139.788 63.5402H138.634L138.634 63.5515L139.788 63.5402ZM139.788 63.6341L138.634 63.6229V63.6341H139.788ZM139.788 70.1401H138.634L138.634 70.1516L139.788 70.1401ZM137.496 74.1695L138.076 75.1678V75.1678L137.496 74.1695ZM79.5556 107.857L78.9751 106.859V106.859L79.5556 107.857ZM64.3872 107.829L63.8036 108.826V108.826L64.3872 107.829ZM6.90584 74.1658L7.48943 73.1693H7.48943L6.90584 74.1658ZM4.67563 69.4534L5.81645 69.6326L5.83044 69.5435V69.4534H4.67563ZM4.67563 64.31H5.83044V64.2198L5.81646 64.1308L4.67563 64.31ZM6.92847 59.5888L6.35216 58.5881H6.35216L6.92847 59.5888ZM64.4882 26.4405L65.0645 27.4412L65.0645 27.4412L64.4882 26.4405ZM64.7083 26.3162L65.2677 27.3264L66.2895 26.7606L65.7122 25.7454L64.7083 26.3162ZM62.7159 19.2989L62.1466 18.2942C60.7573 19.0814 60.2702 20.8474 61.0596 22.2356L62.0634 21.6648L63.0673 21.0939C62.9091 20.8158 63.0069 20.4613 63.2853 20.3036L62.7159 19.2989ZM94.3377 1.38034L93.7683 0.375621L62.1466 18.2942L62.7159 19.2989L63.2853 20.3036L94.907 2.38505L94.3377 1.38034ZM96.6996 2.03894L97.7067 1.47375C96.9244 0.0799164 95.159 -0.412381 93.7683 0.37562L94.3377 1.38034L94.907 2.38506C95.1846 2.22776 95.5364 2.32584 95.6926 2.60413L96.6996 2.03894ZM110.819 27.1975L111.826 26.6323L97.7067 1.47375L96.6996 2.03894L95.6926 2.60413L109.812 27.7627L110.819 27.1975ZM110.17 29.5506L110.744 30.5525C112.119 29.7642 112.602 28.0144 111.826 26.6323L110.819 27.1975L109.812 27.7627C109.968 28.0396 109.871 28.3908 109.595 28.5488L110.17 29.5506ZM97.5723 36.7727L98.1467 37.7745L110.744 30.5525L110.17 29.5506L109.595 28.5488L96.998 35.7708L97.5723 36.7727ZM103.282 40.037L103.855 39.0345L98.1455 35.7702L97.5723 36.7727L96.9991 37.7752L102.709 41.0395L103.282 40.037ZM114.093 33.8031L113.516 32.8027L102.705 39.0366L103.282 40.037L103.859 41.0374L114.67 34.8036L114.093 33.8031ZM116.395 33.7989L116.968 32.7963C115.898 32.1849 114.584 32.1871 113.516 32.8027L114.093 33.8031L114.67 34.8036C115.026 34.5983 115.465 34.5973 115.822 34.8016L116.395 33.7989ZM140.013 47.2942L140.585 46.2916L116.968 32.7963L116.395 33.7989L115.822 34.8016L139.44 48.2969L140.013 47.2942ZM140.021 49.2935L140.602 50.2915C142.141 49.3961 142.129 47.1735 140.585 46.2916L140.013 47.2942L139.44 48.2969C139.445 48.3001 139.446 48.3014 139.444 48.2998C139.443 48.2984 139.441 48.2964 139.44 48.2945C139.439 48.2912 139.44 48.2919 139.44 48.2968C139.44 48.3016 139.439 48.3022 139.441 48.2986C139.442 48.2965 139.443 48.2944 139.445 48.2928C139.446 48.2911 139.446 48.2923 139.44 48.2955L140.021 49.2935ZM129.839 55.221L130.42 56.219L140.602 50.2915L140.021 49.2935L139.44 48.2955L129.258 54.2229L129.839 55.221ZM137.46 59.5779L138.033 58.5754L130.413 54.2184L129.839 55.221L129.266 56.2235L136.887 60.5804L137.46 59.5779ZM139.775 63.2292L140.926 63.1413C140.789 61.3473 139.82 59.5972 138.033 58.5754L137.46 59.5779L136.887 60.5804C137.965 61.197 138.541 62.2353 138.624 63.3171L139.775 63.2292ZM139.788 63.2292V62.0744H139.775V63.2292V64.384H139.788V63.2292ZM139.788 63.5402H140.943V63.2292H139.788H138.634V63.5402H139.788ZM139.788 63.6341L140.943 63.6454C140.944 63.6066 140.944 63.5678 140.943 63.5289L139.788 63.5402L138.634 63.5515C138.634 63.5753 138.634 63.5991 138.634 63.6229L139.788 63.6341ZM139.788 70.1401H140.943V63.6341H139.788H138.634V70.1401H139.788ZM137.496 74.1695L138.076 75.1678C140.007 74.0454 140.963 72.075 140.943 70.1287L139.788 70.1401L138.634 70.1516C138.645 71.33 138.075 72.497 136.915 73.1712L137.496 74.1695ZM79.5556 107.857L80.1361 108.856L138.076 75.1678L137.496 74.1695L136.915 73.1712L78.9751 106.859L79.5556 107.857ZM64.3872 107.829L63.8036 108.826C68.8456 111.779 75.0884 111.791 80.1361 108.856L79.5556 107.857L78.9751 106.859C74.6483 109.375 69.295 109.365 64.9708 106.833L64.3872 107.829ZM6.90584 74.1658L6.32225 75.1623L63.8036 108.826L64.3872 107.829L64.9708 106.833L7.48943 73.1693L6.90584 74.1658ZM4.67563 69.4534L3.53481 69.2742C3.18919 71.4742 4.11402 73.8691 6.32225 75.1623L6.90584 74.1658L7.48943 73.1693C6.1662 72.3944 5.60615 70.9713 5.81645 69.6326L4.67563 69.4534ZM4.67563 64.31H3.52082V69.4534H4.67563H5.83044V64.31H4.67563ZM6.92847 59.5888L6.35216 58.5881C4.12381 59.8714 3.18746 62.2777 3.53481 64.4892L4.67563 64.31L5.81646 64.1308C5.60498 62.7844 6.17247 61.3568 7.50479 60.5895L6.92847 59.5888ZM64.4882 26.4405L63.9118 25.4398L6.35216 58.5881L6.92847 59.5888L7.50478 60.5895L65.0645 27.4412L64.4882 26.4405ZM64.7083 26.3162L64.1489 25.3059C64.0696 25.3498 63.9906 25.3944 63.9118 25.4398L64.4882 26.4405L65.0645 27.4412C65.132 27.4023 65.1997 27.3641 65.2677 27.3264L64.7083 26.3162ZM62.0634 21.6648L61.0596 22.2356L63.7044 26.887L64.7083 26.3162L65.7122 25.7454L63.0673 21.0939L62.0634 21.6648Z" fill="var(--stroke-0, #1D2939)" mask="url(#path-2-outside-1_4429_93276)"/>
</g>
<g id="Mask group">
<mask id="mask0_4429_93276" style="mask-type:alpha" maskUnits="userSpaceOnUse" x="4" y="24" width="69" height="87">
<rect id="Rectangle 2401" x="4.61924" y="24.1957" width="67.5564" height="86.0334" fill="var(--fill-0, #D0D8DC)"/>
</mask>
<g mask="url(#mask0_4429_93276)">
<path id="Rectangle 2372" d="M64.433 33.04C69.0637 30.3732 74.7683 30.3658 79.4118 33.0207L137.405 66.1774C140.494 67.9435 140.514 72.3826 137.44 74.1695L79.5004 107.857C74.8132 110.583 69.0152 110.572 64.3321 107.829L6.85068 74.1658C3.79135 72.3741 3.80389 67.956 6.87332 66.1883L64.433 33.04Z" fill="var(--fill-0, #D0D5DD)"/>
<path id="Rectangle 2373" d="M64.4329 26.4405C69.0636 23.7737 74.7682 23.7663 79.4117 26.4212L137.405 59.5779C140.494 61.344 140.514 65.7831 137.44 67.57L79.5003 101.258C74.8131 103.983 69.015 103.972 64.332 101.23L6.85058 67.5663C3.79124 65.7746 3.80378 61.3565 6.87321 59.5888L64.4329 26.4405Z" fill="var(--fill-0, #D0D5DD)"/>
<rect id="Rectangle 2374" x="4.62037" y="63.2292" width="135.113" height="6.92886" fill="var(--fill-0, #D0D5DD)"/>
</g>
</g>
<path id="Rectangle 2378" d="M137.547 59.229C140.829 61.1046 140.85 65.8252 137.585 67.726L79.6147 101.473C74.841 104.252 68.9372 104.244 64.1681 101.452L6.71402 67.8142C3.46416 65.9114 3.47749 61.2136 6.73836 59.3332L64.327 26.1265C69.0432 23.407 74.8523 23.3971 79.5812 26.0997L137.547 59.229Z" fill="var(--fill-0, white)" stroke="var(--stroke-0, #1D2939)" stroke-width="0.577405"/>
<path id="Vector 1007" d="M56.33 94.5898L69.1637 94.3923C70.9453 94.3649 72.6856 93.8513 74.1966 92.9069C79.9865 89.4605 80.4388 81.2456 75.0621 77.1845L38.1364 49.2938C34.443 46.5041 29.4408 46.1891 25.4267 48.4935L16.456 53.6434L6.58631 59.7037C3.60868 61.5321 3.66071 65.8767 6.68127 67.6333L50.3471 93.0259C52.1622 94.0814 54.2306 94.6221 56.33 94.5898Z" fill="var(--fill-0, #D0D5DD)"/>
<path id="Rectangle 2410" d="M140.154 47.0434C141.119 47.595 141.125 48.9838 140.165 49.5429L108.807 67.798C107.994 68.2713 106.988 68.2685 106.177 67.7905L82.7893 54.0052C81.8366 53.4437 81.8424 52.0644 82.7999 51.5122L113.946 33.5528C114.747 33.0912 115.733 33.0899 116.536 33.5486L140.154 47.0434Z" fill="var(--fill-0, white)" stroke="var(--stroke-0, #1D2939)" stroke-width="0.577405"/>
<path id="Rectangle 2416" d="M139.951 46.9438C140.917 47.4947 140.924 48.8841 139.963 49.4436L108.631 67.684C107.804 68.1656 106.778 68.1534 105.962 67.6527L96.2762 61.7092L95.8629 61.4548L130.436 41.5192L130.581 41.6015L139.951 46.9438Z" fill="var(--fill-0, #FFDD33)" stroke="var(--stroke-0, #1D2939)" stroke-width="0.577405"/>
<path id="Rectangle 2415" d="M100.22 50.5298C101.185 51.0814 101.192 52.4702 100.231 53.0293L96.4857 55.2095C95.6727 55.6828 94.6663 55.68 93.8554 55.202L91.6347 53.8932C90.6821 53.3317 90.6878 51.9524 91.6453 51.4003L95.3787 49.2475C96.1794 48.786 97.1656 48.7847 97.9684 49.2434L100.22 50.5298Z" fill="var(--fill-0, #FFDD33)" stroke="var(--stroke-0, #1D2939)" stroke-width="0.577405"/>
<path id="Rectangle 2417" d="M76.1628 47.0449C76.7155 48.0165 77.952 48.3543 78.9218 47.7983L110.313 29.8015C111.275 29.2496 111.614 28.024 111.071 27.0563L96.9513 1.89735C96.4039 0.922055 95.1688 0.577258 94.1957 1.12843L62.5742 19.0478C61.6014 19.5989 61.2604 20.8352 61.8128 21.8072L76.1628 47.0449Z" fill="var(--fill-0, #FFDD33)" stroke="var(--stroke-0, #1D2939)" stroke-width="0.577405"/>
<path id="Rectangle 2418" d="M69.2265 25.8748C69.7793 26.8465 71.0157 27.1842 71.9856 26.6282L74.8686 24.9753C75.8313 24.4234 76.1697 23.1978 75.6268 22.23L74.6142 20.4252C74.0667 19.4502 72.832 19.106 71.8591 19.6571L68.9567 21.3021C67.9843 21.8534 67.643 23.0897 68.1954 24.0615L69.2265 25.8748Z" fill="var(--fill-0, #FFDD33)" stroke="var(--stroke-0, #1D2939)" stroke-width="0.577405"/>
<path id="Vector 3726" d="M83.7238 7.16225V44.9823" stroke="var(--stroke-0, black)" stroke-width="0.577405"/>
<path id="Vector 3727" d="M89.7865 3.40911V41.5179" stroke="var(--stroke-0, black)" stroke-width="0.577405"/>
<path id="Vector 3728" d="M95.5606 1.09949V38.0534" stroke="var(--stroke-0, black)" stroke-width="0.577405"/>
<path id="Vector 3729" d="M101.335 9.47187L101.335 34.8777" stroke="var(--stroke-0, black)" stroke-width="0.577405"/>
<path id="Vector 3730" d="M106.531 18.9991L106.531 32.2794" stroke="var(--stroke-0, black)" stroke-width="0.577405"/>
<g id="Union_2">
<mask id="path-20-outside-2_4429_93276" maskUnits="userSpaceOnUse" x="14.5501" y="33.9278" width="80" height="61" fill="black">
<rect fill="white" x="14.5501" y="33.9278" width="80" height="61"/>
<path d="M29.6647 37.0095C34.3149 34.2685 40.0845 34.232 44.7751 36.9138L66.6979 49.448C67.4115 49.856 68.0908 50.3218 68.7282 50.8405L91.9108 69.7087C92.9494 70.554 93.5036 71.7223 93.5983 72.9157L93.8268 72.986V79.9108C94.2082 81.7169 93.5116 83.7191 91.7184 84.8122L80.3083 91.7663C75.5836 94.6462 69.6522 94.697 64.8727 91.8982L17.8366 64.3513C16.1157 63.3435 15.3652 61.5012 15.5886 59.7673V49.0241L15.7692 49.0788C15.2885 47.2014 15.9952 45.0672 17.8923 43.9489L29.6647 37.0095Z"/>
</mask>
<path d="M29.6647 37.0095C34.3149 34.2685 40.0845 34.232 44.7751 36.9138L66.6979 49.448C67.4115 49.856 68.0908 50.3218 68.7282 50.8405L91.9108 69.7087C92.9494 70.554 93.5036 71.7223 93.5983 72.9157L93.8268 72.986V79.9108C94.2082 81.7169 93.5116 83.7191 91.7184 84.8122L80.3083 91.7663C75.5836 94.6462 69.6522 94.697 64.8727 91.8982L17.8366 64.3513C16.1157 63.3435 15.3652 61.5012 15.5886 59.7673V49.0241L15.7692 49.0788C15.2885 47.2014 15.9952 45.0672 17.8923 43.9489L29.6647 37.0095Z" fill="var(--fill-0, white)"/>
<path d="M29.6647 37.0095L29.3715 36.5121L29.3715 36.5121L29.6647 37.0095ZM44.7751 36.9138L45.0617 36.4125V36.4125L44.7751 36.9138ZM66.6979 49.448L66.9845 48.9467L66.9845 48.9467L66.6979 49.448ZM68.7282 50.8405L69.0927 50.3927L69.0927 50.3927L68.7282 50.8405ZM91.9108 69.7087L91.5463 70.1565L91.5464 70.1565L91.9108 69.7087ZM93.5983 72.9157L93.0227 72.9614L93.0538 73.3523L93.4285 73.4676L93.5983 72.9157ZM93.8269 72.986H94.4043V72.5596L93.9967 72.4342L93.8269 72.986ZM93.8269 79.9108H93.2494V79.9711L93.2619 80.0301L93.8269 79.9108ZM91.7185 84.8122L92.0189 85.3053L92.019 85.3052L91.7185 84.8122ZM80.3083 91.7663L80.0078 91.2733L80.0078 91.2733L80.3083 91.7663ZM64.8727 91.8982L64.5809 92.3964L64.581 92.3964L64.8727 91.8982ZM17.8366 64.3513L18.1284 63.853L18.1284 63.853L17.8366 64.3513ZM15.5886 59.7673L16.1612 59.8411L16.166 59.8043V59.7673H15.5886ZM15.5886 49.0241L15.7559 48.4715L15.0112 48.2461V49.0241H15.5886ZM15.7692 49.0788L15.6019 49.6315L16.5828 49.9284L16.3286 48.9356L15.7692 49.0788ZM17.8923 43.9489L17.5991 43.4515L17.5991 43.4515L17.8923 43.9489ZM29.6647 37.0095L29.9579 37.5069C34.4293 34.8713 39.9776 34.836 44.4885 37.415L44.7751 36.9138L45.0617 36.4125C40.1914 33.628 34.2005 33.6657 29.3715 36.5121L29.6647 37.0095ZM44.7751 36.9138L44.4885 37.415L66.4114 49.9492L66.6979 49.448L66.9845 48.9467L45.0617 36.4125L44.7751 36.9138ZM66.6979 49.448L66.4113 49.9492C67.0976 50.3416 67.7509 50.7896 68.3637 51.2884L68.7282 50.8405L69.0927 50.3927C68.4308 49.854 67.7254 49.3703 66.9845 48.9467L66.6979 49.448ZM68.7282 50.8405L68.3637 51.2884L91.5463 70.1565L91.9108 69.7087L92.2753 69.2609L69.0927 50.3927L68.7282 50.8405ZM91.9108 69.7087L91.5464 70.1565C92.4562 70.897 92.9398 71.9168 93.0227 72.9614L93.5983 72.9157L94.1739 72.87C94.0673 71.5278 93.4427 70.2109 92.2753 69.2609L91.9108 69.7087ZM93.5983 72.9157L93.4285 73.4676L93.657 73.5379L93.8269 72.986L93.9967 72.4342L93.7681 72.3639L93.5983 72.9157ZM93.8269 72.986H93.2494V79.9108H93.8269H94.4043V72.986H93.8269ZM93.8269 79.9108L93.2619 80.0301C93.597 81.617 92.9849 83.3639 91.4179 84.3192L91.7185 84.8122L92.019 85.3052C94.0384 84.0742 94.8195 81.8169 94.3918 79.7915L93.8269 79.9108ZM91.7185 84.8122L91.418 84.3192L80.0078 91.2733L80.3083 91.7663L80.6088 92.2594L92.0189 85.3053L91.7185 84.8122ZM80.3083 91.7663L80.0078 91.2733C75.4648 94.0424 69.7608 94.0915 65.1645 91.3999L64.8727 91.8982L64.581 92.3964C69.5435 95.3025 75.7025 95.2499 80.6088 92.2593L80.3083 91.7663ZM64.8727 91.8982L65.1645 91.3999L18.1284 63.853L17.8366 64.3513L17.5448 64.8495L64.5809 92.3964L64.8727 91.8982ZM17.8366 64.3513L18.1284 63.853C16.623 62.9714 15.9651 61.3637 16.1612 59.8411L15.5886 59.7673L15.0159 59.6935C14.7653 61.6388 15.6085 63.7155 17.5448 64.8495L17.8366 64.3513ZM15.5886 59.7673H16.166V49.0241H15.5886H15.0112V59.7673H15.5886ZM15.5886 49.0241L15.4213 49.5768L15.6019 49.6315L15.7692 49.0788L15.9365 48.5262L15.7559 48.4715L15.5886 49.0241ZM15.7692 49.0788L16.3286 48.9356C15.9063 47.286 16.528 45.4234 18.1855 44.4463L17.8923 43.9489L17.5991 43.4515C15.4623 44.7111 14.6708 47.1167 15.2099 49.222L15.7692 49.0788ZM17.8923 43.9489L18.1855 44.4464L29.9579 37.5069L29.6647 37.0095L29.3715 36.5121L17.5991 43.4515L17.8923 43.9489Z" fill="var(--stroke-0, #1D2939)" mask="url(#path-20-outside-2_4429_93276)"/>
</g>
<g id="Mask group_2">
<mask id="mask1_4429_93276" style="mask-type:alpha" maskUnits="userSpaceOnUse" x="14" y="33" width="59" height="63">
<rect id="Rectangle 2421" x="14.4351" y="33.4342" width="57.7405" height="61.7824" fill="var(--fill-0, #D9D9D9)"/>
</mask>
<g mask="url(#mask1_4429_93276)">
<path id="Union_3" d="M29.6659 37.0095C34.316 34.2685 40.0856 34.232 44.7762 36.9138L66.6991 49.448C67.4127 49.856 68.0919 50.3218 68.7293 50.8405L91.912 69.7087C92.9506 70.554 93.5047 71.7223 93.5995 72.9157L93.828 72.986V79.9108C94.2094 81.7169 93.5127 83.7191 91.7196 84.8122L80.3094 91.7663C75.5848 94.6461 69.6533 94.697 64.8739 91.8981L17.8377 64.3513C16.1169 63.3435 15.3663 61.5012 15.5897 59.7673V49.0241L15.7704 49.0788C15.2897 47.2014 15.9963 45.0672 17.8934 43.9489L29.6659 37.0095Z" fill="var(--fill-0, #D0D5DD)"/>
</g>
</g>
<path id="Rectangle 2395" d="M92.3348 69.1546C95.0326 71.2859 94.7606 75.4548 91.8088 77.2147L79.865 84.3339C74.3627 87.6139 67.3956 87.1216 62.4065 83.0999L42.145 66.7668C41.5755 66.3077 40.9726 65.8915 40.3413 65.5218L17.7222 52.2796C14.482 50.3826 14.4833 45.7029 17.7246 43.8113L29.6504 36.8523C34.377 34.0943 40.2198 34.0693 44.9732 36.786L67.0824 49.4215C67.7451 49.8003 68.3786 50.2285 68.9775 50.7017L92.3348 69.1546Z" fill="var(--fill-0, white)" stroke="var(--stroke-0, #1D2939)" stroke-width="0.577405"/>
<path id="Rectangle 2397" d="M63.4412 49.1838C64.5968 49.8443 64.6039 51.5067 63.4542 52.1761L45.2534 62.7724C43.7037 63.6745 41.7867 63.6712 40.2384 62.7648L22.1991 52.2037C21.055 51.5336 21.0601 49.8788 22.2084 49.2167L40.289 38.7911C41.8201 37.9083 43.7065 37.9054 45.2417 38.7828L63.4412 49.1838Z" fill="var(--fill-0, #D0D5DD)" stroke="var(--stroke-0, #1D2939)" stroke-width="0.577405"/>
<path id="Rectangle 2398" d="M56.0771 65.2093C56.8806 65.8795 56.7746 67.1435 55.8706 67.6697L53.914 68.8081C52.3563 69.7148 50.3941 69.5339 49.0277 68.3576C48.245 67.6838 48.3613 66.4402 49.2555 65.9244L51.2224 64.7902C52.7677 63.8992 54.7066 64.0666 56.0771 65.2093Z" fill="var(--fill-0, white)" stroke="var(--stroke-0, #1D2939)" stroke-width="0.577405"/>
<path id="Rectangle 2401_2" d="M61.8511 69.8285C62.6547 70.4987 62.5486 71.7627 61.6446 72.289L59.688 73.4273C58.1304 74.3341 56.1681 74.1532 54.8017 72.9769C54.0191 72.3031 54.1354 71.0595 55.0295 70.5436L56.9965 69.4094C58.5417 68.5184 60.4807 68.6858 61.8511 69.8285Z" fill="var(--fill-0, white)" stroke="var(--stroke-0, #1D2939)" stroke-width="0.577405"/>
<path id="Rectangle 2404" d="M67.0478 75.0252C67.8513 75.6954 67.7453 76.9593 66.8413 77.4856L64.8847 78.624C63.327 79.5307 61.3648 79.3498 59.9984 78.1735C59.2157 77.4997 59.332 76.2561 60.2262 75.7402L62.1931 74.6061C63.7384 73.7151 65.6773 73.8825 67.0478 75.0252Z" fill="var(--fill-0, white)" stroke="var(--stroke-0, #1D2939)" stroke-width="0.577405"/>
<path id="Rectangle 2407" d="M74.554 79.6444C75.3576 80.3146 75.2515 81.5786 74.3475 82.1048L72.3909 83.2432C70.8333 84.15 68.871 83.969 67.5046 82.7928C66.722 82.119 66.8383 80.8754 67.7324 80.3595L69.6994 79.2253C71.2446 78.3343 73.1836 78.5017 74.554 79.6444Z" fill="var(--fill-0, #FFDD33)" stroke="var(--stroke-0, #1D2939)" stroke-width="0.577405"/>
<path id="Rectangle 2399" d="M64.1607 60.59C64.9643 61.2602 64.8582 62.5242 63.9542 63.0505L61.9976 64.1888C60.44 65.0956 58.4778 64.9147 57.1113 63.7384C56.3287 63.0646 56.445 61.821 57.3392 61.3051L59.3061 60.1709C60.8513 59.2799 62.7903 59.4473 64.1607 60.59Z" fill="var(--fill-0, white)" stroke="var(--stroke-0, #1D2939)" stroke-width="0.577405"/>
<path id="Rectangle 2402" d="M69.9348 65.2093C70.7383 65.8795 70.6323 67.1435 69.7283 67.6697L67.7717 68.8081C66.214 69.7148 64.2518 69.5339 62.8854 68.3576C62.1028 67.6838 62.2191 66.4402 63.1132 65.9244L65.0801 64.7902C66.6254 63.8992 68.5643 64.0666 69.9348 65.2093Z" fill="var(--fill-0, white)" stroke="var(--stroke-0, #1D2939)" stroke-width="0.577405"/>
<path id="Rectangle 2405" d="M75.1314 70.4059C75.935 71.0761 75.8289 72.3401 74.9249 72.8664L72.9683 74.0047C71.4107 74.9115 69.4485 74.7306 68.082 73.5543C67.2994 72.8805 67.4157 71.6369 68.3099 71.121L70.2768 69.9868C71.822 69.0958 73.761 69.2632 75.1314 70.4059Z" fill="var(--fill-0, white)" stroke="var(--stroke-0, #1D2939)" stroke-width="0.577405"/>
<path id="Rectangle 2408" d="M82.6377 75.0252C83.4413 75.6954 83.3352 76.9593 82.4312 77.4856L80.4746 78.624C78.9169 79.5307 76.9547 79.3498 75.5883 78.1735C74.8057 77.4997 74.922 76.2561 75.8161 75.7402L77.7831 74.6061C79.3283 73.7151 81.2673 73.8825 82.6377 75.0252Z" fill="var(--fill-0, #FFDD33)" stroke="var(--stroke-0, #1D2939)" stroke-width="0.577405"/>
<path id="Rectangle 2400" d="M71.667 55.9708C72.4706 56.641 72.3645 57.905 71.4605 58.4312L69.5039 59.5696C67.9462 60.4764 65.984 60.2954 64.6176 59.1192C63.835 58.4454 63.9513 57.2018 64.8454 56.6859L66.8124 55.5517C68.3576 54.6607 70.2965 54.8281 71.667 55.9708Z" fill="var(--fill-0, white)" stroke="var(--stroke-0, #1D2939)" stroke-width="0.577405"/>
<path id="Rectangle 2403" d="M77.4411 60.59C78.2446 61.2602 78.1386 62.5242 77.2346 63.0505L75.2779 64.1888C73.7203 65.0956 71.7581 64.9147 70.3916 63.7384C69.609 63.0646 69.7253 61.821 70.6195 61.3051L72.5864 60.1709C74.1317 59.2799 76.0706 59.4473 77.4411 60.59Z" fill="var(--fill-0, white)" stroke="var(--stroke-0, #1D2939)" stroke-width="0.577405"/>
<path id="Rectangle 2406" d="M82.6377 65.7867C83.4413 66.4569 83.3352 67.7209 82.4312 68.2471L80.4746 69.3855C78.9169 70.2922 76.9547 70.1113 75.5883 68.935C74.8057 68.2612 74.922 67.0177 75.8161 66.5018L77.7831 65.3676C79.3283 64.4766 81.2673 64.644 82.6377 65.7867Z" fill="var(--fill-0, white)" stroke="var(--stroke-0, #1D2939)" stroke-width="0.577405"/>
<path id="Rectangle 2409" d="M90.144 70.4059C90.9475 71.0761 90.8415 72.3401 89.9375 72.8664L87.9809 74.0047C86.4232 74.9115 84.461 74.7306 83.0946 73.5543C82.3119 72.8805 82.4282 71.6369 83.3224 71.121L85.2893 69.9868C86.8346 69.0958 88.7735 69.2632 90.144 70.4059Z" fill="var(--fill-0, #D0D5DD)" stroke="var(--stroke-0, #1D2939)" stroke-width="0.577405"/>
<path id="Rectangle 2396" d="M36.4759 37.2748C36.657 37.4375 36.654 37.7135 36.4892 37.8736L36.4085 37.9348L20.3769 47.259C20.0442 47.4524 19.6171 47.3189 19.4534 46.9708C19.3647 46.7821 19.4346 46.5568 19.6151 46.4525L35.6772 37.1908C35.9334 37.0433 36.2557 37.0774 36.4759 37.2748Z" fill="var(--fill-0, white)" stroke="var(--stroke-0, #1D2939)" stroke-width="0.577405"/>
<path id="Vector 1006" d="M54.4802 41.5954L53.9874 41.8066L68.1338 49.8902C68.1338 49.8902 91.23 68.0785 92.6735 69.2333C94.1171 70.3881 94.1171 73.2751 94.1171 73.2751V69.7535C94.1171 68.3319 93.4625 66.9895 92.3424 66.114L70.8987 49.3534C69.6352 48.3659 68.2885 47.4899 66.8735 46.7352L57.4752 41.7228C56.5479 41.2282 55.4462 41.1814 54.4802 41.5954Z" fill="var(--fill-0, #D0D5DD)" stroke="var(--stroke-0, #1D2939)" stroke-width="0.577405" stroke-linecap="round" stroke-linejoin="round"/>
</g>
</svg>
