<svg preserveAspectRatio="none" width="100%" height="100%" overflow="visible" style="display: block;" viewBox="0 0 137.479 102.559" fill="none" xmlns="http://www.w3.org/2000/svg">
<g id="Union">
<mask id="path-1-outside-1_4429_93549" maskUnits="userSpaceOnUse" x="-0.845476" y="-0.84519" width="139" height="104" fill="black">
<rect fill="white" x="-0.845476" y="-0.84519" width="139" height="104"/>
<path fill-rule="evenodd" clip-rule="evenodd" d="M52.9818 4.12194C52.0684 2.30321 50.2071 1.15481 48.1729 1.15481H12.37C11.6636 1.15481 11.0989 1.5823 10.8514 2.15512L10.6821 1.84785L7.87183 6.46709C7.56336 6.98396 7.66805 7.87246 7.87208 8.28595L22.5511 38.1608C22.5511 38.1608 22.7742 38.8276 23.3427 39.6507L3.46414 51.0987C1.68381 52.1239 0.931893 54.0409 1.21131 55.8199V60.9633C0.933341 62.7326 1.67578 64.6416 3.44151 65.6757L60.9229 99.3392C65.606 102.082 71.404 102.093 76.0913 99.3672L134.031 65.6794C135.576 64.7811 136.34 63.2124 136.324 61.65V55.144C136.324 55.1127 136.324 55.0814 136.324 55.0501V54.7391H136.311C136.201 53.3012 135.428 51.907 133.996 51.0878L120.348 43.2849L130.546 31.4018C131.299 30.5241 130.942 29.1652 129.855 28.7714L126.692 27.6251L128.246 25.5834C128.947 24.6631 128.512 23.3275 127.404 22.9977L124.101 22.0148L125.695 19.6337C126.339 18.6726 125.823 17.3659 124.697 17.1041L94.0565 9.98203C91.8885 9.4781 89.6327 10.3625 88.3835 12.2062L82.1308 21.4347L76.0026 17.931C71.8087 15.5332 66.7491 15.3071 62.397 17.2506C61.5513 15.6183 59.9367 14.5397 58.1276 14.3682L52.9818 4.12194Z"/>
</mask>
<path fill-rule="evenodd" clip-rule="evenodd" d="M52.9818 4.12194C52.0684 2.30321 50.2071 1.15481 48.1729 1.15481H12.37C11.6636 1.15481 11.0989 1.5823 10.8514 2.15512L10.6821 1.84785L7.87183 6.46709C7.56336 6.98396 7.66805 7.87246 7.87208 8.28595L22.5511 38.1608C22.5511 38.1608 22.7742 38.8276 23.3427 39.6507L3.46414 51.0987C1.68381 52.1239 0.931893 54.0409 1.21131 55.8199V60.9633C0.933341 62.7326 1.67578 64.6416 3.44151 65.6757L60.9229 99.3392C65.606 102.082 71.404 102.093 76.0913 99.3672L134.031 65.6794C135.576 64.7811 136.34 63.2124 136.324 61.65V55.144C136.324 55.1127 136.324 55.0814 136.324 55.0501V54.7391H136.311C136.201 53.3012 135.428 51.907 133.996 51.0878L120.348 43.2849L130.546 31.4018C131.299 30.5241 130.942 29.1652 129.855 28.7714L126.692 27.6251L128.246 25.5834C128.947 24.6631 128.512 23.3275 127.404 22.9977L124.101 22.0148L125.695 19.6337C126.339 18.6726 125.823 17.3659 124.697 17.1041L94.0565 9.98203C91.8885 9.4781 89.6327 10.3625 88.3835 12.2062L82.1308 21.4347L76.0026 17.931C71.8087 15.5332 66.7491 15.3071 62.397 17.2506C61.5513 15.6183 59.9367 14.5397 58.1276 14.3682L52.9818 4.12194Z" fill="white"/>
<path d="M52.9818 4.12194L51.9498 4.64022V4.64022L52.9818 4.12194ZM10.8514 2.15512L9.84007 2.71252C10.0528 3.09849 10.4666 3.32974 10.9068 3.3086C11.3471 3.28745 11.7368 3.01761 11.9116 2.61302L10.8514 2.15512ZM10.6821 1.84785L11.6935 1.29045C11.4947 0.929675 11.1187 0.702133 10.7068 0.693307C10.295 0.684482 9.90964 0.895709 9.69553 1.24764L10.6821 1.84785ZM7.87183 6.46709L6.88522 5.86686L6.88019 5.87528L7.87183 6.46709ZM7.87208 8.28595L8.90853 7.77669L8.90768 7.77496L7.87208 8.28595ZM22.5511 38.1608L23.6462 37.7943C23.6298 37.7455 23.6103 37.6978 23.5875 37.6516L22.5511 38.1608ZM23.3427 39.6507L23.919 40.6515C24.1986 40.4904 24.3981 40.2197 24.4691 39.905C24.5402 39.5902 24.4763 39.2601 24.2929 38.9946L23.3427 39.6507ZM3.46414 51.0987L2.88783 50.0979H2.88783L3.46414 51.0987ZM1.21131 55.8199H2.36612C2.36612 55.7599 2.36144 55.6999 2.35213 55.6407L1.21131 55.8199ZM1.21131 60.9633L2.35212 61.1425C2.36144 61.0832 2.36612 61.0233 2.36612 60.9633H1.21131ZM3.44151 65.6757L2.85792 66.6722H2.85792L3.44151 65.6757ZM60.9229 99.3392L60.3393 100.336V100.336L60.9229 99.3392ZM76.0913 99.3672L76.6717 100.366V100.366L76.0913 99.3672ZM134.031 65.6794L134.612 66.6777V66.6777L134.031 65.6794ZM136.324 61.65H135.169L135.169 61.6615L136.324 61.65ZM136.324 55.144L135.169 55.1327V55.144H136.324ZM136.324 55.0501H135.169L135.169 55.0613L136.324 55.0501ZM136.324 54.7391H137.479C137.479 54.1013 136.962 53.5843 136.324 53.5843V54.7391ZM136.311 54.7391L135.159 54.827C135.205 55.4289 135.707 55.8939 136.311 55.8939V54.7391ZM133.996 51.0878L133.422 52.0903V52.0903L133.996 51.0878ZM120.348 43.2849L119.472 42.5329C119.247 42.7943 119.151 43.1421 119.21 43.4816C119.269 43.821 119.476 44.1165 119.775 44.2875L120.348 43.2849ZM130.546 31.4018L129.669 30.6498L129.669 30.6498L130.546 31.4018ZM129.855 28.7714L130.249 27.6857V27.6857L129.855 28.7714ZM126.692 27.6251L125.773 26.9254C125.55 27.2177 125.48 27.5986 125.584 27.951C125.687 28.3035 125.953 28.5856 126.298 28.7108L126.692 27.6251ZM128.246 25.5834L129.165 26.283V26.283L128.246 25.5834ZM127.404 22.9977L127.075 24.1046V24.1046L127.404 22.9977ZM124.101 22.0148L123.141 21.3723C122.937 21.6772 122.89 22.061 123.015 22.4062C123.139 22.7514 123.42 23.017 123.772 23.1217L124.101 22.0148ZM125.695 19.6337L126.655 20.2762L126.655 20.2762L125.695 19.6337ZM124.697 17.1041L124.958 15.9793V15.9793L124.697 17.1041ZM94.0565 9.98203L94.318 8.8572V8.8572L94.0565 9.98203ZM88.3835 12.2062L87.4275 11.5584V11.5584L88.3835 12.2062ZM82.1308 21.4347L81.5576 22.4373C82.0817 22.7369 82.7482 22.5823 83.0868 22.0825L82.1308 21.4347ZM76.0026 17.931L75.4294 18.9336V18.9336L76.0026 17.931ZM62.397 17.2506L61.3716 17.7819C61.6531 18.3251 62.3093 18.5545 62.8679 18.3051L62.397 17.2506ZM58.1276 14.3682L57.0957 14.8864C57.2741 15.2418 57.6228 15.4803 58.0186 15.5178L58.1276 14.3682ZM48.1729 1.15481V2.30962C49.7702 2.30962 51.2323 3.21149 51.9498 4.64022L52.9818 4.12194L54.0138 3.60366C52.9045 1.39494 50.6441 0 48.1729 0V1.15481ZM12.37 1.15481V2.30962H48.1729V1.15481V0H12.37V1.15481ZM10.8514 2.15512L11.9116 2.61302C11.9906 2.43009 12.1594 2.30962 12.37 2.30962V1.15481V0C11.1678 0 10.2071 0.734511 9.7913 1.69721L10.8514 2.15512ZM10.6821 1.84785L9.67072 2.40525L9.84007 2.71252L10.8514 2.15512L11.8628 1.59772L11.6935 1.29045L10.6821 1.84785ZM7.87183 6.46709L8.8584 7.06731L11.6687 2.44807L10.6821 1.84785L9.69553 1.24764L6.88526 5.86688L7.87183 6.46709ZM7.87208 8.28595L8.90768 7.77496C8.90898 7.77759 8.90395 7.7676 8.89557 7.74266C8.88747 7.71855 8.87816 7.68615 8.86916 7.64618C8.85084 7.56489 8.83752 7.46889 8.83371 7.37056C8.82986 7.27131 8.83635 7.18668 8.84818 7.12346C8.86049 7.05762 8.87336 7.04234 8.86346 7.05891L7.87183 6.46709L6.88019 5.87528C6.5639 6.40526 6.50851 7.01346 6.52582 7.46001C6.54347 7.91535 6.64513 8.40916 6.83647 8.79694L7.87208 8.28595ZM22.5511 38.1608L23.5875 37.6516L8.90853 7.77669L7.87208 8.28595L6.83562 8.79521L21.5146 38.6701L22.5511 38.1608ZM23.3427 39.6507L24.2929 38.9946C24.0508 38.6439 23.8834 38.3282 23.7786 38.1054C23.7264 37.9945 23.6904 37.9079 23.6687 37.8532C23.6579 37.8259 23.6508 37.8067 23.6471 37.7966C23.6453 37.7915 23.6443 37.7887 23.6441 37.7882C23.6441 37.788 23.6442 37.7884 23.6445 37.7894C23.6447 37.7899 23.6449 37.7906 23.6452 37.7914C23.6454 37.7918 23.6455 37.7923 23.6457 37.7928C23.6457 37.793 23.6458 37.7932 23.6459 37.7935C23.646 37.7936 23.646 37.7938 23.6461 37.7939C23.6461 37.7941 23.6462 37.7943 22.5511 38.1608C21.456 38.5273 21.456 38.5275 21.4561 38.5278C21.4561 38.5278 21.4562 38.5281 21.4563 38.5282C21.4564 38.5285 21.4565 38.5288 21.4566 38.5292C21.4568 38.5298 21.457 38.5305 21.4573 38.5312C21.4578 38.5327 21.4583 38.5343 21.4589 38.5361C21.4602 38.5397 21.4616 38.5439 21.4633 38.5488C21.4667 38.5585 21.4711 38.5709 21.4765 38.5856C21.4872 38.6151 21.5019 38.6544 21.5209 38.7025C21.5589 38.7986 21.6141 38.9301 21.6888 39.0887C21.8377 39.4052 22.0661 39.8344 22.3924 40.3069L23.3427 39.6507ZM3.46414 51.0987L4.04046 52.0994L23.919 40.6515L23.3427 39.6507L22.7663 38.65L2.88783 50.0979L3.46414 51.0987ZM1.21131 55.8199L2.35213 55.6407C2.14065 54.2942 2.70815 52.8667 4.04046 52.0994L3.46414 51.0987L2.88783 50.0979C0.659482 51.3812 -0.276865 53.7876 0.0704817 55.999L1.21131 55.8199ZM1.21131 60.9633H2.36612V55.8199H1.21131H0.0564954V60.9633H1.21131ZM3.44151 65.6757L4.0251 64.6792C2.70187 63.9043 2.14182 62.4812 2.35212 61.1425L1.21131 60.9633L0.0704873 60.784C-0.275138 62.9841 0.649696 65.379 2.85792 66.6722L3.44151 65.6757ZM60.9229 99.3392L61.5065 98.3427L4.0251 64.6792L3.44151 65.6757L2.85792 66.6722L60.3393 100.336L60.9229 99.3392ZM76.0913 99.3672L75.5108 98.3689C71.184 100.885 65.8307 100.875 61.5065 98.3427L60.9229 99.3392L60.3393 100.336C65.3813 103.288 71.6241 103.3 76.6717 100.366L76.0913 99.3672ZM134.031 65.6794L133.451 64.6811L75.5108 98.3689L76.0913 99.3672L76.6717 100.366L134.612 66.6777L134.031 65.6794ZM136.324 61.65L135.169 61.6615C135.181 62.8399 134.61 64.0069 133.451 64.6811L134.031 65.6794L134.612 66.6777C136.542 65.5552 137.498 63.5848 137.479 61.6386L136.324 61.65ZM136.324 55.144H135.169V61.65H136.324H137.479V55.144H136.324ZM136.324 55.0501L135.169 55.0613C135.17 55.0851 135.17 55.1089 135.169 55.1327L136.324 55.144L137.479 55.1552C137.479 55.1164 137.479 55.0776 137.479 55.0388L136.324 55.0501ZM136.324 54.7391H135.169V55.0501H136.324H137.479V54.7391H136.324ZM136.311 54.7391V55.8939H136.324V54.7391V53.5843H136.311V54.7391ZM133.996 51.0878L133.422 52.0903C134.501 52.7069 135.077 53.7452 135.159 54.827L136.311 54.7391L137.462 54.6511C137.325 52.8572 136.356 51.107 134.569 50.0852L133.996 51.0878ZM120.348 43.2849L119.775 44.2875L133.422 52.0903L133.996 51.0878L134.569 50.0852L120.921 42.2824L120.348 43.2849ZM130.546 31.4018L129.669 30.6498L119.472 42.5329L120.348 43.2849L121.224 44.037L131.422 32.1539L130.546 31.4018ZM129.855 28.7714L129.462 29.8572C129.789 29.9755 129.897 30.3841 129.669 30.6498L130.546 31.4018L131.422 32.1539C132.701 30.664 132.096 28.355 130.249 27.6857L129.855 28.7714ZM126.692 27.6251L126.298 28.7108L129.462 29.8572L129.855 28.7714L130.249 27.6857L127.085 26.5393L126.692 27.6251ZM128.246 25.5834L127.328 24.8837L125.773 26.9254L126.692 27.6251L127.61 28.3247L129.165 26.283L128.246 25.5834ZM127.404 22.9977L127.075 24.1046C127.407 24.2036 127.54 24.6052 127.328 24.8837L128.246 25.5834L129.165 26.283C130.355 24.721 129.616 22.4513 127.733 21.8909L127.404 22.9977ZM124.101 22.0148L123.772 23.1217L127.075 24.1046L127.404 22.9977L127.733 21.8909L124.43 20.908L124.101 22.0148ZM124.101 22.0148L125.061 22.6573L126.655 20.2762L125.695 19.6337L124.736 18.9913L123.141 21.3723L124.101 22.0148ZM125.695 19.6337L126.655 20.2762C127.747 18.6448 126.872 16.4241 124.958 15.9793L124.697 17.1041L124.436 18.2289C124.774 18.3076 124.93 18.7004 124.736 18.9913L125.695 19.6337ZM124.697 17.1041L124.958 15.9793L94.318 8.8572L94.0565 9.98203L93.795 11.1069L124.436 18.2289L124.697 17.1041ZM94.0565 9.98203L94.318 8.8572C91.6842 8.24501 88.9445 9.31944 87.4275 11.5584L88.3835 12.2062L89.3395 12.8539C90.3209 11.4056 92.0928 10.7112 93.795 11.1069L94.0565 9.98203ZM88.3835 12.2062L87.4275 11.5584L81.1747 20.787L82.1308 21.4347L83.0868 22.0825L89.3395 12.8539L88.3835 12.2062ZM76.0026 17.931L75.4294 18.9336L81.5576 22.4373L82.1308 21.4347L82.7039 20.4322L76.5758 16.9285L76.0026 17.931ZM62.397 17.2506L62.8679 18.3051C66.8855 16.5109 71.5571 16.7196 75.4294 18.9336L76.0026 17.931L76.5758 16.9285C72.0603 14.3469 66.6128 14.1033 61.9261 16.1962L62.397 17.2506ZM58.1276 14.3682L58.0186 15.5178C59.439 15.6525 60.7074 16.4998 61.3716 17.7819L62.397 17.2506L63.4224 16.7194C62.3952 14.7368 60.4344 13.4269 58.2367 13.2185L58.1276 14.3682ZM52.9818 4.12194L51.9498 4.64022L57.0957 14.8864L58.1276 14.3682L59.1596 13.8499L54.0138 3.60366L52.9818 4.12194Z" fill="var(--stroke-0, #1D2939)" mask="url(#path-1-outside-1_4429_93549)"/>
</g>
</svg>
