<svg preserveAspectRatio="none" width="100%" height="100%" overflow="visible" style="display: block;" viewBox="0 0 144.524 141.57" fill="none" xmlns="http://www.w3.org/2000/svg">
<g id="Group 5495">
<path id="Rectangle 2371" d="M64.4758 43.7062C69.1031 41.038 74.8023 41.0279 79.442 43.6797L136.043 76.0291C139.131 77.7944 139.151 82.237 136.078 84.0259L79.4745 116.978C74.7906 119.704 68.998 119.696 64.3187 116.957L8.21996 84.1133C5.16108 82.3225 5.17389 77.9009 8.24309 76.1311L64.4758 43.7062Z" fill="var(--fill-0, #FFDD33)"/>
<g id="Union">
<mask id="path-2-outside-1_4429_93565" maskUnits="userSpaceOnUse" x="2.56105" y="4.12591" width="139" height="106" fill="black">
<rect fill="white" x="2.56105" y="4.12591" width="139" height="106"/>
<path fill-rule="evenodd" clip-rule="evenodd" d="M87.5035 6.12591C88.6878 6.12591 89.8896 6.43264 90.604 6.98528L91.1278 7.28072H91.2568V7.35348L100.826 12.7509C101.737 13.0523 102.423 13.5789 102.687 14.2096H102.776V14.4983C102.795 14.5929 102.805 14.6893 102.805 14.787C102.805 14.8848 102.795 14.9812 102.776 15.0757V38.6815L106.425 40.7676L106.241 22.5158L106.819 22.8533V22.5904C106.453 22.2342 106.241 21.8121 106.241 21.3594C106.241 20.084 107.921 19.0499 109.994 19.0499C111.178 19.0499 112.38 19.3566 113.095 19.9092L113.618 20.2047H113.747V20.2774L123.316 25.6749C124.228 25.9762 124.914 26.5028 125.178 27.1335H125.296V51.5569L137.402 58.4784C138.835 59.2976 139.607 60.6918 139.717 62.1297H139.731V62.4407C139.731 62.4592 139.731 62.4777 139.731 62.4962L139.731 62.5346V69.0406C139.746 70.603 138.983 72.1717 137.438 73.07L79.4978 106.758C74.8106 109.483 69.0125 109.472 64.3294 106.73L6.84804 73.0663C5.08231 72.0323 4.33987 70.1233 4.61783 68.3539V63.2105C4.33842 61.4315 5.09034 59.5146 6.87067 58.4893L17.3603 52.4484C16.9558 51.1406 16.7422 49.7628 16.7422 48.3549V40.9139C16.7422 34.9254 20.0525 29.4274 25.3451 26.6254L41.8227 17.902C44.6118 16.4254 47.8873 16.1456 50.8071 17.3432C54.6176 18.9061 60.22 21.4663 65.3955 24.8309C69.8369 22.6857 75.0835 22.8485 79.4091 25.3217L83.9349 27.9092L83.7505 9.59182L84.3279 9.92937V9.66649C83.9622 9.31027 83.7505 8.88817 83.7505 8.43548C83.7506 7.16001 85.4308 6.12598 87.5035 6.12591ZM118.861 29.8936L113.747 26.9039V26.2936L118.861 29.3377V29.8936ZM96.367 16.9673L91.2568 13.9799V13.3697L96.367 16.4114V16.9673Z"/>
</mask>
<path fill-rule="evenodd" clip-rule="evenodd" d="M87.5035 6.12591C88.6878 6.12591 89.8896 6.43264 90.604 6.98528L91.1278 7.28072H91.2568V7.35348L100.826 12.7509C101.737 13.0523 102.423 13.5789 102.687 14.2096H102.776V14.4983C102.795 14.5929 102.805 14.6893 102.805 14.787C102.805 14.8848 102.795 14.9812 102.776 15.0757V38.6815L106.425 40.7676L106.241 22.5158L106.819 22.8533V22.5904C106.453 22.2342 106.241 21.8121 106.241 21.3594C106.241 20.084 107.921 19.0499 109.994 19.0499C111.178 19.0499 112.38 19.3566 113.095 19.9092L113.618 20.2047H113.747V20.2774L123.316 25.6749C124.228 25.9762 124.914 26.5028 125.178 27.1335H125.296V51.5569L137.402 58.4784C138.835 59.2976 139.607 60.6918 139.717 62.1297H139.731V62.4407C139.731 62.4592 139.731 62.4777 139.731 62.4962L139.731 62.5346V69.0406C139.746 70.603 138.983 72.1717 137.438 73.07L79.4978 106.758C74.8106 109.483 69.0125 109.472 64.3294 106.73L6.84804 73.0663C5.08231 72.0323 4.33987 70.1233 4.61783 68.3539V63.2105C4.33842 61.4315 5.09034 59.5146 6.87067 58.4893L17.3603 52.4484C16.9558 51.1406 16.7422 49.7628 16.7422 48.3549V40.9139C16.7422 34.9254 20.0525 29.4274 25.3451 26.6254L41.8227 17.902C44.6118 16.4254 47.8873 16.1456 50.8071 17.3432C54.6176 18.9061 60.22 21.4663 65.3955 24.8309C69.8369 22.6857 75.0835 22.8485 79.4091 25.3217L83.9349 27.9092L83.7505 9.59182L84.3279 9.92937V9.66649C83.9622 9.31027 83.7505 8.88817 83.7505 8.43548C83.7506 7.16001 85.4308 6.12598 87.5035 6.12591ZM118.861 29.8936L113.747 26.9039V26.2936L118.861 29.3377V29.8936ZM96.367 16.9673L91.2568 13.9799V13.3697L96.367 16.4114V16.9673Z" fill="white"/>
<path d="M90.604 6.98528L89.8975 7.89869C89.9416 7.93282 89.9881 7.96371 90.0367 7.99112L90.604 6.98528ZM87.5035 6.12591V4.9711H87.5034L87.5035 6.12591ZM91.1278 7.28072L90.5605 8.28655C90.7336 8.38421 90.929 8.43553 91.1278 8.43553V7.28072ZM91.2568 7.28072H92.4116C92.4116 6.64293 91.8946 6.12591 91.2568 6.12591V7.28072ZM91.2568 7.35348H90.102C90.102 7.77019 90.3265 8.15458 90.6895 8.35931L91.2568 7.35348ZM100.826 12.7509L100.258 13.7567C100.324 13.7935 100.392 13.8238 100.463 13.8473L100.826 12.7509ZM102.687 14.2096L101.622 14.6552C101.801 15.0848 102.221 15.3644 102.687 15.3644V14.2096ZM102.776 14.2096H103.931C103.931 13.5718 103.414 13.0548 102.776 13.0548V14.2096ZM102.776 14.4983H101.621C101.621 14.5754 101.629 14.6523 101.644 14.7278L102.776 14.4983ZM102.776 15.0757L101.644 14.8463C101.629 14.9218 101.621 14.9987 101.621 15.0757H102.776ZM102.776 38.6815H101.621C101.621 39.0958 101.843 39.4783 102.203 39.684L102.776 38.6815ZM106.425 40.7676L105.852 41.7701C106.211 41.9754 106.653 41.9729 107.009 41.7635C107.366 41.5541 107.584 41.1697 107.58 40.7559L106.425 40.7676ZM106.241 22.5158L106.824 21.5188C106.465 21.309 106.021 21.3083 105.661 21.517C105.302 21.7257 105.082 22.1116 105.086 22.5274L106.241 22.5158ZM106.819 22.8533L106.236 23.8503C106.593 24.0591 107.034 24.0608 107.393 23.855C107.752 23.6491 107.973 23.267 107.973 22.8533H106.819ZM106.819 22.5904H107.973C107.973 22.2789 107.847 21.9805 107.624 21.7632L106.819 22.5904ZM106.241 21.3594L105.086 21.3593V21.3594H106.241ZM109.994 19.0499V17.895L109.994 17.8951L109.994 19.0499ZM113.095 19.9092L112.388 20.8226C112.432 20.8568 112.479 20.8877 112.527 20.9151L113.095 19.9092ZM113.618 20.2047L113.051 21.2105C113.224 21.3082 113.42 21.3595 113.618 21.3595V20.2047ZM113.747 20.2047H114.902C114.902 19.5669 114.385 19.0499 113.747 19.0499V20.2047ZM113.747 20.2774H112.593C112.593 20.6941 112.817 21.0785 113.18 21.2833L113.747 20.2774ZM123.316 25.6749L122.749 26.6807C122.814 26.7175 122.883 26.7478 122.954 26.7713L123.316 25.6749ZM125.178 27.1335L124.112 27.5792C124.292 28.0087 124.712 28.2883 125.178 28.2883V27.1335ZM125.296 27.1335H126.451C126.451 26.4957 125.934 25.9787 125.296 25.9787V27.1335ZM125.296 51.5569H124.141C124.141 51.9712 124.363 52.3538 124.723 52.5594L125.296 51.5569ZM137.402 58.4784L136.829 59.4809V59.4809L137.402 58.4784ZM139.717 62.1297L138.566 62.2176C138.612 62.8196 139.114 63.2845 139.717 63.2845V62.1297ZM139.731 62.1297H140.885C140.885 61.4919 140.368 60.9749 139.731 60.9749V62.1297ZM139.731 62.4407H138.576L138.576 62.4521L139.731 62.4407ZM139.731 62.4962L140.886 62.5031L140.886 62.4981L139.731 62.4962ZM139.731 62.5346L138.576 62.5277V62.5346H139.731ZM139.731 69.0406H138.576L138.576 69.0521L139.731 69.0406ZM137.438 73.07L138.018 74.0684V74.0684L137.438 73.07ZM79.4978 106.758L80.0783 107.756V107.756L79.4978 106.758ZM64.3294 106.73L63.7458 107.726V107.726L64.3294 106.73ZM6.84804 73.0663L7.43163 72.0698H7.43163L6.84804 73.0663ZM4.61783 68.3539L5.75865 68.5331C5.76796 68.4738 5.77264 68.4139 5.77264 68.3539H4.61783ZM4.61783 63.2105H5.77264C5.77264 63.1505 5.76797 63.0906 5.75866 63.0313L4.61783 63.2105ZM6.87067 58.4893L6.29436 57.4886H6.29436L6.87067 58.4893ZM17.3603 52.4484L17.9366 53.4491C18.4042 53.1798 18.623 52.6226 18.4636 52.1071L17.3603 52.4484ZM25.3451 26.6254L25.8854 27.646V27.646L25.3451 26.6254ZM41.8227 17.902L41.2824 16.8814V16.8814L41.8227 17.902ZM50.8071 17.3432L50.3689 18.4116V18.4116L50.8071 17.3432ZM65.3955 24.8309L64.7661 25.7991C65.1048 26.0193 65.534 26.0464 65.8978 25.8707L65.3955 24.8309ZM79.4091 25.3217L78.836 26.3242V26.3242L79.4091 25.3217ZM83.9349 27.9092L83.3617 28.9117C83.721 29.1171 84.1626 29.1146 84.5195 28.9052C84.8763 28.6957 85.0938 28.3114 85.0897 27.8976L83.9349 27.9092ZM83.7505 9.59182L84.3334 8.59487C83.9744 8.38503 83.5304 8.38435 83.1708 8.59307C82.8112 8.80179 82.5916 9.1877 82.5958 9.60344L83.7505 9.59182ZM84.3279 9.92937L83.7451 10.9263C84.1023 11.1351 84.5438 11.1369 84.9026 10.931C85.2615 10.7251 85.4827 10.3431 85.4827 9.92937H84.3279ZM84.3279 9.66649H85.4827C85.4827 9.35493 85.3569 9.05659 85.1337 8.83921L84.3279 9.66649ZM83.7505 8.43548L82.5957 8.43538V8.43548H83.7505ZM113.747 26.9039H112.593C112.593 27.3142 112.81 27.6938 113.165 27.9009L113.747 26.9039ZM118.862 29.8936L118.279 30.8905C118.636 31.0993 119.077 31.1011 119.436 30.8952C119.795 30.6894 120.016 30.3073 120.016 29.8936H118.862ZM113.747 26.2936L114.338 25.3013C113.981 25.0889 113.538 25.0844 113.177 25.2897C112.816 25.495 112.593 25.8783 112.593 26.2936H113.747ZM118.862 29.3377H120.016C120.016 28.9306 119.802 28.5536 119.452 28.3454L118.862 29.3377ZM91.2568 13.9799H90.102C90.102 14.3903 90.3197 14.7698 90.674 14.9769L91.2568 13.9799ZM96.367 16.9673L95.7842 17.9643C96.1413 18.1731 96.5829 18.1749 96.9417 17.969C97.3005 17.7631 97.5218 17.381 97.5218 16.9673H96.367ZM91.2568 13.3697L91.8475 12.3773C91.4906 12.1649 91.0471 12.1605 90.6861 12.3657C90.325 12.571 90.102 12.9543 90.102 13.3697H91.2568ZM96.367 16.4114H97.5218C97.5218 16.0044 97.3075 15.6273 96.9577 15.4191L96.367 16.4114ZM90.604 6.98528L91.3106 6.07187C90.3188 5.3046 88.8287 4.9711 87.5035 4.9711V6.12591V7.28072C88.5469 7.28072 89.4605 7.56068 89.8975 7.89869L90.604 6.98528ZM91.1278 7.28072L91.6952 6.27489L91.1714 5.97945L90.604 6.98528L90.0367 7.99112L90.5605 8.28655L91.1278 7.28072ZM91.2568 7.28072V6.12591H91.1278V7.28072V8.43553H91.2568V7.28072ZM91.2568 7.35348H92.4116V7.28072H91.2568H90.102V7.35348H91.2568ZM100.826 12.7509L101.393 11.7451L91.8241 6.34764L91.2568 7.35348L90.6895 8.35931L100.258 13.7567L100.826 12.7509ZM102.687 14.2096L103.752 13.7639C103.309 12.7047 102.268 12.0116 101.188 11.6545L100.826 12.7509L100.463 13.8473C101.206 14.093 101.537 14.453 101.622 14.6552L102.687 14.2096ZM102.776 14.2096V13.0548H102.687V14.2096V15.3644H102.776V14.2096ZM102.776 14.4983H103.931V14.2096H102.776H101.621V14.4983H102.776ZM102.805 14.787H103.96C103.96 14.6111 103.942 14.4379 103.908 14.2689L102.776 14.4983L101.644 14.7278C101.648 14.7479 101.65 14.7674 101.65 14.787H102.805ZM102.776 15.0757L103.908 15.3052C103.942 15.1362 103.96 14.963 103.96 14.787H102.805H101.65C101.65 14.8066 101.648 14.8261 101.644 14.8463L102.776 15.0757ZM102.776 38.6815H103.931V15.0757H102.776H101.621V38.6815H102.776ZM106.425 40.7676L106.998 39.765L103.349 37.6789L102.776 38.6815L102.203 39.684L105.852 41.7701L106.425 40.7676ZM106.425 40.7676L107.58 40.7559L107.396 22.5041L106.241 22.5158L105.086 22.5274L105.27 40.7792L106.425 40.7676ZM106.241 22.5158L105.658 23.5127L106.236 23.8503L106.819 22.8533L107.401 21.8564L106.824 21.5188L106.241 22.5158ZM106.819 22.5904H105.664V22.8533H106.819H107.973V22.5904H106.819ZM106.241 21.3594H105.086C105.086 22.1964 105.482 22.9007 106.013 23.4177L106.819 22.5904L107.624 21.7632C107.424 21.5677 107.396 21.4278 107.396 21.3594H106.241ZM109.994 19.0499L109.994 17.8951C108.779 17.8951 107.624 18.1958 106.735 18.7429C105.865 19.2784 105.086 20.1711 105.086 21.3593L106.241 21.3594L107.396 21.3595C107.396 21.2723 107.458 21.0102 107.946 20.7099C108.415 20.421 109.136 20.2047 109.994 20.2047L109.994 19.0499ZM113.095 19.9092L113.801 18.9958C112.809 18.2286 111.319 17.8951 109.994 17.8951V19.0499V20.2047C111.037 20.2047 111.951 20.4846 112.388 20.8226L113.095 19.9092ZM113.618 20.2047L114.186 19.1988L113.662 18.9034L113.095 19.9092L112.527 20.9151L113.051 21.2105L113.618 20.2047ZM113.747 20.2047V19.0499H113.618V20.2047V21.3595H113.747V20.2047ZM113.747 20.2774H114.902V20.2047H113.747H112.593V20.2774H113.747ZM123.316 25.6749L123.884 24.669L114.315 19.2716L113.747 20.2774L113.18 21.2833L122.749 26.6807L123.316 25.6749ZM125.178 27.1335L126.243 26.6879C125.8 25.6287 124.759 24.9355 123.679 24.5784L123.316 25.6749L122.954 26.7713C123.697 27.017 124.028 27.3769 124.112 27.5792L125.178 27.1335ZM125.296 27.1335V25.9787H125.178V27.1335V28.2883H125.296V27.1335ZM125.296 51.5569H126.451V27.1335H125.296H124.141V51.5569H125.296ZM137.402 58.4784L137.975 57.4759L125.869 50.5544L125.296 51.5569L124.723 52.5594L136.829 59.4809L137.402 58.4784ZM139.717 62.1297L140.869 62.0418C140.732 60.2478 139.762 58.4977 137.975 57.4759L137.402 58.4784L136.829 59.4809C137.907 60.0975 138.483 61.1358 138.566 62.2176L139.717 62.1297ZM139.731 62.1297V60.9749H139.717V62.1297V63.2845H139.731V62.1297ZM139.731 62.4407H140.885V62.1297H139.731H138.576V62.4407H139.731ZM139.731 62.4962L140.886 62.4981C140.886 62.4752 140.886 62.4522 140.885 62.4293L139.731 62.4407L138.576 62.4521C138.576 62.4662 138.576 62.4802 138.576 62.4943L139.731 62.4962ZM139.731 62.5346L140.885 62.5415L140.886 62.5031L139.731 62.4962L138.576 62.4893L138.576 62.5277L139.731 62.5346ZM139.731 69.0406H140.885V62.5346H139.731H138.576V69.0406H139.731ZM137.438 73.07L138.018 74.0684C139.949 72.9459 140.905 70.9755 140.885 69.0292L139.731 69.0406L138.576 69.0521C138.588 70.2305 138.017 71.3975 136.857 72.0717L137.438 73.07ZM79.4978 106.758L80.0783 107.756L138.018 74.0684L137.438 73.07L136.857 72.0717L78.9173 105.76L79.4978 106.758ZM64.3294 106.73L63.7458 107.726C68.7878 110.679 75.0306 110.691 80.0783 107.756L79.4978 106.758L78.9173 105.76C74.5905 108.275 69.2372 108.266 64.913 105.733L64.3294 106.73ZM6.84804 73.0663L6.26445 74.0628L63.7458 107.726L64.3294 106.73L64.913 105.733L7.43163 72.0698L6.84804 73.0663ZM4.61783 68.3539L3.47701 68.1747C3.13139 70.3747 4.05622 72.7696 6.26445 74.0628L6.84804 73.0663L7.43163 72.0698C6.1084 71.2949 5.54835 69.8718 5.75865 68.5331L4.61783 68.3539ZM4.61783 63.2105H3.46302V68.3539H4.61783H5.77264V63.2105H4.61783ZM6.87067 58.4893L6.29436 57.4886C4.06601 58.7719 3.12966 61.1782 3.47701 63.3897L4.61783 63.2105L5.75866 63.0313C5.54718 61.6849 6.11467 60.2573 7.44698 59.49L6.87067 58.4893ZM17.3603 52.4484L16.784 51.4476L6.29436 57.4886L6.87067 58.4893L7.44698 59.49L17.9366 53.4491L17.3603 52.4484ZM16.7422 48.3549H15.5874C15.5874 49.8799 15.8188 51.3726 16.2571 52.7896L17.3603 52.4484L18.4636 52.1071C18.0929 50.9085 17.897 49.6458 17.897 48.3549H16.7422ZM16.7422 40.9139H15.5874V48.3549H16.7422H17.897V40.9139H16.7422ZM25.3451 26.6254L24.8047 25.6048C19.1341 28.6069 15.5874 34.4976 15.5874 40.9139H16.7422H17.897C17.897 35.3532 20.9708 30.2479 25.8854 27.646L25.3451 26.6254ZM41.8227 17.902L41.2824 16.8814L24.8047 25.6048L25.3451 26.6254L25.8854 27.646L42.363 18.9226L41.8227 17.902ZM50.8071 17.3432L51.2453 16.2748C47.9784 14.9348 44.3446 15.2602 41.2824 16.8814L41.8227 17.902L42.363 18.9226C44.8791 17.5906 47.7961 17.3564 50.3689 18.4116L50.8071 17.3432ZM65.3955 24.8309L66.0249 23.8627C60.7647 20.443 55.089 17.8513 51.2453 16.2748L50.8071 17.3432L50.3689 18.4116C54.1462 19.9609 59.6753 22.4896 64.7661 25.7991L65.3955 24.8309ZM79.4091 25.3217L79.9823 24.3191C75.3251 21.6564 69.6762 21.4809 64.8933 23.791L65.3955 24.8309L65.8978 25.8707C69.9977 23.8905 74.8419 24.0406 78.836 26.3242L79.4091 25.3217ZM83.9349 27.9092L84.5081 26.9067L79.9823 24.3191L79.4091 25.3217L78.836 26.3242L83.3617 28.9117L83.9349 27.9092ZM83.7505 9.59182L82.5958 9.60344L82.7802 27.9208L83.9349 27.9092L85.0897 27.8976L84.9053 9.5802L83.7505 9.59182ZM84.3279 9.92937L84.9108 8.93241L84.3334 8.59487L83.7505 9.59182L83.1677 10.5888L83.7451 10.9263L84.3279 9.92937ZM84.3279 9.66649H83.1731V9.92937H84.3279H85.4827V9.66649H84.3279ZM83.7505 8.43548H82.5957C82.5957 9.27246 82.9914 9.97677 83.5222 10.4938L84.3279 9.66649L85.1337 8.83921C84.933 8.64377 84.9053 8.50389 84.9053 8.43548H83.7505ZM87.5035 6.12591L87.5034 4.9711C86.2886 4.97114 85.1335 5.27187 84.2445 5.81892C83.3743 6.35449 82.5958 7.24713 82.5957 8.43538L83.7505 8.43548L84.9053 8.43558C84.9053 8.34836 84.967 8.08625 85.455 7.78591C85.9244 7.49707 86.6457 7.28075 87.5035 7.28072L87.5035 6.12591ZM113.747 26.9039L113.165 27.9009L118.279 30.8905L118.862 29.8936L119.444 28.8966L114.33 25.9069L113.747 26.9039ZM113.747 26.2936H112.593V26.9039H113.747H114.902V26.2936H113.747ZM118.862 29.3377L119.452 28.3454L114.338 25.3013L113.747 26.2936L113.157 27.2859L118.271 30.33L118.862 29.3377ZM118.862 29.8936H120.016V29.3377H118.862H117.707V29.8936H118.862ZM91.2568 13.9799L90.674 14.9769L95.7842 17.9643L96.367 16.9673L96.9498 15.9704L91.8396 12.983L91.2568 13.9799ZM91.2568 13.3697H90.102V13.9799H91.2568H92.4116V13.3697H91.2568ZM96.367 16.4114L96.9577 15.4191L91.8475 12.3773L91.2568 13.3697L90.6661 14.362L95.7763 17.4038L96.367 16.4114ZM96.367 16.9673H97.5218V16.4114H96.367H95.2122V16.9673H96.367Z" fill="var(--stroke-0, #1D2939)" mask="url(#path-2-outside-1_4429_93565)"/>
</g>
<g id="Mask group">
<mask id="mask0_4429_93565" style="mask-type:alpha" maskUnits="userSpaceOnUse" x="4" y="23" width="69" height="87">
<rect id="Rectangle 2401" x="4.61783" y="23.0962" width="67.5564" height="86.0334" fill="var(--fill-0, #D0D8DC)"/>
</mask>
<g mask="url(#mask0_4429_93565)">
<path id="Rectangle 2372" d="M64.4316 31.9405C69.0623 29.2737 74.7669 29.2663 79.4104 31.9212L137.403 65.0779C140.492 66.844 140.512 71.2831 137.439 73.07L79.499 106.758C74.8118 109.483 69.0137 109.472 64.3307 106.73L6.84927 73.0663C3.78994 71.2746 3.80248 66.8565 6.87191 65.0888L64.4316 31.9405Z" fill="var(--fill-0, #D0D5DD)"/>
<path id="Rectangle 2373" d="M64.4315 25.341C69.0622 22.6742 74.7668 22.6668 79.4103 25.3217L137.403 58.4784C140.492 60.2445 140.512 64.6836 137.439 66.4705L79.4989 100.158C74.8117 102.884 69.0136 102.873 64.3306 100.13L6.84917 66.4668C3.78983 64.6751 3.80237 60.257 6.8718 58.4893L64.4315 25.341Z" fill="var(--fill-0, #D0D5DD)"/>
<rect id="Rectangle 2374" x="4.61896" y="62.1297" width="135.113" height="6.92886" fill="var(--fill-0, #D0D5DD)"/>
</g>
</g>
<path id="Rectangle 2370" d="M137.544 58.1295C140.826 60.0051 140.847 64.7258 137.582 66.6265L79.6122 100.373C74.8384 103.152 68.9347 103.144 64.1655 100.352L6.71148 66.7147C3.46162 64.8119 3.47495 60.1141 6.73583 58.2337L64.3244 25.027C69.0407 22.3075 74.8497 22.2976 79.5786 25.0002L137.544 58.1295Z" fill="var(--fill-0, white)" stroke="var(--stroke-0, #1D2939)" stroke-width="0.577405"/>
<path id="Vector 1004" d="M85.3483 66.979H121.831L106.241 57.1631H70.1533L85.3483 66.979Z" fill="var(--fill-0, #D0D5DD)"/>
<path id="Vector 1005" d="M63.1182 53.9874H99.601L84.011 43.8828H47.9232L63.1182 53.9874Z" fill="var(--fill-0, #D0D5DD)"/>
<path id="Vector 980" d="M43.917 86.2814L60.7898 86.0678C62.5711 86.0453 64.3121 85.5341 65.8228 84.5899L80.0123 76.3464C87.4274 72.0386 87.7262 61.4369 80.5655 56.7183L52.3922 38.1532C48.6149 35.6642 43.7321 35.6097 39.9003 38.014L16.7433 52.5439L6.85027 58.6186C3.87807 60.4436 3.9232 64.7781 6.93277 66.5408L37.9344 84.6989C39.7475 85.7609 41.816 86.308 43.917 86.2814Z" fill="var(--fill-0, #D0D5DD)"/>
<g id="Group 5481">
<g id="Union_2">
<mask id="path-12-inside-2_4429_93565" fill="white">
<path d="M103.383 51.1637H103.326C103.005 52.802 101.343 54.0503 99.3406 54.0504C97.1085 54.0504 95.2988 52.4997 95.2986 50.5865C95.2986 49.6425 95.7394 48.7866 96.4538 48.1617V14.2096H103.383V51.1637Z"/>
</mask>
<path d="M103.383 51.1637H103.326C103.005 52.802 101.343 54.0503 99.3406 54.0504C97.1085 54.0504 95.2988 52.4997 95.2986 50.5865C95.2986 49.6425 95.7394 48.7866 96.4538 48.1617V14.2096H103.383V51.1637Z" fill="var(--fill-0, #D0D5DD)"/>
<path d="M103.383 51.1637V51.7411H103.96V51.1637H103.383ZM103.326 51.1637V50.5863H102.851L102.759 51.0527L103.326 51.1637ZM99.3406 54.0504V54.6278H99.3406L99.3406 54.0504ZM95.2986 50.5865H94.7212V50.5866L95.2986 50.5865ZM96.4538 48.1617L96.834 48.5964L97.0312 48.4238V48.1617H96.4538ZM96.4538 14.2096V13.6322H95.8764V14.2096H96.4538ZM103.383 14.2096H103.96V13.6322H103.383V14.2096ZM103.383 51.1637V50.5863H103.326V51.1637V51.7411H103.383V51.1637ZM103.326 51.1637L102.759 51.0527C102.502 52.3666 101.125 53.4729 99.3405 53.473L99.3406 54.0504L99.3406 54.6278C101.561 54.6277 103.508 53.2375 103.893 51.2746L103.326 51.1637ZM99.3406 54.0504V53.473C97.3406 53.473 95.8762 52.1004 95.876 50.5865L95.2986 50.5865L94.7212 50.5866C94.7215 52.899 96.8764 54.6278 99.3406 54.6278V54.0504ZM95.2986 50.5865H95.876C95.876 49.831 96.2274 49.1269 96.834 48.5964L96.4538 48.1617L96.0737 47.7271C95.2514 48.4463 94.7212 49.4541 94.7212 50.5865H95.2986ZM96.4538 48.1617H97.0312V14.2096H96.4538H95.8764V48.1617H96.4538ZM96.4538 14.2096V14.787H103.383V14.2096V13.6322H96.4538V14.2096ZM103.383 14.2096H102.805V51.1637H103.383H103.96V14.2096H103.383Z" fill="var(--stroke-0, #1D2939)" mask="url(#path-12-inside-2_4429_93565)"/>
</g>
<rect id="Rectangle 2404" x="84.6166" y="7.56942" width="6.35146" height="35.7991" fill="var(--fill-0, #D0D5DD)" stroke="var(--stroke-0, #1D2939)" stroke-width="0.577405"/>
<g id="Union_3">
<mask id="path-15-outside-3_4429_93565" maskUnits="userSpaceOnUse" x="82.7505" y="5.12591" width="21" height="13" fill="black">
<rect fill="white" x="82.7505" y="5.12591" width="21" height="13"/>
<path d="M87.5034 6.12591C88.6877 6.12591 89.8896 6.43264 90.604 6.98528L100.826 12.7509C102.004 13.1405 102.805 13.9063 102.805 14.787C102.805 16.0626 101.124 17.0966 99.0512 17.0966C98.3325 17.0966 97.6619 16.9695 97.0913 16.7538L97.0307 16.8066L86.7719 10.7001C85.0495 10.4906 83.7505 9.55694 83.7505 8.43548C83.7506 7.16001 85.4307 6.12598 87.5034 6.12591Z"/>
</mask>
<path d="M87.5034 6.12591C88.6877 6.12591 89.8896 6.43264 90.604 6.98528L100.826 12.7509C102.004 13.1405 102.805 13.9063 102.805 14.787C102.805 16.0626 101.124 17.0966 99.0512 17.0966C98.3325 17.0966 97.6619 16.9695 97.0913 16.7538L97.0307 16.8066L86.7719 10.7001C85.0495 10.4906 83.7505 9.55694 83.7505 8.43548C83.7506 7.16001 85.4307 6.12598 87.5034 6.12591Z" fill="var(--fill-0, white)"/>
<path d="M87.5034 6.12591V5.5485H87.5034L87.5034 6.12591ZM90.604 6.98528L90.2507 7.44199L90.2838 7.46762L90.3203 7.4882L90.604 6.98528ZM100.826 12.7509L100.542 13.2538L100.591 13.2815L100.644 13.2991L100.826 12.7509ZM102.805 14.787H103.383V14.787L102.805 14.787ZM99.0512 17.0966L99.0512 17.674H99.0512V17.0966ZM97.0913 16.7538L97.2954 16.2137L96.9724 16.0916L96.712 16.3184L97.0913 16.7538ZM97.0307 16.8066L96.7354 17.3027L97.0947 17.5166L97.41 17.242L97.0307 16.8066ZM86.7719 10.7001L87.0673 10.204L86.9626 10.1417L86.8417 10.1269L86.7719 10.7001ZM83.7505 8.43548L83.173 8.43543V8.43548H83.7505ZM87.5034 6.12591V6.70331C88.6173 6.70331 89.675 6.99666 90.2507 7.44199L90.604 6.98528L90.9573 6.52858C90.1041 5.86862 88.7582 5.5485 87.5034 5.5485V6.12591ZM90.604 6.98528L90.3203 7.4882L100.542 13.2538L100.826 12.7509L101.109 12.248L90.8876 6.48237L90.604 6.98528ZM100.826 12.7509L100.644 13.2991C101.741 13.6618 102.228 14.2869 102.228 14.787L102.805 14.787L103.383 14.787C103.383 13.5258 102.266 12.6192 101.007 12.2027L100.826 12.7509ZM102.805 14.787H102.228C102.228 15.1494 101.987 15.5692 101.403 15.9284C100.828 16.2818 99.9984 16.5192 99.0512 16.5192V17.0966V17.674C100.177 17.674 101.224 17.3944 102.008 16.912C102.783 16.4353 103.383 15.7002 103.383 14.787H102.805ZM99.0512 17.0966L99.0513 16.5192C98.3991 16.5192 97.798 16.4037 97.2954 16.2137L97.0913 16.7538L96.8871 17.294C97.5259 17.5354 98.2658 17.674 99.0512 17.674L99.0512 17.0966ZM97.0913 16.7538L96.712 16.3184L96.6515 16.3712L97.0307 16.8066L97.41 17.242L97.4705 17.1892L97.0913 16.7538ZM97.0307 16.8066L97.3261 16.3104L87.0673 10.204L86.7719 10.7001L86.4766 11.1963L96.7354 17.3027L97.0307 16.8066ZM86.7719 10.7001L86.8417 10.1269C86.0588 10.0317 85.4032 9.77471 84.9588 9.44571C84.5121 9.11502 84.3279 8.7553 84.3279 8.43548H83.7505H83.173C83.173 9.23712 83.6383 9.90498 84.2717 10.3739C84.9074 10.8445 85.7626 11.159 86.7022 11.2733L86.7719 10.7001ZM83.7505 8.43548L84.3279 8.43553C84.3279 8.07305 84.5688 7.65331 85.1523 7.29416C85.7266 6.94077 86.5563 6.70334 87.5034 6.70331L87.5034 6.12591L87.5034 5.5485C86.3778 5.54854 85.3311 5.82817 84.5471 6.31067C83.7724 6.78743 83.1731 7.52244 83.173 8.43543L83.7505 8.43548Z" fill="var(--stroke-0, #1D2939)" mask="url(#path-15-outside-3_4429_93565)"/>
</g>
<path id="Rectangle 2397" d="M96.9478 16.9726C97.2109 17.1266 97.3734 17.4073 97.3763 17.7119L97.7066 52.8774L97.711 53.3923L97.2691 53.1274L85.0664 45.8101C84.2912 45.3452 83.813 44.5113 83.8038 43.6083L83.4616 9.59498L83.4571 9.08577L83.8968 9.34291L96.9478 16.9726Z" fill="var(--fill-0, white)" stroke="var(--stroke-0, #1D2939)" stroke-width="0.577405"/>
<path id="Rectangle 2405" d="M93.7272 17.087C94.8611 17.7498 95.566 18.9561 95.5864 20.2681L95.7906 33.3768C95.8012 34.0554 95.0615 34.4811 94.4788 34.132L87.0121 29.6549C85.8999 28.9879 85.2107 27.7946 85.1889 26.4991L84.9707 13.491C84.9594 12.8161 85.6914 12.3891 86.2747 12.7301L93.7272 17.087Z" fill="var(--fill-0, #FFDD33)" stroke="var(--stroke-0, #1D2939)" stroke-width="0.577405"/>
<g id="Union_4">
<path fill-rule="evenodd" clip-rule="evenodd" d="M91.1703 26.1879C91.0996 26.4218 90.9815 26.6069 90.8163 26.7198C90.2444 27.1108 89.3238 26.4905 88.76 25.3342C88.2953 24.381 88.2182 23.3613 88.5257 22.8134C88.9343 21.3823 90.0952 19.6318 90.0952 19.6318C90.0952 19.6318 91.9747 23.8356 91.3481 25.8139C91.2995 25.9673 91.2395 26.091 91.1703 26.1879Z" fill="var(--fill-0, white)"/>
<path d="M91.1703 26.1879L90.9354 26.0202C90.9171 26.0458 90.9031 26.0742 90.894 26.1044L91.1703 26.1879ZM90.8163 26.7198L90.6534 26.4815V26.4815L90.8163 26.7198ZM88.76 25.3342L88.5005 25.4607H88.5005L88.76 25.3342ZM88.5257 22.8134L88.7775 22.9547C88.7885 22.9351 88.7972 22.9143 88.8034 22.8926L88.5257 22.8134ZM90.0952 19.6318L90.3587 19.5139C90.3158 19.4178 90.2239 19.3527 90.119 19.3441C90.0141 19.3354 89.9128 19.3845 89.8546 19.4722L90.0952 19.6318ZM91.3481 25.8139L91.0729 25.7267V25.7267L91.3481 25.8139ZM91.1703 26.1879L90.894 26.1044C90.8359 26.2962 90.7486 26.4164 90.6534 26.4815L90.8163 26.7198L90.9792 26.9582C91.2145 26.7973 91.3632 26.5475 91.4466 26.2715L91.1703 26.1879ZM90.8163 26.7198L90.6534 26.4815C90.5081 26.5808 90.2724 26.5875 89.9464 26.3678C89.6267 26.1523 89.2853 25.7528 89.0195 25.2077L88.76 25.3342L88.5005 25.4607C88.7985 26.0719 89.1993 26.5606 89.6238 26.8467C90.042 27.1285 90.5525 27.2499 90.9792 26.9582L90.8163 26.7198ZM88.76 25.3342L89.0195 25.2077C88.8015 24.7605 88.6765 24.3014 88.6409 23.8965C88.6047 23.4856 88.6628 23.159 88.7775 22.9547L88.5257 22.8134L88.274 22.6721C88.0811 23.0156 88.024 23.4729 88.0657 23.9471C88.1079 24.4274 88.2538 24.9547 88.5005 25.4607L88.76 25.3342ZM88.5257 22.8134L88.8034 22.8926C88.9984 22.2093 89.3779 21.4369 89.7163 20.8258C89.8842 20.5224 90.0397 20.2629 90.153 20.0794C90.2097 19.9877 90.2557 19.9152 90.2874 19.8658C90.3033 19.8411 90.3155 19.8222 90.3238 19.8097C90.3279 19.8034 90.331 19.7987 90.333 19.7956C90.334 19.794 90.3347 19.7929 90.3352 19.7922C90.3355 19.7918 90.3356 19.7916 90.3357 19.7915C90.3358 19.7914 90.3358 19.7913 90.3358 19.7913C90.3358 19.7913 90.3358 19.7913 90.3358 19.7913C90.3358 19.7913 90.3358 19.7913 90.0952 19.6318C89.8546 19.4722 89.8546 19.4723 89.8545 19.4723C89.8545 19.4723 89.8545 19.4724 89.8545 19.4724C89.8544 19.4725 89.8543 19.4726 89.8542 19.4727C89.8541 19.473 89.8538 19.4734 89.8535 19.4739C89.8528 19.4749 89.8519 19.4763 89.8507 19.4781C89.8483 19.4817 89.8448 19.487 89.8403 19.4939C89.8314 19.5077 89.8183 19.5278 89.8016 19.5538C89.7682 19.6057 89.7204 19.6811 89.6618 19.7759C89.5447 19.9654 89.3844 20.233 89.2111 20.5461C88.8668 21.168 88.4616 21.9864 88.2481 22.7341L88.5257 22.8134ZM90.0952 19.6318C89.8316 19.7496 89.8316 19.7496 89.8316 19.7496C89.8316 19.7496 89.8316 19.7496 89.8316 19.7497C89.8317 19.7497 89.8317 19.7499 89.8318 19.7501C89.832 19.7505 89.8323 19.7511 89.8327 19.752C89.8335 19.7539 89.8348 19.7567 89.8364 19.7605C89.8398 19.768 89.8448 19.7795 89.8514 19.7947C89.8646 19.8251 89.8841 19.8702 89.9088 19.9286C89.9581 20.0454 90.0281 20.2149 90.1102 20.4248C90.2747 20.8449 90.4873 21.4246 90.6802 22.0643C90.8735 22.7051 91.0451 23.3997 91.1304 24.0509C91.2165 24.7079 91.2106 25.2919 91.0729 25.7267L91.3481 25.8139L91.6233 25.9011C91.7989 25.3467 91.793 24.6634 91.7029 23.9758C91.6121 23.2824 91.4313 22.5551 91.233 21.8976C91.0344 21.2391 90.8162 20.6442 90.6479 20.2143C90.5637 19.9991 90.4917 19.8248 90.4407 19.704C90.4152 19.6435 90.3949 19.5964 90.3809 19.5642C90.3738 19.5481 90.3684 19.5358 90.3647 19.5273C90.3628 19.5231 90.3614 19.5199 90.3604 19.5176C90.3599 19.5165 90.3595 19.5156 90.3592 19.515C90.3591 19.5147 90.359 19.5145 90.3589 19.5143C90.3589 19.5142 90.3588 19.5141 90.3588 19.5141C90.3588 19.514 90.3587 19.5139 90.0952 19.6318ZM91.3481 25.8139L91.0729 25.7267C91.0312 25.8583 90.9832 25.9531 90.9354 26.0202L91.1703 26.1879L91.4052 26.3557C91.4958 26.2289 91.5678 26.0764 91.6233 25.9011L91.3481 25.8139Z" fill="var(--stroke-0, #1D2939)"/>
</g>
</g>
<g id="Group 5480">
<g id="Union_5">
<mask id="path-21-inside-4_4429_93565" fill="white">
<path d="M125.873 64.0921H125.817C125.496 65.7305 123.834 66.9788 121.831 66.9789C119.599 66.9789 117.789 65.4282 117.789 63.515C117.789 62.571 118.23 61.7151 118.944 61.0902V27.138H125.873V64.0921Z"/>
</mask>
<path d="M125.873 64.0921H125.817C125.496 65.7305 123.834 66.9788 121.831 66.9789C119.599 66.9789 117.789 65.4282 117.789 63.515C117.789 62.571 118.23 61.7151 118.944 61.0902V27.138H125.873V64.0921Z" fill="var(--fill-0, #D0D5DD)"/>
<path d="M125.873 64.0921V64.6696H126.451V64.0921H125.873ZM125.817 64.0921V63.5147H125.341L125.25 63.9812L125.817 64.0921ZM121.831 66.9789V67.5563H121.831L121.831 66.9789ZM117.789 63.515H117.212V63.5151L117.789 63.515ZM118.944 61.0902L119.325 61.5248L119.522 61.3523V61.0902H118.944ZM118.944 27.138V26.5606H118.367V27.138H118.944ZM125.873 27.138H126.451V26.5606H125.873V27.138ZM125.873 64.0921V63.5147H125.817V64.0921V64.6696H125.873V64.0921ZM125.817 64.0921L125.25 63.9812C124.993 65.295 123.616 66.4014 121.831 66.4015L121.831 66.9789L121.831 67.5563C124.051 67.5562 125.999 66.166 126.383 64.2031L125.817 64.0921ZM121.831 66.9789V66.4015C119.831 66.4015 118.367 65.0289 118.367 63.5149L117.789 63.515L117.212 63.5151C117.212 65.8274 119.367 67.5563 121.831 67.5563V66.9789ZM117.789 63.515H118.367C118.367 62.7594 118.718 62.0553 119.325 61.5248L118.944 61.0902L118.564 60.6556C117.742 61.3748 117.212 62.3825 117.212 63.515H117.789ZM118.944 61.0902H119.522V27.138H118.944H118.367V61.0902H118.944ZM118.944 27.138V27.7155H125.873V27.138V26.5606H118.944V27.138ZM125.873 27.138H125.296V64.0921H125.873H126.451V27.138H125.873Z" fill="var(--stroke-0, #1D2939)" mask="url(#path-21-inside-4_4429_93565)"/>
</g>
<rect id="Rectangle 2404_2" x="107.107" y="20.4979" width="6.35146" height="35.7991" fill="var(--fill-0, #D0D5DD)" stroke="var(--stroke-0, #1D2939)" stroke-width="0.577405"/>
<g id="Union_6">
<mask id="path-24-outside-5_4429_93565" maskUnits="userSpaceOnUse" x="105.241" y="18.0544" width="21" height="13" fill="black">
<rect fill="white" x="105.241" y="18.0544" width="21" height="13"/>
<path d="M109.994 19.0544C111.178 19.0544 112.38 19.3611 113.095 19.9137L123.316 25.6794C124.494 26.0689 125.296 26.8348 125.296 27.7155C125.296 28.9911 123.615 30.0251 121.542 30.0251C120.823 30.025 120.153 29.898 119.582 29.6823L119.521 29.735L109.263 23.6286C107.54 23.4191 106.241 22.4854 106.241 21.3639C106.241 20.0885 107.921 19.0544 109.994 19.0544Z"/>
</mask>
<path d="M109.994 19.0544C111.178 19.0544 112.38 19.3611 113.095 19.9137L123.316 25.6794C124.494 26.0689 125.296 26.8348 125.296 27.7155C125.296 28.9911 123.615 30.0251 121.542 30.0251C120.823 30.025 120.153 29.898 119.582 29.6823L119.521 29.735L109.263 23.6286C107.54 23.4191 106.241 22.4854 106.241 21.3639C106.241 20.0885 107.921 19.0544 109.994 19.0544Z" fill="var(--fill-0, white)"/>
<path d="M109.994 19.0544V18.477H109.994L109.994 19.0544ZM113.095 19.9137L112.741 20.3705L112.774 20.3961L112.811 20.4167L113.095 19.9137ZM123.316 25.6794L123.033 26.1823L123.082 26.2099L123.135 26.2276L123.316 25.6794ZM125.296 27.7155H125.873V27.7155L125.296 27.7155ZM121.542 30.0251L121.542 30.6025H121.542V30.0251ZM119.582 29.6823L119.786 29.1422L119.463 29.0201L119.203 29.2469L119.582 29.6823ZM119.521 29.735L119.226 30.2312L119.585 30.4451L119.901 30.1704L119.521 29.735ZM109.263 23.6286L109.558 23.1324L109.453 23.0701L109.332 23.0554L109.263 23.6286ZM106.241 21.3639L105.664 21.3639V21.3639H106.241ZM109.994 19.0544V19.6318C111.108 19.6318 112.166 19.9251 112.741 20.3705L113.095 19.9137L113.448 19.457C112.595 18.7971 111.249 18.477 109.994 18.477V19.0544ZM113.095 19.9137L112.811 20.4167L123.033 26.1823L123.316 25.6794L123.6 25.1765L113.378 19.4108L113.095 19.9137ZM123.316 25.6794L123.135 26.2276C124.232 26.5903 124.718 27.2154 124.718 27.7155L125.296 27.7155L125.873 27.7155C125.873 26.4542 124.757 25.5476 123.498 25.1312L123.316 25.6794ZM125.296 27.7155H124.718C124.718 28.0779 124.477 28.4976 123.894 28.8568C123.319 29.2103 122.489 29.4477 121.542 29.4477V30.0251V30.6025C122.667 30.6025 123.714 30.3229 124.499 29.8404C125.274 29.3637 125.873 28.6287 125.873 27.7155H125.296ZM121.542 30.0251L121.542 29.4477C120.89 29.4476 120.289 29.3321 119.786 29.1422L119.582 29.6823L119.378 30.2224C120.017 30.4638 120.756 30.6024 121.542 30.6025L121.542 30.0251ZM119.582 29.6823L119.203 29.2469L119.142 29.2996L119.521 29.735L119.901 30.1704L119.961 30.1177L119.582 29.6823ZM119.521 29.735L119.817 29.2389L109.558 23.1324L109.263 23.6286L108.967 24.1248L119.226 30.2312L119.521 29.735ZM109.263 23.6286L109.332 23.0554C108.549 22.9602 107.894 22.7032 107.449 22.3742C107.003 22.0435 106.818 21.6838 106.818 21.3639H106.241H105.664C105.664 22.1656 106.129 22.8334 106.762 23.3023C107.398 23.7729 108.253 24.0875 109.193 24.2018L109.263 23.6286ZM106.241 21.3639L106.818 21.364C106.818 21.0015 107.059 20.5818 107.643 20.2226C108.217 19.8692 109.047 19.6318 109.994 19.6318L109.994 19.0544L109.994 18.477C108.868 18.477 107.822 18.7566 107.038 19.2391C106.263 19.7159 105.664 20.4509 105.664 21.3639L106.241 21.3639Z" fill="var(--stroke-0, #1D2939)" mask="url(#path-24-outside-5_4429_93565)"/>
</g>
<path id="Rectangle 2397_2" d="M119.438 29.9011C119.701 30.055 119.864 30.3358 119.867 30.6403L120.197 65.8059L120.202 66.3208L119.76 66.0559L107.557 58.7385C106.782 58.2737 106.304 57.4398 106.294 56.5368L105.952 22.5234L105.948 22.0142L106.387 22.2714L119.438 29.9011Z" fill="var(--fill-0, white)" stroke="var(--stroke-0, #1D2939)" stroke-width="0.577405"/>
<path id="Rectangle 2405_2" d="M116.218 30.0154C117.352 30.6783 118.057 31.8845 118.077 33.1966L118.281 46.3052C118.292 46.9838 117.552 47.4095 116.969 47.0605L109.503 42.5833C108.39 41.9164 107.701 40.723 107.68 39.4276L107.461 26.4195C107.45 25.7446 108.182 25.3176 108.765 25.6586L116.218 30.0154Z" fill="var(--fill-0, #FFDD33)" stroke="var(--stroke-0, #1D2939)" stroke-width="0.577405"/>
<path id="Vector 1004_2" d="M110.283 35.7189L114.036 32.3347L112.881 35.3934L115.191 37.1412L111.726 40.4184L112.276 37.4667L110.283 35.7189Z" fill="var(--fill-0, white)" stroke="var(--stroke-0, #1D2939)" stroke-width="0.577405" stroke-linecap="round" stroke-linejoin="round"/>
</g>
<path id="Vector 973" d="M41.6886 17.6466C44.5461 16.1338 47.9115 15.8431 50.9181 17.0763C55.0567 18.7737 61.3135 21.6479 66.8527 25.4562C76.1152 31.8241 86.4351 40.6352 94.0861 56.169H94.0851L99.8332 66.7374C101.691 70.153 100.509 74.4257 97.1603 76.4015L81.3625 85.7228C76.7603 88.438 71.0481 88.4463 66.4377 85.7452L23.4504 60.5606C19.1173 58.0221 16.4543 53.3765 16.4543 48.3546V40.9142C16.4543 34.8187 19.824 29.2222 25.2111 26.3702L41.6886 17.6466Z" fill="var(--fill-0, white)" stroke="var(--stroke-0, #1D2939)" stroke-width="0.577405"/>
<path id="Vector 981" d="M38.3959 41.5732C29.1575 35.7991 21.3626 34.4518 18.1869 34.3556C17.428 35.4938 16.9532 36.7974 16.8021 38.1569L16.7433 38.6861C16.647 41.6694 16.7433 47.5204 16.7433 48.2133C16.7433 49.9456 17.0898 51.62 17.3207 52.5439C17.6094 53.6987 18.7643 56.5857 20.7852 58.3179C22.4019 59.7037 45.4211 73.0418 56.2956 79.3932L63.2375 83.1798C64.9338 84.105 66.2753 83.6907 66.0316 81.7739C65.8066 80.0037 65.2442 77.2372 64.0905 73.0418C60.9148 61.4937 49.9441 48.7907 38.3959 41.5732Z" fill="var(--fill-0, #D0D5DD)"/>
<path id="Vector 976" d="M28.2729 37.0365L28.2914 36.6652C37.544 39.0885 47.8822 48.1833 52.4916 53.0265C52.8645 53.4184 53.4533 53.5066 53.922 53.2366L79.0266 38.7742C79.4239 38.5453 79.9184 38.5674 80.2673 38.8649C83.7261 41.814 88.3393 48.9668 91.4395 54.2902C92.8326 56.6823 93.3543 59.5778 92.2208 62.1032C91.1038 64.5917 89.1263 67.532 85.4546 70.1547C79.3918 74.4853 71.8855 77.0836 64.668 73.3305C59.5891 70.6894 42.6715 55.7927 31.9913 46.0878C29.4545 43.7826 28.1017 40.4599 28.2729 37.0365Z" fill="var(--fill-0, #FFDD33)"/>
<path id="Vector 982" d="M52.2557 52.8326C43.304 43.8828 34.6429 38.3974 28.5808 36.6652C28.003 40.7071 29.735 43.9689 31.4666 45.615C37.2379 51.1014 55.1406 67.2677 63.2245 72.1757C63.7056 69.9623 60.056 60.6311 52.2557 52.8326Z" fill="var(--fill-0, #FFDD33)"/>
<path id="Vector 970" d="M28.2914 34.0669V37.8346C28.2914 39.1144 28.8142 40.3307 29.7532 41.2003C39.6601 50.3762 57.9783 66.6306 66.2822 71.4982C67.4804 72.2005 68.8408 72.5247 70.2292 72.4877C78.0486 72.2793 91.0878 68.8613 93.8269 56.0083" stroke="var(--stroke-0, #1D2939)" stroke-width="0.577405" stroke-linecap="round"/>
<path id="Vector 972" d="M53.4086 51.3891L79.6805 36.0878" stroke="var(--stroke-0, #1D2939)" stroke-width="0.577405" stroke-linecap="round"/>
<path id="Vector 977" d="M82.5687 81.4141L95.2716 73.9079" stroke="var(--stroke-0, #1D2939)" stroke-width="0.577405" stroke-linecap="round"/>
<path id="Vector 974" d="M43.304 42.1524L43.4832 41.9261V41.9261L43.304 42.1524ZM81.2013 82.5602C81.3549 82.5176 81.4449 82.3584 81.4022 82.2048C81.3595 82.0512 81.2004 81.9612 81.0468 82.0039L81.124 82.2821L81.2013 82.5602ZM18.4756 32.3366L18.5058 32.6237C22.076 32.2479 32.088 33.6413 43.1248 42.3788L43.304 42.1524L43.4832 41.9261C32.3476 33.1104 22.1889 31.6554 18.4453 32.0494L18.4756 32.3366ZM43.304 42.1524L43.1248 42.3788C56.9357 53.3125 62.6872 63.3747 69.6125 75.7826L69.8646 75.6419L70.1167 75.5012C63.1844 63.0807 57.3877 52.9338 43.4832 41.9261L43.304 42.1524ZM69.8646 75.6419L69.6125 75.7826C71.3471 78.8903 72.893 80.9703 74.6936 82.0769C76.5178 83.1981 78.5572 83.2947 81.2013 82.5602L81.124 82.2821L81.0468 82.0039C78.4941 82.713 76.6361 82.593 74.9959 81.585C73.3321 80.5625 71.8466 78.6006 70.1167 75.5012L69.8646 75.6419Z" fill="var(--stroke-0, #1D2939)"/>
<path id="Rectangle 2373_2" d="M67.9894 31.473C68.8836 32.0766 68.8243 33.4107 67.88 33.9316L55.5998 40.7048C54.9756 41.049 54.2158 41.0388 53.6004 40.6786L46.9067 36.76C45.9459 36.1976 45.9558 34.8058 46.9247 34.2584L59.5501 27.126C60.2176 26.7491 61.0416 26.7825 61.6773 27.2116L67.9894 31.473Z" stroke="var(--stroke-0, #1D2939)" stroke-width="0.577405"/>
<path id="Vector 975" d="M99.8908 66.6903C100.083 68.23 99.3134 71.0208 96.4264 73.0418" stroke="var(--stroke-0, #1D2939)" stroke-width="0.577405" stroke-linecap="round"/>
<ellipse id="Ellipse 903" cx="27.1473" cy="57.732" rx="5.26151" ry="8.35652" transform="rotate(-30 27.1473 57.732)" fill="var(--fill-0, #D0D5DD)" stroke="var(--stroke-0, #1D2939)" stroke-width="0.577405"/>
<ellipse id="Ellipse 904" cx="61.566" cy="77.9998" rx="5.26151" ry="8.35652" transform="rotate(-30 61.566 77.9998)" fill="var(--fill-0, #D0D5DD)" stroke="var(--stroke-0, #1D2939)" stroke-width="0.577405"/>
<ellipse id="Ellipse 905" cx="27.0798" cy="57.7719" rx="3.18892" ry="5.78918" transform="rotate(-30 27.0798 57.7719)" fill="var(--fill-0, #D0D5DD)" stroke="var(--stroke-0, #1D2939)" stroke-width="0.577405"/>
<ellipse id="Ellipse 906" cx="61.514" cy="78.0576" rx="3.18413" ry="5.84878" transform="rotate(-30 61.514 78.0576)" fill="var(--fill-0, #D0D5DD)" stroke="var(--stroke-0, #1D2939)" stroke-width="0.577405"/>
</g>
</svg>
