<svg preserveAspectRatio="none" width="100%" height="100%" overflow="visible" style="display: block;" viewBox="0 0 18.6602 13.8594" fill="none" xmlns="http://www.w3.org/2000/svg">
<g id="Group 5488">
<g id="Union">
<mask id="path-1-inside-1_4429_93539" fill="white">
<path d="M9.33008 0C14.4181 7.99455e-05 18.5517 2.33448 18.6543 5.23633H18.6592V8.48926C18.6592 8.49701 18.6602 8.50493 18.6602 8.5127C18.6602 8.52019 18.6592 8.52767 18.6592 8.53516V8.83691H18.6416C18.3489 11.6386 14.2932 13.8593 9.33105 13.8594C4.36876 13.8594 0.313297 11.6386 0.0205078 8.83691H0V5.23633H0.00488281C0.107484 2.33442 4.24198 0 9.33008 0Z"/>
</mask>
<path d="M9.33008 0C14.4181 7.99455e-05 18.5517 2.33448 18.6543 5.23633H18.6592V8.48926C18.6592 8.49701 18.6602 8.50493 18.6602 8.5127C18.6602 8.52019 18.6592 8.52767 18.6592 8.53516V8.83691H18.6416C18.3489 11.6386 14.2932 13.8593 9.33105 13.8594C4.36876 13.8594 0.313297 11.6386 0.0205078 8.83691H0V5.23633H0.00488281C0.107484 2.33442 4.24198 0 9.33008 0Z" fill="var(--fill-0, #1D2939)"/>
<path d="M9.33008 0L9.33009 -0.577405H9.33008V0ZM18.6543 5.23633L18.0773 5.25673L18.0969 5.81373H18.6543V5.23633ZM18.6592 5.23633H19.2366V4.65892H18.6592V5.23633ZM18.6592 8.48926H18.0818L18.0818 8.49355L18.6592 8.48926ZM18.6602 8.5127L19.2376 8.51273V8.5127H18.6602ZM18.6592 8.53516L18.0818 8.53098V8.53516H18.6592ZM18.6592 8.83691V9.41432H19.2366V8.83691H18.6592ZM18.6416 8.83691V8.25951H18.1214L18.0673 8.77691L18.6416 8.83691ZM9.33105 13.8594V14.4368H9.33107L9.33105 13.8594ZM0.0205078 8.83691L0.594786 8.7769L0.540717 8.25951H0.0205078V8.83691ZM0 8.83691H-0.577405V9.41432H0V8.83691ZM0 5.23633V4.65892H-0.577405V5.23633H0ZM0.00488281 5.23633V5.81373H0.562234L0.581927 5.25673L0.00488281 5.23633ZM9.33008 0L9.33007 0.577405C11.7927 0.577444 13.9971 1.14355 15.5786 2.03324C17.1763 2.93206 18.0361 4.09297 18.0773 5.25673L18.6543 5.23633L19.2313 5.21592C19.1699 3.47784 17.9115 2.02063 16.1448 1.02676C14.3619 0.0237699 11.9555 -0.577364 9.33009 -0.577405L9.33008 0ZM18.6543 5.23633V5.81373H18.6592V5.23633V4.65892H18.6543V5.23633ZM18.6592 5.23633H18.0818V8.48926H18.6592H19.2366V5.23633H18.6592ZM18.6592 8.48926L18.0818 8.49355C18.0819 8.50589 18.0823 8.51618 18.0826 8.52291C18.0829 8.52913 18.0833 8.53499 18.0833 8.53581C18.0835 8.53802 18.0833 8.53573 18.0832 8.53253C18.083 8.52897 18.0828 8.5219 18.0828 8.5127H18.6602H19.2376C19.2376 8.49961 19.2372 8.48864 19.2368 8.48117C19.2365 8.47406 19.2361 8.46785 19.236 8.46614C19.2359 8.46304 19.236 8.46498 19.2361 8.46729C19.2362 8.47011 19.2365 8.4765 19.2366 8.48497L18.6592 8.48926ZM18.6602 8.5127L18.0828 8.51266C18.0828 8.50293 18.083 8.49538 18.0832 8.4914C18.0834 8.48784 18.0836 8.48523 18.0834 8.48739C18.0834 8.48792 18.0833 8.48987 18.0832 8.49183C18.083 8.49395 18.0829 8.49699 18.0827 8.50056C18.0823 8.50756 18.0819 8.5182 18.0818 8.53098L18.6592 8.53516L19.2366 8.53933C19.2365 8.54837 19.2362 8.55527 19.236 8.55853C19.2359 8.56123 19.2357 8.5635 19.2359 8.56046C19.236 8.55889 19.2364 8.55253 19.2368 8.54522C19.2371 8.5375 19.2376 8.52621 19.2376 8.51273L18.6602 8.5127ZM18.6592 8.53516H18.0818V8.83691H18.6592H19.2366V8.53516H18.6592ZM18.6592 8.83691V8.25951H18.6416V8.83691V9.41432H18.6592V8.83691ZM18.6416 8.83691L18.0673 8.77691C17.9491 9.90822 17.0517 11.0298 15.4623 11.8911C13.8891 12.7436 11.7323 13.2819 9.33104 13.282L9.33105 13.8594L9.33107 14.4368C11.892 14.4367 14.2441 13.8647 16.0125 12.9064C17.7646 11.9569 19.0414 10.5673 19.2159 8.89692L18.6416 8.83691ZM9.33105 13.8594V13.282C6.92979 13.282 4.77293 12.7436 3.19982 11.8911C1.61041 11.0298 0.713015 9.90825 0.594786 8.7769L0.0205078 8.83691L-0.55377 8.89693C-0.37921 10.5673 0.897523 11.957 2.64961 12.9064C4.41801 13.8648 6.77003 14.4368 9.33105 14.4368V13.8594ZM0.0205078 8.83691V8.25951H0V8.83691V9.41432H0.0205078V8.83691ZM0 8.83691H0.577405V5.23633H0H-0.577405V8.83691H0ZM0 5.23633V5.81373H0.00488281V5.23633V4.65892H0V5.23633ZM0.00488281 5.23633L0.581927 5.25673C0.623073 4.09299 1.48298 2.93205 3.08099 2.03321C4.66276 1.1435 6.86742 0.577405 9.33008 0.577405V0V-0.577405C6.70463 -0.577405 4.298 0.0237125 2.51485 1.02669C0.747936 2.02054 -0.510707 3.47776 -0.572162 5.21593L0.00488281 5.23633Z" fill="var(--stroke-0, #1D2939)" mask="url(#path-1-inside-1_4429_93539)"/>
</g>
<path id="Vector 1010" d="M1.41898 11.3486L1.41898 8.18421L1.85545 8.51156L1.85545 11.7305L1.41898 11.3486Z" fill="var(--fill-0, #FFDD33)"/>
<path id="Ellipse 923" d="M9.3295 0.289063C11.8647 0.289063 14.1464 0.878138 15.7836 1.81641C17.4286 2.75925 18.3705 4.0182 18.3705 5.34668C18.3705 6.67516 17.4286 7.93411 15.7836 8.87695C14.1464 9.81522 11.8647 10.4043 9.3295 10.4043C6.79446 10.4042 4.51349 9.81518 2.87638 8.87695C1.23121 7.9341 0.289466 6.67523 0.289466 5.34668C0.289467 4.01813 1.23121 2.75926 2.87638 1.81641C4.51349 0.878177 6.79446 0.289111 9.3295 0.289063Z" fill="var(--fill-0, #FFDD33)" stroke="var(--stroke-0, #1D2939)" stroke-width="0.577405"/>
<path id="Ellipse 924" d="M9.33033 1.59806C11.2326 1.59808 12.9409 2.04035 14.1633 2.74162C15.3937 3.44741 16.0793 4.37905 16.0793 5.34611C16.0793 6.31319 15.3937 7.24477 14.1633 7.9506C12.9409 8.65186 11.2326 9.09511 9.33033 9.09513C7.42796 9.09513 5.71981 8.65187 4.49732 7.9506C3.26686 7.24476 2.5813 6.31323 2.5813 5.34611C2.58139 4.37905 3.26694 3.44741 4.49732 2.74162C5.7198 2.04039 7.42805 1.59806 9.33033 1.59806Z" fill="var(--fill-0, #D0D5DD)" stroke="var(--stroke-0, #1D2939)" stroke-width="0.577405"/>
<path id="Ellipse 925" d="M9.05661 1.92463C10.8834 1.9247 12.5232 2.34875 13.6963 3.02033C14.8775 3.69668 15.5322 4.58794 15.5322 5.50959C15.532 6.4311 14.8773 7.32163 13.6963 7.99787C12.5232 8.66949 10.8835 9.09449 9.05661 9.09455C7.22955 9.09455 5.58914 8.66957 4.41598 7.99787C3.23493 7.32163 2.58024 6.4311 2.58004 5.50959C2.58004 4.58794 3.23476 3.69668 4.41598 3.02033C5.58914 2.34867 7.22958 1.92463 9.05661 1.92463Z" fill="var(--fill-0, #FFDD33)" stroke="var(--stroke-0, #1D2939)" stroke-width="0.577405"/>
</g>
</svg>
