<svg preserveAspectRatio="none" width="100%" height="100%" overflow="visible" style="display: block;" viewBox="0 0 18.6594 13.8574" fill="none" xmlns="http://www.w3.org/2000/svg">
<g id="Group 5485">
<g id="Union">
<mask id="path-1-inside-1_4429_93266" fill="white">
<path d="M9.33008 0C14.4199 1.65386e-05 18.5544 2.33602 18.6543 5.23926H18.6592V8.83984H18.6396C18.3431 11.6394 14.2896 13.8573 9.33008 13.8574C4.37037 13.8574 0.316091 11.6395 0.0195312 8.83984H0V5.23926H0.00585938C0.105804 2.33601 4.24028 0 9.33008 0Z"/>
</mask>
<path d="M9.33008 0C14.4199 1.65386e-05 18.5544 2.33602 18.6543 5.23926H18.6592V8.83984H18.6396C18.3431 11.6394 14.2896 13.8573 9.33008 13.8574C4.37037 13.8574 0.316091 11.6395 0.0195312 8.83984H0V5.23926H0.00585938C0.105804 2.33601 4.24028 0 9.33008 0Z" fill="var(--fill-0, #1D2939)"/>
<path d="M9.33008 0L9.33008 -0.577405H9.33008V0ZM18.6543 5.23926L18.0772 5.25912L18.0964 5.81666H18.6543V5.23926ZM18.6592 5.23926H19.2366V4.66185H18.6592V5.23926ZM18.6592 8.83984V9.41725H19.2366V8.83984H18.6592ZM18.6396 8.83984V8.26244H18.1202L18.0655 8.77902L18.6396 8.83984ZM9.33008 13.8574V14.4348H9.33009L9.33008 13.8574ZM0.0195312 8.83984L0.593724 8.77902L0.539004 8.26244H0.0195312V8.83984ZM0 8.83984H-0.577405V9.41725H0V8.83984ZM0 5.23926V4.66185H-0.577405V5.23926H0ZM0.00585938 5.23926V5.81666H0.563729L0.582923 5.25912L0.00585938 5.23926ZM9.33008 0L9.33008 0.577405C11.7935 0.577413 13.9986 1.14389 15.5802 2.0341C17.178 2.93342 18.0372 4.09488 18.0772 5.25912L18.6543 5.23926L19.2314 5.21939C19.1715 3.4804 17.9135 2.02223 16.1466 1.02774C14.3635 0.0241299 11.9564 -0.577397 9.33008 -0.577405L9.33008 0ZM18.6543 5.23926V5.81666H18.6592V5.23926V4.66185H18.6543V5.23926ZM18.6592 5.23926H18.0818V8.83984H18.6592H19.2366V5.23926H18.6592ZM18.6592 8.83984V8.26244H18.6396V8.83984V9.41725H18.6592V8.83984ZM18.6396 8.83984L18.0655 8.77902C17.9457 9.90966 17.0476 11.0302 15.4585 11.8907C13.8857 12.7423 11.73 13.28 9.33006 13.28L9.33008 13.8574L9.33009 14.4348C11.8897 14.4348 14.2404 13.8634 16.0084 12.9062C17.7601 11.9577 19.0371 10.5696 19.2138 8.90067L18.6396 8.83984ZM9.33008 13.8574V13.28C6.93005 13.28 4.77405 12.7423 3.20102 11.8907C1.61168 11.0303 0.71349 9.90966 0.593724 8.77902L0.0195312 8.83984L-0.554662 8.90067C-0.377868 10.5697 0.899359 11.9578 2.65123 12.9063C4.41941 13.8635 6.7704 14.4348 9.33008 14.4348V13.8574ZM0.0195312 8.83984V8.26244H0V8.83984V9.41725H0.0195312V8.83984ZM0 8.83984H0.577405V5.23926H0H-0.577405V8.83984H0ZM0 5.23926V5.81666H0.00585938V5.23926V4.66185H0V5.23926ZM0.00585938 5.23926L0.582923 5.25912C0.623002 4.09487 1.48219 2.93341 3.07999 2.03409C4.66158 1.14388 6.8666 0.577405 9.33008 0.577405V0V-0.577405C6.70376 -0.577405 4.29664 0.0241192 2.51356 1.02773C0.74668 2.02223 -0.511339 3.48039 -0.571204 5.21939L0.00585938 5.23926Z" fill="var(--stroke-0, #1D2939)" mask="url(#path-1-inside-1_4429_93266)"/>
</g>
<path id="Vector 1010" d="M1.4191 11.3486L1.4191 8.18426L1.85557 8.51161L1.85557 11.7305L1.4191 11.3486Z" fill="var(--fill-0, #FFDD33)"/>
<path id="Ellipse 923" d="M9.32971 0.289063C11.8649 0.289063 14.1466 0.878138 15.7838 1.81641C17.4288 2.75925 18.3707 4.0182 18.3707 5.34668C18.3707 6.67516 17.4288 7.93411 15.7838 8.87695C14.1466 9.81522 11.8649 10.4043 9.32971 10.4043C6.79466 10.4042 4.5137 9.81518 2.87659 8.87695C1.23142 7.9341 0.289673 6.67523 0.289673 5.34668C0.289674 4.01813 1.23142 2.75926 2.87659 1.81641C4.5137 0.878177 6.79466 0.289111 9.32971 0.289063Z" fill="var(--fill-0, #FFDD33)" stroke="var(--stroke-0, #1D2939)" stroke-width="0.577405"/>
<path id="Ellipse 924" d="M9.33009 1.59733C11.2324 1.59734 12.9406 2.03962 14.1631 2.74088C15.3935 3.44668 16.079 4.37832 16.0791 5.34537C16.0791 6.31245 15.3935 7.24404 14.1631 7.94987C12.9406 8.65113 11.2324 9.09438 9.33009 9.0944C7.42773 9.0944 5.71958 8.65114 4.49708 7.94987C3.26663 7.24403 2.58107 6.31249 2.58107 5.34537C2.58115 4.37832 3.26671 3.44668 4.49708 2.74088C5.71956 2.03966 7.42781 1.59733 9.33009 1.59733Z" fill="var(--fill-0, #D0D5DD)" stroke="var(--stroke-0, #1D2939)" stroke-width="0.577405"/>
<path id="Ellipse 925" d="M9.05828 1.92415C10.8851 1.92421 12.5249 2.34826 13.6979 3.01985C14.8792 3.6962 15.5339 4.58746 15.5339 5.50911C15.5337 6.43061 14.879 7.32114 13.6979 7.99739C12.5249 8.669 10.8851 9.094 9.05828 9.09407C7.23122 9.09407 5.59081 8.66908 4.41765 7.99739C3.2366 7.32114 2.58191 6.43061 2.58172 5.50911C2.58172 4.58746 3.23643 3.6962 4.41765 3.01985C5.59081 2.34818 7.23125 1.92415 9.05828 1.92415Z" fill="var(--fill-0, #FFDD33)" stroke="var(--stroke-0, #1D2939)" stroke-width="0.577405"/>
</g>
</svg>
