<svg preserveAspectRatio="none" width="100%" height="100%" overflow="visible" style="display: block;" viewBox="0 0 80.2986 81.4824" fill="none" xmlns="http://www.w3.org/2000/svg">
<g id="Group 5694">
<path id="Rectangle 2698" d="M2.25457 59.3453C1.36073 60.3753 1.77778 61.9806 3.05957 62.444L32.9902 73.2583C35.205 74.0586 37.686 73.4053 39.2204 71.6172L78.0673 26.3497C78.952 25.3187 78.5327 23.722 77.2561 23.2594L47.6802 12.5438C45.4752 11.745 43.0045 12.3877 41.4666 14.16L2.25457 59.3453Z" fill="var(--fill-0, #FFDD33)" stroke="var(--stroke-0, #1D2939)" stroke-width="0.577405"/>
<path id="Rectangle 2700" d="M3.15735 58.6918C2.2952 59.7322 2.73068 61.3112 4.00389 61.7609L32.9003 71.9587C34.9474 72.6811 37.2292 72.0248 38.581 70.3244L45.3993 61.7459L45.4044 61.7399L45.4086 61.7338L69.0086 28.6451C71.2759 25.4661 69.7253 21.0039 65.9762 19.9201L44.7955 13.7968C42.6289 13.1704 40.2952 13.8895 38.855 15.6268L3.15735 58.6918Z" fill="var(--fill-0, #1D2939)" stroke="var(--stroke-0, #1D2939)" stroke-width="0.577405"/>
<path id="Rectangle 2697" d="M2.02028 57.8809C1.18806 58.9613 1.69806 60.5395 3.0047 60.9273L33.5153 69.9769C35.773 70.6466 38.2116 69.8496 39.6391 67.9751L75.7787 20.5181C76.6017 19.4372 76.09 17.8677 74.7885 17.4805L44.6379 8.50872C42.39 7.8399 39.961 8.62571 38.5291 10.4847L2.02028 57.8809Z" fill="var(--fill-0, #FFDD33)" stroke="var(--stroke-0, #1D2939)" stroke-width="0.577405"/>
<path id="Rectangle 2699" d="M2.54201 56.8855C1.70463 57.9626 2.20789 59.5435 3.5136 59.9365L33.3116 68.8995C35.4564 69.5446 37.7727 68.7103 39.0157 66.8458L44.548 58.5475L44.5509 58.5431L67.5889 22.516C69.6966 19.2199 67.9093 14.8347 64.0994 13.9528L43.7535 9.24406C41.6018 8.74617 39.355 9.54449 37.9985 11.2887L2.54201 56.8855Z" fill="var(--fill-0, #1D2939)" stroke="var(--stroke-0, #1D2939)" stroke-width="0.577405"/>
<path id="Rectangle 2693" d="M1.88808 56.3335C1.12311 57.4626 1.72815 59.0069 3.05596 59.3145L34.0604 66.4918C36.3547 67.0229 38.7404 66.0791 40.0512 64.1212L73.2377 14.5542C73.9934 13.4252 73.3872 11.8898 72.0646 11.5824L41.4241 4.46091C39.1397 3.93003 36.763 4.86212 35.4468 6.80474L1.88808 56.3335Z" fill="var(--fill-0, #FFDD33)" stroke="var(--stroke-0, #1D2939)" stroke-width="0.577405"/>
<path id="Vector 3722" d="M40.4052 9.81956C38.4204 10.7292 36.7527 10.1986 36.1669 9.81956L7.11902 52.5127C7.49805 52.5127 9.08311 53.133 9.80672 54.5802C10.6452 56.2572 10.3236 57.7848 9.80672 58.5084L32.3421 63.4703C32.4455 62.7467 33.6239 60.8653 35.0298 59.9556C36.4357 59.0459 38.958 59.1631 40.0951 59.5421L66.662 19.4333C66.2141 19.2954 64.7211 18.3921 64.3878 16.6422C63.9743 14.4714 65.1114 13.541 65.5249 12.5073L43.1963 7.13186C43.0929 7.64872 42.39 8.90988 40.4052 9.81956Z" fill="var(--fill-0, #FFDD33)" stroke="var(--stroke-0, #1D2939)" stroke-width="0.577405"/>
<path id="Ellipse 1234" d="M38.6011 27.8053C42.0471 28.4275 45.0185 29.7319 47.0379 31.3241C49.0683 32.9253 50.0766 34.763 49.7703 36.4607C49.4638 38.1584 47.8763 39.5283 45.4141 40.3184C42.9654 41.104 39.7254 41.2869 36.2794 40.6648C32.8332 40.0426 29.8611 38.7383 27.8417 37.1458C25.8112 35.5446 24.8039 33.7062 25.1104 32.0085C25.4171 30.311 27.0036 28.9416 29.4655 28.1516C31.9143 27.3658 35.1549 27.1831 38.6011 27.8053Z" fill="var(--fill-0, #FFDD33)" stroke="var(--stroke-0, #1D2939)" stroke-width="0.577405"/>
<path id="Ellipse 1235" d="M48.8668 17.807C50.1945 18.0376 51.3331 18.531 52.1005 19.128C52.8789 19.7336 53.216 20.392 53.1171 20.9618C53.0181 21.5318 52.4787 22.0387 51.5414 22.3464C50.6176 22.6496 49.3794 22.73 48.0517 22.4994C46.7239 22.2687 45.5854 21.7754 44.8179 21.1784C44.0394 20.5727 43.7025 19.9135 43.8015 19.3436C43.9006 18.7738 44.4401 18.2676 45.377 17.96C46.3009 17.6568 47.5391 17.5763 48.8668 17.807Z" stroke="var(--stroke-0, #1D2939)" stroke-width="0.577405"/>
<path id="Ellipse 1236" d="M26.7252 47.3417C28.0696 47.612 29.2144 48.1447 29.9795 48.773C30.7556 49.4102 31.0832 50.0903 30.9668 50.6698C30.8503 51.2494 30.2851 51.7508 29.323 52.0387C28.3745 52.3224 27.1127 52.3713 25.7683 52.101C24.4239 51.8306 23.279 51.298 22.5139 50.6697C21.738 50.0324 21.4113 49.3516 21.5278 48.7721C21.6444 48.1927 22.2088 47.6918 23.1705 47.404C24.1189 47.1202 25.3808 47.0715 26.7252 47.3417Z" stroke="var(--stroke-0, #1D2939)" stroke-width="0.577405"/>
</g>
</svg>
