<svg preserveAspectRatio="none" width="100%" height="100%" overflow="visible" style="display: block;" viewBox="0 0 18.6593 13.8574" fill="none" xmlns="http://www.w3.org/2000/svg">
<g id="Group 5484">
<g id="Union">
<mask id="path-1-inside-1_4429_93844" fill="white">
<path d="M9.33008 0C14.4198 7.28528e-05 18.5544 2.33605 18.6543 5.23926H18.6592V8.83984H18.6396C18.3431 11.6395 14.2888 13.8574 9.3291 13.8574C4.36946 13.8573 0.314995 11.6395 0.0185547 8.83984H0V5.23926H0.00488281C0.104802 2.33599 4.24027 0 9.33008 0Z"/>
</mask>
<path d="M9.33008 0C14.4198 7.28528e-05 18.5544 2.33605 18.6543 5.23926H18.6592V8.83984H18.6396C18.3431 11.6395 14.2888 13.8574 9.3291 13.8574C4.36946 13.8573 0.314995 11.6395 0.0185547 8.83984H0V5.23926H0.00488281C0.104802 2.33599 4.24027 0 9.33008 0Z" fill="var(--fill-0, #1D2939)"/>
<path d="M9.33008 0L9.33009 -0.577405H9.33008V0ZM18.6543 5.23926L18.0772 5.25912L18.0964 5.81666H18.6543V5.23926ZM18.6592 5.23926H19.2366V4.66185H18.6592V5.23926ZM18.6592 8.83984V9.41725H19.2366V8.83984H18.6592ZM18.6396 8.83984V8.26244H18.1202L18.0655 8.77903L18.6396 8.83984ZM9.3291 13.8574L9.32909 14.4348H9.3291V13.8574ZM0.0185547 8.83984L0.59275 8.77905L0.538049 8.26244H0.0185547V8.83984ZM0 8.83984H-0.577405V9.41725H0V8.83984ZM0 5.23926V4.66185H-0.577405V5.23926H0ZM0.00488281 5.23926V5.81666H0.562758L0.581946 5.25912L0.00488281 5.23926ZM9.33008 0L9.33007 0.577405C11.7935 0.577441 13.9985 1.14393 15.5801 2.03413C17.178 2.93345 18.0372 4.0949 18.0772 5.25912L18.6543 5.23926L19.2314 5.21939C19.1715 3.4804 17.9134 2.02226 16.1466 1.02777C14.3635 0.0241674 11.9563 -0.577368 9.33009 -0.577405L9.33008 0ZM18.6543 5.23926V5.81666H18.6592V5.23926V4.66185H18.6543V5.23926ZM18.6592 5.23926H18.0818V8.83984H18.6592H19.2366V5.23926H18.6592ZM18.6592 8.83984V8.26244H18.6396V8.83984V9.41725H18.6592V8.83984ZM18.6396 8.83984L18.0655 8.77903C17.9457 9.90968 17.0475 11.0303 15.4582 11.8907C13.8852 12.7424 11.7291 13.28 9.3291 13.28V13.8574V14.4348C11.8888 14.4348 14.2398 13.8635 16.008 12.9063C17.7599 11.9579 19.0371 10.5697 19.2138 8.90065L18.6396 8.83984ZM9.3291 13.8574L9.32911 13.28C6.92911 13.28 4.77307 12.7423 3.20002 11.8907C1.61065 11.0303 0.712465 9.90966 0.59275 8.77905L0.0185547 8.83984L-0.555641 8.90064C-0.378915 10.5697 0.898354 11.9578 2.65024 12.9062C4.41844 13.8635 6.76945 14.4348 9.32909 14.4348L9.3291 13.8574ZM0.0185547 8.83984V8.26244H0V8.83984V9.41725H0.0185547V8.83984ZM0 8.83984H0.577405V5.23926H0H-0.577405V8.83984H0ZM0 5.23926V5.81666H0.00488281V5.23926V4.66185H0V5.23926ZM0.00488281 5.23926L0.581946 5.25912C0.622014 4.09492 1.48137 2.93345 3.07945 2.0341C4.6613 1.14388 6.86659 0.577405 9.33008 0.577405V0V-0.577405C6.70376 -0.577405 4.2964 0.0241148 2.51309 1.02771C0.746004 2.02217 -0.512329 3.48033 -0.572181 5.2194L0.00488281 5.23926Z" fill="var(--stroke-0, #1D2939)" mask="url(#path-1-inside-1_4429_93844)"/>
</g>
<path id="Vector 1010" d="M1.41919 11.3481V8.18376L1.85565 8.51111V11.73L1.41919 11.3481Z" fill="var(--fill-0, #FFDD33)"/>
<path id="Ellipse 923" d="M9.32953 0.289062C11.8647 0.289062 14.1464 0.878138 15.7836 1.81641C17.4286 2.75925 18.3705 4.0182 18.3705 5.34668C18.3705 6.67516 17.4286 7.93411 15.7836 8.87695C14.1464 9.81522 11.8647 10.4043 9.32953 10.4043C6.79448 10.4042 4.51352 9.81518 2.8764 8.87695C1.23124 7.9341 0.289489 6.67523 0.289489 5.34668C0.28949 4.01813 1.23124 2.75926 2.8764 1.81641C4.51352 0.878177 6.79448 0.289111 9.32953 0.289062Z" fill="var(--fill-0, #FFDD33)" stroke="var(--stroke-0, #1D2939)" stroke-width="0.577405"/>
<path id="Ellipse 924" d="M9.33013 1.59649C11.2324 1.59651 12.9407 2.03879 14.1631 2.74005C15.3935 3.44584 16.0791 4.37749 16.0792 5.34454C16.0792 6.31162 15.3935 7.2432 14.1631 7.94903C12.9407 8.65029 11.2325 9.09355 9.33013 9.09356C7.42777 9.09356 5.71962 8.6503 4.49712 7.94903C3.26667 7.24319 2.58111 6.31166 2.58111 5.34454C2.58119 4.37749 3.26675 3.44584 4.49712 2.74005C5.7196 2.03883 7.42785 1.59649 9.33013 1.59649Z" fill="var(--fill-0, #D0D5DD)" stroke="var(--stroke-0, #1D2939)" stroke-width="0.577405"/>
<path id="Ellipse 925" d="M9.05759 1.9245C10.8844 1.92456 12.5242 2.34861 13.6972 3.0202C14.8785 3.69655 15.5332 4.58781 15.5332 5.50946C15.533 6.43096 14.8783 7.32149 13.6972 7.99774C12.5242 8.66935 10.8844 9.09435 9.05759 9.09442C7.23052 9.09442 5.59012 8.66943 4.41696 7.99774C3.23591 7.32149 2.58122 6.43096 2.58102 5.50946C2.58102 4.58781 3.23573 3.69655 4.41696 3.0202C5.59011 2.34853 7.23056 1.9245 9.05759 1.9245Z" fill="var(--fill-0, #FFDD33)" stroke="var(--stroke-0, #1D2939)" stroke-width="0.577405"/>
</g>
</svg>
