<svg width="17" height="19" viewBox="0 0 17 19" fill="none" xmlns="http://www.w3.org/2000/svg">
<path d="M16.5586 15.0469C16.5117 15.4141 16.4375 15.7812 16.3359 16.1484C16.2422 16.5078 16.125 16.8359 15.9844 17.1328L9.71484 18.4805C9.77734 18.0977 9.85547 17.7305 9.94922 17.3789C10.0508 17.0273 10.1719 16.6992 10.3125 16.3945L16.5586 15.0469ZM9.71484 14.4961V10.5117L7.81641 10.9453V13.1484C7.81641 13.2656 7.79297 13.3633 7.74609 13.4414C7.71484 13.5664 7.67578 13.6562 7.62891 13.7109L6.64453 15.1992C6.51953 15.3711 6.35156 15.5195 6.14062 15.6445C5.96094 15.7617 5.76172 15.8594 5.54297 15.9375L0 17.0859C0.046875 16.7188 0.117188 16.3555 0.210938 15.9961C0.304688 15.6367 0.433594 15.2969 0.597656 14.9766L5.84766 13.8516V11.3555L0.960938 12.3867C0.992188 12.0195 1.05469 11.6602 1.14844 11.3086C1.24219 10.957 1.36328 10.6211 1.51172 10.3008L5.84766 9.38672V1.62891C6.12109 1.29297 6.42188 0.992188 6.75 0.726562C7.07812 0.453125 7.43359 0.210938 7.81641 0V8.95312L9.71484 8.71875V2.78906C10.0195 2.45312 10.3359 2.12109 10.6641 1.79297C10.9922 1.46484 11.332 1.19531 11.6836 0.984375V8.10938L16.5586 7.10156C16.5117 7.46875 16.4375 7.83203 16.3359 8.19141C16.2422 8.54297 16.125 8.87891 15.9844 9.19922L11.6836 10.1016V12.0938L16.5586 11.0625C16.5117 11.4297 16.4375 11.7969 16.3359 12.1641C16.2422 12.5234 16.125 12.8633 15.9844 13.1836L9.71484 14.4961Z" fill="white"/>
</svg>
