<svg width="188" height="157" viewBox="0 0 188 157" fill="none" xmlns="http://www.w3.org/2000/svg">
<g clip-path="url(#clip0_10505_16873)">
<g clip-path="url(#clip1_10505_16873)">
<path d="M82.8114 64.3781C88.4999 61.098 95.5061 61.0855 101.21 64.3454L170.791 104.114C174.588 106.284 174.612 111.745 170.834 113.944L101.25 154.453C95.4917 157.805 88.3707 157.795 82.6183 154.427L13.6544 114.052C9.89404 111.85 9.90981 106.415 13.6829 104.239L82.8114 64.3781Z" fill="#FFDD33"/>
<mask id="path-2-outside-1_10505_16873" maskUnits="userSpaceOnUse" x="7.22778" y="19.1517" width="170" height="127" fill="black">
<rect fill="white" x="7.22778" y="19.1517" width="170" height="127"/>
<path fill-rule="evenodd" clip-rule="evenodd" d="M72.9401 24.7992C71.8173 22.5634 69.5292 21.1516 67.0284 21.1516L23.0148 21.1516C22.1463 21.1516 21.4519 21.6773 21.1479 22.3817L20.9398 22.0043L17.4851 27.6828C17.1059 28.3182 17.2346 29.4105 17.4854 29.9188L35.5307 66.6449C35.5307 66.6449 35.8052 67.465 36.5044 68.4773L12.067 82.5507C9.87948 83.8105 8.95495 86.1653 9.297 88.3513V94.6819C8.95672 96.8561 9.8696 99.2012 12.0392 100.472L82.7028 141.855C88.4598 145.227 95.5876 145.24 101.35 141.89L172.577 100.476C174.49 99.3644 175.428 97.4169 175.395 95.4832V87.5626C175.396 87.4982 175.396 87.4338 175.395 87.3694V87.0271H175.379C175.245 85.259 174.295 83.5445 172.533 82.5373L155.757 72.9455L168.291 58.3393C169.217 57.2603 168.779 55.5898 167.443 55.1057L163.553 53.6963L165.465 51.1858C166.326 50.0546 165.791 48.4126 164.429 48.0072L160.368 46.7987L162.328 43.8704C163.119 42.6888 162.486 41.0824 161.101 40.7606L123.434 32.0052C120.769 31.3857 117.996 32.473 116.46 34.7395L108.774 46.0837L101.241 41.7767C96.0851 38.8291 89.8654 38.5511 84.5153 40.9401C83.4758 38.9326 81.4906 37.6061 79.2661 37.3952L72.9401 24.7992Z"/>
</mask>
<path fill-rule="evenodd" clip-rule="evenodd" d="M72.9401 24.7992C71.8173 22.5634 69.5292 21.1516 67.0284 21.1516L23.0148 21.1516C22.1463 21.1516 21.4519 21.6773 21.1479 22.3817L20.9398 22.0043L17.4851 27.6828C17.1059 28.3182 17.2346 29.4105 17.4854 29.9188L35.5307 66.6449C35.5307 66.6449 35.8052 67.465 36.5044 68.4773L12.067 82.5507C9.87948 83.8105 8.95495 86.1653 9.297 88.3513V94.6819C8.95672 96.8561 9.8696 99.2012 12.0392 100.472L82.7028 141.855C88.4598 145.227 95.5876 145.24 101.35 141.89L172.577 100.476C174.49 99.3644 175.428 97.4169 175.395 95.4832V87.5626C175.396 87.4982 175.396 87.4338 175.395 87.3694V87.0271H175.379C175.245 85.259 174.295 83.5445 172.533 82.5373L155.757 72.9455L168.291 58.3393C169.217 57.2603 168.779 55.5898 167.443 55.1057L163.553 53.6963L165.465 51.1858C166.326 50.0546 165.791 48.4126 164.429 48.0072L160.368 46.7987L162.328 43.8704C163.119 42.6888 162.486 41.0824 161.101 40.7606L123.434 32.0052C120.769 31.3857 117.996 32.473 116.46 34.7395L108.774 46.0837L101.241 41.7767C96.0851 38.8291 89.8654 38.5511 84.5153 40.9401C83.4758 38.9326 81.4906 37.6061 79.2661 37.3952L72.9401 24.7992Z" fill="white"/>
<path d="M67.0284 21.1516V19.7319V21.1516ZM72.9401 24.7992L71.6715 25.4363V25.4363L72.9401 24.7992ZM23.0148 21.1516V19.7319V21.1516ZM21.1479 22.3817L19.9045 23.0669C20.1661 23.5415 20.6749 23.8257 21.2161 23.7997C21.7573 23.7736 22.2365 23.4418 22.4512 22.9443L21.1479 22.3817ZM20.9398 22.0043L22.1832 21.319C21.9387 20.8755 21.4765 20.5958 20.9703 20.5849C20.464 20.5741 19.9902 20.8338 19.727 21.2664L20.9398 22.0043ZM17.4851 27.6828L16.2722 26.9449L16.266 26.9553L17.4851 27.6828ZM17.4854 29.9188L18.7595 29.2928L18.7585 29.2906L17.4854 29.9188ZM35.5307 66.6449L36.877 66.1943C36.8569 66.1343 36.8328 66.0757 36.8049 66.0188L35.5307 66.6449ZM36.5044 68.4773L37.2129 69.7075C37.5567 69.5096 37.8019 69.1768 37.8892 68.7898C37.9766 68.4028 37.898 67.9969 37.6725 67.6705L36.5044 68.4773ZM12.067 82.5507L12.7755 83.7809H12.7755L12.067 82.5507ZM9.297 88.3513H10.7166C10.7166 88.2778 10.7109 88.2044 10.6996 88.1318L9.297 88.3513ZM9.297 94.6819L10.6996 94.9014C10.7109 94.8288 10.7166 94.7554 10.7166 94.6819H9.297ZM12.0392 100.472L11.3217 101.697H11.3217L12.0392 100.472ZM82.7028 141.855L83.4202 140.63V140.63L82.7028 141.855ZM101.35 141.89L100.636 140.663V140.663L101.35 141.89ZM172.577 100.476L171.864 99.249L171.864 99.2491L172.577 100.476ZM175.395 95.4832H173.976C173.976 95.4911 173.976 95.4991 173.976 95.507L175.395 95.4832ZM175.395 87.5626L173.976 87.5387C173.976 87.5467 173.976 87.5547 173.976 87.5626H175.395ZM175.395 87.3694H173.976C173.976 87.3774 173.976 87.3853 173.976 87.3933L175.395 87.3694ZM175.395 87.0271H176.815C176.815 86.243 176.179 85.6074 175.395 85.6074V87.0271ZM175.379 87.0271L173.964 87.1349C174.02 87.875 174.637 88.4467 175.379 88.4467V87.0271ZM172.533 82.5373L173.238 81.3048V81.3048L172.533 82.5373ZM155.757 72.9455L154.679 72.021C154.404 72.3423 154.286 72.77 154.358 73.1872C154.43 73.6045 154.684 73.9678 155.052 74.1779L155.757 72.9455ZM168.291 58.3393L167.214 57.4148V57.4148L168.291 58.3393ZM167.443 55.1057L166.959 56.4404V56.4404L167.443 55.1057ZM163.553 53.6963L162.423 52.8362C162.15 53.1956 162.063 53.6637 162.191 54.097C162.318 54.5304 162.645 54.8771 163.069 55.031L163.553 53.6963ZM165.465 51.1858L166.594 52.0459V52.0459L165.465 51.1858ZM164.429 48.0072L164.024 49.3679V49.3679L164.429 48.0072ZM160.368 46.7987L159.188 46.0089C158.937 46.3837 158.879 46.8555 159.032 47.2798C159.185 47.7042 159.531 48.0307 159.963 48.1593L160.368 46.7987ZM162.328 43.8704L161.149 43.0806V43.0806L162.328 43.8704ZM161.101 40.7606L161.423 39.3779V39.3779L161.101 40.7606ZM123.434 32.0052L123.113 33.388V33.388L123.434 32.0052ZM116.46 34.7395L115.285 33.9432V33.9432L116.46 34.7395ZM108.774 46.0837L108.069 47.3161C108.713 47.6845 109.533 47.4944 109.949 46.88L108.774 46.0837ZM101.241 41.7767L101.945 40.5443V40.5443L101.241 41.7767ZM84.5153 40.9401L83.2546 41.5929C83.6004 42.2608 84.4073 42.5431 85.0941 42.2364L84.5153 40.9401ZM79.2661 37.3952L77.9974 38.0323C78.2168 38.4691 78.6454 38.7623 79.1321 38.8085L79.2661 37.3952ZM67.0284 21.1516V22.5712C68.992 22.5712 70.7894 23.6799 71.6715 25.4363L72.9401 24.7992L74.2088 24.162C72.8451 21.4468 70.0663 19.7319 67.0284 19.7319V21.1516ZM23.0148 21.1516V22.5712H67.0284V21.1516V19.7319H23.0148V21.1516ZM21.1479 22.3817L22.4512 22.9443C22.5483 22.7194 22.7559 22.5712 23.0148 22.5712V21.1516V19.7319C21.5366 19.7319 20.3555 20.6352 19.8445 21.819L21.1479 22.3817ZM20.9398 22.0043L19.6965 22.6895L19.9045 23.0669L21.1479 22.3817L22.3912 21.6965L22.1832 21.319L20.9398 22.0043ZM17.4851 27.6828L18.6979 28.4207L22.1527 22.7421L20.9398 22.0043L19.727 21.2664L16.2723 26.945L17.4851 27.6828ZM17.4854 29.9188L18.7585 29.2906C18.7601 29.2939 18.7539 29.2816 18.7436 29.2509C18.7336 29.2213 18.7222 29.1815 18.7111 29.1323C18.6886 29.0324 18.6722 28.9144 18.6676 28.7935C18.6628 28.6715 18.6708 28.5674 18.6853 28.4897C18.7005 28.4088 18.7163 28.39 18.7041 28.4104L17.4851 27.6828L16.266 26.9553C15.8772 27.6068 15.8091 28.3545 15.8304 28.9035C15.8521 29.4632 15.9771 30.0703 16.2123 30.547L17.4854 29.9188ZM35.5307 66.6449L36.8049 66.0188L18.7595 29.2928L17.4854 29.9188L16.2112 30.5449L34.2566 67.2709L35.5307 66.6449ZM36.5044 68.4773L37.6725 67.6705C37.3746 67.2392 37.1688 66.851 37.0399 66.577C36.9757 66.4406 36.9313 66.3341 36.9047 66.2668C36.8914 66.2332 36.8827 66.2096 36.8781 66.1971C36.8758 66.1908 36.8746 66.1874 36.8745 66.1869C36.8744 66.1866 36.8745 66.1871 36.875 66.1883C36.8752 66.1889 36.8754 66.1898 36.8758 66.1908C36.8759 66.1913 36.8761 66.1918 36.8763 66.1924C36.8764 66.1927 36.8765 66.193 36.8766 66.1933C36.8767 66.1935 36.8768 66.1937 36.8768 66.1938C36.8769 66.1941 36.877 66.1943 35.5307 66.6449C34.1845 67.0954 34.1846 67.0957 34.1847 67.096C34.1847 67.0961 34.1848 67.0963 34.1848 67.0965C34.185 67.0969 34.1851 67.0973 34.1852 67.0977C34.1855 67.0985 34.1858 67.0993 34.1861 67.1002C34.1867 67.102 34.1874 67.104 34.1881 67.1062C34.1896 67.1106 34.1914 67.1158 34.1935 67.1218C34.1977 67.1338 34.2031 67.149 34.2097 67.1671C34.2229 67.2034 34.241 67.2518 34.2644 67.3109C34.3111 67.429 34.379 67.5908 34.4708 67.7859C34.654 68.1751 34.935 68.703 35.3363 69.2841L36.5044 68.4773ZM12.067 82.5507L12.7755 83.7809L37.2129 69.7075L36.5044 68.4773L35.7959 67.2471L11.3585 81.3205L12.067 82.5507ZM9.297 88.3513L10.6996 88.1318C10.4407 86.4773 11.1384 84.7237 12.7755 83.7809L12.067 82.5507L11.3585 81.3205C8.62053 82.8973 7.46921 85.8533 7.89442 88.5708L9.297 88.3513ZM9.297 94.6819H10.7166V88.3513H9.297H7.87735V94.6819H9.297ZM12.0392 100.472L12.7566 99.2468C11.1307 98.2946 10.4421 96.5464 10.6996 94.9014L9.297 94.6819L7.89443 94.4624C7.47132 97.1659 8.60849 100.108 11.3217 101.697L12.0392 100.472ZM82.7028 141.855L83.4202 140.63L12.7566 99.2468L12.0392 100.472L11.3217 101.697L81.9854 143.08L82.7028 141.855ZM101.35 141.89L100.636 140.663C95.317 143.755 88.736 143.743 83.4202 140.63L82.7028 141.855L81.9854 143.08C88.1836 146.71 95.8581 146.725 102.063 143.117L101.35 141.89ZM172.577 100.476L171.864 99.2491L100.636 140.663L101.35 141.89L102.063 143.117L173.291 101.704L172.577 100.476ZM175.395 95.4832L173.976 95.507C174 96.9659 173.299 98.4147 171.864 99.249L172.577 100.476L173.291 101.704C175.681 100.314 176.855 97.868 176.815 95.4594L175.395 95.4832ZM175.395 87.5626H173.976V95.4832H175.395H176.815V87.5626H175.395ZM175.395 87.3694L173.976 87.3933C173.977 87.4418 173.977 87.4903 173.976 87.5387L175.395 87.5626L176.815 87.5865C176.816 87.5062 176.816 87.4258 176.815 87.3455L175.395 87.3694ZM175.395 87.0271H173.976V87.3694H175.395H176.815V87.0271H175.395ZM175.379 87.0271V88.4467H175.395V87.0271V85.6074H175.379V87.0271ZM172.533 82.5373L171.829 83.7697C173.155 84.5278 173.862 85.8046 173.964 87.1349L175.379 87.0271L176.795 86.9192C176.627 84.7134 175.435 82.5612 173.238 81.3048L172.533 82.5373ZM155.757 72.9455L155.052 74.1779L171.829 83.7697L172.533 82.5373L173.238 81.3048L156.461 71.7131L155.757 72.9455ZM168.291 58.3393L167.214 57.4148L154.679 72.021L155.757 72.9455L156.834 73.87L169.368 59.2639L168.291 58.3393ZM167.443 55.1057L166.959 56.4404C167.36 56.5859 167.494 57.0882 167.214 57.4148L168.291 58.3393L169.368 59.2639C170.94 57.4323 170.197 54.5938 167.926 53.771L167.443 55.1057ZM163.553 53.6963L163.069 55.031L166.959 56.4404L167.443 55.1057L167.926 53.771L164.036 52.3616L163.553 53.6963ZM165.465 51.1858L164.335 50.3258L162.423 52.8362L163.553 53.6963L164.682 54.5564L166.594 52.0459L165.465 51.1858ZM164.429 48.0072L164.024 49.3679C164.433 49.4897 164.596 49.9834 164.335 50.3258L165.465 51.1858L166.594 52.0459C168.056 50.1257 167.149 47.3355 164.834 46.6465L164.429 48.0072ZM160.368 46.7987L159.963 48.1593L164.024 49.3679L164.429 48.0072L164.834 46.6465L160.773 45.438L160.368 46.7987ZM160.368 46.7987L161.547 47.5885L163.508 44.6602L162.328 43.8704L161.149 43.0806L159.188 46.0089L160.368 46.7987ZM162.328 43.8704L163.508 44.6602C164.851 42.6546 163.775 39.9247 161.423 39.3779L161.101 40.7606L160.78 42.1434C161.196 42.2401 161.388 42.723 161.149 43.0806L162.328 43.8704ZM161.101 40.7606L161.423 39.3779L123.755 30.6225L123.434 32.0052L123.113 33.388L160.78 42.1434L161.101 40.7606ZM123.434 32.0052L123.755 30.6225C120.518 29.8699 117.15 31.1907 115.285 33.9432L116.46 34.7395L117.635 35.5358C118.842 33.7553 121.02 32.9016 123.113 33.388L123.434 32.0052ZM116.46 34.7395L115.285 33.9432L107.599 45.2874L108.774 46.0837L109.949 46.88L117.635 35.5358L116.46 34.7395ZM101.241 41.7767L100.536 43.0092L108.069 47.3161L108.774 46.0837L109.478 44.8512L101.945 40.5443L101.241 41.7767ZM84.5153 40.9401L85.0941 42.2364C90.033 40.031 95.7758 40.2875 100.536 43.0092L101.241 41.7767L101.945 40.5443C96.3945 37.3707 89.6978 37.0711 83.9364 39.6439L84.5153 40.9401ZM79.2661 37.3952L79.1321 38.8085C80.8786 38.9741 82.4382 40.0161 83.2546 41.5929L84.5153 40.9401L85.7759 40.2874C84.5135 37.8491 82.1025 36.2381 79.4001 35.9819L79.2661 37.3952ZM72.9401 24.7992L71.6715 25.4363L77.9974 38.0323L79.2661 37.3952L80.5347 36.758L74.2088 24.162L72.9401 24.7992Z" fill="#202A39" mask="url(#path-2-outside-1_10505_16873)"/>
<mask id="mask0_10505_16873" style="mask-type:alpha" maskUnits="userSpaceOnUse" x="9" y="39" width="84" height="106">
<rect x="9.22778" y="39.0402" width="83.0491" height="105.763" fill="#D0D8DC"/>
</mask>
<g mask="url(#mask0_10505_16873)">
<path d="M82.7583 49.9143C88.451 46.6359 95.4638 46.6269 101.172 49.8905L172.465 90.6511C176.262 92.8222 176.287 98.2793 172.509 100.476L101.281 141.889C95.519 145.24 88.3912 145.227 82.6342 141.855L11.9706 100.471C8.20968 98.2689 8.22509 92.8375 11.9984 90.6645L82.7583 49.9143Z" fill="#CDD4DF"/>
<path d="M82.7584 41.8001C88.4511 38.5217 95.4639 38.5127 101.172 41.7763L172.465 82.5369C176.262 84.7081 176.287 90.1652 172.509 92.3618L101.281 133.775C95.5191 137.126 88.3914 137.112 82.6343 133.741L11.9707 92.3572C8.20979 90.1547 8.22519 84.7233 11.9985 82.5503L82.7584 41.8001Z" fill="#CDD4DF"/>
<rect x="9.229" y="87.0266" width="166.098" height="8.51786" fill="#CDD4DF"/>
</g>
<path d="M172.64 82.1079C176.674 84.4138 176.699 90.2166 172.685 92.5532L101.422 134.039C95.5536 137.456 88.2951 137.446 82.4321 134.013L11.8029 92.6622C7.80749 90.323 7.8244 84.5481 11.8333 82.2364L82.6287 41.4144C88.4266 38.0712 95.5678 38.0579 101.381 41.3804L172.64 82.1079Z" fill="white" stroke="#202A39" stroke-width="0.709821"/>
<path d="M53.9464 116.766H86.9531H114.991L124.574 106.118L105.763 73.8215H87.384C83.8483 73.8215 80.3766 72.8783 77.327 71.0891L55.366 58.2054L36.9107 67.788L11.93 82.4043C8.1813 84.5977 8.18251 90.0163 11.9322 92.2081L53.9464 116.766Z" fill="#CDD4DF"/>
<mask id="path-10-inside-2_10505_16873" fill="white">
<path d="M164.046 70.7873C169.896 68.5705 175.665 69.4537 177.047 72.7458L177.052 72.7437L178.621 76.8832L178.599 76.8915C179.479 80.2393 175.785 84.5559 170.083 86.7169C164.38 88.8779 158.753 88.0938 157.194 85.0033L157.172 85.0116L155.603 80.8722L155.609 80.8701C154.461 77.4894 158.196 73.0042 164.046 70.7873Z"/>
</mask>
<path d="M164.046 70.7873C169.896 68.5705 175.665 69.4537 177.047 72.7458L177.052 72.7437L178.621 76.8832L178.599 76.8915C179.479 80.2393 175.785 84.5559 170.083 86.7169C164.38 88.8779 158.753 88.0938 157.194 85.0033L157.172 85.0116L155.603 80.8722L155.609 80.8701C154.461 77.4894 158.196 73.0042 164.046 70.7873Z" fill="#202A39"/>
<path d="M164.046 70.7873L163.794 70.1235L163.794 70.1235L164.046 70.7873ZM177.047 72.7458L176.392 73.0204L176.657 73.6525L177.298 73.4096L177.047 72.7458ZM177.052 72.7437L177.716 72.4922L177.464 71.8284L176.801 72.08L177.052 72.7437ZM178.621 76.8832L178.872 77.547L179.536 77.2954L179.285 76.6317L178.621 76.8832ZM178.599 76.8915L178.347 76.2278L177.75 76.4542L177.912 77.0721L178.599 76.8915ZM170.083 86.7169L170.334 87.3807L170.334 87.3807L170.083 86.7169ZM157.194 85.0033L157.828 84.6836L157.54 84.1132L156.942 84.3396L157.194 85.0033ZM157.172 85.0116L156.508 85.2632L156.76 85.9269L157.423 85.6754L157.172 85.0116ZM155.603 80.8722L155.352 80.2084L154.688 80.4599L154.939 81.1237L155.603 80.8722ZM155.609 80.8701L155.86 81.5338L156.501 81.2909L156.281 80.6419L155.609 80.8701ZM164.046 70.7873L164.298 71.4511C167.129 70.3781 169.91 70.0686 172.116 70.4025C174.344 70.7399 175.838 71.7002 176.392 73.0204L177.047 72.7458L177.701 72.4712C176.874 70.4993 174.792 69.3719 172.328 68.9989C169.842 68.6224 166.813 68.9797 163.794 70.1235L164.046 70.7873ZM177.047 72.7458L177.298 73.4096L177.304 73.4075L177.052 72.7437L176.801 72.08L176.795 72.0821L177.047 72.7458ZM177.052 72.7437L176.388 72.9953L177.957 77.1348L178.621 76.8832L179.285 76.6317L177.716 72.4922L177.052 72.7437ZM178.621 76.8832L178.369 76.2195L178.347 76.2278L178.599 76.8915L178.85 77.5553L178.872 77.547L178.621 76.8832ZM178.599 76.8915L177.912 77.0721C178.268 78.424 177.724 80.1037 176.272 81.7854C174.835 83.4499 172.591 85.0075 169.831 86.0532L170.083 86.7169L170.334 87.3807C173.277 86.2654 175.731 84.5842 177.347 82.7132C178.947 80.8594 179.81 78.7068 179.285 76.711L178.599 76.8915ZM170.083 86.7169L169.831 86.0532C167.072 87.0989 164.359 87.4199 162.18 87.126C159.978 86.8289 158.457 85.9316 157.828 84.6836L157.194 85.0033L156.56 85.3231C157.49 87.1655 159.563 88.2055 161.99 88.5329C164.44 88.8633 167.391 88.496 170.334 87.3807L170.083 86.7169ZM157.194 85.0033L156.942 84.3396L156.92 84.3479L157.172 85.0116L157.423 85.6754L157.445 85.6671L157.194 85.0033ZM157.172 85.0116L157.836 84.7601L156.267 80.6206L155.603 80.8722L154.939 81.1237L156.508 85.2632L157.172 85.0116ZM155.603 80.8722L155.855 81.5359L155.86 81.5338L155.609 80.8701L155.357 80.2063L155.352 80.2084L155.603 80.8722ZM155.609 80.8701L156.281 80.6419C155.821 79.2862 156.303 77.5769 157.748 75.8474C159.179 74.1354 161.466 72.524 164.298 71.4511L164.046 70.7873L163.794 70.1235C160.776 71.2674 158.271 73.0071 156.659 74.9371C155.061 76.8496 154.249 79.0733 154.936 81.0982L155.609 80.8701Z" fill="#202A39" mask="url(#path-10-inside-2_10505_16873)"/>
<path d="M159.896 87.2787L158.517 83.6411L159.161 83.8272L160.564 87.5275L159.896 87.2787Z" fill="#FFDD33"/>
<path d="M164.172 71.1188C167.086 70.0144 169.965 69.6989 172.256 70.0643C174.558 70.4315 176.19 71.4682 176.768 72.9954C177.347 74.5226 176.812 76.3803 175.332 78.1807C173.859 79.9725 171.493 81.6438 168.579 82.7482C165.665 83.8526 162.785 84.169 160.495 83.8036C158.193 83.4365 156.561 82.3995 155.982 80.8725C155.404 79.3454 155.939 77.4876 157.419 75.6872C158.892 73.8954 161.257 72.2232 164.172 71.1188Z" fill="#FFDD33" stroke="#202A39" stroke-width="0.709821"/>
<path d="M164.743 72.6237C166.929 71.7951 169.086 71.5606 170.797 71.8342C172.519 72.1096 173.713 72.8814 174.134 73.9929C174.555 75.1046 174.173 76.4746 173.066 77.8219C171.967 79.1606 170.195 80.4137 168.009 81.2424C165.822 82.0711 163.665 82.3064 161.955 82.0329C160.233 81.7575 159.038 80.9853 158.616 79.8736C158.195 78.7619 158.579 77.3924 159.685 76.0451C160.785 74.7064 162.556 73.4525 164.743 72.6237Z" fill="#CDD4DF" stroke="#202A39" stroke-width="0.709821"/>
<path d="M164.571 73.1191C166.671 72.3232 168.743 72.0974 170.384 72.3585C172.036 72.6215 173.177 73.3596 173.578 74.4189C173.98 75.4783 173.615 76.7876 172.552 78.0796C171.496 79.3629 169.795 80.5656 167.695 81.3616C165.594 82.1574 163.524 82.3838 161.883 82.1227C160.231 81.8598 159.089 81.1213 158.688 80.0618C158.286 79.0024 158.652 77.6936 159.715 76.4016C160.771 75.1184 162.471 73.9151 164.571 73.1191Z" fill="#FFDD33" stroke="#202A39" stroke-width="0.709821"/>
<mask id="path-16-inside-3_10505_16873" fill="white">
<path d="M109.334 7.86784C114.787 10.9343 117.809 15.9274 116.169 19.0986L116.174 19.1015L114.005 22.96L113.984 22.9485C111.98 25.7711 106.299 25.7052 100.984 22.716C95.6686 19.7268 92.6611 14.9065 94.0322 11.728L94.0117 11.7165L96.1816 7.85801L96.1867 7.86088C98.0446 4.81221 103.881 4.80151 109.334 7.86784Z"/>
</mask>
<path d="M109.334 7.86784C114.787 10.9343 117.809 15.9274 116.169 19.0986L116.174 19.1015L114.005 22.96L113.984 22.9485C111.98 25.7711 106.299 25.7052 100.984 22.716C95.6686 19.7268 92.6611 14.9065 94.0322 11.728L94.0117 11.7165L96.1816 7.85801L96.1867 7.86088C98.0446 4.81221 103.881 4.80151 109.334 7.86784Z" fill="#202A39"/>
<path d="M109.334 7.86784L109.682 7.24914L109.682 7.24914L109.334 7.86784ZM116.169 19.0986L115.539 18.7726L115.224 19.3814L115.821 19.7173L116.169 19.0986ZM116.174 19.1015L116.793 19.4494L117.141 18.8307L116.522 18.4828L116.174 19.1015ZM114.005 22.96L113.657 23.5787L114.275 23.9266L114.623 23.3079L114.005 22.96ZM113.984 22.9485L114.332 22.3298L113.775 22.0166L113.405 22.5376L113.984 22.9485ZM100.984 22.716L100.636 23.3347L100.636 23.3347L100.984 22.716ZM94.0322 11.728L94.6839 12.0091L94.937 11.4224L94.3801 11.1093L94.0322 11.728ZM94.0117 11.7165L93.393 11.3685L93.0451 11.9872L93.6638 12.3352L94.0117 11.7165ZM96.1816 7.85801L96.5296 7.23931L95.9109 6.89137L95.5629 7.51007L96.1816 7.85801ZM96.1867 7.86088L95.8388 8.47958L96.4362 8.81554L96.7929 8.23026L96.1867 7.86088ZM109.334 7.86784L108.986 8.48654C111.625 9.97069 113.646 11.906 114.805 13.8125C115.975 15.7387 116.197 17.5008 115.539 18.7726L116.169 19.0986L116.8 19.4247C117.782 17.5253 117.312 15.2052 116.018 13.0754C114.712 10.9259 112.496 8.83141 109.682 7.24914L109.334 7.86784ZM116.169 19.0986L115.821 19.7173L115.827 19.7202L116.174 19.1015L116.522 18.4828L116.517 18.4799L116.169 19.0986ZM116.174 19.1015L115.556 18.7536L113.386 22.612L114.005 22.96L114.623 23.3079L116.793 19.4494L116.174 19.1015ZM114.005 22.96L114.352 22.3413L114.332 22.3298L113.984 22.9485L113.636 23.5672L113.657 23.5787L114.005 22.96ZM113.984 22.9485L113.405 22.5376C112.596 23.6774 110.959 24.3374 108.737 24.302C106.538 24.2668 103.904 23.5438 101.332 22.0974L100.984 22.716L100.636 23.3347C103.379 24.8774 106.243 25.6819 108.714 25.7214C111.163 25.7605 113.368 25.0421 114.563 23.3594L113.984 22.9485ZM100.984 22.716L101.332 22.0974C98.7597 20.6509 96.7734 18.7752 95.6012 16.9146C94.4169 15.0347 94.1303 13.2927 94.6839 12.0091L94.0322 11.728L93.3804 11.4468C92.563 13.3417 93.0946 15.5991 94.4001 17.6713C95.7177 19.7628 97.8927 21.792 100.636 23.3347L100.984 22.716ZM94.0322 11.728L94.3801 11.1093L94.3597 11.0978L94.0117 11.7165L93.6638 12.3352L93.6842 12.3466L94.0322 11.728ZM94.0117 11.7165L94.6304 12.0644L96.8003 8.20595L96.1816 7.85801L95.5629 7.51007L93.393 11.3685L94.0117 11.7165ZM96.1816 7.85801L95.8337 8.4767L95.8388 8.47958L96.1867 7.86088L96.5347 7.24218L96.5296 7.23931L96.1816 7.85801ZM96.1867 7.86088L96.7929 8.23026C97.5379 7.00766 99.1587 6.2815 101.413 6.28106C103.643 6.28062 106.347 7.00242 108.986 8.48654L109.334 7.86784L109.682 7.24914C106.868 5.66692 103.927 4.86092 101.412 4.86141C98.92 4.86191 96.6934 5.66543 95.5806 7.4915L96.1867 7.86088Z" fill="#202A39" mask="url(#path-16-inside-3_10505_16873)"/>
<path d="M94.0194 15.2604L95.9263 11.8698L96.1967 12.4835L94.257 15.9326L94.0194 15.2604Z" fill="#FFDD33"/>
<path d="M109.16 8.17682C111.877 9.7045 113.966 11.7115 115.154 13.7034C116.349 15.705 116.6 17.6217 115.799 19.0452C114.999 20.4685 113.231 21.2499 110.9 21.2688C108.58 21.2876 105.781 20.5444 103.064 19.0168C100.348 17.4891 98.2584 15.4829 97.0696 13.491C95.8751 11.4896 95.6242 9.57273 96.4246 8.14924C97.2251 6.72579 98.9935 5.94466 101.324 5.92563C103.644 5.90682 106.444 6.64921 109.16 8.17682Z" fill="#FFDD33" stroke="#202A39" stroke-width="0.709821"/>
<path d="M108.372 9.58009C110.41 10.7264 111.973 12.231 112.861 13.719C113.753 15.2165 113.927 16.6277 113.345 17.6638C112.762 18.7001 111.465 19.2854 109.722 19.3003C107.989 19.315 105.892 18.7599 103.854 17.6137C101.816 16.4674 100.252 14.9636 99.3645 13.4756C98.4714 11.9778 98.2974 10.5657 98.8802 9.52943C99.463 8.4933 100.76 7.90916 102.503 7.89431C104.236 7.87957 106.333 8.43376 108.372 9.58009Z" fill="#CDD4DF" stroke="#202A39" stroke-width="0.709821"/>
<path d="M107.882 9.76619C109.84 10.8672 111.341 12.3115 112.193 13.7382C113.051 15.1744 113.217 16.523 112.661 17.5104C112.106 18.4979 110.868 19.0579 109.194 19.0709C107.533 19.0838 105.519 18.5501 103.561 17.4491C101.604 16.3481 100.102 14.905 99.25 13.4784C98.3919 12.0419 98.2264 10.6924 98.7818 9.70486C99.3372 8.71745 100.576 8.1586 102.249 8.14565C103.911 8.13283 105.924 8.66526 107.882 9.76619Z" fill="#FFDD33" stroke="#202A39" stroke-width="0.709821"/>
<mask id="path-22-inside-4_10505_16873" fill="white">
<path d="M57.1666 83.4628C62.8795 86.0116 66.3513 90.7036 65.0117 94.013L65.0171 94.0154L63.2135 98.0581L63.1921 98.0485C61.458 101.045 55.7947 101.505 50.2256 99.0209C44.6566 96.5363 41.2163 92.014 42.2875 88.7223L42.2661 88.7127L44.0697 84.67L44.075 84.6724C45.6428 81.4649 51.4537 80.9142 57.1666 83.4628Z"/>
</mask>
<path d="M57.1666 83.4628C62.8795 86.0116 66.3513 90.7036 65.0117 94.013L65.0171 94.0154L63.2135 98.0581L63.1921 98.0485C61.458 101.045 55.7947 101.505 50.2256 99.0209C44.6566 96.5363 41.2163 92.014 42.2875 88.7223L42.2661 88.7127L44.0697 84.67L44.075 84.6724C45.6428 81.4649 51.4537 80.9142 57.1666 83.4628Z" fill="#202A39"/>
<path d="M57.1666 83.4628L57.4558 82.8146L57.4558 82.8146L57.1666 83.4628ZM65.0117 94.013L64.3537 93.7466L64.0966 94.382L64.7225 94.6612L65.0117 94.013ZM65.0171 94.0154L65.6653 94.3046L65.9545 93.6563L65.3063 93.3671L65.0171 94.0154ZM63.2135 98.0581L62.9243 98.7063L63.5725 98.9955L63.8617 98.3473L63.2135 98.0581ZM63.1921 98.0485L63.4813 97.4003L62.8978 97.14L62.5777 97.6929L63.1921 98.0485ZM50.2256 99.0209L49.9364 99.6691L49.9364 99.6691L50.2256 99.0209ZM42.2875 88.7223L42.9625 88.9419L43.1602 88.3343L42.5767 88.074L42.2875 88.7223ZM42.2661 88.7127L41.6179 88.4235L41.3286 89.0717L41.9769 89.3609L42.2661 88.7127ZM44.0697 84.67L44.3589 84.0218L43.7106 83.7326L43.4214 84.3808L44.0697 84.67ZM44.075 84.6724L43.7858 85.3206L44.4117 85.5999L44.7127 84.9841L44.075 84.6724ZM57.1666 83.4628L56.8774 84.1111C59.6425 85.3447 61.834 87.0846 63.1639 88.8758C64.5075 90.6854 64.891 92.4195 64.3537 93.7466L65.0117 94.013L65.6697 94.2793C66.472 92.2971 65.7894 90.0305 64.3037 88.0295C62.8044 86.0102 60.4036 84.1297 57.4558 82.8146L57.1666 83.4628ZM65.0117 94.013L64.7225 94.6612L64.7279 94.6636L65.0171 94.0154L65.3063 93.3671L65.3009 93.3647L65.0117 94.013ZM65.0171 94.0154L64.3688 93.7262L62.5652 97.7689L63.2135 98.0581L63.8617 98.3473L65.6653 94.3046L65.0171 94.0154ZM63.2135 98.0581L63.5027 97.4098L63.4813 97.4003L63.1921 98.0485L62.9029 98.6967L62.9243 98.7063L63.2135 98.0581ZM63.1921 98.0485L62.5777 97.6929C61.8774 98.9029 60.3079 99.7117 58.0925 99.8822C55.8999 100.051 53.2097 99.5749 50.5148 98.3726L50.2256 99.0209L49.9364 99.6691C52.8106 100.951 55.7367 101.487 58.2014 101.298C60.6435 101.11 62.7726 100.19 63.8064 98.4041L63.1921 98.0485ZM50.2256 99.0209L50.5148 98.3726C47.8199 97.1703 45.6687 95.4864 44.3295 93.742C42.9764 91.9795 42.5299 90.2712 42.9625 88.9419L42.2875 88.7223L41.6125 88.5026C40.9739 90.465 41.7119 92.6637 43.2034 94.6065C44.7088 96.5673 47.0622 98.3868 49.9364 99.6691L50.2256 99.0209ZM42.2875 88.7223L42.5767 88.074L42.5553 88.0645L42.2661 88.7127L41.9769 89.3609L41.9983 89.3705L42.2875 88.7223ZM42.2661 88.7127L42.9143 89.0019L44.7179 84.9592L44.0697 84.67L43.4214 84.3808L41.6179 88.4235L42.2661 88.7127ZM44.0697 84.67L43.7805 85.3183L43.7858 85.3206L44.075 84.6724L44.3642 84.0242L44.3589 84.0218L44.0697 84.67ZM44.075 84.6724L44.7127 84.9841C45.3415 83.6978 46.8881 82.8248 49.1322 82.6158C51.3535 82.409 54.1123 82.8775 56.8774 84.1111L57.1666 83.4628L57.4558 82.8146C54.5079 81.4995 51.5048 80.9691 49.0006 81.2023C46.5191 81.4334 44.3764 82.4395 43.4373 84.3607L44.075 84.6724Z" fill="#202A39" mask="url(#path-22-inside-4_10505_16873)"/>
<path d="M42.6016 92.2408L44.1865 88.6882L44.5126 89.2743L42.9003 92.8881L42.6016 92.2408Z" fill="#FFDD33"/>
<path d="M57.0221 83.7866C59.8683 85.0563 62.1338 86.8614 63.5019 88.7348C64.8765 90.6173 65.3038 92.5025 64.6384 93.994C63.9729 95.4853 62.2846 96.4269 59.9655 96.6614C57.6576 96.8948 54.8013 96.4138 51.9552 95.1441C49.1091 93.8743 46.8431 92.0701 45.475 90.1967C44.1005 88.3144 43.6733 86.429 44.3385 84.9375C45.0039 83.4461 46.6924 82.5047 49.0114 82.2701C51.3193 82.0367 54.176 82.5169 57.0221 83.7866Z" fill="#FFDD33" stroke="#202A39" stroke-width="0.709821"/>
<path d="M56.3668 85.2568C58.5024 86.2096 60.1982 87.5631 61.2194 88.9626C62.247 90.3711 62.5505 91.7601 62.0663 92.8458C61.5819 93.9315 60.3453 94.6342 58.6105 94.8104C56.8869 94.9854 54.7473 94.6267 52.6117 93.674C50.4761 92.7212 48.7799 91.3685 47.7587 89.969C46.7308 88.5603 46.4269 87.1704 46.9113 86.0846C47.3958 84.999 48.6328 84.2974 50.3676 84.1213C52.0913 83.9463 54.2312 84.304 56.3668 85.2568Z" fill="#CDD4DF" stroke="#202A39" stroke-width="0.709821"/>
<path d="M55.896 85.4875C57.9472 86.4026 59.576 87.7017 60.5566 89.0435C61.5436 90.3942 61.8329 91.7216 61.3715 92.7562C60.9099 93.7908 59.7286 94.4631 58.0639 94.6308C56.4104 94.7974 54.356 94.4523 52.3047 93.5371C50.2536 92.622 48.6252 91.3241 47.6446 89.9824C46.6572 88.6315 46.3676 87.3031 46.8292 86.2684C47.2909 85.2338 48.4726 84.5628 50.1373 84.3951C51.7908 84.2285 53.8448 84.5724 55.896 85.4875Z" fill="#FFDD33" stroke="#202A39" stroke-width="0.709821"/>
<mask id="path-28-inside-5_10505_16873" fill="white">
<path d="M10.5024 46.8792C16.1203 44.1274 21.9471 44.4695 23.6289 47.6188L23.6341 47.6162L25.5814 51.5917L25.5604 51.602C26.7489 54.8532 23.473 59.4959 17.9965 62.1785C12.5201 64.861 6.84378 64.6035 5.00352 61.6715L4.98247 61.6818L3.03515 57.7064L3.04041 57.7038C1.58309 54.4446 4.88454 49.6311 10.5024 46.8792Z"/>
</mask>
<path d="M10.5024 46.8792C16.1203 44.1274 21.9471 44.4695 23.6289 47.6188L23.6341 47.6162L25.5814 51.5917L25.5604 51.602C26.7489 54.8532 23.473 59.4959 17.9965 62.1785C12.5201 64.861 6.84378 64.6035 5.00352 61.6715L4.98247 61.6818L3.03515 57.7064L3.04041 57.7038C1.58309 54.4446 4.88454 49.6311 10.5024 46.8792Z" fill="#202A39"/>
<path d="M10.5024 46.8792L10.1901 46.2418L10.1901 46.2418L10.5024 46.8792ZM23.6289 47.6188L23.0027 47.9532L23.3256 48.5578L23.9411 48.2563L23.6289 47.6188ZM23.6341 47.6162L24.2716 47.304L23.9593 46.6665L23.3219 46.9788L23.6341 47.6162ZM25.5814 51.5917L25.8937 52.2291L26.5311 51.9169L26.2189 51.2794L25.5814 51.5917ZM25.5604 51.602L25.2481 50.9645L24.6744 51.2456L24.8937 51.8457L25.5604 51.602ZM17.9965 62.1785L18.3088 62.816L18.3088 62.816L17.9965 62.1785ZM5.00352 61.6715L5.60473 61.2942L5.26507 60.753L4.69127 61.0341L5.00352 61.6715ZM4.98247 61.6818L4.34502 61.9941L4.65727 62.6315L5.29472 62.3193L4.98247 61.6818ZM3.03515 57.7064L2.7229 57.0689L2.08545 57.3812L2.3977 58.0186L3.03515 57.7064ZM3.04041 57.7038L3.35266 58.3413L3.96818 58.0397L3.68841 57.4141L3.04041 57.7038ZM10.5024 46.8792L10.8146 47.5167C13.5337 46.1848 16.2739 45.6176 18.5012 45.7448C20.7514 45.8732 22.3283 46.6902 23.0027 47.9532L23.6289 47.6188L24.255 47.2844C23.2477 45.3981 21.0703 44.4694 18.5821 44.3274C16.0711 44.1841 13.0889 44.8218 10.1901 46.2418L10.5024 46.8792ZM23.6289 47.6188L23.9411 48.2563L23.9464 48.2537L23.6341 47.6162L23.3219 46.9788L23.3166 46.9813L23.6289 47.6188ZM23.6341 47.6162L22.9967 47.9285L24.944 51.9039L25.5814 51.5917L26.2189 51.2794L24.2716 47.304L23.6341 47.6162ZM25.5814 51.5917L25.2692 50.9542L25.2481 50.9645L25.5604 51.602L25.8726 52.2394L25.8937 52.2291L25.5814 51.5917ZM25.5604 51.602L24.8937 51.8457C25.3737 53.1587 24.9887 54.8819 23.6997 56.6917C22.4239 58.4829 20.3344 60.2429 17.6843 61.541L17.9965 62.1785L18.3088 62.816C21.1352 61.4315 23.4219 59.5288 24.856 57.5153C26.2769 55.5203 26.9356 53.2965 26.2271 51.3583L25.5604 51.602ZM17.9965 62.1785L17.6843 61.541C15.0342 62.8391 12.3628 63.4112 10.1655 63.3212C7.94539 63.2303 6.3479 62.4782 5.60473 61.2942L5.00352 61.6715L4.40231 62.0489C5.4994 63.7968 7.66018 64.6394 10.1074 64.7397C12.5774 64.8408 15.4824 64.2004 18.3088 62.816L17.9965 62.1785ZM5.00352 61.6715L4.69127 61.0341L4.67022 61.0444L4.98247 61.6818L5.29472 62.3193L5.31577 62.309L5.00352 61.6715ZM4.98247 61.6818L5.61993 61.3696L3.67261 57.3941L3.03515 57.7064L2.3977 58.0186L4.34502 61.9941L4.98247 61.6818ZM3.03515 57.7064L3.3474 58.3438L3.35266 58.3413L3.04041 57.7038L2.72817 57.0663L2.7229 57.0689L3.03515 57.7064ZM3.04041 57.7038L3.68841 57.4141C3.10398 56.107 3.42506 54.3603 4.70292 52.5037C5.9678 50.666 8.09557 48.8486 10.8146 47.5167L10.5024 46.8792L10.1901 46.2418C7.29133 47.6618 4.95947 49.6271 3.5335 51.6988C2.1205 53.7518 1.51952 56.0414 2.39242 57.9935L3.04041 57.7038Z" fill="#202A39" mask="url(#path-28-inside-5_10505_16873)"/>
<path d="M7.9058 63.6855L6.19458 60.192L6.85346 60.3174L8.59418 63.8711L7.9058 63.6855Z" fill="#FFDD33"/>
<path d="M10.6583 47.1976C13.4571 45.8266 16.2947 45.2445 18.6096 45.395C20.9356 45.5462 22.6566 46.4265 23.3751 47.8932C24.0933 49.3599 23.7341 51.2593 22.4278 53.1897C21.1277 55.1109 18.9279 56.9952 16.1291 58.3662C13.3303 59.7371 10.4931 60.3202 8.17826 60.1697C5.85238 60.0184 4.13133 59.1379 3.41279 57.6715C2.69439 56.2049 3.05395 54.3053 4.36009 52.3749C5.66011 50.4537 7.85956 48.5686 10.6583 47.1976Z" fill="#FFDD33" stroke="#202A39" stroke-width="0.709821"/>
<path d="M11.3671 48.6429C13.4672 47.6143 15.593 47.18 17.3218 47.2931C19.0615 47.407 20.3223 48.0643 20.8453 49.1317C21.3683 50.1994 21.1152 51.599 20.1386 53.0436C19.1682 54.4788 17.5216 55.8913 15.4215 56.9201C13.3214 57.9488 11.1961 58.3838 9.46725 58.2708C7.72713 58.157 6.46543 57.4994 5.94243 56.4317C5.41959 55.364 5.67381 53.9649 6.65045 52.5203C7.62085 51.085 9.26691 49.6717 11.3671 48.6429Z" fill="#CDD4DF" stroke="#202A39" stroke-width="0.709821"/>
<path d="M11.2421 49.1521C13.2593 48.164 15.3004 47.7464 16.9588 47.8536C18.6283 47.9616 19.8326 48.5903 20.3311 49.6076C20.8294 50.625 20.5884 51.9626 19.6502 53.348C18.7183 54.724 17.1367 56.0798 15.1196 57.0679C13.1026 58.0559 11.0626 58.474 9.40422 58.3669C7.73439 58.259 6.52911 57.6299 6.0307 56.6124C5.53244 55.595 5.77466 54.2578 6.71285 52.8725C7.64473 51.4965 9.22511 50.1402 11.2421 49.1521Z" fill="#FFDD33" stroke="#202A39" stroke-width="0.709821"/>
<path d="M88.6069 72.3856C89.4487 74.0542 88.1361 75.9983 86.2746 75.8396L41.777 72.0444C39.3407 71.8366 37.1905 70.3664 36.1121 68.1711L17.3714 30.0146C16.5508 28.3428 17.8727 26.4182 19.7269 26.5853L63.8243 30.5607C66.2212 30.7768 68.338 32.2155 69.4225 34.3649L88.6069 72.3856Z" fill="white" stroke="#202A39" stroke-width="0.709821"/>
<path d="M86.1438 72.2291C86.4481 72.8322 85.9732 73.535 85.3003 73.4776L43.0352 69.8731C40.599 69.6653 38.4487 68.1952 37.3703 65.9998L20.7299 32.1177C19.909 30.446 21.2302 28.5216 23.0844 28.6884L62.2787 32.222C64.6754 32.4381 66.7925 33.876 67.8769 36.0252L86.1438 72.2291Z" fill="#CDD4DF" stroke="#202A39" stroke-width="0.709821"/>
<path d="M20.9416 22.0046L17.4868 27.6832C17.1076 28.3186 17.2363 29.4109 17.4871 29.9192L35.5325 66.6453C35.5325 66.6453 36.4256 69.3139 39.0943 70.966C39.0943 69.9176 39.3035 69.1563 39.651 68.4979C41.5266 66.0099 42.9462 66.0099 45.1941 66.0099L20.9416 22.0046Z" fill="#CDD4DF"/>
<path d="M17.4868 27.6832L17.1836 27.4987L17.1821 27.5013L17.4868 27.6832ZM20.9416 22.0046L21.2524 21.8333C21.1913 21.7225 21.0758 21.6525 20.9492 21.6498C20.8226 21.6471 20.7042 21.712 20.6384 21.8202L20.9416 22.0046ZM45.1941 66.0099V66.3648H45.795L45.505 65.8386L45.1941 66.0099ZM39.0943 70.966L38.9075 71.2677L39.4492 71.6031V70.966H39.0943ZM35.5325 66.6453L35.869 66.5326L35.8615 66.5101L35.851 66.4888L35.5325 66.6453ZM17.4871 29.9192L17.8057 29.7627L17.8054 29.7621L17.4871 29.9192ZM39.651 68.4979L39.3676 68.2843L39.3505 68.3071L39.3372 68.3322L39.651 68.4979ZM17.4868 27.6832L17.79 27.8677L21.2448 22.1891L20.9416 22.0046L20.6384 21.8202L17.1836 27.4987L17.4868 27.6832ZM20.9416 22.0046L20.6308 22.1759L44.8833 66.1812L45.1941 66.0099L45.505 65.8386L21.2524 21.8333L20.9416 22.0046ZM39.0943 70.966L39.2811 70.6642C38.0042 69.8738 37.1489 68.8378 36.6119 67.9953C36.3438 67.5747 36.1565 67.2045 36.0368 66.9412C35.977 66.8097 35.9343 66.7051 35.9068 66.6345C35.8931 66.5993 35.8833 66.5725 35.877 66.5553C35.8739 66.5466 35.8717 66.5403 35.8704 66.5365C35.8697 66.5346 35.8693 66.5333 35.8691 66.5327C35.8689 66.5324 35.8689 66.5322 35.8689 66.5322C35.8689 66.5322 35.8689 66.5322 35.8689 66.5323C35.8689 66.5323 35.869 66.5324 35.869 66.5324C35.869 66.5325 35.869 66.5326 35.5325 66.6453C35.1959 66.7579 35.196 66.758 35.196 66.7582C35.196 66.7582 35.1961 66.7584 35.1961 66.7585C35.1962 66.7587 35.1963 66.759 35.1964 66.7593C35.1966 66.76 35.1969 66.7608 35.1972 66.7617C35.1979 66.7637 35.1987 66.7662 35.1999 66.7694C35.2021 66.7758 35.2052 66.7847 35.2093 66.796C35.2174 66.8186 35.2294 66.8509 35.2453 66.8918C35.2771 66.9737 35.325 67.0905 35.3906 67.2349C35.5218 67.5236 35.7246 67.9238 36.0133 68.3769C36.5901 69.2817 37.5157 70.4062 38.9075 71.2677L39.0943 70.966ZM35.5325 66.6453L35.851 66.4888L17.8057 29.7627L17.4871 29.9192L17.1686 30.0757L35.2139 66.8018L35.5325 66.6453ZM17.4871 29.9192L17.8054 29.7621C17.7075 29.5636 17.6201 29.2152 17.6054 28.8351C17.5905 28.4523 17.6518 28.0993 17.7916 27.8651L17.4868 27.6832L17.1821 27.5013C16.9427 27.9025 16.8787 28.4133 16.8961 28.8626C16.9136 29.3146 17.016 29.7664 17.1689 30.0762L17.4871 29.9192ZM45.1941 66.0099V65.655C44.0842 65.655 43.1024 65.6512 42.1635 65.9867C41.2079 66.3282 40.3321 67.0048 39.3676 68.2843L39.651 68.4979L39.9345 68.7116C40.8455 67.503 41.6173 66.9356 42.4024 66.6551C43.2042 66.3686 44.0561 66.3648 45.1941 66.3648V66.0099ZM39.651 68.4979L39.3372 68.3322C38.9604 69.0459 38.7394 69.8648 38.7394 70.966H39.0943H39.4492C39.4492 69.9704 39.6465 69.2667 39.9649 68.6637L39.651 68.4979Z" fill="#202A39"/>
<path d="M92.4249 62.8066C93.2225 64.3946 92.07 66.2646 90.2937 66.2647L45.858 66.2653C43.2006 66.2653 40.7726 64.7523 39.6005 62.3659L20.8733 24.236C20.0941 22.6493 21.2472 20.7966 23.0141 20.7965L67.0279 20.7971C69.663 20.7971 72.0735 22.2846 73.2566 24.6405L92.4249 62.8066Z" fill="white" stroke="#202A39" stroke-width="0.709821"/>
<path d="M86.3685 43.8146C87.1715 45.4029 86.0191 47.2784 84.2402 47.2786L73.14 47.2781C70.4745 47.278 68.0408 45.7566 66.873 43.3591L65.4527 40.4428C64.6803 38.8566 65.8338 37.0103 67.5973 37.0102L78.6418 37.0111C81.2702 37.0111 83.6764 38.4911 84.8629 40.8378L86.3685 43.8146Z" fill="white" stroke="#202A39" stroke-width="0.709821"/>
<path d="M74.4613 41.7876C74.929 42.7126 74.2584 43.8052 73.2224 43.8053C71.7979 43.8052 70.4971 42.9918 69.873 41.7106L69.7754 41.5093C69.3258 40.5863 69.9966 39.5122 71.0228 39.5122C72.4261 39.5123 73.711 40.3029 74.3445 41.5558L74.4613 41.7876Z" fill="#FFDD33" stroke="#202A39" stroke-width="0.709821"/>
<path d="M75.361 99.1337C74.2622 100.4 74.7749 102.373 76.3509 102.943L113.145 116.238C115.868 117.221 118.918 116.417 120.804 114.219L168.559 58.5707C169.647 57.3034 169.132 55.341 167.563 54.7721L131.205 41.5981C128.494 40.6159 125.456 41.4064 123.565 43.5852L75.361 99.1337Z" fill="#FFDD33" stroke="#202A39" stroke-width="0.709821"/>
<path d="M76.4704 98.3245C75.4102 99.6035 75.9462 101.546 77.5117 102.099L113.035 114.635C115.552 115.523 118.357 114.716 120.019 112.625L128.4 102.08L128.407 102.072L128.412 102.066L157.425 61.3876C160.212 57.4798 158.305 51.9949 153.697 50.6623L127.658 43.1344C124.995 42.3644 122.126 43.2481 120.355 45.3839L76.4704 98.3245Z" fill="#202A39" stroke="#202A39" stroke-width="0.709821"/>
<path d="M75.073 97.3328C74.05 98.6611 74.677 100.601 76.2835 101.078L113.791 112.203C116.566 113.026 119.564 112.046 121.319 109.741L165.746 51.4011C166.757 50.0725 166.13 48.1435 164.53 47.6671L127.465 36.6369C124.701 35.8146 121.715 36.781 119.954 39.0663L75.073 97.3328Z" fill="#FFDD33" stroke="#202A39" stroke-width="0.709821"/>
<path d="M75.714 96.1076C74.6843 97.4318 75.3039 99.3756 76.9093 99.8585L113.541 110.877C116.177 111.67 119.024 110.645 120.552 108.353L127.354 98.152L127.357 98.1466L155.678 53.8568C158.269 49.8046 156.072 44.4133 151.388 43.3294L126.377 37.5416C123.732 36.9296 120.97 37.9109 119.302 40.055L75.714 96.1076Z" fill="#202A39" stroke="#202A39" stroke-width="0.709821"/>
<path d="M74.9114 95.4292C73.9711 96.8172 74.7148 98.7156 76.3474 99.0935L114.462 107.917C117.282 108.57 120.215 107.409 121.826 105.002L162.623 44.0681C163.552 42.6804 162.808 40.7931 161.182 40.4149L123.515 31.6593C120.707 31.0066 117.784 32.1528 116.166 34.5411L74.9114 95.4292Z" fill="#FFDD33" stroke="#202A39" stroke-width="0.709821"/>
<path d="M122.262 38.2488C119.822 39.3671 117.772 38.7148 117.051 38.2488L81.342 90.7328C81.808 90.7328 83.7566 91.4953 84.6461 93.2744C85.6769 95.336 85.2815 97.2139 84.6461 98.1035L112.35 104.203C112.477 103.314 113.925 101.001 115.654 99.8826C117.382 98.7643 120.483 98.9083 121.881 99.3743L154.54 50.0673C153.989 49.8978 152.154 48.7873 151.744 46.6361C151.236 43.9674 152.634 42.8237 153.142 41.5529L125.693 34.9448C125.566 35.5802 124.702 37.1305 122.262 38.2488Z" fill="#FFDD33" stroke="#202A39" stroke-width="0.709821"/>
<path d="M120.044 60.3556C124.28 61.1205 127.933 62.7248 130.416 64.6823C132.912 66.6507 134.152 68.9106 133.775 70.9977C133.398 73.0846 131.446 74.7677 128.419 75.7389C125.409 76.7047 121.426 76.9303 117.189 76.1655C112.953 75.4006 109.3 73.7964 106.818 71.8388C104.321 69.8705 103.082 67.6113 103.458 65.5243C103.835 63.4372 105.787 61.7535 108.814 60.7822C111.824 59.8163 115.807 59.5908 120.044 60.3556Z" fill="#FFDD33" stroke="#202A39" stroke-width="0.709821"/>
<path d="M132.664 48.0658C134.296 48.3493 135.695 48.9561 136.639 49.69C137.596 50.4346 138.011 51.2446 137.889 51.9452C137.768 52.6458 137.104 53.2682 135.951 53.6464C134.816 54.0191 133.294 54.1184 131.662 53.8349C130.029 53.5513 128.63 52.9446 127.687 52.2106C126.73 51.466 126.314 50.6561 126.436 49.9555C126.558 49.2549 127.222 48.6324 128.374 48.2543C129.51 47.8815 131.032 47.7823 132.664 48.0658Z" stroke="#202A39" stroke-width="0.709821"/>
<path d="M105.445 84.3725C107.098 84.7048 108.505 85.3597 109.445 86.132C110.4 86.9155 110.802 87.7523 110.659 88.4648C110.516 89.1773 109.821 89.7935 108.638 90.1473C107.472 90.4961 105.921 90.5563 104.269 90.2241C102.616 89.8918 101.208 89.2368 100.268 88.4644C99.3135 87.681 98.9109 86.8441 99.0542 86.1316C99.1974 85.4192 99.8922 84.8029 101.075 84.4491C102.241 84.1002 103.792 84.0402 105.445 84.3725Z" stroke="#202A39" stroke-width="0.709821"/>
</g>
</g>
<defs>
<clipPath id="clip0_10505_16873">
<rect width="188" height="157" fill="white"/>
</clipPath>
<clipPath id="clip1_10505_16873">
<rect width="184.554" height="184.554" fill="white"/>
</clipPath>
</defs>
</svg>
