<svg width="150" height="150" viewBox="0 0 150 150" fill="none" xmlns="http://www.w3.org/2000/svg">
<g clip-path="url(#clip0_731_61506)">
<path d="M67.5789 52.5362C72.2211 49.8594 77.9387 49.8493 82.5933 52.5096L139.376 84.9631C142.475 86.7341 142.494 91.191 139.412 92.9857L82.6259 126.043C77.927 128.779 72.1157 128.771 67.4213 126.023L11.1421 93.0733C8.07335 91.2767 8.08621 86.8409 11.1653 85.0654L67.5789 52.5362Z" fill="#FFDD33"/>
<mask id="path-2-outside-1_731_61506" maskUnits="userSpaceOnUse" x="5.5293" y="30.1025" width="139" height="89" fill="black">
<rect fill="white" x="5.5293" y="30.1025" width="139" height="89"/>
<path fill-rule="evenodd" clip-rule="evenodd" d="M67.5913 34.1143C72.2369 31.4389 77.9598 31.4315 82.6182 34.0949L140.798 67.3583C142.235 68.1802 143.01 69.5791 143.12 71.0218H143.134V71.34C143.134 71.367 143.134 71.394 143.134 71.421V77.9609C143.147 79.5263 142.382 81.0971 140.834 81.9972L82.7072 115.793C78.0049 118.527 72.1881 118.517 67.49 115.765L9.82365 81.9935C8.05214 80.956 7.30732 79.0407 7.58631 77.2656V72.1059C7.30587 70.3212 8.06019 68.3979 9.84634 67.3692L67.5913 34.1143Z"/>
</mask>
<path fill-rule="evenodd" clip-rule="evenodd" d="M67.5913 34.1143C72.2369 31.4389 77.9598 31.4315 82.6182 34.0949L140.798 67.3583C142.235 68.1802 143.01 69.5791 143.12 71.0218H143.134V71.34C143.134 71.367 143.134 71.394 143.134 71.421V77.9609C143.147 79.5263 142.382 81.0971 140.834 81.9972L82.7072 115.793C78.0049 118.527 72.1881 118.517 67.49 115.765L9.82365 81.9935C8.05214 80.956 7.30732 79.0407 7.58631 77.2656V72.1059C7.30587 70.3212 8.06019 68.3979 9.84634 67.3692L67.5913 34.1143Z" fill="white"/>
<path d="M82.6182 34.0949L82.0432 35.1006V35.1006L82.6182 34.0949ZM67.5913 34.1143L68.1694 35.1182V35.1182L67.5913 34.1143ZM140.798 67.3583L140.223 68.3641L140.798 67.3583ZM143.12 71.0218L141.965 71.1099C142.011 71.7138 142.515 72.1803 143.12 72.1803V71.0218ZM143.134 71.0218H144.292C144.292 70.3819 143.774 69.8632 143.134 69.8632V71.0218ZM143.134 71.34H141.975L141.975 71.3498L143.134 71.34ZM143.134 71.421L141.975 71.4112V71.421H143.134ZM143.134 77.9609H141.975L141.975 77.9709L143.134 77.9609ZM140.834 81.9972L140.251 80.9956V80.9956L140.834 81.9972ZM82.7072 115.793L82.1249 114.792L82.7072 115.793ZM67.49 115.765L66.9045 116.765L67.49 115.765ZM9.82365 81.9935L9.23818 82.9932L9.23818 82.9932L9.82365 81.9935ZM7.58631 77.2656L8.73078 77.4454C8.74014 77.386 8.74483 77.3258 8.74483 77.2656H7.58631ZM7.58631 72.1059H8.74483C8.74483 72.0457 8.74014 71.9856 8.73079 71.9261L7.58631 72.1059ZM9.84634 67.3692L10.4245 68.3732H10.4245L9.84634 67.3692ZM83.1933 33.0891C78.1779 30.2217 72.0159 30.2293 67.0131 33.1103L68.1694 35.1182C72.4578 32.6486 77.7418 32.6414 82.0432 35.1006L83.1933 33.0891ZM141.373 66.3526L83.1933 33.0891L82.0432 35.1006L140.223 68.3641L141.373 66.3526ZM144.276 70.9336C144.138 69.1337 143.166 67.3777 141.373 66.3526L140.223 68.3641C141.305 68.9827 141.882 70.0245 141.965 71.1099L144.276 70.9336ZM143.12 72.1803H143.134V69.8632H143.12V72.1803ZM141.975 71.0218V71.34H144.292V71.0218H141.975ZM144.292 71.4308C144.293 71.3973 144.293 71.3637 144.292 71.3302L141.975 71.3498C141.976 71.3703 141.976 71.3907 141.975 71.4112L144.292 71.4308ZM141.975 71.421V77.9609H144.292V71.421H141.975ZM141.416 82.9987C143.35 81.8741 144.309 79.901 144.292 77.951L141.975 77.9709C141.986 79.1516 141.413 80.3202 140.251 80.9956L141.416 82.9987ZM83.2895 116.795L141.416 82.9987L140.251 80.9956L82.1249 114.792L83.2895 116.795ZM66.9045 116.765C71.9627 119.727 78.2256 119.739 83.2895 116.795L82.1249 114.792C77.7841 117.316 72.4136 117.306 68.0755 114.766L66.9045 116.765ZM9.23818 82.9932L66.9045 116.765L68.0755 114.766L10.4091 80.9938L9.23818 82.9932ZM6.44183 77.0857C6.09494 79.2929 7.02273 81.6957 9.23818 82.9932L10.4091 80.9938C9.08156 80.2163 8.51971 78.7885 8.73078 77.4454L6.44183 77.0857ZM8.74483 77.2656V72.1059H6.42778V77.2656H8.74483ZM9.26818 66.3653C7.03254 67.6528 6.09321 70.0671 6.44182 72.2857L8.73079 71.9261C8.51854 70.5752 9.08785 69.143 10.4245 68.3732L9.26818 66.3653ZM67.0131 33.1103L9.26818 66.3653L10.4245 68.3732L68.1694 35.1182L67.0131 33.1103Z" fill="#1D2939" mask="url(#path-2-outside-1_731_61506)"/>
<mask id="mask0_731_61506" style="mask-type:alpha" maskUnits="userSpaceOnUse" x="7" y="31" width="69" height="88">
<rect x="7.52734" y="31.8594" width="67.7738" height="86.3102" fill="#D0D8DC"/>
</mask>
<g mask="url(#mask0_731_61506)">
<path d="M67.5324 40.735C72.178 38.0596 77.901 38.0523 82.5594 40.7156L140.739 73.9791C143.838 75.7509 143.858 80.2042 140.775 81.9968L82.6483 115.793C77.946 118.527 72.1293 118.516 67.4312 115.765L9.76479 81.9931C6.69562 80.1957 6.70819 75.7633 9.78749 73.99L67.5324 40.735Z" fill="#D0D5DD"/>
<path d="M67.5323 34.1121C72.1779 31.4367 77.9009 31.4293 82.5593 34.0927L140.739 67.3561C143.838 69.1279 143.858 73.5813 140.775 75.3739L82.6482 109.17C77.9459 111.904 72.1292 111.893 67.431 109.142L9.76469 75.3702C6.69551 73.5727 6.70808 69.1404 9.78738 67.367L67.5323 34.1121Z" fill="#D0D5DD"/>
<rect x="7.52734" y="71.0195" width="135.548" height="6.95116" fill="#D0D5DD"/>
</g>
<path d="M82.7312 33.77C77.9871 31.0585 72.1595 31.0689 67.4281 33.7971L9.654 67.1108C6.38247 68.9972 6.3688 73.7103 9.62933 75.6192L67.268 109.364C72.0526 112.166 77.9756 112.174 82.7649 109.386L140.921 75.5301C144.196 73.6232 144.176 68.8878 140.883 67.0061L82.7312 33.77Z" fill="white" stroke="#1D2939" stroke-width="0.579263"/>
<path d="M55.0282 101.662H76.461L93.5492 92.9727L105.424 85.7319L45.1807 47.2109L30.9888 55.3206L9.90353 67.2762C6.79439 69.0391 6.76698 73.5093 9.85427 75.3102L55.0282 101.662Z" fill="#D0D5DD"/>
<mask id="path-10-outside-2_731_61506" maskUnits="userSpaceOnUse" x="19.4336" y="20.7148" width="111" height="82" fill="black">
<rect fill="white" x="19.4336" y="20.7148" width="111" height="82"/>
<path fill-rule="evenodd" clip-rule="evenodd" d="M67.6504 24.7266C72.2961 22.0512 78.019 22.0438 82.6774 24.7072L126.769 49.9161C128.304 50.7933 129.083 52.3278 129.105 53.8713H129.177V68.9321H129.098C129.193 70.5729 128.43 72.2567 126.805 73.2015L82.7662 98.8068C78.0639 101.541 72.2472 101.53 67.549 98.7787L23.8689 73.1978C22.2503 72.2499 21.4888 70.5692 21.5822 68.9321H21.4336V53.8713H21.5749C21.5951 52.3331 22.3679 50.8045 23.8916 49.9271L67.6504 24.7266Z"/>
</mask>
<path fill-rule="evenodd" clip-rule="evenodd" d="M67.6504 24.7266C72.2961 22.0512 78.019 22.0438 82.6774 24.7072L126.769 49.9161C128.304 50.7933 129.083 52.3278 129.105 53.8713H129.177V68.9321H129.098C129.193 70.5729 128.43 72.2567 126.805 73.2015L82.7662 98.8068C78.0639 101.541 72.2472 101.53 67.549 98.7787L23.8689 73.1978C22.2503 72.2499 21.4888 70.5692 21.5822 68.9321H21.4336V53.8713H21.5749C21.5951 52.3331 22.3679 50.8045 23.8916 49.9271L67.6504 24.7266Z" fill="white"/>
<path d="M82.6774 24.7072L82.1024 25.7129L82.6774 24.7072ZM67.6504 24.7266L67.0723 23.7226L67.6504 24.7266ZM126.769 49.9161L126.194 50.9219H126.194L126.769 49.9161ZM129.105 53.8713L127.947 53.8877C127.956 54.5211 128.472 55.0298 129.105 55.0298V53.8713ZM129.177 53.8713H130.335C130.335 53.2314 129.816 52.7127 129.177 52.7127V53.8713ZM129.177 68.9321V70.0906C129.816 70.0906 130.335 69.5719 130.335 68.9321H129.177ZM129.098 68.9321V67.7736C128.779 67.7736 128.474 67.9051 128.255 68.137C128.036 68.369 127.922 68.681 127.941 68.9994L129.098 68.9321ZM126.805 73.2015L127.387 74.203L126.805 73.2015ZM82.7662 98.8068L82.1839 97.8053L82.7662 98.8068ZM67.549 98.7787L68.1345 97.779L67.549 98.7787ZM23.8689 73.1978L24.4543 72.1981H24.4543L23.8689 73.1978ZM21.5822 68.9321L22.7388 68.9981C22.757 68.6799 22.6432 68.3683 22.4244 68.1366C22.2055 67.9049 21.9009 67.7736 21.5822 67.7736V68.9321ZM21.4336 68.9321H20.2751C20.2751 69.5719 20.7938 70.0906 21.4336 70.0906V68.9321ZM21.4336 53.8713V52.7127C20.7938 52.7127 20.2751 53.2314 20.2751 53.8713H21.4336ZM21.5749 53.8713V55.0298C22.2089 55.0298 22.7251 54.5203 22.7334 53.8864L21.5749 53.8713ZM23.8916 49.9271L23.3134 48.9231H23.3134L23.8916 49.9271ZM83.2524 23.7014C78.2371 20.834 72.0751 20.8416 67.0723 23.7226L68.2286 25.7305C72.517 23.2609 77.801 23.2537 82.1024 25.7129L83.2524 23.7014ZM127.344 48.9104L83.2524 23.7014L82.1024 25.7129L126.194 50.9219L127.344 48.9104ZM130.263 53.8548C130.236 51.9316 129.26 50.0054 127.344 48.9104L126.194 50.9219C127.347 51.5812 127.93 52.724 127.947 53.8877L130.263 53.8548ZM129.105 55.0298H129.177V52.7127H129.105V55.0298ZM128.018 53.8713V68.9321H130.335V53.8713H128.018ZM129.177 67.7736H129.098V70.0906H129.177V67.7736ZM127.387 74.203C129.419 73.0218 130.373 70.9071 130.254 68.8649L127.941 68.9994C128.013 70.2388 127.441 71.4916 126.223 72.2L127.387 74.203ZM83.3485 99.8084L127.387 74.203L126.223 72.2L82.1839 97.8053L83.3485 99.8084ZM66.9636 99.7784C72.0217 102.741 78.2847 102.753 83.3485 99.8084L82.1839 97.8053C77.8431 100.329 72.4726 100.32 68.1345 97.779L66.9636 99.7784ZM23.2834 74.1975L66.9636 99.7784L68.1345 97.779L24.4543 72.1981L23.2834 74.1975ZM20.4255 68.8661C20.3093 70.9039 21.2613 73.0133 23.2834 74.1975L24.4543 72.1981C23.2393 71.4865 22.6683 70.2345 22.7388 68.9981L20.4255 68.8661ZM21.5822 67.7736H21.4336V70.0906H21.5822V67.7736ZM22.5921 68.9321V53.8713H20.2751V68.9321H22.5921ZM21.4336 55.0298H21.5749V52.7127H21.4336V55.0298ZM23.3134 48.9231C21.4099 50.0193 20.4416 51.9392 20.4165 53.8561L22.7334 53.8864C22.7485 52.7269 23.3259 51.5898 24.4697 50.931L23.3134 48.9231ZM67.0723 23.7226L23.3134 48.9231L24.4697 50.931L68.2286 25.7305L67.0723 23.7226Z" fill="#1D2939" mask="url(#path-10-outside-2_731_61506)"/>
<mask id="mask1_731_61506" style="mask-type:alpha" maskUnits="userSpaceOnUse" x="20" y="32" width="56" height="70">
<rect x="20.6855" y="32.002" width="54.636" height="69.5792" fill="#D0D8DC"/>
</mask>
<g mask="url(#mask1_731_61506)">
<path d="M67.6056 39.992C72.2512 37.3166 77.9742 37.3092 82.6326 39.9726L126.724 65.1815C129.823 66.9534 129.843 71.4067 126.76 73.1993L82.7214 98.8047C78.0191 101.539 72.2023 101.528 67.5042 98.7765L23.824 73.1956C20.7549 71.3982 20.7674 66.9658 23.8467 65.1925L67.6056 39.992Z" fill="#D0D5DD"/>
<path d="M67.6036 24.7264C72.2493 22.051 77.9722 22.0436 82.6306 24.707L126.722 49.9159C129.822 51.6877 129.841 56.1411 126.758 57.9337L82.7194 83.5391C78.0171 86.2731 72.2003 86.2624 67.5022 83.511L23.822 57.93C20.7528 56.1326 20.7654 51.7002 23.8447 49.9269L67.6036 24.7264Z" fill="#D0D5DD"/>
<rect x="21.4336" y="55.0293" width="108.322" height="13.9023" fill="#D0D5DD"/>
</g>
<path d="M82.7951 24.4775C78.0509 21.766 72.2234 21.7764 67.4919 24.5046L23.7086 49.751C20.4371 51.6374 20.4234 56.3505 23.6839 58.2594L67.3429 83.8199C72.1275 86.6211 78.0506 86.6293 82.8398 83.8412L126.903 58.1896C130.179 56.2827 130.158 51.5473 126.866 49.6656L82.7951 24.4775Z" fill="#1D2939" stroke="#1D2939" stroke-width="0.579263"/>
<ellipse cx="1.86795" cy="2.19209" rx="1.86795" ry="2.19209" transform="matrix(-0.866025 -0.5 -0.5 0.866025 123.963 68.4844)" fill="#FFDD33" stroke="#1D2939" stroke-width="0.579263"/>
<ellipse cx="1.86795" cy="2.19209" rx="1.86795" ry="2.19209" transform="matrix(-0.866025 -0.5 -0.5 0.866025 115.492 73.5664)" fill="#D0D5DD" stroke="#1D2939" stroke-width="0.579263"/>
<mask id="path-19-outside-3_731_61506" maskUnits="userSpaceOnUse" x="19.4316" y="-0.136719" width="111" height="82" fill="black">
<rect fill="white" x="19.4316" y="-0.136719" width="111" height="82"/>
<path fill-rule="evenodd" clip-rule="evenodd" d="M67.6495 3.87503C72.2951 1.19964 78.0181 1.19225 82.6764 3.85563L126.768 29.0646C128.303 29.9418 129.082 31.4762 129.104 33.0197H129.175V48.0805H129.096C129.19 49.7207 128.427 51.4036 126.803 52.348L82.7643 77.9533C78.062 80.6874 72.2452 80.6766 67.5471 77.9252L23.8669 52.3443C22.249 51.3968 21.4875 49.717 21.5801 48.0805H21.4316V33.0197H21.574C21.5941 31.4815 22.3669 29.953 23.8906 29.0755L67.6495 3.87503Z"/>
</mask>
<path fill-rule="evenodd" clip-rule="evenodd" d="M67.6495 3.87503C72.2951 1.19964 78.0181 1.19225 82.6764 3.85563L126.768 29.0646C128.303 29.9418 129.082 31.4762 129.104 33.0197H129.175V48.0805H129.096C129.19 49.7207 128.427 51.4036 126.803 52.348L82.7643 77.9533C78.062 80.6874 72.2452 80.6766 67.5471 77.9252L23.8669 52.3443C22.249 51.3968 21.4875 49.717 21.5801 48.0805H21.4316V33.0197H21.574C21.5941 31.4815 22.3669 29.953 23.8906 29.0755L67.6495 3.87503Z" fill="white"/>
<path d="M82.6764 3.85563L82.1014 4.86138L82.6764 3.85563ZM67.6495 3.87503L67.0713 2.87108L67.6495 3.87503ZM126.768 29.0646L126.193 30.0703H126.193L126.768 29.0646ZM129.104 33.0197L127.946 33.0362C127.955 33.6695 128.471 34.1782 129.104 34.1782V33.0197ZM129.175 33.0197H130.333C130.333 32.3799 129.814 31.8612 129.175 31.8612V33.0197ZM129.175 48.0805V49.2391C129.814 49.2391 130.333 48.7204 130.333 48.0805H129.175ZM129.096 48.0805V46.922C128.777 46.922 128.472 47.0534 128.253 47.2853C128.034 47.5172 127.921 47.829 127.939 48.1473L129.096 48.0805ZM126.803 52.348L127.385 53.3495V53.3495L126.803 52.348ZM82.7643 77.9533L82.1819 76.9518L82.7643 77.9533ZM67.5471 77.9252L68.1326 76.9255L67.5471 77.9252ZM23.8669 52.3443L23.2815 53.344H23.2815L23.8669 52.3443ZM21.5801 48.0805L22.7368 48.146C22.7548 47.8279 22.641 47.5164 22.4221 47.2848C22.2033 47.0532 21.8987 46.922 21.5801 46.922V48.0805ZM21.4316 48.0805H20.2731C20.2731 48.7204 20.7918 49.2391 21.4316 49.2391V48.0805ZM21.4316 33.0197V31.8612C20.7918 31.8612 20.2731 32.3799 20.2731 33.0197H21.4316ZM21.574 33.0197V34.1782C22.2079 34.1782 22.7241 33.6687 22.7324 33.0349L21.574 33.0197ZM23.8906 29.0755L23.3124 28.0716H23.3124L23.8906 29.0755ZM83.2515 2.84988C78.2361 -0.0175985 72.0741 -0.0100064 67.0713 2.87108L68.2276 4.87898C72.5161 2.40929 77.8 2.40211 82.1014 4.86138L83.2515 2.84988ZM127.343 28.0588L83.2515 2.84988L82.1014 4.86138L126.193 30.0703L127.343 28.0588ZM130.262 33.0032C130.235 31.0801 129.259 29.1539 127.343 28.0588L126.193 30.0703C127.347 30.7297 127.929 31.8724 127.946 33.0362L130.262 33.0032ZM129.104 34.1782H129.175V31.8612H129.104V34.1782ZM128.016 33.0197V48.0805H130.333V33.0197H128.016ZM129.175 46.922H129.096V49.2391H129.175V46.922ZM127.385 53.3495C129.416 52.1688 130.37 50.0552 130.252 48.0138L127.939 48.1473C128.011 49.3863 127.439 50.6384 126.221 51.3464L127.385 53.3495ZM83.3466 78.9549L127.385 53.3495L126.221 51.3464L82.1819 76.9518L83.3466 78.9549ZM66.9616 78.9249C72.0198 81.8872 78.2827 81.8991 83.3466 78.9549L82.1819 76.9518C77.8412 79.4756 72.4707 79.4661 68.1326 76.9255L66.9616 78.9249ZM23.2815 53.344L66.9616 78.9249L68.1326 76.9255L24.4524 51.3446L23.2815 53.344ZM20.4234 48.0151C20.3081 50.052 21.2601 52.1602 23.2815 53.344L24.4524 51.3446C23.2379 50.6333 22.6668 49.382 22.7368 48.146L20.4234 48.0151ZM21.5801 46.922H21.4316V49.2391H21.5801V46.922ZM22.5902 48.0805V33.0197H20.2731V48.0805H22.5902ZM21.4316 34.1782H21.574V31.8612H21.4316V34.1782ZM23.3124 28.0716C21.4089 29.1678 20.4406 31.0877 20.4155 33.0045L22.7324 33.0349C22.7476 31.8753 23.3249 30.7382 24.4688 30.0794L23.3124 28.0716ZM67.0713 2.87108L23.3124 28.0716L24.4688 30.0794L68.2276 4.87898L67.0713 2.87108Z" fill="#1D2939" mask="url(#path-19-outside-3_731_61506)"/>
<mask id="mask2_731_61506" style="mask-type:alpha" maskUnits="userSpaceOnUse" x="20" y="11" width="56" height="70">
<rect x="20.6855" y="11.1484" width="54.636" height="69.5792" fill="#D0D8DC"/>
</mask>
<g mask="url(#mask2_731_61506)">
<path d="M67.6056 19.1385C72.2512 16.4631 77.9742 16.4557 82.6326 19.1191L126.724 44.328C129.823 46.0998 129.843 50.5532 126.76 52.3458L82.7214 77.9512C78.0191 80.6852 72.2023 80.6745 67.5042 77.923L23.824 52.3421C20.7549 50.5447 20.7674 46.1123 23.8467 44.339L67.6056 19.1385Z" fill="#D0D5DD"/>
<path d="M67.6036 3.87287C72.2493 1.19748 77.9722 1.19009 82.6306 3.85346L126.722 29.0624C129.822 30.8342 129.841 35.2876 126.758 37.0802L82.7194 62.6856C78.0171 65.4196 72.2003 65.4089 67.5022 62.6574L23.822 37.0765C20.7528 35.2791 20.7654 30.8467 23.8447 29.0734L67.6036 3.87287Z" fill="#D0D5DD"/>
<rect x="21.4336" y="34.1758" width="108.322" height="13.9023" fill="#D0D5DD"/>
</g>
<path d="M82.7951 3.62397C78.0509 0.912516 72.2234 0.922858 67.4919 3.65112L23.7086 28.8974C20.4371 30.7839 20.4234 35.4969 23.6839 37.4058L67.3429 62.9664C72.1275 65.7676 78.0506 65.7757 82.8398 62.9877L126.903 37.3361C130.179 35.4292 130.158 30.6937 126.866 28.8121L82.7951 3.62397Z" fill="white" stroke="#1D2939" stroke-width="0.579263"/>
<ellipse cx="1.86795" cy="2.19209" rx="1.86795" ry="2.19209" transform="matrix(-0.866025 -0.5 -0.5 0.866025 123.963 47.6289)" fill="#FFDD33" stroke="#1D2939" stroke-width="0.579263"/>
<ellipse cx="1.86795" cy="2.19209" rx="1.86795" ry="2.19209" transform="matrix(-0.866025 -0.5 -0.5 0.866025 115.492 52.7129)" fill="#D0D5DD" stroke="#1D2939" stroke-width="0.579263"/>
<rect width="17.6616" height="3.71823" transform="matrix(-0.871267 0.49081 0.846322 0.532672 74.8926 22.6543)" fill="#1D2939"/>
<path d="M71.9629 28.0557L68.7233 29.8806L83.6707 39.2885L90.0571 39.4441L71.9629 28.0557Z" fill="#1D2939"/>
<path d="M99.4668 30.3906L99.374 34.1962L90.0603 39.4429L83.6739 39.2872L99.4668 30.3906Z" fill="#1D2939"/>
<path d="M71.8379 16.8672L78.2243 17.0228L99.4653 30.3919L99.3726 34.1974L71.8379 16.8672Z" fill="#1D2939"/>
<path d="M78.2266 17.0225L71.8402 16.8668L49.9731 29.1852L49.8803 32.9907L78.2266 17.0225Z" fill="#1D2939"/>
<path d="M49.9707 29.1865L49.878 32.9921L71.119 46.3611L77.5054 46.5168L49.9707 29.1865Z" fill="#1D2939"/>
</g>
<defs>
<clipPath id="clip0_731_61506">
<rect width="150" height="150" fill="white"/>
</clipPath>
</defs>
</svg>
