<svg width="497" height="395" viewBox="0 0 497 395" fill="none" xmlns="http://www.w3.org/2000/svg">
<path d="M1 80.3574L117.215 90.484L134.575 187.893L19.8066 184.035L1 80.3574Z" fill="white" stroke="black"/>
<path d="M42.9532 114.596L19.8066 184.035L133.611 187.411L105.16 136.778L94.5508 117.489L42.9532 114.596Z" fill="white" stroke="black"/>
<path d="M68.9929 155.102L1.5 80.541L116.733 90.9665L103.713 116.524L83.9417 155.102H68.9929Z" fill="white" stroke="black"/>
<path d="M192.016 255.487L202.625 252.594L213.715 295.511L202.625 299.851L194.909 294.065C193.945 289.885 191.534 279.598 189.605 271.883C187.676 264.167 190.409 257.737 192.016 255.487Z" fill="#585858" stroke="black"/>
<path d="M224.324 290.69L317.393 294.065H322.215L324.144 303.227C317.586 295.512 302.766 301.62 296.175 305.639C277.047 313.997 235.609 331.968 222.878 336.983C210.147 341.998 188.64 348.395 179.477 350.967C153.92 360.129 82.5511 363.987 83.5155 349.521C84.2871 337.947 110.198 325.41 123.058 320.587L187.675 294.065C196.548 291.751 201.017 296.959 202.142 299.852C200.052 291.333 195.68 273.426 194.909 269.954C193.944 265.614 193.944 254.523 202.142 252.594C208.7 251.051 213.876 255.809 215.644 258.381L224.324 290.69Z" fill="#D9D9D9" stroke="black"/>
<path d="M210.34 309.978C201.082 311.135 146.687 329.749 120.647 338.911L224.807 290.207L317.876 294.065L319.322 300.334C314.693 298.791 289.103 308.371 276.887 313.354C258.562 311.746 219.599 308.821 210.34 309.978Z" fill="#585858"/>
<path d="M114.861 341.804C102.902 347.205 98.3048 354.342 97.5011 357.235C87.471 356.078 83.999 351.931 83.5167 350.002C82.3594 341.129 102.002 330.231 111.968 325.891L135.597 315.764C150.706 309.013 182.372 295.125 188.159 293.582C193.945 292.039 199.893 296.797 202.143 299.369L195.392 275.258L219.985 276.222L224.325 290.689C192.82 305.477 126.82 336.403 114.861 341.804Z" fill="url(#paint0_linear_736_50796)" stroke="black"/>
<path d="M441.324 78.5131L245.542 67.9043C207.35 69.4474 193.945 111.947 192.016 133.004V274.777L301.962 280.081L490.535 272.594C493.753 272.467 496.297 269.82 496.297 266.599V133.004C488.967 86.7109 456.594 77.388 441.324 78.5131Z" fill="white" stroke="black"/>
<path d="M192.016 133.967V275.257L301.48 280.08C301.64 233.786 301.865 141.683 301.48 133.968C300.997 124.323 292.8 67.9028 246.024 67.9023C207.398 67.9019 193.945 112.749 192.016 133.967Z" stroke="black"/>
<path d="M192.498 133.967V274.293L248.918 277.187L250.364 68.8676C209.858 64.5274 193.784 112.91 192.498 133.967Z" fill="url(#paint1_linear_736_50796)"/>
<rect x="330.896" y="275.258" width="32.791" height="118.626" fill="url(#paint2_linear_736_50796)"/>
<rect width="30.8621" height="118.626" transform="matrix(-1 0 0 1 394.549 275.258)" fill="url(#paint3_linear_736_50796)"/>
<path d="M321.251 250.183L330.896 248.254C318.937 253.655 317.876 268.186 318.84 274.776L324.626 303.709C321.926 299.851 317.072 300.173 314.982 300.816C299.551 308.531 260.781 326.952 229.147 338.911C189.605 353.86 156.332 359.647 151.992 360.611C147.652 361.576 79.6585 367.362 74.3541 353.86C70.1106 343.058 105.056 327.177 123.059 320.587C97.9835 330.874 59.0201 352.896 103.77 358.682C148.52 364.469 207.287 344.376 231.076 333.607C256.313 322.677 307.46 300.527 310.16 299.369C312.861 298.212 317.072 298.887 318.84 299.369C316.912 293.261 312.957 278.73 312.571 269.472C312.186 260.213 318.197 252.755 321.251 250.183Z" fill="#D9D9D9" stroke="black"/>
<path d="M250.847 362.541L352.052 314.942C354.618 313.735 355.988 310.898 355.339 308.138L346.809 271.884C345.041 262.078 338.901 243.818 328.485 249.219C318.069 254.62 318.036 270.758 319.322 278.152L324.627 303.71C322.698 299.466 318.036 299.691 315.947 300.334C314.661 301.46 296.176 310.461 232.523 337.465C152.956 371.221 102.805 362.541 89.3033 360.612C78.5016 359.069 74.8367 355.147 74.3545 353.379L81.1052 383.276C80.4622 387.938 91.5211 396.489 140.9 393.403C190.28 390.317 234.773 371.542 250.847 362.541Z" fill="white" stroke="black"/>
<path d="M202.143 134.931V262.72L292.318 265.613V163.865C292.318 151.52 291.032 132.681 290.389 124.805C287.817 110.017 275.054 81.0192 244.578 83.3338C214.102 85.6485 203.589 118.697 202.143 134.931Z" fill="#A7A7A7" stroke="black"/>
<path d="M255.187 138.309V256.935L292.8 259.346L291.353 138.309C290.581 110.533 277.851 95.5517 271.582 91.5332C259.623 101.178 255.187 122.395 255.187 138.309Z" fill="url(#paint4_linear_736_50796)"/>
<path d="M248.436 137.825L248.436 257.416L236.863 258.863C235.898 229.286 238.746 164.44 238.31 137.825C237.828 108.41 249.401 91.3714 255.67 84.2988C259.527 85.2633 262.421 86.2277 265.796 88.1566C249.594 101.659 248.436 126.252 248.436 137.825Z" fill="url(#paint5_linear_736_50796)"/>
<path d="M255.187 257.416L202.625 262.72L292.318 265.132V258.863L255.187 257.416Z" fill="#585858" stroke="black"/>
<path d="M183 133.004L291.5 141.858L292 169.358V239.858L201.807 236.681L183 133.004Z" fill="white" stroke="black"/>
<path d="M224.953 167.242L201.807 236.682L292.5 239.858L292 195.358L276.551 170.136L224.953 167.242Z" fill="white" stroke="black"/>
<path d="M250.993 207.748L183.342 132.879L291.5 141.858L292 168.858L265.942 207.748H250.993Z" fill="white" stroke="black"/>
<path d="M291 141.357L259 138.357V237.857L292 239.357V167.357L291 141.357Z" fill="url(#paint6_linear_736_50796)"/>
<path d="M358.864 1.35742V151.81H372.366V44.7572L404.193 38.9706V12.9307L372.366 1.35742H362.24H358.864Z" fill="#FFDD33" stroke="black"/>
<path d="M358.864 1.35742V151.328H361.758V1.35742H358.864Z" fill="#B89F25" stroke="black"/>
<path d="M359.347 207.266H374.778C380.082 205.176 389.671 194.246 390.208 180.261C390.846 163.681 379.117 154.061 373.813 151.328H359.347C353.721 153.739 342.565 162.901 342.951 180.261C343.337 197.621 354.042 205.498 359.347 207.266Z" fill="#B89F25" stroke="black"/>
<path d="M352.595 181.226C354.524 200.129 368.187 206.462 374.778 207.266C382.975 205.819 391.655 194.246 391.655 178.815C391.655 162.222 381.046 152.775 373.331 151.328C367.544 151.328 350.184 157.597 352.595 181.226Z" fill="#FFDD33" stroke="black"/>
<path d="M375.259 160.008H368.991C363.687 162.419 357.631 170.617 358.864 181.708C359.989 191.834 365.937 196.335 368.991 198.103H378.635C382.332 196.335 390.015 189.616 389.244 176.886C388.472 164.155 379.599 160.329 375.259 160.008Z" fill="#B89F25" stroke="black"/>
<path d="M374.777 160.008C364.361 162.708 363.493 175.439 364.65 181.226C366.965 192.799 375.259 197.3 379.117 198.103C383.136 195.371 390.787 187.012 389.244 175.439C387.701 163.866 378.956 160.329 374.777 160.008Z" fill="#FFDD33" stroke="black"/>
<defs>
<linearGradient id="paint0_linear_736_50796" x1="153.896" y1="275.258" x2="153.896" y2="357.235" gradientUnits="userSpaceOnUse">
<stop stop-color="#767676"/>
<stop offset="1" stop-color="#767676" stop-opacity="0"/>
</linearGradient>
<linearGradient id="paint1_linear_736_50796" x1="192.016" y1="173.027" x2="249.882" y2="173.027" gradientUnits="userSpaceOnUse">
<stop stop-color="#C9C9C9"/>
<stop offset="1" stop-color="#A5A5A5" stop-opacity="0"/>
</linearGradient>
<linearGradient id="paint2_linear_736_50796" x1="347.291" y1="275.258" x2="347.291" y2="393.884" gradientUnits="userSpaceOnUse">
<stop stop-color="#5E5E5E"/>
<stop offset="1" stop-color="#5E5E5E" stop-opacity="0"/>
</linearGradient>
<linearGradient id="paint3_linear_736_50796" x1="15.431" y1="0" x2="15.431" y2="118.626" gradientUnits="userSpaceOnUse">
<stop stop-color="#8B8B8B"/>
<stop offset="1" stop-color="#8B8B8B" stop-opacity="0"/>
</linearGradient>
<linearGradient id="paint4_linear_736_50796" x1="273.993" y1="91.5332" x2="273.993" y2="259.346" gradientUnits="userSpaceOnUse">
<stop stop-color="#585858" stop-opacity="0"/>
<stop offset="1" stop-color="#585858"/>
</linearGradient>
<linearGradient id="paint5_linear_736_50796" x1="251.229" y1="84.2988" x2="251.229" y2="258.863" gradientUnits="userSpaceOnUse">
<stop stop-color="#8F8F8F" stop-opacity="0"/>
<stop offset="1" stop-color="#A4A4A4"/>
</linearGradient>
<linearGradient id="paint6_linear_736_50796" x1="292" y1="193.936" x2="264.997" y2="195.288" gradientUnits="userSpaceOnUse">
<stop stop-color="#929292" stop-opacity="0.74"/>
<stop offset="1" stop-color="#9C9C9C" stop-opacity="0"/>
</linearGradient>
</defs>
</svg>
