<svg width="334" height="477" viewBox="0 0 334 477" fill="none" xmlns="http://www.w3.org/2000/svg">
<mask id="mask0_730_57232" style="mask-type:alpha" maskUnits="userSpaceOnUse" x="0" y="0" width="334" height="477">
<rect y="0.176758" width="334" height="476" rx="24" fill="#0063F5"/>
</mask>
<g mask="url(#mask0_730_57232)">
<path d="M148.61 139.954C150.635 138.941 151.986 136.156 152.408 134.89C181.271 142.485 208.321 132.991 218.238 127.294L278.371 150.714C273.096 157.466 262.04 176.54 260.015 198.821C257.989 221.101 268.876 273.09 274.573 296.299C277.527 330.058 283.815 402.387 285.334 421.629C286.853 440.872 293.984 517.842 297.36 553.922H114.43C114.219 533.666 113.67 488.218 113.164 468.469C112.657 448.721 116.75 385.549 118.86 356.432L125.19 285.539C123.924 275.622 121.392 253.763 121.392 245.661C121.392 235.536 115.066 197.578 113.165 186.172L113.163 186.161C111.644 177.046 111.686 163.796 111.897 158.31C128.355 152.613 146.078 141.219 148.61 139.954Z" fill="white" stroke="black"/>
<path d="M96.7064 172.237C100.251 166.667 108.311 160.632 111.898 158.312C111.898 165.907 112.025 181.605 112.531 183.631C113.164 186.163 116.329 203.886 116.962 208.95C117.468 213.001 120.127 234.691 121.393 245.03C120.886 243.51 118.65 246.085 117.595 247.562C116.329 262.753 104.935 283.008 104.302 284.274C103.669 285.54 104.935 290.604 103.669 294.402C102.404 298.2 85.9461 308.96 83.4142 308.327C80.8822 307.695 70.1213 296.301 68.8553 281.742C67.8426 270.096 72.2312 249.038 74.5521 239.966C80.4599 219.71 93.1617 177.807 96.7064 172.237Z" fill="white" stroke="black"/>
<path d="M46.7016 220.976C36.5739 233.129 28.9782 232.369 26.4463 230.47C39.7388 258.321 66.9569 297.566 72.0208 303.263C77.0846 308.96 79.6165 308.327 84.0473 308.327C88.4782 308.327 96.7069 300.731 101.138 297.566C105.569 294.401 104.303 287.438 103.67 284.907C103.037 282.375 82.1484 251.992 81.5154 250.093C81.0091 248.574 74.7979 237.608 71 233.177C67.9617 217.986 60.6271 204.096 58.0952 198.188C58.5172 200.72 56.8293 208.823 46.7016 220.976Z" fill="white"/>
<path d="M103.67 284.907C104.303 287.438 105.569 294.401 101.138 297.566C96.7069 300.731 88.4782 308.327 84.0473 308.327C79.6165 308.327 77.0846 308.96 72.0208 303.263C66.9569 297.566 39.7388 258.321 26.4463 230.47C28.9782 232.369 36.5739 233.129 46.7016 220.976C56.8293 208.823 58.5172 200.72 58.0952 198.188C60.6271 204.096 67.9617 217.986 71 233.177C74.7979 237.608 81.0091 248.574 81.5154 250.093C81.9165 251.296 90.4488 263.934 96.8086 273.677" stroke="black"/>
<path d="M180.893 220.976L177.729 146.918C183.299 147.93 191.443 145.652 194.819 144.386L200.516 230.471V335.545L191.021 341.242L180.893 335.545V220.976Z" fill="white" stroke="black"/>
<path d="M284.07 158.943C282.024 154.596 279.217 150.925 278.373 150.081C264.701 168.311 260.016 192.702 259.384 202.618C259.173 208.315 258.877 220.975 259.384 226.038C259.89 231.102 261.493 239.331 263.814 243.129L251.155 239.331C254.32 249.459 258.751 257.054 258.751 269.714C258.751 282.374 254.32 289.336 249.256 294.4L287.235 296.932C289.767 296.721 297.362 295.033 307.49 289.969C317.618 284.906 319.306 267.604 318.884 259.586L310.022 222.874C301.582 203.251 289.134 169.703 284.07 158.943Z" fill="white" stroke="black"/>
<path d="M156.209 109.572C152.664 104.508 144.604 85.5189 141.017 76.6572C138.485 105.521 147.98 127.929 153.044 135.524C155.576 128.983 159.753 114.636 156.209 109.572Z" fill="#DBDBDB" stroke="black"/>
<path d="M158.741 138.054L156.209 108.937L207.48 99.4424L209.379 130.458L158.741 138.054Z" fill="#F0F0F0" stroke="black"/>
<path d="M213.863 49.807C216.742 73.5984 201.561 94.9207 180.066 97.5225C158.57 100.124 138.74 83.0399 135.86 59.2485C132.98 35.457 148.161 14.1348 169.657 11.5329C191.153 8.93104 210.983 26.0155 213.863 49.807Z" fill="black" stroke="black"/>
<path d="M208.114 101.976C210.139 88.8105 213.177 69.4836 214.443 61.4658C216.469 63.4914 224.149 91.4268 227.736 105.141L214.443 124.131C212.544 119.911 208.62 110.585 208.114 107.04C207.607 103.496 207.903 102.187 208.114 101.976Z" fill="#DBDBDB" stroke="black"/>
<path d="M227.735 105.14C214.569 92.4804 212.122 79.1879 212.544 74.124C211.278 80.2428 208.619 94.5059 208.113 102.608C207.606 110.71 212.121 120.331 214.442 124.129L227.735 105.14Z" fill="#DBDBDB" stroke="black"/>
<path d="M218.373 70.9599C218.373 74.9101 217.467 78.4617 216.028 81.0083C214.58 83.57 212.657 85.0184 210.645 85.0184C208.632 85.0184 206.709 83.57 205.261 81.0083C203.822 78.4617 202.916 74.9101 202.916 70.9599C202.916 67.0097 203.822 63.458 205.261 60.9115C206.709 58.3497 208.632 56.9014 210.645 56.9014C212.657 56.9014 214.58 58.3497 216.028 60.9115C217.467 63.458 218.373 67.0097 218.373 70.9599Z" fill="#F0F0F0" stroke="black"/>
<path d="M218.374 69.6945C218.374 71.9113 217.958 73.8939 217.308 75.3036C216.637 76.7558 215.812 77.4233 215.076 77.4233C214.34 77.4233 213.515 76.7558 212.845 75.3036C212.194 73.8939 211.778 71.9113 211.778 69.6945C211.778 67.4778 212.194 65.4952 212.845 64.0855C213.515 62.6333 214.34 61.9658 215.076 61.9658C215.812 61.9658 216.637 62.6333 217.308 64.0855C217.958 65.4952 218.374 67.4778 218.374 69.6945Z" fill="black" stroke="black"/>
<path d="M151.41 81.0624C151.812 84.9922 151.271 88.6175 150.099 91.2972C148.919 93.9929 147.153 95.6293 145.151 95.834C143.149 96.0387 141.089 94.7933 139.388 92.3921C137.697 90.0051 136.434 86.5641 136.033 82.6343C135.631 78.7046 136.171 75.0793 137.344 72.3995C138.524 69.7038 140.289 68.0674 142.292 67.8627C144.294 67.6581 146.354 68.9034 148.055 71.3046C149.746 73.6916 151.008 77.1327 151.41 81.0624Z" fill="#F0F0F0" stroke="black"/>
<path d="M142.749 79.3407C142.969 81.5008 142.731 83.4764 142.191 84.9186C141.638 86.3933 140.839 87.1569 140.029 87.2396C139.22 87.3223 138.283 86.7363 137.443 85.4039C136.622 84.1009 135.989 82.2143 135.768 80.0542C135.548 77.894 135.786 75.9184 136.326 74.4762C136.879 73.0016 137.678 72.2379 138.488 72.1552C139.297 72.0725 140.234 72.6585 141.074 73.9909C141.895 75.2939 142.528 77.1805 142.749 79.3407Z" fill="black" stroke="black"/>
<path d="M210.172 64.429C212.083 80.2234 210.02 94.9573 205.163 106.006C200.301 117.066 192.688 124.346 183.538 125.453C174.389 126.561 165.259 121.308 157.899 111.727C150.546 102.156 145.027 88.3401 143.115 72.5457C141.203 56.7513 143.267 42.0173 148.124 30.9688C152.985 19.9085 160.598 12.629 169.748 11.5215C178.898 10.414 188.027 15.667 195.388 25.2479C202.74 34.8186 208.26 48.6346 210.172 64.429Z" fill="#F0F0F0" stroke="black"/>
<path d="M221.405 82.3539C217.861 66.656 210.223 52.6039 206.847 47.54C210.012 48.806 232.799 70.3273 235.331 74.7581C237.863 79.189 234.698 85.5188 233.432 89.3166C232.166 93.1145 231.533 95.0134 227.735 104.508C227.102 103.664 224.95 98.0517 221.405 82.3539Z" fill="#DBDBDB" stroke="black"/>
<path d="M168.235 11.4586C137.852 17.0288 129.412 43.3185 128.99 55.7671C131.522 52.6021 137.219 48.8043 144.182 48.1713C154.468 47.2362 167.813 50.7032 173.299 53.2351C177.308 49.4373 187.098 41.3351 194.187 39.3096C201.276 37.2841 211.91 43.5295 216.341 46.9054C212.965 32.7688 198.618 5.88834 168.235 11.4586Z" fill="#DBDBDB" stroke="black"/>
<path d="M208.574 23.5239C208.979 25.4421 208.371 27.5362 206.807 29.7119C205.244 31.8879 202.755 34.0991 199.505 36.2116C193.009 40.4345 183.563 44.2034 172.709 46.4953C161.856 48.7873 151.693 49.159 144.043 47.9231C140.217 47.3049 137.047 46.2887 134.737 44.9307C132.427 43.5728 131.024 41.9033 130.619 39.9851C130.214 38.0669 130.822 35.9728 132.386 33.7971C133.949 31.6211 136.438 29.4099 139.688 27.2974C146.184 23.0745 155.63 19.3056 166.484 17.0137C177.338 14.7217 187.501 14.35 195.15 15.5858C198.976 16.2041 202.147 17.2203 204.456 18.5783C206.766 19.9361 208.169 21.6056 208.574 23.5239Z" fill="black" stroke="#333333"/>
<path d="M204.892 20.2494C205.267 22.0036 204.699 23.933 203.226 25.9525C201.752 27.9717 199.407 30.0314 196.343 32.006C190.218 35.953 181.314 39.4999 171.085 41.6898C160.855 43.8796 151.279 44.2885 144.075 43.1948C140.471 42.6476 137.488 41.7285 135.318 40.4894C133.147 39.2501 131.838 37.7224 131.463 35.9682C131.087 34.2139 131.655 32.2845 133.129 30.265C134.602 28.2459 136.948 26.1861 140.012 24.2116C146.136 20.2646 155.04 16.7177 165.27 14.5278C175.5 12.3379 185.075 11.929 192.279 13.0228C195.883 13.5699 198.866 14.4891 201.037 15.7282C203.208 16.9675 204.516 18.4951 204.892 20.2494Z" fill="black" stroke="#333333"/>
<ellipse cx="167.779" cy="24.7777" rx="30.7885" ry="11.0504" transform="rotate(-12.1795 167.779 24.7777)" fill="#DBDBDB"/>
<path d="M235.33 75.3909C228.747 64.2504 207.69 47.5398 197.984 40.577C212.543 38.6781 225.202 51.3377 228.367 53.8696C230.899 55.8951 234.064 69.0611 235.33 75.3909Z" fill="#DBDBDB" stroke="black"/>
<circle cx="191.022" cy="61.4645" r="2.53191" fill="black"/>
<circle cx="161.906" cy="66.529" r="2.53191" fill="black"/>
<path d="M166.337 57.0342L167.603 60.1991C163.805 60.4101 155.703 60.9586 153.677 61.465C151.652 61.9714 149.457 64.2079 148.613 65.2629C149.457 63.364 151.525 59.3129 153.044 58.3001C154.563 57.2874 162.539 57.0342 166.337 57.0342Z" fill="black" stroke="black"/>
<path d="M178.362 54.5014V58.2992C182.16 57.0333 190.389 54.3748 192.921 53.8684C195.453 53.3621 199.884 54.9234 201.783 55.7673C200.728 54.2904 197.985 51.2099 195.453 50.7035C192.921 50.1971 183.004 53.0244 178.362 54.5014Z" fill="black" stroke="black"/>
<path d="M184.061 130.459C171.401 131.792 156.632 120.754 155.577 117.167L153.678 134.89C156.843 139.532 167.35 148.436 184.061 146.917C200.771 145.398 212.123 133.624 215.71 127.927L208.747 110.837C206.721 121.977 196.72 129.127 184.061 130.459Z" fill="white" stroke="black"/>
<path d="M179.63 222.874L190.39 207.05L187 243.177L182.162 249.459L181.529 259.587C176.971 257.562 174.566 253.257 173.933 251.358C169.375 239.205 175.832 227.305 179.63 222.874Z" fill="#DBDBDB" stroke="black"/>
<path d="M240.216 125.368C240.233 125.103 240.302 124.9 240.394 124.763C240.338 124.954 240.279 125.156 240.216 125.368C240.155 126.323 240.784 128.081 243.559 130.46C247.103 133.498 253.475 138.055 256.218 139.954C259.805 139.954 267.738 140.84 270.777 144.385C273.815 147.93 277.106 149.66 278.372 150.082L222.67 208.316C214.442 216.545 195.602 235.075 187.5 243.177C187.711 238.957 189.755 227.812 194.819 217.178C199.883 206.544 209.589 193.335 213.809 188.061C217.395 180.887 225.709 163.881 230.266 153.247C234.652 143.014 238.608 130.788 240.216 125.368Z" fill="#DBDBDB"/>
<path d="M240.394 124.763C239.972 125.396 240.014 127.421 243.559 130.46C247.103 133.498 253.475 138.055 256.218 139.954C259.805 139.954 267.738 140.84 270.777 144.385C273.815 147.93 277.106 149.66 278.372 150.082L222.67 208.316C214.442 216.545 195.602 235.075 187.5 243.177C187.711 238.957 189.755 227.812 194.819 217.178C199.883 206.544 209.589 193.335 213.809 188.061C217.395 180.887 225.709 163.881 230.266 153.247C234.823 142.613 238.917 129.827 240.394 124.763Z" stroke="black"/>
<path d="M230.9 109.571C230.9 107.04 230.056 103.031 229.634 101.343C227.101 107.673 228.368 101.343 214.442 124.763C200.517 148.183 204.315 159.577 204.947 164.008C205.454 167.552 207.69 173.502 208.745 176.034C211.066 167.384 216.341 148.31 218.873 141.22C222.038 132.359 230.9 112.736 230.9 109.571Z" fill="#DBDBDB" stroke="black"/>
<path d="M234.065 111.471C232.04 109.446 231.111 106.829 230.9 105.774C230.9 107.251 230.774 110.965 230.267 114.003C229.761 117.041 223.726 130.883 220.772 137.423C217.186 149.239 209.632 173.63 208.113 176.668C206.214 180.466 194.187 191.86 191.655 201.987C189.63 210.089 187.858 232.792 187.225 243.131C189.757 220.977 204.315 200.088 213.177 188.062C222.038 176.035 236.597 135.524 239.762 126.663C242.927 117.801 236.597 114.003 234.065 111.471Z" fill="#DBDBDB" stroke="black"/>
<path d="M141.651 100.076C140.638 90.4551 141.229 68.2165 141.651 58.2998C135.322 62.0977 128.358 74.1243 129.624 81.72C130.637 87.7966 138.064 96.4895 141.651 100.076Z" fill="#DBDBDB" stroke="black"/>
<path d="M141.65 58.3007C153.803 48.6794 167.813 51.3379 173.299 53.8698C154.943 44.3752 135.321 46.9071 128.358 56.4017C122.788 63.9975 127.303 77.29 130.257 82.9868C128.991 78.767 129.497 67.922 141.65 58.3007Z" fill="#DBDBDB" stroke="black"/>
<path d="M197.352 34.2476C191.41 36.2283 178.785 47.5401 173.299 53.2369C177.097 50.0721 183.68 42.6029 197.352 40.5774C211.024 38.5518 224.148 49.4391 229.001 55.1359C223.304 43.7423 211.278 32.3487 210.645 32.3487C210.012 32.3487 206.847 31.0827 197.352 34.2476Z" fill="#DBDBDB" stroke="black"/>
<path d="M170.767 84.2516C173.088 85.5176 178.109 87.9229 179.628 87.4165C181.147 86.9102 185.325 83.4077 187.224 81.7197" stroke="black"/>
<path d="M156.842 92.4804C152.285 89.9484 146.925 84.2516 144.815 81.7197C149.373 106.532 164.016 119.487 170.768 122.863C170.135 119.276 167.856 111.217 163.805 107.672C159.754 104.127 157.475 96.0672 156.842 92.4804Z" fill="black" stroke="black"/>
<path d="M203.05 84.885C206.088 82.3531 209.379 75.8123 210.645 72.8584C211.658 97.6712 202.206 113.158 197.353 117.8C196.931 116.112 196.846 111.217 199.885 105.14C202.923 99.0637 203.261 89.1049 203.05 84.885Z" fill="black" stroke="black"/>
<path d="M189.124 112.103C185.073 112.609 184.06 107.672 184.06 105.773L178.996 106.406C180.262 109.571 179.629 113.843 176.464 114.634C172.666 115.584 168.811 111.47 168.235 108.938L171.4 122.863C173.721 123.707 179.502 125.902 184.06 125.395C188.617 124.889 194.609 120.331 196.719 118.432V104.507C195.875 106.406 193.175 111.596 189.124 112.103Z" fill="black" stroke="black"/>
<path d="M194.821 90.5811L165.704 95.5923C167.392 100.395 173.3 106.392 182.162 105.14C191.656 103.797 194.399 94.1307 194.821 90.5811Z" stroke="black"/>
<path d="M194.821 90.5811L165.704 95.5923C166.337 98.1768 174.566 100.971 180.896 100.076C190.39 98.7334 194.821 93.113 194.821 90.5811Z" fill="black" stroke="black"/>
<path d="M192.289 91.2139L169.502 95.0117C170.135 97.5963 174.566 100.97 180.896 100.076C190.39 98.7333 192.289 93.7458 192.289 91.2139Z" fill="white" stroke="black"/>
<path d="M178.995 93.7466V88.0498C173.298 88.2608 161.525 89.4424 160.006 92.4807C158.487 95.519 164.226 104.085 167.602 107.672C166.336 104.085 164.563 96.1519 165.069 95.6455C165.576 95.1392 174.775 94.1686 178.995 93.7466Z" fill="black" stroke="black"/>
<path d="M189.123 76.6572C191.655 78.3452 196.972 82.2274 197.985 84.253C198.998 86.2785 197.774 97.1235 197.352 101.976" stroke="black"/>
<path d="M197.985 84.2525C196.973 82.2269 185.326 85.9404 179.629 88.0503V93.7471C183.005 92.9031 192.795 90.5822 194.82 90.5822C196.846 90.5822 197.352 98.1779 197.352 101.976C197.985 96.912 198.998 86.278 197.985 84.2525Z" fill="black" stroke="black"/>
<path d="M166.337 83.6182C163.805 86.1501 160.007 90.5809 160.007 93.1128C160.007 95.6448 164.227 103.451 166.97 107.038" stroke="black"/>
<path d="M171.4 60.8311C172.244 61.464 173.932 63.1098 173.932 64.6289C173.932 66.1481 173.51 75.8115 173.299 80.4534" stroke="black"/>
<path d="M183.427 62.7305C185.537 60.1511 191.529 56.302 198.618 61.54" stroke="black"/>
<path d="M154.31 68.4273C155.998 65.8954 161.526 61.8443 170.134 65.8954" stroke="black"/>
<path d="M177.095 146.918V130.46C182.159 131.98 190.176 129.827 193.552 128.562L194.818 144.386C191.273 145.905 181.526 146.707 177.095 146.918Z" fill="white" stroke="black"/>
<path d="M276.473 246.294C283.857 246.505 299.26 247.054 301.792 247.56C304.324 248.066 307.067 249.881 308.122 250.725" stroke="black"/>
<path d="M264.446 243.129C268.455 243.973 276.726 244.142 277.739 238.065" stroke="black"/>
<path d="M259.384 208.949C259.384 202.409 259.384 186.415 259.384 174.769" stroke="black"/>
<path d="M259.383 208.317C259.172 202.831 263.181 186.795 280.904 166.54" stroke="black"/>
<path d="M276.473 246.295C282.802 246.084 296.475 244.523 300.526 239.965C305.59 234.269 305.59 226.673 303.691 228.572C301.792 230.471 293.563 240.598 292.93 240.598" stroke="black"/>
<path d="M263.812 243.13C267.188 243.552 275.459 245.535 281.536 250.093" stroke="black"/>
<path d="M259.384 213.379C260.861 207.26 267.359 191.858 281.538 179.198" stroke="black"/>
<path d="M87.8447 259.587C89.1107 262.119 93.7947 268.322 102.403 272.879" stroke="black"/>
<path d="M86.5791 258.321C90.799 258.532 100.758 259.714 106.834 262.752" stroke="black"/>
<path d="M45.4365 222.875C60.4464 210.679 57.2521 203.675 58.0961 198.189C55.3532 196.079 47.2089 193.631 36.5748 200.721C25.9408 207.81 25.3922 223.508 26.4472 230.471C32.721 233.388 37.3344 229.458 45.4365 222.875Z" fill="#DBDBDB" stroke="black"/>
<path d="M59.9945 190.593C58.4753 193.631 58.0956 198.61 58.0956 200.72C60.6275 212.367 46.069 223.719 38.4732 227.938C37.2073 224.141 34.0424 215.785 31.5104 212.747C28.9785 209.709 19.906 197.555 15.6862 191.859C14.2092 190.593 10.8755 187.175 9.35638 183.63C7.83723 180.085 10.4113 176.245 11.8883 174.768C12.7323 173.502 14.6734 170.337 15.6862 167.805C16.6989 165.274 19.0619 163.797 20.1168 163.375C19.104 159.83 20.9608 156.834 22.0158 155.779C19.9902 152.741 22.0158 149.027 23.2817 147.55C24.3367 145.862 27.2062 143.119 30.2445 145.651C33.2828 148.183 30.2445 152.614 28.3456 154.513C34.0424 158.311 46.5753 166.54 51.1328 169.071C55.6902 171.603 57.6736 167.172 58.0956 164.641C60.4165 155.99 66.0711 139.701 70.1222 143.752C75.186 148.816 68.2232 165.274 66.3243 169.071C64.4253 172.869 61.8934 186.795 59.9945 190.593Z" fill="#F0F0F0" stroke="black"/>
<path d="M30.244 188.061C26.1929 186.541 24.3362 182.786 23.9142 181.098C23.2812 177.089 22.9014 168.059 26.4461 164.007C29.9908 159.956 39.3167 162.741 43.5365 164.64C43.9585 167.172 45.1823 172.996 46.7014 176.034C48.6004 179.832 44.8025 189.327 42.2706 189.96C39.7387 190.593 35.3078 189.96 30.244 188.061Z" fill="black" stroke="black"/>
<rect x="23.1741" y="113.31" width="36.9787" height="72.5407" rx="4.5" transform="rotate(-3.01946 23.1741 113.31)" fill="white" stroke="black"/>
<rect x="24.9583" y="110.984" width="36.9787" height="72.5407" rx="4.5" transform="rotate(-3.01946 24.9583 110.984)" fill="white" stroke="black"/>
<path d="M82.7812 251.991C85.5242 252.202 91.643 252.877 94.1749 253.89" stroke="black"/>
<path d="M120.127 237.433C118.861 234.057 114.684 225.913 108.101 220.343" stroke="black"/>
<path d="M113.798 215.911C110.633 211.902 103.417 203.252 99.8721 200.72" stroke="black"/>
<path d="M119.495 230.47C117.807 225.617 114.051 215.025 112.532 211.48C111.013 207.936 105.147 188.06 102.404 178.565" stroke="black"/>
<path d="M106.202 169.071C107.257 175.401 109.747 189.073 111.266 193.124C113.165 198.188 116.33 214.013 118.229 220.343C119.748 225.406 120.972 237.644 121.394 243.13" stroke="black"/>
<path d="M177.728 385.55L161.904 553.922H151.776L177.728 385.55Z" fill="black" stroke="black"/>
<path d="M261.914 391.247L278.372 553.923H220.771L234.696 426.694C235.329 439.353 237.608 465.685 241.659 469.736C245.71 473.787 256.85 419.098 261.914 391.247Z" fill="#F0F0F0" stroke="black"/>
<path d="M164.436 374.155L127.723 553.921H114.431L164.436 374.155Z" fill="#F0F0F0" stroke="black"/>
<path d="M258.749 274.147C260.269 261.487 254.319 246.085 251.154 239.966C248.2 243.131 241.532 253.258 238.494 268.45C235.456 283.641 243.136 292.503 247.356 295.035C250.521 293.347 257.23 286.806 258.749 274.147Z" fill="#DBDBDB" stroke="black"/>
<path d="M251.153 265.284C250.14 278.956 254.529 281.53 256.85 281.108C261.407 273.006 257.905 256.633 255.584 249.459C254.529 249.037 252.166 251.611 251.153 265.284Z" fill="black" stroke="black"/>
<path d="M245.457 226.04C245.963 228.572 249.466 236.8 251.154 240.598C258.75 255.283 259.382 269.504 258.749 274.779C257.484 274.779 254.445 274.906 252.42 275.412C249.888 276.045 245.457 278.577 240.393 279.21C235.329 279.843 229.632 279.21 220.771 278.577C211.909 277.944 209.377 276.678 209.377 274.146C209.377 272.121 210.643 270.348 211.276 269.715C208.955 269.504 204.313 268.196 204.313 264.652C204.313 261.107 206.845 260.221 208.111 260.221C205.79 259.588 201.148 257.436 201.148 253.891C201.148 250.346 205.79 248.194 208.111 247.561C206.001 247.561 201.781 246.675 201.781 243.13C201.781 238.699 203.047 238.699 204.313 237.433C205.579 236.167 218.239 234.902 220.771 234.902C222.796 234.902 227.945 233.636 230.265 233.003C234.063 227.939 229.632 217.811 230.265 213.38C230.898 208.949 237.861 200.088 242.925 198.822C246.976 197.809 247.989 201.776 247.989 203.886C246.301 205.785 242.672 210.342 241.659 213.38C240.393 217.178 244.824 222.875 245.457 226.04Z" fill="#F0F0F0" stroke="black"/>
<path d="M207.479 247.56L220.771 246.294" stroke="black"/>
<path d="M206.212 260.22L219.504 258.954" stroke="black"/>
<path d="M211.276 269.716H222.037" stroke="black"/>
<path d="M22.015 150.081C20.4959 153.12 21.804 155.145 22.648 155.778C23.7029 155.989 26.3192 156.031 28.3447 154.512C30.8766 152.613 33.4085 147.55 30.2436 145.651C27.0787 143.752 23.914 146.284 22.015 150.081Z" fill="#F0F0F0" stroke="black"/>
<path d="M22.0157 155.779C19.4838 157.298 20.1168 161.898 20.7497 164.008L35.3083 167.806C37.2073 168.228 41.3849 168.186 42.9041 164.641C44.4232 161.096 39.7392 158.522 37.2073 157.678C33.1984 156.412 24.5476 154.26 22.0157 155.779Z" fill="#F0F0F0" stroke="black"/>
<path d="M41.6372 168.438C35.7294 166.539 23.1542 162.868 20.1159 163.375C17.0776 163.881 14.6301 169.493 13.7861 172.236C17.584 171.603 34.6744 177.933 40.3712 176.667C44.9287 175.655 43.1141 170.759 41.6372 168.438Z" fill="#F0F0F0" stroke="black"/>
<path d="M8.72287 181.097C8.21649 183.629 12.7317 188.904 15.0527 191.225C22.1418 188.186 20.5386 184.051 18.8508 182.363C19.0618 181.941 20.6232 180.97 25.1806 180.464C30.8774 179.831 32.7763 177.932 33.4093 176.033C34.0423 174.134 32.7763 173.501 29.6115 172.868C26.4466 172.235 15.0529 172.235 13.787 172.235C12.521 172.235 9.35585 177.932 8.72287 181.097Z" fill="#F0F0F0"/>
<path d="M15.0527 191.225C12.7317 188.904 8.21649 183.629 8.72287 181.097C9.35585 177.932 12.521 172.235 13.787 172.235C15.0529 172.235 26.4466 172.235 29.6115 172.868C32.7763 173.501 34.0423 174.134 33.4093 176.033C32.7763 177.932 30.8774 179.831 25.1806 180.464C20.6232 180.97 19.0618 181.941 18.8508 182.363C19.7815 183.294 20.6865 184.969 20.1224 186.794" stroke="black"/>
<rect width="7.29044" height="2.23177" transform="matrix(-0.998921 0.0464509 0.0464509 0.998921 47.6387 126.069)" fill="#0063F5"/>
<path d="M44.9639 126.194L42.7345 126.298L43.1961 136.225L45.5306 138.381L44.9639 126.194Z" fill="#0063F5"/>
<path d="M43.1982 136.255L45.5313 138.381L50.4359 138.153L52.5615 135.819L43.1982 136.255Z" fill="#0052CC"/>
<path d="M49.668 121.655L52.001 123.781L52.5608 135.819L50.4351 138.153L49.668 121.655Z" fill="#0063F5"/>
<path d="M35.8008 124.534L37.9265 122.201L49.6678 121.655L52.0008 123.781L35.8008 124.534Z" fill="#0052CC"/>
<path d="M37.9268 122.202L35.8011 124.535L36.3609 136.574L38.6939 138.699L37.9268 122.202Z" fill="#0063F5"/>
<path d="M229.5 181.677C222.7 190.477 209 206.677 194 222.677C191 227.177 188.167 237.01 188 242.177L277.5 150.177C274.5 149.677 271.5 146.677 269 143.677C267.507 141.885 260.5 140.677 256.5 140.677C252 147.177 241 166.794 229.5 181.677Z" fill="#F0F0F0"/>
<path d="M113 476.177L222 476.177" stroke="black"/>
</g>
</svg>
