<svg width="111" height="33" viewBox="0 0 111 33" fill="none" xmlns="http://www.w3.org/2000/svg">
<rect width="17.338" height="3.6501" transform="matrix(-1 0 0 1 24.6382 8.18115)" fill="white"/>
<path d="M17.7943 11.8311H14.1442V29.1691L17.7943 32.8192V11.8311Z" fill="white"/>
<path d="M31.9384 29.1692L28.2883 32.8193L17.7943 32.8193L14.1442 29.1692L31.9384 29.1692Z" fill="#F0F0F0"/>
<path d="M28.2883 0.880859L31.9384 4.53096V29.1692L28.2883 32.8193V0.880859Z" fill="white"/>
<path d="M31.9384 4.53101L28.2883 0.880901L3.6501 0.880901L-5.72205e-06 4.53101L31.9384 4.53101Z" fill="#F0F0F0"/>
<path d="M3.6501 0.880859L-4.29153e-06 4.53096V29.1692L3.6501 32.8193V0.880859Z" fill="white"/>
<path d="M51.1349 24.4548H52.9089V32.6675H51.1349V31.4849C50.467 32.4157 49.5088 32.8811 48.2605 32.8811C47.1326 32.8811 46.169 32.465 45.3696 31.6327C44.5702 30.7896 44.1705 29.7657 44.1705 28.5612C44.1705 27.3457 44.5702 26.3218 45.3696 25.4896C46.169 24.6574 47.1326 24.2413 48.2605 24.2413C49.5088 24.2413 50.467 24.7012 51.1349 25.621V24.4548ZM46.6836 30.4501C47.1764 30.9429 47.7951 31.1892 48.5397 31.1892C49.2843 31.1892 49.903 30.9429 50.3958 30.4501C50.8885 29.9464 51.1349 29.3167 51.1349 28.5612C51.1349 27.8056 50.8885 27.1814 50.3958 26.6887C49.903 26.185 49.2843 25.9331 48.5397 25.9331C47.7951 25.9331 47.1764 26.185 46.6836 26.6887C46.1909 27.1814 45.9445 27.8056 45.9445 28.5612C45.9445 29.3167 46.1909 29.9464 46.6836 30.4501Z" fill="white"/>
<path d="M63.9449 24.2413C64.8757 24.2413 65.6257 24.5424 66.1952 25.1447C66.7646 25.7469 67.0493 26.5573 67.0493 27.5756V32.6675H65.2753V27.6906C65.2753 27.1212 65.133 26.6832 64.8483 26.3766C64.5636 26.059 64.1748 25.9002 63.6821 25.9002C63.1346 25.9002 62.6965 26.0809 62.368 26.4423C62.0505 26.8036 61.8917 27.3457 61.8917 28.0684V32.6675H60.1177V27.6906C60.1177 27.1212 59.9809 26.6832 59.7071 26.3766C59.4443 26.059 59.0665 25.9002 58.5737 25.9002C58.0372 25.9002 57.5992 26.0864 57.2597 26.4587C56.9202 26.8201 56.7505 27.3566 56.7505 28.0684V32.6675H54.9766V24.4548H56.7505V25.4403C57.2761 24.641 58.0591 24.2413 59.0994 24.2413C60.1506 24.2413 60.9281 24.6738 61.4318 25.5389C61.9793 24.6738 62.817 24.2413 63.9449 24.2413Z" fill="white"/>
<path d="M75.4523 24.4548H77.2263V32.6675H75.4523V31.4849C74.7844 32.4157 73.8262 32.8811 72.5779 32.8811C71.45 32.8811 70.4864 32.465 69.687 31.6327C68.8876 30.7896 68.4879 29.7657 68.4879 28.5612C68.4879 27.3457 68.8876 26.3218 69.687 25.4896C70.4864 24.6574 71.45 24.2413 72.5779 24.2413C73.8262 24.2413 74.7844 24.7012 75.4523 25.621V24.4548ZM71.001 30.4501C71.4938 30.9429 72.1125 31.1892 72.8571 31.1892C73.6017 31.1892 74.2204 30.9429 74.7132 30.4501C75.2059 29.9464 75.4523 29.3167 75.4523 28.5612C75.4523 27.8056 75.2059 27.1814 74.7132 26.6887C74.2204 26.185 73.6017 25.9331 72.8571 25.9331C72.1125 25.9331 71.4938 26.185 71.001 26.6887C70.5083 27.1814 70.2619 27.8056 70.2619 28.5612C70.2619 29.3167 70.5083 29.9464 71.001 30.4501Z" fill="white"/>
<path d="M88.755 24.4548H90.6275L88.0487 32.6675H86.3076L84.5994 27.1322L82.8747 32.6675H81.1336L78.5548 24.4548H80.4273L82.0206 30.1216L83.7453 24.4548H85.4371L87.1453 30.1216L88.755 24.4548Z" fill="white"/>
<path d="M98.1176 24.4548H99.8915V32.6675H98.1176V31.4849C97.4496 32.4157 96.4914 32.8811 95.2431 32.8811C94.1152 32.8811 93.1516 32.465 92.3522 31.6327C91.5528 30.7896 91.1532 29.7657 91.1532 28.5612C91.1532 27.3457 91.5528 26.3218 92.3522 25.4896C93.1516 24.6574 94.1152 24.2413 95.2431 24.2413C96.4914 24.2413 97.4496 24.7012 98.1176 25.621V24.4548ZM93.6663 30.4501C94.159 30.9429 94.7777 31.1892 95.5223 31.1892C96.267 31.1892 96.8856 30.9429 97.3784 30.4501C97.8712 29.9464 98.1176 29.3167 98.1176 28.5612C98.1176 27.8056 97.8712 27.1814 97.3784 26.6887C96.8856 26.185 96.267 25.9331 95.5223 25.9331C94.7777 25.9331 94.159 26.185 93.6663 26.6887C93.1735 27.1814 92.9271 27.8056 92.9271 28.5612C92.9271 29.3167 93.1735 29.9464 93.6663 30.4501Z" fill="white"/>
<path d="M101.922 32.6675V21.1849L103.747 20.6526V32.6588L101.922 32.6675Z" fill="white"/>
<path d="M45.0094 21.2609V23.0442H41.8405V32.6089H39.9906V23.0442H36.8056V21.2609H45.0094Z" fill="white"/>
<path d="M101.921 4.53149H103.746V6.05237L101.921 6.58468V4.53149Z" fill="white"/>
<path d="M98.5751 4.53149H100.4V6.05237L98.5751 6.58468V4.53149Z" fill="white"/>
<path fill-rule="evenodd" clip-rule="evenodd" d="M101.921 13.2005V8.40975L103.746 7.87744V13.2005C103.746 14.3765 102.793 15.3297 101.617 15.3297H98.699C98.1343 15.3297 97.5927 15.1054 97.1934 14.7061L96.333 13.8458L97.6235 12.5553L98.4839 13.4156C98.5409 13.4726 98.6183 13.5047 98.699 13.5047H101.617C101.785 13.5047 101.921 13.3685 101.921 13.2005Z" fill="white"/>
<path fill-rule="evenodd" clip-rule="evenodd" d="M52.0365 15.6339V14.4172H53.8615V15.6339C53.8615 17.4818 52.3635 18.9799 50.5156 18.9799H47.702L47.1696 17.1548H50.5156C51.3555 17.1548 52.0365 16.4739 52.0365 15.6339Z" fill="white"/>
<path fill-rule="evenodd" clip-rule="evenodd" d="M43.2152 14.9618V0.881348H45.0402V14.9618C45.0402 17.1809 43.2413 18.9798 41.0222 18.9798C39.6622 18.9798 38.3945 18.2918 37.6534 17.1516L37.5246 16.9535C36.7855 15.8165 36.6048 14.4047 37.0337 13.1182L37.9682 10.615H39.8693L38.7651 13.6953C38.512 14.4546 38.6186 15.2878 39.0548 15.9588L39.1836 16.1569C39.5881 16.7793 40.28 17.1547 41.0222 17.1547C42.2333 17.1547 43.2152 16.1729 43.2152 14.9618Z" fill="white"/>
<path fill-rule="evenodd" clip-rule="evenodd" d="M91.2288 12.5647L90.4051 13.4125C90.3479 13.4715 90.2692 13.5047 90.187 13.5047H52.7968V15.3298H90.187C90.7623 15.3298 91.3132 15.0969 91.7141 14.6843L92.5378 13.8364L91.2288 12.5647Z" fill="white"/>
<rect x="98.5751" y="0.881348" width="5.17098" height="1.82505" fill="white"/>
<path fill-rule="evenodd" clip-rule="evenodd" d="M48.6753 0.881348V2.47827C48.6753 2.80011 48.9491 3.00923 49.2228 3.00923C49.4966 3.00923 49.7703 2.80011 49.7703 2.47827V1.29959L51.276 0.881348V2.47827C51.276 3.61847 50.319 4.54278 49.2228 4.54278C48.1267 4.54278 47.1696 3.61847 47.1696 2.47827V0.881348H48.6753Z" fill="white"/>
<path fill-rule="evenodd" clip-rule="evenodd" d="M51.2609 0.881348L51.2608 2.47962C51.2608 2.80146 51.5254 3.01058 51.8083 3.01058C52.0913 3.01058 52.3558 2.80146 52.3558 2.47962L52.3559 1.29959L53.8616 0.881348L53.8615 2.47962C53.8615 3.61981 52.9045 4.54413 51.8083 4.54413C50.7122 4.54413 49.7551 3.61981 49.7551 2.47962L49.7552 1.29959L51.2609 0.881348Z" fill="white"/>
<path fill-rule="evenodd" clip-rule="evenodd" d="M91.1228 10.9192C91.1228 9.07127 92.6209 7.57324 94.4688 7.57324C96.3167 7.57324 97.8147 9.07127 97.8147 10.9192V11.9838C97.8147 13.8317 96.3167 15.3297 94.4688 15.3297C92.6209 15.3297 91.1228 13.8317 91.1228 11.9838V10.9192ZM94.4688 9.39829C93.6288 9.39829 92.9479 10.0792 92.9479 10.9192V11.9838C92.9479 12.8237 93.6288 13.5047 94.4688 13.5047C95.3087 13.5047 95.9897 12.8237 95.9897 11.9838V10.9192C95.9897 10.0792 95.3087 9.39829 94.4688 9.39829Z" fill="white"/>
<path fill-rule="evenodd" clip-rule="evenodd" d="M47.1696 10.9192C47.1696 9.07127 48.6677 7.57324 50.5156 7.57324C52.3635 7.57324 53.8615 9.07127 53.8615 10.9192V15.3297H50.5156C48.6677 15.3297 47.1696 13.8317 47.1696 11.9838V10.9192ZM50.5156 9.39829C49.6756 9.39829 48.9947 10.0792 48.9947 10.9192V11.9838C48.9947 12.8237 49.6756 13.5047 50.5156 13.5047H52.0365V10.9192C52.0365 10.0792 51.3555 9.39829 50.5156 9.39829Z" fill="white"/>
<path fill-rule="evenodd" clip-rule="evenodd" d="M41.6119 3.69497C41.6119 5.0473 40.5156 6.14358 39.1632 6.14358C37.8109 6.14358 36.7146 5.0473 36.7146 3.69497C36.7146 2.34264 37.8109 1.24636 39.1632 1.24636C40.5156 1.24636 41.6119 2.34264 41.6119 3.69497ZM41.9769 3.69497C41.9769 5.24889 40.7172 6.50859 39.1632 6.50859C37.6093 6.50859 36.3496 5.24889 36.3496 3.69497C36.3496 2.14105 37.6093 0.881348 39.1632 0.881348C40.7172 0.881348 41.9769 2.14105 41.9769 3.69497ZM39.2429 4.02652L39.7832 4.9573H40.2431L39.6627 3.96447C39.8136 3.90364 39.9352 3.8063 40.0277 3.67246C40.1226 3.53619 40.1701 3.38654 40.1701 3.2235C40.1701 2.99476 40.0898 2.8013 39.9292 2.64313C39.771 2.48253 39.5775 2.40222 39.3488 2.40222H38.3268V4.9573H38.7465V4.02652H39.2429ZM38.7465 3.65056V2.79644H39.3488C39.4607 2.79644 39.5556 2.8378 39.6335 2.92054C39.7114 3.00328 39.7503 3.10426 39.7503 3.2235C39.7503 3.34274 39.7114 3.44372 39.6335 3.52646C39.5556 3.60919 39.4607 3.65056 39.3488 3.65056H38.7465Z" fill="white"/>
<path fill-rule="evenodd" clip-rule="evenodd" d="M110.203 22.2494C110.203 23.6017 109.107 24.698 107.754 24.698C106.402 24.698 105.306 23.6017 105.306 22.2494C105.306 20.8971 106.402 19.8008 107.754 19.8008C109.107 19.8008 110.203 20.8971 110.203 22.2494ZM110.568 22.2494C110.568 23.8033 109.308 25.063 107.754 25.063C106.201 25.063 104.941 23.8033 104.941 22.2494C104.941 20.6955 106.201 19.4358 107.754 19.4358C109.308 19.4358 110.568 20.6955 110.568 22.2494ZM107.834 22.5811L108.374 23.5119H108.834L108.254 22.5191C108.405 22.4582 108.527 22.3609 108.619 22.2271C108.714 22.0908 108.761 21.9411 108.761 21.7781C108.761 21.5494 108.681 21.3559 108.52 21.1977C108.362 21.0371 108.169 20.9568 107.94 20.9568H106.918V23.5119H107.338V22.5811H107.834ZM107.338 22.2052V21.351H107.94C108.052 21.351 108.147 21.3924 108.225 21.4751C108.303 21.5579 108.342 21.6589 108.342 21.7781C108.342 21.8973 108.303 21.9983 108.225 22.0811C108.147 22.1638 108.052 22.2052 107.94 22.2052H107.338Z" fill="white"/>
</svg>
