<svg width="97" height="96" viewBox="0 0 97 96" fill="none" xmlns="http://www.w3.org/2000/svg">
<path fill-rule="evenodd" clip-rule="evenodd" d="M26.7728 47.1248L31.9807 51.8118C32.4376 52.2231 32.68 52.8216 32.6381 53.4349L32.6028 53.9507C32.7204 54.31 32.7717 54.7001 32.7414 55.1075L30.5601 84.4341C30.2564 88.5179 27.234 91.8818 23.2058 92.6194L10.3921 94.9656C10.2603 94.9897 10.1295 95.0049 10.0001 95.0117L9.03972 95.1863C8.4446 95.2945 7.83249 95.1275 7.37471 94.7322L1.56387 89.7137C1.07416 89.2908 0.819322 88.6571 0.879889 88.0129L3.79428 57.0143C4.17571 52.9574 7.23533 49.6628 11.253 48.9829L25.1012 46.6394C25.7033 46.5375 26.3189 46.7163 26.7728 47.1248Z" fill="#D0D5DD"/>
<path d="M31.9807 51.8118L32.3152 51.4402L31.9807 51.8118ZM26.7728 47.1248L26.4383 47.4964V47.4964L26.7728 47.1248ZM32.6381 53.4349L32.1393 53.4008V53.4008L32.6381 53.4349ZM32.6028 53.9507L32.104 53.9166C32.0996 53.9807 32.1076 54.0451 32.1276 54.1062L32.6028 53.9507ZM32.7414 55.1075L32.2428 55.0704V55.0704L32.7414 55.1075ZM30.5601 84.4341L30.0615 84.397L30.5601 84.4341ZM23.2058 92.6194L23.2959 93.1112L23.2058 92.6194ZM10.3921 94.9656L10.4821 95.4574H10.4821L10.3921 94.9656ZM10.0001 95.0117L9.97399 94.5123C9.95275 94.5135 9.9316 94.5159 9.91068 94.5197L10.0001 95.0117ZM9.03972 95.1863L9.12916 95.6782H9.12916L9.03972 95.1863ZM7.37471 94.7322L7.0479 95.1106H7.0479L7.37471 94.7322ZM1.56387 89.7137L1.89068 89.3353H1.89068L1.56387 89.7137ZM0.879889 88.0129L0.382085 87.9661L0.879889 88.0129ZM3.79428 57.0143L3.29648 56.9675L3.79428 57.0143ZM11.253 48.9829L11.3365 49.4759L11.253 48.9829ZM25.1012 46.6394L25.0177 46.1464L25.1012 46.6394ZM32.3152 51.4402L27.1073 46.7531L26.4383 47.4964L31.6462 52.1835L32.3152 51.4402ZM33.1369 53.469C33.1894 52.7024 32.8863 51.9542 32.3152 51.4402L31.6462 52.1835C31.9889 52.4919 32.1707 52.9408 32.1393 53.4008L33.1369 53.469ZM33.1017 53.9848L33.1369 53.469L32.1393 53.4008L32.104 53.9166L33.1017 53.9848ZM33.2401 55.1446C33.2753 54.6713 33.2157 54.2158 33.078 53.7952L32.1276 54.1062C32.2251 54.4042 32.2682 54.7289 32.2428 55.0704L33.2401 55.1446ZM31.0587 84.4712L33.2401 55.1446L32.2428 55.0704L30.0615 84.397L31.0587 84.4712ZM23.2959 93.1112C27.5478 92.3327 30.7381 88.7819 31.0587 84.4712L30.0615 84.397C29.7746 88.254 26.9201 91.431 23.1158 92.1275L23.2959 93.1112ZM10.4821 95.4574L23.2959 93.1112L23.1158 92.1275L10.302 94.4737L10.4821 95.4574ZM10.0263 95.511C10.1771 95.5031 10.3293 95.4854 10.4821 95.4574L10.302 94.4737C10.1914 94.494 10.0819 94.5067 9.97399 94.5123L10.0263 95.511ZM9.12916 95.6782L10.0896 95.5036L9.91068 94.5197L8.95027 94.6943L9.12916 95.6782ZM7.0479 95.1106C7.62012 95.6048 8.38526 95.8135 9.12916 95.6782L8.95028 94.6943C8.50394 94.7755 8.04485 94.6503 7.70152 94.3538L7.0479 95.1106ZM1.23706 90.0921L7.0479 95.1106L7.70152 94.3538L1.89068 89.3353L1.23706 90.0921ZM0.382085 87.9661C0.306376 88.7713 0.624924 89.5635 1.23706 90.0921L1.89068 89.3353C1.5234 89.0181 1.33227 88.5428 1.37769 88.0597L0.382085 87.9661ZM3.29648 56.9675L0.382085 87.9661L1.37769 88.0597L4.29209 57.0611L3.29648 56.9675ZM11.1696 48.4899C6.92869 49.2076 3.69909 52.6852 3.29648 56.9675L4.29209 57.0611C4.65232 53.2295 7.54197 50.1181 11.3365 49.4759L11.1696 48.4899ZM25.0177 46.1464L11.1696 48.4899L11.3365 49.4759L25.1846 47.1324L25.0177 46.1464ZM27.1073 46.7531C26.5399 46.2425 25.7704 46.019 25.0177 46.1464L25.1846 47.1324C25.6362 47.056 26.0979 47.19 26.4383 47.4964L27.1073 46.7531Z" fill="black"/>
<path fill-rule="evenodd" clip-rule="evenodd" d="M24.3916 81.7238L32.3719 88.0416L32.9346 87.9496C33.3664 88.2012 33.8548 88.3858 34.399 88.4881C37.929 89.1518 42.7085 89.1174 48 88.0591L82.1924 81.4106C83.3277 81.1898 84.4347 80.7768 85.3291 80.0436C90.3677 75.9129 89.2038 71.0993 87.5689 69.7709C89.0098 69.4384 92.0246 67.8424 92.5566 64.1182C93.0886 60.3941 91.4482 58.798 90.5615 58.4655C92.0024 58.3547 95.0172 57.0025 95.5492 52.4803C96.0812 47.9581 93.5541 46.6059 92.2241 46.4951C93.4433 46.0517 95.8817 44.0345 95.8817 39.5123C95.8817 37.001 94.7879 35.6724 93.5115 35.0253L93.5541 34.8396L86.9039 29.5194L67.6776 32.5407C70.5538 25.2222 70.7045 17.3273 70.2783 13.5764C70.1971 11.9537 69.4508 9.10745 67.2827 7.59422L67.2857 7.57361L60.3029 1.9209L48.9975 31.5145L33.3694 47.1426L24.3916 81.7238Z" fill="#D0D5DD"/>
<path d="M32.3719 88.0416L32.0615 88.4336C32.1718 88.5209 32.3137 88.5577 32.4525 88.535L32.3719 88.0416ZM24.3916 81.7238L23.9076 81.5982C23.8579 81.7899 23.926 81.9929 24.0813 82.1159L24.3916 81.7238ZM32.9346 87.9496L33.1863 87.5176C33.086 87.4592 32.9685 87.4374 32.854 87.4562L32.9346 87.9496ZM34.399 88.4881L34.3066 88.9795L34.399 88.4881ZM48 88.0591L47.9045 87.5683L47.9019 87.5688L48 88.0591ZM82.1924 81.4106L82.097 80.9198L82.1924 81.4106ZM85.3291 80.0436L85.6461 80.4303L85.3291 80.0436ZM87.5689 69.7709L87.4565 69.2837C87.2704 69.3267 87.125 69.4719 87.0818 69.658C87.0387 69.8441 87.1054 70.0385 87.2536 70.159L87.5689 69.7709ZM92.5566 64.1182L92.0616 64.0475L92.5566 64.1182ZM90.5615 58.4655L90.5232 57.967C90.2894 57.985 90.0994 58.1631 90.0665 58.3952C90.0335 58.6274 90.1664 58.8513 90.386 58.9337L90.5615 58.4655ZM95.5492 52.4803L95.0526 52.4219L95.5492 52.4803ZM92.2241 46.4951L92.0532 46.0252C91.8325 46.1054 91.6974 46.3285 91.7285 46.5613C91.7596 46.7941 91.9485 46.9738 92.1826 46.9933L92.2241 46.4951ZM93.5115 35.0253L93.0242 34.9134C92.9728 35.1373 93.0805 35.3675 93.2854 35.4713L93.5115 35.0253ZM93.5541 34.8396L94.0415 34.9515C94.0844 34.7644 94.0164 34.5691 93.8665 34.4492L93.5541 34.8396ZM86.9039 29.5194L87.2162 29.129C87.1066 29.0412 86.965 29.0037 86.8263 29.0255L86.9039 29.5194ZM67.6776 32.5407L67.2123 32.3578C67.1467 32.5246 67.1755 32.7138 67.2876 32.8536C67.3998 32.9934 67.5782 33.0624 67.7553 33.0346L67.6776 32.5407ZM70.2783 13.5764L69.7789 13.6013C69.7794 13.6118 69.7803 13.6223 69.7815 13.6328L70.2783 13.5764ZM67.2827 7.59422L66.7878 7.52351C66.7611 7.71031 66.8418 7.89623 66.9966 8.00423L67.2827 7.59422ZM67.2857 7.57361L67.7807 7.64432C67.8055 7.47014 67.737 7.29569 67.6003 7.18498L67.2857 7.57361ZM60.3029 1.9209L60.6175 1.53228C60.493 1.43149 60.3278 1.39646 60.1731 1.43805C60.0184 1.47964 59.893 1.59283 59.8358 1.74246L60.3029 1.9209ZM48.9975 31.5145L49.3511 31.868C49.4008 31.8183 49.4395 31.7586 49.4646 31.6929L48.9975 31.5145ZM33.3694 47.1426L33.0159 46.789C32.9529 46.852 32.9079 46.9307 32.8855 47.0169L33.3694 47.1426ZM32.6822 87.6495L24.702 81.3318L24.0813 82.1159L32.0615 88.4336L32.6822 87.6495ZM32.854 87.4562L32.2913 87.5481L32.4525 88.535L33.0152 88.4431L32.854 87.4562ZM32.6829 88.3817C33.1652 88.6626 33.7077 88.8669 34.3066 88.9795L34.4914 87.9967C34.0019 87.9047 33.5675 87.7397 33.1863 87.5176L32.6829 88.3817ZM34.3066 88.9795C37.9119 89.6573 42.7573 89.6175 48.098 88.5494L47.9019 87.5688C42.6597 88.6173 37.9461 88.6462 34.4914 87.9967L34.3066 88.9795ZM48.0954 88.5499L82.2878 81.9014L82.097 80.9198L47.9045 87.5683L48.0954 88.5499ZM82.2878 81.9014C83.4736 81.6708 84.6671 81.2329 85.6461 80.4303L85.0121 79.6569C84.2024 80.3208 83.1818 80.7088 82.097 80.9198L82.2878 81.9014ZM85.6461 80.4303C90.8678 76.1495 89.8229 70.958 87.8842 69.3829L87.2536 70.159C88.5847 71.2405 89.8676 75.6764 85.0121 79.6569L85.6461 80.4303ZM87.6814 70.2581C89.2465 69.8969 92.4806 68.1861 93.0516 64.1889L92.0616 64.0475C91.5686 67.4986 88.7731 68.9799 87.4565 69.2837L87.6814 70.2581ZM93.0516 64.1889C93.6079 60.2944 91.8972 58.4324 90.7371 57.9973L90.386 58.9337C90.9992 59.1636 92.5693 60.4937 92.0616 64.0475L93.0516 64.1889ZM90.5999 58.964C92.2589 58.8364 95.4835 57.3178 96.0458 52.5387L95.0526 52.4219C94.5508 56.6871 91.746 57.8729 90.5232 57.967L90.5999 58.964ZM96.0458 52.5387C96.3236 50.1777 95.809 48.5663 94.9758 47.5217C94.151 46.4876 93.0555 46.0626 92.2656 45.9968L92.1826 46.9933C92.7228 47.0384 93.5558 47.3449 94.194 48.1452C94.8239 48.9349 95.3069 50.2607 95.0526 52.4219L96.0458 52.5387ZM92.395 46.965C93.8236 46.4455 96.3817 44.2318 96.3817 39.5123H95.3817C95.3817 43.8371 93.063 45.658 92.0532 46.0252L92.395 46.965ZM96.3817 39.5123C96.3817 38.1829 96.0916 37.1311 95.6049 36.3139C95.1176 35.4959 94.4496 34.9403 93.7376 34.5794L93.2854 35.4713C93.8498 35.7574 94.3669 36.1897 94.7457 36.8256C95.1249 37.4623 95.3817 38.3305 95.3817 39.5123H96.3817ZM93.0668 34.7277L93.0242 34.9134L93.9988 35.1372L94.0415 34.9515L93.0668 34.7277ZM86.5915 29.9098L93.2418 35.23L93.8665 34.4492L87.2162 29.129L86.5915 29.9098ZM67.7553 33.0346L86.9815 30.0134L86.8263 29.0255L67.6 32.0467L67.7553 33.0346ZM68.143 32.7236C71.0558 25.3119 71.2082 17.3314 70.7751 13.5199L69.7815 13.6328C70.2008 17.3232 70.0518 25.1325 67.2123 32.3578L68.143 32.7236ZM70.7777 13.5514C70.6931 11.8602 69.9206 8.82562 67.5689 7.18421L66.9966 8.00423C68.981 9.38928 69.7012 12.0472 69.7789 13.6013L70.7777 13.5514ZM66.7907 7.50289L66.7878 7.52351L67.7777 7.66493L67.7807 7.64432L66.7907 7.50289ZM59.9883 2.30952L66.9711 7.96223L67.6003 7.18498L60.6175 1.53228L59.9883 2.30952ZM49.4646 31.6929L60.77 2.09933L59.8358 1.74246L48.5304 31.3361L49.4646 31.6929ZM33.723 47.4961L49.3511 31.868L48.644 31.1609L33.0159 46.789L33.723 47.4961ZM24.8756 81.8495L33.8534 47.2682L32.8855 47.0169L23.9076 81.5982L24.8756 81.8495Z" fill="black"/>
<path d="M19.7364 86.3794L1.44824 89.7045L8.431 95.3572C13.5295 94.4705 23.7266 92.6306 25.0566 92.3646C26.3867 92.0986 28.0492 91.0345 28.7142 90.037L22.729 84.7168C21.665 86.0468 20.2906 86.2685 19.7364 86.3794Z" fill="#151515" stroke="#151515"/>
<path d="M30.0438 88.3749L23.7261 83.0547L23.3936 83.7197L29.7113 89.0399L30.0438 88.3749Z" fill="#151515" stroke="#151515"/>
<path d="M29.0467 49.1376L23.9822 76.4299C23.4197 79.4612 24.7188 82.5806 27.7487 83.1503C31.2787 83.814 36.0582 83.7796 41.3497 82.7213L75.5421 76.0728C76.6774 75.852 77.7845 75.439 78.6789 74.7058C83.7174 70.5751 82.5535 65.7615 80.9186 64.4331C82.3595 64.1006 85.3743 62.5046 85.9063 58.7804C86.4383 55.0563 84.798 53.4602 83.9113 53.1277C85.3521 53.0169 88.3669 51.6647 88.8989 47.1425C89.431 42.6203 86.9039 41.2681 85.5738 41.1573C86.793 40.7139 89.2315 38.6967 89.2315 34.1745C89.2315 29.6524 85.6847 28.9652 83.9113 29.1868L57.6428 33.5095C63.761 24.9971 64.1822 13.1154 63.628 8.23857C63.5172 6.02185 62.165 1.52189 57.6428 1.25588C53.1206 0.989871 51.7684 3.80514 51.6576 5.24603C51.6576 19.8766 47.9999 23.8667 45.6724 27.8569C43.3448 31.847 34.3669 41.8224 31.7068 44.15C29.5788 46.012 29.0467 48.2509 29.0467 49.1376Z" fill="white" stroke="#151515"/>
<path d="M22.8182 46.2956L9.42044 49.0951C6.45132 49.7155 4.21961 52.1776 3.89292 55.1932L0.551323 86.0387C0.335215 88.0336 2.10048 89.6741 4.07418 89.3128L16.8879 86.9666C20.9161 86.229 23.9385 82.8651 24.2422 78.7813L26.4235 49.4547C26.5716 47.4646 24.7715 45.8874 22.8182 46.2956Z" fill="white" stroke="#151515"/>
<path d="M79.9209 73.7441L86.5711 78.7318L87.2362 78.0668L80.5859 73.0791L79.9209 73.7441Z" fill="#151515" stroke="#151515"/>
<path d="M80.9189 64.4336L87.5692 69.7538L89.2318 69.0888L82.5815 63.7686L80.9189 64.4336Z" fill="#151515" stroke="#151515"/>
<path d="M88.2338 42.4877C87.4358 41.6897 86.3496 41.2685 85.9062 41.1577L87.2363 40.1602L93.554 45.4804L92.224 46.4779L88.2338 42.4877Z" fill="#151515" stroke="#151515"/>
<path d="M91.2264 58.4481L83.9111 53.1279L85.9062 52.4629L92.889 57.4506L91.2264 58.4481Z" fill="#151515" stroke="#151515"/>
<path d="M32.3714 88.0417L25.3887 82.389C29.1128 84.2511 36.2507 83.6082 39.3542 83.054C51.6571 80.7264 76.396 76.0048 76.9281 75.7387L78.9231 74.7412L85.5734 79.7289C84.5758 80.3939 83.5783 81.0589 82.2483 81.3915L43.3443 88.7067C37.2261 89.2387 33.4798 88.4851 32.3714 88.0417Z" fill="#151515" stroke="#151515"/>
</svg>
