<svg width="260" height="286" viewBox="0 0 260 286" fill="none" xmlns="http://www.w3.org/2000/svg">
<path d="M117.165 115.873C125.179 111.252 135.05 111.234 143.085 115.827L241.111 171.853C246.46 174.91 246.494 182.604 241.172 185.702L143.141 242.771C135.029 247.493 124.997 247.479 116.893 242.735L19.7365 185.853C14.4389 182.752 14.4611 175.094 19.7766 172.029L117.165 115.873Z" fill="#FFDD33"/>
<mask id="path-2-outside-1_730_57141" maskUnits="userSpaceOnUse" x="11.5078" y="78.5918" width="239" height="153" fill="black">
<rect fill="white" x="11.5078" y="78.5918" width="239" height="153"/>
<path fill-rule="evenodd" clip-rule="evenodd" d="M117.195 84.0647C125.215 79.4461 135.094 79.4334 143.136 84.0312L243.573 141.455C246.055 142.874 247.393 145.29 247.583 147.781H247.605V148.248C247.607 148.348 247.607 148.449 247.605 148.549V159.682C247.655 162.411 246.334 165.161 243.635 166.73L143.29 225.073C135.172 229.793 125.13 229.775 117.02 225.025L17.4686 166.723C14.4127 164.934 13.1265 161.631 13.6052 158.568V149.644C13.124 146.565 14.4266 143.248 17.5078 141.474L117.195 84.0647Z"/>
</mask>
<path fill-rule="evenodd" clip-rule="evenodd" d="M117.195 84.0647C125.215 79.4461 135.094 79.4334 143.136 84.0312L243.573 141.455C246.055 142.874 247.393 145.29 247.583 147.781H247.605V148.248C247.607 148.348 247.607 148.449 247.605 148.549V159.682C247.655 162.411 246.334 165.161 243.635 166.73L143.29 225.073C135.172 229.793 125.13 229.775 117.02 225.025L17.4686 166.723C14.4127 164.934 13.1265 161.631 13.6052 158.568V149.644C13.124 146.565 14.4266 143.248 17.5078 141.474L117.195 84.0647Z" fill="white"/>
<path d="M143.136 84.0312L144.129 82.295V82.295L143.136 84.0312ZM117.195 84.0647L116.197 82.3316V82.3316L117.195 84.0647ZM243.573 141.455L244.566 139.719L243.573 141.455ZM247.583 147.781L245.589 147.932C245.668 148.975 246.537 149.781 247.583 149.781V147.781ZM247.605 147.781H249.605C249.605 146.676 248.71 145.781 247.605 145.781V147.781ZM247.605 148.248H245.605C245.605 148.261 245.605 148.273 245.606 148.285L247.605 148.248ZM247.605 148.549L245.606 148.512C245.605 148.524 245.605 148.536 245.605 148.549H247.605ZM247.605 159.682H245.605C245.605 159.694 245.605 159.707 245.606 159.719L247.605 159.682ZM243.635 166.73L244.641 168.459H244.641L243.635 166.73ZM143.29 225.073L142.284 223.344L143.29 225.073ZM117.02 225.025L118.031 223.299L117.02 225.025ZM17.4686 166.723L16.4579 168.449H16.4579L17.4686 166.723ZM13.6052 158.568L15.5812 158.877C15.5971 158.775 15.6052 158.672 15.6052 158.568H13.6052ZM13.6052 149.644H15.6052C15.6052 149.541 15.5972 149.437 15.5812 149.335L13.6052 149.644ZM17.5078 141.474L18.5059 143.207H18.5059L17.5078 141.474ZM144.129 82.295C135.471 77.3448 124.833 77.3579 116.197 82.3316L118.193 85.7979C125.596 81.5344 134.718 81.522 142.143 85.7675L144.129 82.295ZM244.566 139.719L144.129 82.295L142.143 85.7675L242.581 143.191L244.566 139.719ZM249.577 147.629C249.341 144.521 247.662 141.489 244.566 139.719L242.581 143.191C244.449 144.259 245.446 146.058 245.589 147.932L249.577 147.629ZM247.583 149.781H247.605V145.781H247.583V149.781ZM245.605 147.781V148.248H249.605V147.781H245.605ZM249.605 148.586C249.607 148.461 249.607 148.336 249.605 148.211L245.606 148.285C245.607 148.361 245.607 148.436 245.606 148.512L249.605 148.586ZM245.605 148.549V159.682H249.605V148.549H245.605ZM244.641 168.459C248.013 166.498 249.667 163.044 249.605 159.645L245.606 159.719C245.643 161.778 244.655 163.824 242.63 165.001L244.641 168.459ZM144.295 226.802L244.641 168.459L242.63 165.001L142.284 223.344L144.295 226.802ZM116.009 226.751C124.741 231.865 135.553 231.885 144.295 226.802L142.284 223.344C134.791 227.701 125.52 227.685 118.031 223.299L116.009 226.751ZM16.4579 168.449L116.009 226.751L118.031 223.299L18.4793 164.998L16.4579 168.449ZM11.6292 158.26C11.034 162.068 12.6362 166.211 16.4579 168.449L18.4793 164.998C16.1892 163.656 15.219 161.194 15.5812 158.877L11.6292 158.26ZM15.6052 158.568V149.644H11.6052V158.568H15.6052ZM16.5097 139.741C12.6531 141.962 11.031 146.125 11.6291 149.953L15.5812 149.335C15.217 147.005 16.2 144.535 18.5059 143.207L16.5097 139.741ZM116.197 82.3316L16.5097 139.741L18.5059 143.207L118.193 85.7979L116.197 82.3316Z" fill="#1D2939" mask="url(#path-2-outside-1_730_57141)"/>
<mask id="mask0_730_57141" style="mask-type:alpha" maskUnits="userSpaceOnUse" x="13" y="80" width="118" height="150">
<rect x="13.5" y="80.1768" width="117" height="149" fill="#D0D8DC"/>
</mask>
<g mask="url(#mask0_730_57141)">
<path d="M117.091 95.496C125.111 90.8774 134.99 90.8647 143.032 95.4625L243.469 152.886C248.819 155.945 248.854 163.633 243.531 166.728L143.186 225.071C135.068 229.791 125.026 229.772 116.916 225.023L17.3646 166.721C12.0662 163.618 12.0879 155.966 17.4038 152.905L117.091 95.496Z" fill="#D0D5DD"/>
<path d="M117.09 84.0645C125.11 79.4459 134.99 79.4331 143.032 84.031L243.469 141.455C248.819 144.513 248.854 152.201 243.531 155.296L143.186 213.64C135.068 218.359 125.026 218.341 116.916 213.591L17.3644 155.29C12.066 152.187 12.0877 144.535 17.4036 141.474L117.09 84.0645Z" fill="#D0D5DD"/>
<rect x="13.502" y="147.78" width="234" height="12" fill="#D0D5DD"/>
</g>
<path d="M143.322 83.4741C135.132 78.7932 125.072 78.8111 116.904 83.5209L17.1666 141.031C11.5189 144.288 11.4953 152.424 17.1241 155.72L116.627 213.975C124.887 218.811 135.112 218.825 143.38 214.012L243.777 155.566C249.431 152.274 249.395 144.099 243.712 140.851L143.322 83.4741Z" fill="white" stroke="#1D2939"/>
<path d="M42.5 40.8545C36 35.8545 32 25.8545 30 20.3545L43 11.3545L64 30.3545L67.5 39.8545C59.5 45.8545 48.5494 45.5079 42.5 40.8545Z" fill="#151515" stroke="black"/>
<path d="M75.5 13.8545C71.9 9.45449 60.6667 4.35449 55.5 2.35449L42.5 10.8545L64 30.3545L75.5 35.3545C82 25.8545 80 19.3545 75.5 13.8545Z" fill="white" stroke="black"/>
<path fill-rule="evenodd" clip-rule="evenodd" d="M179.357 41.1664C180.885 42.06 182.368 43.053 183.798 44.147C208.328 62.9082 208.2 104.282 183.514 136.558C158.827 168.834 118.93 179.79 94.4007 161.029C92.0242 159.211 89.8792 157.181 87.9654 154.968L78.4996 146.854L80.8633 143.752C71.3909 122.651 76.0124 93.0318 94.6855 68.6178C113.281 44.3053 140.507 32.09 163.295 35.5611L166.5 31.3545L179.357 41.1664Z" fill="#151515"/>
<path d="M171.117 126.255C158.834 142.314 142.778 153.054 126.766 157.451C110.755 161.847 94.8187 159.897 82.7049 150.632C70.5911 141.367 64.5365 126.497 64.5877 109.893C64.6388 93.2888 70.8002 74.9808 83.0831 58.9216C95.366 42.8624 111.422 32.1224 127.434 27.7255C143.445 23.3288 159.381 25.2788 171.495 34.5441C183.609 43.8094 189.663 58.6792 189.612 75.283C189.561 91.8873 183.4 110.195 171.117 126.255Z" fill="#151515" stroke="white"/>
<path d="M162.925 120.52C152.363 134.33 138.558 143.563 124.794 147.343C111.031 151.122 97.3396 149.444 86.9354 141.487C76.5312 133.529 71.327 120.755 71.371 106.482C71.415 92.2089 76.7116 76.4675 87.2739 62.6579C97.8362 48.8483 111.642 39.615 125.405 35.8354C139.169 32.0559 152.86 33.734 163.264 41.6916C173.668 49.6493 178.872 62.4234 178.828 76.6961C178.784 90.9693 173.488 106.711 162.925 120.52Z" fill="white" stroke="black"/>
<path d="M153.122 112.605C138.233 132.072 113.852 138.172 98.6928 126.577C83.5332 114.982 83.0364 89.8551 97.926 70.3879C112.816 50.9206 137.196 44.8211 152.356 56.416C167.515 68.0108 168.012 93.1378 153.122 112.605Z" fill="#151515" stroke="black"/>
<path d="M147.534 108.331C135.636 123.887 116.183 128.73 104.11 119.496C92.0367 110.261 91.6168 90.219 103.515 74.6631C115.413 59.1072 134.866 54.2648 146.939 63.499C159.012 72.7331 159.432 92.7756 147.534 108.331Z" fill="white" stroke="black"/>
<path d="M136.493 99.8872C130.505 107.716 120.786 110.075 114.811 105.505C108.835 100.934 108.567 90.9362 114.555 83.1075C120.543 75.2787 130.262 72.9197 136.237 77.4902C142.213 82.0607 142.481 92.0585 136.493 99.8872Z" fill="#151515" stroke="black"/>
<path d="M126.5 91.3545C125.3 92.9545 122.5 93.8545 121 92.8545L111.5 85.8545L120 77.3545L126.5 85.3545C127.5 86.8545 127.7 89.7545 126.5 91.3545Z" fill="#D0D5DD" stroke="black"/>
<path fill-rule="evenodd" clip-rule="evenodd" d="M78.4997 65.3525C79.1664 66.6859 81.1997 69.4525 83.9997 69.8525C87.4997 70.3525 102.5 62.8525 102 48.8525C101.341 47.6998 99.3482 45.3106 96.6 44.8678C97.846 44.6175 98.9993 44.6034 99.9998 44.8536C106 46.3536 132.5 69.3535 117 82.8535C101.5 96.3535 83.5 75.8536 80.5 71.3536C78.89 68.9387 78.39 66.5388 78.3359 64.818C78.3795 65.0104 78.4343 65.189 78.4997 65.3525Z" fill="#D0D5DD"/>
<path d="M83.9997 69.8525L84.0704 69.3576L83.9997 69.8525ZM78.4997 65.3525L78.0355 65.5382L78.0432 65.5575L78.0525 65.5761L78.4997 65.3525ZM102 48.8525L102.499 48.8347L102.495 48.7115L102.434 48.6045L102 48.8525ZM96.6 44.8678L96.5015 44.3776L96.5204 45.3614L96.6 44.8678ZM99.9998 44.8536L99.8785 45.3386L99.9998 44.8536ZM80.5 71.3536L80.0839 71.6309L80.5 71.3536ZM78.3359 64.818L78.8236 64.7075L77.8362 64.8337L78.3359 64.818ZM84.0704 69.3576C82.8123 69.1778 81.696 68.46 80.7968 67.5927C79.8993 66.7269 79.257 65.749 78.9469 65.1289L78.0525 65.5761C78.4091 66.2894 79.1168 67.3615 80.1026 68.3124C81.0868 69.2617 82.3871 70.1272 83.929 70.3475L84.0704 69.3576ZM101.5 48.8704C101.743 55.6712 98.225 60.9121 94.1729 64.4116C92.1479 66.1605 90.0016 67.4628 88.1537 68.2951C87.2298 68.7112 86.3874 69.0068 85.6782 69.1827C84.9582 69.3612 84.4143 69.4067 84.0704 69.3576L83.929 70.3475C84.4602 70.4234 85.1505 70.3438 85.9189 70.1533C86.698 69.96 87.5977 69.6423 88.5644 69.2069C90.4978 68.336 92.7265 66.9821 94.8265 65.1685C99.0244 61.543 102.756 56.0339 102.499 48.8347L101.5 48.8704ZM96.5204 45.3614C97.7749 45.5636 98.8775 46.2144 99.7569 46.9727C100.637 47.7313 101.264 48.5723 101.566 49.1006L102.434 48.6045C102.077 47.9801 101.378 47.0501 100.41 46.2153C99.4412 45.3801 98.1733 44.6149 96.6795 44.3741L96.5204 45.3614ZM96.6985 45.358C97.8929 45.118 98.9683 45.1111 99.8785 45.3386L100.121 44.3685C99.0303 44.0958 97.7991 44.1169 96.5015 44.3776L96.6985 45.358ZM99.8785 45.3386C100.549 45.5062 101.565 45.9944 102.822 46.7864C104.068 47.5712 105.517 48.6315 107.046 49.9091C110.106 52.4653 113.466 55.8723 116.155 59.6439C118.849 63.4218 120.842 67.5252 121.229 71.4803C121.612 75.4036 120.42 79.2116 116.671 82.4765L117.328 83.2306C121.33 79.7455 122.638 75.616 122.224 71.3831C121.814 67.1819 119.713 62.9103 116.969 59.0632C114.221 55.2098 110.8 51.7418 107.688 49.1417C106.131 47.8412 104.646 46.7531 103.355 45.9402C102.076 45.1345 100.951 44.5759 100.121 44.3685L99.8785 45.3386ZM116.671 82.4765C112.889 85.7711 108.978 86.9756 105.191 86.8849C101.39 86.7939 97.677 85.3961 94.3155 83.4224C87.5832 79.4694 82.3848 73.2795 80.916 71.0762L80.0839 71.6309C81.6151 73.9276 86.9166 80.2377 93.8092 84.2847C97.2602 86.311 101.141 87.7882 105.168 87.8847C109.209 87.9815 113.361 86.686 117.328 83.2306L116.671 82.4765ZM80.916 71.0762C79.3653 68.7501 78.8873 66.4441 78.8357 64.8023L77.8362 64.8337C77.8928 66.6335 78.4148 69.1272 80.0839 71.6309L80.916 71.0762ZM78.9639 65.1668C78.9093 65.0303 78.862 64.8772 78.8236 64.7075L77.8483 64.9285C77.8971 65.1436 77.9592 65.3476 78.0355 65.5382L78.9639 65.1668Z" fill="black"/>
<path d="M97 62.8545C89 72.6323 79.3333 69.1878 78 64.8545L64 29.8545L96 44.8545C101 46.8545 105.5 52.4656 97 62.8545Z" fill="white" stroke="black"/>
<path d="M48 5.35449L41 1.85449L43 8.85449L48 5.35449Z" fill="#151515" stroke="black" stroke-linejoin="round"/>
<path d="M62.5 42.8545C58.1 39.2545 47.6667 26.3545 43 20.3545V10.8545C47.6667 14.8545 58.4 24.2545 64 29.8545C69.6 35.4545 71.3333 41.5212 71.5 43.8545C70.3333 45.0212 66.9 46.4545 62.5 42.8545Z" fill="white" stroke="black"/>
<path d="M65.5 40.8545C64.3 39.6545 51.6667 25.6878 45.5 18.8545C45.5 20.4545 43.8333 20.3545 43 20.3545C47.6667 26.1878 58.1 39.2545 62.5 42.8545C66.9 46.4545 70.3333 45.0212 71.5 43.8545C70 43.3545 68.5 43.8545 65.5 40.8545Z" fill="#D0D5DD" stroke="black" stroke-linejoin="round"/>
<path d="M65 30.8545L45.5 18.8545L43 10.8545L65 30.8545Z" fill="#151515" stroke="black"/>
<path fill-rule="evenodd" clip-rule="evenodd" d="M55.0956 2.1834C54.5792 1.44933 53.5656 1.27284 52.8315 1.78919L43.5637 8.30819L42.5492 3.15662C42.3758 2.27604 41.5214 1.70278 40.6408 1.8762C39.7602 2.04961 39.187 2.90403 39.3604 3.7846L40.6543 10.3547L30.3289 17.6176C29.5948 18.134 29.4183 19.1476 29.9347 19.8817C30.451 20.6158 31.4647 20.7923 32.1988 20.2759L41.3416 13.8448L42.4472 19.459C42.6206 20.3395 43.475 20.9128 44.3556 20.7394C45.2362 20.566 45.8094 19.7116 45.636 18.831L44.2511 11.7983L54.7014 4.44749C55.4354 3.93114 55.6119 2.91748 55.0956 2.1834Z" fill="#D0D5DD"/>
<path d="M52.8315 1.78919L53.1192 2.19815V2.19815L52.8315 1.78919ZM55.0956 2.1834L55.5045 1.89574V1.89574L55.0956 2.1834ZM43.5637 8.30819L43.0732 8.4048L43.2219 9.15996L43.8514 8.71715L43.5637 8.30819ZM42.5492 3.15662L42.0586 3.25323V3.25323L42.5492 3.15662ZM40.6408 1.8762L40.7374 2.36677L40.6408 1.8762ZM39.3604 3.7846L38.8698 3.88121L39.3604 3.7846ZM40.6543 10.3547L40.9419 10.7637L41.2076 10.5768L41.1448 10.2581L40.6543 10.3547ZM30.3289 17.6176L30.0412 17.2087H30.0412L30.3289 17.6176ZM29.9347 19.8817L30.3437 19.5941H30.3437L29.9347 19.8817ZM32.1988 20.2759L32.4864 20.6849L32.1988 20.2759ZM41.3416 13.8448L41.8322 13.7482L41.6834 12.9931L41.0539 13.4359L41.3416 13.8448ZM42.4472 19.459L42.9378 19.3624L42.4472 19.459ZM45.636 18.831L45.1455 18.9276V18.9276L45.636 18.831ZM44.2511 11.7983L43.9634 11.3893L43.6977 11.5762L43.7605 11.8949L44.2511 11.7983ZM54.7014 4.44749L54.4137 4.03853V4.03853L54.7014 4.44749ZM53.1192 2.19815C53.6274 1.84067 54.3291 1.96286 54.6866 2.47107L55.5045 1.89574C54.8293 0.935807 53.5038 0.705002 52.5438 1.38023L53.1192 2.19815ZM43.8514 8.71715L53.1192 2.19815L52.5438 1.38022L43.2761 7.89922L43.8514 8.71715ZM42.0586 3.25323L43.0732 8.4048L44.0543 8.21157L43.0398 3.06L42.0586 3.25323ZM40.7374 2.36677C41.347 2.24672 41.9386 2.64359 42.0586 3.25323L43.0398 3.06C42.813 1.90849 41.6957 1.15885 40.5442 1.38562L40.7374 2.36677ZM39.851 3.68799C39.7309 3.07836 40.1278 2.48683 40.7374 2.36677L40.5442 1.38562C39.3927 1.61239 38.643 2.7297 38.8698 3.88121L39.851 3.68799ZM41.1448 10.2581L39.851 3.68799L38.8698 3.88121L40.1637 10.4513L41.1448 10.2581ZM30.6166 18.0266L40.9419 10.7637L40.3666 9.94576L30.0412 17.2087L30.6166 18.0266ZM30.3437 19.5941C29.9862 19.0858 30.1084 18.3841 30.6166 18.0266L30.0412 17.2087C29.0813 17.8839 28.8505 19.2095 29.5257 20.1694L30.3437 19.5941ZM31.9111 19.867C31.4029 20.2245 30.7011 20.1023 30.3437 19.5941L29.5257 20.1694C30.201 21.1293 31.5265 21.3601 32.4864 20.6849L31.9111 19.867ZM41.0539 13.4359L31.9111 19.867L32.4864 20.6849L41.6293 14.2538L41.0539 13.4359ZM42.9378 19.3624L41.8322 13.7482L40.851 13.9414L41.9566 19.5556L42.9378 19.3624ZM44.259 20.2488C43.6494 20.3689 43.0578 19.972 42.9378 19.3624L41.9566 19.5556C42.1834 20.7071 43.3007 21.4567 44.4522 21.23L44.259 20.2488ZM45.1455 18.9276C45.2655 19.5372 44.8686 20.1288 44.259 20.2488L44.4522 21.23C45.6037 21.0032 46.3534 19.8859 46.1266 18.7344L45.1455 18.9276ZM43.7605 11.8949L45.1455 18.9276L46.1266 18.7344L44.7416 11.7017L43.7605 11.8949ZM54.4137 4.03853L43.9634 11.3893L44.5387 12.2073L54.989 4.85645L54.4137 4.03853ZM54.6866 2.47107C55.0441 2.97928 54.9219 3.68105 54.4137 4.03853L54.989 4.85645C55.949 4.18123 56.1798 2.85567 55.5045 1.89574L54.6866 2.47107Z" fill="black"/>
</svg>
