<svg width="260" height="279" viewBox="0 0 260 279" fill="none" xmlns="http://www.w3.org/2000/svg">
<path d="M117.165 108.873C125.179 104.252 135.05 104.234 143.085 108.827L241.111 164.853C246.46 167.91 246.494 175.604 241.172 178.702L143.141 235.771C135.029 240.493 124.997 240.479 116.893 235.735L19.7365 178.853C14.4389 175.752 14.4611 168.094 19.7766 165.029L117.165 108.873Z" fill="#FFDD33"/>
<mask id="path-2-outside-1_730_57185" maskUnits="userSpaceOnUse" x="11.5078" y="71.5918" width="239" height="153" fill="black">
<rect fill="white" x="11.5078" y="71.5918" width="239" height="153"/>
<path fill-rule="evenodd" clip-rule="evenodd" d="M117.195 77.0647C125.215 72.4461 135.094 72.4334 143.136 77.0312L243.573 134.455C246.055 135.874 247.393 138.29 247.583 140.781H247.605V141.248C247.607 141.348 247.607 141.449 247.605 141.549V152.682C247.655 155.411 246.334 158.161 243.635 159.73L143.29 218.073C135.172 222.793 125.13 222.775 117.02 218.025L17.4686 159.723C14.4127 157.934 13.1265 154.631 13.6052 151.568V142.644C13.124 139.565 14.4266 136.248 17.5078 134.474L117.195 77.0647Z"/>
</mask>
<path fill-rule="evenodd" clip-rule="evenodd" d="M117.195 77.0647C125.215 72.4461 135.094 72.4334 143.136 77.0312L243.573 134.455C246.055 135.874 247.393 138.29 247.583 140.781H247.605V141.248C247.607 141.348 247.607 141.449 247.605 141.549V152.682C247.655 155.411 246.334 158.161 243.635 159.73L143.29 218.073C135.172 222.793 125.13 222.775 117.02 218.025L17.4686 159.723C14.4127 157.934 13.1265 154.631 13.6052 151.568V142.644C13.124 139.565 14.4266 136.248 17.5078 134.474L117.195 77.0647Z" fill="white"/>
<path d="M143.136 77.0312L144.129 75.295V75.295L143.136 77.0312ZM117.195 77.0647L116.197 75.3316V75.3316L117.195 77.0647ZM243.573 134.455L244.566 132.719L243.573 134.455ZM247.583 140.781L245.589 140.932C245.668 141.975 246.537 142.781 247.583 142.781V140.781ZM247.605 140.781H249.605C249.605 139.676 248.71 138.781 247.605 138.781V140.781ZM247.605 141.248H245.605C245.605 141.261 245.605 141.273 245.606 141.285L247.605 141.248ZM247.605 141.549L245.606 141.512C245.605 141.524 245.605 141.536 245.605 141.549H247.605ZM247.605 152.682H245.605C245.605 152.694 245.605 152.707 245.606 152.719L247.605 152.682ZM243.635 159.73L244.641 161.459H244.641L243.635 159.73ZM143.29 218.073L142.284 216.344L143.29 218.073ZM117.02 218.025L118.031 216.299L117.02 218.025ZM17.4686 159.723L16.4579 161.449H16.4579L17.4686 159.723ZM13.6052 151.568L15.5812 151.877C15.5971 151.775 15.6052 151.672 15.6052 151.568H13.6052ZM13.6052 142.644H15.6052C15.6052 142.541 15.5972 142.437 15.5812 142.335L13.6052 142.644ZM17.5078 134.474L18.5059 136.207H18.5059L17.5078 134.474ZM144.129 75.295C135.471 70.3448 124.833 70.3579 116.197 75.3316L118.193 78.7979C125.596 74.5344 134.718 74.522 142.143 78.7675L144.129 75.295ZM244.566 132.719L144.129 75.295L142.143 78.7675L242.581 136.191L244.566 132.719ZM249.577 140.629C249.341 137.521 247.662 134.489 244.566 132.719L242.581 136.191C244.449 137.259 245.446 139.058 245.589 140.932L249.577 140.629ZM247.583 142.781H247.605V138.781H247.583V142.781ZM245.605 140.781V141.248H249.605V140.781H245.605ZM249.605 141.586C249.607 141.461 249.607 141.336 249.605 141.211L245.606 141.285C245.607 141.361 245.607 141.436 245.606 141.512L249.605 141.586ZM245.605 141.549V152.682H249.605V141.549H245.605ZM244.641 161.459C248.013 159.498 249.667 156.044 249.605 152.645L245.606 152.719C245.643 154.778 244.655 156.824 242.63 158.001L244.641 161.459ZM144.295 219.802L244.641 161.459L242.63 158.001L142.284 216.344L144.295 219.802ZM116.009 219.751C124.741 224.865 135.553 224.885 144.295 219.802L142.284 216.344C134.791 220.701 125.52 220.685 118.031 216.299L116.009 219.751ZM16.4579 161.449L116.009 219.751L118.031 216.299L18.4793 157.998L16.4579 161.449ZM11.6292 151.26C11.034 155.068 12.6362 159.211 16.4579 161.449L18.4793 157.998C16.1892 156.656 15.219 154.194 15.5812 151.877L11.6292 151.26ZM15.6052 151.568V142.644H11.6052V151.568H15.6052ZM16.5097 132.741C12.6531 134.962 11.031 139.125 11.6291 142.953L15.5812 142.335C15.217 140.005 16.2 137.535 18.5059 136.207L16.5097 132.741ZM116.197 75.3316L16.5097 132.741L18.5059 136.207L118.193 78.7979L116.197 75.3316Z" fill="#1D2939" mask="url(#path-2-outside-1_730_57185)"/>
<mask id="mask0_730_57185" style="mask-type:alpha" maskUnits="userSpaceOnUse" x="13" y="73" width="118" height="150">
<rect x="13.5" y="73.1768" width="117" height="149" fill="#D0D8DC"/>
</mask>
<g mask="url(#mask0_730_57185)">
<path d="M117.091 88.496C125.111 83.8774 134.99 83.8647 143.032 88.4625L243.469 145.886C248.819 148.945 248.854 156.633 243.531 159.728L143.186 218.071C135.068 222.791 125.026 222.772 116.916 218.023L17.3646 159.721C12.0662 156.618 12.0879 148.966 17.4038 145.905L117.091 88.496Z" fill="#D0D5DD"/>
<path d="M117.09 77.0645C125.11 72.4459 134.99 72.4331 143.032 77.031L243.469 134.455C248.819 137.513 248.854 145.201 243.531 148.296L143.186 206.64C135.068 211.359 125.026 211.341 116.916 206.591L17.3644 148.29C12.066 145.187 12.0877 137.535 17.4036 134.474L117.09 77.0645Z" fill="#D0D5DD"/>
<rect x="13.502" y="140.78" width="234" height="12" fill="#D0D5DD"/>
</g>
<path d="M143.322 76.4741C135.132 71.7932 125.072 71.8111 116.904 76.5209L17.1666 134.031C11.5189 137.288 11.4953 145.424 17.1241 148.72L116.627 206.975C124.887 211.811 135.112 211.825 143.38 207.012L243.777 148.566C249.431 145.274 249.395 137.099 243.712 133.851L143.322 76.4741Z" fill="white" stroke="#1D2939"/>
<circle cx="123.5" cy="69.6768" r="65" fill="#151515" stroke="black"/>
<path d="M145 13.6768C143 11.2768 143.833 9.34342 144.5 8.67676C150.667 10.0101 165.7 16.4768 176.5 31.6768C187.3 46.8768 189 62.0101 188.5 67.6768C186.167 67.8434 181.5 68.4768 181.5 69.6768C181.5 71.1768 183.5 72.1768 185 72.1768C186.2 72.1768 186.167 75.8434 186 77.6768C185.667 80.3434 184.7 86.1768 183.5 88.1768C182.3 90.1768 180.667 89.0101 180 88.1768L175.5 77.6768C173 77.1768 173 74.1768 174 73.1768C175 72.1768 174 67.6768 172 68.1768C170 68.6768 168.5 69.6768 167 68.6768C165.5 67.6768 166.5 67.6768 165.5 67.6768C164.5 67.6768 165.5 69.6768 165.5 70.6768C165.5 71.6768 165.5 72.1768 164.5 72.1768C163.5 72.1768 160.5 66.6768 159.5 66.1768C158.7 65.7768 157.833 66.0101 157.5 66.1768C161.5 70.1768 160.5 71.6768 159.5 70.6768C158.7 69.8768 156.5 68.3434 155.5 67.6768C155 68.0101 153.7 69.0768 152.5 70.6768C151 72.6768 150.5 74.6768 150 78.1768C149.5 81.6768 146 80.1768 143.5 78.1768C141 76.1768 142.5 72.6768 143.5 70.6768C144.3 69.0768 145.5 68.6768 146 68.6768C146 68.0101 145.8 66.5768 145 66.1768C144 65.6768 143.5 64.1768 144.5 62.1768L144.5 62.1759C145.5 60.1765 146 59.1767 147 58.6768C147.8 58.2768 147.667 57.1768 147.5 56.6768C147.833 56.0101 148.6 54.3768 149 53.1768C149.5 51.6768 150 53.6768 152 53.1768C154 52.6768 153.5 51.1768 153.5 50.6768C153.5 50.1768 153.5 46.1768 152 44.1768C150.5 42.1768 150.5 41.1768 150 41.6768C149.5 42.1768 150 44.1768 151 47.1768C152 50.1768 152.5 51.6768 150.5 51.1768C148.5 50.6768 147.5 50.6768 144.5 49.1768C141.5 47.6768 144 41.6768 143.5 39.1768C143 36.6768 144.5 33.6768 145 33.6768C145.4 33.6768 147.833 32.3434 149 31.6768C149.833 32.0101 151.6 32.8768 152 33.6768C152.5 34.6768 152 36.1768 152.5 36.6768C152.9 37.0768 153.333 35.8434 153.5 35.1768C153.333 34.5101 153.1 33.0768 153.5 32.6768C153.9 32.2768 152.667 30.1768 152 29.1768C151 29.0101 148.6 28.3768 147 27.1768C145 25.6768 144.5 24.1768 146 22.6768C147.2 21.4768 148.5 23.8434 149 25.1768L152.5 27.1768L153 26.1768L150 24.1768L147.5 20.1768C146.5 19.5101 144.2 17.8768 143 16.6768C141.8 15.4768 143.833 14.1768 145 13.6768Z" fill="white" stroke="black"/>
<path d="M112.5 31.6765C111.3 32.8765 112.333 34.5098 113 35.1765C113.333 35.6764 114.1 37.0763 114.5 38.6763C115 40.6763 114 43.1763 113.5 44.1763C113 45.1763 111.5 52.6763 113 55.1763C114.5 57.6763 116.5 56.1763 118.5 52.1763C120.5 48.1763 124.5 46.6763 125.5 45.6763C126.3 44.8763 126.833 43.3429 127 42.6763C127.667 39.843 128.6 33.2765 127 29.6765C125.4 26.0765 123 26.1765 122 26.6765C119.333 27.8432 113.7 30.4765 112.5 31.6765Z" fill="white" stroke="black"/>
<path d="M106.5 30.1768C105.3 30.9768 105.333 32.5101 105.5 33.1768C106.299 34.7768 108.833 32.5101 110 31.1768C112 30.0101 116.1 27.5768 116.5 27.1768C117 26.6768 117.5 25.1768 115.5 25.1768C113.5 25.1768 112.5 25.6768 111 25.6768C109.5 25.6768 109 27.1768 109 27.6768C109 28.1768 108 29.1768 106.5 30.1768Z" fill="white" stroke="black"/>
<path d="M145 57.1768C145.4 58.3768 143.833 60.3434 143 61.1768C142 62.1759 142 59.1821 142 58.1794V58.1768C142 57.1768 140 56.1768 139.5 55.1768C139 54.1768 140 51.6768 140.5 51.6768C141 51.6768 144.5 55.6768 145 57.1768Z" fill="white" stroke="black"/>
<path d="M140 58.6768C139.6 57.8768 138.833 57.6768 138.5 57.6768C138 59.1768 139 60.6768 139.5 60.6768C140 60.6768 140.5 59.6768 140 58.6768Z" fill="white" stroke="black"/>
<path d="M131.5 50.1763C131.1 49.3763 128.667 50.1763 127.5 50.6763C127.333 51.1763 127.1 52.3763 127.5 53.1763C128 54.1763 130 54.1763 131 53.6763C132 53.1763 132 51.1763 131.5 50.1763Z" fill="white" stroke="black"/>
<path d="M102.5 33.1761C102 33.1761 101.5 32.1761 100.5 32.6761C99.7005 33.0761 99.8338 34.1761 100 34.6761C101.5 36.1761 103 34.1763 103.5 33.6763C104 33.1763 103 33.1761 102.5 33.1761Z" fill="white"/>
<path d="M100 34.6761C100 34.6761 100 34.6761 100 34.6761ZM100 34.6761C99.8338 34.1761 99.7005 33.0761 100.5 32.6761C101.5 32.1761 102 33.1761 102.5 33.1761C103 33.1761 104 33.1763 103.5 33.6763C103 34.1763 101.5 36.1761 100 34.6761Z" stroke="black"/>
<path d="M99.5001 29.6776C99.9001 30.4776 98.6668 32.3442 98.0001 33.1776C97.6667 33.6776 96.9 34.7777 96.5001 35.1777C96.0002 35.6777 93.5001 35.1777 93.0001 33.1777C92.5001 31.1777 95.5001 27.6776 96.5001 27.1776C97.5001 26.6776 99.0001 28.6776 99.5001 29.6776Z" fill="white" stroke="black"/>
<path d="M166.5 74.6765C166.1 73.8765 164.667 75.0099 164 75.6765C163.333 76.8433 161.8 79.4768 161 80.6768C160 82.1768 156.5 86.1768 151.5 87.6768C146.5 89.1768 142.5 97.6768 141.5 99.1768C140.5 100.677 138 105.177 138.5 111.177C139 117.177 147 117.177 149 116.177C151 115.177 155 114.177 157.5 115.677C159.5 116.877 157 123.177 155.5 126.177C159 123.843 167.5 117.577 173.5 111.177C179.5 104.777 183.667 95.1768 185 91.1768L181 93.1768C180.2 93.5768 179.333 92.0101 179 91.1768C178 89.3434 175.9 85.3768 175.5 84.1768C175.1 82.9768 171.333 84.0101 169.5 84.6768C169.333 84.0101 169 82.4768 169 81.6768C169 80.6768 167 75.6765 166.5 74.6765Z" fill="white" stroke="black"/>
<path d="M188 13.6768L172 26.6768" stroke="black" stroke-width="1.5"/>
<path d="M50.5 54.1768L71.5 58.1768" stroke="black" stroke-width="1.5"/>
<path d="M92 131.177L94.5 128.177" stroke="black" stroke-width="1.5"/>
<path d="M76.5 33.1772L78 34.6772C78.4997 38.1772 73.5003 47.1772 70.5003 53.1772C67.5003 59.1772 65.5003 69.1772 67.0003 79.1772C68.5003 89.1772 75.5003 96.6772 77.5003 99.1772C79.5003 101.677 82.5003 107.177 83.5003 108.177C84.3003 108.977 85.8337 112.177 86.5003 113.677C86.667 114.844 87.1003 117.477 87.5003 118.677C87.9003 119.877 92.3337 122.844 94.5003 124.177C94.167 125.511 93.8002 127.977 94.9996 127.177C96.1991 126.377 98.1661 127.177 98.9996 127.677L106 132.677C108.833 132.844 115 132.977 117 132.177C119 131.377 122.167 128.177 123.5 126.677L117.5 123.177L111.5 121.177L106 116.177C102.667 114.344 95.4003 110.377 93.0003 109.177C90.0003 107.677 88.0003 110.177 84.5003 106.677C81.0003 103.177 80.5003 97.1772 80.0003 95.1772C79.5003 93.1772 79.4996 93.6772 75.9996 92.6772C72.4996 91.6772 72.9996 88.6772 72.9996 87.1772C72.9996 85.9772 75.6663 83.3439 76.9996 82.1772C78.833 84.5106 82.7996 89.2772 83.9996 89.6772C85.4996 90.1772 85.9996 86.1772 86.9996 84.1772C87.9996 82.1772 92.9996 75.6772 94.9996 74.1772C96.9996 72.6772 102 73.1772 102.5 72.6772C103 72.1772 98.4996 67.6772 98.9996 67.1772C99.4996 66.6772 105 67.6772 106 66.6772C106.8 65.8772 105.333 62.3439 104.5 60.6772C103.333 57.1772 100.6 49.0772 98.9996 44.6772C96.9996 39.1772 96.9996 42.6772 91.9996 39.1772C87.9996 36.3772 87.6663 30.6772 87.9996 28.1772C88.333 26.6772 88.7996 23.3772 87.9996 22.1772C87.1996 20.9772 85.333 21.6772 84.4996 22.1772C82.3331 24.3439 77.7 28.8772 76.5 29.6772C75 30.6772 75.5 32.1772 76.5 33.1772Z" fill="white" stroke="black"/>
<circle cx="44.5" cy="52.6768" r="8" fill="#D0D5DD" stroke="black"/>
<circle cx="83.5" cy="67.6768" r="8" fill="#D0D5DD" stroke="black"/>
<circle cx="97.5" cy="48.6768" r="8" fill="#D0D5DD" stroke="black"/>
<circle cx="86.5" cy="137.677" r="8" fill="#D0D5DD" stroke="black"/>
<circle cx="155.5" cy="97.6768" r="8" fill="#D0D5DD" stroke="black"/>
<circle cx="193.5" cy="8.67676" r="8" fill="#D0D5DD" stroke="black"/>
<path d="M45 59.1768C47.1585 54.1848 46.6188 48.4301 46.0792 46.1768C48.2377 47.0434 51.4986 49.66 50.9357 53.4568C50.3961 57.0968 46.7987 58.8301 45 59.1768Z" fill="#151515" stroke="black" stroke-linejoin="round"/>
<path d="M84 74.1768C86.1585 69.1848 85.6188 63.4301 85.0792 61.1768C87.2377 62.0434 90.4986 64.66 89.9357 68.4568C89.3961 72.0968 85.7987 73.8301 84 74.1768Z" fill="#151515" stroke="black" stroke-linejoin="round"/>
<path d="M87 144.177C89.1585 139.185 88.6188 133.43 88.0792 131.177C90.2377 132.043 93.4986 134.66 92.9357 138.457C92.3961 142.097 88.7987 143.83 87 144.177Z" fill="#151515" stroke="black" stroke-linejoin="round"/>
<path d="M156 104.177C158.158 99.1848 157.619 93.4301 157.079 91.1768C159.238 92.0434 162.499 94.66 161.936 98.4568C161.396 102.097 157.799 103.83 156 104.177Z" fill="#151515" stroke="black" stroke-linejoin="round"/>
<path d="M98 55.1768C100.158 50.1848 99.6188 44.4301 99.0792 42.1768C101.238 43.0434 104.499 45.66 103.936 49.4568C103.396 53.0968 99.7987 54.8301 98 55.1768Z" fill="#151515" stroke="black" stroke-linejoin="round"/>
<path d="M194 15.1768C196.158 10.1848 195.619 4.43009 195.079 2.17676C197.238 3.04342 200.499 5.65997 199.936 9.45676C199.396 13.0968 195.799 14.8301 194 15.1768Z" fill="#151515" stroke="black" stroke-linejoin="round"/>
</svg>
