<svg width="260" height="279" viewBox="0 0 260 279" fill="none" xmlns="http://www.w3.org/2000/svg">
<path d="M117.165 108.873C125.179 104.252 135.05 104.234 143.085 108.827L241.111 164.853C246.46 167.91 246.494 175.604 241.172 178.702L143.141 235.771C135.029 240.493 124.997 240.479 116.893 235.735L19.7365 178.853C14.4389 175.752 14.4611 168.094 19.7766 165.029L117.165 108.873Z" fill="#FFDD33"/>
<mask id="path-2-outside-1_730_57104" maskUnits="userSpaceOnUse" x="11.5078" y="71.5918" width="239" height="153" fill="black">
<rect fill="white" x="11.5078" y="71.5918" width="239" height="153"/>
<path fill-rule="evenodd" clip-rule="evenodd" d="M117.195 77.0647C125.215 72.4461 135.094 72.4334 143.136 77.0312L243.573 134.455C246.055 135.874 247.393 138.29 247.583 140.781H247.605V141.248C247.607 141.348 247.607 141.449 247.605 141.549V152.682C247.655 155.411 246.334 158.161 243.635 159.73L143.29 218.073C135.172 222.793 125.13 222.775 117.02 218.025L17.4686 159.723C14.4127 157.934 13.1265 154.631 13.6052 151.568V142.644C13.124 139.565 14.4266 136.248 17.5078 134.474L117.195 77.0647Z"/>
</mask>
<path fill-rule="evenodd" clip-rule="evenodd" d="M117.195 77.0647C125.215 72.4461 135.094 72.4334 143.136 77.0312L243.573 134.455C246.055 135.874 247.393 138.29 247.583 140.781H247.605V141.248C247.607 141.348 247.607 141.449 247.605 141.549V152.682C247.655 155.411 246.334 158.161 243.635 159.73L143.29 218.073C135.172 222.793 125.13 222.775 117.02 218.025L17.4686 159.723C14.4127 157.934 13.1265 154.631 13.6052 151.568V142.644C13.124 139.565 14.4266 136.248 17.5078 134.474L117.195 77.0647Z" fill="white"/>
<path d="M143.136 77.0312L144.129 75.295V75.295L143.136 77.0312ZM117.195 77.0647L116.197 75.3316V75.3316L117.195 77.0647ZM243.573 134.455L244.566 132.719L243.573 134.455ZM247.583 140.781L245.589 140.932C245.668 141.975 246.537 142.781 247.583 142.781V140.781ZM247.605 140.781H249.605C249.605 139.676 248.71 138.781 247.605 138.781V140.781ZM247.605 141.248H245.605C245.605 141.261 245.605 141.273 245.606 141.285L247.605 141.248ZM247.605 141.549L245.606 141.512C245.605 141.524 245.605 141.536 245.605 141.549H247.605ZM247.605 152.682H245.605C245.605 152.694 245.605 152.707 245.606 152.719L247.605 152.682ZM243.635 159.73L244.641 161.459H244.641L243.635 159.73ZM143.29 218.073L142.284 216.344L143.29 218.073ZM117.02 218.025L118.031 216.299L117.02 218.025ZM17.4686 159.723L16.4579 161.449H16.4579L17.4686 159.723ZM13.6052 151.568L15.5812 151.877C15.5971 151.775 15.6052 151.672 15.6052 151.568H13.6052ZM13.6052 142.644H15.6052C15.6052 142.541 15.5972 142.437 15.5812 142.335L13.6052 142.644ZM17.5078 134.474L18.5059 136.207H18.5059L17.5078 134.474ZM144.129 75.295C135.471 70.3448 124.833 70.3579 116.197 75.3316L118.193 78.7979C125.596 74.5344 134.718 74.522 142.143 78.7675L144.129 75.295ZM244.566 132.719L144.129 75.295L142.143 78.7675L242.581 136.191L244.566 132.719ZM249.577 140.629C249.341 137.521 247.662 134.489 244.566 132.719L242.581 136.191C244.449 137.259 245.446 139.058 245.589 140.932L249.577 140.629ZM247.583 142.781H247.605V138.781H247.583V142.781ZM245.605 140.781V141.248H249.605V140.781H245.605ZM249.605 141.586C249.607 141.461 249.607 141.336 249.605 141.211L245.606 141.285C245.607 141.361 245.607 141.436 245.606 141.512L249.605 141.586ZM245.605 141.549V152.682H249.605V141.549H245.605ZM244.641 161.459C248.013 159.498 249.667 156.044 249.605 152.645L245.606 152.719C245.643 154.778 244.655 156.824 242.63 158.001L244.641 161.459ZM144.295 219.802L244.641 161.459L242.63 158.001L142.284 216.344L144.295 219.802ZM116.009 219.751C124.741 224.865 135.553 224.885 144.295 219.802L142.284 216.344C134.791 220.701 125.52 220.685 118.031 216.299L116.009 219.751ZM16.4579 161.449L116.009 219.751L118.031 216.299L18.4793 157.998L16.4579 161.449ZM11.6292 151.26C11.034 155.068 12.6362 159.211 16.4579 161.449L18.4793 157.998C16.1892 156.656 15.219 154.194 15.5812 151.877L11.6292 151.26ZM15.6052 151.568V142.644H11.6052V151.568H15.6052ZM16.5097 132.741C12.6531 134.962 11.031 139.125 11.6291 142.953L15.5812 142.335C15.217 140.005 16.2 137.535 18.5059 136.207L16.5097 132.741ZM116.197 75.3316L16.5097 132.741L18.5059 136.207L118.193 78.7979L116.197 75.3316Z" fill="#1D2939" mask="url(#path-2-outside-1_730_57104)"/>
<mask id="mask0_730_57104" style="mask-type:alpha" maskUnits="userSpaceOnUse" x="13" y="73" width="118" height="150">
<rect x="13.5" y="73.1768" width="117" height="149" fill="#D0D8DC"/>
</mask>
<g mask="url(#mask0_730_57104)">
<path d="M117.091 88.496C125.111 83.8774 134.99 83.8647 143.032 88.4625L243.469 145.886C248.819 148.945 248.854 156.633 243.531 159.728L143.186 218.071C135.068 222.791 125.026 222.772 116.916 218.023L17.3646 159.721C12.0662 156.618 12.0879 148.966 17.4038 145.905L117.091 88.496Z" fill="#D0D5DD"/>
<path d="M117.09 77.0645C125.11 72.4459 134.99 72.4331 143.032 77.031L243.469 134.455C248.819 137.513 248.854 145.201 243.531 148.296L143.186 206.64C135.068 211.359 125.026 211.341 116.916 206.591L17.3644 148.29C12.066 145.187 12.0877 137.535 17.4036 134.474L117.09 77.0645Z" fill="#D0D5DD"/>
<rect x="13.502" y="140.78" width="234" height="12" fill="#D0D5DD"/>
</g>
<path d="M143.322 76.4741C135.132 71.7932 125.072 71.8111 116.904 76.5209L17.1666 134.031C11.5189 137.288 11.4953 145.424 17.1241 148.72L116.627 206.975C124.887 211.811 135.112 211.825 143.38 207.012L243.777 148.566C249.431 145.274 249.395 137.099 243.712 133.851L143.322 76.4741Z" fill="white" stroke="#1D2939"/>
<path d="M206.5 17.7368L202 8.23685C144 -4.96315 89.8332 5.73685 70 12.7369L55.9999 72.2369C54.1665 77.5702 51.8999 93.7369 57.4999 115.737C63.0999 137.737 85.1665 155.904 95.4999 162.237L99.9999 164.737C160 157.537 186 109.737 191.5 86.7369L206.5 17.7368Z" fill="#151515" stroke="#151515"/>
<path d="M206.5 17.7374L202 8.2374C143 -6.76263 89.8332 5.7374 70 12.7374L55.9999 72.2374C54.1665 77.5707 51.8999 93.7374 57.4999 115.737C63.0999 137.737 85.1665 155.904 95.4999 162.237L99.9999 164.737C160 157.537 186 109.737 191.5 86.7374L206.5 17.7374Z" fill="#151515" stroke="#151515"/>
<path d="M129 11.7373L178.091 48.7961L182 46.2961L132.909 9.2373L129 11.7373Z" fill="#D0D5DD" stroke="#151515"/>
<path d="M136 7.17871L185.091 44.2375L188.091 30.2964V13.2375L136 7.17871Z" fill="#D0D5DD" stroke="#151515"/>
<path fill-rule="evenodd" clip-rule="evenodd" d="M70.0002 13.2376C90.1668 5.5709 144.7 -6.06243 201.5 8.73757L182.5 90.2373C175.667 110.071 148.7 151.937 95.5002 160.737C85.6669 155.071 64.6002 138.937 59.0002 119.737C52.0002 95.7373 53.5002 84.7373 55.5002 73.7373C57.1002 64.9373 65.8335 29.7375 70.0002 13.2376ZM77 21.2383C90 16.5716 129.9 9.93841 181.5 18.7384L169.5 72.2381C168.5 78.4047 165.1 93.0381 159.5 102.238C152.5 113.738 128.5 137.738 98.0001 146.738C89.0001 141.571 69.6001 125.238 64.0001 101.238C62.8335 96.9047 61.4001 84.6381 65.0001 70.2381C66.4009 64.635 68.0994 57.5128 69.8188 50.3031C72.5182 38.9839 75.2691 27.449 77 21.2383Z" fill="white"/>
<path fill-rule="evenodd" clip-rule="evenodd" d="M122.091 42.7373C117.356 42.7373 113.152 45.767 111.655 50.2588L109.004 58.2116C109.001 58.2199 109 58.2286 109 58.2373H103C103 57.5837 103.105 56.9344 103.312 56.3143L105.963 48.3614C108.277 41.4196 114.773 36.7373 122.091 36.7373H127.622C134.835 36.7373 140.096 43.5618 138.26 50.5367L135.901 59.5008L130 58.7373L132.458 49.0098C133.292 45.8393 130.901 42.7373 127.622 42.7373H122.091Z" fill="white" stroke="black"/>
<path d="M138.021 59.329C122.138 57.4987 108.994 57.641 100.13 58.7594C95.3264 59.3656 91.7157 63.0769 90.4262 67.7438L83.5168 92.749C82.6666 95.8258 84.402 98.937 87.562 99.3892C95.263 100.491 108.342 101.16 122.902 100.701C128.688 100.518 133.639 96.5939 135.365 91.0689L142.901 66.9548C144.002 63.4308 141.689 59.7516 138.021 59.329Z" fill="white" stroke="black"/>
<rect x="106.224" y="65.2373" width="14.9339" height="14.9339" rx="7.46696" transform="rotate(4.70062 106.224 65.2373)" fill="#151515"/>
<rect x="110.546" y="74.9541" width="3.88635" height="14" rx="1.94318" transform="rotate(14.1764 110.546 74.9541)" fill="#151515"/>
<path d="M181.5 18.7384C129.9 9.93841 90 16.5716 77 21.2383C74.1667 31.4048 68.6001 55.8381 65.0001 70.2381C61.4001 84.6381 62.8335 96.9047 64.0001 101.238C69.6001 125.238 89.0001 141.571 98.0001 146.738C128.5 137.738 152.5 113.738 159.5 102.238C165.1 93.0381 168.5 78.4047 169.5 72.2381L181.5 18.7384Z" stroke="#151515"/>
</svg>
