<svg width="119" height="35" viewBox="0 0 119 35" fill="none" xmlns="http://www.w3.org/2000/svg">
<rect width="16.6912" height="4.40901" transform="matrix(-1 0 0 1 25.5093 8.81799)" fill="#0063F5"/>
<path d="M19.2107 8.81799H14.8017V29.9182L19.2107 34.3272V8.81799Z" fill="#0063F5"/>
<path d="M14.8016 29.9183L19.2106 34.3273L29.9182 34.3273L34.3272 29.9183L14.8016 29.9183Z" fill="#004FC6"/>
<path d="M29.9173 0L34.3264 4.40901V29.9183L29.9173 34.3273V0Z" fill="#0063F5"/>
<path d="M0 4.40906L4.40901 5.0352e-05L29.9183 4.9237e-05L34.3273 4.40906L0 4.40906Z" fill="#004FC6"/>
<path d="M4.40993 0L0.000923634 4.40901V29.9183L4.40993 34.3273V0Z" fill="#0063F5"/>
<path d="M54.4791 25.2882H56.3821V34.0982H54.4791V32.8296C53.7626 33.8281 52.7348 34.3273 51.3956 34.3273C50.1857 34.3273 49.152 33.8809 48.2945 32.9882C47.437 32.0837 47.0082 30.9854 47.0082 29.6932C47.0082 28.3893 47.437 27.291 48.2945 26.3983C49.152 25.5055 50.1857 25.0592 51.3956 25.0592C52.7348 25.0592 53.7626 25.5525 54.4791 26.5392V25.2882ZM49.7041 31.7195C50.2327 32.2481 50.8964 32.5124 51.6952 32.5124C52.494 32.5124 53.1576 32.2481 53.6862 31.7195C54.2148 31.1792 54.4791 30.5038 54.4791 29.6932C54.4791 28.8827 54.2148 28.2131 53.6862 27.6845C53.1576 27.1442 52.494 26.874 51.6952 26.874C50.8964 26.874 50.2327 27.1442 49.7041 27.6845C49.1755 28.2131 48.9112 28.8827 48.9112 29.6932C48.9112 30.5038 49.1755 31.1792 49.7041 31.7195Z" fill="#0063F5"/>
<path d="M68.2207 25.0592C69.2192 25.0592 70.0238 25.3822 70.6347 26.0283C71.2455 26.6743 71.5509 27.5436 71.5509 28.636V34.0982H69.6479V28.7594C69.6479 28.1485 69.4952 27.6787 69.1898 27.3498C68.8844 27.0091 68.4674 26.8388 67.9388 26.8388C67.3515 26.8388 66.8816 27.0326 66.5292 27.4202C66.1885 27.8079 66.0182 28.3893 66.0182 29.1646V34.0982H64.1152V28.7594C64.1152 28.1485 63.9684 27.6787 63.6747 27.3498C63.3928 27.0091 62.9876 26.8388 62.459 26.8388C61.8834 26.8388 61.4135 27.0385 61.0494 27.4379C60.6852 27.8255 60.5031 28.4011 60.5031 29.1646V34.0982H58.6002V25.2882H60.5031V26.3454C61.067 25.4879 61.9069 25.0592 63.0228 25.0592C64.1505 25.0592 64.9845 25.5231 65.5249 26.4511C66.1122 25.5231 67.0108 25.0592 68.2207 25.0592Z" fill="#0063F5"/>
<path d="M80.5651 25.2882H82.468V34.0982H80.5651V32.8296C79.8485 33.8281 78.8207 34.3273 77.4816 34.3273C76.2717 34.3273 75.238 33.8809 74.3804 32.9882C73.5229 32.0837 73.0942 30.9854 73.0942 29.6932C73.0942 28.3893 73.5229 27.291 74.3804 26.3983C75.238 25.5055 76.2717 25.0592 77.4816 25.0592C78.8207 25.0592 79.8485 25.5525 80.5651 26.5392V25.2882ZM75.79 31.7195C76.3186 32.2481 76.9823 32.5124 77.7811 32.5124C78.5799 32.5124 79.2436 32.2481 79.7722 31.7195C80.3008 31.1792 80.5651 30.5038 80.5651 29.6932C80.5651 28.8827 80.3008 28.2131 79.7722 27.6845C79.2436 27.1442 78.5799 26.874 77.7811 26.874C76.9823 26.874 76.3186 27.1442 75.79 27.6845C75.2614 28.2131 74.9971 28.8827 74.9971 29.6932C74.9971 30.5038 75.2614 31.1792 75.79 31.7195Z" fill="#0063F5"/>
<path d="M94.8353 25.2882H96.8439L94.0776 34.0982H92.2099L90.3774 28.1603L88.5273 34.0982H86.6596L83.8932 25.2882H85.9019L87.611 31.3671L89.4611 25.2882H91.276L93.1085 31.3671L94.8353 25.2882Z" fill="#0063F5"/>
<path d="M104.879 25.2882H106.782V34.0982H104.879V32.8296C104.162 33.8281 103.134 34.3273 101.795 34.3273C100.585 34.3273 99.5516 33.8809 98.6941 32.9882C97.8365 32.0837 97.4078 30.9854 97.4078 29.6932C97.4078 28.3893 97.8365 27.291 98.6941 26.3983C99.5516 25.5055 100.585 25.0592 101.795 25.0592C103.134 25.0592 104.162 25.5525 104.879 26.5392V25.2882ZM100.104 31.7195C100.632 32.2481 101.296 32.5124 102.095 32.5124C102.893 32.5124 103.557 32.2481 104.086 31.7195C104.614 31.1792 104.879 30.5038 104.879 29.6932C104.879 28.8827 104.614 28.2131 104.086 27.6845C103.557 27.1442 102.893 26.874 102.095 26.874C101.296 26.874 100.632 27.1442 100.104 27.6845C99.5751 28.2131 99.3108 28.8827 99.3108 29.6932C99.3108 30.5038 99.5751 31.1792 100.104 31.7195Z" fill="#0063F5"/>
<path d="M108.96 34.0982V21.7805L110.917 21.2095V34.0889L108.96 34.0982Z" fill="#0063F5"/>
<path d="M47.9081 21.8621V23.775H44.5087V34.0353H42.5243V23.775H39.1076V21.8621H47.9081Z" fill="#0063F5"/>
<path d="M108.959 3.91565H110.917V5.54714L108.959 6.11816V3.91565Z" fill="#0063F5"/>
<path d="M105.37 3.91565H107.328V5.54714L105.37 6.11816V3.91565Z" fill="#0063F5"/>
<path fill-rule="evenodd" clip-rule="evenodd" d="M108.959 13.2152V8.07603L110.917 7.505V13.2152C110.917 14.4767 109.895 15.4993 108.633 15.4993H105.503C104.897 15.4993 104.316 15.2586 103.888 14.8303L102.965 13.9074L104.349 12.523L105.272 13.4459C105.333 13.5071 105.416 13.5415 105.503 13.5415H108.633C108.813 13.5415 108.959 13.3954 108.959 13.2152Z" fill="#0063F5"/>
<path fill-rule="evenodd" clip-rule="evenodd" d="M55.4467 15.8256V14.5204H57.4045V15.8256C57.4045 17.8079 55.7975 19.4148 53.8152 19.4148H50.797L50.2259 17.4571H53.8152C54.7163 17.4571 55.4467 16.7266 55.4467 15.8256Z" fill="#0063F5"/>
<path fill-rule="evenodd" clip-rule="evenodd" d="M45.9839 15.1046V0.00012207H47.9416V15.1046C47.9416 17.4851 46.0119 19.4148 43.6314 19.4148C42.1725 19.4148 40.8126 18.6768 40.0176 17.4536L39.8794 17.2411C39.0866 16.0214 38.8928 14.507 39.3528 13.1269L40.3553 10.4416H42.3947L41.2101 13.746C40.9386 14.5605 41.053 15.4543 41.5209 16.1742L41.6591 16.3866C42.093 17.0542 42.8352 17.457 43.6314 17.457C44.9306 17.457 45.9839 16.4038 45.9839 15.1046Z" fill="#0063F5"/>
<path fill-rule="evenodd" clip-rule="evenodd" d="M97.4894 12.5331L96.6058 13.4426C96.5444 13.5058 96.46 13.5415 96.3718 13.5415H56.2623V15.4993H96.3718C96.989 15.4993 97.5799 15.2495 98.01 14.8068L98.8936 13.8973L97.4894 12.5331Z" fill="#0063F5"/>
<rect x="105.37" y="0.00012207" width="5.54705" height="1.95778" fill="#0063F5"/>
<path fill-rule="evenodd" clip-rule="evenodd" d="M51.8411 0.00012207V1.71318C51.8411 2.05843 52.1348 2.28276 52.4284 2.28276C52.7221 2.28276 53.0158 2.05843 53.0158 1.71318V0.448781L54.631 0.00012207V1.71318C54.631 2.9363 53.6043 3.92784 52.4284 3.92784C51.2526 3.92784 50.2259 2.9363 50.2259 1.71318V0.00012207H51.8411Z" fill="#0063F5"/>
<path fill-rule="evenodd" clip-rule="evenodd" d="M54.6147 0.00012207L54.6146 1.71463C54.6146 2.05987 54.8985 2.2842 55.202 2.2842C55.5055 2.2842 55.7893 2.05987 55.7893 1.71463L55.7894 0.448781L57.4045 0.00012207L57.4045 1.71463C57.4045 2.93775 56.3778 3.92929 55.202 3.92929C54.0261 3.92929 52.9995 2.93775 52.9995 1.71463L52.9995 0.448781L54.6147 0.00012207Z" fill="#0063F5"/>
<path fill-rule="evenodd" clip-rule="evenodd" d="M97.3757 10.768C97.3757 8.78568 98.9827 7.17871 100.965 7.17871C102.947 7.17871 104.554 8.78568 104.554 10.768V11.91C104.554 13.8923 102.947 15.4993 100.965 15.4993C98.9827 15.4993 97.3757 13.8923 97.3757 11.91V10.768ZM100.965 9.13649C100.064 9.13649 99.3335 9.86694 99.3335 10.768V11.91C99.3335 12.8111 100.064 13.5415 100.965 13.5415C101.866 13.5415 102.596 12.8111 102.596 11.91V10.768C102.596 9.86694 101.866 9.13649 100.965 9.13649Z" fill="#0063F5"/>
<path fill-rule="evenodd" clip-rule="evenodd" d="M50.2259 10.768C50.2259 8.78568 51.8329 7.17871 53.8152 7.17871C55.7975 7.17871 57.4045 8.78568 57.4045 10.768V15.4993H53.8152C51.8329 15.4993 50.2259 13.8923 50.2259 11.91V10.768ZM53.8152 9.13649C52.9142 9.13649 52.1837 9.86694 52.1837 10.768V11.91C52.1837 12.8111 52.9142 13.5415 53.8152 13.5415H55.4467V10.768C55.4467 9.86694 54.7163 9.13649 53.8152 9.13649Z" fill="#0063F5"/>
<path d="M41.6367 0.00012207C43.3035 0.000259997 44.6543 1.35183 44.6543 3.01868C44.6541 4.68538 43.3034 6.03612 41.6367 6.03625C39.9699 6.03625 38.6183 4.68547 38.6181 3.01868C38.6181 1.35174 39.9698 0.00012207 41.6367 0.00012207ZM41.6367 0.391724C40.186 0.391724 39.0097 1.56799 39.0097 3.01868C39.0099 4.46922 40.1861 5.64465 41.6367 5.64465C43.0872 5.64452 44.2625 4.46913 44.2627 3.01868C44.2627 1.56808 43.0873 0.391862 41.6367 0.391724ZM41.8359 1.63196C42.081 1.63206 42.2884 1.7177 42.458 1.88977C42.6303 2.05945 42.7168 2.26744 42.7168 2.51282C42.7167 2.68763 42.6652 2.84814 42.5634 2.99426C42.4643 3.13774 42.3336 3.24251 42.1718 3.30774L42.7949 4.37219H42.3017L41.7217 3.37415H41.1894V4.37219H40.7392V1.63196H41.8359ZM41.1894 2.97083H41.8359C41.9556 2.97072 42.0572 2.92641 42.1406 2.83801C42.2241 2.74931 42.2665 2.64063 42.2666 2.51282C42.2666 2.38491 42.2241 2.27637 42.1406 2.18762C42.0572 2.09907 41.9557 2.05492 41.8359 2.05481H41.1894V2.97083Z" fill="#0063F5"/>
<path d="M115.217 19.9043C116.884 19.9045 118.234 21.256 118.234 22.9229C118.234 24.5895 116.883 25.9402 115.217 25.9404C113.55 25.9404 112.198 24.5896 112.198 22.9229C112.198 21.2559 113.55 19.9043 115.217 19.9043ZM115.217 20.2959C113.766 20.2959 112.59 21.4722 112.59 22.9229C112.59 24.3734 113.766 25.5488 115.217 25.5488C116.667 25.5486 117.843 24.3733 117.843 22.9229C117.843 21.4723 116.667 20.2961 115.217 20.2959ZM115.415 21.5361C115.66 21.5361 115.868 21.6217 116.038 21.7939C116.21 21.9636 116.297 22.1716 116.297 22.417C116.297 22.5918 116.245 22.7523 116.144 22.8984C116.044 23.0419 115.914 23.1467 115.752 23.2119L116.375 24.2764H115.882L115.302 23.2783H114.77V24.2764H114.319V21.5361H115.415ZM114.77 22.875H115.415C115.535 22.875 115.637 22.8307 115.721 22.7422C115.804 22.6535 115.847 22.5448 115.847 22.417C115.847 22.2891 115.804 22.1805 115.721 22.0918C115.637 22.0031 115.535 21.959 115.415 21.959H114.77V22.875Z" fill="#0063F5"/>
</svg>
