<svg width="48" height="48" viewBox="0 0 48 48" fill="none" xmlns="http://www.w3.org/2000/svg">
<g clip-path="url(#clip0_2497_14505)">
<path d="M21.539 16.7435C23.0185 15.8904 24.8407 15.8872 26.3242 16.7351L44.4214 27.0783C45.4089 27.6427 45.4152 29.0631 44.4326 29.6351L26.3346 40.1709C24.837 41.0427 22.9849 41.0401 21.4888 40.1642L3.55213 29.663C2.57411 29.0905 2.57821 27.6767 3.55953 27.1109L21.539 16.7435Z" fill="#FFDD33"/>
<mask id="path-2-outside-1_2497_14505" maskUnits="userSpaceOnUse" x="1.40039" y="6.94775" width="45" height="31" fill="black">
<rect fill="white" x="1.40039" y="6.94775" width="45" height="31"/>
<path fill-rule="evenodd" clip-rule="evenodd" d="M9.55866 14.5054C9.40719 14.239 9.50068 13.9 9.76729 13.749L19.8778 8.0198C20.1445 7.86868 20.483 7.96306 20.633 8.23037L21.9883 10.6452C23.3783 10.0269 24.993 10.1002 26.3318 10.8657L44.8741 21.467C45.3322 21.7289 45.5792 22.1747 45.6143 22.6344H45.6184V22.7193C45.6188 22.739 45.6188 22.7588 45.6184 22.7785V24.8292C45.6284 25.3336 45.3844 25.8422 44.8855 26.1323L26.3602 36.9034C24.8615 37.7748 23.0077 37.7713 21.5103 36.8944L3.13162 26.1311C2.56752 25.8007 2.33006 25.1911 2.41833 24.6258V22.9786C2.32961 22.4102 2.57009 21.798 3.13885 21.4705L10.9585 16.9672L9.55866 14.5054Z"/>
</mask>
<path fill-rule="evenodd" clip-rule="evenodd" d="M9.55866 14.5054C9.40719 14.239 9.50068 13.9 9.76729 13.749L19.8778 8.0198C20.1445 7.86868 20.483 7.96306 20.633 8.23037L21.9883 10.6452C23.3783 10.0269 24.993 10.1002 26.3318 10.8657L44.8741 21.467C45.3322 21.7289 45.5792 22.1747 45.6143 22.6344H45.6184V22.7193C45.6188 22.739 45.6188 22.7588 45.6184 22.7785V24.8292C45.6284 25.3336 45.3844 25.8422 44.8855 26.1323L26.3602 36.9034C24.8615 37.7748 23.0077 37.7713 21.5103 36.8944L3.13162 26.1311C2.56752 25.8007 2.33006 25.1911 2.41833 24.6258V22.9786C2.32961 22.4102 2.57009 21.798 3.13885 21.4705L10.9585 16.9672L9.55866 14.5054Z" fill="white"/>
<path d="M9.76729 13.749L9.58526 13.4277H9.58526L9.76729 13.749ZM9.55866 14.5054L9.23769 14.6879V14.6879L9.55866 14.5054ZM19.8778 8.0198L19.6958 7.69855V7.69855L19.8778 8.0198ZM20.633 8.23037L20.955 8.04966V8.04966L20.633 8.23037ZM21.9883 10.6452L21.6663 10.8259L21.8309 11.1193L22.1383 10.9825L21.9883 10.6452ZM26.3318 10.8657L26.5151 10.5451V10.5451L26.3318 10.8657ZM44.8741 21.467L44.6909 21.7875V21.7875L44.8741 21.467ZM45.6143 22.6344L45.2462 22.6625L45.2722 23.0036H45.6143V22.6344ZM45.6184 22.6344H45.9876V22.2652H45.6184V22.6344ZM45.6184 22.7193H45.2491L45.2493 22.7265L45.6184 22.7193ZM45.6184 22.7785L45.2492 22.7712V22.7785H45.6184ZM45.6184 24.8292H45.2491L45.2493 24.8365L45.6184 24.8292ZM44.8855 26.1323L45.0711 26.4515V26.4515L44.8855 26.1323ZM26.3602 36.9034L26.1746 36.5842V36.5842L26.3602 36.9034ZM21.5103 36.8944L21.3238 37.2131V37.2131L21.5103 36.8944ZM3.13162 26.1311L3.31821 25.8125L3.31821 25.8125L3.13162 26.1311ZM2.41833 24.6258L2.78314 24.6827L2.78756 24.6544V24.6258H2.41833ZM2.41833 22.9786H2.78756V22.9499L2.78314 22.9216L2.41833 22.9786ZM3.13885 21.4705L2.95459 21.1505H2.95459L3.13885 21.4705ZM10.9585 16.9672L11.1427 17.2872L11.461 17.1039L11.2794 16.7847L10.9585 16.9672ZM9.76729 13.749L9.58526 13.4277C9.14104 13.6794 8.98532 14.2441 9.23769 14.6879L9.55866 14.5054L9.87963 14.3229C9.82906 14.234 9.86033 14.1206 9.94933 14.0702L9.76729 13.749ZM19.8778 8.0198L19.6958 7.69855L9.58526 13.4277L9.76729 13.749L9.94933 14.0702L20.0598 8.34104L19.8778 8.0198ZM20.633 8.23037L20.955 8.04966C20.7049 7.60401 20.1404 7.4466 19.6958 7.69855L19.8778 8.0198L20.0598 8.34104C20.1486 8.29075 20.2611 8.32211 20.311 8.41108L20.633 8.23037ZM21.9883 10.6452L22.3103 10.4645L20.955 8.04966L20.633 8.23037L20.311 8.41108L21.6663 10.8259L21.9883 10.6452ZM21.9883 10.6452L22.1383 10.9825C23.4215 10.4118 24.9124 10.4795 26.1486 11.1862L26.3318 10.8657L26.5151 10.5451C25.0736 9.721 23.3351 9.64205 21.8382 10.3078L21.9883 10.6452ZM26.3318 10.8657L26.1486 11.1862L44.6909 21.7875L44.8741 21.467L45.0574 21.1465L26.5151 10.5451L26.3318 10.8657ZM44.8741 21.467L44.6909 21.7875C45.0357 21.9847 45.2198 22.3166 45.2462 22.6625L45.6143 22.6344L45.9825 22.6063C45.9387 22.0327 45.6288 21.4731 45.0574 21.1465L44.8741 21.467ZM45.6143 22.6344V23.0036H45.6184V22.6344V22.2652H45.6143V22.6344ZM45.6184 22.6344H45.2492V22.7193H45.6184H45.9876V22.6344H45.6184ZM45.6184 22.7193L45.2493 22.7265C45.2495 22.7414 45.2495 22.7563 45.2493 22.7712L45.6184 22.7785L45.9876 22.7858C45.9881 22.7612 45.9881 22.7366 45.9876 22.712L45.6184 22.7193ZM45.6184 22.7785H45.2492V24.8292H45.6184H45.9876V22.7785H45.6184ZM45.6184 24.8292L45.2493 24.8365C45.2568 25.217 45.0743 25.5954 44.7 25.8131L44.8855 26.1323L45.0711 26.4515C45.6946 26.089 46 25.4501 45.9876 24.8219L45.6184 24.8292ZM44.8855 26.1323L44.7 25.8131L26.1746 36.5842L26.3602 36.9034L26.5458 37.2226L45.0711 26.4515L44.8855 26.1323ZM26.3602 36.9034L26.1746 36.5842C24.7912 37.3886 23.0795 37.3855 21.6969 36.5758L21.5103 36.8944L21.3238 37.2131C22.9358 38.1572 24.9319 38.161 26.5458 37.2226L26.3602 36.9034ZM21.5103 36.8944L21.6969 36.5758L3.31821 25.8125L3.13162 26.1311L2.94502 26.4497L21.3238 37.2131L21.5103 36.8944ZM3.13162 26.1311L3.31821 25.8125C2.89547 25.5649 2.71636 25.1104 2.78314 24.6827L2.41833 24.6258L2.05351 24.5688C1.94377 25.2718 2.23957 26.0366 2.94503 26.4497L3.13162 26.1311ZM2.41833 24.6258H2.78756V22.9786H2.41833H2.04909V24.6258H2.41833ZM2.41833 22.9786L2.78314 22.9216C2.71599 22.4915 2.89748 22.0356 3.32312 21.7904L3.13885 21.4705L2.95459 21.1505C2.24271 21.5605 1.94322 22.3289 2.05351 23.0355L2.41833 22.9786ZM3.13885 21.4705L3.32312 21.7904L11.1427 17.2872L10.9585 16.9672L10.7742 16.6472L2.95459 21.1505L3.13885 21.4705ZM9.55866 14.5054L9.23769 14.6879L10.6375 17.1497L10.9585 16.9672L11.2794 16.7847L9.87963 14.3229L9.55866 14.5054Z" fill="#1D2939" mask="url(#path-2-outside-1_2497_14505)"/>
<mask id="mask0_2497_14505" style="mask-type:alpha" maskUnits="userSpaceOnUse" x="2" y="10" width="22" height="28">
<rect x="2.40039" y="10.1537" width="21.6" height="27.5077" fill="#D0D8DC"/>
</mask>
<g mask="url(#mask0_2497_14505)">
<path d="M21.525 12.9821C23.0056 12.1294 24.8296 12.1271 26.3142 12.9759L44.8565 23.5772C45.8442 24.1419 45.8505 25.5613 44.8679 26.1326L26.3426 36.9037C24.8439 37.7751 22.9901 37.7716 21.4927 36.8947L3.114 26.1314C2.13583 25.5585 2.13984 24.1459 3.12124 23.5807L21.525 12.9821Z" fill="#D0D5DD"/>
<path d="M21.525 10.8722C23.0056 10.0195 24.8295 10.0171 26.3142 10.866L44.8565 21.4673C45.8442 22.032 45.8505 23.4513 44.8679 24.0226L26.3425 34.7937C24.8439 35.6651 22.99 35.6617 21.4927 34.7848L3.11397 24.0214C2.1358 23.4486 2.13981 22.0359 3.12121 21.4708L21.525 10.8722Z" fill="#D0D5DD"/>
<rect x="2.40039" y="22.6346" width="43.2001" height="2.21539" fill="#D0D5DD"/>
</g>
<path d="M44.9014 21.3543C45.9506 21.954 45.9569 23.4634 44.913 24.0711L26.3786 34.861C24.8523 35.7495 22.9647 35.7471 21.4398 34.8545L3.06971 24.0998C2.03056 23.4914 2.03494 21.9887 3.0776 21.3875L21.4899 10.7706C22.9978 9.90112 24.8562 9.89822 26.3682 10.7624L44.9014 21.3543Z" fill="white" stroke="#1D2939" stroke-width="0.184616"/>
<path d="M34.5273 22.6203C34.8359 22.7967 34.8375 23.2413 34.5305 23.42L24.5049 29.2562C24.2451 29.4075 23.9235 29.4065 23.6643 29.2539L16.186 24.8465C15.8816 24.6671 15.8829 24.2258 16.1887 24.0491L26.1477 18.3066C26.4037 18.159 26.7196 18.159 26.9763 18.3056L34.5273 22.6203Z" fill="white" stroke="#1D2939" stroke-width="0.184616"/>
<path d="M34.4607 22.5884C34.7696 22.7645 34.7717 23.2086 34.4647 23.3876L24.4467 29.2194C24.1821 29.3734 23.854 29.3702 23.593 29.21L20.4965 27.3093L20.3638 27.228L31.4184 20.8537L31.4642 20.8802L34.4607 22.5884Z" fill="#FFDD33" stroke="#1D2939" stroke-width="0.184616"/>
<path d="M21.758 23.734C22.0664 23.9104 22.0677 24.3541 21.7607 24.5328L20.5631 25.2301C20.3032 25.3812 19.9817 25.3805 19.7226 25.2278L19.0127 24.8096C18.7082 24.6301 18.7101 24.1883 19.0162 24.0118L20.2099 23.3234C20.4659 23.176 20.781 23.1764 21.0376 23.323L21.758 23.734Z" fill="#FFDD33" stroke="#1D2939" stroke-width="0.184616"/>
<path d="M14.0662 22.6204C14.2429 22.931 14.6383 23.039 14.9483 22.8613L24.9852 17.1071C25.2931 16.9306 25.4008 16.5386 25.2271 16.2291L20.7125 8.18498C20.5374 7.87336 20.1433 7.76345 19.8322 7.93961L9.72123 13.669C9.41046 13.8454 9.30164 14.2403 9.47829 14.551L14.0662 22.6204Z" fill="#FFDD33" stroke="#1D2939" stroke-width="0.184616"/>
<path d="M11.8484 15.8525C12.0251 16.163 12.4205 16.2711 12.7306 16.0934L13.6521 15.5645C13.9598 15.3881 14.0687 14.9963 13.8953 14.6869L13.571 14.1096C13.3959 13.798 13.0009 13.6885 12.6899 13.8647L11.7621 14.3905C11.4513 14.5669 11.3425 14.9618 11.5191 15.2724L11.8484 15.8525Z" fill="#FFDD33" stroke="#1D2939" stroke-width="0.184616"/>
<path d="M16.4844 9.86841V21.9607" stroke="black" stroke-width="0.184616"/>
<path d="M18.4219 8.66895V20.8536" stroke="black" stroke-width="0.184616"/>
<path d="M20.2676 7.93054V19.746" stroke="black" stroke-width="0.184616"/>
<path d="M22.1152 10.6068L22.1152 18.7299" stroke="black" stroke-width="0.184616"/>
<path d="M23.7773 13.6538L23.7773 17.9" stroke="black" stroke-width="0.184616"/>
</g>
<defs>
<clipPath id="clip0_2497_14505">
<rect width="48.0001" height="48.0001" fill="white"/>
</clipPath>
</defs>
</svg>
