<svg width="24" height="24" viewBox="0 0 24 24" fill="none" xmlns="http://www.w3.org/2000/svg">
<path d="M5.28089 18.65L5.85089 16.18C5.98089 15.6 5.75089 14.79 5.33089 14.37L2.85089 11.89C1.39089 10.43 1.86089 8.95001 3.90089 8.61001L7.09089 8.08001C7.62089 7.99001 8.26089 7.52002 8.50089 7.03001L10.2609 3.51001C11.2109 1.60001 12.7709 1.60001 13.7309 3.51001L15.4909 7.03001C15.6009 7.26001 15.8109 7.48001 16.0409 7.67001" stroke="#9AA4B2" stroke-width="2" stroke-linecap="round" stroke-linejoin="round"/>
<path d="M20.0995 8.60999C22.1395 8.94999 22.6195 10.43 21.1495 11.89L18.6695 14.37C18.2495 14.79 18.0195 15.6 18.1495 16.18L18.8595 19.25C19.4195 21.68 18.1295 22.62 15.9795 21.35L12.9895 19.58C12.4495 19.26 11.5595 19.26 11.0095 19.58L8.01953 21.35" stroke="#9AA4B2" stroke-width="2" stroke-linecap="round" stroke-linejoin="round"/>
<path d="M22 2L2 22" stroke="#9AA4B2" stroke-width="2" stroke-linecap="round" stroke-linejoin="round"/>
</svg>
