<svg width="137" height="150" viewBox="0 0 137 150" fill="none" xmlns="http://www.w3.org/2000/svg">
<g clip-path="url(#clip0_9057_24793)">
<path d="M138.516 40.9093V61.3654H100.118V179L79.6445 158.544V61.3654H41.2676V40.9093H138.516Z" fill="#0063F5"/>
<path d="M138.516 40.9093H139.016L138.516 40.4093V40.9093ZM138.516 61.3654V61.8654L139.016 61.3654H138.516ZM100.118 61.3654V60.8654L99.6182 61.3654H100.118ZM100.118 179L99.7648 179.354L100.618 179H100.118ZM79.6445 158.544H79.1445L79.2911 158.898L79.6445 158.544ZM79.6445 61.3654H80.1445L79.6445 60.8654V61.3654ZM41.2676 61.3654H40.7676L41.2676 61.8654V61.3654ZM41.2676 40.9093V40.4093L40.7676 40.9093H41.2676ZM138.516 40.9093H138.016V61.3654H138.516H139.016V40.9093H138.516ZM138.516 61.3654V60.8654H100.118V61.3654V61.8654H138.516V61.3654ZM100.118 61.3654H99.6182V179H100.118H100.618V61.3654H100.118ZM100.118 179L100.472 178.646L79.9979 158.19L79.6445 158.544L79.2911 158.898L99.7648 179.354L100.118 179ZM79.6445 158.544H80.1445V61.3654H79.6445H79.1445V158.544H79.6445ZM79.6445 61.3654V60.8654H41.2676V61.3654V61.8654H79.6445V61.3654ZM41.2676 61.3654H41.7676V40.9093H41.2676H40.7676V61.3654H41.2676ZM41.2676 40.9093V41.4093H138.516V40.9093V40.4093H41.2676V40.9093Z" fill="#004FC5"/>
<path d="M179.451 20.4563L158.978 0.000320667L20.7837 0.000319021L0.310435 20.4563L179.451 20.4563Z" fill="#0063F5" stroke="#004FC5" stroke-linejoin="bevel"/>
<path d="M20.7695 0L0.296303 20.456V158.534L20.7695 178.99V0Z" fill="#0063F5" stroke="#004FC5" stroke-linejoin="bevel"/>
</g>
<defs>
<clipPath id="clip0_9057_24793">
<rect width="137" height="150" fill="white"/>
</clipPath>
</defs>
</svg>
