<svg width="191" height="231" viewBox="0 0 191 231" fill="none" xmlns="http://www.w3.org/2000/svg">
<g clip-path="url(#clip0_9057_24828)">
<path d="M198.278 175.121C197.77 179.1 196.967 183.078 195.867 187.054L195.866 187.053C194.849 190.948 193.577 194.516 192.043 197.754L191.832 198.199L122.799 213.038L123.035 211.592C123.709 207.463 124.552 203.5 125.564 199.702L125.57 199.683C126.67 195.875 127.983 192.314 129.512 189.003L129.721 188.55L198.458 173.719L198.278 175.121ZM130.42 189.422C128.914 192.684 127.618 196.196 126.53 199.96C125.527 203.724 124.691 207.655 124.021 211.753L191.14 197.325C192.645 194.147 193.9 190.634 194.903 186.787C195.99 182.856 196.784 178.926 197.286 174.995L130.42 189.422ZM104.698 12.2197V108.628L123.021 106.365V43.3848L123.281 43.0986C126.554 39.49 129.953 35.9233 133.477 32.3994C137.039 28.8365 140.741 25.898 144.583 23.5928L146.098 22.6846V99.498L198.456 88.6738L198.278 90.0635C197.771 94.0389 196.967 97.9716 195.868 101.861L195.869 101.862C194.853 105.673 193.581 109.317 192.055 112.795L191.849 113.267L146.098 122.865V142.146L198.457 131.071L198.278 132.467C197.77 136.446 196.967 140.424 195.867 144.399L195.866 144.398C194.851 148.289 193.581 151.973 192.055 155.449L191.848 155.921L123.021 170.329V127.697L104.698 131.883V154.671L104.685 155.184C104.626 156.305 104.369 157.318 103.878 158.19C103.545 159.477 103.107 160.543 102.503 161.278L91.9873 177.178L91.9746 177.196L91.9619 177.214C90.5351 179.176 88.6324 180.849 86.2812 182.244C84.2927 183.538 82.0968 184.613 79.6963 185.471L79.6309 185.494L79.5635 185.509L18.8516 198.087L19.0283 196.697C19.5356 192.724 20.2971 188.793 21.3115 184.904C22.3329 180.989 23.7378 177.282 25.5283 173.786L25.7451 173.363L26.209 173.265L81.6221 161.39V136.709L29.1973 147.773L29.3115 146.432C29.651 142.443 30.3298 138.538 31.3486 134.718C32.3667 130.9 33.6828 127.249 35.2969 123.766L35.5078 123.311L35.998 123.208L81.6221 113.589V30.9951L81.8467 30.7188C84.8163 27.0704 88.0847 23.8012 91.6523 20.9131C95.2122 17.9478 99.0673 15.322 103.216 13.0361L104.698 12.2197ZM82.6221 114.4L36.2041 124.187C34.6152 127.615 33.319 131.211 32.3154 134.975L32.1309 135.682C31.2292 139.22 30.6213 142.831 30.3076 146.517L82.6221 135.477V162.198L26.4189 174.242C24.6626 177.671 23.2819 181.309 22.2783 185.156C21.2747 189.003 20.5223 192.893 20.0205 196.824L79.3604 184.529C81.702 183.693 83.8343 182.647 85.7578 181.393C88.0158 180.055 89.8142 178.466 91.1523 176.626L101.69 160.693C102.192 160.108 102.611 159.146 102.945 157.808C103.384 157.076 103.632 156.184 103.687 155.132L103.698 154.671V131.086L124.021 126.444V169.099L191.14 155.048C192.457 152.048 193.582 148.887 194.515 145.566L194.903 144.133C195.99 140.202 196.784 136.271 197.286 132.341L145.098 143.381V122.054L191.14 112.394C192.645 108.964 193.9 105.368 194.903 101.604C195.991 97.7574 196.784 93.8683 197.286 89.9375L145.098 100.727V24.4502C141.334 26.7083 137.696 29.5939 134.184 33.1064L132.872 34.4258C129.826 37.5086 126.876 40.6237 124.021 43.7705V107.25L103.698 109.759V13.9121C99.6002 16.1702 95.7949 18.7632 92.2822 21.6904C88.7695 24.534 85.5493 27.7542 82.6221 31.3506V114.4Z" fill="#364152"/>
</g>
<defs>
<clipPath id="clip0_9057_24828">
<rect width="191" height="231" fill="white"/>
</clipPath>
</defs>
</svg>
