<svg width="139" height="129" viewBox="0 0 139 129" fill="none" xmlns="http://www.w3.org/2000/svg">
<path d="M62.5885 58.3469C66.9027 55.8592 72.2164 55.8498 76.5422 58.3221L129.313 88.4829C132.193 90.1287 132.211 94.2707 129.346 95.9386L76.5724 126.661C72.2055 129.203 66.8048 129.196 62.4421 126.641L10.1389 96.0201C7.28698 94.3504 7.29893 90.2279 10.1605 88.5779L62.5885 58.3469Z" fill="#D91C1C"/>
<mask id="path-2-outside-1_9057_24879" maskUnits="userSpaceOnUse" x="4.80273" y="37.3518" width="130" height="83" fill="black">
<rect fill="white" x="4.80273" y="37.3518" width="130" height="83"/>
<path d="M62.619 41.2217C66.9364 38.7353 72.2556 38.7279 76.5848 41.2031L130.654 72.1162C131.991 72.8805 132.71 74.1819 132.811 75.5234H132.823V75.7803C132.824 75.8242 132.824 75.8682 132.823 75.9121V81.9365C132.848 83.4034 132.138 84.8812 130.687 85.7246L76.6678 117.133C72.2977 119.674 66.8915 119.663 62.5253 117.106L8.93346 85.7207C7.29654 84.7621 6.60447 82.9972 6.85143 81.3555V76.499C6.60365 74.8488 7.30397 73.0773 8.95397 72.127L62.619 41.2217Z"/>
</mask>
<path d="M62.619 41.2217C66.9364 38.7353 72.2556 38.7279 76.5848 41.2031L130.654 72.1162C131.991 72.8805 132.71 74.1819 132.811 75.5234H132.823V75.7803C132.824 75.8242 132.824 75.8682 132.823 75.9121V81.9365C132.848 83.4034 132.138 84.8812 130.687 85.7246L76.6678 117.133C72.2977 119.674 66.8915 119.663 62.5253 117.106L8.93346 85.7207C7.29654 84.7621 6.60447 82.9972 6.85143 81.3555V76.499C6.60365 74.8488 7.30397 73.0773 8.95397 72.127L62.619 41.2217Z" fill="white"/>
<path fill-rule="evenodd" clip-rule="evenodd" d="M62.619 41.2217L63.1563 42.1547V42.1547L62.619 41.2217ZM76.5848 41.2031L76.0504 42.1378L76.0504 42.1378L76.5848 41.2031ZM130.654 72.1162L131.189 71.1815L131.189 71.1815L130.654 72.1162ZM132.811 75.5234L131.738 75.6048C131.78 76.1663 132.248 76.6001 132.811 76.6001V75.5234ZM132.823 75.5234H133.9C133.9 74.9288 133.418 74.4468 132.823 74.4468V75.5234ZM132.823 75.7803H131.746C131.746 75.7864 131.746 75.7924 131.747 75.7985L132.823 75.7803ZM132.823 75.9121L131.746 75.898V75.9121H132.823ZM132.823 81.9365H131.746C131.746 81.9426 131.746 81.9487 131.747 81.9548L132.823 81.9365ZM130.687 85.7246L131.229 86.6554H131.229L130.687 85.7246ZM76.6678 117.133L76.1267 116.202H76.1267L76.6678 117.133ZM62.5253 117.106L61.9812 118.036H61.9812L62.5253 117.106ZM8.93346 85.7207L9.47757 84.7916L9.47757 84.7916L8.93346 85.7207ZM6.85143 81.3555L7.91613 81.5156C7.92411 81.4626 7.92811 81.4091 7.92811 81.3555H6.85143ZM6.85143 76.499H7.92811C7.92811 76.4455 7.92412 76.3921 7.91618 76.3392L6.85143 76.499ZM8.95397 72.127L8.41665 71.1939L8.4166 71.194L8.95397 72.127ZM62.619 41.2217L63.1563 42.1547C67.1419 39.8595 72.053 39.8523 76.0504 42.1378L76.5848 41.2031L77.1192 40.2684C72.4581 37.6035 66.731 37.6112 62.0817 40.2887L62.619 41.2217ZM76.5848 41.2031L76.0504 42.1378L130.12 73.0509L130.654 72.1162L131.189 71.1815L77.1192 40.2684L76.5848 41.2031ZM130.654 72.1162L130.12 73.0509C131.125 73.6257 131.661 74.5946 131.738 75.6048L132.811 75.5234L133.885 75.4421C133.758 73.7693 132.857 72.1352 131.189 71.1815L130.654 72.1162ZM132.811 75.5234V76.6001H132.823V75.5234V74.4468H132.811V75.5234ZM132.823 75.5234H131.746V75.7803H132.823H133.9V75.5234H132.823ZM132.823 75.7803L131.747 75.7985C131.747 75.828 131.747 75.8603 131.747 75.898L132.823 75.9121L133.9 75.9263C133.9 75.876 133.901 75.8205 133.9 75.762L132.823 75.7803ZM132.823 75.9121H131.746V81.9365H132.823H133.9V75.9121H132.823ZM132.823 81.9365L131.747 81.9548C131.765 83.0623 131.234 84.1614 130.146 84.7938L130.687 85.7246L131.229 86.6554C133.042 85.601 133.931 83.7444 133.9 81.9183L132.823 81.9365ZM130.687 85.7246L130.146 84.7938L76.1267 116.202L76.6678 117.133L77.209 118.064L131.229 86.6554L130.687 85.7246ZM76.6678 117.133L76.1267 116.202C72.0926 118.548 67.101 118.538 63.0694 116.177L62.5253 117.106L61.9812 118.036C66.6819 120.789 72.5029 120.8 77.209 118.064L76.6678 117.133ZM62.5253 117.106L63.0694 116.177L9.47757 84.7916L8.93346 85.7207L8.38936 86.6498L61.9812 118.036L62.5253 117.106ZM8.93346 85.7207L9.47757 84.7916C8.25131 84.0735 7.72919 82.7584 7.91613 81.5156L6.85143 81.3555L5.78673 81.1953C5.47975 83.2361 6.34176 85.4506 8.38936 86.6498L8.93346 85.7207ZM6.85143 81.3555H7.92811V76.499H6.85143H5.77476V81.3555H6.85143ZM6.85143 76.499L7.91618 76.3392C7.72851 75.0893 8.25719 73.7708 9.49134 73.0599L8.95397 72.127L8.4166 71.194C6.35075 72.3838 5.47878 74.6082 5.78669 76.6589L6.85143 76.499ZM8.95397 72.127L9.49129 73.06L63.1563 42.1547L62.619 41.2217L62.0817 40.2887L8.41665 71.1939L8.95397 72.127Z" fill="#364152" mask="url(#path-2-outside-1_9057_24879)"/>
<mask id="mask0_9057_24879" style="mask-type:alpha" maskUnits="userSpaceOnUse" x="6" y="39" width="64" height="81">
<rect x="6.78125" y="39.125" width="62.9856" height="80.2125" fill="#D0D8DC"/>
</mask>
<g mask="url(#mask0_9057_24879)">
<path d="M62.5491 47.3698C66.8665 44.8834 72.1852 44.8766 76.5145 47.3518L130.584 78.2652C133.464 79.9118 133.482 84.0506 130.617 85.7165L76.5971 117.125C72.227 119.666 66.8212 119.656 62.455 117.099L8.86275 85.7131C6.0104 84.0426 6.02209 79.9234 8.88384 78.2753L62.5491 47.3698Z" fill="#CDD4DF"/>
<path d="M62.549 41.2214C66.8664 38.7351 72.1851 38.7282 76.5143 41.2034L130.584 72.1168C133.464 73.7634 133.482 77.9022 130.617 79.5681L76.597 110.977C72.2269 113.518 66.8211 113.508 62.4549 110.951L8.86264 79.5647C6.0103 77.8942 6.02198 73.775 8.88374 72.127L62.549 41.2214Z" fill="#CDD4DF"/>
<rect x="6.78125" y="75.5156" width="125.971" height="6.46006" fill="#CDD4DF"/>
</g>
<path d="M130.713 71.7901C133.773 73.5388 133.792 77.9396 130.748 79.7118L76.7012 111.176C72.2503 113.767 66.7452 113.759 62.2986 111.156L8.73233 79.7948C5.70224 78.0208 5.71503 73.6403 8.75539 71.8872L62.4473 40.9274C66.8445 38.3918 72.2606 38.3828 76.6695 40.9027L130.713 71.7901Z" fill="white" stroke="#364152" stroke-width="0.538339"/>
<path d="M110.683 9.28175L108.261 4.16756C77.037 -2.93851 47.8771 2.82171 37.2001 6.59008L29.6633 38.6212C28.6763 41.4924 27.4561 50.1955 30.4708 62.039C33.4855 73.8824 45.3648 83.6622 50.9277 87.0717L53.3502 88.4176C85.6505 84.5415 99.6473 58.8089 102.608 46.4271L110.683 9.28175Z" fill="#364152" stroke="#364152" stroke-width="0.538339"/>
<path d="M110.683 9.2824L108.261 4.16821C76.4988 -3.90689 47.8771 2.82236 37.2001 6.59073L29.6633 38.6219C28.6763 41.493 27.4561 50.1962 30.4708 62.0396C33.4855 73.8831 45.3648 83.6629 50.9277 87.0724L53.3502 88.4182C85.6505 84.5422 99.6473 58.8096 102.608 46.4278L110.683 9.2824Z" fill="#D91C1C" stroke="#364152" stroke-width="0.538339"/>
<path d="M68.9609 6.04897L95.3885 25.9992L97.493 24.6533L71.0655 4.70312L68.9609 6.04897Z" fill="#F96666" stroke="#F03838" stroke-width="0.538339"/>
<path d="M72.7344 3.60156L99.1619 23.5518L100.777 16.0467V6.86327L72.7344 3.60156Z" fill="#F96666" stroke="#F03838" stroke-width="0.538339"/>
<path d="M37.2043 6.86244C48.061 2.73518 77.4179 -3.52775 107.995 4.43959L97.7668 48.3136C94.0882 58.9906 79.5713 81.5292 50.9319 86.2667C45.6382 83.2162 34.2972 74.5306 31.2825 64.1945C27.5143 51.2749 28.3211 45.3533 29.3977 39.4318C30.259 34.6945 34.9612 15.7451 37.2043 6.86244ZM97.2229 9.82338C69.445 5.08612 47.9656 8.65685 40.967 11.1691C39.4418 16.642 36.4451 29.7949 34.5071 37.547C32.5691 45.2991 33.34 51.9037 33.968 54.2365C36.9828 67.1563 47.4267 75.9491 52.2717 78.7306C68.691 73.8856 81.6117 60.9655 85.3801 54.7745C88.3948 49.8219 90.2246 41.9439 90.7629 38.6242L97.2229 9.82338Z" fill="white"/>
<path d="M97.2233 9.82323C69.445 5.08585 47.9652 8.65676 40.9668 11.169C39.4416 16.6421 36.4449 29.7954 34.5068 37.5475C32.5688 45.2996 33.3404 51.9032 33.9685 54.236C36.9832 67.1561 47.427 75.949 52.272 78.7304C68.6913 73.8853 81.6115 60.9652 85.3798 54.7743C88.3945 49.8216 90.2249 41.9439 90.7632 38.6242L97.2233 9.82323Z" stroke="#364152" stroke-width="0.538339"/>
<path d="M66.0098 18.2242C69.0577 19.0022 70.8575 22.1481 69.9838 25.1699L63.9369 46.0839C63.2444 48.4793 60.8667 49.9757 58.4075 49.5637C55.6281 49.098 53.8094 46.3939 54.4265 43.6443L59.1967 22.4014C59.8848 19.3378 62.9674 17.4478 66.0098 18.2242Z" fill="white" stroke="black" stroke-width="0.5"/>
<rect x="50.9673" y="53.0316" width="10.5" height="10.5" rx="5.25" transform="rotate(3.80065 50.9673 53.0316)" fill="white" stroke="black" stroke-width="0.5"/>
</svg>
