<svg width="112" height="100" viewBox="0 0 112 100" fill="none" xmlns="http://www.w3.org/2000/svg">
<path d="M49.3352 44.597C52.724 42.6429 56.8979 42.6355 60.2959 44.5776L101.748 68.269C104.01 69.5618 104.024 72.8154 101.774 74.1255L60.3196 98.258C56.8894 100.255 52.6471 100.249 49.2202 98.2428L8.13574 74.1895C5.89554 72.878 5.90493 69.6398 8.15268 68.3437L49.3352 44.597Z" fill="#FFDD33"/>
<mask id="path-2-outside-1_9057_24905" maskUnits="userSpaceOnUse" x="4.5" y="28.6804" width="101" height="65" fill="black">
<rect fill="white" x="4.5" y="28.6804" width="101" height="65"/>
<path d="M49.3448 31.1492C52.736 29.1962 56.9139 29.1903 60.3145 31.1345L102.786 55.4177C103.836 56.0182 104.402 57.0405 104.481 58.0945H104.489V58.2771C104.49 58.3211 104.49 58.365 104.489 58.4089V63.1121C104.515 64.2704 103.958 65.4401 102.813 66.1062L60.3789 90.7781C56.9463 92.7737 52.7001 92.7651 49.2705 90.7566L7.17386 66.1033C5.88875 65.3507 5.34505 63.9655 5.53812 62.6765V58.8601C5.34348 57.5638 5.89425 56.172 7.19046 55.4255L49.3448 31.1492Z"/>
</mask>
<path d="M49.3448 31.1492C52.736 29.1962 56.9139 29.1903 60.3145 31.1345L102.786 55.4177C103.836 56.0182 104.402 57.0405 104.481 58.0945H104.489V58.2771C104.49 58.3211 104.49 58.365 104.489 58.4089V63.1121C104.515 64.2704 103.958 65.4401 102.813 66.1062L60.3789 90.7781C56.9463 92.7737 52.7001 92.7651 49.2705 90.7566L7.17386 66.1033C5.88875 65.3507 5.34505 63.9655 5.53812 62.6765V58.8601C5.34348 57.5638 5.89425 56.172 7.19046 55.4255L49.3448 31.1492Z" fill="white"/>
<path d="M49.3448 31.1492L48.9227 30.4163L48.9227 30.4163L49.3448 31.1492ZM60.3145 31.1345L60.7343 30.4003L60.7342 30.4003L60.3145 31.1345ZM102.786 55.4177L103.206 54.6835L103.206 54.6835L102.786 55.4177ZM104.481 58.0945L103.638 58.1582L103.697 58.9402H104.481V58.0945ZM104.489 58.0945H105.335V57.2488H104.489V58.0945ZM104.489 58.2771H103.644V58.2865L103.644 58.296L104.489 58.2771ZM104.489 58.4089L103.644 58.3954V58.4089H104.489ZM104.489 63.1121H103.644V63.1215L103.644 63.131L104.489 63.1121ZM102.813 66.1062L103.238 66.8373L103.238 66.8373L102.813 66.1062ZM60.3789 90.7781L60.804 91.5092L60.804 91.5092L60.3789 90.7781ZM49.2705 90.7566L49.6979 90.0268H49.6979L49.2705 90.7566ZM7.17386 66.1033L6.74646 66.8331H6.74647L7.17386 66.1033ZM5.53812 62.6765L6.37452 62.8018L6.38385 62.7395V62.6765H5.53812ZM5.53812 58.8601H6.38385V58.797L6.37448 58.7345L5.53812 58.8601ZM7.19046 55.4255L6.7684 54.6927H6.76839L7.19046 55.4255ZM49.3448 31.1492L49.7668 31.8821C52.8974 30.0793 56.7548 30.0736 59.8947 31.8687L60.3145 31.1345L60.7342 30.4003C57.073 28.3071 52.5747 28.3132 48.9227 30.4163L49.3448 31.1492ZM60.3145 31.1345L59.8947 31.8687L102.366 56.1519L102.786 55.4177L103.206 54.6835L60.7343 30.4003L60.3145 31.1345ZM102.786 55.4177L102.366 56.1519C103.157 56.6038 103.578 57.3651 103.638 58.1582L104.481 58.0945L105.325 58.0308C105.225 56.7159 104.516 55.4326 103.206 54.6835L102.786 55.4177ZM104.481 58.0945V58.9402H104.489V58.0945V57.2488H104.481V58.0945ZM104.489 58.0945H103.644V58.2771H104.489H105.335V58.0945H104.489ZM104.489 58.2771L103.644 58.296C103.644 58.3245 103.644 58.3563 103.644 58.3954L104.489 58.4089L105.335 58.4225C105.336 58.3737 105.336 58.3177 105.335 58.2583L104.489 58.2771ZM104.489 58.4089H103.644V63.1121H104.489H105.335V58.4089H104.489ZM104.489 63.1121L103.644 63.131C103.663 64.0059 103.246 64.8757 102.387 65.3751L102.813 66.1062L103.238 66.8373C104.67 66.0044 105.367 64.5348 105.335 63.0931L104.489 63.1121ZM102.813 66.1062L102.387 65.3751L59.9538 90.047L60.3789 90.7781L60.804 91.5092L103.238 66.8373L102.813 66.1062ZM60.3789 90.7781L59.9539 90.0469C56.7853 91.889 52.8647 91.8814 49.6979 90.0268L49.2705 90.7566L48.8431 91.4864C52.5354 93.6487 57.1073 93.6583 60.804 91.5092L60.3789 90.7781ZM49.2705 90.7566L49.6979 90.0268L7.60126 65.3735L7.17386 66.1033L6.74647 66.8331L48.8431 91.4864L49.2705 90.7566ZM7.17386 66.1033L7.60126 65.3735C6.63855 64.8097 6.22838 63.7775 6.37452 62.8018L5.53812 62.6765L4.70171 62.5512C4.46172 64.1535 5.13896 65.8917 6.74646 66.8331L7.17386 66.1033ZM5.53812 62.6765H6.38385V58.8601H5.53812H4.69238V62.6765H5.53812ZM5.53812 58.8601L6.37448 58.7345C6.2271 57.753 6.6428 56.7169 7.61253 56.1584L7.19046 55.4255L6.76839 54.6927C5.14571 55.6271 4.45985 57.3745 4.70176 58.9857L5.53812 58.8601ZM7.19046 55.4255L7.61253 56.1584L49.7668 31.8821L49.3448 31.1492L48.9227 30.4163L6.7684 54.6927L7.19046 55.4255Z" fill="#1D2939" mask="url(#path-2-outside-1_9057_24905)"/>
<mask id="mask0_9057_24905" style="mask-type:alpha" maskUnits="userSpaceOnUse" x="5" y="29" width="50" height="64">
<rect x="5.49609" y="29.5007" width="49.4755" height="63.0073" fill="#D0D8DC"/>
</mask>
<g mask="url(#mask0_9057_24905)">
<path d="M49.3027 35.9792C52.6941 34.0261 56.8719 34.0207 60.2726 35.965L102.744 60.2476C105.007 61.5411 105.021 64.7921 102.77 66.1007L60.3375 90.7723C56.9047 92.7682 52.6585 92.7603 49.2288 90.7517L7.13177 66.098C4.89124 64.7858 4.90042 61.5502 7.14834 60.2556L49.3027 35.9792Z" fill="#D0D5DD"/>
<path d="M49.3026 31.1479C52.694 29.1948 56.8718 29.1895 60.2725 31.1337L102.744 55.4164C105.006 56.7098 105.021 59.9608 102.77 61.2694L60.3374 85.941C56.9047 87.9369 52.6584 87.9291 49.2287 85.9205L7.13169 61.2667C4.89116 59.9546 4.90034 56.7189 7.14826 55.4244L49.3026 31.1479Z" fill="#D0D5DD"/>
<rect x="5.49609" y="58.093" width="98.9511" height="5.07442" fill="#D0D5DD"/>
</g>
<path d="M102.847 55.16C105.25 56.5336 105.265 59.9907 102.874 61.3827L60.4194 86.0972C56.9233 88.1325 52.5998 88.1268 49.107 86.082L7.02969 61.4477C4.64977 60.0541 4.65951 56.6134 7.04744 55.2363L49.2237 30.9166C52.6777 28.9252 56.9321 28.9177 60.3953 30.897L102.847 55.16Z" fill="white" stroke="#1D2939" stroke-width="0.422868"/>
<path d="M42.1475 71.7839L70.893 64.049C71.414 63.9088 71.9054 63.6756 72.3434 63.3607C75.2498 61.2714 74.6521 56.7856 71.3002 55.5301L36.3518 42.4396C34.0718 41.5856 31.5343 41.7556 29.3886 42.9062L14.165 51.0692L6.97774 55.4824C4.7876 56.8273 4.83781 60.0268 7.06905 61.3023L23.9631 70.9594C25.2412 71.69 26.688 72.0743 28.1602 72.0743H39.9499C40.692 72.0743 41.4309 71.9767 42.1475 71.7839Z" fill="#D0D5DD"/>
<path d="M32.8206 7.6987C28.1689 10.0833 25.2666 15.1625 24.5589 17.7749C24.1342 17.7749 23.7178 22.7551 24.1342 27.5422C24.8139 35.3561 27.1712 48.1193 28.265 53.5241C31.23 62.141 37.9165 63.9863 40.8892 63.8319C48.6619 63.9091 65.296 64.0172 69.6507 63.8319C75.0942 63.6003 77.3719 61.0909 82.661 56.4968C86.8922 52.8215 85.8653 43.1777 84.8229 38.8152L80.4603 14.6092C78.7616 8.58664 74.0132 6.42473 67.6432 6.00003C62.5472 5.66028 46.4985 5.87151 39.5236 6.01308C39.0604 5.83291 36.1341 6.00003 32.8206 7.6987Z" fill="#003788" stroke="black" stroke-width="0.197382"/>
<path d="M36.7983 53.6812L30.9688 58.6227C31.8026 60.1052 33.8127 61.6083 34.7135 62.1745C37.7094 63.8423 40.9806 63.9246 42.2417 63.7573H71.0032C74.3697 63.8191 79.9212 59.1246 82.2762 56.7696C80.9482 57.7271 77.8108 58.1466 76.4081 58.2367C67.0912 58.7643 47.4844 59.5802 43.5929 58.6227C39.7014 57.6653 37.4417 54.9294 36.7983 53.6812Z" fill="black" stroke="black" stroke-width="0.197382"/>
<path d="M69.3467 63.8685L77.4153 58.232C80.3494 57.7996 82.0352 57.0223 82.5113 56.6877C80.9542 58.1676 77.2918 61.3977 75.099 62.4787C72.9062 63.5596 70.3504 63.8556 69.3467 63.8685Z" fill="#003788" stroke="black" stroke-width="0.197382"/>
<path d="M29.8534 16.3462L24.0625 24.2604C23.8154 22.3147 24.1655 19.2545 24.3714 17.9677C26.0083 12.1304 30.2266 8.92097 32.1312 8.0459C29.9384 9.55926 29.699 14.21 29.8534 16.3462Z" fill="#3587FF" stroke="black" stroke-width="0.197382"/>
<path d="M34.7094 50.1629L28.9957 55.1817L28.3008 53.6761L34.1689 48.5801C34.2307 49.2287 34.555 49.9056 34.7094 50.1629Z" fill="#D9D9D9" stroke="black" stroke-width="0.197382"/>
<path d="M32.825 7.69744C30.7896 8.85654 29.8525 11.5967 29.8525 15.3414C29.8525 19.0862 30.2081 21.2868 30.6245 26.0739C31.3042 33.8878 32.825 42.6359 34.3308 49.1218C37.2958 57.7386 43.9824 59.0821 46.955 58.9277C54.7277 59.0049 65.4936 58.6883 69.8484 58.503C75.2919 58.2714 80.1176 58.503 82.6654 56.4955C87.0675 53.0268 85.8697 43.1764 84.8273 38.8139L80.4647 14.6079C78.766 8.58539 74.0176 6.42347 67.6476 5.99878C62.5516 5.65902 47.6314 5.67989 40.6566 5.82146C37.9688 5.87601 35.0074 6.45459 32.825 7.69744Z" fill="#0063F5" stroke="black" stroke-width="0.197382"/>
<path d="M36.516 9.83945C34.7075 10.8731 33.875 13.3165 33.875 16.6558C33.875 19.9951 34.1909 21.9574 34.5609 26.2262C35.1648 33.1941 36.516 40.995 37.8539 46.7786C40.4882 54.4625 46.4292 55.6605 49.0704 55.5228C55.9763 55.5916 65.5417 55.3093 69.4109 55.1441C74.2473 54.9375 78.535 55.1441 80.7986 53.3539C84.7099 50.2608 83.6456 41.477 82.7195 37.5868L78.8433 16.0017C77.3341 10.6313 73.1152 8.70342 67.4555 8.32471C62.9278 8.02174 49.6713 8.04035 43.4743 8.16659C41.0862 8.21524 38.455 8.73117 36.516 9.83945Z" fill="white" stroke="black" stroke-width="0.197382"/>
<path d="M52.7363 45.0667C62.6967 46.0319 72.1552 46.4952 84.7408 44.063L52.7363 45.0667Z" fill="#D9D9D9"/>
<path d="M42.8117 11.6996L41.8808 13.1994C41.5854 13.6753 41.4773 14.2439 41.5775 14.795L46.7484 43.2526C46.9486 44.3547 47.9261 45.1438 49.0457 45.1071L93.5838 43.6468C93.9849 43.6337 94.3753 43.5139 94.7148 43.2999L95.9722 42.5071L89.0231 13.9388C74.5381 11.8077 52.1801 11.5581 42.8117 11.6996Z" fill="url(#paint0_linear_9057_24905)" stroke="black" stroke-width="0.197382" stroke-linejoin="round"/>
<path d="M62.8905 27.6459C57.3312 23.7235 46.959 15.4592 42.9697 11.8174L89.0654 14.0179C87.0578 16.9211 81.4214 23.8679 77.4063 27.6459C79.4138 28.8504 82.6825 32.0212 84.0852 33.2051L48.6834 43.3585C53.2544 37.5522 60.3939 30.4641 62.8905 27.6459Z" fill="black" stroke="black" stroke-width="0.197382"/>
<path d="M69.3762 25.2125C65.5773 25.6757 53.8179 37.7594 48.4131 43.7434L96.0144 42.508C88.7178 36.5498 73.175 24.7492 69.3762 25.2125Z" fill="#FFDD33" stroke="black" stroke-width="0.197382" stroke-linejoin="round"/>
<path d="M71.2289 30.7376C67.0862 30.7376 50.639 18.0233 42.9307 11.782C66.2487 11.2878 83.3769 13.0946 89.0263 14.0597C85.2043 18.8081 74.7421 30.7376 71.2289 30.7376Z" fill="#FFDD33" stroke="black" stroke-width="0.197382" stroke-linejoin="round"/>
<path d="M42.8072 11.7827L41.9595 13.2213C41.6845 13.688 41.5862 14.2378 41.6827 14.7708L47.1697 45.0997L48.2893 43.7485L42.8072 11.7827Z" fill="black" stroke="black" stroke-width="0.197382" stroke-linejoin="round"/>
<path d="M48.2934 43.8204L47.1738 45.0944L93.344 43.8394C93.7985 43.827 94.2387 43.6779 94.607 43.4114L95.8561 42.5078L48.2934 43.8204Z" fill="black" stroke="black" stroke-width="0.197382" stroke-linejoin="round"/>
<path d="M13.0327 42.5669C13.9592 43.9567 14.6541 44.2527 14.8858 44.227C20.6613 41.6636 25.348 37.9341 26.9694 36.3898C27.093 35.5868 26.2488 34.3051 25.8113 33.7646C23.9324 30.8691 20.0049 24.8157 19.3254 23.7656C18.646 22.7155 16.3399 19.4933 15.2718 18.0134C13.7276 16.4949 9.56586 14.1837 5.27287 17.0869C0.979874 19.9901 2.17151 25.2456 3.30396 27.5105C6.16081 31.9502 12.1061 41.1771 13.0327 42.5669Z" fill="#FFDD33" stroke="black" stroke-width="0.197382"/>
<path d="M15.2276 40.1428C13.7451 41.9341 14.3525 43.5401 14.8415 44.1192C17.1837 47.6452 22.3003 55.3381 24.0298 57.9015C25.7594 60.465 27.1955 62.5471 27.6974 63.2678C30.23 66.2636 35.2127 69.0716 37.3875 70.1011C37.8199 67.692 40.3216 67.0898 41.5184 67.0898C41.4257 59.6465 38.5972 54.1568 37.1945 52.3423C33.913 47.3364 27.2187 37.0852 26.6937 36.1277C26.1686 35.1703 24.9306 34.9052 24.3773 34.8923C21.366 34.9695 17.0807 37.9036 15.2276 40.1428Z" fill="#FFDD33" stroke="black" stroke-width="0.197382"/>
<path d="M29.1686 62.6407C27.9641 61.22 19.015 47.4299 14.6525 40.9055C13.9731 41.9556 14.4983 43.6852 14.8844 44.2256C17.9343 48.8198 24.3197 58.4327 25.4625 60.1313C26.6052 61.83 28.152 63.7217 28.7826 64.4552C30.821 66.401 35.3713 69.0236 37.3917 70.0917C37.4226 69.752 37.7392 69.0751 37.8936 68.7791C35.4872 67.3249 30.3732 64.0614 29.1686 62.6407Z" fill="black" stroke="black" stroke-width="0.197382"/>
<path d="M5.18384 17.2208C5.26786 17.1521 5.3498 17.0956 5.42818 17.0525C5.34475 17.1077 5.26331 17.1638 5.18384 17.2208C4.04031 18.1566 2.51301 21.3772 4.34721 24.5421C6.31617 27.9394 14.8867 40.5636 14.8867 40.5636C14.462 41.1684 13.8675 42.7487 14.8867 44.2312C14.655 44.2569 13.9833 43.9995 13.1494 42.7641C12.3155 41.5287 6.23892 32.1603 3.30486 27.6306C2.20658 25.3583 1.086 20.1585 5.18384 17.2208Z" fill="black"/>
<path d="M5.42818 17.0525C4.28287 17.6831 2.37826 21.1447 4.34721 24.5421C6.31617 27.9394 14.8867 40.5636 14.8867 40.5636C14.462 41.1684 13.8675 42.7487 14.8867 44.2312C14.655 44.2569 13.9833 43.9995 13.1494 42.7641C12.3155 41.5287 6.23892 32.1603 3.30486 27.6306C2.18528 25.3142 1.04253 19.9557 5.42818 17.0525Z" stroke="black" stroke-width="0.197382"/>
<path d="M40.4757 71.8674L37.4258 70.0529C37.8582 67.6748 40.3084 67.106 41.4794 67.1189L41.8655 71.2497C41.6184 72.0218 40.836 71.9832 40.4757 71.8674Z" fill="#D9D9D9" stroke="black" stroke-width="0.197382"/>
<path d="M40.7845 71.0519L38.0049 68.8127C37.5725 69.2451 37.4386 69.8165 37.4258 70.0481C38.4167 70.7559 40.5683 72.1174 41.2478 71.9012C41.9272 71.685 41.917 70.9618 41.8269 70.6272C41.518 71.3685 41.0033 71.2192 40.7845 71.0519Z" fill="black" stroke="black" stroke-width="0.197382"/>
<path d="M2.6085 30.0637C2.17611 28.8592 2.91735 27.9661 3.34201 27.6702L5.00201 30.1796C4.22989 30.4884 4.34571 31.3377 4.50013 31.7238L9.63474 39.4064C10.0337 39.4321 10.9782 39.6535 11.565 40.333C12.2986 41.1823 12.5688 42.2247 12.3758 43.2284C12.2213 44.0314 11.4621 43.6659 11.1018 43.3828L9.09426 40.333C7.1125 37.4118 3.04088 31.2683 2.6085 30.0637Z" fill="black" stroke="black" stroke-width="0.197382"/>
<path d="M12.0675 42.3019C11.7587 43.1358 10.8579 42.6493 10.4461 42.3019C8.2069 38.9303 3.54327 31.8319 2.80203 30.4112C2.0608 28.9905 2.87925 27.9919 3.38112 27.6702L4.3463 29.1758C3.57418 30.1641 4.12754 31.312 4.50073 31.7624L9.63533 39.3678C10.7781 39.5222 11.3726 40.1013 11.527 40.3716C11.8359 40.6675 12.3764 41.468 12.0675 42.3019Z" fill="#DBBE2C" stroke="black" stroke-width="0.197382"/>
<defs>
<linearGradient id="paint0_linear_9057_24905" x1="46.3031" y1="29.5328" x2="91.4965" y2="28.4029" gradientUnits="userSpaceOnUse">
<stop stop-color="#FFDD33"/>
<stop offset="0.5738" stop-color="#DBBE2C"/>
<stop offset="1" stop-color="#FFDD33"/>
</linearGradient>
</defs>
</svg>
