<svg width="100" height="100" viewBox="0 0 100 100" fill="none" xmlns="http://www.w3.org/2000/svg">
<g clip-path="url(#clip0_9057_25101)">
<path d="M45.0631 34.8842C48.1454 33.1068 51.9417 33.1001 55.0322 34.8665L92.7346 56.4148C94.792 57.5906 94.805 60.5499 92.758 61.7415L55.0539 83.691C51.9339 85.5073 48.0754 85.502 44.9584 83.6771L7.59051 61.7997C5.55296 60.6068 5.5615 57.6615 7.60592 56.4827L45.0631 34.8842Z" fill="#FFDD33"/>
<mask id="path-2-outside-1_9057_25101" maskUnits="userSpaceOnUse" x="4.19336" y="20.3157" width="92" height="59" fill="black">
<rect fill="white" x="4.19336" y="20.3157" width="92" height="59"/>
<path d="M45.0716 22.6513C48.1562 20.8749 51.9561 20.8702 55.0492 22.6386L93.6791 44.7246C94.6331 45.2702 95.1468 46.1986 95.2201 47.1562H95.2298V51.7763C95.2346 52.8115 94.7261 53.8481 93.7025 54.4433L55.1078 76.8837C51.9857 78.6988 48.1235 78.6919 45.0043 76.8652L6.71519 54.4414C5.5421 53.7543 5.04867 52.4875 5.22984 51.3115V47.8642C5.04891 46.6826 5.54888 45.4121 6.73082 44.7314L45.0716 22.6513Z"/>
</mask>
<path d="M45.0716 22.6513C48.1562 20.8749 51.9561 20.8702 55.0492 22.6386L93.6791 44.7246C94.6331 45.2702 95.1468 46.1986 95.2201 47.1562H95.2298V51.7763C95.2346 52.8115 94.7261 53.8481 93.7025 54.4433L55.1078 76.8837C51.9857 78.6988 48.1235 78.6919 45.0043 76.8652L6.71519 54.4414C5.5421 53.7543 5.04867 52.4875 5.22984 51.3115V47.8642C5.04891 46.6826 5.54888 45.4121 6.73082 44.7314L45.0716 22.6513Z" fill="white"/>
<path d="M45.0716 22.6513L45.4555 23.3179L45.4555 23.3179L45.0716 22.6513ZM55.0492 22.6386L54.6674 23.3064L54.6674 23.3064L55.0492 22.6386ZM93.6791 44.7246L94.0609 44.0568L94.0609 44.0568L93.6791 44.7246ZM95.2201 47.1562L94.4531 47.2149C94.4837 47.6158 94.818 47.9254 95.2201 47.9254V47.1562ZM95.2298 47.1562H95.9991C95.9991 46.7314 95.6547 46.387 95.2298 46.387V47.1562ZM95.2298 51.7763H94.4606L94.4606 51.7798L95.2298 51.7763ZM93.7025 54.4433L94.0891 55.1083L94.0892 55.1083L93.7025 54.4433ZM55.1078 76.8838L55.4944 77.5488L55.4944 77.5487L55.1078 76.8838ZM45.0043 76.8652L44.6155 77.529L44.6155 77.529L45.0043 76.8652ZM6.71519 54.4414L6.32644 55.1051L6.32645 55.1051L6.71519 54.4414ZM5.22984 51.3115L5.9901 51.4286C5.99607 51.3899 5.99907 51.3507 5.99907 51.3115H5.22984ZM5.22984 47.8642H5.99907C5.99907 47.8252 5.99611 47.7863 5.99021 47.7478L5.22984 47.8642ZM6.73082 44.7314L6.34693 44.0648H6.34693L6.73082 44.7314ZM45.0716 22.6513L45.4555 23.3179C48.3029 21.6781 51.8113 21.6735 54.6674 23.3064L55.0492 22.6386L55.431 21.9708C52.1009 20.0669 48.0095 20.0718 44.6877 21.9847L45.0716 22.6513ZM55.0492 22.6386L54.6674 23.3064L93.2973 45.3924L93.6791 44.7246L94.0609 44.0568L55.431 21.9708L55.0492 22.6386ZM93.6791 44.7246L93.2972 45.3923C94.015 45.8028 94.398 46.494 94.4531 47.2149L95.2201 47.1562L95.9871 47.0976C95.8957 45.9032 95.2513 44.7376 94.0609 44.0568L93.6791 44.7246ZM95.2201 47.1562V47.9254H95.2298V47.1562V46.387H95.2201V47.1562ZM95.2298 47.1562H94.4606V51.7763H95.2298H95.9991V47.1562H95.2298ZM95.2298 51.7763L94.4606 51.7798C94.4642 52.5604 94.0842 53.3316 93.3158 53.7783L93.7025 54.4433L94.0892 55.1083C95.368 54.3647 96.005 53.0625 95.9991 51.7728L95.2298 51.7763ZM93.7025 54.4433L93.3158 53.7783L54.7211 76.2188L55.1078 76.8838L55.4944 77.5487L94.0891 55.1083L93.7025 54.4433ZM55.1078 76.8838L54.7212 76.2187C51.8391 77.8943 48.2732 77.8881 45.393 76.2014L45.0043 76.8652L44.6155 77.529C47.9739 79.4957 52.1323 79.5034 55.4944 77.5488L55.1078 76.8838ZM45.0043 76.8652L45.393 76.2014L7.10393 53.7776L6.71519 54.4414L6.32645 55.1051L44.6155 77.529L45.0043 76.8652ZM6.71519 54.4414L7.10394 53.7776C6.22541 53.2631 5.85291 52.3191 5.9901 51.4286L5.22984 51.3115L4.46958 51.1944C4.24442 52.6559 4.85879 54.2456 6.32644 55.1051L6.71519 54.4414ZM5.22984 51.3115H5.99907V47.8642H5.22984H4.46061V51.3115H5.22984ZM5.22984 47.8642L5.99021 47.7478C5.85317 46.8528 6.23071 45.9071 7.1147 45.398L6.73082 44.7314L6.34693 44.0648C4.86705 44.9171 4.24465 46.5124 4.46947 47.9806L5.22984 47.8642ZM6.73082 44.7314L7.1147 45.398L45.4555 23.3179L45.0716 22.6513L44.6878 21.9847L6.34693 44.0648L6.73082 44.7314Z" fill="#1D2939" mask="url(#path-2-outside-1_9057_25101)"/>
<mask id="mask0_9057_25101" style="mask-type:alpha" maskUnits="userSpaceOnUse" x="5" y="21" width="46" height="58">
<rect x="5.19238" y="21.1553" width="45" height="57.3077" fill="#D0D8DC"/>
</mask>
<g mask="url(#mask0_9057_25101)">
<path d="M45.0346 27.0479C48.1191 25.2715 51.919 25.2666 55.0121 27.035L93.6418 49.121C95.6995 50.2975 95.7127 53.2544 93.6656 54.4446L55.0711 76.8844C51.9489 78.6998 48.0868 78.6926 44.9673 76.8658L6.67839 54.4422C4.64054 53.2487 4.64889 50.3057 6.69347 49.1283L45.0346 27.0479Z" fill="#D0D5DD"/>
<path d="M45.0345 22.6522C48.1191 20.8758 51.919 20.8709 55.012 22.6393L93.6417 44.7253C95.6994 45.9018 95.7126 48.8587 93.6655 50.0489L55.0711 72.4887C51.9488 74.3041 48.0867 74.2969 44.9673 72.4701L6.67832 50.0465C4.64047 48.853 4.64882 45.91 6.6934 44.7326L45.0345 22.6522Z" fill="#D0D5DD"/>
<rect x="5.19336" y="47.1572" width="90" height="4.61538" fill="#D0D5DD"/>
</g>
<path d="M93.7346 44.491C95.9205 45.7404 95.9344 48.884 93.7597 50.1502L55.1457 72.6299C51.9658 74.4811 48.0327 74.4757 44.8558 72.6157L6.5855 50.2097C4.42078 48.9422 4.43001 45.8128 6.60215 44.5603L44.9621 22.4412C48.1037 20.6297 51.974 20.6229 55.124 22.4233L93.7346 44.491Z" fill="white" stroke="#1D2939" stroke-width="0.384615"/>
<path d="M27.2257 61.9263H50.7154L45.8171 57.1146L50.7154 47.3069L37.369 26.6919L20.5767 36.73L6.5991 44.6554C4.52976 45.8288 4.51768 48.8061 6.57744 49.9962L27.2257 61.9263Z" fill="#D0D5DD"/>
<path d="M44.2045 6.09595L64.9993 17.6841L50.6425 26.0419L29.9512 14.3147L44.2045 6.09595Z" fill="white" stroke="#1D2939" stroke-width="0.384615" stroke-linejoin="round"/>
<path d="M44.1754 9.20868L61.9964 19.0105L64.6696 17.5254L44.1754 6.53545L44.1754 9.20868Z" fill="#D0D5DD"/>
<path d="M44.0863 9.36676L62.1793 19.4185L50.2748 26.0085L32.5987 15.9722L44.0863 9.36676Z" fill="#FFDD33" stroke="#1D2939" stroke-width="0.384615" stroke-linejoin="round"/>
<path d="M29.3574 50.3746L50.644 62.0958L50.644 26.0598L29.9527 14.3326L29.3574 50.3746Z" fill="#D0D5DD" stroke="#1D2939" stroke-width="0.384615" stroke-linejoin="round"/>
<path d="M64.8955 54.0183L64.999 17.6833L50.6422 26.0412L50.6422 62.0773L64.8955 54.0183Z" fill="white" stroke="#1D2939" stroke-width="0.384615" stroke-linejoin="round"/>
<path d="M55.6307 32.0794L55.6475 26.1389L53.3175 27.4953L53.3175 33.2675L55.6307 32.0794Z" fill="white" stroke="#1D2939" stroke-width="0.384615" stroke-linejoin="round"/>
<path d="M58.0049 30.8913L58.0225 24.6538L55.6916 26.1389L55.6918 32.0794L58.0049 30.8913Z" fill="white" stroke="#1D2939" stroke-width="0.384615" stroke-linejoin="round"/>
<path d="M62.1944 28.2182L62.2119 21.9807L59.881 23.4658L59.8812 29.4063L62.1944 28.2182Z" fill="#FFDD33" stroke="#1D2939" stroke-width="0.384615" stroke-linejoin="round"/>
<path d="M62.1944 47.2267L62.2119 40.9893L59.881 42.4744L59.8812 48.4148L62.1944 47.2267Z" fill="white" stroke="#1D2939" stroke-width="0.384615" stroke-linejoin="round"/>
<path d="M55.6314 37.9743L55.6471 32.0781L53.3185 33.2662L53.3182 39.2822L55.6314 37.9743Z" fill="white" stroke="#1D2939" stroke-width="0.384615" stroke-linejoin="round"/>
<path d="M58.0064 36.5336L58.0221 30.8901L55.6935 32.0783L55.6935 37.9335L58.0064 36.5336Z" fill="white" stroke="#1D2939" stroke-width="0.384615" stroke-linejoin="round"/>
<path d="M57.4022 58.2282L57.4232 50.8635C57.4269 49.5511 56.0024 48.7302 54.8677 49.3908C53.9279 49.9379 53.35 50.9427 53.35 52.0297L53.35 60.5194L57.4022 58.2282Z" fill="#D0D5DD" stroke="#1D2939" stroke-width="0.384615" stroke-linejoin="round"/>
<path d="M55.7589 59.1095L55.7795 51.1303C55.7815 50.3346 54.9086 49.8452 54.2302 50.2617C53.6888 50.5941 53.3589 51.1834 53.3589 51.8184L53.3589 60.5255L55.7589 59.1095Z" fill="#1D2939" stroke="#1D2939" stroke-width="0.384615" stroke-linejoin="round"/>
<path d="M29.9189 32.6731L50.7106 44.257L64.9678 36.2374" stroke="#1D2939" stroke-width="0.384615" stroke-linecap="round"/>
</g>
<defs>
<clipPath id="clip0_9057_25101">
<rect width="100" height="100" fill="white"/>
</clipPath>
</defs>
</svg>
