<svg width="48" height="48" viewBox="0 0 48 48" fill="none" xmlns="http://www.w3.org/2000/svg">
<g clip-path="url(#clip0_9914_133955)">
<path d="M21.9164 17.0374C23.4218 16.1693 25.276 16.166 26.7855 17.0287L45.1997 27.5531C46.2045 28.1274 46.2109 29.5728 45.2111 30.1548L26.796 40.8751C25.2722 41.7622 23.3877 41.7596 21.8653 40.8684L3.61442 30.1832C2.61926 29.6006 2.62343 28.1621 3.62195 27.5863L21.9164 17.0374Z" fill="#FFDD33"/>
<mask id="path-2-outside-1_9914_133955" maskUnits="userSpaceOnUse" x="1.42578" y="6.62793" width="46" height="32" fill="black">
<rect fill="white" x="1.42578" y="6.62793" width="46" height="32"/>
<path d="M18.5898 8.05295C19.4972 7.57257 20.5627 7.48171 21.5126 7.87131C22.8563 8.42243 24.8853 9.35455 26.6796 10.5881C27.44 11.1109 28.2215 11.6849 29.0058 12.3313L45.6425 21.843C46.1087 22.1097 46.358 22.5635 46.3935 23.0315H46.3993V23.1252C46.3995 23.1353 46.3994 23.1454 46.3993 23.1555V25.2737C46.4064 25.7839 46.1589 26.2976 45.6542 26.591L26.8036 37.55C25.2787 38.4366 23.3926 38.4335 21.8691 37.5412L3.16887 26.5891C2.59875 26.2552 2.35754 25.6415 2.44231 25.0696V23.3664C2.35812 22.7921 2.60165 22.1765 3.17571 21.8459L10.4306 17.6672V15.5393C10.4307 13.5911 11.5076 11.8024 13.2294 10.8908L18.5898 8.05295Z"/>
</mask>
<path d="M18.5898 8.05295C19.4972 7.57257 20.5627 7.48171 21.5126 7.87131C22.8563 8.42243 24.8853 9.35455 26.6796 10.5881C27.44 11.1109 28.2215 11.6849 29.0058 12.3313L45.6425 21.843C46.1087 22.1097 46.358 22.5635 46.3935 23.0315H46.3993V23.1252C46.3995 23.1353 46.3994 23.1454 46.3993 23.1555V25.2737C46.4064 25.7839 46.1589 26.2976 45.6542 26.591L26.8036 37.55C25.2787 38.4366 23.3926 38.4335 21.8691 37.5412L3.16887 26.5891C2.59875 26.2552 2.35754 25.6415 2.44231 25.0696V23.3664C2.35812 22.7921 2.60165 22.1765 3.17571 21.8459L10.4306 17.6672V15.5393C10.4307 13.5911 11.5076 11.8024 13.2294 10.8908L18.5898 8.05295Z" fill="white"/>
<path d="M18.5898 8.05295L18.414 7.72091L18.414 7.72091L18.5898 8.05295ZM21.5126 7.87131L21.6552 7.52371L21.6552 7.52371L21.5126 7.87131ZM26.6796 10.5881L26.8925 10.2785L26.8925 10.2785L26.6796 10.5881ZM29.0058 12.3313L28.7668 12.6212C28.7833 12.6347 28.8008 12.6469 28.8193 12.6574L29.0058 12.3313ZM45.6425 21.843L45.8291 21.5169L45.829 21.5168L45.6425 21.843ZM46.3935 23.0315L46.0189 23.0599C46.0337 23.2558 46.197 23.4072 46.3935 23.4072V23.0315ZM46.3993 23.0315H46.775C46.775 22.824 46.6068 22.6558 46.3993 22.6558V23.0315ZM46.3993 23.1252H46.0236L46.0237 23.1306L46.3993 23.1252ZM46.3993 23.1555L46.0236 23.1534V23.1555H46.3993ZM46.3993 25.2737H46.0236L46.0237 25.2789L46.3993 25.2737ZM45.6542 26.591L45.843 26.9158L45.8431 26.9158L45.6542 26.591ZM26.8036 37.55L26.6148 37.2252L26.6148 37.2252L26.8036 37.55ZM21.8691 37.5412L21.6792 37.8654L21.6792 37.8654L21.8691 37.5412ZM3.16887 26.5891L3.35874 26.2649L3.35873 26.2649L3.16887 26.5891ZM2.44231 25.0696L2.81395 25.1246C2.81665 25.1064 2.81801 25.088 2.81801 25.0696H2.44231ZM2.44231 23.3664H2.81801C2.81801 23.3482 2.81668 23.33 2.81404 23.3119L2.44231 23.3664ZM3.17571 21.8459L3.3632 22.1715L3.36322 22.1715L3.17571 21.8459ZM10.4306 17.6672L10.6181 17.9928C10.7345 17.9257 10.8063 17.8016 10.8063 17.6672H10.4306ZM10.4306 15.5393L10.0549 15.5393V15.5393H10.4306ZM13.2294 10.8908L13.4052 11.2229L13.4052 11.2229L13.2294 10.8908ZM18.5898 8.05295L18.7656 8.38499C19.5841 7.95166 20.533 7.87561 21.3701 8.21891L21.5126 7.87131L21.6552 7.52371C20.5924 7.08782 19.4103 7.19347 18.414 7.72091L18.5898 8.05295ZM21.5126 7.87131L21.3701 8.21891C22.7029 8.76558 24.7041 9.68589 26.4668 10.8977L26.6796 10.5881L26.8925 10.2785C25.0666 9.02321 23.0097 8.07928 21.6552 7.52371L21.5126 7.87131ZM26.6796 10.5881L26.4668 10.8977C27.2204 11.4159 27.9929 11.9833 28.7668 12.6212L29.0058 12.3313L29.2447 12.0413C28.4502 11.3866 27.6596 10.806 26.8925 10.2785L26.6796 10.5881ZM29.0058 12.3313L28.8193 12.6574L45.456 22.1691L45.6425 21.843L45.829 21.5168L29.1923 12.0051L29.0058 12.3313ZM45.6425 21.843L45.456 22.1691C45.806 22.3694 45.9921 22.7068 46.0189 23.0599L46.3935 23.0315L46.7681 23.0031C46.7239 22.4202 46.4114 21.85 45.8291 21.5169L45.6425 21.843ZM46.3935 23.0315V23.4072H46.3993V23.0315V22.6558H46.3935V23.0315ZM46.3993 23.0315H46.0236V23.1252H46.3993H46.775V23.0315H46.3993ZM46.3993 23.1252L46.0237 23.1306C46.0238 23.136 46.0237 23.1415 46.0236 23.1534L46.3993 23.1555L46.775 23.1576C46.7751 23.1493 46.7752 23.1346 46.775 23.1199L46.3993 23.1252ZM46.3993 23.1555H46.0236V25.2737H46.3993H46.775V23.1555H46.3993ZM46.3993 25.2737L46.0237 25.2789C46.029 25.6643 45.8437 26.0463 45.4654 26.2663L45.6542 26.591L45.8431 26.9158C46.474 26.5489 46.7838 25.9036 46.775 25.2684L46.3993 25.2737ZM45.6542 26.591L45.4654 26.2662L26.6148 37.2252L26.8036 37.55L26.9925 37.8748L45.843 26.9158L45.6542 26.591ZM26.8036 37.55L26.6148 37.2252C25.2071 38.0437 23.4657 38.0409 22.0589 37.217L21.8691 37.5412L21.6792 37.8654C23.3196 38.8261 25.3504 38.8295 26.9925 37.8748L26.8036 37.55ZM21.8691 37.5412L22.0589 37.217L3.35874 26.2649L3.16887 26.5891L2.979 26.9133L21.6792 37.8654L21.8691 37.5412ZM3.16887 26.5891L3.35873 26.2649C2.93173 26.0148 2.74976 25.5577 2.81395 25.1246L2.44231 25.0696L2.07067 25.0145C1.96531 25.7253 2.26578 26.4956 2.97901 26.9133L3.16887 26.5891ZM2.44231 25.0696H2.81801V23.3664H2.44231H2.06661V25.0696H2.44231ZM2.44231 23.3664L2.81404 23.3119C2.7502 22.8764 2.93426 22.4185 3.3632 22.1715L3.17571 21.8459L2.98821 21.5203C2.26903 21.9345 1.96604 22.7077 2.07058 23.4209L2.44231 23.3664ZM3.17571 21.8459L3.36322 22.1715L10.6181 17.9928L10.4306 17.6672L10.2431 17.3417L2.98819 21.5204L3.17571 21.8459ZM10.4306 17.6672H10.8063V15.5393H10.4306H10.0549V17.6672H10.4306ZM10.4306 15.5393L10.8063 15.5393C10.8064 13.7303 11.8064 12.0693 13.4052 11.2229L13.2294 10.8908L13.0536 10.5588C11.2088 11.5355 10.055 13.4519 10.0549 15.5393L10.4306 15.5393ZM13.2294 10.8908L13.4052 11.2229L18.7656 8.38499L18.5898 8.05295L18.414 7.72091L13.0536 10.5588L13.2294 10.8908Z" fill="#202A39" mask="url(#path-2-outside-1_9914_133955)"/>
<mask id="mask0_9914_133955" style="mask-type:alpha" maskUnits="userSpaceOnUse" x="2" y="10" width="23" height="29">
<rect x="2.44336" y="10.3315" width="21.9785" height="27.9897" fill="#D0D8DC"/>
</mask>
<g mask="url(#mask0_9914_133955)">
<path d="M21.9025 13.2096C23.4091 12.342 25.265 12.3396 26.7756 13.2033L45.6428 23.9903C46.6478 24.5649 46.6542 26.0091 45.6544 26.5904L26.8045 37.5503C25.2796 38.4369 23.3932 38.4334 21.8697 37.5412L3.16896 26.5892C2.17365 26.0063 2.17773 24.569 3.17632 23.9939L21.9025 13.2096Z" fill="#CDD4DF"/>
<path d="M21.9025 11.0626C23.409 10.195 25.2649 10.1926 26.7756 11.0563L45.6428 21.8434C46.6478 22.418 46.6542 23.8622 45.6544 24.4435L26.8045 35.4033C25.2795 36.29 23.3932 36.2865 21.8696 35.3942L3.16892 24.4423C2.17362 23.8594 2.17769 22.422 3.17629 21.8469L21.9025 11.0626Z" fill="#CDD4DF"/>
<rect x="2.44336" y="23.0312" width="43.957" height="2.2542" fill="#CDD4DF"/>
</g>
<path d="M45.6881 21.729C46.7557 22.3392 46.7622 23.8746 45.7 24.493L26.8408 35.4724C25.2877 36.3765 23.3665 36.3738 21.8149 35.4654L3.1235 24.5217C2.06633 23.9026 2.07079 22.3748 3.13165 21.7631L21.8671 10.9598C23.4013 10.0752 25.291 10.0715 26.8294 10.9505L45.6881 21.729Z" fill="white" stroke="#202A39" stroke-width="0.18785"/>
<path d="M15.2138 30.8948L29.3906 30.8121C29.9699 30.8087 30.5368 30.6443 31.0281 30.3373L34.4317 28.3599C37.1015 26.8089 36.8644 22.8783 34.0274 21.6594L17.7779 14.6783C16.6441 14.1912 15.3434 14.2919 14.2981 14.9478L6.38694 19.9116L3.16837 21.8879C2.20141 22.4817 2.21609 23.8918 3.19521 24.4653L13.293 30.3797C13.8754 30.7208 14.5389 30.8988 15.2138 30.8948Z" fill="#CDD4DF"/>
<path d="M18.5449 7.96924C19.4745 7.47709 20.5697 7.38251 21.5479 7.78369C22.8943 8.33593 24.9303 9.27126 26.7324 10.5103C29.745 12.5814 33.101 15.4473 35.5898 20.4985L37.4619 23.9399C38.0663 25.0512 37.6812 26.4417 36.5918 27.0845L31.4521 30.1167C29.9549 30.9999 28.0966 31.0032 26.5967 30.1245L12.6113 21.9312C11.2017 21.1053 10.3359 19.5932 10.3359 17.9595V15.5396C10.3359 13.5565 11.432 11.735 13.1846 10.8071L18.5449 7.96924Z" fill="white" stroke="#202A39" stroke-width="0.18785"/>
<path d="M17.488 15.7529C14.4824 13.8744 11.9464 13.4361 10.9133 13.4048C10.6664 13.7751 10.5119 14.1992 10.4627 14.6415L10.4436 14.8137C10.4123 15.7842 10.4436 17.6878 10.4436 17.9132C10.4436 18.4767 10.5564 19.0215 10.6315 19.3221C10.7254 19.6978 11.1011 20.637 11.7586 21.2006C12.2846 21.6514 19.7735 25.9908 23.3114 28.0571L25.5698 29.289C26.1217 29.59 26.5581 29.4552 26.4788 28.8316C26.4056 28.2557 26.2227 27.3557 25.8473 25.9908C24.8141 22.2337 21.245 18.101 17.488 15.7529Z" fill="#CDD4DF"/>
<path d="M14.1953 14.278L14.2013 14.1572C17.2115 14.9456 20.5749 17.9045 22.0745 19.4801C22.1958 19.6076 22.3874 19.6363 22.5399 19.5485L30.7073 14.8433C30.8365 14.7689 30.9974 14.7761 31.1109 14.8728C32.2362 15.8323 33.737 18.1593 34.7456 19.8913C35.1989 20.6695 35.3686 21.6115 34.9998 22.4331C34.6364 23.2427 33.9931 24.1993 32.7985 25.0525C30.8261 26.4614 28.384 27.3067 26.0359 26.0857C24.3836 25.2265 18.8797 20.3801 15.405 17.2227C14.5797 16.4728 14.1396 15.3918 14.1953 14.278Z" fill="#FFDD33"/>
<path d="M21.997 19.417C19.0847 16.5054 16.2669 14.7208 14.2947 14.1572C14.1067 15.4722 14.6702 16.5334 15.2336 17.0689C17.1112 18.8538 22.9356 24.1133 25.5655 25.71C25.7221 24.9899 24.5347 21.9542 21.997 19.417Z" fill="#FFDD33"/>
<path d="M14.2012 13.312V14.5378C14.2012 14.9541 14.3713 15.3498 14.6767 15.6328C17.8998 18.618 23.8594 23.9061 26.5609 25.4897C26.9507 25.7182 27.3933 25.8237 27.845 25.8116C30.3889 25.7438 34.631 24.6318 35.5222 20.4503" stroke="#202A39" stroke-width="0.18785" stroke-linecap="round"/>
<path d="M22.373 18.9473L30.9202 13.9692" stroke="#202A39" stroke-width="0.18785" stroke-linecap="round"/>
<path d="M31.8594 28.7155L35.9921 26.2734" stroke="#202A39" stroke-width="0.18785" stroke-linecap="round"/>
<path d="M19.0854 15.9412L19.1437 15.8675V15.8675L19.0854 15.9412ZM31.4147 29.0872C31.4647 29.0734 31.4939 29.0216 31.4801 28.9716C31.4662 28.9216 31.4144 28.8924 31.3644 28.9062L31.3896 28.9967L31.4147 29.0872ZM11.0078 12.7477L11.0176 12.8411C12.1792 12.7189 15.4364 13.1722 19.0271 16.0148L19.0854 15.9412L19.1437 15.8675C15.5209 12.9995 12.2159 12.5261 10.998 12.6543L11.0078 12.7477ZM19.0854 15.9412L19.0271 16.0148C23.5203 19.5719 25.3914 22.8455 27.6445 26.8822L27.7265 26.8365L27.8085 26.7907C25.5532 22.7499 23.6673 19.4487 19.1437 15.8675L19.0854 15.9412ZM27.7265 26.8365L27.6445 26.8822C28.2088 27.8933 28.7117 28.57 29.2975 28.93C29.891 29.2948 30.5545 29.3262 31.4147 29.0872L31.3896 28.9967L31.3644 28.9062C30.534 29.1369 29.9295 29.0979 29.3959 28.77C28.8546 28.4373 28.3713 27.799 27.8085 26.7907L27.7265 26.8365Z" fill="#202A39"/>
<path d="M27.1162 12.4672C27.4071 12.6635 27.388 13.097 27.0809 13.2665L23.0862 15.4707C22.8831 15.5827 22.635 15.5792 22.4348 15.4619L20.2572 14.1868C19.9644 14.0151 19.9494 13.6069 20.2086 13.41L20.2633 13.3739L24.3708 11.0528C24.588 10.9301 24.856 10.9414 25.0628 11.081L27.1162 12.4672Z" stroke="#202A39" stroke-width="0.18785"/>
<path d="M37.4943 23.9253C37.5569 24.4262 37.3064 25.3342 36.3672 25.9916" stroke="#202A39" stroke-width="0.18785" stroke-linecap="round"/>
<ellipse cx="13.8281" cy="21.0113" rx="1.71176" ry="2.71867" transform="rotate(-30 13.8281 21.0113)" fill="#CDD4DF" stroke="#202A39" stroke-width="0.18785"/>
<ellipse cx="25.0254" cy="27.605" rx="1.71176" ry="2.71867" transform="rotate(-30 25.0254 27.605)" fill="#CDD4DF" stroke="#202A39" stroke-width="0.18785"/>
<ellipse cx="13.807" cy="21.024" rx="1.03747" ry="1.88343" transform="rotate(-30 13.807 21.024)" fill="#CDD4DF" stroke="#202A39" stroke-width="0.18785"/>
<ellipse cx="25.0087" cy="27.6236" rx="1.03591" ry="1.90281" transform="rotate(-30 25.0087 27.6236)" fill="#CDD4DF" stroke="#202A39" stroke-width="0.18785"/>
</g>
<defs>
<clipPath id="clip0_9914_133955">
<rect width="48" height="48" fill="white"/>
</clipPath>
</defs>
</svg>
