<svg width="48" height="48" viewBox="0 0 48 48" fill="none" xmlns="http://www.w3.org/2000/svg">
<g clip-path="url(#clip0_9914_134014)">
<path d="M21.9145 17.0374C23.4199 16.1693 25.2741 16.166 26.7835 17.0287L45.1977 27.5531C46.2026 28.1274 46.2089 29.5728 45.2092 30.1548L26.7941 40.8751C25.2703 41.7622 23.3857 41.7596 21.8634 40.8684L3.61247 30.1832C2.61731 29.6006 2.62148 28.1621 3.62 27.5863L21.9145 17.0374Z" fill="#FFDD33"/>
<mask id="path-2-outside-1_9914_134014" maskUnits="userSpaceOnUse" x="1.44141" y="7.0874" width="46" height="32" fill="black">
<rect fill="white" x="1.44141" y="7.0874" width="46" height="32"/>
<path fill-rule="evenodd" clip-rule="evenodd" d="M9.72509 14.7599C9.57097 14.4889 9.6661 14.144 9.93738 13.9902L20.225 8.16071C20.4964 8.00694 20.8408 8.10297 20.9935 8.37497L22.3725 10.8321C23.7869 10.203 25.4299 10.2776 26.7921 11.0564L45.6593 21.8435C46.1254 22.11 46.3767 22.5636 46.4125 23.0314H46.4166V23.1176C46.417 23.1378 46.417 23.158 46.4166 23.1781V25.2644C46.4268 25.7777 46.1786 26.2954 45.6709 26.5905L26.821 37.5504C25.2961 38.437 23.4097 38.4335 21.8862 37.5412L3.18545 26.5893C2.61147 26.2532 2.36985 25.6329 2.45966 25.0576V23.3816C2.36938 22.8032 2.61408 22.1803 3.19281 21.847L11.1494 17.2649L9.72509 14.7599Z"/>
</mask>
<path fill-rule="evenodd" clip-rule="evenodd" d="M9.72509 14.7599C9.57097 14.4889 9.6661 14.144 9.93738 13.9902L20.225 8.16071C20.4964 8.00694 20.8408 8.10297 20.9935 8.37497L22.3725 10.8321C23.7869 10.203 25.4299 10.2776 26.7921 11.0564L45.6593 21.8435C46.1254 22.11 46.3767 22.5636 46.4125 23.0314H46.4166V23.1176C46.417 23.1378 46.417 23.158 46.4166 23.1781V25.2644C46.4268 25.7777 46.1786 26.2954 45.6709 26.5905L26.821 37.5504C25.2961 38.437 23.4097 38.4335 21.8862 37.5412L3.18545 26.5893C2.61147 26.2532 2.36985 25.6329 2.45966 25.0576V23.3816C2.36938 22.8032 2.61408 22.1803 3.19281 21.847L11.1494 17.2649L9.72509 14.7599Z" fill="white"/>
<path d="M9.93738 13.9902L9.75216 13.6634V13.6634L9.93738 13.9902ZM9.72509 14.7599L10.0517 14.5742L10.0517 14.5742L9.72509 14.7599ZM20.225 8.16071L20.4103 8.48758L20.4103 8.48758L20.225 8.16071ZM20.9935 8.37497L21.3211 8.1911V8.1911L20.9935 8.37497ZM22.3725 10.8321L22.0448 11.016L22.2124 11.3145L22.5252 11.1754L22.3725 10.8321ZM26.7921 11.0564L26.6057 11.3826V11.3826L26.7921 11.0564ZM45.6593 21.8435L45.8458 21.5173H45.8458L45.6593 21.8435ZM46.4125 23.0314L46.0379 23.06L46.0644 23.4071H46.4125V23.0314ZM46.4166 23.0314H46.7923V22.6557H46.4166V23.0314ZM46.4166 23.1176H46.0408L46.041 23.125L46.4166 23.1176ZM46.4166 23.1781L46.0409 23.1707V23.1781H46.4166ZM46.4166 25.2644H46.0408L46.041 25.2719L46.4166 25.2644ZM45.6709 26.5905L45.4821 26.2657V26.2657L45.6709 26.5905ZM26.821 37.5504L27.0098 37.8752V37.8752L26.821 37.5504ZM21.8862 37.5412L22.076 37.217V37.217L21.8862 37.5412ZM3.18545 26.5893L2.99558 26.9135H2.99558L3.18545 26.5893ZM2.45966 25.0576L2.83086 25.1156L2.83536 25.0868V25.0576H2.45966ZM2.45966 23.3816H2.83536V23.3524L2.83086 23.3236L2.45966 23.3816ZM3.19281 21.847L3.00531 21.5215H3.00531L3.19281 21.847ZM11.1494 17.2649L11.3369 17.5904L11.6607 17.404L11.476 17.0792L11.1494 17.2649ZM9.93738 13.9902L9.75216 13.6634C9.30016 13.9195 9.1417 14.494 9.3985 14.9457L9.72509 14.7599L10.0517 14.5742C10.0002 14.4837 10.032 14.3684 10.1226 14.3171L9.93738 13.9902ZM20.225 8.16071L20.0398 7.83384L9.75216 13.6634L9.93738 13.9902L10.1226 14.3171L20.4103 8.48758L20.225 8.16071ZM20.9935 8.37497L21.3211 8.1911C21.0666 7.73763 20.4922 7.57747 20.0398 7.83384L20.225 8.16071L20.4103 8.48758C20.5006 8.43641 20.615 8.46831 20.6658 8.55885L20.9935 8.37497ZM22.3725 10.8321L22.7001 10.6482L21.3211 8.1911L20.9935 8.37497L20.6658 8.55885L22.0448 11.016L22.3725 10.8321ZM22.3725 10.8321L22.5252 11.1754C23.8308 10.5947 25.3478 10.6635 26.6057 11.3826L26.7921 11.0564L26.9786 10.7303C25.5119 9.89172 23.7429 9.81139 22.2198 10.4888L22.3725 10.8321ZM26.7921 11.0564L26.6057 11.3826L45.4728 22.1697L45.6593 21.8435L45.8458 21.5173L26.9786 10.7303L26.7921 11.0564ZM45.6593 21.8435L45.4728 22.1697C45.8237 22.3702 46.011 22.708 46.0379 23.06L46.4125 23.0314L46.7871 23.0027C46.7425 22.4191 46.4272 21.8498 45.8458 21.5173L45.6593 21.8435ZM46.4125 23.0314V23.4071H46.4166V23.0314V22.6557H46.4125V23.0314ZM46.4166 23.0314H46.0409V23.1176H46.4166H46.7923V23.0314H46.4166ZM46.4166 23.1176L46.041 23.125C46.0413 23.1402 46.0413 23.1555 46.041 23.1707L46.4166 23.1781L46.7922 23.1856C46.7927 23.1604 46.7927 23.1353 46.7922 23.1101L46.4166 23.1176ZM46.4166 23.1781H46.0409V25.2644H46.4166H46.7923V23.1781H46.4166ZM46.4166 25.2644L46.041 25.2719C46.0487 25.6592 45.863 26.0443 45.4821 26.2657L45.6709 26.5905L45.8597 26.9153C46.4942 26.5464 46.8049 25.8963 46.7922 25.257L46.4166 25.2644ZM45.6709 26.5905L45.4821 26.2657L26.6321 37.2256L26.821 37.5504L27.0098 37.8752L45.8597 26.9153L45.6709 26.5905ZM26.821 37.5504L26.6321 37.2256C25.2245 38.044 23.4828 38.0409 22.076 37.217L21.8862 37.5412L21.6963 37.8654C23.3366 38.8261 25.3676 38.83 27.0098 37.8752L26.821 37.5504ZM21.8862 37.5412L22.076 37.217L3.37531 26.2651L3.18545 26.5893L2.99558 26.9135L21.6963 37.8654L21.8862 37.5412ZM3.18545 26.5893L3.37531 26.2651C2.94516 26.0132 2.76291 25.5508 2.83086 25.1156L2.45966 25.0576L2.08845 24.9997C1.97678 25.7149 2.27777 26.4931 2.99558 26.9135L3.18545 26.5893ZM2.45966 25.0576H2.83536V23.3816H2.45966H2.08396V25.0576H2.45966ZM2.45966 23.3816L2.83086 23.3236C2.76254 22.8859 2.94721 22.422 3.3803 22.1726L3.19281 21.847L3.00531 21.5215C2.28096 21.9386 1.97623 22.7206 2.08845 23.4395L2.45966 23.3816ZM3.19281 21.847L3.3803 22.1726L11.3369 17.5904L11.1494 17.2649L10.9619 16.9393L3.00531 21.5215L3.19281 21.847ZM9.72509 14.7599L9.3985 14.9457L10.8228 17.4506L11.1494 17.2649L11.476 17.0792L10.0517 14.5742L9.72509 14.7599Z" fill="#202A39" mask="url(#path-2-outside-1_9914_134014)"/>
<mask id="mask0_9914_134014" style="mask-type:alpha" maskUnits="userSpaceOnUse" x="2" y="10" width="23" height="29">
<rect x="2.44141" y="10.3315" width="21.9785" height="27.9897" fill="#D0D8DC"/>
</mask>
<g mask="url(#mask0_9914_134014)">
<path d="M21.9006 13.2096C23.4071 12.342 25.263 12.3396 26.7737 13.2033L45.6409 23.9903C46.6458 24.5649 46.6523 26.0091 45.6525 26.5904L26.8025 37.5503C25.2776 38.4369 23.3913 38.4334 21.8677 37.5412L3.16701 26.5892C2.1717 26.0063 2.17578 24.569 3.17437 23.9939L21.9006 13.2096Z" fill="#CDD4DF"/>
<path d="M21.9005 11.0626C23.4071 10.195 25.263 10.1926 26.7737 11.0563L45.6408 21.8434C46.6458 22.418 46.6523 23.8622 45.6524 24.4435L26.8025 35.4033C25.2776 36.29 23.3913 36.2865 21.8677 35.3942L3.16697 24.4423C2.17166 23.8594 2.17574 22.422 3.17433 21.8469L21.9005 11.0626Z" fill="#CDD4DF"/>
<rect x="2.44141" y="23.0312" width="43.957" height="2.2542" fill="#CDD4DF"/>
</g>
<path d="M45.6881 21.729C46.7557 22.3392 46.7622 23.8746 45.7 24.493L26.8408 35.4724C25.2877 36.3765 23.3665 36.3738 21.8149 35.4654L3.1235 24.5217C2.06633 23.9026 2.07079 22.3748 3.13165 21.7631L21.8671 10.9598C23.4013 10.0752 25.291 10.0715 26.8294 10.9505L45.6881 21.729Z" fill="white" stroke="#202A39" stroke-width="0.18785"/>
<path d="M35.1311 23.0171C35.445 23.1966 35.4474 23.648 35.135 23.8299L24.9331 29.7689C24.6686 29.9228 24.3413 29.9215 24.0776 29.7662L16.4685 25.2809C16.1589 25.0982 16.1607 24.6505 16.4717 24.4708L26.6051 18.6277C26.8655 18.4775 27.1864 18.4764 27.4476 18.6255L35.1311 23.0171Z" fill="white" stroke="#202A39" stroke-width="0.18785"/>
<path d="M35.0672 22.9844C35.3812 23.1638 35.3828 23.6157 35.0703 23.7976L24.8768 29.7317C24.6077 29.8882 24.2745 29.8843 24.009 29.7214L20.8577 27.7881L20.7231 27.7056L31.9715 21.2196L32.0181 21.2457L35.0672 22.9844Z" fill="#FFDD33" stroke="#202A39" stroke-width="0.18785"/>
<path d="M22.1395 24.1494C22.4535 24.3289 22.4564 24.7811 22.1439 24.963L20.9253 25.6725C20.6608 25.8264 20.3335 25.8251 20.0698 25.6698L19.3472 25.2432C19.0373 25.0606 19.0391 24.6128 19.3504 24.4331L20.5652 23.7326C20.8257 23.5825 21.1466 23.5813 21.4077 23.7304L22.1395 24.1494Z" fill="#FFDD33" stroke="#202A39" stroke-width="0.18785"/>
<path d="M14.3134 23.0161C14.4931 23.3323 14.8951 23.4426 15.2107 23.2617L25.4239 17.4066C25.7368 17.227 25.847 16.8282 25.6705 16.5135L21.0766 8.32797C20.8984 8.01104 20.4967 7.8993 20.1803 8.07833L9.89251 13.9078C9.57601 14.0871 9.46462 14.49 9.64443 14.8062L14.3134 23.0161Z" fill="#FFDD33" stroke="#202A39" stroke-width="0.18785"/>
<path d="M12.0575 16.1299C12.2374 16.4458 12.6389 16.5555 12.9543 16.3747L13.8924 15.8374C14.2056 15.6578 14.3156 15.2591 14.1391 14.9443L13.8102 14.3572C13.6322 14.0399 13.23 13.9275 12.9135 14.1067L11.9696 14.6417C11.6531 14.8211 11.5417 15.224 11.7215 15.5402L12.0575 16.1299Z" fill="#FFDD33" stroke="#202A39" stroke-width="0.18785"/>
<path d="M16.7734 10.0415V22.3457" stroke="black" stroke-width="0.18785"/>
<path d="M18.7461 8.8208V21.2189" stroke="black" stroke-width="0.18785"/>
<path d="M20.625 8.06934V20.0918" stroke="black" stroke-width="0.18785"/>
<path d="M22.502 10.7925L22.502 19.0579" stroke="black" stroke-width="0.18785"/>
<path d="M24.1934 13.8931L24.1934 18.2136" stroke="black" stroke-width="0.18785"/>
</g>
<defs>
<clipPath id="clip0_9914_134014">
<rect width="48" height="48" fill="white"/>
</clipPath>
</defs>
</svg>
