<svg width="100" height="100" viewBox="0 0 100 100" fill="none" xmlns="http://www.w3.org/2000/svg">
<g clip-path="url(#clip0_9057_25052)">
<path d="M44.8717 34.8825C47.954 33.1051 51.7503 33.0984 54.8408 34.8648L92.5432 56.4131C94.6006 57.5889 94.6136 60.5482 92.5666 61.7398L54.8625 83.6893C51.7425 85.5056 47.884 85.5003 44.767 83.6754L7.39911 61.798C5.36156 60.6051 5.37009 57.6598 7.41452 56.481L44.8717 34.8825Z" fill="#FFDD33"/>
<mask id="path-2-outside-1_9057_25052" maskUnits="userSpaceOnUse" x="3.96484" y="14.6162" width="92" height="65" fill="black">
<rect fill="white" x="3.96484" y="14.6162" width="92" height="65"/>
<path d="M38.0619 16.4871C39.9198 15.5036 42.1014 15.3164 44.0463 16.1141C46.7974 17.2425 50.9507 19.1519 54.6244 21.6776C56.182 22.7484 57.7837 23.9229 59.39 25.2469L93.4506 44.7205C94.4057 45.2666 94.9191 46.1965 94.9916 47.1551H95.0014V51.7752C95.0059 52.8102 94.4975 53.8471 93.474 54.4422L54.8793 76.8817C51.7571 78.6968 47.8951 78.6899 44.7758 76.8631L6.48672 54.4393C5.31366 53.7521 4.82005 52.4854 5.00136 51.3094V47.8611C4.82014 46.6793 5.32018 45.4082 6.50234 44.7274L21.3549 36.1736V31.8152C21.3549 27.8263 23.56 24.1641 27.0853 22.2977L38.0619 16.4871Z"/>
</mask>
<path d="M38.0619 16.4871C39.9198 15.5036 42.1014 15.3164 44.0463 16.1141C46.7974 17.2425 50.9507 19.1519 54.6244 21.6776C56.182 22.7484 57.7837 23.9229 59.39 25.2469L93.4506 44.7205C94.4057 45.2666 94.9191 46.1965 94.9916 47.1551H95.0014V51.7752C95.0059 52.8102 94.4975 53.8471 93.474 54.4422L54.8793 76.8817C51.7571 78.6968 47.8951 78.6899 44.7758 76.8631L6.48672 54.4393C5.31366 53.7521 4.82005 52.4854 5.00136 51.3094V47.8611C4.82014 46.6793 5.32018 45.4082 6.50234 44.7274L21.3549 36.1736V31.8152C21.3549 27.8263 23.56 24.1641 27.0853 22.2977L38.0619 16.4871Z" fill="white"/>
<path d="M38.0619 16.4871L38.4218 17.167L38.4218 17.167L38.0619 16.4871ZM44.0463 16.1141L44.3382 15.4024V15.4024L44.0463 16.1141ZM54.6244 21.6776L55.0602 21.0437V21.0437L54.6244 21.6776ZM59.39 25.2469L58.9008 25.8405C58.9344 25.8682 58.9704 25.893 59.0082 25.9147L59.39 25.2469ZM93.4506 44.7205L93.8324 44.0528L93.8324 44.0527L93.4506 44.7205ZM94.9916 47.1551L94.2246 47.2131C94.2549 47.6143 94.5893 47.9243 94.9916 47.9243V47.1551ZM95.0014 47.1551H95.7706C95.7706 46.7303 95.4262 46.3859 95.0014 46.3859V47.1551ZM95.0014 51.7752H94.2321L94.2321 51.7786L95.0014 51.7752ZM93.474 54.4422L93.8607 55.1072V55.1072L93.474 54.4422ZM54.8793 76.8817L55.2659 77.5467L55.2659 77.5467L54.8793 76.8817ZM44.7758 76.8631L44.387 77.5269V77.5269L44.7758 76.8631ZM6.48672 54.4393L6.09792 55.103L6.09798 55.103L6.48672 54.4393ZM5.00136 51.3094L5.76161 51.4266C5.76759 51.3878 5.7706 51.3486 5.7706 51.3094H5.00136ZM5.00136 47.8611H5.7706C5.7706 47.8221 5.76762 47.7831 5.76171 47.7446L5.00136 47.8611ZM6.50234 44.7274L6.88623 45.3939L6.88624 45.3939L6.50234 44.7274ZM21.3549 36.1736L21.7388 36.8402C21.9772 36.7029 22.1241 36.4488 22.1241 36.1736H21.3549ZM27.0854 22.2977L26.7255 21.6178L26.7254 21.6178L27.0854 22.2977ZM38.0619 16.4871L38.4218 17.167C40.098 16.2796 42.0409 16.123 43.7544 16.8258L44.0463 16.1141L44.3382 15.4024C42.1619 14.5098 39.7415 14.7276 37.702 15.8073L38.0619 16.4871ZM44.0463 16.1141L43.7544 16.8258C46.4831 17.945 50.5796 19.8302 54.1886 22.3114L54.6244 21.6776L55.0602 21.0437C51.3219 18.4736 47.1118 16.54 44.3382 15.4024L44.0463 16.1141ZM54.6244 21.6776L54.1886 22.3114C55.7327 23.373 57.3157 24.5341 58.9008 25.8405L59.39 25.2469L59.8793 24.6533C58.2516 23.3118 56.6312 22.1238 55.0602 21.0437L54.6244 21.6776ZM59.39 25.2469L59.0082 25.9147L93.0688 45.3883L93.4506 44.7205L93.8324 44.0527L59.7718 24.5791L59.39 25.2469ZM93.4506 44.7205L93.0687 45.3883C93.7871 45.799 94.17 46.4913 94.2246 47.2131L94.9916 47.1551L95.7586 47.0971C95.6683 45.9018 95.0242 44.7343 93.8324 44.0528L93.4506 44.7205ZM94.9916 47.1551V47.9243H95.0014V47.1551V46.3859H94.9916V47.1551ZM95.0014 47.1551H94.2321V51.7752H95.0014H95.7706V47.1551H95.0014ZM95.0014 51.7752L94.2321 51.7786C94.2356 52.5592 93.8554 53.3306 93.0874 53.7772L93.474 54.4422L93.8607 55.1072C95.1395 54.3637 95.7762 53.0611 95.7706 51.7718L95.0014 51.7752ZM93.474 54.4422L93.0874 53.7772L54.4927 76.2167L54.8793 76.8817L55.2659 77.5467L93.8607 55.1072L93.474 54.4422ZM54.8793 76.8817L54.4927 76.2166C51.6105 77.8923 48.0448 77.8861 45.1645 76.1993L44.7758 76.8631L44.387 77.5269C47.7455 79.4937 51.9037 79.5014 55.2659 77.5467L54.8793 76.8817ZM44.7758 76.8631L45.1645 76.1993L6.87545 53.7755L6.48672 54.4393L6.09798 55.103L44.387 77.5269L44.7758 76.8631ZM6.48672 54.4393L6.87551 53.7755C5.99687 53.2609 5.62435 52.3169 5.76161 51.4266L5.00136 51.3094L4.24112 51.1922C4.01575 52.6539 4.63044 54.2434 6.09792 55.103L6.48672 54.4393ZM5.00136 51.3094H5.7706V47.8611H5.00136H4.23213V51.3094H5.00136ZM5.00136 47.8611L5.76171 47.7446C5.62444 46.8494 6.00208 45.9031 6.88623 45.3939L6.50234 44.7274L6.11845 44.0608C4.63827 44.9132 4.01584 46.5092 4.24102 47.9777L5.00136 47.8611ZM6.50234 44.7274L6.88624 45.3939L21.7388 36.8402L21.3549 36.1736L20.971 35.5071L6.11845 44.0608L6.50234 44.7274ZM21.3549 36.1736H22.1241V31.8152H21.3549H20.5856V36.1736H21.3549ZM21.3549 31.8152H22.1241C22.1241 28.1113 24.1718 24.7107 27.4453 22.9775L27.0854 22.2977L26.7254 21.6178C22.9483 23.6176 20.5856 27.5414 20.5856 31.8152H21.3549ZM27.0854 22.2977L27.4452 22.9775L38.4218 17.167L38.0619 16.4871L37.702 15.8073L26.7255 21.6178L27.0854 22.2977Z" fill="#1D2939" mask="url(#path-2-outside-1_9057_25052)"/>
<mask id="mask0_9057_25052" style="mask-type:alpha" maskUnits="userSpaceOnUse" x="5" y="21" width="45" height="58">
<rect x="5" y="21.1533" width="45" height="57.3077" fill="#D0D8DC"/>
</mask>
<g mask="url(#mask0_9057_25052)">
<path d="M44.8422 27.0457C47.9267 25.2693 51.7266 25.2644 54.8197 27.0328L93.4494 49.1188C95.5071 50.2953 95.5203 53.2522 93.4732 54.4424L54.8787 76.8822C51.7565 78.6976 47.8944 78.6904 44.775 76.8636L6.48601 54.44C4.44816 53.2465 4.45651 50.3035 6.50109 49.1261L44.8422 27.0457Z" fill="#D0D5DD"/>
<path d="M44.8421 22.6502C47.9267 20.8738 51.7266 20.8689 54.8196 22.6373L93.4493 44.7234C95.507 45.8998 95.5202 48.8567 93.4731 50.047L54.8787 72.4868C51.7565 74.3021 47.8943 74.295 44.7749 72.4681L6.48594 50.0445C4.44809 48.8511 4.45644 45.9081 6.50102 44.7306L44.8421 22.6502Z" fill="#D0D5DD"/>
<rect x="5.00098" y="47.1553" width="90" height="4.61538" fill="#D0D5DD"/>
</g>
<path d="M93.5432 44.4891C95.7291 45.7384 95.743 48.882 93.5683 50.1482L54.9543 72.628C51.7744 74.4791 47.8413 74.4737 44.6644 72.6138L6.39409 50.2078C4.22937 48.9402 4.2386 45.8109 6.41075 44.5584L44.7707 22.4393C47.9123 20.6278 51.7826 20.621 54.9326 22.4213L93.5432 44.4891Z" fill="white" stroke="#1D2939" stroke-width="0.384615"/>
<path d="M31.1503 63.2553L60.1767 63.0859C61.3628 63.079 62.5236 62.7424 63.5294 62.1138L70.4982 58.0653C75.9645 54.8896 75.479 46.8418 69.6705 44.3463L36.4003 30.0526C34.0788 29.0553 31.4156 29.2615 29.2754 30.6044L13.0778 40.7677L6.48788 44.8141C4.50806 46.0297 4.53813 48.917 6.54283 50.0912L27.2177 62.2007C28.41 62.8991 29.7685 63.2634 31.1503 63.2553Z" fill="#D0D5DD"/>
<path d="M37.9707 16.3164C39.874 15.3088 42.1155 15.1152 44.1182 15.9365C46.8749 17.0672 51.0426 18.9818 54.7324 21.5186C60.9008 25.7593 67.773 31.6269 72.8691 41.9697L76.7021 49.0156C77.9395 51.2908 77.1515 54.1381 74.9209 55.4541L64.3984 61.6621C61.3329 63.4708 57.5272 63.477 54.4561 61.6777L25.8223 44.9014C22.936 43.2104 21.1622 40.1166 21.1621 36.7715V31.8145C21.1623 27.7543 23.4068 24.0266 26.9951 22.127L37.9707 16.3164Z" fill="white" stroke="#1D2939" stroke-width="0.384615"/>
<path d="M35.8061 32.253C29.6522 28.4069 24.46 27.5094 22.3446 27.4453C21.8391 28.2035 21.5228 29.0718 21.4222 29.9774L21.383 30.3299C21.3189 32.3171 21.383 36.2145 21.383 36.6761C21.383 37.8299 21.6139 38.9453 21.7677 39.5607C21.9599 40.3299 22.7292 42.253 24.0753 43.4069C25.1523 44.3299 40.4856 53.2145 47.7292 57.4453L52.3533 59.9676C53.4832 60.5839 54.3768 60.3079 54.2145 59.0311C54.0645 57.852 53.69 56.0092 52.9214 53.2145C50.8061 45.5222 43.4984 37.0607 35.8061 32.253Z" fill="#D0D5DD"/>
<path d="M29.0637 29.2329L29.0761 28.9856C35.2393 30.5998 42.1257 36.6579 45.196 39.884C45.4445 40.145 45.8366 40.2038 46.1489 40.0239L62.8713 30.3904C63.1359 30.2379 63.4653 30.2526 63.6977 30.4508C66.0017 32.4153 69.0746 37.1798 71.1397 40.7258C72.0676 42.3191 72.4151 44.2479 71.6601 45.9301C70.9161 47.5877 69.5988 49.5463 67.153 51.2933C63.1146 54.1779 58.1146 55.9087 53.3069 53.4087C49.9238 51.6495 38.6548 41.7266 31.5406 35.262C29.8508 33.7266 28.9497 31.5133 29.0637 29.2329Z" fill="#FFDD33"/>
<path d="M45.0381 39.7548C39.0752 33.7933 33.306 30.1394 29.2679 28.9856C28.883 31.6779 30.0367 33.8506 31.1902 34.9471C35.0345 38.6017 46.9597 49.3702 52.3444 52.6394C52.6649 51.1651 50.2339 44.9495 45.0381 39.7548Z" fill="#FFDD33"/>
<path d="M29.0762 27.2546V29.7643C29.0762 30.6168 29.4244 31.427 30.0499 32.0063C36.6489 38.1184 48.8509 48.9457 54.3822 52.188C55.1803 52.6558 56.0865 52.8718 57.0113 52.8471C62.2199 52.7083 70.9054 50.4315 72.73 41.87" stroke="#1D2939" stroke-width="0.384615" stroke-linecap="round"/>
<path d="M45.8066 38.7929L63.3066 28.6006" stroke="#1D2939" stroke-width="0.384615" stroke-linecap="round"/>
<path d="M65.2295 58.793L73.691 53.793" stroke="#1D2939" stroke-width="0.384615" stroke-linecap="round"/>
<path d="M39.0756 32.6383L39.1949 32.4875V32.4875L39.0756 32.6383ZM64.3194 59.5543C64.4217 59.5259 64.4816 59.4199 64.4532 59.3175C64.4247 59.2152 64.3187 59.1553 64.2164 59.1837L64.2679 59.369L64.3194 59.5543ZM22.5371 26.0998L22.5572 26.2911C24.9354 26.0407 31.6045 26.9689 38.9562 32.789L39.0756 32.6383L39.1949 32.4875C31.7774 26.6153 25.0106 25.6461 22.517 25.9085L22.5371 26.0998ZM39.0756 32.6383L38.9562 32.789C48.1558 40.0721 51.9869 46.7746 56.6 55.0397L56.7679 54.9459L56.9358 54.8522C52.3181 46.5788 48.4569 39.8198 39.1949 32.4875L39.0756 32.6383ZM56.7679 54.9459L56.6 55.0397C57.7554 57.1097 58.7851 58.4952 59.9845 59.2324C61.1996 59.9792 62.5581 60.0435 64.3194 59.5543L64.2679 59.369L64.2164 59.1837C62.5161 59.656 61.2784 59.5762 60.1859 58.9047C59.0776 58.2236 58.0881 56.9167 56.9358 54.8522L56.7679 54.9459Z" fill="#1D2939"/>
<path d="M55.5187 25.525C56.1143 25.9271 56.0749 26.8162 55.446 27.1632L47.2659 31.6748C46.8501 31.9041 46.3437 31.8972 45.9338 31.6572L41.4752 29.0471C40.8354 28.6725 40.8417 27.7459 41.4867 27.3811L49.897 22.6297C50.3416 22.3787 50.8904 22.4007 51.3138 22.6864L55.5187 25.525Z" stroke="#1D2939" stroke-width="0.384615"/>
<path d="M76.7686 48.9856C76.8968 50.0112 76.384 51.8702 74.4609 53.2164" stroke="#1D2939" stroke-width="0.384615" stroke-linecap="round"/>
<ellipse cx="28.3135" cy="43.0187" rx="3.50475" ry="5.56636" transform="rotate(-30 28.3135 43.0187)" fill="#D0D5DD" stroke="#1D2939" stroke-width="0.384615"/>
<ellipse cx="51.2403" cy="56.5192" rx="3.50475" ry="5.56636" transform="rotate(-30 51.2403 56.5192)" fill="#D0D5DD" stroke="#1D2939" stroke-width="0.384615"/>
<ellipse cx="28.2687" cy="43.0451" rx="2.12417" ry="3.85623" transform="rotate(-30 28.2687 43.0451)" fill="#D0D5DD" stroke="#1D2939" stroke-width="0.384615"/>
<ellipse cx="51.2057" cy="56.5571" rx="2.12098" ry="3.89593" transform="rotate(-30 51.2057 56.5571)" fill="#D0D5DD" stroke="#1D2939" stroke-width="0.384615"/>
</g>
<defs>
<clipPath id="clip0_9057_25052">
<rect width="100" height="100" fill="white"/>
</clipPath>
</defs>
</svg>
