<svg width="100" height="100" viewBox="0 0 100 100" fill="none" xmlns="http://www.w3.org/2000/svg">
<g clip-path="url(#clip0_9057_24830)">
<g clip-path="url(#clip1_9057_24830)">
<path d="M44.8707 34.8825C47.953 33.1051 51.7493 33.0984 54.8399 34.8648L92.5422 56.4131C94.5996 57.5889 94.6126 60.5482 92.5656 61.7398L54.8615 83.6893C51.7415 85.5056 47.883 85.5003 44.7661 83.6754L7.39813 61.798C5.36058 60.6051 5.36912 57.6598 7.41354 56.481L44.8707 34.8825Z" fill="#FFDD33"/>
<mask id="path-2-outside-1_9057_24830" maskUnits="userSpaceOnUse" x="4" y="15.9463" width="92" height="64" fill="black">
<rect fill="white" x="4" y="15.9463" width="92" height="64"/>
<path fill-rule="evenodd" clip-rule="evenodd" d="M50.4638 18.521C51.2959 17.2929 52.7985 16.7038 54.2427 17.0395L74.6526 21.7835C75.4027 21.9579 75.7461 22.8283 75.3175 23.4686L74.2554 25.0549L76.4557 25.7096C77.1938 25.9293 77.4836 26.819 77.0168 27.432L75.9814 28.7916L78.0885 29.5551C78.8125 29.8175 79.05 30.7226 78.5483 31.3073L75.7426 34.5767L93.4868 44.7217C94.4418 45.2678 94.9564 46.1974 95.029 47.1559H95.0374V47.3308C95.0382 47.3718 95.0382 47.4129 95.0374 47.4539V51.7285C95.0581 52.7793 94.5498 53.8389 93.5106 54.4431L54.9161 76.8829C51.7939 78.6983 47.9318 78.6911 44.8123 76.8642L6.52339 54.4406C5.34817 53.7524 4.85347 52.4823 5.03737 51.3045V47.8709C4.85252 46.6868 5.35353 45.4114 6.53846 44.729L44.8795 22.6486C46.0159 21.9942 47.2493 21.5802 48.5086 21.4067L50.4638 18.521Z"/>
</mask>
<path fill-rule="evenodd" clip-rule="evenodd" d="M50.4638 18.521C51.2959 17.2929 52.7985 16.7038 54.2427 17.0395L74.6526 21.7835C75.4027 21.9579 75.7461 22.8283 75.3175 23.4686L74.2554 25.0549L76.4557 25.7096C77.1938 25.9293 77.4836 26.819 77.0168 27.432L75.9814 28.7916L78.0885 29.5551C78.8125 29.8175 79.05 30.7226 78.5483 31.3073L75.7426 34.5767L93.4868 44.7217C94.4418 45.2678 94.9564 46.1974 95.029 47.1559H95.0374V47.3308C95.0382 47.3718 95.0382 47.4129 95.0374 47.4539V51.7285C95.0581 52.7793 94.5498 53.8389 93.5106 54.4431L54.9161 76.8829C51.7939 78.6983 47.9318 78.6911 44.8123 76.8642L6.52339 54.4406C5.34817 53.7524 4.85347 52.4823 5.03737 51.3045V47.8709C4.85252 46.6868 5.35353 45.4114 6.53846 44.729L44.8795 22.6486C46.0159 21.9942 47.2493 21.5802 48.5086 21.4067L50.4638 18.521Z" fill="white"/>
<path d="M54.2427 17.0395L54.0685 17.7887V17.7887L54.2427 17.0395ZM50.4638 18.521L51.1006 18.9525V18.9525L50.4638 18.521ZM74.6526 21.7835L74.4784 22.5328V22.5328L74.6526 21.7835ZM75.3175 23.4686L74.6783 23.0406V23.0406L75.3175 23.4686ZM74.2554 25.0549L73.6162 24.6269C73.4803 24.83 73.4489 25.0856 73.5317 25.3156C73.6146 25.5455 73.8018 25.7224 74.036 25.7921L74.2554 25.0549ZM76.4557 25.7096L76.2363 26.4469V26.4469L76.4557 25.7096ZM77.0168 27.432L76.4049 26.9659L76.4049 26.9659L77.0168 27.432ZM75.9814 28.7916L75.3694 28.3256C75.2211 28.5203 75.1744 28.774 75.2435 29.0088C75.3126 29.2436 75.4893 29.4315 75.7194 29.5149L75.9814 28.7916ZM78.0885 29.5551L78.3506 28.8319L78.3506 28.8319L78.0885 29.5551ZM78.5483 31.3073L79.132 31.8082V31.8082L78.5483 31.3073ZM75.7426 34.5767L75.1588 34.0758C75.0094 34.2499 74.9455 34.4816 74.9846 34.7077C75.0236 34.9338 75.1616 35.1306 75.3608 35.2445L75.7426 34.5767ZM93.4868 44.7217L93.105 45.3895V45.3895L93.4868 44.7217ZM95.029 47.1559L94.262 47.214C94.2924 47.6151 94.6267 47.9251 95.029 47.9251V47.1559ZM95.0374 47.1559H95.8066C95.8066 46.731 95.4622 46.3867 95.0374 46.3867V47.1559ZM95.0374 47.3308H94.2682C94.2682 47.3359 94.2682 47.3409 94.2683 47.346L95.0374 47.3308ZM95.0374 47.4539L94.2683 47.4387C94.2682 47.4438 94.2682 47.4488 94.2682 47.4539H95.0374ZM95.0374 51.7285H94.2682C94.2682 51.7335 94.2682 51.7386 94.2683 51.7436L95.0374 51.7285ZM93.5106 54.4431L93.1239 53.7781V53.7781L93.5106 54.4431ZM54.9161 76.8829L55.3028 77.5479V77.5479L54.9161 76.8829ZM44.8123 76.8642L45.2011 76.2005V76.2005L44.8123 76.8642ZM6.52339 54.4406L6.91212 53.7769H6.91212L6.52339 54.4406ZM5.03737 51.3045L5.79739 51.4232C5.80352 51.3839 5.8066 51.3442 5.8066 51.3045H5.03737ZM5.03737 47.8709H5.8066C5.8066 47.8312 5.80353 47.7915 5.7974 47.7523L5.03737 47.8709ZM6.53846 44.729L6.92235 45.3956H6.92235L6.53846 44.729ZM44.8795 22.6486L44.4957 21.982V21.982L44.8795 22.6486ZM48.5086 21.4067L48.6136 22.1687C48.8298 22.139 49.0231 22.0188 49.1455 21.8382L48.5086 21.4067ZM54.2427 17.0395L54.4168 16.2902C52.6624 15.8824 50.8375 16.5981 49.827 18.0895L50.4638 18.521L51.1006 18.9525C51.7543 17.9877 52.9346 17.5252 54.0685 17.7887L54.2427 17.0395ZM74.6526 21.7835L74.8268 21.0343L54.4168 16.2902L54.2427 17.0395L54.0685 17.7887L74.4784 22.5328L74.6526 21.7835ZM75.3175 23.4686L75.9567 23.8965C76.6842 22.8098 76.1016 21.3306 74.8268 21.0343L74.6526 21.7835L74.4784 22.5328C74.7038 22.5852 74.808 22.8468 74.6783 23.0406L75.3175 23.4686ZM74.2554 25.0549L74.8946 25.4828L75.9567 23.8965L75.3175 23.4686L74.6783 23.0406L73.6162 24.6269L74.2554 25.0549ZM74.2554 25.0549L74.036 25.7921L76.2363 26.4469L76.4557 25.7096L76.6751 24.9723L74.4748 24.3176L74.2554 25.0549ZM76.4557 25.7096L76.2363 26.4469C76.458 26.5129 76.5461 26.7804 76.4049 26.9659L77.0168 27.432L77.6288 27.898C78.4212 26.8575 77.9295 25.3456 76.6751 24.9723L76.4557 25.7096ZM77.0168 27.432L76.4049 26.9659L75.3694 28.3256L75.9814 28.7916L76.5934 29.2577L77.6288 27.898L77.0168 27.432ZM75.9814 28.7916L75.7194 29.5149L77.8265 30.2783L78.0885 29.5551L78.3506 28.8319L76.2435 28.0684L75.9814 28.7916ZM78.0885 29.5551L77.8265 30.2783C78.044 30.3572 78.1164 30.6294 77.9645 30.8063L78.5483 31.3073L79.132 31.8082C79.9837 30.8158 79.5811 29.2778 78.3506 28.8319L78.0885 29.5551ZM78.5483 31.3073L77.9645 30.8063L75.1588 34.0758L75.7426 34.5767L76.3263 35.0777L79.132 31.8082L78.5483 31.3073ZM75.7426 34.5767L75.3608 35.2445L93.105 45.3895L93.4868 44.7217L93.8686 44.0539L76.1244 33.9089L75.7426 34.5767ZM93.4868 44.7217L93.105 45.3895C93.8238 45.8005 94.2074 46.4928 94.262 47.214L95.029 47.1559L95.7961 47.0978C95.7055 45.902 95.0599 44.735 93.8686 44.0539L93.4868 44.7217ZM95.029 47.1559V47.9251H95.0374V47.1559V46.3867H95.029V47.1559ZM95.0374 47.1559H94.2682V47.3308H95.0374H95.8066V47.1559H95.0374ZM95.0374 47.3308L94.2683 47.346C94.2689 47.3769 94.2689 47.4078 94.2683 47.4387L95.0374 47.4539L95.8065 47.469C95.8075 47.4179 95.8075 47.3668 95.8065 47.3156L95.0374 47.3308ZM95.0374 47.4539H94.2682V51.7285H95.0374H95.8066V47.4539H95.0374ZM95.0374 51.7285L94.2683 51.7436C94.2839 52.5365 93.9037 53.3247 93.1239 53.7781L93.5106 54.4431L93.8972 55.1081C95.1959 54.353 95.8322 53.0221 95.8065 51.7133L95.0374 51.7285ZM93.5106 54.4431L93.1239 53.7781L54.5295 76.2179L54.9161 76.8829L55.3028 77.5479L93.8972 55.1081L93.5106 54.4431ZM54.9161 76.8829L54.5295 76.2179C51.6473 77.8937 48.0814 77.8873 45.2011 76.2005L44.8123 76.8642L44.4236 77.528C47.7821 79.4949 51.9405 79.5028 55.3028 77.5479L54.9161 76.8829ZM44.8123 76.8642L45.2011 76.2005L6.91212 53.7769L6.52339 54.4406L6.13465 55.1044L44.4236 77.528L44.8123 76.8642ZM6.52339 54.4406L6.91212 53.7769C6.03141 53.2611 5.65826 52.3143 5.79739 51.4232L5.03737 51.3045L4.27735 51.1858C4.04869 52.6503 4.66494 54.2437 6.13465 55.1044L6.52339 54.4406ZM5.03737 51.3045H5.8066V47.8709H5.03737H4.26814V51.3045H5.03737ZM5.03737 47.8709L5.7974 47.7523C5.65749 46.856 6.03559 45.9063 6.92235 45.3956L6.53846 44.729L6.15458 44.0624C4.67147 44.9165 4.04755 46.5175 4.27735 47.9896L5.03737 47.8709ZM6.53846 44.729L6.92235 45.3956L45.2634 23.3152L44.8795 22.6486L44.4957 21.982L6.15458 44.0624L6.53846 44.729ZM44.8795 22.6486L45.2634 23.3152C46.3125 22.711 47.451 22.3289 48.6136 22.1687L48.5086 21.4067L48.4037 20.6447C47.0476 20.8315 45.7193 21.2773 44.4957 21.982L44.8795 22.6486ZM50.4638 18.521L49.827 18.0895L47.8718 20.9752L48.5086 21.4067L49.1455 21.8382L51.1006 18.9525L50.4638 18.521Z" fill="#1D2939" mask="url(#path-2-outside-1_9057_24830)"/>
<mask id="mask0_9057_24830" style="mask-type:alpha" maskUnits="userSpaceOnUse" x="5" y="21" width="45" height="58">
<rect x="5" y="21.1536" width="45" height="57.3077" fill="#D0D8DC"/>
</mask>
<g mask="url(#mask0_9057_24830)">
<path d="M44.8422 27.0459C47.9267 25.2695 51.7266 25.2646 54.8197 27.033L93.4494 49.1191C95.5071 50.2955 95.5203 53.2524 93.4732 54.4427L54.8787 76.8825C51.7565 78.6978 47.8944 78.6907 44.775 76.8638L6.48601 54.4402C4.44816 53.2468 4.45651 50.3038 6.50109 49.1263L44.8422 27.0459Z" fill="#D0D5DD"/>
<path d="M44.8421 22.6505C47.9267 20.8741 51.7266 20.8692 54.8196 22.6376L93.4493 44.7236C95.507 45.9001 95.5202 48.857 93.4731 50.0472L54.8787 72.487C51.7565 74.3024 47.8943 74.2952 44.7749 72.4683L6.48594 50.0447C4.44809 48.8513 4.45644 45.9083 6.50102 44.7309L44.8421 22.6505Z" fill="#D0D5DD"/>
<rect x="5.00098" y="47.1555" width="90" height="4.61538" fill="#D0D5DD"/>
</g>
<path d="M93.5442 44.4893C95.7301 45.7387 95.744 48.8823 93.5692 50.1485L54.9553 72.6282C51.7753 74.4794 47.8423 74.4739 44.6654 72.614L6.39507 50.208C4.23035 48.9405 4.23958 45.8111 6.41172 44.5586L44.7717 22.4395C47.9133 20.628 51.7836 20.6212 54.9336 22.4215L93.5442 44.4893Z" fill="white" stroke="#1D2939" stroke-width="0.384615"/>
<path d="M28.2945 62.9936H49.6487L56.055 57.655L60.3258 52.3165L57.3075 39.9986L50.5086 23.6389C49.7688 21.8586 47.6354 21.1306 45.9615 22.087L30.4299 30.9623L19.9998 36.7294L6.42431 44.6724C4.40209 45.8557 4.39154 48.7748 6.40515 49.9726L28.2945 62.9936Z" fill="#D0D5DD"/>
<mask id="path-10-inside-2_9057_24830" fill="white">
<path d="M82.6865 37.4336C85.8564 36.2324 88.9829 36.7112 89.7309 38.4955L89.7336 38.4944L90.5836 40.7372L90.5717 40.7417C91.0479 42.5555 89.0468 44.8943 85.9575 46.0651C82.8682 47.2358 79.8198 46.8106 78.9742 45.1368L78.9614 45.1416L78.1115 42.8988L78.1142 42.8978C77.4918 41.0659 79.5165 38.6349 82.6865 37.4336Z"/>
</mask>
<path d="M82.6865 37.4336C85.8564 36.2324 88.9829 36.7112 89.7309 38.4955L89.7336 38.4944L90.5836 40.7372L90.5717 40.7417C91.0479 42.5555 89.0468 44.8943 85.9575 46.0651C82.8682 47.2358 79.8198 46.8106 78.9742 45.1368L78.9614 45.1416L78.1115 42.8988L78.1142 42.8978C77.4918 41.0659 79.5165 38.6349 82.6865 37.4336Z" fill="#1D2939"/>
<path d="M82.6865 37.4336L82.5502 37.074L82.5502 37.074L82.6865 37.4336ZM89.7309 38.4955L89.3762 38.6442L89.5198 38.9868L89.8672 38.8551L89.7309 38.4955ZM89.7336 38.4944L90.0933 38.3581L89.957 37.9985L89.5973 38.1348L89.7336 38.4944ZM90.5836 40.7372L90.7199 41.0969L91.0795 40.9606L90.9432 40.6009L90.5836 40.7372ZM90.5717 40.7417L90.4354 40.3821L90.1118 40.5047L90.1997 40.8394L90.5717 40.7417ZM85.9575 46.0651L86.0938 46.4247L86.0939 46.4247L85.9575 46.0651ZM78.9742 45.1368L79.3175 44.9633L79.1615 44.6545L78.8379 44.7771L78.9742 45.1368ZM78.9614 45.1416L78.6018 45.2779L78.7381 45.6375L79.0977 45.5013L78.9614 45.1416ZM78.1115 42.8988L77.9752 42.5392L77.6155 42.6754L77.7518 43.0351L78.1115 42.8988ZM78.1142 42.8978L78.2505 43.2574L78.5979 43.1258L78.4784 42.774L78.1142 42.8978ZM82.6865 37.4336L82.8228 37.7933C84.3571 37.2119 85.8641 37.0442 87.0593 37.2253C88.2668 37.4082 89.0762 37.9286 89.3762 38.6442L89.7309 38.4955L90.0856 38.3468C89.6376 37.278 88.5097 36.667 87.1745 36.4647C85.8271 36.2606 84.1859 36.4542 82.5502 37.074L82.6865 37.4336ZM89.7309 38.4955L89.8672 38.8551L89.8699 38.8541L89.7336 38.4944L89.5973 38.1348L89.5946 38.1358L89.7309 38.4955ZM89.7336 38.4944L89.374 38.6307L90.2239 40.8735L90.5836 40.7372L90.9432 40.6009L90.0933 38.3581L89.7336 38.4944ZM90.5836 40.7372L90.4473 40.3776L90.4354 40.3821L90.5717 40.7417L90.708 41.1014L90.7199 41.0969L90.5836 40.7372ZM90.5717 40.7417L90.1997 40.8394C90.392 41.5719 90.0972 42.482 89.3106 43.3932C88.532 44.295 87.3161 45.1389 85.8212 45.7054L85.9575 46.0651L86.0939 46.4247C87.6882 45.8205 89.0176 44.9096 89.8928 43.8959C90.76 42.8915 91.2276 41.7253 90.9437 40.644L90.5717 40.7417ZM85.9575 46.0651L85.8213 45.7054C84.3263 46.2719 82.8566 46.4458 81.6759 46.2865C80.483 46.1255 79.659 45.6394 79.3175 44.9633L78.9742 45.1368L78.6309 45.3102C79.135 46.308 80.258 46.8714 81.573 47.0488C82.9003 47.2279 84.4994 47.029 86.0938 46.4247L85.9575 46.0651ZM78.9742 45.1368L78.8379 44.7771L78.8251 44.7819L78.9614 45.1416L79.0977 45.5013L79.1105 45.4964L78.9742 45.1368ZM78.9614 45.1416L79.3211 45.0053L78.4712 42.7625L78.1115 42.8988L77.7518 43.0351L78.6018 45.2779L78.9614 45.1416ZM78.1115 42.8988L78.2478 43.2585L78.2505 43.2574L78.1142 42.8978L77.9779 42.5381L77.9752 42.5392L78.1115 42.8988ZM78.1142 42.8978L78.4784 42.774C78.2288 42.0395 78.4901 41.1132 79.2734 40.1758C80.0486 39.248 81.2885 38.3747 82.8228 37.7933L82.6865 37.4336L82.5502 37.074C80.9145 37.6938 79.5571 38.6367 78.6831 39.6826C77.8171 40.719 77.3772 41.9242 77.7501 43.0215L78.1142 42.8978Z" fill="#1D2939" mask="url(#path-10-inside-2_9057_24830)"/>
<path d="M80.4384 46.3724L79.6914 44.4014L80.0405 44.5022L80.8004 46.5072L80.4384 46.3724Z" fill="#FFDD33"/>
<path d="M82.7557 37.6145C84.3345 37.0162 85.8941 36.8451 87.1352 37.043C88.3825 37.2419 89.2667 37.8036 89.5803 38.6311C89.8939 39.4587 89.6041 40.4653 88.8019 41.4409C88.0036 42.4116 86.7223 43.3171 85.1435 43.9155C83.5645 44.5139 82.0043 44.6852 80.7631 44.4873C79.5158 44.2884 78.6316 43.7267 78.318 42.8992C78.0044 42.0716 78.2942 41.0651 79.0964 40.0894C79.8947 39.1186 81.1767 38.2129 82.7557 37.6145Z" fill="#FFDD33" stroke="#1D2939" stroke-width="0.384615"/>
<path d="M83.0637 38.4298C84.2484 37.9809 85.4167 37.8533 86.3435 38.0015C87.2766 38.1507 87.9237 38.5695 88.152 39.1719C88.3802 39.7743 88.1728 40.516 87.5731 41.246C86.9772 41.9713 86.0183 42.6508 84.8335 43.0999C83.6486 43.5489 82.4795 43.6759 81.5524 43.5276C80.6196 43.3784 79.9726 42.9604 79.7443 42.3581C79.516 41.7557 79.7231 41.0132 80.3229 40.2831C80.9188 39.5577 81.8788 38.8788 83.0637 38.4298Z" fill="#D0D5DD" stroke="#1D2939" stroke-width="0.384615"/>
<path d="M82.972 38.699C84.1099 38.2679 85.2319 38.1453 86.1211 38.2868C87.0162 38.4293 87.6341 38.8293 87.8517 39.4032C88.0692 39.9772 87.872 40.687 87.296 41.3871C86.7239 42.0823 85.8021 42.7332 84.6643 43.1645C83.5262 43.5958 82.4039 43.7195 81.5146 43.578C80.6193 43.4355 80.0012 43.0347 79.7837 42.4607C79.5662 41.8867 79.7639 41.1777 80.3397 40.4777C80.9119 39.7824 81.8339 39.1303 82.972 38.699Z" fill="#FFDD33" stroke="#1D2939" stroke-width="0.384615"/>
<mask id="path-16-inside-3_9057_24830" fill="white">
<path d="M24.3846 31.3575C27.4808 32.739 29.3621 35.2823 28.6347 37.0754L28.6373 37.0766L27.6602 39.267L27.6486 39.2618C26.7085 40.8845 23.6405 41.1339 20.6235 39.788C17.6063 38.442 15.7418 35.992 16.3214 34.2084L16.3098 34.2032L17.287 32.0129L17.2896 32.014C18.1381 30.2748 21.2882 29.9761 24.3846 31.3575Z"/>
</mask>
<path d="M24.3846 31.3575C27.4808 32.739 29.3621 35.2823 28.6347 37.0754L28.6373 37.0766L27.6602 39.267L27.6486 39.2618C26.7085 40.8845 23.6405 41.1339 20.6235 39.788C17.6063 38.442 15.7418 35.992 16.3214 34.2084L16.3098 34.2032L17.287 32.0129L17.2896 32.014C18.1381 30.2748 21.2882 29.9761 24.3846 31.3575Z" fill="#1D2939"/>
<path d="M24.3846 31.3575L24.5413 31.0063L24.5413 31.0063L24.3846 31.3575ZM28.6347 37.0754L28.2783 36.9309L28.1385 37.2753L28.478 37.4267L28.6347 37.0754ZM28.6373 37.0766L28.9886 37.2333L29.1453 36.8821L28.794 36.7254L28.6373 37.0766ZM27.6602 39.267L27.5035 39.6182L27.8547 39.7749L28.0114 39.4237L27.6602 39.267ZM27.6486 39.2618L27.8053 38.9106L27.4892 38.7696L27.3158 39.069L27.6486 39.2618ZM20.6235 39.788L20.4668 40.1393L20.4668 40.1393L20.6235 39.788ZM16.3214 34.2084L16.6872 34.3272L16.7941 33.9981L16.4781 33.8571L16.3214 34.2084ZM16.3098 34.2032L15.9585 34.0465L15.8018 34.3977L16.1531 34.5544L16.3098 34.2032ZM17.287 32.0129L17.4437 31.6616L17.0924 31.5049L16.9357 31.8562L17.287 32.0129ZM17.2896 32.014L17.1329 32.3653L17.4724 32.5167L17.6353 32.1827L17.2896 32.014ZM24.3846 31.3575L24.2279 31.7088C25.7265 32.3774 26.9141 33.3205 27.6346 34.2913C28.3626 35.2721 28.57 36.2118 28.2783 36.9309L28.6347 37.0754L28.9911 37.22C29.4268 36.1459 29.0573 34.9174 28.2523 33.8329C27.44 32.7384 26.1389 31.7191 24.5413 31.0063L24.3846 31.3575ZM28.6347 37.0754L28.478 37.4267L28.4806 37.4279L28.6373 37.0766L28.794 36.7254L28.7914 36.7242L28.6347 37.0754ZM28.6373 37.0766L28.2861 36.9199L27.3089 39.1103L27.6602 39.267L28.0114 39.4237L28.9886 37.2333L28.6373 37.0766ZM27.6602 39.267L27.8169 38.9157L27.8053 38.9106L27.6486 39.2618L27.4919 39.6131L27.5035 39.6182L27.6602 39.267ZM27.6486 39.2618L27.3158 39.069C26.9361 39.7244 26.0857 40.1624 24.8854 40.2546C23.6975 40.3459 22.2401 40.0881 20.7802 39.4368L20.6235 39.788L20.4668 40.1393C22.0239 40.8339 23.609 41.1242 24.9444 41.0216C26.2674 40.9199 27.421 40.422 27.9814 39.4546L27.6486 39.2618ZM20.6235 39.788L20.7802 39.4368C19.3202 38.7854 18.1545 37.8731 17.4287 36.928C16.6953 35.9731 16.4531 35.0475 16.6872 34.3272L16.3214 34.2084L15.9556 34.0895C15.6101 35.1528 16.0103 36.344 16.8186 37.3965C17.6344 38.4589 18.9096 39.4446 20.4668 40.1393L20.6235 39.788ZM16.3214 34.2084L16.4781 33.8571L16.4665 33.852L16.3098 34.2032L16.1531 34.5544L16.1647 34.5596L16.3214 34.2084ZM16.3098 34.2032L16.661 34.3599L17.6382 32.1696L17.287 32.0129L16.9357 31.8562L15.9585 34.0465L16.3098 34.2032ZM17.287 32.0129L17.1303 32.3641L17.1329 32.3653L17.2896 32.014L17.4463 31.6628L17.4437 31.6616L17.287 32.0129ZM17.2896 32.014L17.6353 32.1827C17.9756 31.4853 18.8135 31.0119 20.0299 30.8985C21.2338 30.7863 22.7292 31.0402 24.2279 31.7088L24.3846 31.3575L24.5413 31.0063C22.9436 30.2935 21.3158 30.006 19.9585 30.1326C18.6135 30.258 17.4522 30.8036 16.944 31.8454L17.2896 32.014Z" fill="#1D2939" mask="url(#path-16-inside-3_9057_24830)"/>
<path d="M16.4918 36.1134L17.3506 34.1885L17.5273 34.5061L16.6537 36.4642L16.4918 36.1134Z" fill="#FFDD33"/>
<path d="M24.3062 31.534C25.8481 32.2219 27.0754 33.1994 27.8166 34.2143C28.5615 35.2344 28.7932 36.2559 28.4326 37.0641C28.072 37.8723 27.1571 38.3823 25.9004 38.5094C24.65 38.6357 23.1028 38.3754 21.5609 37.6876C20.0188 36.9996 18.7909 36.0219 18.0496 35.0069C17.3047 33.9868 17.0731 32.9652 17.4336 32.1571C17.7942 31.3489 18.7091 30.8389 19.9658 30.7118C21.2163 30.5854 22.7641 30.846 24.3062 31.534Z" fill="#FFDD33" stroke="#1D2939" stroke-width="0.384615"/>
<path d="M23.9504 32.3293C25.1073 32.8455 26.0262 33.5781 26.5795 34.3363C27.1365 35.0997 27.3006 35.8528 27.0381 36.4412C26.7756 37.0294 26.1058 37.4096 25.1659 37.505C24.232 37.5998 23.0728 37.4063 21.9156 36.8901C20.7584 36.3739 19.8393 35.6402 19.286 34.8818C18.7292 34.1186 18.5647 33.3662 18.827 32.7779C19.0895 32.1896 19.7596 31.8086 20.6997 31.7131C21.6336 31.6183 22.7932 31.8131 23.9504 32.3293Z" fill="#D0D5DD" stroke="#1D2939" stroke-width="0.384615"/>
<path d="M23.6956 32.454C24.8069 32.9499 25.6894 33.6535 26.2207 34.3804C26.7554 35.1122 26.912 35.8315 26.6621 36.392C26.4119 36.9526 25.7719 37.3173 24.8699 37.4082C23.974 37.4984 22.8613 37.3108 21.75 36.8151C20.6385 36.3192 19.755 35.6162 19.2237 34.8892C18.6887 34.1573 18.5326 33.4374 18.7827 32.8767C19.0328 32.3163 19.6727 31.9524 20.5745 31.8614C21.4704 31.7712 22.5842 31.9582 23.6956 32.454Z" fill="#FFDD33" stroke="#1D2939" stroke-width="0.384615"/>
<path d="M28.1943 53.4128C27.599 54.099 27.8772 55.1684 28.7311 55.477L48.6682 62.6806C50.1434 63.2135 51.7952 62.7779 52.8172 61.587L78.6936 31.4334C79.2829 30.7466 79.0045 29.6837 78.1542 29.3756L58.4532 22.238C56.9843 21.7058 55.3383 22.1334 54.3138 23.3139L28.1943 53.4128Z" fill="#FFDD33" stroke="#1D2939" stroke-width="0.384615"/>
<path d="M28.7958 52.9764C28.2214 53.6695 28.512 54.7221 29.3603 55.0215L48.6085 61.8142C49.9722 62.2955 51.4918 61.8578 52.3922 60.725L56.9339 55.0106L56.9404 55.0029L72.6604 32.962C74.1706 30.8446 73.1379 27.8728 70.6407 27.1507L56.5315 23.0721C55.0883 22.6549 53.5341 23.1332 52.5748 24.2905L28.7958 52.9764Z" fill="#1D2939" stroke="#1D2939" stroke-width="0.384615"/>
<path d="M28.0385 52.4377C27.4843 53.1574 27.8243 54.2088 28.6948 54.467L49.0183 60.495C50.522 60.9409 52.1455 60.4097 53.0964 59.1612L77.1693 27.5492C77.7175 26.8292 77.3776 25.7844 76.5108 25.5264L56.4269 19.5505C54.9295 19.1049 53.3112 19.6277 52.3573 20.8661L28.0385 52.4377Z" fill="#FFDD33" stroke="#1D2939" stroke-width="0.384615"/>
<path d="M28.3858 51.7739C27.8279 52.4914 28.1636 53.5448 29.0335 53.8065L48.8816 59.7767C50.3103 60.2065 51.8537 59.651 52.6817 58.4091L56.3659 52.8821L56.3686 52.8786L71.7137 28.8808C73.1176 26.6852 71.928 23.7633 69.3902 23.1758L55.8369 20.0398C54.4038 19.7082 52.9076 20.2402 52.0041 21.402L28.3858 51.7739Z" fill="#1D2939" stroke="#1D2939" stroke-width="0.384615"/>
<path d="M27.9509 51.4067C27.4415 52.1588 27.8449 53.1876 28.7294 53.3924L49.3819 58.1733C50.9099 58.5269 52.4982 57.8979 53.3713 56.5939L75.4772 23.5763C75.9806 22.8244 75.5777 21.8021 74.6968 21.5973L54.2866 16.8539C52.7649 16.5002 51.1814 17.1205 50.3046 18.4146L27.9509 51.4067Z" fill="#FFDD33" stroke="#1D2939" stroke-width="0.384615"/>
<path d="M53.6078 20.4246C52.2857 21.0305 51.1748 20.6771 50.7846 20.4246L31.4355 48.8629C31.688 48.8629 32.7438 49.2761 33.2259 50.2401C33.7844 51.3571 33.5701 52.3747 33.2259 52.8567L48.2369 56.1619C48.3058 55.6799 49.0907 54.4267 50.0272 53.8207C50.9637 53.2148 52.6438 53.2928 53.4012 53.5453L71.0978 26.8284C70.7994 26.7366 69.8049 26.1349 69.5829 24.9692C69.3074 23.5232 70.0649 22.9035 70.3403 22.2149L55.467 18.6343C55.3981 18.9786 54.9299 19.8186 53.6078 20.4246Z" fill="#FFDD33" stroke="#1D2939" stroke-width="0.384615"/>
<path d="M52.4042 32.4033C54.6997 32.8177 56.6792 33.687 58.0243 34.7477C59.3769 35.8143 60.0489 37.0387 59.8448 38.1695C59.6405 39.3003 58.5827 40.2125 56.9427 40.7388C55.3116 41.262 53.1531 41.3833 50.8577 40.9689C48.5623 40.5545 46.5825 39.6862 45.2374 38.6255C43.885 37.559 43.214 36.3346 43.418 35.2038C43.6221 34.073 44.6791 33.1607 46.3191 32.6344C47.9501 32.1111 50.1087 31.9889 52.4042 32.4033Z" fill="#FFDD33" stroke="#1D2939" stroke-width="0.384615"/>
<path d="M59.243 25.7437C60.1273 25.8973 60.8854 26.2257 61.3966 26.6233C61.9152 27.0267 62.1403 27.4657 62.0745 27.8453C62.0085 28.2249 61.6485 28.5621 61.0242 28.767C60.4089 28.969 59.5842 29.0233 58.6999 28.8697C57.8155 28.7161 57.0576 28.3868 56.5464 27.9891C56.0277 27.5856 55.8026 27.1468 55.8686 26.7672C55.9347 26.3876 56.2945 26.0503 56.9188 25.8454C57.5341 25.6436 58.3587 25.5901 59.243 25.7437Z" stroke="#1D2939" stroke-width="0.384615"/>
<path d="M44.496 45.4168C45.3912 45.5968 46.1536 45.9511 46.6632 46.3695C47.1802 46.794 47.398 47.2481 47.3204 47.6342C47.2426 48.0201 46.8663 48.354 46.2257 48.5456C45.594 48.7346 44.7539 48.7667 43.8586 48.5867C42.9631 48.4067 42.2001 48.0523 41.6905 47.6338C41.1737 47.2094 40.9557 46.7561 41.0331 46.3701C41.1107 45.984 41.4871 45.6494 42.128 45.4577C42.7598 45.2687 43.6005 45.2367 44.496 45.4168Z" stroke="#1D2939" stroke-width="0.384615"/>
</g>
</g>
<defs>
<clipPath id="clip0_9057_24830">
<rect width="100" height="100" fill="white"/>
</clipPath>
<clipPath id="clip1_9057_24830">
<rect width="100" height="100" fill="white"/>
</clipPath>
</defs>
</svg>
