<svg width="100" height="100" viewBox="0 0 100 100" fill="none" xmlns="http://www.w3.org/2000/svg">
<g clip-path="url(#clip0_9057_25003)">
<path d="M44.8717 34.8825C47.954 33.1051 51.7503 33.0984 54.8408 34.8648L92.5432 56.4131C94.6006 57.5889 94.6136 60.5482 92.5666 61.7398L54.8625 83.6893C51.7425 85.5056 47.884 85.5003 44.767 83.6754L7.39911 61.798C5.36156 60.6051 5.37009 57.6598 7.41452 56.481L44.8717 34.8825Z" fill="#FFDD33"/>
<mask id="path-2-outside-1_9057_25003" maskUnits="userSpaceOnUse" x="4.00098" y="15.5579" width="92" height="64" fill="black">
<rect fill="white" x="4.00098" y="15.5579" width="92" height="64"/>
<path fill-rule="evenodd" clip-rule="evenodd" d="M19.914 30.2196C19.5985 29.6646 19.7932 28.9584 20.3487 28.6437L41.4122 16.7079C41.9678 16.3931 42.673 16.5897 42.9855 17.1466L45.809 22.1775C48.7049 20.8895 52.0689 21.0422 54.858 22.6369L93.4878 44.7229C94.4421 45.2685 94.9567 46.1972 95.0299 47.155H95.0384V47.332C95.0392 47.373 95.0392 47.414 95.0384 47.455V51.7276C95.059 52.7784 94.5508 53.838 93.5115 54.4422L54.9171 76.882C51.7949 78.6974 47.9327 78.6902 44.8133 76.8633L6.52436 54.4398C5.34916 53.7515 4.85445 52.4814 5.03835 51.3036V47.8721C4.8535 46.6879 5.35451 45.4125 6.53944 44.7301L22.8303 35.3483L19.914 30.2196Z"/>
</mask>
<path fill-rule="evenodd" clip-rule="evenodd" d="M19.914 30.2196C19.5985 29.6646 19.7932 28.9584 20.3487 28.6437L41.4122 16.7079C41.9678 16.3931 42.673 16.5897 42.9855 17.1466L45.809 22.1775C48.7049 20.8895 52.0689 21.0422 54.858 22.6369L93.4878 44.7229C94.4421 45.2685 94.9567 46.1972 95.0299 47.155H95.0384V47.332C95.0392 47.373 95.0392 47.414 95.0384 47.455V51.7276C95.059 52.7784 94.5508 53.838 93.5115 54.4422L54.9171 76.882C51.7949 78.6974 47.9327 78.6902 44.8133 76.8633L6.52436 54.4398C5.34916 53.7515 4.85445 52.4814 5.03835 51.3036V47.8721C4.8535 46.6879 5.35451 45.4125 6.53944 44.7301L22.8303 35.3483L19.914 30.2196Z" fill="white"/>
<path d="M20.3487 28.6437L19.9694 27.9744L19.9694 27.9744L20.3487 28.6437ZM19.914 30.2196L19.2453 30.5998V30.5998L19.914 30.2196ZM41.4122 16.7079L41.7914 17.3772V17.3772L41.4122 16.7079ZM42.9855 17.1466L42.3147 17.5231V17.5231L42.9855 17.1466ZM45.809 22.1775L45.1382 22.554L45.4812 23.1651L46.1216 22.8803L45.809 22.1775ZM54.858 22.6369L55.2398 21.9691V21.9691L54.858 22.6369ZM93.4878 44.7229L93.1059 45.3907V45.3907L93.4878 44.7229ZM95.0299 47.155L94.2629 47.2136L94.3172 47.9242H95.0299V47.155ZM95.0384 47.155H95.8076V46.3858H95.0384V47.155ZM95.0384 47.332H94.2691V47.3396L94.2693 47.3471L95.0384 47.332ZM95.0384 47.455L94.2693 47.4399L94.2691 47.4474V47.455H95.0384ZM95.0384 51.7276H94.2691V51.7352L94.2693 51.7427L95.0384 51.7276ZM93.5115 54.4422L93.1249 53.7772V53.7772L93.5115 54.4422ZM54.9171 76.882L54.5305 76.217V76.217L54.9171 76.882ZM44.8133 76.8633L45.202 76.1996V76.1996L44.8133 76.8633ZM6.52436 54.4398L6.13563 55.1035V55.1035L6.52436 54.4398ZM5.03835 51.3036L5.79837 51.4223L5.80758 51.3633V51.3036H5.03835ZM5.03835 47.8721H5.80758V47.8124L5.79837 47.7534L5.03835 47.8721ZM6.53944 44.7301L6.92333 45.3967H6.92333L6.53944 44.7301ZM22.8303 35.3483L23.2142 36.0149L23.8771 35.6331L23.499 34.9681L22.8303 35.3483ZM20.3487 28.6437L19.9694 27.9744C19.044 28.4988 18.7196 29.6752 19.2453 30.5998L19.914 30.2196L20.5827 29.8394C20.4774 29.6541 20.5425 29.418 20.7279 29.3129L20.3487 28.6437ZM41.4122 16.7079L41.033 16.0387L19.9694 27.9744L20.3487 28.6437L20.7279 29.3129L41.7914 17.3772L41.4122 16.7079ZM42.9855 17.1466L43.6563 16.7702C43.1353 15.8417 41.9593 15.5138 41.033 16.0387L41.4122 16.7079L41.7914 17.3772C41.9763 17.2724 42.2107 17.3378 42.3147 17.5231L42.9855 17.1466ZM45.809 22.1775L46.4798 21.801L43.6563 16.7702L42.9855 17.1466L42.3147 17.5231L45.1382 22.554L45.809 22.1775ZM45.809 22.1775L46.1216 22.8803C48.7949 21.6914 51.9009 21.8322 54.4762 23.3046L54.858 22.6369L55.2398 21.9691C52.2368 20.2521 48.6149 20.0876 45.4964 21.4746L45.809 22.1775ZM54.858 22.6369L54.4762 23.3046L93.1059 45.3907L93.4878 44.7229L93.8696 44.0551L55.2398 21.9691L54.858 22.6369ZM93.4878 44.7229L93.1059 45.3907C93.8243 45.8014 94.2078 46.493 94.2629 47.2136L95.0299 47.155L95.7969 47.0964C95.7056 45.9015 95.06 44.7357 93.8696 44.0551L93.4878 44.7229ZM95.0299 47.155V47.9242H95.0384V47.155V46.3858H95.0299V47.155ZM95.0384 47.155H94.2691V47.332H95.0384H95.8076V47.155H95.0384ZM95.0384 47.332L94.2693 47.3471C94.2699 47.378 94.2699 47.409 94.2693 47.4399L95.0384 47.455L95.8074 47.4702C95.8084 47.4191 95.8084 47.3679 95.8074 47.3168L95.0384 47.332ZM95.0384 47.455H94.2691V51.7276H95.0384H95.8076V47.455H95.0384ZM95.0384 51.7276L94.2693 51.7427C94.2849 52.5356 93.9047 53.3238 93.1249 53.7772L93.5115 54.4422L93.8982 55.1072C95.1969 54.3521 95.8332 53.0212 95.8074 51.7125L95.0384 51.7276ZM93.5115 54.4422L93.1249 53.7772L54.5305 76.217L54.9171 76.882L55.3037 77.547L93.8982 55.1072L93.5115 54.4422ZM54.9171 76.882L54.5305 76.217C51.6483 77.8928 48.0824 77.8864 45.202 76.1996L44.8133 76.8633L44.4246 77.5271C47.7831 79.494 51.9415 79.5019 55.3037 77.547L54.9171 76.882ZM44.8133 76.8633L45.202 76.1996L6.9131 53.776L6.52436 54.4398L6.13563 55.1035L44.4246 77.5271L44.8133 76.8633ZM6.52436 54.4398L6.9131 53.776C6.03239 53.2602 5.65924 52.3134 5.79837 51.4223L5.03835 51.3036L4.27832 51.185C4.04967 52.6494 4.66592 54.2428 6.13563 55.1035L6.52436 54.4398ZM5.03835 51.3036H5.80758V47.8721H5.03835H4.26912V51.3036H5.03835ZM5.03835 47.8721L5.79837 47.7534C5.65847 46.8572 6.03657 45.9074 6.92333 45.3967L6.53944 44.7301L6.15555 44.0635C4.67245 44.9177 4.04853 46.5186 4.27832 47.9907L5.03835 47.8721ZM6.53944 44.7301L6.92333 45.3967L23.2142 36.0149L22.8303 35.3483L22.4464 34.6817L6.15555 44.0635L6.53944 44.7301ZM19.914 30.2196L19.2453 30.5998L22.1616 35.7286L22.8303 35.3483L23.499 34.9681L20.5827 29.8394L19.914 30.2196Z" fill="#1D2939" mask="url(#path-2-outside-1_9057_25003)"/>
<mask id="mask0_9057_25003" style="mask-type:alpha" maskUnits="userSpaceOnUse" x="5" y="21" width="46" height="58">
<rect x="5.00098" y="21.1533" width="45" height="57.3077" fill="#D0D8DC"/>
</mask>
<g mask="url(#mask0_9057_25003)">
<path d="M44.8432 27.0457C47.9277 25.2693 51.7276 25.2644 54.8207 27.0328L93.4504 49.1188C95.508 50.2953 95.5213 53.2522 93.4742 54.4424L54.8797 76.8822C51.7575 78.6976 47.8954 78.6904 44.7759 76.8636L6.48699 54.44C4.44914 53.2465 4.45749 50.3035 6.50206 49.1261L44.8432 27.0457Z" fill="#D0D5DD"/>
<path d="M44.8431 22.6502C47.9276 20.8738 51.7275 20.8689 54.8206 22.6373L93.4503 44.7234C95.508 45.8998 95.5212 48.8567 93.4741 50.047L54.8797 72.4868C51.7574 74.3021 47.8953 74.295 44.7759 72.4681L6.48692 50.0445C4.44906 48.8511 4.45741 45.9081 6.50199 44.7306L44.8431 22.6502Z" fill="#D0D5DD"/>
<rect x="5.00195" y="47.1553" width="90" height="4.61538" fill="#D0D5DD"/>
</g>
<path d="M93.5442 44.4891C95.7301 45.7384 95.744 48.882 93.5692 50.1482L54.9553 72.628C51.7753 74.4791 47.8423 74.4737 44.6654 72.6138L6.39507 50.2078C4.23035 48.9402 4.23958 45.8109 6.41172 44.5584L44.7717 22.4393C47.9133 20.6278 51.7836 20.621 54.9336 22.4213L93.5442 44.4891Z" fill="white" stroke="#1D2939" stroke-width="0.384615"/>
<path d="M71.9307 47.1255C72.5737 47.4929 72.5777 48.4184 71.938 48.7908L51.0503 60.95C50.5089 61.2652 49.8392 61.2634 49.2991 60.9452L33.7194 51.7627C33.085 51.3886 33.0895 50.4699 33.7273 50.1022L54.4736 38.1394C55.007 37.8319 55.6641 37.831 56.1989 38.1366L71.9307 47.1255Z" fill="white" stroke="#1D2939" stroke-width="0.384615"/>
<path d="M71.7953 47.059C72.439 47.426 72.4439 48.3521 71.8039 48.7247L50.9331 60.8742C50.382 61.195 49.6985 61.1872 49.1547 60.8535L42.7037 56.8943L42.4278 56.7253L65.4575 43.446L65.5536 43.501L71.7953 47.059Z" fill="#FFDD33" stroke="#1D2939" stroke-width="0.384615"/>
<path d="M45.3312 49.4454C45.9742 49.8128 45.9782 50.7383 45.3385 51.1107L42.8436 52.5628C42.302 52.8781 41.6321 52.8755 41.0919 52.5572L39.6124 51.6856C38.9779 51.3116 38.9818 50.3934 39.6194 50.0255L42.1058 48.5918C42.6392 48.2843 43.2971 48.2829 43.832 48.5885L45.3312 49.4454Z" fill="#FFDD33" stroke="#1D2939" stroke-width="0.384615"/>
<path d="M29.3056 47.125C29.6738 47.7723 30.4972 47.9967 31.1433 47.6263L52.0538 35.6393C52.6949 35.2716 52.9201 34.4549 52.5585 33.8103L43.1526 17.052C42.7879 16.4025 41.9658 16.173 41.3177 16.54L20.2537 28.476C19.6059 28.8432 19.3786 29.6669 19.7465 30.3143L29.3056 47.125Z" fill="#FFDD33" stroke="#1D2939" stroke-width="0.384615"/>
<path d="M24.686 33.0254C25.0542 33.6726 25.8777 33.8971 26.5237 33.5268L28.4446 32.4262C29.0857 32.0585 29.311 31.2418 28.9493 30.5972L28.2747 29.3956C27.9101 28.7459 27.0872 28.5168 26.439 28.8841L24.5059 29.9793C23.8582 30.3465 23.6308 31.1702 23.9987 31.8176L24.686 33.0254Z" fill="#FFDD33" stroke="#1D2939" stroke-width="0.384615"/>
<path d="M34.3418 20.5591V45.7514" stroke="black" stroke-width="0.384615"/>
<path d="M38.3809 18.0601V43.4447" stroke="black" stroke-width="0.384615"/>
<path d="M42.2266 16.5217V41.1371" stroke="black" stroke-width="0.384615"/>
<path d="M46.0732 22.0974L46.0732 39.0205" stroke="black" stroke-width="0.384615"/>
<path d="M49.5352 28.4453L49.5352 37.2915" stroke="black" stroke-width="0.384615"/>
</g>
<defs>
<clipPath id="clip0_9057_25003">
<rect width="100" height="100" fill="white"/>
</clipPath>
</defs>
</svg>
