<svg width="48" height="48" viewBox="0 0 48 48" fill="none" xmlns="http://www.w3.org/2000/svg">
<g clip-path="url(#clip0_9914_133759)">
<g clip-path="url(#clip1_9914_133759)">
<path d="M21.9164 17.0374C23.4218 16.1693 25.276 16.166 26.7855 17.0287L45.1997 27.5531C46.2045 28.1274 46.2109 29.5728 45.2111 30.1548L26.796 40.8751C25.2722 41.7622 23.3877 41.7596 21.8653 40.8684L3.61442 30.1832C2.61926 29.6006 2.62343 28.1621 3.62195 27.5863L21.9164 17.0374Z" fill="#FFDD33"/>
<mask id="path-2-outside-1_9914_133759" maskUnits="userSpaceOnUse" x="1.44336" y="7.27686" width="46" height="32" fill="black">
<rect fill="white" x="1.44336" y="7.27686" width="46" height="32"/>
<path fill-rule="evenodd" clip-rule="evenodd" d="M24.6484 9.04595C25.0548 8.44614 25.7887 8.15841 26.494 8.32236L36.4624 10.6394C36.8288 10.7246 36.9965 11.1497 36.7872 11.4624L36.2684 12.2372L37.3431 12.557C37.7035 12.6642 37.8451 13.0988 37.6171 13.3982L37.1114 14.0623L38.1406 14.4351C38.4942 14.5633 38.6102 15.0053 38.3651 15.2909L36.9948 16.8877L45.6612 21.8427C46.1277 22.1094 46.379 22.5634 46.4145 23.0315H46.4186V23.1169C46.419 23.137 46.419 23.1571 46.4186 23.1772V25.2648C46.4287 25.778 46.1805 26.2956 45.6729 26.5907L26.8229 37.5505C25.298 38.4372 23.4117 38.4337 21.8881 37.5414L3.1874 26.5895C2.61342 26.2533 2.3718 25.633 2.46161 25.0578V23.3808C2.37133 22.8024 2.61603 22.1795 3.19476 21.8462L21.921 11.0619C22.4759 10.7423 23.0783 10.5401 23.6934 10.4554L24.6484 9.04595Z"/>
</mask>
<path fill-rule="evenodd" clip-rule="evenodd" d="M24.6484 9.04595C25.0548 8.44614 25.7887 8.15841 26.494 8.32236L36.4624 10.6394C36.8288 10.7246 36.9965 11.1497 36.7872 11.4624L36.2684 12.2372L37.3431 12.557C37.7035 12.6642 37.8451 13.0988 37.6171 13.3982L37.1114 14.0623L38.1406 14.4351C38.4942 14.5633 38.6102 15.0053 38.3651 15.2909L36.9948 16.8877L45.6612 21.8427C46.1277 22.1094 46.379 22.5634 46.4145 23.0315H46.4186V23.1169C46.419 23.137 46.419 23.1571 46.4186 23.1772V25.2648C46.4287 25.778 46.1805 26.2956 45.6729 26.5907L26.8229 37.5505C25.298 38.4372 23.4117 38.4337 21.8881 37.5414L3.1874 26.5895C2.61342 26.2533 2.3718 25.633 2.46161 25.0578V23.3808C2.37133 22.8024 2.61603 22.1795 3.19476 21.8462L21.921 11.0619C22.4759 10.7423 23.0783 10.5401 23.6934 10.4554L24.6484 9.04595Z" fill="white"/>
<path d="M26.494 8.32236L26.4089 8.6883V8.6883L26.494 8.32236ZM24.6484 9.04595L24.9594 9.25669V9.25669L24.6484 9.04595ZM36.4624 10.6394L36.3774 11.0054V11.0054L36.4624 10.6394ZM36.7872 11.4624L37.0994 11.6714L37.0994 11.6714L36.7872 11.4624ZM36.2684 12.2372L35.9563 12.0281C35.8898 12.1273 35.8745 12.2522 35.915 12.3645C35.9554 12.4768 36.0469 12.5632 36.1613 12.5973L36.2684 12.2372ZM37.3431 12.557L37.4502 12.1969V12.1969L37.3431 12.557ZM37.6171 13.3982L37.3182 13.1705V13.1705L37.6171 13.3982ZM37.1114 14.0623L36.8125 13.8346C36.7401 13.9297 36.7173 14.0536 36.751 14.1683C36.7848 14.283 36.8711 14.3748 36.9834 14.4155L37.1114 14.0623ZM38.1406 14.4351L38.2686 14.0819V14.0819L38.1406 14.4351ZM38.3651 15.2909L38.08 15.0462V15.0462L38.3651 15.2909ZM36.9948 16.8877L36.7097 16.6431C36.6367 16.7281 36.6055 16.8413 36.6246 16.9517C36.6436 17.0621 36.711 17.1583 36.8083 17.2139L36.9948 16.8877ZM45.6612 21.8427L45.8477 21.5165V21.5165L45.6612 21.8427ZM46.4145 23.0315L46.0399 23.0599C46.0547 23.2558 46.218 23.4072 46.4145 23.4072V23.0315ZM46.4186 23.0315H46.7943C46.7943 22.824 46.6261 22.6558 46.4186 22.6558V23.0315ZM46.4186 23.1169H46.0428L46.0429 23.1243L46.4186 23.1169ZM46.4186 23.1772L46.0429 23.1697V23.1772H46.4186ZM46.4186 25.2648H46.0428L46.0429 25.2722L46.4186 25.2648ZM45.6729 26.5907L45.484 26.2659V26.2659L45.6729 26.5907ZM26.8229 37.5505L27.0118 37.8753V37.8753L26.8229 37.5505ZM21.8881 37.5414L21.6983 37.8656V37.8656L21.8881 37.5414ZM3.1874 26.5895L2.99754 26.9137H2.99754L3.1874 26.5895ZM2.46161 25.0578L2.83281 25.1157C2.83581 25.0966 2.83731 25.0772 2.83731 25.0578H2.46161ZM2.46161 23.3808H2.83731C2.83731 23.3614 2.83581 23.342 2.83282 23.3228L2.46161 23.3808ZM3.19476 21.8462L3.38225 22.1718H3.38225L3.19476 21.8462ZM21.921 11.0619L22.1084 11.3875V11.3875L21.921 11.0619ZM23.6934 10.4554L23.7447 10.8276C23.8503 10.813 23.9447 10.7543 24.0045 10.6661L23.6934 10.4554ZM26.494 8.32236L26.5791 7.95641C25.7222 7.75724 24.8309 8.1068 24.3373 8.83522L24.6484 9.04595L24.9594 9.25669C25.2787 8.78549 25.8551 8.55958 26.4089 8.6883L26.494 8.32236ZM36.4624 10.6394L36.5475 10.2735L26.5791 7.95641L26.494 8.32236L26.4089 8.6883L36.3774 11.0054L36.4624 10.6394ZM36.7872 11.4624L37.0994 11.6714C37.4547 11.1407 37.1701 10.4182 36.5475 10.2735L36.4624 10.6394L36.3774 11.0054C36.4874 11.031 36.5383 11.1588 36.475 11.2534L36.7872 11.4624ZM36.2684 12.2372L36.5806 12.4462L37.0994 11.6714L36.7872 11.4624L36.475 11.2534L35.9563 12.0281L36.2684 12.2372ZM36.2684 12.2372L36.1613 12.5973L37.2359 12.9171L37.3431 12.557L37.4502 12.1969L36.3756 11.8771L36.2684 12.2372ZM37.3431 12.557L37.2359 12.9171C37.3442 12.9493 37.3872 13.0799 37.3182 13.1705L37.6171 13.3982L37.916 13.6258C38.303 13.1176 38.0629 12.3792 37.4502 12.1969L37.3431 12.557ZM37.6171 13.3982L37.3182 13.1705L36.8125 13.8346L37.1114 14.0623L37.4103 14.2899L37.916 13.6258L37.6171 13.3982ZM37.1114 14.0623L36.9834 14.4155L38.0126 14.7884L38.1406 14.4351L38.2686 14.0819L37.2394 13.709L37.1114 14.0623ZM38.1406 14.4351L38.0126 14.7884C38.1188 14.8269 38.1542 14.9598 38.08 15.0462L38.3651 15.2909L38.6502 15.5356C39.0662 15.0509 38.8695 14.2997 38.2686 14.0819L38.1406 14.4351ZM38.3651 15.2909L38.08 15.0462L36.7097 16.6431L36.9948 16.8877L37.2799 17.1324L38.6502 15.5356L38.3651 15.2909ZM36.9948 16.8877L36.8083 17.2139L45.4748 22.1688L45.6612 21.8427L45.8477 21.5165L37.1813 16.5616L36.9948 16.8877ZM45.6612 21.8427L45.4748 22.1688C45.8259 22.3696 46.0132 22.7077 46.0399 23.0599L46.4145 23.0315L46.7891 23.0032C46.7449 22.4191 46.4296 21.8492 45.8477 21.5165L45.6612 21.8427ZM46.4145 23.0315V23.4072H46.4186V23.0315V22.6558H46.4145V23.0315ZM46.4186 23.0315H46.0429V23.1169H46.4186H46.7943V23.0315H46.4186ZM46.4186 23.1169L46.0429 23.1243C46.0432 23.1395 46.0432 23.1546 46.0429 23.1697L46.4186 23.1772L46.7942 23.1846C46.7947 23.1596 46.7947 23.1345 46.7942 23.1095L46.4186 23.1169ZM46.4186 23.1772H46.0429V25.2648H46.4186H46.7943V23.1772H46.4186ZM46.4186 25.2648L46.0429 25.2722C46.0506 25.6594 45.8649 26.0445 45.484 26.2659L45.6729 26.5907L45.8617 26.9155C46.4961 26.5467 46.8068 25.8966 46.7942 25.2574L46.4186 25.2648ZM45.6729 26.5907L45.484 26.2659L26.6341 37.2257L26.8229 37.5505L27.0118 37.8753L45.8617 26.9155L45.6729 26.5907ZM26.8229 37.5505L26.6341 37.2257C25.2264 38.0442 23.4848 38.0411 22.078 37.2172L21.8881 37.5414L21.6983 37.8656C23.3386 38.8263 25.3696 38.8301 27.0118 37.8753L26.8229 37.5505ZM21.8881 37.5414L22.078 37.2172L3.37726 26.2653L3.1874 26.5895L2.99754 26.9137L21.6983 37.8656L21.8881 37.5414ZM3.1874 26.5895L3.37726 26.2653C2.94711 26.0134 2.76486 25.551 2.83281 25.1157L2.46161 25.0578L2.09041 24.9998C1.97873 25.7151 2.27972 26.4933 2.99754 26.9137L3.1874 26.5895ZM2.46161 25.0578H2.83731V23.3808H2.46161H2.08591V25.0578H2.46161ZM2.46161 23.3808L2.83282 23.3228C2.76449 22.8851 2.94916 22.4212 3.38225 22.1718L3.19476 21.8462L3.00727 21.5206C2.2829 21.9378 1.97817 22.7197 2.09041 23.4387L2.46161 23.3808ZM3.19476 21.8462L3.38225 22.1718L22.1084 11.3875L21.921 11.0619L21.7335 10.7363L3.00727 21.5206L3.19476 21.8462ZM21.921 11.0619L22.1084 11.3875C22.6208 11.0924 23.1769 10.9058 23.7447 10.8276L23.6934 10.4554L23.6422 10.0832C22.9798 10.1744 22.3311 10.3922 21.7335 10.7363L21.921 11.0619ZM24.6484 9.04595L24.3373 8.83522L23.3824 10.2446L23.6934 10.4554L24.0045 10.6661L24.9594 9.25669L24.6484 9.04595Z" fill="#202A39" mask="url(#path-2-outside-1_9914_133759)"/>
<mask id="mask0_9914_133759" style="mask-type:alpha" maskUnits="userSpaceOnUse" x="2" y="10" width="23" height="29">
<rect x="2.44336" y="10.3315" width="21.9785" height="27.9897" fill="#D0D8DC"/>
</mask>
<g mask="url(#mask0_9914_133759)">
<path d="M21.9025 13.2096C23.4091 12.342 25.265 12.3396 26.7756 13.2033L45.6428 23.9903C46.6478 24.5649 46.6542 26.0091 45.6544 26.5904L26.8045 37.5503C25.2796 38.4369 23.3932 38.4334 21.8697 37.5412L3.16896 26.5892C2.17365 26.0063 2.17773 24.569 3.17632 23.9939L21.9025 13.2096Z" fill="#CDD4DF"/>
<path d="M21.9025 11.0626C23.409 10.195 25.2649 10.1926 26.7756 11.0563L45.6428 21.8434C46.6478 22.418 46.6542 23.8622 45.6544 24.4435L26.8045 35.4033C25.2795 36.29 23.3932 36.2865 21.8696 35.3942L3.16892 24.4423C2.17362 23.8594 2.17769 22.422 3.17629 21.8469L21.9025 11.0626Z" fill="#CDD4DF"/>
<rect x="2.44336" y="23.0312" width="43.957" height="2.2542" fill="#CDD4DF"/>
</g>
<path d="M45.6881 21.729C46.7557 22.3392 46.7622 23.8746 45.7 24.493L26.8408 35.4724C25.2877 36.3765 23.3665 36.3738 21.8149 35.4654L3.1235 24.5217C2.06633 23.9026 2.07079 22.3748 3.13165 21.7631L21.8671 10.9598C23.4013 10.0752 25.291 10.0715 26.8294 10.9505L45.6881 21.729Z" fill="white" stroke="#202A39" stroke-width="0.18785"/>
<path d="M13.8196 30.767H24.2493L27.3781 28.1596L29.4641 25.5522L27.9899 19.536L24.6692 11.5457C24.3079 10.6762 23.2659 10.3206 22.4484 10.7878L14.8626 15.1225L9.76841 17.9392L3.13801 21.8187C2.15034 22.3966 2.14519 23.8224 3.12865 24.4074L13.8196 30.767Z" fill="#CDD4DF"/>
<mask id="path-10-inside-2_9914_133759" fill="white">
<path d="M40.3851 18.2833C41.9333 17.6966 43.4599 17.9306 43.8253 18.8019L43.8271 18.8013L44.2424 19.8971L44.2369 19.8992C44.4692 20.785 43.4912 21.9268 41.9825 22.4986C40.4738 23.0703 38.9847 22.8635 38.5715 22.0461L38.566 22.0482L38.1508 20.9524L38.1526 20.9517C37.8487 20.057 38.8369 18.87 40.3851 18.2833Z"/>
</mask>
<path d="M40.3851 18.2833C41.9333 17.6966 43.4599 17.9306 43.8253 18.8019L43.8271 18.8013L44.2424 19.8971L44.2369 19.8992C44.4692 20.785 43.4912 21.9268 41.9825 22.4986C40.4738 23.0703 38.9847 22.8635 38.5715 22.0461L38.566 22.0482L38.1508 20.9524L38.1526 20.9517C37.8487 20.057 38.8369 18.87 40.3851 18.2833Z" fill="#202A39"/>
<path d="M40.3851 18.2833L40.3185 18.1077L40.3185 18.1077L40.3851 18.2833ZM43.8253 18.8019L43.6521 18.8746L43.7222 19.0419L43.8919 18.9776L43.8253 18.8019ZM43.8271 18.8013L44.0028 18.7347L43.9362 18.559L43.7606 18.6256L43.8271 18.8013ZM44.2424 19.8971L44.309 20.0727L44.4846 20.0062L44.4181 19.8305L44.2424 19.8971ZM44.2369 19.8992L44.1704 19.7235L44.0124 19.7834L44.0552 19.9468L44.2369 19.8992ZM41.9825 22.4986L42.0491 22.6742L42.0491 22.6742L41.9825 22.4986ZM38.5715 22.0461L38.7392 21.9614L38.6629 21.8106L38.505 21.8705L38.5715 22.0461ZM38.566 22.0482L38.3904 22.1148L38.4569 22.2905L38.6326 22.2239L38.566 22.0482ZM38.1508 20.9524L38.0842 20.7767L37.9085 20.8433L37.9751 21.019L38.1508 20.9524ZM38.1526 20.9517L38.2192 21.1274L38.3888 21.0631L38.3305 20.8913L38.1526 20.9517ZM40.3851 18.2833L40.4516 18.459C41.201 18.175 41.9369 18.0931 42.5206 18.1816C43.1102 18.2709 43.5055 18.5251 43.6521 18.8746L43.8253 18.8019L43.9985 18.7293C43.7797 18.2074 43.2289 17.9089 42.5769 17.8101C41.9188 17.7104 41.1174 17.8049 40.3185 18.1077L40.3851 18.2833ZM43.8253 18.8019L43.8919 18.9776L43.8937 18.9769L43.8271 18.8013L43.7606 18.6256L43.7587 18.6263L43.8253 18.8019ZM43.8271 18.8013L43.6515 18.8678L44.0668 19.9636L44.2424 19.8971L44.4181 19.8305L44.0028 18.7347L43.8271 18.8013ZM44.2424 19.8971L44.1758 19.7214L44.1704 19.7235L44.2369 19.8992L44.3035 20.0748L44.309 20.0727L44.2424 19.8971ZM44.2369 19.8992L44.0552 19.9468C44.149 20.3045 44.0049 20.7489 43.6204 21.1939C43.24 21.6342 42.646 22.0463 41.9159 22.3229L41.9825 22.4986L42.0491 22.6742C42.8277 22.3792 43.4771 21.9344 43.9047 21.4395C44.3284 20.9491 44.5571 20.3796 44.4186 19.8515L44.2369 19.8992ZM41.9825 22.4986L41.9159 22.3229C41.1859 22.5996 40.468 22.6847 39.8912 22.6071C39.3085 22.5287 38.906 22.2915 38.7392 21.9614L38.5715 22.0461L38.4039 22.1309C38.6502 22.6182 39.1989 22.893 39.8411 22.9794C40.4894 23.0666 41.2705 22.9693 42.0491 22.6742L41.9825 22.4986ZM38.5715 22.0461L38.505 21.8705L38.4995 21.8726L38.566 22.0482L38.6326 22.2239L38.6381 22.2218L38.5715 22.0461ZM38.566 22.0482L38.7417 21.9817L38.3264 20.8858L38.1508 20.9524L37.9751 21.019L38.3904 22.1148L38.566 22.0482ZM38.1508 20.9524L38.2173 21.1281L38.2192 21.1274L38.1526 20.9517L38.086 20.776L38.0842 20.7767L38.1508 20.9524ZM38.1526 20.9517L38.3305 20.8913C38.2086 20.5325 38.3361 20.0802 38.7185 19.6225C39.097 19.1694 39.7023 18.7429 40.4516 18.459L40.3851 18.2833L40.3185 18.1077C39.5196 18.4104 38.8568 18.8708 38.4301 19.3816C38.0073 19.8877 37.7927 20.4762 37.9747 21.0121L38.1526 20.9517Z" fill="#202A39" mask="url(#path-10-inside-2_9914_133759)"/>
<path d="M39.2867 22.6487L38.9219 21.686L39.0924 21.7353L39.4635 22.7146L39.2867 22.6487Z" fill="#FFDD33"/>
<path d="M40.4183 18.3715C41.1895 18.0792 41.9515 17.9955 42.5578 18.0922C43.1669 18.1894 43.5987 18.4638 43.7519 18.8678C43.9051 19.272 43.7634 19.7636 43.3717 20.2401C42.9818 20.7142 42.3558 21.1566 41.5845 21.4489C40.8133 21.7412 40.0513 21.8248 39.445 21.7281C38.836 21.6309 38.404 21.3567 38.2509 20.9525C38.0978 20.5484 38.2394 20.0567 38.6311 19.5803C39.021 19.1061 39.647 18.6637 40.4183 18.3715Z" fill="#FFDD33" stroke="#202A39" stroke-width="0.18785"/>
<path d="M40.5692 18.7693C41.1478 18.5501 41.7186 18.4877 42.1713 18.5601C42.6269 18.6329 42.9428 18.8377 43.0543 19.1319C43.1658 19.4261 43.065 19.7888 42.772 20.1454C42.481 20.4996 42.0123 20.8311 41.4337 21.0504C40.8551 21.2697 40.2842 21.332 39.8316 21.2597C39.3759 21.1868 39.0592 20.9824 38.9477 20.6882C38.8362 20.394 38.9378 20.031 39.2308 19.6744C39.5219 19.3203 39.9907 18.9885 40.5692 18.7693Z" fill="#CDD4DF" stroke="#202A39" stroke-width="0.18785"/>
<path d="M40.5251 18.9009C41.0809 18.6903 41.629 18.6301 42.0632 18.6992C42.5003 18.7687 42.8017 18.9646 42.9081 19.2448C43.0143 19.5251 42.9187 19.8722 42.6374 20.2142C42.3579 20.5537 41.9077 20.8719 41.3519 21.0825C40.7962 21.2931 40.2481 21.3532 39.8138 21.2842C39.3765 21.2146 39.0739 21.0184 38.9677 20.7381C38.8617 20.4577 38.9584 20.111 39.2397 19.7692C39.5191 19.4297 39.9694 19.1115 40.5251 18.9009Z" fill="#FFDD33" stroke="#202A39" stroke-width="0.18785"/>
<mask id="path-16-inside-3_9914_133759" fill="white">
<path d="M11.9105 15.3152C13.4225 15.9898 14.3409 17.2315 13.9862 18.1073L13.988 18.1081L13.5106 19.1783L13.5052 19.1759C13.0462 19.9686 11.5472 20.0903 10.0735 19.4328C8.5998 18.7753 7.68904 17.5786 7.97227 16.7075L7.96692 16.7051L8.44438 15.6349L8.44616 15.6357C8.86095 14.7867 10.3985 14.6407 11.9105 15.3152Z"/>
</mask>
<path d="M11.9105 15.3152C13.4225 15.9898 14.3409 17.2315 13.9862 18.1073L13.988 18.1081L13.5106 19.1783L13.5052 19.1759C13.0462 19.9686 11.5472 20.0903 10.0735 19.4328C8.5998 18.7753 7.68904 17.5786 7.97227 16.7075L7.96692 16.7051L8.44438 15.6349L8.44616 15.6357C8.86095 14.7867 10.3985 14.6407 11.9105 15.3152Z" fill="#202A39"/>
<path d="M11.9105 15.3152L11.987 15.1437L11.987 15.1437L11.9105 15.3152ZM13.9862 18.1073L13.8121 18.0368L13.744 18.2049L13.9097 18.2788L13.9862 18.1073ZM13.988 18.1081L14.1596 18.1846L14.2361 18.0131L14.0646 17.9365L13.988 18.1081ZM13.5106 19.1783L13.434 19.3498L13.6056 19.4264L13.6821 19.2548L13.5106 19.1783ZM13.5052 19.1759L13.5817 19.0043L13.4274 18.9355L13.3427 19.0817L13.5052 19.1759ZM10.0735 19.4328L9.99696 19.6044L9.99696 19.6044L10.0735 19.4328ZM7.97227 16.7075L8.15092 16.7655L8.20319 16.6048L8.04881 16.5359L7.97227 16.7075ZM7.96692 16.7051L7.79537 16.6285L7.71884 16.8001L7.89039 16.8766L7.96692 16.7051ZM8.44438 15.6349L8.52091 15.4633L8.34936 15.3868L8.27282 15.5583L8.44438 15.6349ZM8.44616 15.6357L8.36962 15.8072L8.5353 15.8811L8.61494 15.7181L8.44616 15.6357ZM11.9105 15.3152L11.834 15.4868C12.5658 15.8133 13.1457 16.2737 13.4975 16.7477C13.853 17.2266 13.9544 17.6855 13.8121 18.0368L13.9862 18.1073L14.1603 18.1778C14.3728 17.6532 14.1923 17.0534 13.7992 16.5238C13.4025 15.9894 12.7672 15.4917 11.987 15.1437L11.9105 15.3152ZM13.9862 18.1073L13.9097 18.2788L13.9115 18.2796L13.988 18.1081L14.0646 17.9365L14.0628 17.9357L13.9862 18.1073ZM13.988 18.1081L13.8165 18.0315L13.339 19.1017L13.5106 19.1783L13.6821 19.2548L14.1596 18.1846L13.988 18.1081ZM13.5106 19.1783L13.5871 19.0067L13.5817 19.0043L13.5052 19.1759L13.4287 19.3474L13.434 19.3498L13.5106 19.1783ZM13.5052 19.1759L13.3427 19.0817C13.1573 19.4019 12.7418 19.6158 12.1555 19.6609C11.5751 19.7054 10.8632 19.5794 10.15 19.2613L10.0735 19.4328L9.99696 19.6044C10.7575 19.9437 11.5319 20.0856 12.1842 20.0355C12.8305 19.9858 13.3941 19.7426 13.6678 19.27L13.5052 19.1759ZM10.0735 19.4328L10.15 19.2613C9.43691 18.9431 8.86753 18.4975 8.51302 18.0358C8.15483 17.5694 8.03654 17.1173 8.15092 16.7655L7.97227 16.7075L7.79363 16.6494C7.62478 17.1687 7.82025 17.7506 8.21505 18.2647C8.61353 18.7836 9.23638 19.265 9.99696 19.6044L10.0735 19.4328ZM7.97227 16.7075L8.04881 16.5359L8.04346 16.5335L7.96692 16.7051L7.89039 16.8766L7.89574 16.879L7.97227 16.7075ZM7.96692 16.7051L8.13847 16.7816L8.61593 15.7114L8.44438 15.6349L8.27282 15.5583L7.79537 16.6285L7.96692 16.7051ZM8.44438 15.6349L8.36784 15.8064L8.36962 15.8072L8.44616 15.6357L8.52269 15.4641L8.52091 15.4633L8.44438 15.6349ZM8.44616 15.6357L8.61494 15.7181C8.78129 15.3776 9.19051 15.1465 9.78432 15.0912C10.3721 15.0363 11.1022 15.1603 11.834 15.4868L11.9105 15.3152L11.987 15.1437C11.2068 14.7956 10.4121 14.6553 9.74944 14.7171C9.09277 14.7783 8.52582 15.0447 8.27738 15.5532L8.44616 15.6357Z" fill="#202A39" mask="url(#path-16-inside-3_9914_133759)"/>
<path d="M8.05517 17.6384L8.47461 16.6982L8.5609 16.8534L8.13423 17.8097L8.05517 17.6384Z" fill="#FFDD33"/>
<path d="M11.8723 15.4013C12.6255 15.7374 13.2252 16.2149 13.5872 16.7107C13.951 17.2088 14.0641 17.7078 13.8881 18.1025C13.712 18.4972 13.2651 18.7462 12.6514 18.8083C12.0406 18.8701 11.2847 18.7428 10.5314 18.4068C9.77824 18.0708 9.17857 17.5932 8.81653 17.0974C8.45282 16.5993 8.33959 16.1003 8.51567 15.7057C8.69182 15.311 9.13868 15.0619 9.75233 14.9998C10.3631 14.9381 11.1191 15.0653 11.8723 15.4013Z" fill="#FFDD33" stroke="#202A39" stroke-width="0.18785"/>
<path d="M11.6996 15.7896C12.2647 16.0418 12.7137 16.3997 12.9839 16.77C13.2559 17.1428 13.3357 17.5106 13.2075 17.798C13.0793 18.0853 12.7523 18.2716 12.2932 18.3182C11.8371 18.3645 11.2708 18.2695 10.7057 18.0174C10.1407 17.7654 9.69177 17.4073 9.42148 17.0371C9.14946 16.6643 9.06877 16.296 9.19696 16.0087C9.32515 15.7214 9.65306 15.5355 10.1122 15.4888C10.5683 15.4427 11.1346 15.5376 11.6996 15.7896Z" fill="#CDD4DF" stroke="#202A39" stroke-width="0.18785"/>
<path d="M11.5736 15.8506C12.1163 16.0928 12.5476 16.4362 12.8071 16.7912C13.0682 17.1485 13.1441 17.4999 13.0222 17.7737C12.9 18.0475 12.5876 18.2264 12.147 18.2708C11.7095 18.3149 11.1658 18.2233 10.623 17.9812C10.0803 17.7391 9.64902 17.3955 9.38948 17.0405C9.12818 16.683 9.05175 16.3307 9.17392 16.0568C9.29621 15.7832 9.60918 15.6054 10.0496 15.561C10.4871 15.517 11.0308 15.6085 11.5736 15.8506Z" fill="#FFDD33" stroke="#202A39" stroke-width="0.18785"/>
<path d="M13.7715 26.0871C13.4807 26.4222 13.6162 26.9451 14.0333 27.0958L23.7703 30.614C24.4909 30.8744 25.2984 30.6615 25.7977 30.0798L38.4356 15.353C38.7234 15.0177 38.587 14.4985 38.1719 14.3479L28.5497 10.8613C27.8324 10.6014 27.0281 10.8102 26.5277 11.3868L13.7715 26.0871Z" fill="#FFDD33" stroke="#202A39" stroke-width="0.18785"/>
<path d="M14.0655 25.8745C13.785 26.213 13.9264 26.7269 14.3406 26.8733L23.7423 30.191C24.4082 30.4258 25.1502 30.2122 25.5899 29.6591L27.8082 26.8681L27.8109 26.8647L35.4894 16.0996C36.227 15.0655 35.7224 13.6134 34.5027 13.2607L27.612 11.2686C26.9071 11.0649 26.1476 11.2992 25.6791 11.8644L14.0655 25.8745Z" fill="#202A39" stroke="#202A39" stroke-width="0.18785"/>
<path d="M13.6944 25.6109C13.4236 25.9625 13.5895 26.4765 14.0147 26.6026L23.9403 29.5468C24.6749 29.7647 25.4687 29.505 25.9331 28.8952L37.6903 13.4561C37.958 13.1046 37.7916 12.5942 37.3683 12.4681L27.5591 9.54887C26.8278 9.33124 26.0371 9.58668 25.5712 10.1915L13.6944 25.6109Z" fill="#FFDD33" stroke="#202A39" stroke-width="0.18785"/>
<path d="M13.8651 25.288C13.5927 25.6384 13.7564 26.1521 14.1813 26.2799L23.8755 29.1964C24.5731 29.406 25.3267 29.135 25.731 28.5287L27.5303 25.8284L27.5316 25.8266L35.0271 14.1059C35.7126 13.0336 35.1309 11.6072 33.8914 11.3203L27.2719 9.78865C26.572 9.62675 25.8413 9.88585 25.4 10.4531L13.8651 25.288Z" fill="#202A39" stroke="#202A39" stroke-width="0.18785"/>
<path d="M13.6526 25.1073C13.4037 25.4747 13.6005 25.9777 14.0325 26.0777L24.1189 28.4128C24.8653 28.5855 25.6418 28.2781 26.0683 27.6411L36.8648 11.5157C37.1107 11.1484 36.9135 10.6491 36.4833 10.549L26.5148 8.23175C25.7716 8.059 24.9978 8.36206 24.5696 8.99409L13.6526 25.1073Z" fill="#FFDD33" stroke="#202A39" stroke-width="0.18785"/>
<path d="M26.1827 9.97597C25.537 10.2719 24.9944 10.0993 24.8038 9.97597L15.3535 23.8656C15.4768 23.8656 15.9925 24.0673 16.2279 24.5382C16.5007 25.0838 16.3961 25.5807 16.2279 25.8162L23.5595 27.4304C23.5931 27.195 23.9765 26.5829 24.4339 26.287C24.8913 25.991 25.7119 26.0292 26.0818 26.1525L34.725 13.1036C34.5792 13.0588 34.0935 12.7649 33.9851 12.1956C33.8506 11.4894 34.2205 11.1867 34.355 10.8504L27.0907 9.10156C27.0571 9.26972 26.8284 9.68002 26.1827 9.97597Z" fill="#FFDD33" stroke="#202A39" stroke-width="0.18785"/>
<path d="M25.5947 15.8258C26.7159 16.0282 27.6832 16.4534 28.3401 16.9715C29.0005 17.4923 29.328 18.0899 29.2283 18.6422C29.1286 19.1944 28.6128 19.6398 27.812 19.8968C27.0153 20.1524 25.9605 20.2125 24.8393 20.0101C23.7182 19.8077 22.7518 19.3827 22.0948 18.8646C21.4343 18.3437 21.106 17.746 21.2057 17.1937C21.3054 16.6414 21.822 16.1963 22.623 15.9393C23.4196 15.6837 24.4737 15.6234 25.5947 15.8258Z" fill="#FFDD33" stroke="#202A39" stroke-width="0.18785"/>
<path d="M28.9355 12.5733C29.3674 12.6484 29.7381 12.8087 29.9878 13.0029C30.2411 13.2 30.3504 13.4151 30.3181 13.6005C30.2857 13.7858 30.1105 13.9507 29.8058 14.0507C29.5052 14.1494 29.1021 14.1753 28.6702 14.1003C28.2386 14.0252 27.8685 13.8649 27.6188 13.6708C27.3657 13.4739 27.2554 13.2593 27.2874 13.074C27.3196 12.8886 27.4959 12.7231 27.8008 12.623C28.1013 12.5245 28.5038 12.4984 28.9355 12.5733Z" stroke="#202A39" stroke-width="0.18785"/>
<path d="M21.7322 22.1818C22.1696 22.2698 22.5421 22.4433 22.791 22.6477C23.0434 22.855 23.15 23.0766 23.1121 23.2651C23.0741 23.4536 22.8902 23.6168 22.5773 23.7104C22.2687 23.8028 21.8583 23.8179 21.4209 23.73C20.9835 23.642 20.6108 23.4694 20.3619 23.265C20.1095 23.0577 20.0029 22.8361 20.0408 22.6476C20.0787 22.4591 20.2626 22.296 20.5755 22.2023C20.8841 22.11 21.2947 22.0939 21.7322 22.1818Z" stroke="#202A39" stroke-width="0.18785"/>
</g>
</g>
<defs>
<clipPath id="clip0_9914_133759">
<rect width="48" height="48" fill="white"/>
</clipPath>
<clipPath id="clip1_9914_133759">
<rect width="48.8411" height="48.8411" fill="white"/>
</clipPath>
</defs>
</svg>
