<svg width="48" height="48" viewBox="0 0 48 48" fill="none" xmlns="http://www.w3.org/2000/svg">
<g clip-path="url(#clip0_9914_133985)">
<path d="M22.0102 17.0378C23.5156 16.1698 25.3698 16.1665 26.8792 17.0292L45.2934 27.5536C46.2983 28.1279 46.3046 29.5733 45.3049 30.1553L26.8898 40.8756C25.366 41.7627 23.4814 41.7601 21.9591 40.8688L3.70817 30.1837C2.71301 29.6011 2.71718 28.1625 3.7157 27.5868L22.0102 17.0378Z" fill="#FFDD33"/>
<mask id="path-2-outside-1_9914_133985" maskUnits="userSpaceOnUse" x="1.53711" y="9.41064" width="46" height="30" fill="black">
<rect fill="white" x="1.53711" y="9.41064" width="46" height="30"/>
<path d="M22.0136 11.0628C23.5201 10.1953 25.376 10.1932 26.8866 11.0569L45.7538 21.844C46.2197 22.1105 46.4681 22.5639 46.5038 23.0315H46.5107V23.1262C46.5108 23.1363 46.5107 23.1464 46.5107 23.1565V25.2737C46.5177 25.7838 46.2699 26.2967 45.7655 26.5901L26.915 37.5501C25.3901 38.4366 23.5039 38.4335 21.9804 37.5413L3.28019 26.5891C2.7101 26.2553 2.46889 25.6415 2.55363 25.0696V23.3674C2.46941 22.7931 2.71295 22.1775 3.28702 21.8469L22.0136 11.0628Z"/>
</mask>
<path d="M22.0136 11.0628C23.5201 10.1953 25.376 10.1932 26.8866 11.0569L45.7538 21.844C46.2197 22.1105 46.4681 22.5639 46.5038 23.0315H46.5107V23.1262C46.5108 23.1363 46.5107 23.1464 46.5107 23.1565V25.2737C46.5177 25.7838 46.2699 26.2967 45.7655 26.5901L26.915 37.5501C25.3901 38.4366 23.5039 38.4335 21.9804 37.5413L3.28019 26.5891C2.7101 26.2553 2.46889 25.6415 2.55363 25.0696V23.3674C2.46941 22.7931 2.71295 22.1775 3.28702 21.8469L22.0136 11.0628Z" fill="white"/>
<path d="M22.0136 11.0628L21.8261 10.7372L21.8261 10.7372L22.0136 11.0628ZM26.8866 11.0569L27.0731 10.7307L27.0731 10.7307L26.8866 11.0569ZM45.7538 21.844L45.9404 21.5179L45.9403 21.5179L45.7538 21.844ZM46.5038 23.0315L46.1292 23.0602C46.1442 23.256 46.3074 23.4072 46.5038 23.4072V23.0315ZM46.5107 23.0315H46.8864C46.8864 22.824 46.7182 22.6558 46.5107 22.6558V23.0315ZM46.5107 23.1262H46.1349L46.135 23.1316L46.5107 23.1262ZM46.5107 23.1565L46.135 23.1544V23.1565H46.5107ZM46.5107 25.2737H46.1349L46.135 25.2789L46.5107 25.2737ZM45.7655 26.5901L45.9544 26.9149L45.9545 26.9148L45.7655 26.5901ZM26.915 37.5501L27.1038 37.8749L27.1038 37.8749L26.915 37.5501ZM21.9804 37.5413L21.7905 37.8655L21.7905 37.8655L21.9804 37.5413ZM3.28019 26.5891L3.47006 26.2649L3.47005 26.2649L3.28019 26.5891ZM2.55363 25.0696L2.92527 25.1247C2.92797 25.1064 2.92933 25.088 2.92933 25.0696H2.55363ZM2.55363 23.3674H2.92933C2.92933 23.3492 2.928 23.331 2.92535 23.3129L2.55363 23.3674ZM3.28702 21.8469L3.09953 21.5214L3.09953 21.5214L3.28702 21.8469ZM22.0136 11.0628L22.2011 11.3883C23.5917 10.5876 25.3053 10.5855 26.7002 11.3831L26.8866 11.0569L27.0731 10.7307C25.4468 9.80091 23.4485 9.80297 21.8261 10.7372L22.0136 11.0628ZM26.8866 11.0569L26.7002 11.3831L45.5673 22.1702L45.7538 21.844L45.9403 21.5179L27.0731 10.7307L26.8866 11.0569ZM45.7538 21.844L45.5673 22.1701C45.9167 22.37 46.1022 22.7069 46.1292 23.0602L46.5038 23.0315L46.8784 23.0029C46.8339 22.4209 46.5226 21.851 45.9404 21.5179L45.7538 21.844ZM46.5038 23.0315V23.4072H46.5107V23.0315V22.6558H46.5038V23.0315ZM46.5107 23.0315H46.135V23.1262H46.5107H46.8864V23.0315H46.5107ZM46.5107 23.1262L46.135 23.1316C46.1351 23.137 46.135 23.1425 46.135 23.1544L46.5107 23.1565L46.8864 23.1586C46.8864 23.1503 46.8865 23.1357 46.8863 23.1209L46.5107 23.1262ZM46.5107 23.1565H46.135V25.2737H46.5107H46.8864V23.1565H46.5107ZM46.5107 25.2737L46.135 25.2789C46.1403 25.6638 45.955 26.0452 45.5766 26.2654L45.7655 26.5901L45.9545 26.9148C46.5848 26.5481 46.8951 25.9038 46.8863 25.2685L46.5107 25.2737ZM45.7655 26.5901L45.5767 26.2653L26.7261 37.2253L26.915 37.5501L27.1038 37.8749L45.9544 26.9149L45.7655 26.5901ZM26.915 37.5501L26.7261 37.2253C25.3184 38.0437 23.577 38.0409 22.1702 37.2171L21.9804 37.5413L21.7905 37.8655C23.4309 38.8261 25.4617 38.8296 27.1038 37.8749L26.915 37.5501ZM21.9804 37.5413L22.1703 37.2171L3.47006 26.2649L3.28019 26.5891L3.09032 26.9133L21.7905 37.8655L21.9804 37.5413ZM3.28019 26.5891L3.47005 26.2649C3.04308 26.0149 2.86111 25.5577 2.92527 25.1247L2.55363 25.0696L2.18198 25.0145C2.07666 25.7253 2.37712 26.4956 3.09033 26.9133L3.28019 26.5891ZM2.55363 25.0696H2.92933V23.3674H2.55363H2.17793V25.0696H2.55363ZM2.55363 23.3674L2.92535 23.3129C2.8615 22.8774 3.04555 22.4195 3.47452 22.1725L3.28702 21.8469L3.09953 21.5214C2.38034 21.9355 2.07733 22.7087 2.1819 23.4219L2.55363 23.3674ZM3.28702 21.8469L3.47451 22.1725L22.2011 11.3883L22.0136 11.0628L21.8261 10.7372L3.09953 21.5214L3.28702 21.8469Z" fill="#202A39" mask="url(#path-2-outside-1_9914_133985)"/>
<mask id="mask0_9914_133985" style="mask-type:alpha" maskUnits="userSpaceOnUse" x="2" y="10" width="23" height="29">
<rect x="2.53516" y="10.3325" width="21.9785" height="27.9897" fill="#D0D8DC"/>
</mask>
<g mask="url(#mask0_9914_133985)">
<path d="M21.9943 13.2105C23.5009 12.3429 25.3568 12.3405 26.8674 13.2043L45.7346 23.9913C46.7396 24.5659 46.746 26.0101 45.7462 26.5914L26.8963 37.5513C25.3714 38.4379 23.485 38.4344 21.9615 37.5421L3.26076 26.5902C2.26545 26.0073 2.26953 24.5699 3.26812 23.9949L21.9943 13.2105Z" fill="#CDD4DF"/>
<path d="M21.9943 11.0636C23.5008 10.196 25.3567 10.1936 26.8674 11.0573L45.7346 21.8444C46.7395 22.4189 46.746 23.8631 45.7462 24.4445L26.8962 35.4043C25.3713 36.2909 23.485 36.2874 21.9614 35.3952L3.26072 24.4433C2.26541 23.8604 2.26949 22.423 3.26808 21.8479L21.9943 11.0636Z" fill="#CDD4DF"/>
<rect x="2.53516" y="23.0322" width="43.957" height="2.2542" fill="#CDD4DF"/>
</g>
<path d="M45.7818 21.73C46.8495 22.3402 46.856 23.8756 45.7937 24.494L26.9345 35.4734C25.3814 36.3775 23.4603 36.3748 21.9087 35.4664L3.21725 24.5227C2.16008 23.9036 2.16454 22.3757 3.2254 21.764L21.9608 10.9608C23.495 10.0762 25.3847 10.0725 26.9231 10.9515L45.7818 21.73Z" fill="white" stroke="#202A39" stroke-width="0.18785"/>
<path d="M13.2976 30.2455H24.7702L22.3779 27.8954L24.7702 23.1052L18.2517 13.0366L10.0502 17.9393L3.22338 21.8102C2.21269 22.3833 2.2068 23.8375 3.2128 24.4187L13.2976 30.2455Z" fill="#CDD4DF"/>
<path d="M21.5905 2.97733L31.7469 8.6371L24.7349 12.7191L14.629 6.99144L21.5905 2.97733Z" fill="white" stroke="#202A39" stroke-width="0.18785" stroke-linejoin="round"/>
<path d="M21.5759 4.4976L30.2798 9.2849L31.5854 8.55955L21.5758 3.19197L21.5759 4.4976Z" fill="#CDD4DF"/>
<path d="M21.5322 4.57466L30.369 9.48404L24.5547 12.7026L15.9215 7.80082L21.5322 4.57466Z" fill="#FFDD33" stroke="#202A39" stroke-width="0.18785" stroke-linejoin="round"/>
<path d="M14.3378 24.6033L24.7344 30.3281L24.7344 12.7277L14.6285 7.00002L14.3378 24.6033Z" fill="#CDD4DF" stroke="#202A39" stroke-width="0.18785" stroke-linejoin="round"/>
<path d="M31.6955 26.3831L31.7461 8.63672L24.7341 12.7188L24.7341 30.3192L31.6955 26.3831Z" fill="white" stroke="#202A39" stroke-width="0.18785" stroke-linejoin="round"/>
<path d="M27.1715 15.668L27.1797 12.7666L26.0417 13.4291L26.0417 16.2483L27.1715 15.668Z" fill="white" stroke="#202A39" stroke-width="0.18785" stroke-linejoin="round"/>
<path d="M28.3313 15.0875L28.3398 12.041L27.2014 12.7664L27.2015 15.6677L28.3313 15.0875Z" fill="white" stroke="#202A39" stroke-width="0.18785" stroke-linejoin="round"/>
<path d="M30.3762 13.7823L30.3848 10.7358L29.2463 11.4612L29.2464 14.3626L30.3762 13.7823Z" fill="#FFDD33" stroke="#202A39" stroke-width="0.18785" stroke-linejoin="round"/>
<path d="M30.3762 23.066L30.3848 20.0195L29.2463 20.7449L29.2464 23.6463L30.3762 23.066Z" fill="white" stroke="#202A39" stroke-width="0.18785" stroke-linejoin="round"/>
<path d="M27.1715 18.5473L27.1792 15.6675L26.0419 16.2478L26.0418 19.186L27.1715 18.5473Z" fill="white" stroke="#202A39" stroke-width="0.18785" stroke-linejoin="round"/>
<path d="M28.3317 17.8432L28.3394 15.0869L27.202 15.6672L27.202 18.527L28.3317 17.8432Z" fill="white" stroke="#202A39" stroke-width="0.18785" stroke-linejoin="round"/>
<path d="M28.0364 28.4393L28.0467 24.8423C28.0485 24.2014 27.3527 23.8004 26.7985 24.123C26.3395 24.3903 26.0573 24.881 26.0573 25.4119L26.0573 29.5584L28.0364 28.4393Z" fill="#CDD4DF" stroke="#202A39" stroke-width="0.18785" stroke-linejoin="round"/>
<path d="M27.2338 28.8698L27.2438 24.9727C27.2448 24.5841 26.8184 24.3451 26.4871 24.5485C26.2227 24.7108 26.0616 24.9987 26.0616 25.3088L26.0616 29.5614L27.2338 28.8698Z" fill="#202A39" stroke="#202A39" stroke-width="0.18785" stroke-linejoin="round"/>
<path d="M14.6133 15.958L24.7682 21.6157L31.7315 17.6988" stroke="#202A39" stroke-width="0.18785" stroke-linecap="round"/>
</g>
<defs>
<clipPath id="clip0_9914_133985">
<rect width="48" height="48" fill="white"/>
</clipPath>
</defs>
</svg>
