<svg width="157" height="156" viewBox="0 0 157 156" fill="none" xmlns="http://www.w3.org/2000/svg">
<path d="M72.9479 81.3833C77.4866 78.7662 83.0768 78.7562 87.6277 81.3573L143.145 113.088C146.175 114.819 146.194 119.177 143.18 120.931L87.6595 153.253C83.0653 155.927 77.3835 155.919 72.7938 153.232L17.7686 121.017C14.7683 119.261 14.7809 114.924 17.7913 113.188L72.9479 81.3833Z" fill="#FFDD33"/>
<mask id="path-2-outside-1_9057_24950" maskUnits="userSpaceOnUse" x="12.2393" y="59.4019" width="136" height="87" fill="black">
<rect fill="white" x="12.2393" y="59.4019" width="136" height="87"/>
<path d="M72.9607 63.3685C77.5028 60.7528 83.0986 60.746 87.6531 63.35L144.536 95.8715C145.942 96.6752 146.699 98.0437 146.806 99.4545H146.819V99.7543C146.819 99.7758 146.819 99.7973 146.819 99.8187V106.229C146.836 107.763 146.088 109.303 144.571 110.185L87.74 143.228C83.1426 145.901 77.4555 145.891 72.8621 143.201L16.4803 110.181C14.7535 109.17 14.0267 107.306 14.2928 105.575V100.498C14.0251 98.7577 14.7614 96.8851 16.5027 95.8822L72.9607 63.3685Z"/>
</mask>
<path d="M72.9607 63.3685C77.5028 60.7528 83.0986 60.746 87.6531 63.35L144.536 95.8715C145.942 96.6752 146.699 98.0437 146.806 99.4545H146.819V99.7543C146.819 99.7758 146.819 99.7973 146.819 99.8187V106.229C146.836 107.763 146.088 109.303 144.571 110.185L87.74 143.228C83.1426 145.901 77.4555 145.891 72.8621 143.201L16.4803 110.181C14.7535 109.17 14.0267 107.306 14.2928 105.575V100.498C14.0251 98.7577 14.7614 96.8851 16.5027 95.8822L72.9607 63.3685Z" fill="white"/>
<path d="M72.9608 63.3685L72.3955 62.387L72.3955 62.387L72.9608 63.3685ZM87.6531 63.35L87.0909 64.3333L87.0909 64.3333L87.6531 63.35ZM144.536 95.8715L145.098 94.8881L145.098 94.8881L144.536 95.8715ZM146.806 99.4545L145.677 99.5405L145.757 100.587H146.806V99.4545ZM146.819 99.4545H147.952V98.3218H146.819V99.4545ZM146.819 99.7543H145.686L145.687 99.7666L146.819 99.7543ZM146.819 99.8187L145.686 99.8152V99.8187H146.819ZM146.819 106.229H145.686L145.687 106.241L146.819 106.229ZM144.571 110.185L145.14 111.164L145.14 111.164L144.571 110.185ZM87.74 143.228L87.1707 142.249V142.249L87.74 143.228ZM72.8621 143.201L72.2897 144.178L72.2897 144.178L72.8621 143.201ZM16.4803 110.181L15.9078 111.158L15.9079 111.158L16.4803 110.181ZM14.2928 105.575L15.4123 105.747L15.4255 105.661V105.575H14.2928ZM14.2928 100.498H15.4255V100.412L15.4123 100.326L14.2928 100.498ZM16.5027 95.8822L15.9375 94.9006H15.9375L16.5027 95.8822ZM72.9608 63.3685L73.526 64.3501C77.7188 61.9355 82.8853 61.9288 87.0909 64.3333L87.6531 63.35L88.2153 62.3667C83.3118 59.5631 77.2868 59.5701 72.3955 62.387L72.9608 63.3685ZM87.6531 63.35L87.0909 64.3333L143.974 96.8548L144.536 95.8715L145.098 94.8881L88.2153 62.3666L87.6531 63.35ZM144.536 95.8715L143.974 96.8548C145.032 97.4596 145.596 98.4787 145.677 99.5405L146.806 99.4545L147.936 99.3685C147.802 97.6087 146.852 95.8908 145.098 94.8881L144.536 95.8715ZM146.806 99.4545V100.587H146.819V99.4545V98.3218H146.806V99.4545ZM146.819 99.4545H145.686V99.7543H146.819H147.952V99.4545H146.819ZM146.819 99.7543L145.687 99.7666C145.687 99.7777 145.687 99.7866 145.686 99.8152L146.819 99.8187L147.952 99.8223C147.952 99.8079 147.952 99.7739 147.952 99.742L146.819 99.7543ZM146.819 99.8187H145.686V106.229H146.819H147.952V99.8187H146.819ZM146.819 106.229L145.687 106.241C145.699 107.398 145.14 108.544 144.002 109.206L144.571 110.185L145.14 111.164C147.036 110.062 147.972 108.127 147.952 106.217L146.819 106.229ZM144.571 110.185L144.002 109.206L87.1707 142.249L87.74 143.228L88.3094 144.207L145.14 111.164L144.571 110.185ZM87.74 143.228L87.1707 142.249C82.9268 144.716 77.6759 144.707 73.4345 142.223L72.8621 143.201L72.2897 144.178C77.2351 147.074 83.3585 147.086 88.3094 144.207L87.74 143.228ZM72.8621 143.201L73.4345 142.223L17.0527 109.204L16.4803 110.181L15.9079 111.158L72.2897 144.178L72.8621 143.201ZM16.4803 110.181L17.0528 109.204C15.7594 108.446 15.2109 107.057 15.4123 105.747L14.2928 105.575L13.1732 105.403C12.8425 107.554 13.7476 109.893 15.9078 111.158L16.4803 110.181ZM14.2928 105.575H15.4255V100.498H14.2928H13.1601V105.575H14.2928ZM14.2928 100.498L15.4123 100.326C15.2096 99.0078 15.7656 97.6139 17.068 96.8638L16.5027 95.8822L15.9375 94.9006C13.7571 96.1563 12.8406 98.5075 13.1732 100.671L14.2928 100.498ZM16.5027 95.8822L17.068 96.8638L73.526 64.3501L72.9608 63.3685L72.3955 62.387L15.9375 94.9006L16.5027 95.8822Z" fill="#1D2939" mask="url(#path-2-outside-1_9057_24950)"/>
<mask id="mask0_9057_24950" style="mask-type:alpha" maskUnits="userSpaceOnUse" x="14" y="61" width="67" height="85">
<rect x="14.2373" y="61.1665" width="66.2636" height="84.3869" fill="#D0D8DC"/>
</mask>
<g mask="url(#mask0_9057_24950)">
<path d="M72.9068 69.8429C77.4489 67.2271 83.0443 67.2199 87.5989 69.8239L144.482 102.346C147.512 104.078 147.531 108.433 144.517 110.185L87.6859 143.228C83.0883 145.902 77.4012 145.891 72.8078 143.201L16.4264 110.182C13.4256 108.424 13.4379 104.091 16.4486 102.357L72.9068 69.8429Z" fill="#D0D5DD"/>
<path d="M72.9067 63.3688C77.4488 60.753 83.0442 60.7458 87.5988 63.3498L144.482 95.8721C147.512 97.6044 147.531 101.959 144.517 103.711L87.6858 136.754C83.0882 139.427 77.4011 139.417 72.8077 136.727L16.4263 103.708C13.4255 101.95 13.4378 97.6166 16.4485 95.8827L72.9067 63.3688Z" fill="#D0D5DD"/>
<rect x="14.2383" y="99.4541" width="132.527" height="6.79626" fill="#D0D5DD"/>
</g>
<path d="M144.621 95.5296C147.84 97.3693 147.861 101.999 144.658 103.864L87.7983 136.965C83.1158 139.691 77.3243 139.683 72.6463 136.944L16.2921 103.95C13.1045 102.084 13.1176 97.4767 16.3158 95.6322L72.8029 63.0606C77.429 60.3932 83.1268 60.3832 87.7652 63.0342L144.621 95.5296Z" fill="white" stroke="#1D2939" stroke-width="0.566355"/>
<path d="M74.8425 127.177L94.0042 120.789C97.2437 119.71 99.4288 116.678 99.4288 113.263C99.4288 110.605 98.0979 108.124 95.8836 106.654L56.4036 80.4417C52.9271 78.1336 48.4632 77.9238 44.7856 79.8958L25.8472 90.0507L16.1687 95.9937C13.2475 97.7874 13.2992 102.05 16.2631 103.772L54.901 126.224C56.6295 127.229 58.593 127.758 60.5921 127.758H71.2606C72.478 127.758 73.6875 127.562 74.8425 127.177Z" fill="#D0D5DD"/>
<path d="M97.8653 1.90008C93.7785 2.85935 91.5139 4.26327 90.8924 4.84533C88.7644 6.29183 87.9586 8.27572 88.0829 9.86664C88.2692 12.253 89.7929 17.4161 91.463 22.4078C93.1332 27.3994 96.7323 28.3989 98.3232 28.2747C101.505 28.0264 110.352 26.5354 114.046 24.6464C117.741 22.7575 117.21 17.3301 116.514 15.2502C115.756 12.3749 113.866 5.9331 112.37 3.16878C110.874 0.404456 107.943 0.312967 105.758 0.483675C104.83 0.556118 101.952 0.940821 97.8653 1.90008Z" fill="black" stroke="black" stroke-width="0.797884"/>
<path d="M97.8647 1.90022C93.7779 2.85949 91.5133 4.26341 90.8918 4.84547C88.7638 6.29196 88.6626 8.75431 88.878 9.80467C89.288 11.6401 90.5256 16.5587 92.1958 21.5504C93.8659 26.542 97.4653 27.5415 99.0562 27.4173C102.493 27.0157 110.29 25.7401 113.984 23.8511C117.678 21.9621 117.21 17.3302 116.514 15.2504C115.756 12.375 113.866 5.93324 112.369 3.16892C110.873 0.404596 107.338 0.227048 105.757 0.483815C104.829 0.556258 101.951 0.940961 97.8647 1.90022Z" fill="#FF0000" stroke="black" stroke-width="0.797884"/>
<path d="M97.9157 7.40967C98.5351 7.56378 102.141 10.205 102.955 10.7124C104.345 8.62321 105.378 6.27107 105.828 5.71699C106.39 5.0244 107.844 4.366 109.229 5.49043C110.337 6.38998 110.362 7.42639 109.972 8.0692C108.89 9.84897 108.578 10.5417 107.119 12.7883C106.774 13.3196 111.622 15.638 112.113 16.8002C112.604 17.9623 111.932 19.6154 110.341 19.7396C109.194 19.8291 104.626 17.2279 104.274 17.0953C104.102 16.9961 101.899 20.9615 101.053 21.971C100.256 22.9223 99.3948 22.877 98.2691 22.1883C97.471 21.7001 96.88 20.8143 97.2874 19.864C97.859 18.5304 100.687 14.5412 100.463 14.4135C99.6677 13.9607 96.7803 12.0066 96.2374 11.5424C94.5223 10.0757 95.2714 8.97442 95.5913 8.39156C95.845 7.98469 96.6914 7.10507 97.9157 7.40967Z" fill="white" stroke="black" stroke-width="0.797884"/>
<circle cx="41.1832" cy="88.2625" r="13.564" fill="#FFDD33" stroke="black" stroke-width="0.797884"/>
<circle cx="40.7842" cy="87.8636" r="13.1651" fill="#FFDD33" stroke="black" stroke-width="0.797884"/>
<circle cx="40.7841" cy="87.8637" r="9.97355" fill="black" stroke="black" stroke-width="0.797884"/>
<circle cx="41.183" cy="88.2626" r="9.57461" fill="#FFDD33" stroke="black" stroke-width="0.797884"/>
<path d="M50.7582 97.8371L41.9814 74.6985L44.774 75.0974L52.3539 96.2414L50.7582 97.8371Z" fill="black" stroke="black" stroke-width="0.797884"/>
<path d="M70.3056 6.47941L35.9966 14.0593C32.4062 14.8573 28.8156 17.6499 27.6188 21.6393C26.4221 25.6287 27.4859 29.6182 28.4167 32.0118C38.5233 59.1399 58.9757 113.955 59.9332 116.189C61.13 118.981 62.3268 122.971 67.1141 126.162C70.944 128.715 75.6249 127.758 77.4866 126.96C86.3963 124.034 105.971 117.385 112.992 114.194C120.014 111.002 119.11 103.555 117.78 100.231L110.599 81.8796C102.487 60.8686 85.4655 17.4902 82.2739 12.0646C79.0824 6.63899 72.9653 6.08047 70.3056 6.47941Z" fill="#0063F5" stroke="black" stroke-width="0.797884"/>
<path d="M70.3051 6.47941L35.9961 14.0593C32.4057 14.8573 29.6131 18.0488 28.8153 21.2404C27.8052 25.2811 29.4801 29.2192 30.411 31.6129C40.9608 58.7409 60.571 112.359 61.5284 114.593C62.7253 117.385 64.3209 122.572 69.5073 125.364C73.56 127.546 78.0181 126.561 79.8799 125.763C88.7896 122.838 105.971 117.385 112.992 114.194C120.013 111.002 119.109 103.555 117.779 100.231L110.598 81.8796C102.486 60.8686 85.4649 17.4902 82.2734 12.0646C79.0819 6.63899 72.9647 6.08047 70.3051 6.47941Z" fill="#0063F5" stroke="black" stroke-width="0.797884"/>
<path d="M71.1749 8.57413L38.7013 15.7624C35.3029 16.5191 33.1611 19.0116 32.4059 22.0382C31.4499 25.8701 33.5196 29.7418 34.4007 32.0117C44.3861 57.7381 63.1192 109.062 64.0255 111.181C65.1583 113.829 66.266 119.125 71.1749 121.774C75.0109 123.843 79.6331 122.53 81.3952 121.774C89.8283 118.999 105.15 114.207 111.795 111.181C118.441 108.154 116.26 100.84 115.002 97.6868L108.205 80.2837C100.527 60.3584 84.416 19.2214 81.3952 14.0762C78.3744 8.93091 73.6923 8.1958 71.1749 8.57413Z" fill="white" stroke="black" stroke-width="0.797884"/>
<path d="M50.3589 16.8518C49.0823 17.1709 49.029 17.9159 49.162 18.4479C49.5609 19.6447 51.4227 19.5115 51.9546 19.2457L63.5239 16.4531C64.0559 16.3201 65.0399 15.8145 64.7208 14.857C64.4016 13.8996 63.258 13.9262 62.7261 14.0592C59.1356 14.857 51.6355 16.5326 50.3589 16.8518Z" fill="#0063F5" stroke="black" stroke-width="0.797884"/>
<path d="M2.48625 63.124C2.48625 63.124 0.890659 60.725 0.491538 59.5335C0.0924157 58.3421 1.03303 56.1637 2.48626 54.3473C5.67767 50.3583 12.2482 47.3732 16.2377 46.8033C21.4484 46.0591 23.6846 47.3353 24.2165 48.3991C24.8269 49.1664 25.7047 50.9962 26.0238 51.9536C26.343 52.9111 25.8908 53.9484 25.6249 54.3473C18.8429 64.7198 7.67249 64.7198 5.67778 64.7198C4.08202 64.7198 3.28402 64.3262 2.48625 63.124Z" fill="#FFDD33" stroke="black" stroke-width="0.797884"/>
<ellipse cx="12.4523" cy="54.2598" rx="12.9979" ry="6.07484" transform="rotate(-25.5607 12.4523 54.2598)" fill="#FFDD33" stroke="black" stroke-width="0.797884"/>
<ellipse cx="12.452" cy="54.2599" rx="10.0594" ry="4.70148" transform="rotate(-25.5607 12.452 54.2599)" fill="black" stroke="black" stroke-width="0.797884"/>
<ellipse cx="11.6307" cy="54.8306" rx="9.0718" ry="4.54129" transform="rotate(-25.5607 11.6307 54.8306)" fill="#FFDD33" stroke="black" stroke-width="0.797884"/>
<path d="M17.2467 18.8467C16.4488 18.8467 16.1828 19.1126 16.0498 19.2456C15.6509 19.6446 15.252 20.4424 15.252 21.2403C15.252 22.4372 16.0498 22.4372 16.4488 22.4372H21.635C22.9116 21.7989 22.4329 20.8414 22.034 20.4424C20.7042 19.9105 17.885 18.8467 17.2467 18.8467Z" fill="#0063F5" stroke="black" stroke-width="0.797884"/>
<path d="M17.2471 18.8467C16.4493 18.8467 16.1833 19.1126 16.0503 19.2456C15.6514 19.6446 15.6514 20.0798 15.6514 20.4424C15.6514 20.8051 16.0503 21.6393 16.8482 21.6393H21.6355C22.4334 21.6393 22.5687 20.6561 22.0344 20.4424C20.7046 19.9105 17.8854 18.8467 17.2471 18.8467Z" fill="#0063F5" stroke="black" stroke-width="0.797884"/>
<path d="M16.4485 13.6601C15.8102 14.2984 15.6506 14.8571 16.0495 15.2559C16.4485 15.6547 22.0337 18.8462 22.0337 18.8462C22.4326 19.1122 23.3901 19.4845 24.0284 18.8462C24.6667 18.2079 24.5603 17.5164 24.4274 17.2505C22.9646 15.5218 19.9592 11.9846 19.64 11.6654C19.3209 11.3462 18.8422 11.2667 18.4432 11.6654C18.0442 12.0641 17.0868 13.0218 16.4485 13.6601Z" fill="#FFDD33" stroke="black" stroke-width="0.797884"/>
<path d="M17.2464 12.8625C16.6081 13.5008 16.4485 14.0594 16.8475 14.4582C17.2464 14.8571 22.4325 18.4477 22.4325 18.4477C22.8315 18.7136 23.6294 18.8466 24.0284 18.4477C24.4273 18.0487 24.5601 17.5163 24.4271 17.2503C22.9643 15.5216 19.9589 11.9844 19.6398 11.6653C19.3206 11.3461 18.8419 11.2666 18.4429 11.6653C18.044 12.064 17.8847 12.2242 17.2464 12.8625Z" fill="#FFDD33" stroke="black" stroke-width="0.797884"/>
<path d="M71.1033 75.4964C67.5926 72.9431 67.5128 69.9112 67.9118 68.7144L104.215 69.5122L114.588 97.0392C101.556 90.9221 74.614 78.0496 71.1033 75.4964Z" fill="url(#paint0_linear_9057_24950)"/>
<path d="M83.0718 30.0175C79.242 29.6983 77.7526 32.0122 77.4866 33.209C74.5611 42.9165 68.5503 63.2889 67.912 67.1188C67.2737 70.9486 69.7738 72.704 71.1036 73.1029C89.8538 77.2253 128.791 85.7893 134.535 87.0659C140.28 88.3425 142.78 85.2041 143.312 83.4754C145.972 73.1029 151.45 51.4005 152.089 47.5706C152.727 43.7408 149.163 42.2514 147.301 41.9854C127.487 38.1291 86.9017 30.3366 83.0718 30.0175Z" fill="white" stroke="black" stroke-width="0.797884"/>
<path d="M83.0718 30.0175C79.242 29.6983 77.7526 32.0122 77.4866 33.209C74.561 42.9165 68.5503 62.491 67.912 66.3209C67.2737 70.1507 69.7738 71.9061 71.1036 72.305C89.8538 76.4274 127.594 84.9914 133.339 86.268C140.519 87.8638 142.381 84.0073 142.913 82.2786C145.573 71.9061 151.052 51.0015 151.69 47.1717C152.328 43.3418 148.764 41.8524 146.903 41.5865C127.088 37.7301 86.9016 30.3366 83.0718 30.0175Z" fill="white" stroke="black" stroke-width="0.797884"/>
<path d="M86.6596 36.4972C83.3815 35.9908 82.1343 38.5636 81.9205 39.9133C81.4771 41.0407 81.0022 43.5611 79.9489 47.3447C78.8955 51.1284 79.9957 52.0607 81.3663 52.7209C82.5048 52.9341 86.7835 54.3369 90.607 54.8379C94.4305 55.3388 95.5914 53.2161 96.0348 52.0887C96.4781 50.9613 97.2707 47.5765 98.3241 43.7929C99.3774 40.0092 97.1361 38.6391 96.2248 38.4236C94.1749 37.9947 89.9376 37.0036 86.6596 36.4972Z" fill="#FFDD33" stroke="black" stroke-width="0.797884"/>
<path d="M118.179 45.1774C115.626 44.8583 114.722 46.6402 114.589 47.5711C114.269 49.8054 116.051 50.8955 116.982 51.1612L139.323 55.1506C140.919 55.5495 142.2 55.2968 142.913 53.1559C143.711 50.7622 142.116 49.8978 140.52 49.5654C134.137 48.2357 120.732 45.4966 118.179 45.1774Z" fill="#D0D5DD"/>
<path d="M79.481 56.7461C77.5661 56.4269 76.8214 57.6769 76.6884 58.3418C76.4224 58.8738 76.2097 60.3367 75.8906 61.9325C75.5714 63.5283 76.9544 64.1932 77.8852 64.3261C95.9706 68.0496 132.62 75.5763 134.535 75.8955C136.45 76.2146 137.248 76.2944 137.727 75.0976C137.992 74.4327 138.604 72.7039 138.923 71.1082C139.243 69.5124 138.525 68.5567 137.328 68.3156C118.843 64.592 81.3959 57.0652 79.481 56.7461Z" fill="#D0D5DD"/>
<path d="M92.0008 50.42C92.4022 47.5776 90.013 46.2347 88.3831 45.9509C85.3301 45.6386 83.7255 47.8365 83.3048 48.9744C83.2386 49.5845 83.933 50.9266 87.2404 51.4148C90.5479 51.9029 91.7921 50.955 92.0008 50.42Z" fill="#0063F5"/>
<path d="M89.5325 40.4062C87.7107 40.3175 87.0037 41.7398 86.8186 42.5632C86.7076 43.3555 87.0277 44.9665 88.7578 45.1548C90.659 45.3618 91.4949 44.0048 91.5749 43.1069C91.6548 42.2091 91.3543 40.4949 89.5325 40.4062Z" fill="#0063F5"/>
<defs>
<linearGradient id="paint0_linear_9057_24950" x1="69.1085" y1="71.9059" x2="105.013" y2="89.8583" gradientUnits="userSpaceOnUse">
<stop/>
<stop offset="1" stop-color="white" stop-opacity="0"/>
</linearGradient>
</defs>
</svg>
