<svg width="48" height="48" viewBox="0 0 48 48" fill="none" xmlns="http://www.w3.org/2000/svg">
<g clip-path="url(#clip0_2497_14473)">
<path d="M21.539 16.7435C23.0185 15.8904 24.8407 15.8872 26.3242 16.7351L44.4214 27.0783C45.4089 27.6427 45.4152 29.0631 44.4326 29.6351L26.3346 40.1709C24.837 41.0427 22.9849 41.0401 21.4888 40.1642L3.55213 29.663C2.57411 29.0905 2.57821 27.6767 3.55953 27.1109L21.539 16.7435Z" fill="#FFDD33"/>
<mask id="path-2-outside-1_2497_14473" maskUnits="userSpaceOnUse" x="1.38477" y="6.49622" width="45" height="32" fill="black">
<rect fill="white" x="1.38477" y="6.49622" width="45" height="32"/>
<path d="M18.2704 7.91342C19.1621 7.44137 20.2099 7.3528 21.1434 7.73568C22.464 8.27734 24.4574 9.19344 26.2206 10.4056C26.9669 10.9187 27.7341 11.4815 28.5038 12.1156L44.8573 21.4662C45.3154 21.7281 45.5596 22.1743 45.5946 22.6341H45.6014V24.8519C45.6038 25.3487 45.3601 25.8464 44.869 26.1322L26.3436 36.9037C24.845 37.775 22.9904 37.7718 21.493 36.8949L3.11414 26.1312C2.55363 25.8027 2.31733 25.1985 2.40125 24.6361V22.9632C2.31871 22.3989 2.55802 21.7949 3.12196 21.4701L10.2518 17.3636V15.2718C10.2518 13.3572 11.3098 11.5994 13.0018 10.7035L18.2704 7.91342Z"/>
</mask>
<path d="M18.2704 7.91342C19.1621 7.44137 20.2099 7.3528 21.1434 7.73568C22.464 8.27734 24.4574 9.19344 26.2206 10.4056C26.9669 10.9187 27.7341 11.4815 28.5038 12.1156L44.8573 21.4662C45.3154 21.7281 45.5596 22.1743 45.5946 22.6341H45.6014V24.8519C45.6038 25.3487 45.3601 25.8464 44.869 26.1322L26.3436 36.9037C24.845 37.775 22.9904 37.7718 21.493 36.8949L3.11414 26.1312C2.55363 25.8027 2.31733 25.1985 2.40125 24.6361V22.9632C2.31871 22.3989 2.55802 21.7949 3.12196 21.4701L10.2518 17.3636V15.2718C10.2518 13.3572 11.3098 11.5994 13.0018 10.7035L18.2704 7.91342Z" fill="white"/>
<path d="M18.2704 7.91342L18.0977 7.58709L18.0976 7.58711L18.2704 7.91342ZM21.1434 7.73568L21.2836 7.39407L21.2836 7.39407L21.1434 7.73568ZM26.2206 10.4056L26.4298 10.1013L26.4298 10.1013L26.2206 10.4056ZM28.5038 12.1156L28.269 12.4005C28.2851 12.4138 28.3024 12.4257 28.3205 12.4361L28.5038 12.1156ZM44.8573 21.4662L45.0406 21.1456L45.0406 21.1456L44.8573 21.4662ZM45.5946 22.6341L45.2264 22.6622C45.2411 22.8546 45.4016 23.0034 45.5946 23.0034V22.6341ZM45.6014 22.6341H45.9707C45.9707 22.4302 45.8054 22.2649 45.6014 22.2649V22.6341ZM45.6014 24.8519H45.2322L45.2322 24.8536L45.6014 24.8519ZM44.869 26.1322L45.0546 26.4514L45.0547 26.4513L44.869 26.1322ZM26.3436 36.9037L26.5292 37.2229L26.5292 37.2228L26.3436 36.9037ZM21.493 36.8949L21.3065 37.2135L21.3065 37.2135L21.493 36.8949ZM3.11414 26.1312L2.92746 26.4498L2.92755 26.4498L3.11414 26.1312ZM2.40125 24.6361L2.76644 24.6906C2.76913 24.6725 2.77048 24.6543 2.77048 24.6361H2.40125ZM2.40125 22.9632H2.77048C2.77048 22.9453 2.76918 22.9275 2.7666 22.9098L2.40125 22.9632ZM3.12196 21.4701L2.93768 21.1501L2.93766 21.1501L3.12196 21.4701ZM10.2518 17.3636L10.4361 17.6836C10.5505 17.6177 10.6211 17.4957 10.6211 17.3636H10.2518ZM13.0018 10.7035L13.1746 11.0298L13.1746 11.0298L13.0018 10.7035ZM18.2704 7.91342L18.4431 8.23975C19.2473 7.81404 20.1806 7.73984 21.0033 8.0773L21.1434 7.73568L21.2836 7.39407C20.2393 6.96576 19.0769 7.0687 18.0977 7.58709L18.2704 7.91342ZM21.1434 7.73568L21.0033 8.07729C22.3132 8.61456 24.2793 9.51906 26.0114 10.7099L26.2206 10.4056L26.4298 10.1013C24.6356 8.86782 22.6148 7.94012 21.2836 7.39407L21.1434 7.73568ZM26.2206 10.4056L26.0114 10.7099C26.7512 11.2185 27.5095 11.7748 28.269 12.4005L28.5038 12.1156L28.7386 11.8306C27.9588 11.1881 27.1825 10.6189 26.4298 10.1013L26.2206 10.4056ZM28.5038 12.1156L28.3205 12.4361L44.674 21.7867L44.8573 21.4662L45.0406 21.1456L28.6871 11.795L28.5038 12.1156ZM44.8573 21.4662L44.674 21.7867C45.0176 21.9831 45.2 22.3147 45.2264 22.6622L45.5946 22.6341L45.9628 22.6061C45.9192 22.0339 45.6133 21.4731 45.0406 21.1456L44.8573 21.4662ZM45.5946 22.6341V23.0034H45.6014V22.6341V22.2649H45.5946V22.6341ZM45.6014 22.6341H45.2322V24.8519H45.6014H45.9707V22.6341H45.6014ZM45.6014 24.8519L45.2322 24.8536C45.234 25.2284 45.0518 25.5986 44.6833 25.813L44.869 26.1322L45.0547 26.4513C45.6685 26.0942 45.9736 25.4689 45.9707 24.8502L45.6014 24.8519ZM44.869 26.1322L44.6834 25.813L26.158 36.5845L26.3436 36.9037L26.5292 37.2228L45.0546 26.4514L44.869 26.1322ZM26.3436 36.9037L26.158 36.5845C24.7746 37.3888 23.0622 37.3859 21.6796 36.5762L21.493 36.8949L21.3065 37.2135C22.9186 38.1576 24.9154 38.1612 26.5292 37.2229L26.3436 36.9037ZM21.493 36.8949L21.6796 36.5763L3.30074 25.8126L3.11414 26.1312L2.92755 26.4498L21.3065 37.2135L21.493 36.8949ZM3.11414 26.1312L3.30082 25.8126C2.88134 25.5668 2.70284 25.1168 2.76644 24.6906L2.40125 24.6361L2.03606 24.5816C1.93182 25.2802 2.22592 26.0386 2.92746 26.4498L3.11414 26.1312ZM2.40125 24.6361H2.77048V22.9632H2.40125H2.03202V24.6361H2.40125ZM2.40125 22.9632L2.7666 22.9098C2.70403 22.482 2.88476 22.0328 3.30625 21.79L3.12196 21.4701L2.93766 21.1501C2.23127 21.557 1.9334 22.3158 2.03591 23.0167L2.40125 22.9632ZM3.12196 21.4701L3.30623 21.79L10.4361 17.6836L10.2518 17.3636L10.0676 17.0437L2.93768 21.1501L3.12196 21.4701ZM10.2518 17.3636H10.6211V15.2718H10.2518H9.88261V17.3636H10.2518ZM10.2518 15.2718H10.6211C10.6211 13.4939 11.6035 11.8617 13.1746 11.0298L13.0018 10.7035L12.8291 10.3771C11.0161 11.3371 9.88261 13.2205 9.88261 15.2718H10.2518ZM13.0018 10.7035L13.1746 11.0298L18.4432 8.23972L18.2704 7.91342L18.0976 7.58711L12.829 10.3772L13.0018 10.7035Z" fill="#1D2939" mask="url(#path-2-outside-1_2497_14473)"/>
<mask id="mask0_2497_14473" style="mask-type:alpha" maskUnits="userSpaceOnUse" x="2" y="10" width="22" height="28">
<rect x="2.40039" y="10.1537" width="21.6" height="27.5077" fill="#D0D8DC"/>
</mask>
<g mask="url(#mask0_2497_14473)">
<path d="M21.525 12.9821C23.0056 12.1294 24.8296 12.1271 26.3142 12.9759L44.8565 23.5772C45.8442 24.1419 45.8505 25.5613 44.8679 26.1326L26.3426 36.9037C24.8439 37.7751 22.9901 37.7716 21.4927 36.8947L3.114 26.1314C2.13583 25.5585 2.13984 24.1459 3.12124 23.5807L21.525 12.9821Z" fill="#D0D5DD"/>
<path d="M21.525 10.8722C23.0056 10.0195 24.8295 10.0171 26.3142 10.866L44.8565 21.4673C45.8442 22.032 45.8505 23.4513 44.8679 24.0226L26.3425 34.7937C24.8439 35.6651 22.99 35.6617 21.4927 34.7848L3.11397 24.0214C2.1358 23.4486 2.13981 22.0359 3.12121 21.4708L21.525 10.8722Z" fill="#D0D5DD"/>
<rect x="2.40039" y="22.6346" width="43.2001" height="2.21539" fill="#D0D5DD"/>
</g>
<path d="M44.9014 21.3543C45.9506 21.954 45.9569 23.4634 44.913 24.0711L26.3786 34.861C24.8523 35.7495 22.9647 35.7471 21.4398 34.8545L3.06971 24.0998C2.03056 23.4914 2.03494 21.9887 3.0776 21.3875L21.4899 10.7706C22.9978 9.90112 24.8562 9.89822 26.3682 10.7624L44.9014 21.3543Z" fill="white" stroke="#1D2939" stroke-width="0.184616"/>
<path d="M14.952 30.3626L28.8847 30.2813C29.454 30.2779 30.0112 30.1164 30.494 29.8146L33.839 27.8714C36.4629 26.347 36.2298 22.4841 33.4417 21.2862L17.472 14.4252C16.3577 13.9465 15.0794 14.0455 14.0521 14.6901L6.27717 19.5685L3.11403 21.5108C2.16372 22.0943 2.17815 23.4802 3.14041 24.0438L13.0644 29.8564C13.6367 30.1916 14.2888 30.3665 14.952 30.3626Z" fill="#D0D5DD"/>
<path d="M18.2256 7.83142C19.1392 7.34774 20.2154 7.2555 21.1768 7.64978C22.4999 8.19249 24.5005 9.11097 26.2715 10.3285C29.2324 12.3641 32.5314 15.181 34.9775 20.1459L36.8164 23.5277C37.4103 24.6198 37.0326 25.9858 35.9619 26.6176L30.9111 29.598C29.4397 30.4662 27.6128 30.4685 26.1387 29.6049L12.3945 21.5531C11.0091 20.7414 10.1572 19.2555 10.1572 17.6498V15.2709C10.1573 13.3222 11.2349 11.5334 12.957 10.6215L18.2256 7.83142Z" fill="white" stroke="#1D2939" stroke-width="0.184616"/>
<path d="M17.1868 15.4814C14.2329 13.6352 11.7406 13.2045 10.7252 13.1737C10.4826 13.5376 10.3308 13.9544 10.2825 14.3891L10.2637 14.5583C10.2329 15.5122 10.2637 17.3829 10.2637 17.6045C10.2637 18.1583 10.3745 18.6937 10.4483 18.9891C10.5406 19.3583 10.9099 20.2814 11.556 20.8353C12.0729 21.2783 19.433 25.543 22.9099 27.5737L25.1295 28.7844C25.6718 29.0803 26.1007 28.9478 26.0228 28.3349C25.9509 27.7689 25.7711 26.8844 25.4022 25.543C24.3868 21.8506 20.8791 17.7891 17.1868 15.4814Z" fill="#D0D5DD"/>
<path d="M13.9497 14.0318L13.9556 13.9131C16.9139 14.6879 20.2194 17.5958 21.6932 19.1443C21.8124 19.2696 22.0007 19.2978 22.1505 19.2115L30.1773 14.5874C30.3043 14.5142 30.4625 14.5213 30.574 14.6164C31.6799 15.5593 33.1549 17.8463 34.1462 19.5484C34.5916 20.3132 34.7584 21.239 34.3959 22.0464C34.0388 22.8421 33.4065 23.7822 32.2326 24.6208C30.2941 26.0054 27.8941 26.8362 25.5864 25.6362C23.9625 24.7918 18.5534 20.0288 15.1385 16.9258C14.3275 16.1888 13.8949 15.1264 13.9497 14.0318Z" fill="#FFDD33"/>
<path d="M21.6177 19.0823C18.7555 16.2208 15.9862 14.4669 14.048 13.9131C13.8632 15.2054 14.417 16.2483 14.9707 16.7746C16.8159 18.5288 22.54 23.6977 25.1247 25.267C25.2786 24.5593 24.1116 21.5758 21.6177 19.0823Z" fill="#FFDD33"/>
<path d="M13.957 13.0823V14.2869C13.957 14.6961 14.1242 15.085 14.4244 15.3631C17.592 18.2969 23.4489 23.494 26.1039 25.0503C26.487 25.2749 26.922 25.3785 27.3659 25.3667C29.8661 25.3 34.0351 24.2072 34.9109 20.0977" stroke="#1D2939" stroke-width="0.184616" stroke-linecap="round"/>
<path d="M21.9863 18.6206L30.3863 13.7283" stroke="#1D2939" stroke-width="0.184616" stroke-linecap="round"/>
<path d="M31.3105 28.2207L35.3721 25.8207" stroke="#1D2939" stroke-width="0.184616" stroke-linecap="round"/>
<path d="M18.7568 15.6664L18.8141 15.594L18.7568 15.6664ZM30.8739 28.5861C30.923 28.5725 30.9518 28.5216 30.9381 28.4725C30.9245 28.4233 30.8736 28.3946 30.8245 28.4082L30.8492 28.4972L30.8739 28.5861ZM10.8184 12.5279L10.828 12.6197C11.9695 12.4996 15.1707 12.9451 18.6995 15.7388L18.7568 15.6664L18.8141 15.594C15.2537 12.7754 12.0056 12.3101 10.8087 12.4361L10.8184 12.5279ZM18.7568 15.6664L18.6995 15.7388C23.1154 19.2346 24.9543 22.4518 27.1686 26.4191L27.2492 26.3741L27.3298 26.3291C25.1133 22.3579 23.2599 19.1136 18.8141 15.594L18.7568 15.6664ZM27.2492 26.3741L27.1686 26.4191C27.7232 27.4127 28.2174 28.0778 28.7931 28.4316C29.3764 28.79 30.0285 28.8209 30.8739 28.5861L30.8492 28.4972L30.8245 28.4082C30.0083 28.6349 29.4142 28.5966 28.8898 28.2743C28.3578 27.9473 27.8829 27.3201 27.3298 26.3291L27.2492 26.3741Z" fill="#1D2939"/>
<path d="M26.6484 12.2518C26.9342 12.4447 26.9153 12.8718 26.6136 13.0384L22.6866 15.2036C22.4871 15.3136 22.2446 15.3104 22.0479 15.1953L19.9072 13.9429C19.6001 13.7631 19.6032 13.3179 19.9127 13.1428L23.95 10.8621C24.1634 10.7417 24.427 10.7521 24.6301 10.8893L26.6484 12.2518Z" stroke="#1D2939" stroke-width="0.184616"/>
<path d="M36.8479 23.5131C36.9095 24.0054 36.6633 24.8977 35.7402 25.5438" stroke="#1D2939" stroke-width="0.184616" stroke-linecap="round"/>
<ellipse cx="13.5897" cy="20.6489" rx="1.68228" ry="2.67186" transform="rotate(-30 13.5897 20.6489)" fill="#D0D5DD" stroke="#1D2939" stroke-width="0.184616"/>
<ellipse cx="24.5956" cy="27.1293" rx="1.68228" ry="2.67186" transform="rotate(-30 24.5956 27.1293)" fill="#D0D5DD" stroke="#1D2939" stroke-width="0.184616"/>
<ellipse cx="13.5683" cy="20.6617" rx="1.0196" ry="1.851" transform="rotate(-30 13.5683 20.6617)" fill="#D0D5DD" stroke="#1D2939" stroke-width="0.184616"/>
<ellipse cx="24.5784" cy="27.1475" rx="1.01807" ry="1.87005" transform="rotate(-30 24.5784 27.1475)" fill="#D0D5DD" stroke="#1D2939" stroke-width="0.184616"/>
</g>
<defs>
<clipPath id="clip0_2497_14473">
<rect width="48.0001" height="48.0001" fill="white"/>
</clipPath>
</defs>
</svg>
