<svg width="48" height="48" viewBox="0 0 48 48" fill="none" xmlns="http://www.w3.org/2000/svg">
<g clip-path="url(#clip0_2497_14532)">
<path d="M21.6308 16.7444C23.1103 15.8913 24.9325 15.8881 26.416 16.7359L44.5132 27.0791C45.5007 27.6435 45.507 29.064 44.5244 29.636L26.4264 40.1717C24.9288 41.0435 23.0767 41.041 21.5806 40.1651L3.64393 29.6639C2.6659 29.0913 2.67 27.6776 3.65133 27.1117L21.6308 16.7444Z" fill="#FFDD33"/>
<mask id="path-2-outside-1_2497_14532" maskUnits="userSpaceOnUse" x="1.49414" y="9.23132" width="45" height="29" fill="black">
<rect fill="white" x="1.49414" y="9.23132" width="45" height="29"/>
<path d="M21.6346 10.8727C23.1151 10.0201 24.9391 10.0173 26.4237 10.8658L44.9667 21.4674C45.4245 21.7292 45.6687 22.1749 45.704 22.6344H45.7108V24.8522C45.7132 25.3491 45.4688 25.8467 44.9774 26.1324L26.453 36.9039C24.9543 37.7753 23.0998 37.772 21.6024 36.8951L3.22352 26.1315C2.66298 25.803 2.42671 25.1988 2.51063 24.6364V22.9645C2.42808 22.4002 2.66737 21.7962 3.23133 21.4713L21.6346 10.8727Z"/>
</mask>
<path d="M21.6346 10.8727C23.1151 10.0201 24.9391 10.0173 26.4237 10.8658L44.9667 21.4674C45.4245 21.7292 45.6687 22.1749 45.704 22.6344H45.7108V24.8522C45.7132 25.3491 45.4688 25.8467 44.9774 26.1324L26.453 36.9039C24.9543 37.7753 23.0998 37.772 21.6024 36.8951L3.22352 26.1315C2.66298 25.803 2.42671 25.1988 2.51063 24.6364V22.9645C2.42808 22.4002 2.66737 21.7962 3.23133 21.4713L21.6346 10.8727Z" fill="white"/>
<path d="M21.6346 10.8727L21.4504 10.5527L21.4504 10.5527L21.6346 10.8727ZM26.4237 10.8658L26.607 10.5453L26.6069 10.5453L26.4237 10.8658ZM44.9667 21.4674L45.15 21.1469L45.1499 21.1469L44.9667 21.4674ZM45.704 22.6344L45.3358 22.6627C45.3506 22.8551 45.511 23.0036 45.704 23.0036V22.6344ZM45.7108 22.6344H46.0801C46.0801 22.4305 45.9147 22.2652 45.7108 22.2652V22.6344ZM45.7108 24.8522H45.3416L45.3416 24.8539L45.7108 24.8522ZM44.9774 26.1324L44.7918 25.8132L44.7918 25.8133L44.9774 26.1324ZM26.453 36.9039L26.6386 37.2231L26.6386 37.2231L26.453 36.9039ZM21.6024 36.8951L21.4158 37.2138L21.4158 37.2138L21.6024 36.8951ZM3.22352 26.1315L3.03684 26.45L3.03692 26.4501L3.22352 26.1315ZM2.51063 24.6364L2.87581 24.6908C2.87851 24.6728 2.87986 24.6546 2.87986 24.6364H2.51063ZM2.51063 22.9645H2.87986C2.87986 22.9466 2.87856 22.9287 2.87597 22.911L2.51063 22.9645ZM3.23133 21.4713L3.04706 21.1514L3.04704 21.1514L3.23133 21.4713ZM21.6346 10.8727L21.8189 11.1926C23.1856 10.4056 24.8697 10.4029 26.2405 11.1864L26.4237 10.8658L26.6069 10.5453C25.0085 9.63164 23.0446 9.63462 21.4504 10.5527L21.6346 10.8727ZM26.4237 10.8658L26.2404 11.1864L44.7834 21.788L44.9667 21.4674L45.1499 21.1469L26.607 10.5453L26.4237 10.8658ZM44.9667 21.4674L44.7834 21.7879C45.1267 21.9843 45.3092 22.3155 45.3358 22.6627L45.704 22.6344L46.0721 22.6061C46.0282 22.0344 45.7222 21.4742 45.15 21.1469L44.9667 21.4674ZM45.704 22.6344V23.0036H45.7108V22.6344V22.2652H45.704V22.6344ZM45.7108 22.6344H45.3416V24.8522H45.7108H46.0801V22.6344H45.7108ZM45.7108 24.8522L45.3416 24.8539C45.3433 25.2285 45.1608 25.5987 44.7918 25.8132L44.9774 26.1324L45.163 26.4516C45.7769 26.0947 46.083 25.4697 46.08 24.8504L45.7108 24.8522ZM44.9774 26.1324L44.7918 25.8133L26.2674 36.5847L26.453 36.9039L26.6386 37.2231L45.163 26.4516L44.9774 26.1324ZM26.453 36.9039L26.2674 36.5847C24.884 37.3891 23.1716 37.3862 21.789 36.5765L21.6024 36.8951L21.4158 37.2138C23.0279 38.1579 25.0247 38.1615 26.6386 37.2231L26.453 36.9039ZM21.6024 36.8951L21.789 36.5765L3.41011 25.8129L3.22352 26.1315L3.03692 26.4501L21.4158 37.2138L21.6024 36.8951ZM3.22352 26.1315L3.41019 25.8129C2.9907 25.5671 2.81222 25.1171 2.87581 24.6908L2.51063 24.6364L2.14544 24.5819C2.0412 25.2804 2.33526 26.0389 3.03684 26.45L3.22352 26.1315ZM2.51063 24.6364H2.87986V22.9645H2.51063H2.14139V24.6364H2.51063ZM2.51063 22.9645L2.87597 22.911C2.81339 22.4832 2.99412 22.0341 3.41562 21.7913L3.23133 21.4713L3.04704 21.1514C2.34063 21.5583 2.04276 22.3171 2.14528 23.0179L2.51063 22.9645ZM3.23133 21.4713L3.4156 21.7913L21.8189 11.1926L21.6346 10.8727L21.4504 10.5527L3.04706 21.1514L3.23133 21.4713Z" fill="#1D2939" mask="url(#path-2-outside-1_2497_14532)"/>
<mask id="mask0_2497_14532" style="mask-type:alpha" maskUnits="userSpaceOnUse" x="2" y="10" width="23" height="28">
<rect x="2.49219" y="10.1545" width="21.6" height="27.5077" fill="#D0D8DC"/>
</mask>
<g mask="url(#mask0_2497_14532)">
<path d="M21.6168 12.983C23.0974 12.1303 24.9213 12.1279 26.406 12.9768L44.9483 23.5781C45.936 24.1428 45.9423 25.5621 44.9597 26.1334L26.4344 36.9046C24.9357 37.7759 23.0819 37.7725 21.5845 36.8956L3.2058 26.1323C2.22763 25.5594 2.23164 24.1468 3.21303 23.5816L21.6168 12.983Z" fill="#D0D5DD"/>
<path d="M21.6168 10.873C23.0974 10.0203 24.9213 10.018 26.406 10.8668L44.9483 21.4681C45.936 22.0328 45.9423 23.4522 44.9597 24.0235L26.4343 34.7946C24.9357 35.666 23.0818 35.6625 21.5845 34.7856L3.20577 24.0223C2.22759 23.4494 2.2316 22.0368 3.213 21.4716L21.6168 10.873Z" fill="#D0D5DD"/>
<rect x="2.49219" y="22.6355" width="43.2001" height="2.21539" fill="#D0D5DD"/>
</g>
<path d="M44.9932 21.3552C46.0424 21.9549 46.0487 23.4642 45.0048 24.072L26.4704 34.8619C24.9441 35.7504 23.0565 35.748 21.5316 34.8554L3.16151 24.1006C2.12236 23.4922 2.12674 21.9896 3.1694 21.3884L21.5816 10.7715C23.0896 9.90198 24.948 9.89908 26.46 10.7632L44.9932 21.3552Z" fill="white" stroke="#1D2939" stroke-width="0.184616"/>
<path d="M13.0692 29.7247H24.3443L21.9931 27.4151L24.3443 22.7074L17.938 12.8121L9.87769 17.6304L3.16843 21.4346C2.17514 21.9978 2.16935 23.427 3.15803 23.9982L13.0692 29.7247Z" fill="#D0D5DD"/>
<path d="M21.2185 2.92606L31.2 8.48838L24.3087 12.5001L14.3769 6.87106L21.2185 2.92606Z" fill="white" stroke="#1D2939" stroke-width="0.184616" stroke-linejoin="round"/>
<path d="M21.2041 4.42015L29.7582 9.12502L31.0413 8.41216L21.2041 3.137L21.2041 4.42015Z" fill="#D0D5DD"/>
<path d="M21.1623 4.49606L29.847 9.32091L24.1328 12.4841L15.6482 7.66667L21.1623 4.49606Z" fill="#FFDD33" stroke="#1D2939" stroke-width="0.184616" stroke-linejoin="round"/>
<path d="M14.0926 24.1799L24.3102 29.8061L24.3102 12.5088L14.3784 6.87972L14.0926 24.1799Z" fill="#D0D5DD" stroke="#1D2939" stroke-width="0.184616" stroke-linejoin="round"/>
<path d="M31.1515 25.9288L31.2012 8.48804L24.3099 12.4998L24.3099 29.7972L31.1515 25.9288Z" fill="white" stroke="#1D2939" stroke-width="0.184616" stroke-linejoin="round"/>
<path d="M26.7029 15.3981L26.7109 12.5466L25.5926 13.1977L25.5926 15.9684L26.7029 15.3981Z" fill="white" stroke="#1D2939" stroke-width="0.184616" stroke-linejoin="round"/>
<path d="M27.8431 14.8279L27.8516 11.8339L26.7327 12.5467L26.7328 15.3981L27.8431 14.8279Z" fill="white" stroke="#1D2939" stroke-width="0.184616" stroke-linejoin="round"/>
<path d="M29.8549 13.5448L29.8633 10.5508L28.7444 11.2636L28.7445 14.1151L29.8549 13.5448Z" fill="#FFDD33" stroke="#1D2939" stroke-width="0.184616" stroke-linejoin="round"/>
<path d="M29.8549 22.6689L29.8633 19.6749L28.7444 20.3878L28.7445 23.2392L29.8549 22.6689Z" fill="white" stroke="#1D2939" stroke-width="0.184616" stroke-linejoin="round"/>
<path d="M26.7043 18.2278L26.7119 15.3976L25.5941 15.9679L25.594 18.8556L26.7043 18.2278Z" fill="white" stroke="#1D2939" stroke-width="0.184616" stroke-linejoin="round"/>
<path d="M27.8449 17.5361L27.8525 14.8273L26.7347 15.3976L26.7347 18.2081L27.8449 17.5361Z" fill="white" stroke="#1D2939" stroke-width="0.184616" stroke-linejoin="round"/>
<path d="M27.5542 27.9496L27.5643 24.4146C27.5661 23.7846 26.8823 23.3906 26.3377 23.7077C25.8866 23.9703 25.6092 24.4526 25.6092 24.9743L25.6092 29.0494L27.5542 27.9496Z" fill="#D0D5DD" stroke="#1D2939" stroke-width="0.184616" stroke-linejoin="round"/>
<path d="M26.7652 28.3726L26.7751 24.5426C26.7761 24.1607 26.3571 23.9258 26.0314 24.1257C25.7716 24.2852 25.6132 24.5681 25.6132 24.8729L25.6132 29.0523L26.7652 28.3726Z" fill="#1D2939" stroke="#1D2939" stroke-width="0.184616" stroke-linejoin="round"/>
<path d="M14.3613 15.6831L24.3414 21.2434L31.1848 17.394" stroke="#1D2939" stroke-width="0.184616" stroke-linecap="round"/>
</g>
<defs>
<clipPath id="clip0_2497_14532">
<rect width="48.0001" height="48.0001" fill="white"/>
</clipPath>
</defs>
</svg>
