<svg width="48" height="48" viewBox="0 0 48 48" fill="none" xmlns="http://www.w3.org/2000/svg">
<g clip-path="url(#clip0_2497_14422)">
<g clip-path="url(#clip1_2497_14422)">
<path d="M21.539 16.7435C23.0185 15.8904 24.8407 15.8872 26.3242 16.7351L44.4214 27.0783C45.4089 27.6427 45.4152 29.0631 44.4326 29.6351L26.3346 40.1709C24.837 41.0427 22.9849 41.0401 21.4888 40.1642L3.55213 29.663C2.57411 29.0905 2.57821 27.6767 3.55953 27.1109L21.539 16.7435Z" fill="#FFDD33"/>
<mask id="path-2-outside-1_2497_14422" maskUnits="userSpaceOnUse" x="1.40039" y="7.13416" width="45" height="31" fill="black">
<rect fill="white" x="1.40039" y="7.13416" width="45" height="31"/>
<path fill-rule="evenodd" clip-rule="evenodd" d="M24.2231 8.89001C24.6225 8.30053 25.3437 8.01775 26.0369 8.17887L35.8337 10.456C36.1937 10.5397 36.3586 10.9575 36.1528 11.2649L35.6431 12.0263L36.6992 12.3406C37.0535 12.446 37.1926 12.8731 36.9685 13.1673L36.4715 13.8199L37.483 14.1864C37.8305 14.3123 37.9445 14.7468 37.7036 15.0274L36.3569 16.5968L44.8741 21.4664C45.3326 21.7285 45.5796 22.1747 45.6144 22.6348H45.6184V22.7186C45.6188 22.7384 45.6188 22.7582 45.6184 22.7779V24.8295C45.6284 25.3339 45.3844 25.8426 44.8855 26.1327L26.3602 36.9038C24.8615 37.7752 23.0077 37.7717 21.5103 36.8948L3.13162 26.1315C2.56752 25.8011 2.33006 25.1915 2.41833 24.6261V22.978C2.3296 22.4096 2.57009 21.7974 3.13885 21.4699L21.5426 10.8713C22.088 10.5571 22.6801 10.3584 23.2846 10.2752L24.2231 8.89001Z"/>
</mask>
<path fill-rule="evenodd" clip-rule="evenodd" d="M24.2231 8.89001C24.6225 8.30053 25.3437 8.01775 26.0369 8.17887L35.8337 10.456C36.1937 10.5397 36.3586 10.9575 36.1528 11.2649L35.6431 12.0263L36.6992 12.3406C37.0535 12.446 37.1926 12.8731 36.9685 13.1673L36.4715 13.8199L37.483 14.1864C37.8305 14.3123 37.9445 14.7468 37.7036 15.0274L36.3569 16.5968L44.8741 21.4664C45.3326 21.7285 45.5796 22.1747 45.6144 22.6348H45.6184V22.7186C45.6188 22.7384 45.6188 22.7582 45.6184 22.7779V24.8295C45.6284 25.3339 45.3844 25.8426 44.8855 26.1327L26.3602 36.9038C24.8615 37.7752 23.0077 37.7717 21.5103 36.8948L3.13162 26.1315C2.56752 25.8011 2.33006 25.1915 2.41833 24.6261V22.978C2.3296 22.4096 2.57009 21.7974 3.13885 21.4699L21.5426 10.8713C22.088 10.5571 22.6801 10.3584 23.2846 10.2752L24.2231 8.89001Z" fill="white"/>
<path d="M26.0369 8.17887L25.9533 8.53852V8.53852L26.0369 8.17887ZM24.2231 8.89001L24.5287 9.09712V9.09712L24.2231 8.89001ZM35.8337 10.456L35.9173 10.0964V10.0964L35.8337 10.456ZM36.1529 11.2649L35.846 11.0594V11.0594L36.1529 11.2649ZM35.6431 12.0263L35.3362 11.8209C35.271 11.9183 35.2559 12.041 35.2957 12.1514C35.3354 12.2618 35.4253 12.3467 35.5377 12.3802L35.6431 12.0263ZM36.6992 12.3406L36.8045 11.9867V11.9867L36.6992 12.3406ZM36.9685 13.1673L37.2623 13.391V13.391L36.9685 13.1673ZM36.4715 13.8199L36.1778 13.5962C36.1066 13.6897 36.0842 13.8115 36.1173 13.9242C36.1505 14.0369 36.2353 14.1271 36.3458 14.1671L36.4715 13.8199ZM37.483 14.1864L37.3572 14.5336V14.5336L37.483 14.1864ZM37.7036 15.0274L37.9838 15.2679V15.2679L37.7036 15.0274ZM36.3569 16.5968L36.0767 16.3563C36.005 16.4399 35.9743 16.5511 35.993 16.6596C36.0118 16.7682 36.078 16.8626 36.1736 16.9173L36.3569 16.5968ZM44.8741 21.4664L44.6909 21.7869V21.7869L44.8741 21.4664ZM45.6144 22.6348L45.2462 22.6627C45.2608 22.8552 45.4213 23.004 45.6144 23.004V22.6348ZM45.6184 22.6348H45.9876C45.9876 22.4309 45.8223 22.2656 45.6184 22.2656V22.6348ZM45.6184 22.7186H45.2491L45.2493 22.7259L45.6184 22.7186ZM45.6184 22.7779L45.2492 22.7707V22.7779H45.6184ZM45.6184 24.8295H45.2491L45.2493 24.8368L45.6184 24.8295ZM44.8855 26.1327L45.0711 26.4519V26.4519L44.8855 26.1327ZM26.3602 36.9038L26.5458 37.223V37.223L26.3602 36.9038ZM21.5103 36.8948L21.3238 37.2134V37.2134L21.5103 36.8948ZM3.13162 26.1315L3.31821 25.8129H3.31821L3.13162 26.1315ZM2.41833 24.6261L2.78314 24.6831C2.78608 24.6643 2.78756 24.6452 2.78756 24.6261H2.41833ZM2.41833 22.978H2.78756C2.78756 22.9589 2.78608 22.9399 2.78314 22.9211L2.41833 22.978ZM3.13885 21.4699L2.95459 21.1499H2.95459L3.13885 21.4699ZM21.5426 10.8713L21.7269 11.1912V11.1912L21.5426 10.8713ZM23.2846 10.2752L23.335 10.6409C23.4387 10.6266 23.5315 10.569 23.5903 10.4823L23.2846 10.2752ZM26.0369 8.17887L26.1205 7.81923C25.2784 7.62349 24.4024 7.96702 23.9174 8.6829L24.2231 8.89001L24.5287 9.09712C24.8425 8.63403 25.4091 8.41201 25.9533 8.53852L26.0369 8.17887ZM35.8337 10.456L35.9173 10.0964L26.1205 7.81923L26.0369 8.17887L25.9533 8.53852L35.7501 10.8157L35.8337 10.456ZM36.1529 11.2649L36.4597 11.4703C36.8089 10.9487 36.5292 10.2386 35.9173 10.0964L35.8337 10.456L35.7501 10.8157C35.8583 10.8408 35.9083 10.9664 35.846 11.0594L36.1529 11.2649ZM35.6431 12.0263L35.9499 12.2317L36.4597 11.4703L36.1529 11.2649L35.846 11.0594L35.3362 11.8209L35.6431 12.0263ZM35.6431 12.0263L35.5377 12.3802L36.5939 12.6945L36.6992 12.3406L36.8045 11.9867L35.7484 11.6724L35.6431 12.0263ZM36.6992 12.3406L36.5939 12.6945C36.7003 12.7261 36.7426 12.8545 36.6748 12.9436L36.9685 13.1673L37.2623 13.391C37.6426 12.8916 37.4066 12.1658 36.8045 11.9867L36.6992 12.3406ZM36.9685 13.1673L36.6748 12.9436L36.1778 13.5962L36.4715 13.8199L36.7653 14.0436L37.2623 13.391L36.9685 13.1673ZM36.4715 13.8199L36.3458 14.1671L37.3572 14.5336L37.483 14.1864L37.6087 13.8393L36.5973 13.4728L36.4715 13.8199ZM37.483 14.1864L37.3572 14.5336C37.4616 14.5714 37.4963 14.702 37.4234 14.787L37.7036 15.0274L37.9838 15.2679C38.3926 14.7915 38.1994 14.0533 37.6087 13.8393L37.483 14.1864ZM37.7036 15.0274L37.4234 14.787L36.0767 16.3563L36.3569 16.5968L36.6371 16.8372L37.9838 15.2679L37.7036 15.0274ZM36.3569 16.5968L36.1736 16.9173L44.6909 21.7869L44.8741 21.4664L45.0574 21.1459L36.5401 16.2762L36.3569 16.5968ZM44.8741 21.4664L44.6909 21.7869C45.0359 21.9842 45.22 22.3165 45.2462 22.6627L45.6144 22.6348L45.9826 22.6069C45.9391 22.0329 45.6292 21.4728 45.0574 21.1459L44.8741 21.4664ZM45.6144 22.6348V23.004H45.6184V22.6348V22.2656H45.6144V22.6348ZM45.6184 22.6348H45.2492V22.7186H45.6184H45.9876V22.6348H45.6184ZM45.6184 22.7186L45.2493 22.7259C45.2495 22.7408 45.2495 22.7558 45.2493 22.7707L45.6184 22.7779L45.9876 22.7852C45.9881 22.7606 45.9881 22.736 45.9876 22.7114L45.6184 22.7186ZM45.6184 22.7779H45.2492V24.8295H45.6184H45.9876V22.7779H45.6184ZM45.6184 24.8295L45.2493 24.8368C45.2568 25.2174 45.0743 25.5958 44.7 25.8135L44.8855 26.1327L45.0711 26.4519C45.6946 26.0894 46 25.4505 45.9876 24.8222L45.6184 24.8295ZM44.8855 26.1327L44.7 25.8135L26.1746 36.5846L26.3602 36.9038L26.5458 37.223L45.0711 26.4519L44.8855 26.1327ZM26.3602 36.9038L26.1746 36.5846C24.7912 37.389 23.0795 37.3859 21.6969 36.5762L21.5103 36.8948L21.3238 37.2134C22.9358 38.1575 24.9319 38.1614 26.5458 37.223L26.3602 36.9038ZM21.5103 36.8948L21.6969 36.5762L3.31821 25.8129L3.13162 26.1315L2.94502 26.4501L21.3238 37.2134L21.5103 36.8948ZM3.13162 26.1315L3.31821 25.8129C2.89547 25.5653 2.71636 25.1108 2.78314 24.6831L2.41833 24.6261L2.05352 24.5692C1.94376 25.2721 2.23957 26.037 2.94503 26.4501L3.13162 26.1315ZM2.41833 24.6261H2.78756V22.978H2.41833H2.0491V24.6261H2.41833ZM2.41833 22.978L2.78314 22.9211C2.71599 22.4909 2.89748 22.035 3.32312 21.7898L3.13885 21.4699L2.95459 21.1499C2.2427 21.5599 1.94322 22.3284 2.05351 23.0349L2.41833 22.978ZM3.13885 21.4699L3.32312 21.7898L21.7269 11.1912L21.5426 10.8713L21.3583 10.5513L2.95459 21.1499L3.13885 21.4699ZM21.5426 10.8713L21.7269 11.1912C22.2304 10.9012 22.7769 10.7178 23.335 10.6409L23.2846 10.2752L23.2342 9.90938C22.5833 9.99905 21.9457 10.2131 21.3583 10.5513L21.5426 10.8713ZM24.2231 8.89001L23.9174 8.6829L22.9789 10.068L23.2846 10.2752L23.5903 10.4823L24.5287 9.09712L24.2231 8.89001Z" fill="#1D2939" mask="url(#path-2-outside-1_2497_14422)"/>
<mask id="mask0_2497_14422" style="mask-type:alpha" maskUnits="userSpaceOnUse" x="2" y="10" width="22" height="28">
<rect x="2.40039" y="10.1537" width="21.6" height="27.5077" fill="#D0D8DC"/>
</mask>
<g mask="url(#mask0_2497_14422)">
<path d="M21.525 12.9821C23.0056 12.1294 24.8296 12.1271 26.3142 12.9759L44.8565 23.5772C45.8442 24.1419 45.8505 25.5613 44.8679 26.1326L26.3426 36.9037C24.8439 37.7751 22.9901 37.7716 21.4927 36.8947L3.114 26.1314C2.13583 25.5585 2.13984 24.1459 3.12124 23.5807L21.525 12.9821Z" fill="#D0D5DD"/>
<path d="M21.525 10.8722C23.0056 10.0195 24.8295 10.0171 26.3142 10.866L44.8565 21.4673C45.8442 22.032 45.8505 23.4513 44.8679 24.0226L26.3425 34.7937C24.8439 35.6651 22.99 35.6617 21.4927 34.7848L3.11397 24.0214C2.1358 23.4486 2.13981 22.0359 3.12121 21.4708L21.525 10.8722Z" fill="#D0D5DD"/>
<rect x="2.40039" y="22.6346" width="43.2001" height="2.21539" fill="#D0D5DD"/>
</g>
<path d="M44.9033 21.3543C45.9526 21.954 45.9589 23.4634 44.915 24.0711L26.3805 34.861C24.8542 35.7495 22.9667 35.7471 21.4418 34.8545L3.07167 24.0998C2.03251 23.4914 2.0369 21.9887 3.07956 21.3875L21.4918 10.7706C22.9998 9.90112 24.8581 9.89822 26.3701 10.7624L44.9033 21.3543Z" fill="white" stroke="#1D2939" stroke-width="0.184616"/>
<path d="M13.5822 30.2369H23.8323L26.9073 27.6744L28.9573 25.1119L27.5085 19.1993L24.245 11.3466C23.8899 10.4921 22.8659 10.1426 22.0624 10.6017L14.6072 14.8618L9.60077 17.63L3.08453 21.4427C2.11387 22.0107 2.1088 23.4119 3.07534 23.9868L13.5822 30.2369Z" fill="#D0D5DD"/>
<mask id="path-10-inside-2_2497_14422" fill="white">
<path d="M39.6902 17.9682C41.2116 17.3917 42.7117 17.6217 43.0707 18.4781L43.0726 18.4774L43.4806 19.554L43.4751 19.5561C43.7036 20.4267 42.743 21.5493 41.2603 22.1113C39.7774 22.6733 38.3133 22.4695 37.9074 21.6661L37.9019 21.6682L37.4939 20.5915L37.4957 20.5908C37.197 19.7115 38.1686 18.5448 39.6902 17.9682Z"/>
</mask>
<path d="M39.6902 17.9682C41.2116 17.3917 42.7117 17.6217 43.0707 18.4781L43.0726 18.4774L43.4806 19.554L43.4751 19.5561C43.7036 20.4267 42.743 21.5493 41.2603 22.1113C39.7774 22.6733 38.3133 22.4695 37.9074 21.6661L37.9019 21.6682L37.4939 20.5915L37.4957 20.5908C37.197 19.7115 38.1686 18.5448 39.6902 17.9682Z" fill="#1D2939"/>
<path d="M39.6902 17.9682L39.6248 17.7955L39.6248 17.7955L39.6902 17.9682ZM43.0707 18.4781L42.9005 18.5495L42.9694 18.7139L43.1362 18.6507L43.0707 18.4781ZM43.0726 18.4774L43.2452 18.412L43.1798 18.2393L43.0071 18.3048L43.0726 18.4774ZM43.4806 19.554L43.546 19.7267L43.7186 19.6612L43.6532 19.4886L43.4806 19.554ZM43.4751 19.5561L43.4097 19.3835L43.2544 19.4423L43.2965 19.603L43.4751 19.5561ZM41.2603 22.1113L41.3257 22.2839L41.3257 22.2839L41.2603 22.1113ZM37.9074 21.6661L38.0722 21.5828L37.9973 21.4346L37.842 21.4934L37.9074 21.6661ZM37.9019 21.6682L37.7293 21.7336L37.7947 21.9062L37.9673 21.8408L37.9019 21.6682ZM37.4939 20.5915L37.4285 20.4189L37.2558 20.4843L37.3213 20.6569L37.4939 20.5915ZM37.4957 20.5908L37.5611 20.7635L37.7279 20.7003L37.6705 20.5314L37.4957 20.5908ZM39.6902 17.9682L39.7556 18.1408C40.492 17.8618 41.2151 17.7814 41.7887 17.8684C42.3681 17.9562 42.7565 18.206 42.9005 18.5495L43.0707 18.4781L43.241 18.4067C43.0259 17.8938 42.4848 17.6004 41.844 17.5033C41.1974 17.4053 40.4098 17.4981 39.6248 17.7955L39.6902 17.9682ZM43.0707 18.4781L43.1362 18.6507L43.138 18.65L43.0726 18.4774L43.0071 18.3048L43.0053 18.3054L43.0707 18.4781ZM43.0726 18.4774L42.8999 18.5428L43.3079 19.6195L43.4806 19.554L43.6532 19.4886L43.2452 18.412L43.0726 18.4774ZM43.4806 19.554L43.4151 19.3814L43.4097 19.3835L43.4751 19.5561L43.5405 19.7287L43.546 19.7267L43.4806 19.554ZM43.4751 19.5561L43.2965 19.603C43.3888 19.9546 43.2473 20.3914 42.8697 20.8288C42.4959 21.2616 41.9123 21.6667 41.1948 21.9387L41.2603 22.1113L41.3257 22.2839C42.0909 21.9939 42.729 21.5566 43.1491 21.0701C43.5654 20.588 43.7899 20.0282 43.6537 19.5092L43.4751 19.5561ZM41.2603 22.1113L41.1949 21.9387C40.4773 22.2106 39.7716 22.2941 39.2046 22.2178C38.6317 22.1406 38.2361 21.9073 38.0722 21.5828L37.9074 21.6661L37.7426 21.7493C37.9846 22.2283 38.5239 22.4986 39.1553 22.5837C39.7926 22.6695 40.5604 22.574 41.3257 22.2839L41.2603 22.1113ZM37.9074 21.6661L37.842 21.4934L37.8365 21.4955L37.9019 21.6682L37.9673 21.8408L37.9728 21.8387L37.9074 21.6661ZM37.9019 21.6682L38.0745 21.6027L37.6665 20.5261L37.4939 20.5915L37.3213 20.6569L37.7293 21.7336L37.9019 21.6682ZM37.4939 20.5915L37.5593 20.7641L37.5611 20.7635L37.4957 20.5908L37.4303 20.4182L37.4285 20.4189L37.4939 20.5915ZM37.4957 20.5908L37.6705 20.5314C37.5507 20.1788 37.6761 19.7342 38.052 19.2843C38.4241 18.839 39.0192 18.4199 39.7556 18.1408L39.6902 17.9682L39.6248 17.7955C38.8396 18.0931 38.1881 18.5456 37.7687 19.0476C37.353 19.5451 37.142 20.1235 37.3209 20.6502L37.4957 20.5908Z" fill="#1D2939" mask="url(#path-10-inside-2_2497_14422)"/>
<path d="M38.6105 22.2587L38.252 21.3126L38.4195 21.361L38.7843 22.3234L38.6105 22.2587Z" fill="#FFDD33"/>
<path d="M39.7231 18.0553C40.4808 17.7682 41.2291 17.686 41.8247 17.781C42.4235 17.8765 42.8486 18.1459 42.9992 18.5432C43.1495 18.9403 43.0094 19.4232 42.6245 19.8914C42.2414 20.3572 41.6269 20.7925 40.8692 21.0798C40.1113 21.367 39.3621 21.4485 38.7663 21.3535C38.1678 21.258 37.7438 20.9889 37.5931 20.5919C37.4426 20.1947 37.5815 19.7114 37.9665 19.2431C38.3497 18.7771 38.9652 18.3425 39.7231 18.0553Z" fill="#FFDD33" stroke="#1D2939" stroke-width="0.184616"/>
<path d="M39.8712 18.4469C40.44 18.2313 41.0013 18.1694 41.4462 18.2406C41.894 18.3122 42.2044 18.5135 42.314 18.8026C42.4235 19.0917 42.3245 19.4481 42.0366 19.7985C41.7506 20.1467 41.2893 20.4723 40.7205 20.6878C40.1519 20.9033 39.5912 20.9649 39.1464 20.8938C38.6986 20.8222 38.3883 20.6209 38.2786 20.3318C38.169 20.0427 38.2681 19.6863 38.556 19.3359C38.842 18.9878 39.3026 18.6624 39.8712 18.4469Z" fill="#D0D5DD" stroke="#1D2939" stroke-width="0.184616"/>
<path d="M39.8271 18.5761C40.3732 18.3691 40.9113 18.3095 41.3381 18.3773C41.7678 18.4457 42.0645 18.6381 42.169 18.9136C42.2734 19.1891 42.1787 19.5298 41.9022 19.8658C41.6275 20.1995 41.1855 20.5123 40.6393 20.7193C40.0931 20.9263 39.5548 20.985 39.1279 20.9172C38.6981 20.8488 38.4015 20.6565 38.297 20.3809C38.1928 20.1054 38.2874 19.7646 38.5638 19.4287C38.8385 19.095 39.281 18.783 39.8271 18.5761Z" fill="#FFDD33" stroke="#1D2939" stroke-width="0.184616"/>
<mask id="path-16-inside-3_2497_14422" fill="white">
<path d="M11.705 15.0517C13.1908 15.7147 14.0931 16.9349 13.7445 17.7955L13.7463 17.7963L13.2772 18.8478L13.2719 18.8454C12.8209 19.6246 11.3482 19.7439 9.89985 19.0979C8.45137 18.4517 7.55574 17.2757 7.83436 16.4195L7.82901 16.4171L8.29811 15.3657L8.29989 15.3665C8.70752 14.5321 10.219 14.3887 11.705 15.0517Z"/>
</mask>
<path d="M11.705 15.0517C13.1908 15.7147 14.0931 16.9349 13.7445 17.7955L13.7463 17.7963L13.2772 18.8478L13.2719 18.8454C12.8209 19.6246 11.3482 19.7439 9.89985 19.0979C8.45137 18.4517 7.55574 17.2757 7.83436 16.4195L7.82901 16.4171L8.29811 15.3657L8.29989 15.3665C8.70752 14.5321 10.219 14.3887 11.705 15.0517Z" fill="#1D2939"/>
<path d="M11.705 15.0517L11.7803 14.8831L11.7802 14.8831L11.705 15.0517ZM13.7445 17.7955L13.5734 17.7262L13.5065 17.8915L13.6693 17.9641L13.7445 17.7955ZM13.7463 17.7963L13.9149 17.8715L13.9901 17.7029L13.8215 17.6277L13.7463 17.7963ZM13.2772 18.8478L13.202 19.0164L13.3706 19.0916L13.4458 18.923L13.2772 18.8478ZM13.2719 18.8454L13.3471 18.6768L13.1953 18.6091L13.1121 18.7529L13.2719 18.8454ZM9.89985 19.0979L9.82463 19.2665L9.82465 19.2666L9.89985 19.0979ZM7.83436 16.4195L8.00992 16.4767L8.06134 16.3186L7.90958 16.2509L7.83436 16.4195ZM7.82901 16.4171L7.66041 16.3419L7.5852 16.5105L7.75379 16.5857L7.82901 16.4171ZM8.29811 15.3657L8.37333 15.1971L8.20473 15.1219L8.12951 15.2905L8.29811 15.3657ZM8.29989 15.3665L8.22468 15.5351L8.38751 15.6077L8.46577 15.4475L8.29989 15.3665ZM11.705 15.0517L11.6298 15.2203C12.3489 15.5412 12.9187 15.9937 13.2644 16.4595C13.6137 16.9301 13.7132 17.381 13.5734 17.7262L13.7445 17.7955L13.9157 17.8648C14.1244 17.3493 13.9471 16.7599 13.5609 16.2395C13.1711 15.7143 12.5469 15.2252 11.7803 14.8831L11.705 15.0517ZM13.7445 17.7955L13.6693 17.9641L13.6711 17.9649L13.7463 17.7963L13.8215 17.6277L13.8198 17.6269L13.7445 17.7955ZM13.7463 17.7963L13.5777 17.7211L13.1086 18.7726L13.2772 18.8478L13.4458 18.923L13.9149 17.8715L13.7463 17.7963ZM13.2772 18.8478L13.3524 18.6792L13.3471 18.6768L13.2719 18.8454L13.1967 19.014L13.202 19.0164L13.2772 18.8478ZM13.2719 18.8454L13.1121 18.7529C12.93 19.0676 12.5219 19.2778 11.9458 19.322C11.3755 19.3658 10.6759 19.242 9.97505 18.9293L9.89985 19.0979L9.82465 19.2666C10.5721 19.5999 11.333 19.7394 11.974 19.6902C12.6091 19.6414 13.1628 19.4024 13.4317 18.9379L13.2719 18.8454ZM9.89985 19.0979L9.97507 18.9294C9.27413 18.6166 8.71437 18.1787 8.36585 17.725C8.01369 17.2666 7.89742 16.8224 8.00992 16.4767L7.83436 16.4195L7.65881 16.3624C7.49269 16.8729 7.68492 17.4447 8.07304 17.9499C8.46479 18.4599 9.0771 18.933 9.82463 19.2665L9.89985 19.0979ZM7.83436 16.4195L7.90958 16.2509L7.90423 16.2486L7.82901 16.4171L7.75379 16.5857L7.75914 16.5881L7.83436 16.4195ZM7.82901 16.4171L7.99761 16.4924L8.46671 15.4409L8.29811 15.3657L8.12951 15.2905L7.66041 16.3419L7.82901 16.4171ZM8.29811 15.3657L8.22289 15.5343L8.22468 15.5351L8.29989 15.3665L8.37511 15.1979L8.37333 15.1971L8.29811 15.3657ZM8.29989 15.3665L8.46577 15.4475C8.62924 15.1129 9.03148 14.8858 9.6152 14.8314C10.193 14.7776 10.9106 14.8994 11.6298 15.2203L11.705 15.0517L11.7802 14.8831C11.0135 14.541 10.2323 14.4031 9.58094 14.4638C8.9355 14.5239 8.37817 14.7856 8.13401 15.2854L8.29989 15.3665Z" fill="#1D2939" mask="url(#path-16-inside-3_2497_14422)"/>
<path d="M7.91591 17.3345L8.32812 16.4105L8.41293 16.563L7.9936 17.5029L7.91591 17.3345Z" fill="#FFDD33"/>
<path d="M11.6672 15.1367C12.4072 15.4669 12.9961 15.9358 13.3518 16.4229C13.7094 16.9125 13.8212 17.4033 13.6482 17.7913C13.475 18.179 13.0353 18.423 12.4323 18.4839C11.8322 18.5446 11.0895 18.4205 10.3495 18.0904C9.60925 17.7602 9.02017 17.2901 8.66434 16.8029C8.30691 16.3134 8.1957 15.8237 8.36851 15.4358C8.54158 15.0479 8.98063 14.8029 9.58384 14.7419C10.1841 14.6812 10.927 14.8064 11.6672 15.1367Z" fill="#FFDD33" stroke="#1D2939" stroke-width="0.184616"/>
<path d="M11.4955 15.5183C12.051 15.7661 12.4929 16.1176 12.7585 16.4817C13.0257 16.848 13.1042 17.2095 12.9783 17.4919C12.8522 17.7742 12.5308 17.9573 12.0797 18.0031C11.6314 18.0487 11.0746 17.9547 10.5191 17.7068C9.96387 17.4591 9.52262 17.1077 9.25704 16.7439C8.98975 16.3775 8.91135 16.016 9.03725 15.7336C9.16323 15.4513 9.48458 15.2682 9.93582 15.2224C10.384 15.1769 10.9402 15.2706 11.4955 15.5183Z" fill="#D0D5DD" stroke="#1D2939" stroke-width="0.184616"/>
<path d="M11.3732 15.5782C11.9065 15.8161 12.3303 16.153 12.5854 16.5019C12.8421 16.8531 12.9171 17.1987 12.7971 17.4678C12.6771 17.7369 12.3699 17.9119 11.9369 17.9555C11.5069 17.9988 10.9728 17.9093 10.4393 17.6713C9.90593 17.4334 9.48255 17.0957 9.22748 16.7468C8.97068 16.3954 8.8957 16.0499 9.01576 15.7808C9.13589 15.5118 9.44313 15.3367 9.87602 15.2931C10.306 15.2499 10.8398 15.3403 11.3732 15.5782Z" fill="#FFDD33" stroke="#1D2939" stroke-width="0.184616"/>
<path d="M13.5359 25.6382C13.2502 25.9676 13.3836 26.4805 13.7934 26.6287L23.3635 30.0867C24.0714 30.3424 24.8644 30.1337 25.3549 29.5623L37.776 15.0882C38.0587 14.7586 37.9248 14.2483 37.5169 14.1003L28.0607 10.6738C27.3557 10.4183 26.5649 10.6244 26.0731 11.1911L13.5359 25.6382Z" fill="#FFDD33" stroke="#1D2939" stroke-width="0.184616"/>
<path d="M13.8245 25.4287C13.5488 25.7614 13.6877 26.2669 14.0949 26.4106L23.3339 29.6704C23.9885 29.9014 24.7184 29.6921 25.1506 29.1483L27.3306 26.4056L27.3335 26.4012L34.8796 15.8221C35.6044 14.8058 35.1084 13.3791 33.91 13.0323L27.1369 11.0743C26.4443 10.8743 25.6983 11.1045 25.238 11.6598L13.8245 25.4287Z" fill="#1D2939" stroke="#1D2939" stroke-width="0.184616"/>
<path d="M13.4622 25.1702C13.1962 25.5157 13.3593 26.02 13.7771 26.144L23.5326 29.0377C24.2542 29.2516 25.0337 28.9971 25.4901 28.398L37.0455 13.2238C37.3084 12.8783 37.145 12.3767 36.7291 12.2528L27.0892 9.38383C26.3704 9.16994 25.593 9.42181 25.1351 10.0162L13.4622 25.1702Z" fill="#FFDD33" stroke="#1D2939" stroke-width="0.184616"/>
<path d="M13.6286 24.8519C13.3609 25.1963 13.5218 25.7012 13.9393 25.8268L23.4664 28.6925C24.1521 28.8988 24.8933 28.6327 25.2907 28.0365L27.0588 25.3829L27.0599 25.3821L34.4259 13.8628C35.0998 12.809 34.5287 11.4071 33.3107 11.125L26.8053 9.61982C26.1175 9.46067 25.3994 9.71534 24.9657 10.2727L13.6286 24.8519Z" fill="#1D2939" stroke="#1D2939" stroke-width="0.184616"/>
<path d="M13.4189 24.6753C13.1743 25.0363 13.3678 25.5297 13.7923 25.6281L23.7058 27.9232C24.4391 28.0928 25.2016 27.7914 25.6207 27.1656L36.2319 11.3168C36.4733 10.9559 36.2797 10.4652 35.8571 10.3668L26.0605 8.08938C25.3301 7.9196 24.5694 8.21828 24.1485 8.83943L13.4189 24.6753Z" fill="#FFDD33" stroke="#1D2939" stroke-width="0.184616"/>
<path d="M25.7345 9.80381C25.0999 10.0947 24.5667 9.925 24.3794 9.80381L15.0918 23.4542C15.213 23.4542 15.7198 23.6526 15.9511 24.1153C16.2192 24.6515 16.1164 25.1399 15.9511 25.3713L23.1565 26.9577C23.1895 26.7264 23.5663 26.1248 24.0158 25.834C24.4653 25.5431 25.2718 25.5806 25.6354 25.7018L34.1297 12.8776C33.9865 12.8336 33.5091 12.5447 33.4025 11.9852C33.2703 11.2911 33.6339 10.9937 33.7661 10.6632L26.6269 8.94446C26.5939 9.10972 26.3691 9.51295 25.7345 9.80381Z" fill="#FFDD33" stroke="#1D2939" stroke-width="0.184616"/>
<path d="M25.1576 15.5541C26.2594 15.7531 27.2095 16.1701 27.8551 16.6792C28.5042 17.1912 28.8266 17.7787 28.7286 18.3215C28.6305 18.8642 28.1231 19.302 27.336 19.5546C26.5531 19.8058 25.5171 19.8643 24.4153 19.6654C23.3136 19.4665 22.3635 19.0493 21.7178 18.5403C21.0687 18.0284 20.7464 17.4408 20.8443 16.898C20.9423 16.3552 21.4497 15.9175 22.2369 15.6649C23.0198 15.4137 24.0558 15.3552 25.1576 15.5541Z" fill="#FFDD33" stroke="#1D2939" stroke-width="0.184616"/>
<path d="M28.439 12.3573C28.8632 12.431 29.2275 12.5881 29.4729 12.7788C29.7218 12.9724 29.8297 13.1834 29.7982 13.3656C29.7665 13.5478 29.5938 13.7099 29.2941 13.8083C28.9987 13.9051 28.6027 13.931 28.1784 13.8573C27.7541 13.7835 27.3899 13.6257 27.1446 13.4349C26.8959 13.2413 26.7887 13.0304 26.8203 12.8483C26.8521 12.6661 27.024 12.5037 27.3235 12.4054C27.6188 12.3085 28.0146 12.2837 28.439 12.3573Z" stroke="#1D2939" stroke-width="0.184616"/>
<path d="M21.3608 21.8005C21.7906 21.887 22.1569 22.0569 22.4015 22.2578C22.6493 22.4614 22.754 22.6789 22.7169 22.8641C22.6796 23.0494 22.499 23.2103 22.1915 23.3023C21.8883 23.393 21.4847 23.4082 21.055 23.3219C20.6253 23.2355 20.259 23.0654 20.0143 22.8646C19.7662 22.6608 19.6619 22.4427 19.6991 22.2574C19.7365 22.0721 19.9168 21.9121 20.2243 21.8201C20.5276 21.7294 20.931 21.7141 21.3608 21.8005Z" stroke="#1D2939" stroke-width="0.184616"/>
</g>
</g>
<defs>
<clipPath id="clip0_2497_14422">
<rect width="48.0001" height="48.0001" fill="white"/>
</clipPath>
<clipPath id="clip1_2497_14422">
<rect width="48.0001" height="48.0001" fill="white"/>
</clipPath>
</defs>
</svg>
