<svg width="24" height="24" viewBox="0 0 24 24" fill="none" xmlns="http://www.w3.org/2000/svg">
<path fill-rule="evenodd" clip-rule="evenodd" d="M21.9607 12.12V2.31239C21.9607 1.25869 21.1063 0.405426 20.0537 0.405426H3.70775C2.65511 0.405426 1.80078 1.25869 1.80078 2.31239V12.12C1.80078 13.1737 2.65511 14.0269 3.70775 14.0269H20.0537C21.1063 14.0269 21.9607 13.1737 21.9607 12.12ZM20.3261 2.31239V12.12C20.3261 12.2703 20.204 12.3923 20.0537 12.3923H3.70775C3.55742 12.3923 3.43538 12.2703 3.43538 12.12V2.31239C3.43538 2.16207 3.55743 2.04002 3.70775 2.04002H20.0537C20.204 2.04002 20.3261 2.16207 20.3261 2.31239Z" fill="#0063F5"/>
<path fill-rule="evenodd" clip-rule="evenodd" d="M11.8813 3.64722C9.89696 3.64722 8.28516 5.25902 8.28516 7.24333C8.28516 9.22763 9.89696 10.8394 11.8813 10.8394C13.8656 10.8394 15.4774 9.22763 15.4774 7.24333C15.4774 5.25902 13.8656 3.64722 11.8813 3.64722ZM11.8813 5.28181C12.9635 5.28181 13.8428 6.16113 13.8428 7.24333C13.8428 8.32552 12.9635 9.20484 11.8813 9.20484C10.7991 9.20484 9.91975 8.32552 9.91975 7.24333C9.91975 6.16113 10.7991 5.28181 11.8813 5.28181Z" fill="#0063F5"/>
<path fill-rule="evenodd" clip-rule="evenodd" d="M18.8281 6.42609H16.9755C16.5243 6.42609 16.1582 6.79223 16.1582 7.24338C16.1582 7.69454 16.5243 8.06068 16.9755 8.06068H18.8281C19.2793 8.06068 19.6454 7.69454 19.6454 7.24338C19.6454 6.79223 19.2793 6.42609 18.8281 6.42609Z" fill="#0063F5"/>
<path fill-rule="evenodd" clip-rule="evenodd" d="M6.78709 6.42609H4.93449C4.48333 6.42609 4.11719 6.79223 4.11719 7.24338C4.11719 7.69454 4.48333 8.06068 4.93449 8.06068H6.78709C7.23825 8.06068 7.60439 7.69454 7.60439 7.24338C7.60439 6.79223 7.23825 6.42609 6.78709 6.42609V6.42609Z" fill="#0063F5"/>
<path fill-rule="evenodd" clip-rule="evenodd" d="M12.6971 16.4784V23.0168C12.6971 23.468 12.331 23.8341 11.8798 23.8341C11.4286 23.8341 11.0625 23.468 11.0625 23.0168V16.4784C11.0625 16.0273 11.4286 15.6611 11.8798 15.6611C12.331 15.6611 12.6971 16.0273 12.6971 16.4784Z" fill="#0063F5"/>
<path fill-rule="evenodd" clip-rule="evenodd" d="M10.2794 20.2587L11.8813 21.8595L13.4833 20.2587C13.8014 19.9395 14.3203 19.9395 14.6384 20.2587C14.9577 20.5769 14.9577 21.0957 14.6384 21.4139L12.4589 23.5934C12.1396 23.9126 11.623 23.9126 11.3037 23.5934L9.12421 21.4139C8.80495 21.0957 8.80495 20.5769 9.12421 20.2587C9.44237 19.9395 9.96121 19.9395 10.2794 20.2587V20.2587Z" fill="#0063F5"/>
</svg>
