<svg width="24" height="24" viewBox="0 0 24 24" fill="none" xmlns="http://www.w3.org/2000/svg">
<path fill-rule="evenodd" clip-rule="evenodd" d="M21.9607 12.12V2.31239C21.9607 1.25869 21.1063 0.405426 20.0537 0.405426H3.70775C2.65511 0.405426 1.80078 1.25869 1.80078 2.31239V12.12C1.80078 13.1737 2.65511 14.0269 3.70775 14.0269H20.0537C21.1063 14.0269 21.9607 13.1737 21.9607 12.12ZM20.3261 2.31239V12.12C20.3261 12.2703 20.204 12.3923 20.0537 12.3923H3.70775C3.55742 12.3923 3.43538 12.2703 3.43538 12.12V2.31239C3.43538 2.16207 3.55743 2.04002 3.70775 2.04002H20.0537C20.204 2.04002 20.3261 2.16207 20.3261 2.31239Z" fill="#9AA4B2"/>
<path fill-rule="evenodd" clip-rule="evenodd" d="M11.8813 3.64722C9.89696 3.64722 8.28516 5.25902 8.28516 7.24333C8.28516 9.22763 9.89696 10.8394 11.8813 10.8394C13.8656 10.8394 15.4774 9.22763 15.4774 7.24333C15.4774 5.25902 13.8656 3.64722 11.8813 3.64722ZM11.8813 5.28181C12.9635 5.28181 13.8428 6.16113 13.8428 7.24333C13.8428 8.32552 12.9635 9.20484 11.8813 9.20484C10.7991 9.20484 9.91975 8.32552 9.91975 7.24333C9.91975 6.16113 10.7991 5.28181 11.8813 5.28181Z" fill="#9AA4B2"/>
<path fill-rule="evenodd" clip-rule="evenodd" d="M18.8281 6.42609H16.9755C16.5243 6.42609 16.1582 6.79223 16.1582 7.24338C16.1582 7.69454 16.5243 8.06068 16.9755 8.06068H18.8281C19.2793 8.06068 19.6454 7.69454 19.6454 7.24338C19.6454 6.79223 19.2793 6.42609 18.8281 6.42609Z" fill="#9AA4B2"/>
<path fill-rule="evenodd" clip-rule="evenodd" d="M6.78709 6.42609H4.93449C4.48333 6.42609 4.11719 6.79223 4.11719 7.24338C4.11719 7.69454 4.48333 8.06068 4.93449 8.06068H6.78709C7.23825 8.06068 7.60439 7.69454 7.60439 7.24338C7.60439 6.79223 7.23825 6.42609 6.78709 6.42609V6.42609Z" fill="#9AA4B2"/>
<path fill-rule="evenodd" clip-rule="evenodd" d="M12.6971 23.0169V16.4786C12.6971 16.0274 12.331 15.6613 11.8798 15.6613C11.4286 15.6613 11.0625 16.0274 11.0625 16.4786V23.0169C11.0625 23.4681 11.4286 23.8342 11.8798 23.8342C12.331 23.8342 12.6971 23.4681 12.6971 23.0169Z" fill="#9AA4B2"/>
<path fill-rule="evenodd" clip-rule="evenodd" d="M10.2794 19.236L11.8813 17.6352L13.4833 19.236C13.8014 19.5553 14.3203 19.5553 14.6384 19.236C14.9577 18.9179 14.9577 18.399 14.6384 18.0809L12.4589 15.9014C12.1396 15.5821 11.623 15.5821 11.3037 15.9014L9.12421 18.0809C8.80495 18.3991 8.80495 18.9179 9.12421 19.236C9.44237 19.5553 9.96121 19.5553 10.2794 19.236V19.236Z" fill="#9AA4B2"/>
</svg>
