<svg width="24" height="24" viewBox="0 0 24 24" fill="none" xmlns="http://www.w3.org/2000/svg">
<path d="M17.2495 13.5947C15.1819 13.5947 13.5 15.277 13.5 17.3445C13.5 19.4123 15.1823 21.0944 17.2495 21.0944C19.3176 21.0944 21.0001 19.4121 21.0001 17.3445C21.0001 15.2768 19.3176 13.5947 17.2495 13.5947ZM17.2495 19.1867C16.2343 19.1867 15.408 18.3604 15.408 17.3448C15.408 16.3293 16.2343 15.5028 17.2495 15.5028C18.2656 15.5028 19.0919 16.3292 19.0919 17.3448C19.0919 18.3604 18.2656 19.1867 17.2495 19.1867Z" fill="#0063F5"/>
<path d="M6.68309 11.0023C8.75109 11.0023 10.4337 9.32004 10.4337 7.25248C10.4337 5.18492 8.75123 3.50262 6.68309 3.50262C4.61549 3.50262 2.93359 5.18492 2.93359 7.25248C2.93345 9.32023 4.6156 11.0023 6.68309 11.0023ZM6.68309 5.41027C7.69903 5.41027 8.52548 6.23658 8.52548 7.25223C8.52548 8.26788 7.69906 9.09418 6.68309 9.09418C5.66759 9.09418 4.84157 8.26788 4.84157 7.25223C4.84143 6.23658 5.66759 5.41027 6.68309 5.41027Z" fill="#0063F5"/>
<path d="M8.67774 18.7001H6.76124L17.0267 8.43468C17.3992 8.06211 17.3992 7.45786 17.0267 7.08529C16.6545 6.71282 16.0498 6.71282 15.6776 7.08529L5.41214 17.3511V15.4346C5.41214 14.9078 4.98484 14.4807 4.45802 14.4807C3.93106 14.4807 3.50391 14.9078 3.50391 15.4346V19.6538C3.50391 19.7165 3.51048 19.7794 3.52276 19.8409C3.52804 19.8682 3.53832 19.8929 3.54589 19.9192C3.55546 19.9526 3.56346 19.9867 3.57674 20.0193C3.58945 20.0499 3.60701 20.0777 3.62301 20.107C3.63672 20.1325 3.648 20.1588 3.66456 20.1834C3.69912 20.2349 3.73825 20.2835 3.78209 20.3275C3.78252 20.3276 3.78267 20.328 3.78309 20.3288C3.82751 20.373 3.87649 20.4124 3.92847 20.4474C3.95218 20.4631 3.97803 20.4743 4.00273 20.488C4.03258 20.504 4.06114 20.522 4.09256 20.5348C4.12455 20.548 4.15768 20.556 4.19067 20.5654C4.21723 20.5731 4.24294 20.5834 4.27078 20.589C4.33248 20.6014 4.39503 20.6079 4.45772 20.6079H8.67737C9.20418 20.6079 9.63148 20.1806 9.63148 19.6538C9.63148 19.1272 9.20447 18.6999 8.67766 18.6999L8.67774 18.7001Z" fill="#0063F5"/>
</svg>
