<svg width="24" height="24" viewBox="0 0 24 24" fill="none" xmlns="http://www.w3.org/2000/svg">
<path d="M6.6841 11.0027C8.7517 11.0027 10.4336 9.32036 10.4336 7.25279C10.4336 5.18505 8.75129 3.50293 6.6841 3.50293C4.61595 3.50293 2.93351 5.18523 2.93351 7.25279C2.93351 9.32054 4.61595 11.0027 6.6841 11.0027ZM6.6841 5.41058C7.69934 5.41058 8.52561 6.23689 8.52561 7.25254C8.52561 8.26804 7.69931 9.09449 6.6841 9.09449C5.66801 9.09449 4.84171 8.26808 4.84171 7.25254C4.84171 6.23689 5.66801 5.41058 6.6841 5.41058Z" fill="#9AA4B2"/>
<path d="M17.2505 13.595C15.1825 13.595 13.4999 15.2773 13.4999 17.3448C13.4999 19.4124 15.1824 21.0947 17.2505 21.0947C19.3181 21.0947 21 19.4124 21 17.3448C21.0001 15.2771 19.318 13.595 17.2505 13.595ZM17.2505 19.187C16.2346 19.187 15.4081 18.3607 15.4081 17.3451C15.4081 16.3294 16.2345 15.5031 17.2505 15.5031C18.266 15.5031 19.092 16.3294 19.092 17.3451C19.0922 18.3607 18.266 19.187 17.2505 19.187Z" fill="#9AA4B2"/>
<path d="M15.2559 5.89723H17.1723L6.90694 16.1626C6.53436 16.5352 6.53436 17.1395 6.90694 17.512C7.27911 17.8845 7.88376 17.8845 8.25604 17.512L18.5215 7.24626V9.16275C18.5215 9.68957 18.9488 10.1166 19.4756 10.1166C20.0025 10.1166 20.4297 9.68957 20.4297 9.16275V4.94348C20.4297 4.88078 20.4231 4.81795 20.4108 4.7564C20.4056 4.72912 20.3953 4.70441 20.3877 4.67814C20.3781 4.64472 20.3701 4.61059 20.3569 4.57803C20.3441 4.54747 20.3266 4.51962 20.3106 4.49034C20.2969 4.46478 20.2856 4.4385 20.269 4.41394C20.2345 4.36239 20.1953 4.31383 20.1515 4.26985C20.1511 4.26971 20.1509 4.26928 20.1505 4.26856C20.1061 4.2243 20.0571 4.18488 20.0051 4.14989C19.9814 4.13418 19.9556 4.12304 19.9309 4.10933C19.901 4.09334 19.8725 4.07534 19.841 4.06249C19.809 4.04935 19.7759 4.04136 19.7429 4.03193C19.7164 4.02422 19.6907 4.01394 19.6628 4.00837C19.6011 3.99594 19.5386 3.98937 19.4759 3.98937H15.2562C14.7294 3.98937 14.3021 4.41668 14.3021 4.94349C14.3021 5.47016 14.7291 5.89746 15.2559 5.89746L15.2559 5.89723Z" fill="#9AA4B2"/>
</svg>
